<svg width="96" height="96" xmlns="http://www.w3.org/2000/svg">
    <defs>
        <path id="a" d="M0 0h96v96H0z"/>
    </defs>
    <g fill="none" fill-rule="evenodd">
        <path d="M64.305 45.086c1.038-1.699 2.908-3.552 3.763-4.63.854-1.076 1.545-2.489.76-5.014-.784-2.526-3.043-4.566-3.63-5.202-.588-.637-.854-1.319-1.311-1.42-.456-.1-.844.118-.876.437-.238.175-1.721 1.687-2.309 2.314-.587.626-4.168 3.812-6.42 7.245-1.163 1.542-3.624 3.53-4.692 4.377-1.07.848-7.208 4.336-8.29 5.067-1.08.731-5.194 1.879-6.286 2.448-1.093.57 1.51 3.027 3.59 3.156 2.082.129 24.663-7.078 25.701-8.778Z" fill="#EBE9ED"/>
        <path d="M64.395 33.924c.866-1.248 2.955.231 4.498 1.74.679 2.388.004 3.748-.825 4.793-.778.979-2.393 2.6-3.46 4.163l-.303.466a.5.5 0 0 1-.04.057c-2.006.648-4.377.989-6.343.67-3.587-.583-1.644-3.775.126-5.308l.165-.139c1.808-1.47 4.843-4.515 6.182-6.442Z" fill="#D9D8DE"/>
        <path d="M67.962 33.567c.353.58.66 1.21.867 1.875.784 2.525.093 3.938-.761 5.015-.855 1.077-2.725 2.93-3.763 4.63-.196.32-1.162.839-2.613 1.466-1.682-1.38-2.616-3.463-1.442-4.018 2.273-1.075 6.72-4.283 6.993-5.818.114-.64.283-1.414.507-2.324l.212-.826Z" fill="#C6C6CB"/>
        <path d="M68.068 40.457c-.499.628-1.342 1.52-2.164 2.49-1.246-.31-2.24-1.123-1.648-1.853A16.76 16.76 0 0 0 68.53 39.8c-.143.234-.3.452-.462.657Z" fill="#AEADB3"/>
        <path d="M60.785 32.256c.147-.024.08.218-.204.727-.194.079-.391.15-.592.216-.274.088-1.49 1.03-1.886 1.41l-.942.997c-.264.285-.49.548-.518.653-.06.235-.725 1.29-.675 1.554.05.265-.2.435-.23.496-.03.06-.192-.361-.17-.58.016-.171.448-.97.67-1.414l.096-.206a46.353 46.353 0 0 1 2.257-2.456c-.039.151-.32.502-.178.41l.882-.618c.293-.21.554-.401.596-.443l.323-.322c.202-.193.445-.403.57-.424Z" fill="#ED725C"/>
        <path d="m63.015 33.434-5.689 6.872-.2.107c-.187.093-.502.243-.946.448l6.45-7.427-1.828-1.97.225-.235.814.885c.309.344.7.784 1.174 1.32Z" fill="#A9A5A9"/>
        <path d="m63.72 28.797.167.023c.457.101.723.783 1.31 1.42l.873.902c.917.976 2.205 2.517 2.759 4.3.784 2.525.093 3.938-.761 5.015-.629.791-1.805 2.002-2.797 3.263-.113-.456.044-1.243.55-1.756.763-.773 2.428-2.937 2.55-3.951.12-1.015-.73-3.559-.87-3.8-.141-.241-2.259-2.692-2.885-3.431a13.06 13.06 0 0 0-1.303-1.3l-.298-.256c.04-.227.262-.396.557-.426l.148-.003Z" fill="#EB7D51"/>
        <path d="m69.137 36.87.018.18c.124 1.563-.434 2.583-1.087 3.407-.629.791-1.805 2.002-2.797 3.263-.113-.456.044-1.243.55-1.756.763-.773 2.428-2.937 2.55-3.951.1-.849-.477-2.765-.751-3.512.598.724 1.153 1.535 1.517 2.368Z" fill="#D35826"/>
        <path d="m68.495 39.856-.084.13a6.725 6.725 0 0 1-.343.47c-.629.792-1.805 2.003-2.797 3.264-.113-.456.044-1.243.55-1.756.651-.66 1.962-2.335 2.406-3.442.128.516.217.959.268 1.334Z" fill="#C33711"/>
        <path d="M27.072 55.088c.87-.536 4.478-2.69 6.285-3.382 1.808-.693 3.497-1.657 4.286-1.758.788-.1 1.442.262 3.588-.737 2.146-.998 12.783-7.742 14.949-7.88 2.165-.139 10.733 6.4 11.695 7.88.963 1.48-3.37 8.989-8.797 9.763-5.428.774-24.552.832-28.2 0-3.647-.832-4.676-3.35-3.806-3.886Z" fill="#C2BFC4"/>
        <path d="m41.449 49.105.2-.103-2.172 1.66c-1.145.891-2.094 1.689-2.37 2.179-.995 1.773-4.78 4.11-8.603 4.747-.178.03-.347.052-.507.068-1.251-1.02-1.494-2.217-.925-2.568l.691-.418c1.396-.833 4.106-2.394 5.594-2.964 1.808-.693 3.497-1.657 4.286-1.758.788-.1 1.442.262 3.588-.737l.218-.106Z" fill="#F2F0F0"/>
        <path d="M67.875 49.211c.963 1.48-3.37 8.989-8.797 9.763-3.755.536-14.067.728-21.273.52a2.655 2.655 0 0 1-.184-1.17c.243-2.946 4.394-4.092 11.994-8 3.542-1.822 6.406-4.598 8.594-8.33 3.34 1.674 8.902 6.042 9.666 7.217Z" fill="#B4B1B6"/>
        <path d="M67.875 49.211c.963 1.48-3.37 8.989-8.797 9.763-3.506.5-12.725.701-19.797.557-.921-1.187.284-2.711 3.613-4.575 3.901-.872 6.925-1.667 9.07-2.385 2.65-.887 8.077-4.08 13.011-6.03 1.455 1.159 2.585 2.186 2.9 2.67Z" fill="#A7A4A9"/>
        <path d="m57.802 41.218 1.697.088.258.175 6.61 14.577a.3.3 0 0 1-.493.328l-.053-.08-6.535-14.412-1.018-.052 6.71 14.455-.136.394-1.092.553-.402-.13-7.134-13.774-.752.26 6.882 13.7-.13.4-1.418.738-.408-.135-6.726-13.719-1.134.292 6.165 12.387-.126.397-1.44.775-.411-.133-5.982-12.356-.978.442 5.812 11.65-.052.34-.9.943a.3.3 0 0 1-.425.008l-.058-.08-6.285-12.335-.776.238 6.12 11.824-.136.408-.962.463-.39-.122-6.46-11.347-.434.18 5.596 10.414a.3.3 0 0 1-.069.37l-.09.053-1.143.427-.367-.135-5.6-10.042a.3.3 0 0 1 .465-.367l.06.075 5.472 9.815.58-.216-5.588-10.401.15-.42.985-.408.376.129 6.449 11.332.43-.208-6.142-11.867a.3.3 0 0 1 .083-.375l.095-.05 1.36-.417.355.15L54.474 58.6l.462-.484-5.855-11.739.145-.407 1.528-.69.394.143 5.97 12.335.91-.488-6.203-12.457a.3.3 0 0 1 .095-.379l.1-.046 1.73-.444.343.158 6.697 13.66.886-.458-6.903-13.74a.3.3 0 0 1 .078-.367l.092-.05 1.32-.457.364.145 7.117 13.739.568-.29-6.798-14.64a.3.3 0 0 1 .196-.417l.092-.009Z" fill="#F5F4F8" fill-rule="nonzero"/>
        <path fill="#F5F4F8" fill-rule="nonzero" d="m63.078 41.61.41.142.613 1.34-.138.392-21.597 10.842.574.496 21.182-10.537.414.163.451 1.195-.145.374L44.534 56.25l.63.554 20.404-10.262.526 1.793-.154.353-18.964 9.404.895.253 18.152-8.615-.346 2.123-.164.222-13.828 6.742-.263-.539 13.688-6.676.136-.844-17.316 8.15-2.66-.638 20.178-10.008-.254-.862-19.94 10.032-.333-.043-1.449-1.275 20.856-10.512-.236-.632-21.064 10.48-.33-.042-1.4-1.216 22.136-11.114-.362-.792L41.97 53.108l-.274-.534z"/>
        <path d="M61.59 39.107c3.049 1.114 5.038 2.31 6.209 2.826 1.17.516 3.533 1.408 4.85.938 1.317-.47 2.072-1.495 3.056-2.751.983-1.256 1.986-1.666 2.877-1.509.891.157 1.817.814 1.962 1.164.097.234.153.409.166.526.648 1.646 1.005 2.814 1.07 3.505.097 1.036.433 1.948.271 2.885-.161.937-2.156 6.478-2.877 7.882-.72 1.404-24.713 4.63-27.838 4.785-4.265.21-17.023.288-21.647-.032-1.007-.07-1.283-1.293-1.155-1.331.716-.213 2.368-1.532 2.72-2.105.353-.572 1.631-2.747 1.812-3.41.18-.664.744-1.178 1.169-1.327.425-.15 4.972-1.984 5.618-2.223.645-.239 1.442-.713 3.143-1.696 1.701-.983 6.143-3.794 7.115-4.363.192-.22.095-.578.98-1.093.885-.516 3.396-3.224 4.801-3.565 1.405-.34 2.648-.22 5.697.894Zm2.197 10.386c-.565-.577-7.641-3.978-8.716-3.66-1.075.318-8.851 4.164-9.804 4.858-.953.693-1.144 2.205-.219 2.952.925.746 4.623 3.196 6.252 3.798 1.629.603 8.13-.844 8.801-.965.673-.12 2.566-3.198 3.324-4.249.758-1.05.927-2.156.362-2.734Z" fill="#7B7B7B"/>
        <path d="M61.59 39.107c3.049 1.114 5.038 2.31 6.209 2.826 1.17.516 3.533 1.408 4.85.938 1.317-.47 2.072-1.495 3.056-2.751.983-1.256 1.986-1.666 2.877-1.509.891.157 1.817.814 1.962 1.164.097.234.153.409.166.526.648 1.646 1.005 2.814 1.07 3.505.097 1.036.433 1.948.271 2.885-.161.937-2.156 6.478-2.877 7.882-.72 1.404-24.713 4.63-27.838 4.785-4.265.21-17.023.288-21.647-.032-1.007-.07-1.283-1.293-1.155-1.331.716-.213 2.368-1.532 2.72-2.105.353-.572 1.631-2.747 1.812-3.41.18-.664.744-1.178 1.169-1.327.425-.15 4.972-1.984 5.618-2.223.645-.239 1.442-.713 3.143-1.696 1.701-.983 6.143-3.794 7.115-4.363.192-.22.095-.578.98-1.093.885-.516 3.396-3.224 4.801-3.565 1.405-.34 2.648-.22 5.697.894Zm2.1 10.03c-.566-.578-7.657-4.027-8.732-3.71-1.074.318-9.18 4.332-10.132 5.025-.954.694-1.144 2.206-.219 2.952.925.747 5.064 3.435 6.693 4.037 1.629.603 8.13-.844 8.801-.965.673-.12 2.566-3.198 3.324-4.249.758-1.05.83-2.513.264-3.09Z" fill="#E4E2E6"/>
        <path d="M61.59 39.107c2.846 1.04 4.768 2.15 5.964 2.714l.245.112c1.17.516 3.533 1.408 4.85.938 1.317-.47 2.072-1.495 3.056-2.751.983-1.256 1.986-1.666 2.877-1.509.891.157 1.817.814 1.962 1.164l.012.027c-.71-.357-1.357-.479-1.942-.365-1.007.196-3.163 2.788-4.721 4.117-1.417 1.208-4.402.076-6.573-.902l-.625-.286c-2.183-1.013-7.519-2.974-8.773-3.087-1.254-.112-4.518 1.96-5.474 2.598-.547.365-1.192.868-1.935 1.51l-.38.333 1.298.834-2.24 1.37c-2.568 1.585-4.267 2.699-5.097 3.34-1.577 1.22-1.243 1.847-2.218 2.776-.883.842-7.822 2.68-10.15 3.051l.492-.862c.334-.601.651-1.212.792-1.585l.056-.165c.18-.663.744-1.177 1.169-1.326l5.618-2.223c.645-.239 1.442-.713 3.143-1.696l.93-.552c2.026-1.224 5.358-3.327 6.185-3.811.172-.198.111-.508.743-.944l.237-.15c.885-.515 3.396-3.223 4.801-3.564 1.405-.34 2.648-.22 5.697.894Z" fill="#F0EEF2"/>
        <path d="M33.683 52.135c-.064.21-.24.62-.448 1.084l-.894 1.962c-.324.746-.948 1.999-1.43 2.407-.456.384-1.715.656-1.842.153.8-.465 1.905-1.394 2.186-1.85l.586-.992c.434-.755.954-1.703 1.158-2.224l.067-.196c.158-.58.609-1.046 1.004-1.254l.165-.072.245-.094c-.293.247-.67.66-.797 1.076Z" fill="#DAD6D6"/>
        <path d="M53.78 45.16c-.1.03-3.669-1.774-4.094-1.728-.582.064 2.841 1.623 3.415 1.977-2.804 1.286-8.083 3.994-8.88 4.575-1.283.933-1.441 2.95-.216 3.94 1.229.99 5.533 3.609 7.015 4.157.799.296 2.349.21 4.583-.137l.546-.088 1.145-.202c1.01-.188 3.005-.604 2.913-.587.446-.08.957-.552 1.705-1.464l.649-.82.705-.94.892-1.235c.917-1.27 1.148-2.98.339-3.806-.839-.858-7.314-3.724-9.455-3.93-.219-.022-1.154.256-1.263.288Zm10.288 4.062c.565.577.361 1.985-.397 3.035l-.955 1.32c-.935 1.27-2.14 2.814-2.615 2.9l-1.98.406c-2.268.45-5.765 1.053-6.893.636-1.629-.603-5.921-3.316-6.846-4.063-.925-.746-.761-2.294.192-2.987.953-.693 9.347-4.864 10.421-5.182 1.075-.318 8.508 3.357 9.073 3.935Z" fill="#B4B3BD" fill-rule="nonzero"/>
        <path d="M78.595 42.442c-.219-1.027-.259-1.845.88-1.581.788.183 1.523 1.01 2.09 1.893.088.32.15.597.187.831l.028.22c.097 1.037.433 1.95.271 2.886-.161.937-2.156 6.478-2.877 7.882-.532 1.036-13.732 3.064-21.873 4.118-.07-.522.028-1.11.228-1.713l2.572-.502c.673-.12 2.566-3.198 3.324-4.249.758-1.05.83-2.513.264-3.09-.17-.174-.935-.61-1.949-1.125l.193-.892c.192-.829-1.263-3.012-.993-3.14.856-.406 6.236 2.365 8.1 2.073 1.864-.291 5.073-.81 7.508-.168 2.435.64 2.592-.872 2.316-2.25l-.269-1.193Z" fill="#D7D5DC"/>
        <path d="M62.625 47.06c1.718-.445 4.194.934 5.385.7l.691-.131c1.85-.332 5.903-.924 7.126.13 1.415 1.221 2.499 4.289 2.996 5.5.203.496.407.786.423 1.17l-.072.144c-.454.884-10.136 2.491-18.024 3.598-.338-.18-.609-.375-.802-.583a2.8 2.8 0 0 1-.588-1.045l.341-.067c.673-.12 2.566-3.198 3.324-4.249.758-1.05.83-2.513.264-3.09-.17-.174-.935-.61-1.949-1.125l.068-.314c.283-.345.562-.571.817-.637Z" fill="#CBC9D1"/>
        <path d="m71.007 49.328.258.03c1.425.327 5.702 3.693 6.899 4.901.207.21.324.446.362.703-2.75 1.067-13.43 2.706-20.649 3.654-.207-.377-.046-1.04.344-1.773l1.88-.367c.54-.097 1.863-2.094 2.757-3.424 1.757-.564 3.295-.823 4.016-1.186.821-.414 2.724-2.559 4.133-2.538Z" fill="#AAA5B1"/>
        <path d="M68.53 51.103c.376-.974 2.75 1.784 3.058 2.241.206.305-2.088.917-6.881 1.837-.46-.34-.834-.819-1.122-1.436.705-.256 1.659-.51 2.86-.763 1.804-.38 1.71-.906 2.085-1.88Z" fill="#8F8D98"/>
        <path d="M69.076 52.11c-.004.204.23.645-.338.8-.378.104-2.042.444-4.991 1.022-.76.728-.563 1.117.593 1.165 1.734.072 6.795-.682 6.969-1.394.174-.712.32-1.942-.6-2.02-.92-.079-1.628.225-1.633.428Z" fill="#727079"/>
        <path d="M80.25 39.766c.137.161-.262.112-.622 0-.36-.11-.657-.24-1.016-.054-.358.185-1.111.611-1.916 1.564-.804.952-1.681 1.872-2.2 2.252-.517.38-1.588.865-2.498.934-.91.07-2.234-.125-3.988-.83-1.754-.703-5.154-2.17-6.938-2.954-1.784-.786-3.307-.78-3.886-.7-.58.08-3.776 1.932-4.253 2.25-.476.317-1.195.833-1.538.992-.343.16-.416-.093-.4-.173.017-.08.715-.31 1.098-.606.382-.296 3.763-2.73 4.506-2.895.743-.164 1.419-.345 2.335 0 .916.345 4.46 1.375 5.764 1.868 1.305.493 3.684 1.752 4.88 2.114 1.197.363 3.337.646 4.17.105.831-.541 2.787-2.998 3.402-3.53.616-.532 1.364-.959 1.939-.784.575.174 1.024.287 1.161.447Z" fill="#64646C"/>
        <path d="M78.582 38.611c.891.157 1.817.814 1.962 1.164l.096.25a.388.388 0 0 1-.36-.02l-.092-.067c-.48-.44-1.343-.535-2.01-.263-.666.272-1.54 1.611-3.17 3.192-1.236 1.198-2.114 1.36-2.898 1.368l-.73-.012c-.99-.003-3.205-.827-5.031-1.525l-1.594-.64c-1.755-.725-3.813-1.612-4.514-1.812l-.638-.172c-.579-.146-1.006-.6-1.645-.61-.394-.005-1.034.354-1.35.474-.908.346-3.293 1.842-4.192 2.44l-.59.4c-.426.27-.886.499-.923.367-.046-.166.37-.881.705-1.12.334-.238 1.015-1.068 1.799-1.42l1.063-.465c1.143-.483 2.753-1.108 3.528-1.137 1.085-.04 3.691.71 5.292 1.315 1.602.605 3.687 1.688 6.088 2.827 2.402 1.139 3.79.58 4.224.432.435-.148 1.756-1.813 2.313-2.545.556-.733 1.741-1.495 2.037-1.81.162-.174-.108-.38-.318-.56.326-.092.644-.105.948-.051Z" fill="#CAC7D0"/>
        <path d="M65.987 42.225c-2.01-.927-5.014-2.04-4.838-1.887.175.152 4.778 2.125 5.48 2.476.703.351 2.222 1.014 3.227 1.185 1.006.17.248-.026-.27-.212-.52-.186-1.588-.635-3.599-1.562Z" fill="#E5E4EA"/>
        <path d="M34.321 52.35c-.137-.056-.678-.518-.771-.665-.093-.148.117-.617.386-.9.269-.282 1.907-1.293 2.885-1.52.977-.228 2.032-.569 2.375-.409.342.16.368.303.22.513-.15.21-.403 1.073-.53 1.083-.125.01-.964.187-1.047.104-.083-.082-.334-.28-.38-.391-.046-.112-.104-.005-.233.184-.129.19-.371.646-.656.71-.286.065-.746.078-.983-.205-.238-.282-.289-.274-.322-.069-.033.206.05.858-.05.97-.099.112-.359.074-.46.17-.1.096-.297.48-.434.425Z" fill="#F3F4F9"/>
        <path d="m39.471 49.276-.056.093c-.15.21-.402 1.073-.528 1.083l-.64.101c-.198.026-.372.039-.408.003l-.204-.185a1.649 1.649 0 0 1-.109-.11l-.067-.096c-.03-.075-.066-.052-.125.028l-.272.41c-.131.196-.302.414-.492.456-.286.065-.746.078-.983-.205-.238-.282-.289-.274-.322-.069-.033.206.05.858-.05.97-.099.112-.359.074-.46.17-.1.096-.297.48-.434.425-.137-.056-.678-.518-.771-.665-.071-.112.034-.411.206-.672l-.018.186c-.042.674.364.58.607.562a.323.323 0 0 0 .274-.163l.136-.21c.144-.195.34-.63.505-.803.166-.173.314-.079.521.2.207.28.37.126.513-.12.142-.247.25.094.467-.133.217-.226.621-1.025.738-1.268.116-.242.109.226.239.464l.097.162c.075.097.14.088.273-.096.186-.257.705-.003.853-.108.111-.079.377-.45.496-.654.057.077.057.155.014.244Z" fill="#A79995"/>
        <path d="M41.203 54.288c-1.116-1.06-1.7-1.623-1.753-1.69.047-.265.468-2.707.469-2.876 0-.168-.386-.48-.47-.456-.082.023-.579 1.092-.628 1.106-.05.015-.249-.036-.302-.242-.053-.206-.275-.134-.3.082-.024.216-.077.275-.232.277-.156.001-.387-.335-.394-.443a1.032 1.032 0 0 0-.108-.324c-.187.297-.307.514-.36.65-.08.205-.313.546-.473.603-.161.057-.528.203-.82 0-.29-.203-.31-.564-.44-.523-.132.042-.26.18-.232.523.027.345.087.763 0 .801-.088.038-.37-.053-.475.122-.106.176-.193.434-.363.4-.171-.034-.637-.49-.73-.58-.094-.09-.497.551-.473.58.023.029 1.758 1.826 1.824 1.99.044.109.015.863-.088 2.261l6.348-2.261Z" fill="#A61612"/>
        <path d="M39.231 53.503c.065-.29.418-3.147.447-3.549.03-.402-.163-.703-.223-.628-.06.075-.33 1.071-.374 1.248-.029.118-.497.189-1.404.212-.137-.443-.23-.631-.28-.566-.076.098-.074.654-.138.67-.064.017-1.105.5-1.262.466-.158-.035-.464-.583-.602-.525-.138.058.144.678.133.747-.01.068-.564.432-.798.62-.233.186-.295.308-.423.25-.13-.057-.552-.523-.675-.513-.123.01-.22.154-.15.33.07.174 1.67 2.088 1.844 2.302.174.214.472.46.67.37a149.71 149.71 0 0 1 2.08-.89c.62-.26 1.128-.423 1.155-.544Z" fill="#490A09"/>
        <path d="M35.545 51.99c-.272.125-1.266.696-1.065.947.201.25 1.065 1.613 1.33 1.654.265.04 2.39-.845 2.744-.958.355-.112.57-.253.574-.482.003-.23.411-2.966.277-2.986-.073-.011-.213.264-.29.525-.027.096-1.006.259-1.026.373-.014.086.934-.133.927-.04-.005.055.028.264.027.32-.016.608.315.584-.397.722-.112.022-.41.075-.537.101-.104.022-.552-1.512-.66-1.488-.028.006-.02.12.005.285.013.083-1.336.62-1.318.722.017.09 1.258-.436 1.276-.342.073.38.286.926.235.938-.477.118-.913.256-1.077.395-.052.043-.91-1.468-1.003-1.413-.085.05.573 1.642.49 1.718-.306.283-.723.49-.52.481.093-.004.327-.084.584-.198.082-.036.43.62.512.58.074-.035-.116-.765-.033-.805.191-.091.482-.223.873-.394.23.464.367.688.408.671.105-.043-.014-.834.027-.841.417-.072.864-.29.901-.195.038.095.142.86 0 .928-.14.068-1.058.338-1.515.517-.456.179-1.238.615-1.31.605-.071-.01-.554-.487-.663-.605-.11-.119-.622-.736-.566-.818.057-.082 1.062-1.041.79-.917Z" fill="#C4863C"/>
        <path d="m36.132 53.414.32.56-.662.485-.475-.531.817-.514Zm1.352-.656.162.695-.664.307-.412-.575.914-.427Zm1.394-1.655.07.873-1.22.283-1.335.484-1.232.715-.468-.551.935-.648.527.484.255-.155-.255-.612 1.167-.52.362.68.424-.16-.232-.683 1.002-.19Zm-.03 1.248v.816l-.74.092-.126-.674.867-.234Z" fill="#670D0F"/>
        <path d="M27.819 54.587c-.152.003-1.367.339-2.968.55-1.6.211-5.747.965-7 1.176-1.251.21-1.346.192-1.776.554-.43.362-.422 2.01 0 2.501.42.491 19.364 3.885 22.033 3.893 2.67.007 12.326-.651 15.924.677 3.599 1.328 2.856 1.482 7.11 1.404 4.253-.078 23.747-2.022 24.171-2.251.425-.23.687-1.14.687-2.137 0-.997-.014-2.649-.122-2.808-.107-.159-.176-.281-.178-.482-.002-.201-.2-3.724-.61-5.661-.41-1.937-1.79-5.83-2.032-6.888-.242-1.057-.624-2.825-.555-4.05.068-1.225.296-3.14.137-3.294-.16-.155-.562.087-.7.371-.14.284-.37 2.192-.351 2.76.018.567.153 2.978.108 3.78-.044.8-.514 3.017-1.057 4.42-.362.935-.745 1.723-1.148 2.364a10.782 10.782 0 0 0-2.971.157c-1.522.287-11.676 2.639-16.042 3.333-4.366.694-9.79 1.901-12.479 1.357-2.69-.545-5.047-2.735-6.292-2.855-1.244-.121-5.449 1.763-7.18 2.343-1.733.58-4.18.742-5.426.19-1.246-.55-1.131-1.406-1.283-1.404Z" fill="#EDEDEE"/>
        <path d="M25.966 59.455c-1.45.219-3.384.64-5.35.99l-1.683-.343c-1.662-.349-2.76-.62-2.858-.734-.422-.49-.43-2.139 0-2.5l.194-.153c.18-.126.338-.182.661-.245l5.673-.981c.718-.121 1.385-.229 1.896-.303l.352-.05c1.601-.21 2.816-.546 2.968-.549.152-.002.037.854 1.283 1.405 1.245.55 3.693.388 5.425-.191l.702-.253c1.18-.442 2.87-1.14 4.274-1.608l-1.017.534c-3.46 1.794-9.057 4.458-12.52 4.98Z" fill="#F4F4F6"/>
        <path d="M82.64 37.77c.159.155-.069 2.07-.137 3.295-.069 1.225.313 2.993.555 4.05.242 1.058 1.622 4.951 2.032 6.888.41 1.937.608 5.46.61 5.66.002.202.07.324.178.483.108.159.122 1.811.122 2.808 0 .996-.262 1.908-.687 2.137-.424.23-19.918 2.173-24.172 2.251l-1.43.017c-2.703 0-2.55-.266-5.679-1.421-3.598-1.328-13.255-.67-15.924-.677l-.357-.014c-1.819-.118-7.042-.953-11.906-1.823 5.651-1.07 10.829-2.585 18.41-6.727 1.095.636 2.377 1.339 3.745 1.616 2.562.518 7.602-.552 11.848-1.255l1.485-.246c4.711-.828 13.758-2.92 15.188-3.189a10.782 10.782 0 0 1 2.97-.157c.404-.64.787-1.429 1.149-2.364.543-1.403 1.013-3.62 1.057-4.42.045-.802-.09-3.213-.108-3.78-.018-.568.21-2.476.35-2.76.12-.243.432-.456.619-.414l.082.043Z" fill="#E9E8ED"/>
        <path d="M83.6 48.793c.73 2.193 1.137 6.45 1.31 8.185.144 1.434-.07 4.72-1.283 6.361l-2.077.235c-5.983.651-17.29 1.71-20.409 1.768l-1.43.017-.845-.012c-1.867-.062-2.073-.39-4.834-1.41-1.275-.47-3.313-.691-5.53-.78l-.874-.878c-1.888-1.93-3.368-3.672-3.183-3.952.424-.642 3.073.06 7.23-.588 4.158-.647 9.586-1.95 10.358-2.482l.094-.076c.66-.678 8.652-1.89 10.176-2.122 1.525-.232 5.362-.079 6.52-.378.518-.134.649-.657.66-1.215.412-.64.795-1.429 1.157-2.364.28-.723.54-1.661.733-2.511l.622-1.184c.584.795 1.119 1.924 1.605 3.386Z" fill="#CFCED8"/>
        <path d="M62.29 56.182c-1.142.303-2.956 2.58 0 2.051 2.956-.529 14.834-3.327 15.277-3.805.442-.477-.4-.96-.886-1.155-.487-.195-13.25 2.607-14.391 2.91Z" fill="#C4C3CD"/>
        <path d="M84.91 56.978c.144 1.434-.07 4.72-1.283 6.361l-2.077.235c-5.983.651-17.29 1.71-20.409 1.768l-1.43.017-.845-.012c-1.867-.062-2.073-.39-4.834-1.41-1.275-.47-3.313-.691-5.53-.78l-.27-.27c-.198-.55-.266-1.043-.232-1.456.185-2.247 2.264-.987 6.986-.983 4.13.003 8.307-.46 12.425-.838l1.761-.155c4.685-.393 9.764-1.444 11.468-1.867 1.317-.327 2.904-2.969 3.764-4.966.247 1.708.412 3.408.506 4.356Z" fill="#C8C6D2"/>
        <path d="m82.558 37.728.082.043c.159.154-.069 2.069-.137 3.294-.028.502.02 1.096.102 1.695-.184-.028-.394.023-.379.523l.013.649c.005.626-.008 1.163-.008 1.424 0 .975-.137 2.48-.498 3.581-.33 1.007-.927 2.482-1.252 3.238l1.89 2.246c.88 1.044 2.023 2.149 2.497 3.03.093.173.145.465.157.876L79.753 52.5c-1.004-.09-2.007-.158-2.94.018l-8.993 1.827-3.299.69-1.339.266a95.05 95.05 0 0 1-1.704.316l-3.182.535-1.619.28c-4.549.779-7.007 1.023-8.686.683-.943-.19-1.855-.457-2.926-1.055l-.735-.43-1.398-.84c-.523-.297-.884-.449-1.146-.474-.484-.047-1.614.119-3.26.725l-3.103 1.19c-.264.1-.478.176-.665.239-1.919.642-4.415.656-5.673.1-.335-.148-.803-.396-1.07-.871a2.864 2.864 0 0 1-.332-1.089l.136-.023-.04.003.069.01c.075.075.095.435.431.818l-.018-.04c.027.059.05.085.09.124l.11.104.258.263c.098.09.211.178.345.238 1.097.484 3.73.509 5.521-.09l.405-.143 2.98-1.166.87-.321c1.496-.536 2.38-.707 2.938-.653.37.036.858.197 1.45.533l1.671 1.006c1.232.726 2.212 1.052 3.21 1.254 1.34.271 3.295.137 6.592-.378l6.677-1.123c.839-.147 1.85-.341 3.029-.58l12.295-2.518c.792-.15 1.67-.205 2.53-.173l.45.026.05-.082.283-.532a23.4 23.4 0 0 0 .785-1.707l.156-.393c.476-1.229.75-2.896.824-3.398.073-.502.078-1.467.076-1.653l-.18-1.478-.08-1.459-.007-.178c-.018-.567.21-2.475.35-2.759.12-.243.432-.456.619-.414Z" fill="#B4B3BD"/>
        <path d="M41.778 53.734c.37.036.858.197 1.45.533l1.671 1.006c.905.534 1.675.851 2.415 1.062l-1.11.268a9.425 9.425 0 0 1-1.14-.543l-.734-.43-1.398-.84c-.523-.297-.884-.449-1.146-.474-.484-.047-1.614.119-3.26.725l-3.103 1.19c-.264.1-.478.176-.665.239-1.919.642-4.415.656-5.673.1-.335-.148-.803-.396-1.07-.871a2.864 2.864 0 0 1-.332-1.089l.11-.02.055.01c.075.075.095.435.431.818l-.012-.03.034.06.05.054.11.104.258.263c.098.09.211.178.345.238 1.097.484 3.73.509 5.521-.09l.405-.143 2.98-1.166.87-.321c1.496-.536 2.38-.707 2.938-.653Z" fill="#C5C4C8"/>
        <path d="m27.793 54.59.055.01c.075.075.095.435.431.818l-.012-.03.034.06.05.054.11.104.258.263c.098.09.211.178.345.238 1.097.484 3.73.509 5.521-.09l.405-.143.597-.235-1.819 1.098c-1.72.364-3.633.297-4.683-.167-.335-.148-.803-.396-1.07-.871a2.864 2.864 0 0 1-.332-1.089l.11-.02Z" fill="#D6D6D6"/>
        <path d="M14.054 60.878c-.02-.546.037-1.898.84-3.071.803-1.174 1.699-1.404 2.03-1.382.33.02.131.126-.012.22-.143.092-.008.528 1.117.924 1.126.397 3.733.97 7.8 1.082 4.068.112 4.868.015 6.386.935 1.519.921 2.789 1.955 4.893 1.292 2.104-.662 5.563-3.083 7.693-3.125 2.13-.041 3.897 1.062 5.842 2.131 1.946 1.07 5.415 3.287 6.51 3.948 1.095.66-.233 1.597-.973 2.227-.74.63-13.909 1.756-17.232 1.769-3.324.013-13.106-.03-14.267-.382-1.16-.353-8.882-4.312-9.714-4.75-.83-.436-.892-1.271-.913-1.818Z" fill="#E1E0E6"/>
        <path d="M16.924 56.425c.33.02.131.126-.012.22-.143.092-.008.528 1.117.924 1.063.375 3.448.907 7.136 1.06l3.583.1c1.596.065 2.318.199 3.273.743l.194.114c1.519.921 2.789 1.955 4.893 1.292 1.884-.593 4.856-2.597 6.986-3.039-1.18 1.052-1.686 2.845-2.89 3.592-1.452.9-2.885 1.183-5.895 1.004-3.009-.18-9.27-1.132-12.658-1.6-3.388-.47-6.684-2.004-7.502-1.544-.543.306-.909.833-1.096 1.581-.02-.54.038-1.892.841-3.065.803-1.174 1.699-1.404 2.03-1.382Z" fill="#EEEDEF"/>
        <path d="M45.013 58.255c2.003.401 5.197 1.599 7.257 2.57l2.44 1.492c1.049.65 1.969 1.229 2.443 1.515 1.095.66-.233 1.597-.973 2.227-.722.614-13.258 1.7-16.965 1.766l-3.735-.002c-4.208-.023-9.929-.113-10.799-.377-1.144-.348-8.665-4.2-9.674-4.728-.472-.5-.24-2.659.2-2.523l.255.094c.716.284 2.42 1.05 3.77 1.512l1.758.578c2.016.645 4.76 1.47 5.495 1.5.996.04 4.88-1.085 7.73-.368 2.85.718 6.467 1.004 8.026.985 1.56-.018 3.82-.802 4.802-1.341.982-.54.76-2.925-2.03-4.9Z" fill="#D8D7DE"/>
        <path d="M16.924 56.425c.33.02.131.126-.012.22-.04.026-.059.08-.038.155-.198.132-.245.244-.203.36.119.32 1.607 1.117 6.176 1.437l6.513.436.407.024c.938.06 1.655.325 2.44.83l.487.337c.144.104.356.259.493.356l.1.07c.964.656 1.55.857 2.82.85.66-.004 1.57-.327 2.827-.961l.684-.358L41.766 59c1.911-1.026 3.416-1.206 5.115-.59l.272.106.356.157c1.511.69 4.68 2.397 9.532 5.135a.3.3 0 0 1-.295.522l-3.803-2.124-2.06-1.127c-2.183-1.178-3.588-1.881-4.207-2.106-1.41-.51-2.651-.414-4.226.35l-.547.285-2.002 1.102-.255.136c-1.568.827-2.673 1.25-3.536 1.254-1.26.007-1.954-.188-2.853-.752l-.308-.202c-.153-.104-.684-.493-.75-.54-.735-.521-1.352-.812-2.126-.916l-.484-.042a121.55 121.55 0 0 1-7.52-.59c-3.402-.384-5.515-1.078-5.888-1.734-.184-.325.175-.68.516-.885.091-.014.168-.018.227-.014Z" fill="#C7C6CC"/>
        <path d="m46.88 58.41.273.106.356.157.94.453c1.724.862 4.583 2.42 8.592 4.682a.3.3 0 0 1-.295.522l-3.803-2.124-2.06-1.127-1.68-.893c-1.242-.648-2.085-1.053-2.527-1.213-1.41-.51-2.651-.414-4.226.35l-.547.285-1.414.777 2.452-1.927c1.388-.525 2.604-.533 3.94-.049Z" fill="#B8B6BF"/>
        <path d="M16.924 56.425c.33.02.131.126-.012.22-.04.026-.059.08-.038.155-.198.132-.245.244-.203.36.119.32 1.607 1.117 6.176 1.437l6.92.46c.938.06 1.655.325 2.44.83l.141.1-.894.156a3.904 3.904 0 0 0-1.381-.453l-.484-.042a121.55 121.55 0 0 1-7.52-.59c-3.402-.384-5.515-1.078-5.888-1.734-.184-.325.175-.68.516-.885.091-.014.168-.018.227-.014Z" fill="#D3D1D8"/>
        <path d="M16.924 56.425c.33.02.131.126-.012.22-.04.026-.059.08-.038.155-.198.132-.245.244-.203.36.119.32 1.607 1.117 6.176 1.437l1.426.095c-.552.15-1.112.291-1.675.422l-.529-.056c-3.402-.384-5.515-1.078-5.888-1.734-.184-.325.175-.68.516-.885.091-.014.168-.018.227-.014Z" fill="#E0DFE5"/>
        <path d="M14.051 60.143c.497.698 1.588 1.36 3.271 1.984 2.526.936 6.433 1.929 6.942 2.418.51.49.956 1.206 1.06 1.05.106-.158 1.516-1.47 3.211-2.241 1.695-.771 2.972-.38 5.239.053 2.266.432 8.352 2.35 8.528 2.381.176.03.645-1.023 1.642-1.868.997-.846 1.738-1.171 4.138-1.292 2.4-.12 4.758 1.717 5.161 1.702.404-.016 6.53-1.766 10.891-2.369 4.361-.602 14.46-1.721 15.39-1.742.93-.02 1.846.208 2.287.65.44.44 1.327 1.604 1.674 1.622.231.011.884-.11 1.958-.364.172.022.272.072.301.15.043.117-.266.317-.41.351-.145.034-2.465.626-2.794.644-.33.017-3.55-1.36-6.577-.995-3.026.364-17.838 3.333-21.006 3.511-3.167.178-11.062 2.532-14.468 2.396-3.406-.136-14.96.431-16.894-.764-1.935-1.194-9.822-4.7-9.893-5.744-.047-.696.07-1.207.35-1.533Z" fill="#737373"/>
        <path d="M57.047 45.995c-.117.147-.258.29-.484.237-.226-.053-3.83-1.567-3.998-1.707-.17-.14-.325-.538-.276-.695.049-.157 1.007-1.84 1.212-2.258.206-.417 2.204-2.426 2.86-2.654.655-.227 1.316-.105 1.413.085.047.093.501 1.35.937 2.373.46 1.081.9 1.931.818 2.055-.161.24-2.365 2.417-2.482 2.564Z" fill="#891D1A"/>
        <path d="M59.063 43.036c.02-.1-1.356-3.301-1.473-3.506-.118-.205-.294-.574-.836-.362-.543.212-1.618.922-1.743 1.075-.125.152.587.829.555.932-.033.104-.7 1.014-.865 1.087-.165.074-.506-.023-.669-.152-.162-.13-.16-.413-.408-.182-.247.23-1.072 1.613-1.109 1.892-.036.28.207.306 1.11.727.901.421 2.7 1.253 2.756 1.2.03-.03.694-.817 1.412-1.535.59-.59 1.261-1.13 1.27-1.176Z" fill="#4B0907"/>
        <path d="M58.898 42.753c.036.178-.166.483-.62.8-.455.32-1.765 2.08-1.997 2-.233-.078-1.916-.935-2.537-1.379-.62-.443-.888-.769-.101-.373.212.047.988-.881 1.343-1.435.354-.553 1.373-1.592 1.54-1.555.111.025-.815 1.117-1.454 1.882-.067.081.672.668.61.744-.068.084-.816-.536-.873-.462-.125.162-.267.346-.306.43-.224.482-.453.667-.164.87.29.205.533.473.765.165.231-.307.817-1.146.661-.773-.155.372-.646 1.08-.466 1.131.18.052.76.382.88.299.123-.083.602-.707.67-.763.067-.055-.834-.432-.863-.533-.03-.1.015-.156.395 0 .381.156.586.323.723.188.138-.135.523-.462.49-.549-.014-.034-.308-.414-.59-.783-.067-.086-.977.928-1.036.84-.08-.118.846-1.082.767-1.192-.243-.34-.555-.804-.447-.782.282.057 1.476 1.578 1.556 1.66.08.083.642-.525.682-.519.04.006-.081-.626-.315-.724-.234-.098-.338.075-.55.188-.211.112-.416.276-.335 0 .081-.276.652-.459.643-.642-.01-.184-.238-.893-.452-.91-.215-.018-.487.46-.548.162-.062-.298.426-.358.448-.512.021-.155-.225-.645-.09-.702.133-.057.355.349.517.754.162.405 1.018 2.296 1.054 2.475Z" fill="#CF8C28"/>
        <path d="m55.91 43.904.765.518-.495.782c-.626-.26-.92-.395-.88-.406.039-.01.242-.308.61-.894Zm-1.06-.758c.071-.038.152-.009.35.111.13.08.227.2.288.362-.369.623-.561.935-.578.935-.024 0-.769-.342-.75-.4.019-.056.617-.97.69-1.008Zm2.136-.366.607.634-.623.687-.72-.515.736-.806Zm-3.348-.302c.072-.038.153-.008.35.112.132.08.228.2.29.361-.37.624-.562.935-.578.935-.025 0-.77-.342-.75-.399.018-.056.617-.97.688-1.009Zm2.437-.722c.065-.004.384.292.458.33.074.038.02.257 0 .34-.02.083-.671.742-.71.784-.037.042-.26-.186-.294-.215-.034-.029-.352-.216-.308-.28.044-.063.79-.955.854-.96Zm2.114.115.393.798-.67.495-.557-.644.834-.649Zm-.65-1.186h.033c.093.06.37.699.34.751-.019.035-.326.24-.922.615-.34-.35-.5-.548-.481-.595.027-.07.97-.831 1.063-.77Z" fill="#68100A"/>
        <path d="m59.895 42.974.07.007c.203.031 5.987 3.577 17.354 10.637.355.338.328.558-.08.66-.612.153-13.552 3.197-14.019 3.31-.467.112-.555.106-.872-.636-.317-.742-3.2-5.199-3.987-6.629-.786-1.43-2.099-3.432-1.995-3.823.105-.39 1.645-2.172 2.3-2.78.654-.607.996-.787 1.3-.74Zm1.246 4.819c-.333.251 3.479 5.834 3.546 6.073.067.238 2.067-.236 2.982-.394.916-.158 1.94-.31 1.972-.565.031-.256-.536-.746-3.547-2.455-3.01-1.708-4.62-2.911-4.953-2.66Z" fill="#CECDD5"/>
        <path d="m64.618 53.737-.169.026-2.901.537-.683.128-1.867-3.02c-.2-.329-.375-.623-.512-.863l-.125-.222a45.723 45.723 0 0 0-.614-1.071l3.866-.315.364.623c.926 1.546 2.316 3.629 2.641 4.177Zm4.238-5.364 6.003 3.718-5.228.832.01-.016-.007-.073c-.068-.237-.6-.671-2.483-1.773l-1.057-.609c-1.128-.64-2.06-1.209-2.8-1.657l2.53-.206c1.1-.086 2.143-.162 3.032-.216Z" fill="#C7C6CE"/>
        <path d="m59.863 42.973.103.008.08.035c.321.163 1.54.893 3.659 2.188l2.634 1.93c2.167 1.614 3.873 2.976 3.09 2.712-1.742-.587-7.41-4.17-8.288-4.44-.878-.27-2.04.786-2.172 1.135-.133.35-1.095.4-1.045.538l1.603 2.783c.94 1.66 1.928 3.489 1.827 3.723-.18.418-2.908-3.926-3.697-4.974l-.088-.113c-.404-.495-.906-1.416-1.188-2.04l.057-.114c.037-.064.086-.14.144-.224l.327.281c.175.141.323.232.37.152.058-.098-.19-.41-.463-.748.53-.694 1.4-1.667 1.85-2.085.509-.472.829-.686 1.089-.735l.108-.012Z" fill="#DEDDE4"/>
        <path d="M68.923 49.328c-1.194-.72-8.465-5.353-8.83-5.486-.366-.133-2.718 2.065-2.814 2.402-.096.336.493 1.344.468.93-.025-.413.043-.705.464-1.168.421-.464 1.347-1.614 1.882-1.452.534.162 10.024 5.495 8.83 4.774Z" fill="#FCFCFC"/>
        <path d="M62.127 54.838c.648.794 1.562 1.526 2.15 1.415.589-.11 9.853-2.479 10.537-2.638.684-.159 2.044-.36.285.221-1.759.582-10.307 2.754-10.977 2.953-.67.2-1.719.504-1.445.16.275-.342.036-.516-.169-.89-.205-.374-1.03-2.016-.381-1.221Z" fill="#DDDCE2"/>
        <path d="m58.782 44.004-.225.207c-.584.541-1.756 1.956-1.874 2.219-.054.12-.014.265.158.587l.479.832.826 1.39.865 1.508 3.06 5.028c.186.319.3.527.364.664l.029.063c.3.703.49.878.947.789l12.74-3.115c.238-.06.395-.125.485-.216.158-.16.105-.359-.075-.486l-16.29-10.11c-.348-.26-.701-.072-1.489.64Zm1.249-.319 14.953 9.283 1.244.768-12.761 3.13c-.28.078-.35.09-.491-.196l-.213-.471c-.14-.28-.421-.761-.965-1.656l-2.22-3.629a42.695 42.695 0 0 1-.552-.934l-.387-.688-1.59-2.7c.09-.202 1.233-1.58 1.78-2.088l.396-.356c.47-.405.71-.534.806-.463Z" fill="#A9A8B6" fill-rule="nonzero"/>
        <path d="M60.692 47.291c-.483.312-.256.918.866 2.757l1.16 1.855c.572.89 1.49 2.309 1.49 2.309.1.356.292.401.8.342l.205-.026c.117-.017.245-.037.39-.064l2.022-.417.772-.14c1.196-.24 1.846-.49 1.901-.934.058-.466-.6-1.04-2.432-2.14l-5.081-2.966c-1.05-.59-1.578-.804-1.977-.637l-.116.061Zm.217.336c.403-.26 1.77.644 4.05 1.983l2.28 1.319c2.127 1.255 2.69 1.773 2.662 1.995-.029.234-1.15.51-2.042.676l-.656.123c-1.007.207-2.551.587-2.61.38l-.077-.142c-.57-.944-4.043-6.052-3.607-6.334Z" fill="#A2A1AC" fill-rule="nonzero"/>
        <path d="M57.07 40.286c.098-.154-.03-.7-.196-1.146-.164-.445-1.197-1.031-1.46-1.19-.263-.16-.554-.286-.694-.114-.14.172-1.048 1.695-1.434 1.91-.387.215-.452.306-.242.673.21.366.933 1.298.976 1.373.042.076.14.373.275.402.134.029.373-.092.425-.172.052-.08.391-.282.266-.395-.126-.114-.173-.485 0-.296.172.189.378.031.384-.075.006-.107-.01-.536-.283-1.017a6.054 6.054 0 0 0-.41-.656c.438.337.713.549.824.636.168.13.573.613.679.586.106-.028.793-.365.89-.52Z" fill="#F3F4F9"/>
        <path d="M55.095 40.254c.265.475.28.896.275 1.002-.005.091-.157.22-.309.136l-.075-.061c-.173-.19-.126.182 0 .296.104.094-.114.25-.22.346l-.046.05c-.052.08-.291.2-.425.17-.134-.028-.233-.325-.275-.4l-.604-.824a13.829 13.829 0 0 1-.218-.31l.304.274.303.282c.106.092.221.176.355.233.268.115.252-.195.346-.468.094-.274.429-.22.51-.353a.77.77 0 0 0 .075-.295l.004-.078Zm1.67-1.3c.05.064.087.126.11.186.164.446.293.992.195 1.146-.097.154-.784.49-.89.519-.09.023-.401-.328-.594-.511l-.085-.075-.593-.458-.014-.02.93.422c.09.031.64-.062.837-.423.092-.169.118-.382.116-.563l-.013-.223Z" fill="#B7A8A4"/>
        <path d="M52.824 64.735c.645-.197 6.34-1.75 10.191-2.406 3.851-.657 9.128-1.093 11.826-1.408 2.697-.315 4.898-.563 5.696-.442a2.865 2.865 0 0 1 1.867 1.15c.394.553.9.964 1.095.978.196.014 1.79-.235 1.845-.357.055-.122.088-.312.302-.121.214.19.354.447.354.728 0 .281-.021 1.555-.1 1.713-.177.28.062.476.057.647-.005.17.01 1.251-.25 1.38-.02.091-.041.516-.06 1.273-.097.187-.404.292-.921.315-.777.034-5.909 1.1-6.93 1.287-1.02.188-5.974 1.688-6.902 1.696-.928.007-8.363.012-8.714 0-.234-.009-.595-.061-1.083-.158-5.945-4.052-8.703-6.144-8.273-6.275Z" fill="#CECDD5"/>
        <path d="M72.13 61.208c.523.151 1.081.302 1.679.45l.612.148c7.506 1.756 5.621 3.702 4.402 3.78l-12.022.712c-1.564.086-2.736.144-3.048.145l-.254-.099c-1.013-.41-3.925-1.715-6.55-2.697 1.936-.48 4.215-1.003 6.066-1.318 1.942-.331 4.246-.606 6.4-.838l2.716-.283Z" fill="#CAC9D2"/>
        <path d="M80.537 60.48a2.867 2.867 0 0 1 1.706.945l.16.203c.395.554.9.965 1.096.98.156.01 1.2-.146 1.645-.271l-.195 2.57c-.06.797-.253 1.38-.579 1.749-.489.553-1.043.687-3.23 1.034-2.185.348-3.848.004-5.177-.857-1.329-.862-5.12-.815-5.32-.86-.134-.03 2.593-.16 8.18-.388-1.353-.87-3.526-1.56-6.52-2.074-3.455-.592-8.903-.57-12.627-.51 1.16-.26 2.315-.498 3.34-.672 3.624-.618 8.512-1.04 11.323-1.35l2.857-.324c1.58-.168 2.792-.26 3.341-.176Z" fill="#C7C6CC"/>
        <path d="m53.85 65.207.241.185c.408.303 2.747 1.836 3.079 2.042.15.094.481.25.66.256.178.005.907-.113 1.096-.12l-.6.21c-.243.095-.368.186-.229.3l1.532 1.35c.194.176.343.313.392.366l.803.923.194.228v.008l-1.494-1.023c-4.857-3.346-7.09-5.078-6.7-5.197l.325-.094.7.566Z" fill="#515154"/>
        <path d="M85.032 66.653c-.335.097-1.67.35-2.584.542-.914.191-2.936.512-3.493.63-.556.116.744.13 1.918 0 1.174-.132 3.327-.543 3.74-.653.413-.11.753-.616.419-.519Z" fill="#8E8E8E"/>
        <path d="M85.646 67.87c-.08.156-.307.255-.68.297l-.24.018c-.409.018-2.024.322-3.612.633l-3.318.654c-1.02.188-5.974 1.688-6.902 1.696H62.18c-.234-.009-.595-.061-1.083-.158l-1.358-.93 6.612.002 3.435-.048c1.034-.023 1.945-.06 2.342-.125.743-.121 1.787-.553 2.697-1.011l.38-.197c.864-.46 1.28-.535 2.022-.603l.34-.03c.971-.085 4.032-.526 5.112-.707l1.336-.22c.619-.108 1.23-.234 1.679-.398l-.033.631-.015.496Z" fill="#E4E3E9"/>
        <path d="M80.537 60.48a2.867 2.867 0 0 1 1.706.945l.16.203c.395.554.9.965 1.096.98.196.013 1.79-.236 1.845-.358l.121-.155c.169-.111.244-.128.397.008.214.19.138.473.138.754l-.016.778c-.014.415-.04.847-.085.935-.176.28.063.476.058.647l-.012.477c-.02.37-.075.822-.237.903l-.018.155a7.123 7.123 0 0 0-.009.137l-.095.03c-.253.06-1.112.211-1.41.257-.3.045.54-.283.737-.425.196-.143.354-.582.357-1.07.002-.433-.012-.525-.363-.487l-1.12.128c-1.323.133-3.849.35-7.113.52l-5.774.277c-3.44.184-6.293.39-7.873.594l-.281.038c-2.038.29-4.761.957-4.992.94-.23-.02-1.083-.637-1.129-.677l.422.234c.134.068.267.125.343.125l.407-.067c1.21-.223 4.792-.94 7-1.124l1.299-.094c3.434-.226 10.15-.552 12.89-.711l1.274-.085c2.641-.196 4.893-.508 5.084-.841.222-.387.256-1.579.242-1.661-.014-.083-1.624.29-2.094.144-.47-.147-1.525-1.457-2.142-1.815-.448-.26-1.192-.222-2.189-.123l-9.424.89c-.347.032-.675.06-.977.086-2.716.231-6.7.87-8.824 1.307-2.123.437-4.96 1.419-5.557 1.456l-.282.009c-.282.002-.682-.007-1.201-.029l.493-.141c1.67-.462 6.326-1.683 9.626-2.245 3.625-.618 8.513-1.04 11.324-1.35l2.857-.324c1.58-.168 2.792-.26 3.341-.176Z" fill="#F6F6F8"/>
        <path d="M72.696 67.977c0-.644-.25-1.097-.71-1.142-.46-.046-7.783.128-9.657.444-1.873.316-2.308.65-2.308 1s.298.807.786.807c.487 0 4.624-.144 7.29-.13 2.667.013 3.52.102 3.89 0 .369-.102.71-.336.71-.98Z" fill="#360F13"/>
        <path d="m64.707 67.061-.156.1c-.309.256-.39.716-.399.796-.01.091-.615.19-1.072.224l-.162.01c-.46.019-.776.123-.866 0-.09-.123-.5-.325-.246-.5.202-.14.92-.354 1.719-.545l.764-.058c.136-.01.275-.018.418-.027Zm5.106.098c-.288.207-.37.776-.541.798l-.224.005c-.501 0-1.624-.034-1.637-.063l-.054-.154c-.06-.16-.157-.397-.248-.464-.09-.066-.77-.215-1.392-.277l1.171-.052c1.576-.065 3.16-.106 4.14-.12l-.506.095c-.37.079-.605.156-.71.232Z" fill="#662C30"/>
        <path d="M62.206 68.767c-.081-.002-.142-.456.038-.463.18-.007 1.713-.089 1.795-.03.082.058.302.476.181.48-.12.006-1.934.014-2.014.013ZM67.378 68.253c.048-.069.407-.066.995-.081.588-.016.784-.022.9.081.115.103.149.411-.002.416-.15.006-1.98.041-2.02-.003-.04-.044.08-.344.127-.413Z" fill="#6B3F3F"/>
        <path d="M61.862 68.77c.056-.02.06-.399-.077-.478-.138-.08-.04-.364-.341-.446-.301-.083-.382-.172-.747-.104-.364.067-.548.414-.56.55-.012.135.331.3.354.414.022.112 1.314.083 1.37.064Z" fill="#EBE5DB"/>
        <path d="M61.007 68.377c.549-.022.307.067.532.287.06.06.108.097.148.121l-.534.003c-.33-.006-.651-.027-.662-.082-.012-.059-.11-.132-.2-.208l.298-.068c.118-.025.255-.046.418-.053Zm-.31-.635c.365-.068.446.021.747.104.106.029.162.083.197.144-.113.065-.304.111-.572.142l-.37.034c-.24.023-.522.058-.661.108l.107-.023a.741.741 0 0 1 .552-.51Z" fill="#80544E"/>
        <path d="M64.834 67.36c-.243.039-.406.534-.4.666.006.132.164.491.208.536.045.044-.037.25.104.27.141.02 2.089.12 2.176.063.087-.056.045-.302.085-.333.04-.031.244-.061.236-.267-.008-.206-.23-.322-.236-.558-.008-.236.067-.422-.27-.429-.337-.007-1.66.015-1.903.053Z" fill="#EBE5DB"/>
        <path d="M64.592 67.568c-.12.402-.106.6.046.595l.781-.036c.334-.01.68-.007.857.036.235.058.467.241.616.373l.096.088-.012.152c-.007.052-.022.098-.054.12-.087.056-2.035-.043-2.176-.063-.141-.02-.059-.227-.104-.271-.044-.045-.202-.404-.208-.536a.886.886 0 0 1 .078-.305l.08-.153Z" fill="#80544E"/>
        <path d="M66.104 68.55c.15.058.265.295.16.34l-.065.015-1.304-.06a2.948 2.948 0 0 1-.15-.012c-.107-.016-.084-.14-.088-.217.01-.034.042-.058.102-.065.25-.03 1.195-.058 1.345 0Z" fill="#AC8880"/>
        <path d="M66.25 67.328c.227.005.176.093-.31.169-.486.076-.872.129-.95.124-.076-.005-.195-.01-.302-.025-.108-.015-.07-.21.179-.24s1.157-.034 1.384-.028Z" fill="#BEA099"/>
        <path d="M70.036 67.274c-.129.017-.52.492-.522.683-.001.19.188.637.294.699.105.062.51-.097.578 0 .069.096.105.247.289.262.183.016.994.11 1.166-.101.172-.213.449-.494.461-.707.013-.214-.122-.781-.342-.857-.22-.076-1.795.004-1.924.021Z" fill="#EBE5DB"/>
        <path d="M71.175 67.253c.085.081.154.34.256.403l.131.07c.096.057.183.138.117.28-.099.211-.51.51-.728.504l-.241-.012c-.104-.002-.174.01-.17.073l.003.113c.01.075.046.141.2.149l.936.05-.712.06-.292-.025c-.184-.015-.22-.166-.289-.262-.068-.097-.473.062-.578 0-.065-.038-.161-.221-.226-.401l.534-.08c.464-.076.728-.149.793-.218.13-.14.097-.533-.166-.532l-.296-.01c-.225-.013-.468-.04-.513-.08l.032-.028.07-.033.838-.042.204-.006c.052.006.085.015.097.027Z" fill="#80544E"/>
        <path d="M14.176 59.576c-.391.168-.84.25-1.06.59-.146.228-.257.619-.333 1.172-.522.847-.783 1.537-.783 2.073 0 .802-.113 3.032 1.739 3.951 1.851.92 5.89 2.438 7.345 2.762 1.454.325 3.913.724 4.462.814.55.09 2.964.268 3.924.329.96.06 11.331.733 16.53.733h24.454c2.158 0 8.884-.435 9.476-.513.591-.078 5.275-1.958 5.546-2.196.27-.238.524-.874.524-1.291 0-.417-.09-.481-.524-.422-.434.06-5.923 1.143-6.44 1.255-.515.111-1.762.124-2.467.339-.704.214-3.832 1.562-4.628 1.638-.796.076-10.12.128-10.378.128-.258 0-2.955-2.188-4.023-2.961-1.067-.773-3.574-2.479-4.058-2.8-.485-.323-.131-.36-.701-.705-.57-.347-3.406-2.284-5.96-1.852-2.552.432-3.894 2.808-4.185 3.318-.292.51-.963.762-1.288.81-.325.046-13.577 1.252-14.002 1.082-.424-.17-1.788-1.274-2.188-1.892-.4-.619-1.1-1.452-2.082-1.78-.983-.326-5.629-1.749-6.845-2.265-1.216-.516-1.93-1.293-2.055-1.493-.124-.2-.042-.536 0-.824Z" fill="#CDCBD4"/>
        <path d="m14.176 59.576-.054.357c-.02.178-.02.346.054.467.124.2.839.977 2.055 1.493 1.216.516 5.862 1.939 6.845 2.266.983.327 1.683 1.16 2.082 1.779.4.618 1.764 1.721 2.188 1.892.425.17 13.677-1.036 14.002-1.083.325-.047.996-.3 1.288-.81l.253-.423c.55-.864 1.83-2.539 3.933-2.894 2.553-.432 5.388 1.505 5.959 1.852.57.346.216.382.7.704l1.01.683c-.5.974-2.37 1.965-7.427 2.974-8.193 1.634-17.808.57-20.283.096-2.475-.475-3.487-1.961-6.042-2.316-2.555-.354-6.897-1.445-7.963-2.244-.245-.183-.523-.544-.773-1.002.012-.53.272-1.206.78-2.029.076-.553.187-.944.334-1.171.22-.341.668-.423 1.06-.59Z" fill="#C8C6CE"/>
        <path d="m61.563 70.938 8.45-.076c.71-.01 1.287-.023 1.632-.036l.296-.016.161-.027c.21-.042.506-.13.846-.247l.263-.091c1.13-.387 2.655-.984 3.44-1.287-.126.21-.649 1.225.639 1.284 1.288.06 3.707-.292 7.08-.63l-.928.387c-1.438.587-3.168 1.242-3.512 1.288l-.47.043-4.018.262-2.717.14-1.593.058-.323.007-25.269.001-1.574-.024-2.754-.086-2.639-.112-4.761-.247-5.198-.32-2.093-.166-.825-.084-.204-.03-2.012-.34-.959-.175-1.006-.197c-.151-.031-.296-.062-.431-.093-1.454-.324-5.494-1.843-7.345-2.762l-.16-.085-.141-.086-.147-.102-.11-.087-.095-.082-.138-.134-.09-.098-.104-.126-.086-.117-.086-.132-.066-.112-.076-.142-.12-.272-.114-.333a4.561 4.561 0 0 1-.107-.454l-.03-.173-.049-.449-.023-.009c.688.363 6.684 1.94 8.064 2.69s2.23 1.513 4.212 2.025l.442.1c2.311.47 8.807 1.172 13.883 1.26 5.452.094 10.94-.127 14.714-.098 3.772.029 3.457-2.087 2.138-3.833l1.592 1.109.498.355c1.068.773 3.765 2.96 4.023 2.96Z" fill="#D9D7DE"/>
        <path d="m12.202 63.052.033.017.121.169c.223.294.743.886 1.865 1.513 1.427.797 3.078 1.218 4.141 1.627.958.368 1.364 1.101 1.653 1.751l.092.213c.142.333.315.887.518 1.661-1.705-.472-5.201-1.805-6.886-2.64-1.503-.747-1.712-2.356-1.737-3.365l.03-.306c.04-.314.105-.623.17-.64Z" fill="#D7D7DD"/>
        <path d="M16.938 68.473c3.97 1.389 7.762 2.217 11.94 2.482l4.644.263c3.75.197 8.06.396 10.244.465l1.086.025c1.077.013 3.389.017 6.228.016l20.622-.022c2.155.02 6.998-.265 8.264-.527.822-.17 2.327-.619 3.41-.947l-1.51.595c-.92.353-1.715.634-1.936.664l-.47.043-4.018.262-2.717.14-1.593.058-.323.007-25.269.001-1.574-.024-2.754-.086-2.639-.112-4.761-.247-5.198-.32-2.093-.166-.825-.084-.204-.03-2.012-.34-.959-.175-1.006-.197c-.151-.031-.296-.062-.431-.093-1.454-.324-5.494-1.843-7.345-2.762l-.16-.085-.141-.086-.147-.102-.11-.087-.095-.082-.138-.134-.09-.098-.104-.126-.086-.117-.086-.132-.066-.112c.691.723 2.168 1.484 4.422 2.272Z" fill="#8D8C8F"/>
        <path d="m62.127 71.06.01.915-.652.027c.063-.543.09-.857.082-.942-.01-.085.177-.085.56 0Zm8.393.155c.003.1.016.361.04.783l-.562-.002c-.012-.424.008-.691.06-.802.077-.166.457-.13.462.02Zm-27.686-.499.06 1.226a63.822 63.822 0 0 1-.99-.028c.107-.172.202-.398.238-.62l.06-.357c.05-.267.104-.445.22-.44.164.007.397-.11.412.22Zm-16.99-1.226c.237.02.322.24.35.43l.023.345c.018.214.06.517.165.766l-.584-.06-.173-.022-.05-.248a1.88 1.88 0 0 1-.024-.357l.013-.369c.018-.323.065-.503.28-.485Zm-5.131-.5.07.163c.095.24.253.676.402.997l-.101-.026a8.573 8.573 0 0 1-.393-.099 7.594 7.594 0 0 1-.235-.99c.115-.125.2-.14.257-.045Z" fill="#39393A"/>
        <path d="m14.176 59.576-.054.357c-.02.178-.02.346.054.467.124.2.839.977 2.055 1.493 1.216.516 5.862 1.939 6.845 2.266.983.327 1.683 1.16 2.082 1.779.4.618 1.764 1.721 2.188 1.892.425.17 13.677-1.036 14.002-1.083.325-.047.996-.3 1.288-.81l.253-.423c.55-.864 1.83-2.539 3.933-2.894 2.553-.432 5.388 1.505 5.959 1.852.57.346.216.382.7.704l1.18.8 5.687 4.263-1.89-1.227a138.18 138.18 0 0 1-4.396-2.98l-.37-.266c-2.334-1.689-3.728-2.498-5.433-2.673-1.704-.175-3.276.55-4.077 1.541-.8.992-1.47 2.142-2.01 2.61-.323.28-.95.397-1.655.469l-6.3.495c-3.151.238-6.684.496-6.93.485l-.198-.021c-.393-.068-.95-.329-1.654-1.327l-.592-.886c-.67-.964-1.062-1.268-1.706-1.556-.76-.34-5.96-1.897-6.98-2.323l-.717-.299c-.667-.286-1.188-.56-1.559-1.045l-.236-.294c-.306-.354-.407-.323-.464.008-.07.404.637 1.016 1.1 1.321.398.262 1.91.783 3.246 1.285l.648.248c1.45.568 1.578.706.793.478l-.486-.156c-1.091-.37-3.162-1.157-4.066-1.573-1.068-.491-1.434-1.058-1.477-1.222-.044-.164-.213.336-.111.585.102.248.792.837.82.863.028.026-.051 1.42-.197 1.554-.092.086-.822-.45-1.454-.926.004-.535.265-1.224.786-2.069.076-.553.187-.944.334-1.171.22-.341.668-.423 1.06-.59Z" fill="#F6F6F8"/>
        <path d="M25.404 66.304c-.045-.464 1.569-1.959 2.546-2.553.977-.594 2.232-1.082 4.522-.575 2.29.507 6.848 1.92 8.038 2.3 1.19.378 1.833.575 1.87.727.039.152-.17.701-.71.898-.359.132-3.633.475-9.823 1.032-2.653.25-4.19.344-4.61.28-.63-.094-1.787-1.646-1.833-2.11Z" fill="#67656D"/>
        <path d="M25.366 66.125c-.046-.463 1.607-1.78 2.584-2.374.977-.594 2.232-1.082 4.522-.575 2.29.507 6.848 1.92 8.038 2.3 1.19.378 1.91.56 1.906.631-.004.072-.38.684-.525.714-.146.029-7.476.725-10.133 1.001-2.658.276-4.142.438-4.49.369-.347-.07-1.857-1.603-1.902-2.066Z" fill="#CECCD5"/>
        <path d="M32.472 63.176c1.326.294 3.412.891 5.164 1.415l4.427 1.363c.231.074.355.123.353.153-.004.072-.38.684-.525.714l-10.133 1.001-2.818.287c-.921.086-1.476.12-1.671.082-.348-.07-1.858-1.603-1.903-2.066-.02-.203.287-.57.72-.97.612.672 1.153 1.968 1.597 2.124.7.245 3.312.168 4.875-.66 1.327-.704-.627-2.587-1.99-3.653a7.976 7.976 0 0 1 1.904.21Z" fill="#C9C9D1"/>
        <path d="m37.636 64.591 4.427 1.363.225.077c.085.033.13.058.128.076-.004.072-.38.684-.525.714l-8.286.82c.967-.243 1.726-.542 2.278-.898 1.533-.987.24-2.01-1.038-2.96l1.875.537c.312.091.619.182.916.271Z" fill="#C6C5CE"/>
        <path d="M32.472 63.176c1.326.294 3.412.891 5.164 1.415l4.427 1.363c.231.074.355.123.353.153-.002.033-.082.18-.182.332a.546.546 0 0 0-.234-.138l-.316-.062c-.528-.12-1.948-.52-3.159-.899l-1.454-.456c-1.632-.5-3.89-1.154-4.838-1.307-1.206-.195-2.768-.108-3.849.532-1.08.64-2.292 1.697-2.448 1.907-.156.21 1.15 1.642 1.457 1.83.306.187 13.588-1.07 13.955-1.099.216-.017.41.018.502.077l-10.092.998-2.818.287c-.921.086-1.476.12-1.671.082-.348-.07-1.858-1.603-1.903-2.066-.046-.463 1.607-1.78 2.584-2.374.977-.594 2.232-1.082 4.522-.575Z" fill="#F6F6F8"/>
        <path d="M14.996 62.704c.525.247 1.255.548 2.19.903 1.405.534 3.516 1.18 4.035 1.393.52.213.55.648.188.585-.363-.062-5.605-1.937-6.266-2.217-.662-.28-1.811-.951-2.147-1.358-.337-.408-.212-.677-.116-.545.097.133.498.373.427.544-.07.172.503.38.643.39.14.012.404.12.416.24.011.12.236.062.404.126.112.043.222.093.33.151l-.104-.212Z" fill="#737081"/>
        <path d="M84.635 49.5c-.254.1-.338.23-.252.391.13.24.51 1.34.545 1.838.035.496-.028 1.147 0 1.28s.206.316.196.725c-.01.408.083 1.066 0 1.318-.083.253-.365.623-.275.906.09.283.217.284.463.083.245-.202.4-.92.386-1.13-.014-.21-.22-2.213-.268-2.666-.048-.452-.46-1.579-.502-1.849-.028-.18-.126-.479-.293-.897Z" fill="#BC8043"/>
        <path d="M62.127 56.914c-.016-.168.022-.265.112-.292.455-.018 1.896-.353 3.483-.748 2.936-.732 9.095-2.274 9.76-2.457.369-.102.554-.387.723-.485.022-.013.08.03.173.127.746.305 1.142.61 1.189.913.07.455-14.538 3.838-14.89 3.871-.236.023-.419-.287-.55-.929Z" fill="#7A7781"/>
        <path d="M62.127 56.914c.471 0 1.685-.244 3.643-.732 2.935-.731 9.28-2.315 9.944-2.499.443-.122.664-.33.664-.624.746.305 1.142.61 1.189.913.07.455-14.538 3.838-14.89 3.871-.236.023-.419-.287-.55-.929Z" fill="#A2A0A9"/>
        <path d="M76.378 53.059c.244.1.18.078.35.178-.118.256-.47.504-.597.586-.284.182-12.992 3.264-13.303 3.292-.22.02-.546.07-.686-.133l-.015-.068.27-.017c.485-.052 1.325-.221 2.522-.507l10.795-2.707c.443-.122.664-.33.664-.624Z" fill="#EEE"/>
        <path d="M43.718 46.172c.459-.321 1.513-.691 1.706-.618.128.049.424-.099.888-.443.037-.269.332-.62.885-1.054.83-.652 1.422-.706 1.631-.734.146-.478.522-.665 1.03-.785s.464-.091.618 0c.153.09.332.78.402 1.016s.317 1.015.343 1.288c.025.273-.115.38-.343.426-.229.044-.746.08-.916 0-.17-.08-.853-1.284-.933-1.601-.079-.318-.645.336-.747.568-.101.231-.234 1.062-.147 1.448.087.386.1.865-.03 1.144-.13.28-.89.076-1.112 0-.221-.076-.517-.856-.555-.893-.037-.037-.1-.469-.352-.38-.252.088-.564.418-.662.883-.1.464-.119.983-.163 1.286-.044.302-.522.869-.647.952-.125.083-.812-.088-.872-.414-.06-.326-.504-1.11-.703-.919-.2.192-.386.743-.415 1.451-.03.708-.487 1.471-.717 1.612-.23.14-.58.321-.868-.098-.289-.42-.153-1.522-.117-1.763.035-.241.216-.599.393-.785.177-.185 1.653-.871 1.724-.71 0-.266.22-.556.679-.877Z" fill="#F3F4F9"/>
        <path d="M45.424 46.437c-.1.464-.119.983-.163 1.286-.044.302-.522.869-.647.952-.125.083-.812-.088-.872-.414-.06-.326-.504-1.11-.703-.919-.2.192-.386.743-.415 1.451-.03.708-.487 1.471-.717 1.612-.23.14-.58.321-.868-.098-.289-.42-.153-1.522-.117-1.763.016-.111.063-.247.127-.38l-.042.359c-.05.505-.083 1.24.089 1.403.262.25.39-.199.493-.08.105.12.401.136.576-.19.176-.326.2-1.455.351-1.893l.113-.304c.115-.273.243-.44.46-.355.29.114.688.674.798.92.095.212.357-.054.539-.036l.082.037c.172.157.495-.318.598-.547.096-.212.229-1.209.517-1.532-.088.143-.16.306-.2.49Zm2.858-2.202c-.101.231-.234 1.062-.147 1.448.087.386.1.865-.03 1.144-.13.28-.89.076-1.112 0-.095-.032-.203-.194-.3-.372l-.255-.521c-.026-.027-.065-.252-.176-.348l.008-.202a.994.994 0 0 1 .118-.428c.083.593.391 1.208.565 1.463.174.256.224-.223.442-.044.219.178.493.09.55-.175.056-.264-.156-.969-.016-1.534.078-.316.302-.602.672-.859a1.804 1.804 0 0 0-.319.428Zm2.194-1.697c.088.052.183.299.263.545l.327 1.101c.073.258.142.522.155.658.025.273-.115.38-.343.426-.229.044-.746.08-.916 0-.17-.08-.853-1.284-.933-1.601-.016-.068-.055-.092-.107-.085l.036-.028.083-.42.313.762c.18.424.309.681.383.77.168.2.47.284.524.336.053.053.23-.367.385-.21l.118.126c.087.088.15.115.23-.076.104-.254-.477-2.043-.568-2.341l.05.037Z" fill="#BCBCC2"/>
    </g>
</svg>
