<svg width="96" height="96" xmlns="http://www.w3.org/2000/svg">
    <defs>
        <path id="a" d="M0 0h96v96H0z"/>
    </defs>
    <g fill="none" fill-rule="evenodd">
        <path d="M62.844 18.647c.98.27 1.554 1.594.169 5.133l-.169.418c-.994 2.398-1.894 3.925-2.702 4.58l-.171.128c-.29.179-.339.544-.146 1.096.288.827 1.177 2.752 1.647 4.377l.496 1.75c.329 1.189.616 2.304.635 2.629.02.324.047.581.083.77.824-.065 1.613.122 2.367.562 1.13.66 3.602 2.411 4.896 2.973 1.294.562 4.098 1.292 5.25-.173l.65-.85c1.054-1.41 2.236-3.111 2.45-3.39.173-.226.96-.86 2.359-1.9l-.07-.567c-.055-.504-.072-.821-.049-.952l.077-.26c.232-.706.91-2.51 1.06-2.821.178-.368.688-1.17 1.189-1.486.501-.317 1.355-.355 1.691-.181.336.174 1.106.686 1.02 1.298l-.1.804c-.086.634-.23 1.4-.545 1.929.036.206-.06.5-.29.88.11.428.11.716 0 .863l-.126.148c-.171.187-.474.487-.91.9l-.595 1.237c-.297.6-.506.991-.626 1.172l-.047.065c-.245.31-.286.476-.282.771.003.296-.5 1.71-.539 2.238-.04.528-.162 1.01-.268 1.083.113.146.681 4.518.695 5.3l-.003.093c-.048.383.43 3.09.47 5.853l.002.436c.005.298-.114 2.255-.357 5.869-5.637 1.19-11.063 1.894-16.278 2.114l-4.125.108c-6.768.142-19.712.363-38.833.665l-7.61-1.31c-2.106-.374-3.308-.604-3.605-.69-.557-.16-.832-.457-.826-.887.222-1.432 1.326-2.443 3.31-3.032l4.255-1.318c4.342-1.368 10.062-3.214 10.869-3.54 1.143-.463 1.61-1.428 2.44-1.729.553-.2 1.404-.296 2.55-.286l2.888-1.398.18-.855 3.009-1.654c.522-.28.845-.445.966-.494l.213-.066c.272-.08.703-.163 1.206.267.294-.219.613-.438.958-.658l-.147-.338 1.235-.714 1.398-1.24c1.869-1.676 3.085-2.846 3.65-3.512 1.042-1.228 5.816-11.48 6.076-12.604.26-1.125.886-2.331 2.042-2.059l.173-.952c.245-1.29.712-3.4 1.464-4.573 1.003-1.563 2.313-2.3 3.331-2.02Zm20.567 12.406c.083-.01 1.486.645 1.204 1.511-.188.578-.518 1.228-.99 1.95v.461l-1.655.955.271-1.906c.063-.413.117-.748.164-1.007l.091-.453c.156-.646.832-1.5.915-1.511ZM61.133 19.895c1.417-1.684 2.035-.466 2.078.55.037.858-.641 2.595-1.073 3.52l-.205.414c-.076.142-.212.38-.408.714l-2.16 3.604c-.101-.245-.18-.463-.239-.652-.087-.283-.051-.794-.101-1.039-.033-.163-.205-.332-.516-.506.083-.247.147-.515.192-.803l.017-.089c.147-.707 1.07-4.113 2.415-5.713Z" fill="#F0F4F6"/>
        <path d="M63.453 56.51c.717.802 2.218 3.095 4.501 6.877l-2.735.163-3.567.094-36.374.626-2.459.039-7.61-1.31-2.72-.5c-.087-.016-.169-.032-.244-.048a20.528 20.528 0 0 1-1.384-.65.795.795 0 0 1-.083-.38c.207-1.335 1.182-2.305 2.925-2.908l.491-.155c-.158.722.514 1.18 2.014 1.372 2.206.284 5.647.453 10.325.507l4.665-.635c9.125-1.274 15.057-2.314 17.796-3.12l.255-.077c4.536-1.414 13.128-1.1 14.204.104Z" fill="#E3E7EA"/>
        <path d="M62.844 18.647c.98.27 1.554 1.594.169 5.133l-.169.418c-.994 2.398-1.894 3.925-2.702 4.58l-.171.128c-.29.179-.339.544-.146 1.096.288.827 1.177 2.752 1.647 4.377l.496 1.75c.329 1.189.616 2.304.635 2.629.02.324.047.581.083.77l.209-.008.128.843c.136.96.22 1.82.19 2.328-.105 1.692-15.418 10.507-20.704 11.094-5.118.568-11.104.02-12.048-1.099l.464-.422c.228-.197.458-.364.727-.46.553-.202 1.404-.297 2.55-.287l2.888-1.398.18-.855 3.009-1.654.813-.424a2.63 2.63 0 0 1 .153-.07l.213-.066c.272-.08.703-.163 1.206.267.294-.219.613-.438.958-.658l-.147-.338 1.235-.714 1.398-1.24.816-.738c1.412-1.286 2.356-2.21 2.834-2.774 1.042-1.228 5.816-11.48 6.076-12.604.26-1.125.886-2.331 2.042-2.059l.173-.952c.245-1.29.712-3.4 1.464-4.573 1.003-1.563 2.313-2.3 3.331-2.02Zm.367 1.797c-.043-1.015-.661-2.233-2.078-.549-1.188 1.412-2.045 4.23-2.332 5.36l-.083.353-.068.37a4.676 4.676 0 0 1-.141.522c.31.174.483.343.516.506.05.245.014.756.101 1.04.039.125.087.264.145.415l.093.236 2.16-3.604.41-.714.204-.414.136-.3c.424-.964.97-2.448.937-3.22Z" fill="#33A59D"/>
        <path d="m51.234 38.287 9.068 5.414-3.899 4.046c-2.425-1.603-4.685-2.507-6.78-2.712-.652-.063-2.513.438-5.582 1.505-2.322 1.3 1.48.912 1.962 1.115.322.328 1.69 1.367 1.4 2.099-.67 1.696-3.951 3.926-4.894 4.03-5.118.57-11.104.022-12.048-1.098l.464-.422c.228-.197.458-.364.727-.46.553-.202 1.404-.297 2.55-.287l2.888-1.398.18-.855 3.009-1.654.813-.424.153-.07.213-.066c.272-.08.703-.163 1.206.267.294-.219.613-.438.958-.658l-.147-.338 1.235-.714 1.398-1.24.816-.738 1.05-.972c.842-.791 1.437-1.392 1.784-1.802.278-.328.822-1.3 1.476-2.568Z" fill="#A2DED8"/>
        <path d="m57.393 28.697 1.233 3.91c.371 1.204.581 1.934.63 2.19l.256 1.391c.149.786.325 1.615.465 1.865l.139.255c.256.443.749 1.01 2.198.524l.287-.1.002.026c.02.324.047.581.083.77l.209-.008.128.843c.023.165.045.328.065.486a4.73 4.73 0 0 1-1.223 1.186c-1.877 1.223-5.382 4.506-7.09 4.125-1.657-.37-.42-2.661.318-9.065l.066-.593c.484-4.57 1.229-7.172 2.234-7.805Z" fill="#188F87"/>
        <path d="m57.953 30.471.108.346.03.182c.358 2.217.53 3.861.513 4.931-.025 1.752-.89 5.14-1.266 6.062-.25.615-.997 1.606-2.238 2.973l-1.147-.16c.025-1.254.611-3.462 1.064-7.071l2.936-7.263Z" fill="#066A63"/>
        <path d="M58.509 26.5c.31.174.483.343.516.506.05.245.014.756.101 1.04l.065.198.108.29c.035.207.134.516.298.926l.228.542c.288.827 1.177 2.752 1.647 4.377l.496 1.75c.329 1.189.616 2.304.635 2.629.02.324.047.581.083.77l.209-.008.065.434-1.629 2.605c-.08-1.614-.21-2.967-.39-4.059l-.08-.452c-.333-1.744-1.644-5.375-2.352-6.995s-.486-2.987-.486-3.32c0-.159.083-.414.248-.765l.238-.468Z" fill="#2BB2A1"/>
        <path d="m58.02 29.17-.005-.103 1.305 2.93c.19.433.328.755.414.966l.18.48c.45 1.267 1.247 3.88 1.444 4.998.13.738.179 2.018.146 3.84l-.173.278c-.08-1.614-.21-2.967-.39-4.059l-.08-.452c-.333-1.744-1.644-5.375-2.352-6.995a6.174 6.174 0 0 1-.489-1.882Z" fill="#1C7066"/>
        <path d="M58.52 27.094c.047-.306.361.232.562.686.007.1.021.19.044.265l.065.199.108.29c.035.207.134.516.298.926l.228.542c.288.827 1.177 2.752 1.647 4.377l.62 2.199-.93-2.324a24.535 24.535 0 0 1-.352-.93c-.18-.54-1.59-3.155-1.797-3.89l-.153-.546c-.188-.684-.388-1.48-.34-1.794Z" fill="#A5E5DF"/>
        <path d="M84.556 30.483c.336.174 1.106.686 1.02 1.298l-.1.804c-.086.634-.23 1.4-.545 1.929.036.206-.06.5-.29.88.032.122.054.232.068.332-.334-.052-.57-.035-.713.047-.371.214-2.615 1.228-3.286 1.964l-.773.872c-.68.786-1.488 1.757-1.727 2.165l-.058.114c-.132.348-.97 1.566-1.378 2.192l-.325.522c-.406.599-1.648 1.966-4.457 1.42-3.09-.6-6.607-2.846-7.533-3.248l-.11-.044c-.714-.237-.906-.531-1.96-.453-1.053.079-5.383 2.52-6.705 3.473-1.322.952-3.473 3.436-4.165 3.845-.69.409-6.714 1.991-7.357 2.055-.643.064-1.66-.913-.869-1.22l.467-.164c.967-.323 3.14-.995 6.517-2.017l2.395-1.79c1.695-1.284 2.636-2.049 2.824-2.295.394-.518 5.026-3.688 6.487-3.686l.433.011.263.015.007.024.221-.008.877.076c.434.088.857.253 1.269.494 1.13.66 3.602 2.411 4.896 2.973 1.294.562 4.098 1.292 5.25-.173l.65-.85 1.056-1.444c.679-.942 1.252-1.76 1.394-1.946.173-.226.96-.86 2.359-1.9l-.07-.567-.042-.442c-.02-.253-.022-.423-.007-.51l.077-.26.452-1.267c.254-.683.52-1.372.609-1.554.177-.368.687-1.17 1.188-1.486.501-.317 1.355-.355 1.691-.181Zm-1.145.57c-.074.01-.63.702-.854 1.312l-.06.2-.092.452-.164 1.007-.27 1.906 1.655-.955v-.46l.265-.425c.332-.555.573-1.064.724-1.526.282-.866-1.121-1.522-1.204-1.511Z" fill="#5BB5AC"/>
        <path d="M55.056 42.91c.31.654.562.901.754.741.287-.24 4.058-2.083 4.492-2.403.434-.321 1.357-.914 2.277-.797.92.118 2.555.824 4.965 2.245 2.409 1.422 4.648 2.093 6.235 1.897 1.586-.196 2.357-.993 3.017-2.298.66-1.306 2.284-3.946 2.44-3.922.156.023 2.215-1.433 2.34-1.524.082-.06.661-.434 1.735-1.121l1.413-.146-1.413.996c-2.894 2.657-4.361 4.03-4.402 4.118l-1.854 4.033-2.64 1.462c-3.249-.664-4.908-1.007-4.978-1.03-.07-.023-1.902-.89-5.498-2.602H60.86c-2.099 1.117-3.205 1.697-3.319 1.74-.113.041-.942.407-2.486 1.096-.795-.696-1.162-1.062-1.103-1.097.06-.035.427-.498 1.103-1.388Z" fill="#25837C"/>
        <path d="m61.495 39.556.398-.023.786-.029.007.024.221-.008.877.076c.434.088.857.253 1.269.494 1.13.66 3.602 2.411 4.896 2.973 1.294.562 4.098 1.292 5.25-.173l.65-.85 1.056-1.444L78.3 38.65c.173-.226.96-.86 2.359-1.9l-.004-.017 1.316-.803 1.549-.893c.192.003.4.026.416.1.027.118-.358.296-.548.405l-.076.048c-.126.095-1.86.762-2.256 1.174-.396.413-2.02 1.546-2.322 1.9-.302.355-1.487 2.076-1.82 2.611l-.458.762c-.38.612-.89 1.339-1.406 1.623-.775.426-1.917.728-3.69.263-1.462-.382-3.83-1.8-4.965-2.532l-.54-.359c-.618-.434-1.73-.91-2.909-1.122-1.1-.196-3.118.707-3.908 1.254l-.258.19c.061-.073 1.102-.975 1.814-1.458.332-.15.639-.268.902-.34Z" fill="#A2E8E1"/>
        <path d="m84.666 35.531-.025-.137c.11.428.11.716 0 .863l-.126.148-.269.278c-.166.167-.38.374-.64.623l-.596 1.236-.268.53a7.61 7.61 0 0 1-.358.642l-.047.065c-.245.31-.286.476-.282.771.003.296-.5 1.71-.539 2.238-.04.528-.162 1.01-.268 1.083.113.146.681 4.518.695 5.3l-.003.093c-.048.383.43 3.09.47 5.853v.582c-.018.567-.133 2.425-.345 5.574a35.3 35.3 0 0 1-.972.345l.962-.196c-5.637 1.19-11.063 1.894-16.278 2.114l-4.125.108-35.118.606c-.017-1.447.304-3.12.963-5.016.865-2.491 2.58-5.795 3.5-7.03.204-.17.414-.314.655-.4.387-.141.92-.23 1.597-.268l.153.09c.574.385 1.497.334 2.86.28 1.361-.053 7-1.646 8.798-1.955l.524-.096c2.01-.39 5.703-1.286 5.833-1.354.087-.046-.372-.526-1.377-1.44l-.263-.237-.44-.415 4.44-2.747 1.312 1.145 3.056-1.966c1.714-1.091 2.782-1.746 3.204-1.963.95-.489 2.695.115 3.661.57.967.457 2.1 1.608 4.74 2.74 2.64 1.133 4.637.708 5.77 0 1.02-.636 1.333-1.572 1.694-2.196l.395-.623c.542-.895 1.474-2.563 1.99-3.011.62-.539 3.526-2.298 3.712-2.428.106-.073.557-.206 1.355-.399Z" fill="#EEF4F6"/>
        <path d="m62.54 44.192 12.713 7.101-1.458.861c-2.123 1.233-3.958 2.203-5.505 2.908-1.655.755-3.222 1.277-4.701 1.565l-.63.109-4.18-6.429-3.753-5.572.797-.401 6.717-.142Z" fill="#A4B6BB"/>
        <path d="M54.602 45.395c-.69.017-.68-.274-1.473 0-.68.235-2.053 1.16-3.284 1.494l-.509-.48 4.441-2.747 1.312 1.145.088-.056c-.026.42-.218.635-.575.644Z" fill="#ADB4B7"/>
        <path d="M65.01 41.449c.967.456 2.1 1.607 4.74 2.74 2.64 1.132 4.637.707 5.77 0 .952-.595 1.289-1.45 1.623-2.069l.612.991c1.06 1.737 1.774 3.035 2.144 3.9.883 2.06-1.454 4.255-3.96 4.201-1.314-.028-13.18 10.373-20.945 13.012-1.882.64-4.094-.527-6.635-3.498-.698-2.119-.716-3.557-.053-4.314 3.176-3.627 12.932-4.778 15.223-6.665 2.573-2.12-2.525-4.768-2.905-5.07-1.023-.812-1.588-1.59-1.696-2.331l1.78-1.103c.286-.17.5-.292.641-.365.95-.489 2.695.115 3.661.57Z" fill="#DADEDF"/>
        <path d="M69.75 44.188c2.64 1.133 4.637.708 5.77 0 .126-.078.241-.161.347-.248-.623.75-1.384 1.234-2.287 1.455-1.59.39-3.99-.859-5.064-1.61l-1.045-.766c.609.37 1.35.771 2.279 1.17Z" fill="#B1B8BB"/>
        <path d="m68.632 47.117 2.712 1.252c3.899 1.83 7.097 1.547 6.275-.295l-.367-.79c-1.009-2.095 4.524 3.798 4.324 5.131l-.05.447c-.123 1.467-.043 3.928-.815 3.73l-.658-.15c-2.154-.464-8.495-1.625-11.42-.457-3.173 1.267-5.1 1.792-8.112.798l-.544-.19c-3.19-1.191-7.444-.688-9.196-.084l-.223.083a24.107 24.107 0 0 1-3.41 1.072l-.851-2.698 1.668-.76c3.23-1.493 5.834-2.808 7.81-3.947l.48-.281c3.509-2.08 6.585-5.493 12.377-2.86Z" fill="#E3E8EB"/>
        <path d="m66.432 46.365 8.821 4.928-1.458.861c-2.123 1.233-3.958 2.203-5.505 2.908-1.655.755-3.222 1.277-4.701 1.565l-.63.109-4.18-6.429-.793-1.445.691-.462c2.2-1.455 4.519-2.755 7.755-2.035Z" fill="#C2CACF"/>
        <path d="M50.162 51.212c-.54.126-1.617.486-2.162 1.203-.545.717-.299 1.867.65 2.231.95.364 4.474-.857 4.711-2.04.237-1.183-.336-1.676-1.212-1.579-.876.098-1.447.06-1.987.185Z" fill="#D8DFE4"/>
        <path d="M50.85 51.704c-.716.076-2.729.689-1.779 1.053.95.364 3.89-.16 4.177-.484.288-.324-.096-1.007-.57-.86-.473.147-1.113.215-1.828.29Z" fill="#939EA4"/>
        <path d="M42.042 47c.36.21.683.416.97.62.984.7 3.267 4.093 4.603 6.301l.407.687c1.22 2.107 4.388 8.709 4.546 9.114.011.028.003.059-.024.092l-28.204.43c-.262-.113-.427-.233-.497-.363 1.1-4.9 3.05-7.921 4.496-9.858l.398-.524c1.143-.463 1.61-1.428 2.44-1.729.553-.2 1.879-.263 3.026-.253.688.488 1.345.62 1.969.397.623-.223.93-.821.918-1.795l.18-.855 3.433-1.665.813-.424a2.63 2.63 0 0 1 .153-.07l.213-.066.16-.04Z" fill="#AEAEBF"/>
        <path d="M41.617 47.01c.36.21.683.416.97.62.985.7 3.268 4.094 4.603 6.302l.407.686c1.22 2.108 4.389 8.71 4.547 9.115.01.028.003.058-.024.092l-27.305.452c-.262-.113-.427-.234-.497-.363 1.1-4.9 3.05-7.921 4.496-9.858l.398-.525c1.143-.462 1.61-1.427 2.44-1.728.553-.2 1.404-.296 2.55-.286.69.488 1.346.62 1.97.397.623-.223.93-.821.918-1.795l.18-.855 3.009-1.654.813-.424a2.63 2.63 0 0 1 .153-.07l.213-.066.16-.04Z" fill="#F4F4F7"/>
        <path d="m47.438 54.353.16.265.349.627c.77 1.422 3.308 5.917 4.09 8.19-1.563.229-5.846.43-12.849.604l-14.373.238c-.262-.113-.427-.234-.497-.363a27.627 27.627 0 0 1 1.132-3.792l1.033-.162c5.569-.9 9.705-1.848 12.41-2.843l.415-.157c2.463-.964 5.173-1.833 8.13-2.607Z" fill="#EAEAF2"/>
        <path d="m42.202 48.137.728.311.254-.254.263.301-.123.123.352.155c.167.207.342.433.521.673l-.763-.342-.414-.182-1.174 1.206-.746.782.413.227c.573.319 1.072.619 1.498.9l.361.247 1.512-1.89.228.327-1.428 1.795.186.138c.568.434 1.237.967 1.967 1.567l.327.271.76-.996.224.365-.676.887.763.64 1.434 1.231.502.986-.301-.265-1.602 2.016-.542.67 4.16 3.818-.523.01-3.881-3.522-1.916 2.364.954.939.295.293-.526.01-.965-.948-.8.976-.523.008 1.035-1.262-.04-.04c-.522-.503-1.03-.986-1.526-1.448l-.75-.694-2.482 2.9.597.598-.556.008-.303-.302-.27.312-.535.008.519-.602-.212-.208a72.683 72.683 0 0 0-1.182-1.125l-.794-.725-1.003 1.27-.813 1.038.42.404-.567.01-.099-.096-.08.098-.51.008.298-.382-.324-.306a82.461 82.461 0 0 0-1.673-1.528l-.251-.22-.211.287c-.342.464-.66.906-.949 1.318l-.613.893-.862.014-.27-.227a39.652 39.652 0 0 0-1.482-1.164l-.585-.433-.439.613-.377.539-.503.732-.488.008.286-.422c.25-.367.503-.73.756-1.089l.441-.615-.156-.112-.877-.618a87.707 87.707 0 0 0-.463-.32l.133-.394.468.322 1.129.798.09-.124c.512-.7 1.03-1.383 1.553-2.049l.361-.453-.131-.096a22.568 22.568 0 0 0-2.174-1.432l.189-.352c.524.297 1.088.657 1.69 1.08l.674.488.178-.22c.264-.325.53-.645.796-.96l.64-.748-.302-.183a17.696 17.696 0 0 0-2.603-1.277l.224-.327c.805.314 1.65.728 2.532 1.241l.411.246.713-.794.819-.883.776-.805-.327-.144-.29-.116c-1-.378-1.746-.783-2.232-1.196l.3-.272c.373.31.94.632 1.7.946l.373.148c.195.073.396.158.606.255l.168.081.587-.583c.28-.273.56-.541.842-.805l.457-.422-.156-.066c.297.045.586.017.87-.084l.093-.042-.097.086.424.209c.522.264 1.052.552 1.578.86l.27.161 1.327-1.438.683-.732-.049-.025a67.648 67.648 0 0 0-3.168-1.534l.036-.195.23-.123a67.132 67.132 0 0 1 3.1 1.504l.133.071.829-.868 1.065-1.096-.984-.414a35.468 35.468 0 0 0-1.582-.612l.473-.253.779.3c.278.11.575.232.89.364Zm-13.04 11.298-.369.462-.775 1.005-.858 1.152.03.02a43.527 43.527 0 0 1 2.068 1.599l.47.399.654-.958.62-.873.596-.815-.497-.427a46.308 46.308 0 0 0-1.939-1.564Zm4.686-.283-.727.93-.981 1.286.266.234c.361.32.732.655 1.11 1.004l.878.82 1.81-2.3-.057-.052a52.864 52.864 0 0 0-1.483-1.267l-.816-.655Zm5.25-.93-1.613 1.957-.731.901.219.198c.387.351.78.716 1.177 1.095l.802.775 2.472-2.886-.221-.201c-.47-.426-.928-.83-1.371-1.213l-.734-.626Zm4.776-.246-1.902 2.262 1.164 1.086.578.55.562.542 1.908-2.354-2.31-2.086Zm-12.826-.81-.68.796-.792.955-.164.205.447.345c.476.373.973.779 1.489 1.216l.49.421.945-1.24.749-.956-.119-.092a33.266 33.266 0 0 0-2.04-1.444l-.325-.206Zm5.967-.614-.631-.468-.026.03c-.474.55-.95 1.117-1.418 1.688l-.844 1.04.068.052c.482.378.973.781 1.474 1.208l.816.712 1-1.227 1.338-1.621-.092-.076a50.12 50.12 0 0 0-1.685-1.338Zm4.193-.94-1.86 2.306.962.828c.152.132.304.267.459.404l.907.818 1.345-1.59.555-.67-1.725-1.549a18.811 18.811 0 0 0-.437-.379l-.206-.168Zm5.012-.544-.346.444-.83 1.037-.916 1.119 2.302 2.09 2.138-2.682-1.459-1.257-.889-.751Zm-12.333-.586-.237-.124-.043.046a60.77 60.77 0 0 0-1.635 1.727l-.662.737.237.149c.672.433 1.365.92 2.078 1.46l.155.119.134-.166c.464-.578.94-1.158 1.418-1.727l.724-.853-.369-.257c-.649-.444-1.249-.814-1.8-1.11Zm4.627-.78-1.096 1.21-.774.87.056.04c.523.382 1.074.807 1.652 1.274l.688.566 1.86-2.298-.412-.32c-.479-.36-.977-.705-1.485-1.034l-.489-.308Zm4.922-.874L41.46 55.3l.212.175.446.387L43.83 57.4l.988-1.208 1.096-1.38-1.04-.855-.873-.695-.565-.434Zm-7.586-.58-.577.531-.42.397-.905.886.107.057c.54.29 1.123.647 1.752 1.074l.511.355.448-.507 1.398-1.551-.188-.112c-.459-.27-.92-.523-1.376-.758l-.75-.372Zm4.966-1.036-1.25 1.344-.778.846.428.27a26.02 26.02 0 0 1 1.513 1.053l.423.325 1.97-2.454-.04-.026a20.17 20.17 0 0 0-1.692-1.044l-.574-.314Z" fill="#DDDDE2"/>
        <path d="M32.483 54.078c.748-.443.805-.99.72-1.363-.084-.373-1.038-.449-1.798-.038-.761.41-1.068.904-.952 1.324.116.42 1.282.52 2.03.077Z" fill="#8E8E8E"/>
        <path d="M32.434 53.828c.748-.443.805-.99.721-1.363-.084-.373-1.038-.45-1.799-.038-.76.41-1.067.904-.952 1.324.116.42 1.282.52 2.03.077Z" fill="#E6E5E5"/>
        <path d="M32.18 53.549c.703-.354.747-.696.66-.982-.085-.287-.859-.35-1.422-.033-.562.319-.746.822-.605 1.034.14.212.664.335 1.367-.019Z" fill="#979696"/>
        <path d="M32.165 53.255c.703-.354.747-.696.66-.982-.085-.286-.859-.35-1.421-.032-.563.318-.747.822-.606 1.033.14.212.664.335 1.367-.019Z" fill="#EDEDED"/>
        <path d="M84.641 35.394c.11.428.11.716 0 .863l-.126.148-.269.278-.453.444-.187.179-.596 1.236-.268.53-.208.391c-.06.107-.11.191-.15.251l-.047.065c-.245.31-.286.476-.282.771.003.296-.5 1.71-.539 2.238-.04.528-.162 1.01-.268 1.083.113.146.681 4.518.695 5.3l-.003.093c-.048.383.43 3.09.47 5.853v.582l-.072 1.357c-.058.96-.149 2.365-.273 4.217l-.49.178-.477.165-.75.152.036-.837c.06-2.035.055-7.147.066-8.066.013-1.01-.513-1.337-1.182-2.212l-.336-.46c-.859-1.215-2.467-3.694-2.823-4.586-.163-.409-.283-.934-.359-1.577l-.23.158c1.02-.636 1.333-1.572 1.694-2.196l.395-.623.786-1.318c.435-.716.895-1.424 1.205-1.693.62-.539 3.525-2.298 3.711-2.428.106-.073.557-.206 1.355-.399l-.025-.137Z" fill="#E6E4E7"/>
        <path d="M82.41 55.117v.582l-.018.3-.473-.467c-.354-.355-.609-.63-.765-.82-.367-.45.564-2.895.886-4.3l.148 1.319c.104.993.204 2.184.222 3.386ZM79.84 38.17c.318.576.566 1.68.744 3.316l.051.506 1.401-1.292c-.091.47-.485 1.622-.52 2.088-.04.528-.162 1.01-.268 1.083.113.146.681 4.518.695 5.3l-.003.093c-.865-1.038-4.552-4.466-5.426-5.021-.17-.107-.23-.372-.21-.737.442-.523.665-1.09.91-1.514l.395-.623.786-1.318.328-.529c.328-.514.644-.962.877-1.164l.142-.115.097-.073Z" fill="#D7D5D8"/>
        <path d="m84.452 35.582-.805.636-.108.041-2.063 1.296-1.506 1.023c-.054.039-.09.066-.108.082-.17.147-.425.492-.761 1.015l-.362.581-.792 1.326-.45.724-.246.472a6.733 6.733 0 0 1-.317.55 4.036 4.036 0 0 1-.654.784l-.104.086.02.137c.052.338.12.633.2.885l.084.238c.255.638 1.347 2.41 2.332 3.859l.443.64.33.453.778.957c.341.464.495.9.487 1.504l-.035 6.353-.024 1.447-.023.605.2-.038 1.086.038-.478.175-.478.165-.75.152.036-.837.033-1.879.033-6.187c.013-1.01-.513-1.337-1.182-2.212l-.336-.46-.408-.59-.651-.979c-.75-1.15-1.53-2.43-1.764-3.017-.163-.409-.283-.934-.359-1.577l-.23.158c1.02-.636 1.333-1.572 1.694-2.196l.395-.623.786-1.318.328-.529c.328-.514.644-.962.877-1.164.62-.539 3.525-2.298 3.711-2.428.053-.036.192-.088.418-.154l.723-.194Z" fill="#A7B2BA" fill-rule="nonzero"/>
        <path d="m76.44 43.337.88.14c.591.089 1.095.154 1.51.197l2.42.198.02.056.046.211.028.155-.644.004c.431 1.038.656 1.943.675 2.713-.188.821-.386 1.54-.596 2.156l.297.495c.216.374.465.835.749 1.38l.03-.138c.052-.246.103-.503.155-.77l.097.856-.12.375.205.398.085.892-.428-.883c-.26.757-.494 1.324-.7 1.706.195-.511.385-1.165.57-1.962l-.466-.92c-.22-.42-.42-.782-.598-1.086a8.057 8.057 0 0 1-.574 1.262l-.151.243-.078-.267a23.4 23.4 0 0 0 .68-1.447l-.125-.196a18.956 18.956 0 0 0-1.394-1.892c-.444.813-.784 1.277-.914 1.368-.205.143.3-.735.766-1.54-.651-.77-1.31-1.44-1.928-2.06l.52.402c.404.319.92.758 1.536 1.435l.133-.23c.28-.489.512-1.1.698-1.834l.106-.456-2.506-.525-1.06 1.499.79-1.571-.959-.07c.09-.096.17-.194.245-.294Zm3.909.961a25.95 25.95 0 0 1-1.21 2.683c.44.5.932 1.125 1.467 1.913l.052.08.042-.12c.376-1.157.454-2.02.454-2.226l-.002-.04-.055-.22c-.135-.477-.484-1.532-.748-2.07Zm3.254-6.986-.196.402-1.647.848.392 1.035.831-1.003-.24.479-.21.39c-.06.107-.11.191-.15.251l-.046.065c-.196.248-.261.404-.278.607l-.062.077c-.213.269-.602.862-1.167 1.778l-.195.318.233 1.142h-.233l-.263-1.142-1.186 1.131 1.04-1.335c.079-.097.127-.153.146-.169.052-.043.007-.854-.136-2.432l-.038-.39.044-.02-.012-.082 1.418-.82-.072-.365.126.335 1.901-1.1Zm-1.923 1.292-1.438.74.393 2.648 1.335-1.948-.29-1.44Z" fill="#8E8E8E"/>
        <path d="M50.52 63.078c.968-1.035 1.709-1.658 2.223-1.869.772-.315 11.817-5.951 13.305-6.937 1.488-.987 8.125-4.733 9.418-4.149 1.294.584 4.005 2.862 4.9 3.46.6.401 1.747 1.218 2.302 1.774.272.273.23.481.245.551.028.141.028 1.875 0 5.202-3.97.85-8.692 1.395-14.167 1.634-5.476.24-11.55.35-18.225.334Z" fill="#999A9E"/>
        <path d="M50.968 63.263c.935-.786 1.66-1.284 2.174-1.495.772-.315 11.683-5.958 13.171-6.945 1.488-.986 7.914-4.754 9.207-4.17 1.294.584 4.29 3.093 5.185 3.691.895.598 2.165 1.352 2.208 1.564.028.141.028 1.875 0 5.202-3.97.85-8.692 1.395-14.167 1.634-5.476.24-11.402.412-17.778.519Z" fill="#D1CECA"/>
        <path d="m68.33 53.898-11.422 9.243c-1.935.047-3.915.088-5.94.122.818-.688 1.475-1.155 1.972-1.402l.44-.202c1.73-.827 10.931-5.596 12.778-6.737l.257-.165 1.915-.859Z" fill="#D9D6D4"/>
        <path d="M75.52 50.653c1.208.545 3.898 2.767 4.979 3.547l.206.144c.895.598 2.165 1.352 2.208 1.564l.011.186c.016.542.013 2.215-.011 5.016-3.97.85-8.692 1.395-14.167 1.634l-3.564.144-1.828.065.808-1.462c2.396-4.24 4.542-7.173 6.435-8.8.372-.32.735-.616 1.089-.888 1.7-.82 3.264-1.407 3.834-1.15Z" fill="#C6C4BF"/>
        <path d="m73.572 51.912 1.681 1.219v.347l-4.142 4.498c-.586-.014-.928-.076-1.026-.186-.147-.164-1.772-1.988-2.385-2.3-.314-.16-2.73.686-7.245 2.536 2.668-1.403 5.196-2.764 5.858-3.203a47.43 47.43 0 0 1 2.52-1.514c.718.035.844.41.379 1.128l1.756 1.428 2.502-2.584.102-1.369Z" fill="#9A9CA3"/>
        <path d="m80.499 54.2.206.144c.895.598 2.165 1.352 2.208 1.564l.011.186.009 1.988c-.003.793-.01 1.803-.02 3.028-3.97.85-8.692 1.395-14.167 1.634l-3.16.127.035-.088c1.099-2.052 4.294-2.39 5.917-2.75l.269-.065.738-.198c2.083-.572 6.39-1.863 6.691-2.611.28-.697-1.906-4.128-3.037-6.128 1.348.841 3.392 2.514 4.3 3.17Z" fill="#B9B6B1"/>
        <path d="M81.823 61.39c-3.53-4.444-5.548-6.797-6.055-7.06-.306-.623-.934-1.32-1.214-1.424-.636.651-4.32 4.029-4.25 4.303.048.183.35.543.906 1.08h.238l3.744 4.072 6.631-.972Z" fill="#9BCBC5"/>
        <path d="M81.576 61.451c-3.53-4.443-5.549-6.796-6.056-7.059-.306-.624-.934-1.32-1.214-1.424-.636.65-4.072 3.967-4.001 4.241.047.183.349.543.905 1.08h.238l3.744 4.072 6.384-.91Z" fill="#74B7AF"/>
        <path d="M74.306 52.968c.24.09.735.612 1.064 1.152l-4.04 4.169h-.12c-.506-.488-.8-.83-.886-1.025l-.02-.055c-.064-.248 2.753-2.995 3.754-3.993Z" fill="#94D3CA"/>
        <path d="m71.334 58.288 4.037-4.166.15.27c.166.087.497.4.993.94l-3.946 4.174-1.12-1.216-.114-.002Z" fill="#68ACA3"/>
        <path d="M74.306 52.968c.102.038.25.154.412.317l-4.172 4.306c-.138-.167-.219-.295-.241-.382-.071-.274 3.365-3.59 4-4.241Z" fill="#56928A"/>
        <path d="M69.534 56.592c-4.815-4.39-7.781-7.06-8.898-8.01-1.674-1.428-5.603-5.037-6.846-6.023-.828-.657-1.59-1.257-2.283-1.8 2.26-3.095 3.488-4.598 3.685-4.508.296.136 4.876 3.436 7.776 5.972 2.9 2.535 8.803 7.9 9.37 8.411.379.341.793.764 1.242 1.269l-4.046 4.69Z" fill="#B1DED9"/>
        <path d="M69.534 56.592c-4.815-4.39-7.781-7.06-8.898-8.01-1.674-1.428-5.603-5.037-6.846-6.023-.828-.657-1.59-1.257-2.283-1.8 2.255-2.871 3.48-4.261 3.678-4.171.295.135 4.875 3.436 7.775 5.97 2.9 2.536 8.803 7.9 9.37 8.412.379.341.793.764 1.242 1.27l-4.038 4.352Z" fill="#79C3BA"/>
        <path d="m55.185 36.588.224.14c.504.337 1.75 1.233 3.195 2.329l-.259.655c-.785 1.925-1.513 3.26-2.186 4.004-.162.18-.32.338-.471.476l-1.332-1.163c-.222-.19-.414-.35-.566-.47l-2.283-1.8 1.177-1.48c1.508-1.867 2.341-2.764 2.5-2.691Z" fill="#4B9A91"/>
        <path d="m61.912 41.666.537.452 1.43 1.25c3.073 2.72 7.939 7.14 8.452 7.602.233.21.48.452.74.724l-4.326 4.18-5.62-5.092a190.962 190.962 0 0 0-2.19-1.944l-.45-.386c.976-1.296 1.452-3.558 1.427-6.786Z" fill="#5DB5AB"/>
        <path d="M70.733 50.716c-2.855-2.574-4.916-4.421-6.182-5.542-1.266-1.12-2.958-2.519-5.074-4.195l-2.623 3.242a153.845 153.845 0 0 1 4.514 3.73c1.387 1.195 3.526 3.122 6.415 5.783l2.95-3.018Z" fill="#A7D4CA"/>
        <path d="M58.214 43.572c3.69 3.117 6.906 5.955 9.645 8.515a.3.3 0 1 1-.41.438c-2.731-2.552-5.939-5.384-9.622-8.494a.3.3 0 0 1 .387-.459Zm1.171-.398 8.348 7.392c.363.328.632.575.806.74a.3.3 0 0 1-.413.436l-1.904-1.726c-1.56-1.393-3.971-3.524-7.233-6.392a.3.3 0 0 1 .396-.45Zm1.088-.405 7.16 6.205c.84.739 1.41 1.25 1.71 1.536a.3.3 0 1 1-.412.435l-1.703-1.528a939.733 939.733 0 0 0-7.147-6.193.3.3 0 0 1 .392-.455Z" fill="#605F61" fill-rule="nonzero"/>
        <path d="M68.534 55.797c-.299.592-.437.963-.414 1.114.033.226.353.895 1.038 1.478.456.39.914.587 1.372.594l.581-.54-2.577-2.646ZM72.628 51.434c.45-.23.722-.333.818-.311.144.033.78.364 1.356.945.576.58.741 1.188.697 1.281-.03.062-.144.192-.342.39l-.66-.656-.146-.14-.337.294-.73-.716.306-.302-.267-.255-.695-.53Z" fill="#8A8585"/>
        <path d="M68.632 55.644c-.221.374-.321.637-.299.788.034.226.42.973 1.104 1.556.457.39.905.618 1.344.686l.43-.384-2.579-2.646ZM72.65 51.42c.45-.23.722-.333.818-.31.143.032.78.363 1.356.944.576.581.74 1.188.696 1.281-.03.062-.143.192-.341.39l-.66-.656-1.175-1.12-.694-.529Z" fill="#EBE4E4"/>
        <path d="m57.837 26.184.122.412c.233.84.387 1.637.463 2.39.163 1.619-.023 6.146-.208 7.058l-.477 1.829c-.214.844-.56 2.207-.917 3.645l-1.5 1.853c-.445.57-.713.895-.804.972-.239.202-3.91 1.742-4.26 1.83l-5.029.959a6.884 6.884 0 0 0-.45.1c-.167.053-.579-.08-1.236-.398l-.128-.292 1.235-.714 1.46-1.462.816-.737 1.05-.972c.842-.791 1.437-1.392 1.784-1.802 1.042-1.228 5.816-11.48 6.076-12.604.257-1.113.872-2.304 2.003-2.067Z" fill="#535D5C"/>
        <path d="m57.837 26.184.122.412c.233.84.387 1.637.463 2.39.163 1.619-.222 6.298-.407 7.21l-.477 1.829c-.214.844-.499 1.986-.855 3.424l-1.3 1.7c-.446.572-.714.896-.805.973-.239.202-3.91 1.743-4.26 1.83l-5.029.959a6.884 6.884 0 0 0-.45.1c-.167.053-.579-.08-1.236-.398l-.128-.292 1.235-.714 1.398-1.24.816-.738 1.05-.972c.842-.791 1.437-1.392 1.784-1.802 1.042-1.228 5.816-11.48 6.076-12.604.257-1.113.872-2.304 2.003-2.067Z" fill="#FCFCFC"/>
        <path d="M49.547 45.011a.3.3 0 1 1-.288.526c-.812-.444-1.563-1.137-2.204-2.028l.435-.402c.641.872 1.328 1.505 2.057 1.904Zm1.337-.41a.3.3 0 1 1-.288.525c-.883-.482-1.815-1.25-2.798-2.3l.436-.413c.944 1.009 1.828 1.738 2.65 2.187Zm1.269-.436a.3.3 0 0 1-.288.527c-.903-.494-2.02-1.34-3.357-2.539l.43-.425c1.29 1.16 2.364 1.972 3.215 2.437Z" fill="#F2F2F2"/>
        <path d="m54.717 43.501 2.239-3.149-.273 1.097-1.3 1.7-.536.672a3.058 3.058 0 0 1-.269.3c-.239.203-3.91 1.744-4.26 1.83l-5.325 1.022c-.077.017-.13.03-.155.038-.166.053-.578-.08-1.235-.398l-.128-.292.31-.185c.292.067.571.445.849.452.344.008 5.32-.96 5.809-1.193l.29-.128c.634-.267 2.176-.83 3.133-1.252-.004-.11-2.934-1.195-4.424-2.796-.097-.103.205-.397.267-.308.818 1.182 3.96 2.598 4.686 2.95.107.052.32-.356.322-.36Z" fill="#C2BBBD"/>
        <path d="m45.217 45.155 1.404 1.382 1.775-.529 3.111 3.814.34 1.531-1.935.734L48 49.295l-2.46-2.433.008-.004-.009.003-.97-.712.354-.734.294-.26Z" fill="#7B5A5A"/>
        <path d="m57.837 26.184.081.256-.213.222-.773.858-.014.494c-.01.373-.017.728-.02 1.064l-.002.868.363-.397.151-.152.056-.045c.147-.083.464-.097.974-.046.012.124.016.259.019.402l-.39-.032c-.219-.012-.356-.004-.407.025l-.079.07-.37.406-.307.353.01.331.04.72c.016.22.036.42.059.603l.037.258.048.271.06.279.08.308.194-.164c.172-.146.472-.227.911-.254l-.026.406c-.326.022-.536.077-.625.153l-.334.279.073.235c.054.165.112.333.175.503l.2.516.289.68-.057.4a3.869 3.869 0 0 1-.025.142l-.038.15-.294-.644-.246-.578-.205-.53-.204-.592-1.696 1.42.067.522.123.791.176.949.126.612.032.128 1.957-1.456-.162.616-1.665 1.244.112.255c.216.457.522.902.858 1.269l-.113.453a5.46 5.46 0 0 1-1.13-1.598l-.057-.135-1.007.77-.347.281c-.048.04-.092.078-.13.112l-.23.207-.054.044.261 1.055.323 1.209.232.838a3.163 3.163 0 0 1-.384.102l-.367-1.322-.191-.727-.222-.887-.138.1-.494.334-.602.381-.848.509-.012.391a18.547 18.547 0 0 1-.647-.472l.273-.155.07-.909c.011-.13.024-.265.038-.403l.133-1.202.077-.634-.645.524.471-.897.252-.209.054-.39.577-1.157-.179 1.173 1.088-.9.005-.344.03-.623.071-.799-.717.883.741-1.545.074-.088.014-.097.684-1.463-.063.27-.131.676 1.016-1.222-.002-.562c.004-.35.016-.701.036-1.054l.345-.782.151-.352.025-.265c-.064.551-.108 1.1-.133 1.645l-.024.892 1.372-1.612-.004-.347c-.004-.3-.004-.62 0-.96l.018-1.097-1.017 1.177.186-.471a4.09 4.09 0 0 0 .15-.447l.024-.105.677-.76.029-.742c.123-.14.26-.258.413-.342l-.026.626.488-.514c.095-.098.18-.183.254-.252l.143.022Zm-4.825 11.172-1.17.968-.17 1.38-.082.753-.102 1.137.254-.15.645-.397a19.7 19.7 0 0 0 .765-.506l.288-.211-.221-1.022a10.953 10.953 0 0 1-.196-1.622l-.011-.33Zm1.956-1.628-1.564 1.302.001.049c.005.581.044 1.134.119 1.648l.144.778.116.539.413-.353c.178-.144.398-.316.664-.518l.651-.491-.08-.304-.22-1.09-.085-.486-.124-.803-.035-.271Zm-.222-2.636-1.156 1.4-.017.121c-.058.43-.101.853-.13 1.265l-.031.624 1.494-1.246-.006-.064c-.061-.539-.107-1.08-.136-1.625l-.018-.475Zm1.774-2.114-1.388 1.648.002.116c.011.54.04 1.076.085 1.61l.057.594 1.624-1.36-.129-.504a8.546 8.546 0 0 1-.213-1.458l-.038-.646Z" fill="#CAC7C8"/>
        <path d="m57.837 26.184.122.412c.233.84.387 1.637.463 2.39.163 1.619-.222 6.298-.407 7.21l-.477 1.829-.758 3.034-.156-.363.773-3.691c.19-.946.315-1.606.372-1.98l.031-.228c.082-.783.354-3.273.406-3.744.048-.432-.207-2.563-.22-3.286l.004-.16c.026-.32-.174-.806-.602-1.454.144-.008.291-.002.45.03Z" fill="#99D0CA"/>
        <path d="m55.786 28.415.024.096-.044.381c-1.056 2.812-2.147 5.3-2.538 6.022l-.405.71c-.362.65-.8 1.483-1.316 2.502l-.317.247.642-1.268c1.627-3.269 3.592-7.589 3.954-8.69Z" fill="#474747"/>
        <path d="M41.593 47.47a.2.2 0 0 1 .233.315l-.064.048-3.513 1.64a.2.2 0 0 1-.233-.315l.063-.047 3.514-1.64Z" fill="#AA5E60" fill-rule="nonzero"/>
        <path d="m52.663 56.51-.143.034-1.1 2.004.216 1.23 3.207-.801-.087-1.018-2.093-1.45Zm-.023.226 1.962 1.323.115.839-3.01.764-.102-1.085 1.035-1.841Z" fill="#343434" fill-rule="nonzero"/>
        <path fill="#3B3B3B" fill-rule="nonzero" d="m54.252 58.242.068.45-2.314.602-.067-.45z"/>
        <path d="M52.149 52.13c-.114-1.18-.328-2.01-.642-2.492-.47-.723-3.004-4.07-3.648-4.712-.43-.428-.713-.739-.85-.932v-.336c-.412-.497-.65-.746-.712-.747h-.715l-.415.42.21.17-.42.493-.274-.237-.555.65c-.14.15-.14.324 0 .52.14.195.282.383.427.564l.384.158.25-.067c.742.775 1.215 1.287 1.417 1.535.305.373 2.166 2.52 2.289 2.791.123.272.721.933.8 1.304.051.247.1.554.145.918.05.336.154.494.309.476.155-.018.821-.176 2-.476Z" fill="#AE303B"/>
        <path d="m52.11 51.801.039.33-1.723.421c-.138.03-.23.049-.277.054-.155.018-.258-.14-.31-.476l-.04-.308.171.165c.07.071.151.158.245.261l1.896-.447Z" fill="#851B24"/>
        <path d="m46.651 43.701.094.005c.056.006.163.108.265.21l-.001.078c.091.129.247.31.469.543l.38.39c.645.642 3.178 3.988 3.65 4.71.129.199.24.456.336.773l.004.08c-.051.304-.288.668-.34.537-.054-.13-.86.026-1.203-.183-.293-.178-.773-.567-1-.876l-.09-.146c-.082-.172-.62-.796-1.134-1.376l-1.266-1.42-1.871-2.01 1.404-1.31.303-.005Z" fill="#D86F6D"/>
        <path d="M46.297 42.911c.048 0 .197.146.448.436a1.77 1.77 0 0 0-.634-.025c-.147.028-1.295 1.135-1.43 1.272-.135.136-.174.517-.155.622a.668.668 0 0 0 .12.213l.113.146-.204-.084-.215-.277-.212-.288c-.112-.156-.134-.298-.067-.426l.067-.093.555-.65.274.237.42-.493-.21-.17.415-.42h.715Z" fill="#E87D81"/>
        <path d="M48.204 47.711c1.036-1.1 3.045-.763 4.417.376.851.707 1.114 1.93.851 3.615a.5.5 0 0 1-.988-.154c.214-1.374.025-2.254-.502-2.692-1.016-.843-2.46-1.086-3.05-.46-.63.67-.645 1.006-.241 1.658.23.371.25.476.81.751.247.122.301.758.334 1.062.033.303-.16.177-.408.055-.717-.352-1.25-.798-1.586-1.341-.632-1.02-.594-1.853.363-2.87Z" fill="#FFD679" fill-rule="nonzero"/>
        <path d="m52.568 50.685.036.107c.104.265.396.548.878.84l-.01.07a.498.498 0 0 1-.16.294l.16.091c-.423-.234-.745-.472-.964-.718l-.024.179c.049-.313.077-.6.084-.863Zm-2.776.819-.146.03a8.06 8.06 0 0 1-.706.117 4.061 4.061 0 0 1-.498-.37c.315.003.737-.053 1.263-.168.04.119.067.258.087.39Zm2.733-1.574 1.041.822a7.219 7.219 0 0 1-.034.485l-.962-.765a3.663 3.663 0 0 0-.045-.542Zm-3.593.612.112-.01c.099.083.236.165.456.273l.047.034-.016.003c-.304.108-.771.133-1.458.059a2.655 2.655 0 0 1-.232-.32l-.055-.094c.466.054.848.072 1.146.055Zm-.427-.836.004.01c.045.105.106.216.182.338l.064.105.145.018c-.548-.053-1.006-.216-1.37-.49l-.088-.075a1.675 1.675 0 0 1-.001-.569c.256.33.609.55 1.064.663Zm4.826-.616h-1.047l1.198.517c.03.148.053.302.067.464l-1.101-.475c-.099-.32-.256-.565-.466-.74a3.624 3.624 0 0 0-.217-.167h1.37c.076.125.14.259.196.4Zm-5.159-.723c.089.22.2.404.354.559a.822.822 0 0 0-.108.43c-.27-.19-.473-.48-.617-.84a3.248 3.248 0 0 1-.072-.198c.082-.135.183-.273.302-.413.032.147.078.303.141.462Zm.795-1.164.047-.094c-.183.324-.235.705-.152 1.148l.04.171-.081.09c-.09.103-.165.199-.224.289l.057.156c-.212-.545-.279-1.041-.196-1.482.158-.116.328-.208.509-.278Zm3.654.884c.054.045.107.093.157.143l-1.4.219a3.547 3.547 0 0 0-.82-.32h.298l1.568-.197c.067.05.132.102.197.155Zm-2.223-1.014-.247.261a5.107 5.107 0 0 0-.435.528 2.71 2.71 0 0 0-.138.212 1.216 1.216 0 0 0-.518.21c.042-.192.156-.41.33-.654.094-.132.204-.269.329-.412l.163-.18c.17-.001.342.01.516.035Zm.994.275-.99.745a2.464 2.464 0 0 0-.605-.046l1.14-.858c.152.044.304.097.455.159Z" fill="#545353" fill-rule="nonzero"/>
        <path d="M10.868 60.72c-.53.447-.819.874-.868 1.28-.073.61 0 .988 0 1.624 0 .635.575 2.499 3.698 3.917 3.124 1.418 6.149 2.99 7.076 3.293.926.303 6.44 1.265 9.283 1.215 2.843-.049 6.95 0 7.94 0 .991 0 2.433-.708 2.903-.715.47-.007 5.042-.284 6.815-.343 1.772-.059 6.45-.056 8.889.343 2.44.4 3.537.666 5.396.666h15.984c1.154 0 4.917-.078 5.51-2.964.114-.562-.017-.77-.392-.625l-.996-.241H61.8c-13.09-.354-19.732-.563-19.922-.63-.19-.065-1.12-.456-2.789-1.172-7.213-.46-10.96-.746-11.241-.857-.422-.166-3.613-2.809-4.05-3.095-.436-.286-4.557-.538-6.059-.663-1-.083-3.291-.427-6.871-1.033Z" fill="#A9D5D5"/>
        <path d="m13.257 62.922 1.158.203c3.849.617 7.49.706 8.806 1.44l.364.21c1.29.774 2.375 1.773-1.55 1.628l-.382-.017c-2.71-.14-6.322-.447-10.836-.923-.577-.707-.774-1.34-.81-1.712l-.039-1.1A4.598 4.598 0 0 1 10 62c.027-.225.128-.456.303-.694.226.746 1.21 1.285 2.954 1.616Z" fill="#95CBCB"/>
        <path d="M83.31 68.366c.212.005.274.228.185.67C82.9 71.922 79.138 72 77.985 72H62c-1.86 0-2.957-.267-5.396-.666-2.44-.399-7.117-.402-8.89-.343-1.772.06-6.344.336-6.814.343-.47.007-1.912.715-2.903.715-.99 0-5.097-.049-7.94 0-2.843.05-8.357-.912-9.283-1.215-.711-.232-2.656-1.211-4.934-2.295 2.02.434 4.571.882 7.651 1.343 8.887 1.33 13.84.924 16.02.55 2.178-.372 5.139-.27 7.514-.503 2.376-.233 12.257-.315 13.836.18 1.579.494 6.033.823 10.497.738 4.463-.086 8.537-.019 9.796-.738.684-.392 1.386-.971 2.104-1.739Z" fill="#6BB7B0"/>
        <path d="m58.52 70.309 1.411.527c.878.322 1.7.58 2.906.757l1.208.186c.42.068.857.14 1.31.219L62 72c-1.86 0-2.957-.267-5.396-.666-2.287-.374-6.541-.4-8.524-.353l-1.108.04c-1.816.08-4.82.257-5.795.303 1.035-.472 2.347-.81 3.939-1.015 3.238-.419 11.843-.57 13.404 0Z" fill="#44A098"/>
        <path d="M84 64c.047 1.573.026 2.524-.063 2.851a.928.928 0 0 1-.626.664c-.057.11-.053.282.012.519.097.355.001.388-.066.39-7.924.36-13.233.516-15.82.458-3.912-.087-19.173-.708-20.692-.732a284.305 284.305 0 0 0-5.283 0c-1.013-.64-1.608-.98-1.784-1.016-.264-.056-10.447-.284-10.57-.283-.083.001-1.743-1.328-4.982-3.986 2.395.143 4.323.181 5.784.115 2.19-.1 19.03-.457 22.002-.466 2.973-.008 14.194-.75 19.77-1.029a80.159 80.159 0 0 0 11.169-1.357c.386.033.65.316.792.85.143.535.262 1.542.357 3.022Z" fill="#9A9A9B"/>
        <path d="M84 64c.047 1.573.026 2.524-.063 2.851a.928.928 0 0 1-.626.664c-.057.11-.053.282.012.519.097.355.001.388-.066.39-7.924.36-13.233.516-15.82.458-3.912-.087-19.173-.708-20.692-.732a284.305 284.305 0 0 0-5.283 0c-1.013-.64-1.608-.98-1.784-1.016-.264-.056-10.447-.284-10.57-.283-.083.001-1.56-1.233-4.43-3.703 2.395.143 4.323.181 5.783.115 2.191-.1 19.03-.457 22.003-.465 2.973-.009 14.193-.75 19.77-1.03 3.717-.186 7.284-.695 10.7-1.526.33-.043.567.202.71.737.142.534.26 1.54.356 3.021Z" fill="#E8E7EA"/>
        <path d="M83.643 60.979c.143.534.262 1.54.357 3.021l.023 1.148c.008.897-.021 1.465-.086 1.703a.928.928 0 0 1-.626.664c-.042.082-.05.2-.025.353l.037.166c.084.304.025.372-.036.387l-3.695.163c-4.033.167-7.208.267-9.507.299l1.496-.222c.783-.12 1.62-.251 2.507-.396 1.652-1.663 1.938-1.936 3.127-3.67.793-1.155 1.162-2.161 1.107-3.018 1.445-.253 2.48-.469 3.102-.65.623-.18 1.104-.403 1.442-.668l.068-.017c.33-.043.567.202.71.737Zm-12.517.847.68-.035-1.027.559c-1.972 1.05-3.443 1.7-4.412 1.95-1.58.405-3.145 3.133-3.481 4.441l-16.14-.59-1.308-.011-.409-.001c3.116-.444 7.542-1.026 8.75-1.668 2.9-1.54.516-2.927-.622-3.686l1.415-.048c4.113-.168 11.753-.655 16.554-.911Z" fill="#DCDBDD"/>
        <path d="M83.937 66.851a.928.928 0 0 1-.626.664c-1.101.175-4.175.36-5.887.441l-1.445.054c-1.684.047-5.552.057-7.604.041l-12.696-.44c-1.688-.047-13.53-.467-15.549-.524l-.394-.214c6.97.098 31.056 1.076 33.633 1.01 2.577-.067 8.553-.406 9.772-.67.48-.103.66-.617.872-1.078l-.03.437c-.013.12-.028.212-.046.28Z" fill="#F5F4F6"/>
        <path d="m39.732 66.855 1.846 1.075c2.338-.09 5.05-.08 8.135.026l4.985.21 7.857.176c1.529.07 8.189-.006 13.463-.215 3.876-.194 6.306-.392 7.29-.594-.04.068-.048.183-.022.336l.037.165c.084.304.025.372-.036.387l-3.266.145c-6.15.258-10.366.365-12.583.316l-7.173-.238c-5.715-.21-12.53-.478-13.52-.494l-2.72-.01c-.743 0-1.598.004-2.563.01l-.799-.495c-.534-.321-.862-.495-.985-.521l-.385-.023c-1.326-.054-5.727-.16-8.29-.219l8.73-.037Z" fill="#8D9697"/>
        <path d="m54.787 62.729-8.013.697-.853.058c-2.596.105-18.687.367-18.761.578-.05.146.676 1.077 2.181 2.793h-.067l-.434-.191-.97-.795c-.736-.616-1.8-1.523-3.193-2.721 2.13.127 3.89.171 5.28.133l3.248-.101c3.66-.095 9.936-.23 14.423-.312l5.358-.077a88.66 88.66 0 0 0 1.801-.062Zm28.41-2.452c-1.015.664-2.747 1.154-5.201 1.475l-.58.071c-2.841.328-8.28.52-16.318.577l10.502-.6c.219-.01.43-.021.634-.032 3.717-.186 7.284-.695 10.7-1.526a.48.48 0 0 1 .263.035Z" fill="#F8F8F8"/>
        <path d="M41.462 68.15c.288.055 3.533 1.953 3.707 2.027.173.075 3.89.01 5.718 0 1.828-.01 6.788.378 7.038.342.167-.024 1.281-.635 3.342-1.833-7.699-.306-12.416-.484-14.152-.536-2.604-.077-5.941-.054-5.653 0Z" fill="#D2D2D8"/>
        <path d="M50.745 68.883c2.777.032 5.727.284 8.852.758l-.78.438c-.515.282-.812.428-.892.44h-.167c-.922-.028-5.202-.351-6.871-.342l-4.467.036c-.696 0-1.19-.01-1.251-.036l-.535-.297c1.507-.696 3.546-1.027 6.11-.997Z" fill="#B3BBC0"/>
        <path d="m41.891 68.116 3.053 1.769 1.347-.035c2.803-.065 4.86-.053 6.173.035l.738.055c2.138.172 4.578.465 4.788.312l.679-.419c.448-.268 1.112-.658 1.991-1.17l.607.023-1.655.95c-1.01.572-1.572.866-1.687.883h-.167c-.922-.028-5.202-.351-6.871-.342l-4.467.036c-.696 0-1.19-.01-1.251-.036l-2.755-1.547c-.386-.213-.706-.381-.865-.449l-.087-.03c-.075-.015.094-.027.43-.035Z" fill="#848C91"/>
    </g>
</svg>
