<svg width="96" height="96" xmlns="http://www.w3.org/2000/svg">
    <defs>
        <path id="a" d="M0 0h96v96H0z"/>
    </defs>
    <g fill="none" fill-rule="evenodd">
        <path d="M10.971 60.573c.474-2.997 2-4.693 4.58-5.088 3.87-.592 7.704.651 12.98 1.358 5.275.707 12.787.272 20.365-1.423 7.578-1.695 11.88-1.378 13.835-.055s3.739 3.588 4.205 7.126c.467 3.538 7.748.94 10.383.407 2.636-.531 6.684-3.185 6.327-4.677-.238-.995-1.47-6.076-3.693-15.244-.35-2.69-.598-4.381-.74-5.074-.216-1.039-.245-3.67.914-3.906 1.16-.237 2.318-.02 2.296 1.012-.021 1.032-1.393 5.008-1.349 6.083.045 1.075 1.006 5.603 1.17 6.165.27.61 1.214 3.309 1.384 4.983.28.686.786 5.044.604 6.32-.183 1.275-3.309 8.006-7.823 7.969-4.514-.038-21.317.306-25.126.229-3.81-.078-30.148-.383-33.871-1.891-2.482-1.005-4.63-2.437-6.44-4.294ZM80.74 37.718c.505-1.248.706-2.094.604-2.537-.153-.665-.823-.529-.908 0-.056.353.045 1.198.304 2.537Z" fill="#575B60"/>
        <path d="M83.66 58.304a.792.792 0 0 0-.014-.083c-.238-.995-1.47-6.076-3.693-15.244-.35-2.69-.598-4.381-.74-5.074-.216-1.039-.245-3.67.914-3.906 1.16-.237 2.318-.02 2.296 1.012-.021 1.032-1.393 5.008-1.349 6.083.045 1.075 1.006 5.603 1.17 6.165.27.61 1.214 3.309 1.384 4.983.226.554.6 3.51.64 5.296-.173.26-.377.52-.607.768ZM80.74 37.718c.505-1.248.706-2.094.604-2.537-.153-.665-.823-.529-.908 0-.056.353.045 1.198.304 2.537Z" fill="#3F454D"/>
        <path d="M62.731 55.365c1.955 1.323 3.739 3.588 4.205 7.126.159 1.203 1.104 1.696 2.387 1.803-.268.326-.587.51-.961.514-2.301.024-11.75 2.152-10.183-1.239 1.568-3.39-.313-6.405-6.127-5.928-4.162.342-12.717.542-13.124-.69a74.182 74.182 0 0 0 9.968-1.531c7.578-1.695 11.88-1.378 13.835-.055Z" fill="#484D53"/>
        <path d="M11.35 59.018c.707-2.035 2.107-3.213 4.201-3.533 3.87-.592 7.704.651 12.98 1.358 5.275.707 12.787.272 20.365-1.423 7.578-1.695 11.88-1.378 13.835-.055 1.453.983 2.811 2.487 3.605 4.647-.369 1.111-.765 1.23-1.188.358-.789-1.622-2.632-4.576-5.024-4.87-2.392-.294-8.544.65-13.92 1.402-5.377.753-12.6 1.146-16.308.891-3.707-.255-7.506-1.38-12.134-1.611-2.829-.141-4.966.804-6.411 2.836Z" fill="#454C55"/>
        <path d="M14.937 58.753c1.846.835 3.133 1.465 11.199 2.72 8.065 1.255 11.944 1.7 4.14 3.516-7.805 1.816-9.538-.656-15.339-2.184-.992-.261-1.81-.548-2.472-.86a18.526 18.526 0 0 1-1.494-1.372c.287-1.812.958-3.15 2.015-4.01.299 1.008.95 1.738 1.951 2.19ZM66.982 62.593c-.295-2.016-.829-3.224-1.603-3.626-1.162-.602-6.335-.023-10.393 1.31a365.519 365.519 0 0 0-8.402 2.88l5.021 2.93 15.377-3.494Z" fill="#3D4147"/>
        <path d="M48.219 63.024c3.293-1.002 5.75-1.8 7.371-2.394 2.432-.89 9.23-2.258 10.243-.843s1.305 3.916 1.016 4.364c-.288.449-13.766 2.258-15.108 1.866-.895-.26-2.07-1.258-3.522-2.993Z" fill="#F5F5F5"/>
        <path d="M49.585 63.528c5.668-1.856 9.167-2.923 10.497-3.199 1.994-.414 4.058-.463 4.999 0 .627.308 1.024 1.808 1.192 4.5-8.353.964-13.151 1.284-14.396.96-1.245-.324-2.01-1.077-2.292-2.26Z" fill="#9098A9"/>
        <path d="M65.08 60.328c.44.216.765 1.014.98 2.394h-.449c-.175-1.036-.434-1.69-.777-1.96-.515-.406-5.369.1-7.147.604-1.083.306-3.682 1.298-7.795 2.974a3.232 3.232 0 0 1-.307-.812c5.668-1.856 9.167-2.923 10.497-3.199 1.994-.414 4.058-.463 4.999 0Z" fill="#4C5463"/>
        <path d="M55.888 63.11c-.311.114-.53.1-.644-.211-.114-.311.157-.519.468-.633 3.476-1.273 6.015-1.552 8.534-1.48.331.01.68.045.67.376-.009.331-.028.37-.36.361-2.348-.067-5.324.362-8.668 1.587Z" fill="#E7E7E7" fill-rule="nonzero"/>
        <path d="M86 68c-.754 2.666-3.42 4-8 4H68c-1.017 0-4.739-.266-5.462-.925-1.06-.003-3.392-.052-4.353-.587-1.04.236-3.765 1.044-4.21.95-.444-.094-.792-.233-1.135 0-.342.233-2.537.075-3.143.167-.38.204-1.672.391-3.697.395-2.025.004-12.255 0-13.995 0-1.74 0-5.733-.58-10.015-1.714-4.282-1.134-10.017-2.713-11.157-4.242-.759-1.02-1.037-2.368-.833-4.044.33-1.263.66-1.868.99-1.815.495.08 1.325.653 3.955 1.28 2.63.626 8.006 2.555 10.88 2.44 2.875-.115 7.127-.9 8.472-.762 1.345.139 4.257 1.557 5.548 1.086 1.29-.471 2.725-2.11 6.142-2.041 2.278.046 4.796.76 7.554 2.139 5.324-2.417 9.49-3.13 12.498-2.139 1.158.455 15.425-2.607 16.665-3.527 1.24-.92 1.602-1.918 2.089-1.233.215.304.601 1.285.886 4.301.096 1.013.203 3.104.321 6.271Z" fill="#484D54"/>
        <path d="M85.939 68.2C85.109 70.734 82.463 72 78 72H68c-1.017 0-4.739-.266-5.462-.925-1.06-.003-3.392-.052-4.353-.587-1.04.236-3.765 1.044-4.21.95-.444-.094-.792-.233-1.135 0-.342.233-2.537.075-3.143.167-.38.204-1.672.391-3.697.395-2.025.004-12.255 0-13.995 0-1.74 0-5.733-.58-10.015-1.714a305.6 305.6 0 0 1-1.087-.29c3.269.628 8.907 1.463 10.476 1.455 2.01-.011 13.127.268 13.433.187.204-.053.772-.374 1.705-.962-.22.43-.271.688-.154.775.176.13 2.595-.117 2.98-.18.257-.042.699-.343 1.325-.901.055.401.172.504.353.306.18-.197.537-.885 1.07-2.065h.281c-.383 1.044-.6 1.732-.65 2.065-.074.5.851.426 1.35.263.334-.108.79-.522 1.367-1.242l-.41.98c.525-.26.955-.496 1.288-.711.333-.216 1.102-1.609 2.307-4.18l.53-.17c-1.222 2.328-1.892 3.717-2.011 4.166-.179.673.99.378 1.481.184.328-.13.731-.69 1.211-1.681-.265.817-.404 1.316-.416 1.497-.019.27.527.072.868 0 .228-.048.965-1.736 2.213-5.062h.282c-1.147 2.838-1.76 4.444-1.839 4.82-.117.561 1.928.995 2.211.835.19-.107.705-1.244 1.548-3.412-.608 2.174-.842 3.31-.702 3.407.801.07 1.16-.084 1.293-.588.089-.336.297-2.093.624-5.272h-.972l1.273-.324c-.335 3.396-.517 5.317-.546 5.764-.043.67.422 1.01 2.427 1.212 2.005.202 3.802.307 8.076.289 4.274-.018 7.044-.528 8.476-1.098.722-.288 1.485-1.005 2.288-2.152Z" fill="#2B323B"/>
        <path d="M66.039 62.188c.099.039.294.052.568.043a.11.11 0 0 1-.001.02c.054.402.025.603-.085.603-.166 0-2.214-.538-4.67-.35-2.455.188-6.613 1.885-7.707 2.307-1.095.422-7.356 2.4-12.846 2.795-3.659.263-7.125.135-10.398-.384 5.873-.011 9.559-.2 11.059-.567 1.49-.364 6.408-1.705 10.406-2.883.386.17.779.356 1.176.555 5.324-2.417 9.49-3.13 12.498-2.139Z" fill="#CBCDD0"/>
        <path d="M10.683 60.325c.103-.11.205-.156.307-.14.495.08 1.325.653 3.955 1.28 2.63.626 8.006 2.555 10.88 2.44 2.875-.115 7.127-.9 8.472-.762 1.345.139 4.257 1.557 5.548 1.086 1.29-.471 2.725-2.11 6.142-2.041 2.27.046 4.777.754 7.523 2.123-.365.16-.707.311-1.026.454-.387.173-5.477 2.044-12.086 2.66-6.317.589-14.115-.062-16.598-.531-5.08-.96-12.815-3.352-13.142-3.704-.255-.274-.336-2.003.025-2.865Z" fill="#4F5356"/>
        <path d="M10.54 60.814c.243 1.364 1.064 2.57 3.116 3.13 2.725.745 4.999 1.062 10.073 1.889 5.074.827 8.937.738 10.512.79 1.576.051 7.008-.535 9.303-1.147 1.296-.346 3.361-.284 6.198.186a52.295 52.295 0 0 1-9.344 1.763c-6.317.589-14.115-.062-16.598-.531-5.08-.96-12.815-3.352-13.142-3.704-.202-.216-.294-1.34-.147-2.227Z" fill="#4A5960"/>
        <path d="M10.946 62.922c.299.31 3.987 1.485 5.111 1.776 1.125.29 6.722 2.014 11.15 2.37 2.728.218 6.48.44 8.916.58-5.191.09-10.381-.387-12.323-.754-5.08-.96-12.815-3.352-13.142-3.704-.239-.256-.325-1.786-.04-2.688.035 1.423.144 2.23.328 2.42Z" fill="#202D36"/>
        <path d="M14.171 61.268c.24.065.497.13.774.196 2.63.627 8.006 2.556 10.88 2.44 2.875-.114 7.127-.9 8.472-.76 1.345.138 4.257 1.556 5.548 1.085 1.29-.471 2.725-2.11 6.142-2.041 2.265.046 4.767.75 7.506 2.115-.29.135-.566.262-.828.38-1.803-.938-3.05-1.232-4.105-1.544-1.879-.554-3.93-.498-4.975-.18-1.046.317-2.37 1.06-3.116 1.45-.745.391-1.524.332-3.712-.321-2.188-.654-2.036-.832-4.352-.64-2.317.192-6.221.87-7.815.648-1.986-.277-5.075-1.262-10.419-2.828Z" fill="#DFDFDF"/>
        <path d="M76.694 68.257c-1.814.168-8.4.152-8.99-.012-.59-.164-.952-1.942-.884-2.808.067-.865-.38-4.391-.608-5.252-.228-.86-3.283-5.822-7.085-5.591-3.802.23-18.225 2.258-21.412 2.503-3.187.245-8.403.137-13.038-.856-4.635-.994-8.601-.818-9.691-.542-.727.185-1.25.367-1.569.548.847-.558 2.068-.941 3.663-1.148 2.391-.312 8.44-1.652 8.65-1.714.21-.062 1.39-.432 1.635-.37.245.063 1.617-.859 1.997-1.019.38-.16 1.263-.826 1.53-.468.267.358 1.175-.044 1.36-.163.184-.118 1.029-.931 1.607-.349.577.583 1.347.214 1.558-.273.212-.487.924-.901 1.195-.936.272-.035.823-.675 1.652-.59.83.086 1.366-.633 1.832-.753.467-.12 1.296.22 1.671 0s1.169-.37 1.632-.837c.463-.468.681-1.295 1.55-1.256.87.039 1.083-.636 1.555-.755.471-.12 1.496-.904 1.76-1.063.265-.158 1.292-1.138 1.846-1.1.555.04 1.02-.34 1.023-.783.004-.443-.032-1.536.745-1.44.778.095 1.208.043 1.928-.773.72-.815.595-2.105.873-2.354.278-.25 1.04-.17 1.35-.4.31-.23 2.142-2.354 2.242-2.77.1-.416-.338-1.333 0-1.6.339-.268.932-.721 1.316-.592.504.06 1.529-.301 1.946-.165.475-.334.6-.643 1-.622.399.02 1.834.932 2.654 1.826 1.303.146 3.48.82 5.741 1.5 2.262.68 4.663 1.765 5.745 1.698 1.083-.066 1.875-.394 2.156-.223.281.172 1.164 1.756 1.239 2.84.075 1.084.734 2.801.637 3.075-.098.273-.104 1.044 0 1.485.103.44.545 2.105.718 2.478.173.373 1.043 2.617 1.342 3.51.2.595.374 1.404.524 2.427.26.732.41 1.575.453 2.529.064 1.43.228 3.255.336 3.418.107.163.736.143.688 1.591-.048 1.448-.173 3.735 0 4.802.173 1.067-.037 1.998-1.205 2.341-1.168.343-5.053.84-6.867 1.006Z" fill="#EDEDED"/>
        <path d="M81.696 47.453c-.205 1.667-1.014 3.05-2.425 4.149-2.118 1.648-6.53 2.67-8.407 3.988a230.906 230.906 0 0 1-4.322 2.952c2.88-2.667 4.863-4.338 5.948-5.014 1.629-1.013 5.243-3.256 6.138-3.785.597-.353 1.62-1.116 3.068-2.29Z" fill="#FAFAFA"/>
        <path d="M83.37 53.087c-.35 1.796-1.06 2.913-2.126 3.351-1.6.656-4.328.907-6.774 1.557-1.63.433-3.894 1.336-6.79 2.71 2.196-1.983 3.683-3.13 4.46-3.438 1.167-.464 7.589-2.74 8.194-2.955.403-.144 1.415-.552 3.036-1.225Z" fill="#F7F7F7"/>
        <path d="M71.454 68.375c4.66-.321 7.725-.677 9.192-1.067 2.29-.609 3.347-.88 3.303-3.127-.044-2.247.161-4.2-.378-4.349-.54-.15-5.505.475-9.362 2.01a581.443 581.443 0 0 1-7.25 2.834c5.496-2.812 9.219-4.427 11.167-4.844 2.068-.442 4.831-1.079 6.312-1.048.181.185.354.538.328 1.324-.048 1.448-.173 3.735 0 4.802.173 1.067-.037 1.998-1.205 2.341-1.168.343-5.053.84-6.867 1.006-.952.088-3.217.126-5.24.118Z" fill="#D8D6D6"/>
        <path d="M66.793 64.471c-.102-1.392-.406-3.625-.581-4.286-.228-.86-3.283-5.822-7.085-5.591-3.802.23-18.225 2.258-21.412 2.503-1.869.143-4.436.166-7.174-.04 3.918-.128 7.532-.488 10.843-1.08 7.231-1.296 15.324-3.844 19.878-2.954 4.554.891 5.165 2.721 6.489 6.137.882 2.278 2.567 3.154 5.054 2.63l-6.012 2.681Z" fill="#DCDCDC"/>
        <path d="M70.476 37.17c2.557-1.031 5.2-.13 6.197-.192.521-.032.975-.124 1.337-.193.488.304.876.655 1.199 1.047 1.17 1.421-3.314 18.674-11.355 15.37-8.041-3.306-11.943-1.156-15.827-1.731-3.884-.575 4.179-8.225 8.175-11.385 3.995-3.159 5.48-1.471 10.274-2.916Z" fill="#E1E0E0"/>
        <path d="M32.532 52.07c-.26-.825-.116-1.279.435-1.36.55-.08 1.065.278 1.542 1.077.748-.18 1.157-.276 1.225-.292.103-.022-.285-1.05 0-1.433.285-.384 1.071-.425 1.118-.403.047.022.201.346 0 .597-.2.25-.77 1.013-.369 1.042.4.03 2.667-.838 2.79-.957.123-.119.14-1.51.592-1.752.45-.242 1.958-.273 1.39.04-.568.314-.93.405-1.168 1.433.52-.095 3.366-1.039 3.446-1.154.08-.116-.376-1.56.535-2.305.911-.745 1.475-.54 1.413-.369-.062.172-.715.612-.93 1.12-.214.51-.15 1.103.049 1.157.199.054 2.93-1.41 3.014-1.548.085-.137-.07-1.517.333-2.15.401-.634 1.024-1.208 1.035-1.057.012.15-.276.754-.36 1.31-.083.556-.245 1.45 0 1.382.246-.068 3.096-1.655 3.12-1.916.025-.261-.698-1-.704-2.32-.006-1.322 1.684-1.248 1.753-1.131.07.117-.609.483-.762.743-.153.26-.034 1.607.35 2.143-.082.264-.294.546-.636.846l-4.492 2.7L44.068 49l-3.98 1.341-3.91 1.248-2.407.575-1.24-.093Z" fill="#E2E2E2"/>
        <path d="M50.194 45.97c.21 3.294.954 7.302 1.592 9.42l-.594.073c-.65-2.177-1.344-5.93-1.576-9.137a37.286 37.286 0 0 1-3.816 2.036l-.028.012a34.55 34.55 0 0 0 1.657 4.711 39.058 39.058 0 0 0 1.273 2.69l-.634.08a39.83 39.83 0 0 1-1.19-2.532 35.242 35.242 0 0 1-1.66-4.701 60.666 60.666 0 0 1-4.227 1.63c.31.247.633.575.97.98.548.658 1.122 1.5 1.753 2.543.212.35.868 1.507 1.415 2.453l-.646.081c-.53-.918-1.106-1.932-1.283-2.223-.616-1.02-1.174-1.84-1.7-2.47a6.217 6.217 0 0 0-1.187-1.131 79.566 79.566 0 0 1-3.581 1.118c1.562 1.297 3.43 3.278 4.524 5.107l-.656.079c-1.16-1.84-3.1-3.823-4.563-4.992-1.226.333-2.231.56-2.821.628l-.015.001c1.62 1.366 3.127 3.156 4.084 4.697-.216.01-.45.018-.697.023-1.03-1.574-2.615-3.378-4.256-4.65-.399.012-4.233.822-4.492.58-.26-.243.788-.546 1.91-.667 1.123-.121 2.615-.49 3.397-.58 1.902-.22 8.434-2.194 12.403-4.013 3.196-1.464 6.469-3.59 9.819-6.376a.3.3 0 1 1 .383.462l-.169.14c-.327 2.151-.526 4.24-.526 5.833 0 1.893.07 3.712.192 5.511.027.402.077 1.06.118 1.576l-.597.069c-.04-.52-.093-1.194-.12-1.604a82.283 82.283 0 0 1-.193-5.552c0-1.463.162-3.324.436-5.271a50.771 50.771 0 0 1-4.7 3.365Zm16.264 15.383c2.502-2.718 5.218-4.532 8.15-5.435 4.59-1.414 7.199-2.358 8.702-3.287.066.192.125.39.176.597-1.585.94-4.201 1.877-8.702 3.264-2.954.91-5.694 2.788-8.22 5.64a40.89 40.89 0 0 0-.106-.779Zm-.836-2.369c1.2-1.403 2.64-2.74 4.293-4.026a48.517 48.517 0 0 1 4.25-2.934c.816-.507 2.884-1.73 3.007-1.807a65.209 65.209 0 0 0 1.894-1.192c1.079-.71 1.926-1.35 2.542-1.95.07.171.15.377.239.602-.628.58-1.443 1.186-2.452 1.85-.533.35-.784.507-1.908 1.2-.13.08-2.196 1.304-3.005 1.807a47.933 47.933 0 0 0-4.199 2.897c-1.682 1.31-3.139 2.67-4.334 4.096-.09-.163-.2-.346-.327-.543Zm-1.65-2.066c.615-1.428 2.77-3.966 5.204-5.802-.137.104 1.782-1.333 2.395-1.802a65.33 65.33 0 0 0 2.832-2.282c2.334-2 4.131-3.914 5.317-5.788.047.258.129.499.245.723-1.217 1.802-2.96 3.626-5.171 5.52a65.912 65.912 0 0 1-2.858 2.303c-.616.472-2.538 1.91-2.398 1.805-2.548 1.923-4.785 4.653-5.11 5.814a12.54 12.54 0 0 0-.457-.491Zm-1.967-1.563c1.146-2.994 2.907-5.743 5.303-8.576 1.218-1.44 4.843-5.258 5.155-5.618 1.225-1.41 1.822-2.493 2.135-3.882l.576.171c-.334 1.463-.971 2.623-2.258 4.104-.325.375-3.945 4.19-5.15 5.613-2.383 2.818-4.122 5.542-5.244 8.517a7.717 7.717 0 0 0-.517-.329Zm-3.278-.734c-.191.015-.4.033-.625.053.778-3.668 2.833-9.307 4.795-13.445.903-1.903 2.033-3.989 3.391-6.258.2.04.407.083.622.13-1.396 2.322-2.553 4.45-3.47 6.385-1.913 4.033-3.92 9.522-4.713 13.135Zm-24.632 2.501c-1.935-1.01-4.885-1.964-6.806-2.213-1.114-.144-1.705-.651-1.552-1.355.013-.062.033-.123.058-.183.13-.027.449-.092.887-.178-.196.158-.324.33-.359.489-.06.277.231.527 1.043.632 2.338.303 6.04 1.568 7.955 2.835-.39-.005-.802-.014-1.226-.027Zm-5.376-.298c-1.414-.414-3.03-.816-4.357-1.054-.998-.18-2.384-.247-3.853-.23-.921-.112-1.841-.137-3.498-.154-2.447-.024-3.184.675-3.281.69.717-.481 1.892-.74 2.964-.92 2.63-.27 5.863-.32 7.774.023 2.15.386 5.028 1.188 6.68 1.81-.816-.049-1.636-.104-2.429-.165Z" fill="#B5B5B5"/>
        <path d="M80.643 43.015c-.322-.247-1.036-1.598-1.151-2.11-.127-.567-.595-2.182-1.364-2.552-.769-.37-5.895-1.604-7.285-2.04-1.389-.437-4.665-1.403-5.361-1.476-.696-.074-2.507-.063-3.101.003-1.15.129-2.441 1.414-3.03 2.177-.835 1.078-2.557 4.26-4.124 5.582-.304.256-.749-.129-.71-.178 1.932-2.416 2.758-3.5 3.99-5.436.696-1.095 2.088-2.636 3.302-2.908.81-.181 1.6-.266 2.373-.254-.925-.795-1.56-1.255-1.91-1.38-.213-.076-.194-.222-.128-.374a.585.585 0 0 1 .388-.115c.4.02 1.835.932 2.655 1.826 1.303.146 3.48.82 5.741 1.5 2.262.68 4.663 1.765 5.745 1.698 1.083-.066 1.875-.394 2.156-.223.281.172 1.164 1.756 1.239 2.84.075 1.084.734 2.801.637 3.075-.029.08-.05.202-.062.345ZM61.565 32.553c-1.182 1.345-3.448 3.938-3.994 4.29-.173.11-2.113 1.943-1.845 1.359.06-.132.129-.28.205-.441a.548.548 0 0 0 .098-.057c.31-.23 2.142-2.355 2.242-2.771.074-.307-.145-.885-.13-1.276.099-.155.198-.307.298-.455.344-.26.822-.57 1.148-.461.504.06 1.529-.301 1.946-.165l.032-.023Z" fill="#78788A"/>
        <path d="M61.377 42.302c-.108.092-.334.092-.676 0-.514-.138-1.797-.711-1.893-.95-.095-.24-.715-1.343-.494-1.482.22-.14 1.257-.96 1.45-.656.112.178.82.797 1.561 2.245.07.136.087.417.052.843ZM58.128 46.674c-.108.092-.334.092-.676 0-.514-.138-1.797-.711-1.893-.95-.095-.24-.523-1.42-.302-1.558.22-.14 1.065-.883 1.258-.58.112.178.82.797 1.561 2.245.07.136.087.417.052.843Z" fill="#AAABB2"/>
        <path d="M61.395 42.309c.141-.081 1.154-1.308 1.177-1.435.023-.127-1.253-1.463-1.281-1.617-.029-.154-.44-1.817-.55-2.126-.108-.308-.656-.577-.984-.385-.327.193-1.2 1.52-1.21 1.713-.01.193.407 1.834.593 2.037.186.203.76.337 1.076.738.316.401 1.037 1.156 1.179 1.075Z" fill="#BFBFBF"/>
        <path d="M61.524 39.578c.135.162.312.364.481.56l-1.419 1.524a7.246 7.246 0 0 1-.37-.428 1.123 1.123 0 0 0-.078-.09Z" fill="#929292"/>
        <path d="M59.777 36.902c.015.465.097.766.174 1.1.114.492.259.778.436.857l-1.318 1.517c-.204-.435-.531-1.746-.522-1.917.01-.193.883-1.52 1.21-1.713a.434.434 0 0 1 .047-.024.571.571 0 0 0-.027.18Z" fill="#ECECEC"/>
        <path d="M60.963 39.11c.15.077.268.143.355.199.034.058.112.157.213.278l-1.395 1.556c-.166-.17-.38-.287-.57-.386l1.397-1.647Z" fill="#EBEBEB"/>
        <path d="M61.076 39.022c-.269-1.079-.43-1.683-.482-1.81-.052-.128-.247-.238-.585-.33.095.777.177 1.268.247 1.475.07.207.343.428.82.665Z" fill="#5F5F5F"/>
        <path d="M58.188 46.697c.142-.081 1.154-1.308 1.177-1.435.024-.127-1.252-1.463-1.28-1.617-.03-.154-.44-1.817-.55-2.126-.108-.308-.657-.577-.984-.385-.328.193-1.2 1.52-1.21 1.713-.01.193.407 1.834.593 2.037.185.203.76.337 1.076.738.316.401 1.036 1.156 1.178 1.075Z" fill="#BFBFBF"/>
        <path d="M58.317 43.966c.136.163.312.365.482.56L57.38 46.05a7.246 7.246 0 0 1-.37-.428 1.123 1.123 0 0 0-.078-.09Z" fill="#929292"/>
        <path d="M56.571 41.29c.015.465.097.766.174 1.1.114.492.259.778.435.857l-1.317 1.517c-.204-.435-.531-1.746-.522-1.917.01-.193.882-1.52 1.21-1.713a.434.434 0 0 1 .047-.024.571.571 0 0 0-.027.18Z" fill="#ECECEC"/>
        <path d="M57.756 43.498c.15.077.269.143.355.199.034.058.113.157.214.278L56.93 45.53c-.167-.17-.38-.287-.571-.386l1.397-1.647Z" fill="#EBEBEB"/>
        <path d="M57.87 43.41c-.27-1.079-.43-1.683-.482-1.81-.052-.128-.248-.238-.586-.33.095.777.178 1.268.248 1.475.07.207.343.429.82.665Z" fill="#5F5F5F"/>
        <path d="M58.738 38.886c-.485.268-.843.394-1.071.379-.343-.023-1.411-.363-1.805-.631-.393-.268-.898-.696-1.155-.484-.257.213-.226.77.345 1.222.572.45 2.238.829 2.776.805a5.02 5.02 0 0 0 .91-.112v-1.179ZM55.398 43.277c-.61-.039-1.063-.126-1.359-.261-.443-.204-1.58-.812-1.597-.974-.017-.163-.135-.466-.44-.176-.306.29-.588.646.053 1.208.701.792 2.901 1.282 3.343 1.22a4.308 4.308 0 0 1 0-1.017ZM52.504 45.17c.154.461.154.785 0 .97-.233.28-1.177-.185-1.575-.484-.397-.3-1.975-.76-2.322-.485-.346.275.04-1.072.229-1.143.189-.07 1.7.147 2.093.361.263.143.787.403 1.575.782ZM47.285 47.608c.418.42.689.824.518 1.073-.172.249-.433.357-.794.169-.36-.188-.852-.769-1.466-1.036-.41-.178-.804-.228-1.182-.148.155-.517.385-.832.69-.945.459-.169 1.816.468 2.234.887ZM43.514 50.047c.081.298-.187.624-.571.597-.384-.027-1.129-.94-1.413-1.064-.19-.083-.634-.083-1.333 0 .337-.486.618-.744.843-.774.336-.045.993-.047 1.481.288.488.336.912.655.993.953ZM39.253 51.55c-.329-.595-.754-.996-1.276-1.203-.521-.206-.94-.32-1.258-.34-.264.384-.4.642-.408.77.405.023 1.383.385 1.78.86.19.23.412.407.77.33.24-.05.371-.19.392-.418ZM35.248 52.616c-.035.295.122.487-.442.433-.564-.053-1.274-.779-1.429-.967-.155-.187-.592-.238-.45-.45.14-.213.336-.344.814-.282.477.063 1.543.972 1.507 1.266ZM30.507 54.336c-.34-.038-.73-.453-.6-.736.13-.282-.168-1.292-.012-1.699.155-.406.91-.16.934-.096.024.064.257 1.297.188 1.662-.068.366-.17.906-.51.869Z" fill="#6F707B"/>
        <path d="M58.897 38.635c-.485.267-.843.394-1.071.378-.343-.023-1.411-.363-1.805-.63-.393-.269-.898-.697-1.155-.484-.257.212-.225.77.346 1.22.57.452 2.074.964 2.612.94a3.168 3.168 0 0 0 1.073-.246v-1.178ZM55.557 43.025c-.61-.038-1.063-.125-1.359-.261-.443-.203-1.58-.812-1.597-.974-.017-.163-.135-.466-.44-.175-.306.29-.588.646.053 1.207.701.792 2.901 1.282 3.343 1.22a4.308 4.308 0 0 1 0-1.017ZM52.663 44.92c.154.46.154.783 0 .969-.233.28-1.177-.186-1.575-.485-.397-.3-1.975-.76-2.322-.485-.346.276.04-1.072.229-1.143.189-.07 1.7.148 2.093.361.263.143.787.404 1.575.782ZM47.444 47.356c.418.42.689.824.518 1.073-.172.249-.433.357-.794.169-.36-.188-.852-.769-1.466-1.036-.41-.178-.804-.227-1.182-.148.155-.517.385-.832.69-.944.459-.17 1.816.467 2.234.886ZM43.673 49.795c.081.298-.187.624-.571.597-.384-.026-1.129-.94-1.413-1.064-.19-.083-.634-.083-1.333 0 .337-.486.618-.744.843-.774.336-.045.993-.047 1.481.289.488.335.912.654.993.952ZM39.412 51.298c-.329-.595-.754-.996-1.276-1.202-.521-.207-.94-.32-1.257-.341-.265.385-.4.642-.409.771.405.022 1.383.385 1.78.86.19.229.412.406.77.33.24-.051.371-.19.392-.418ZM35.407 52.365c-.035.294.122.486-.442.432-.564-.053-1.274-.779-1.429-.966-.155-.188-.592-.239-.45-.451.14-.212.336-.344.814-.281.477.062 1.543.971 1.507 1.266ZM30.666 54.084c-.34-.037-.73-.453-.6-.735.13-.283-.168-1.293-.012-1.7.155-.405.91-.16.934-.096.024.064.257 1.297.188 1.662-.068.366-.169.906-.51.87Z" fill="#D9D9D9"/>
        <path d="M57.212 42.44c.203.066.599-.472.623-1.057.016-.39-.191-.848-.623-1.374-1.066-.305-1.692-.54-1.88-.707-.467-.343-.655-.326 0 .383.656.71.922.834 1.196 1.095.182.175.279.408.29.7.128.597.26.917.394.96Z" fill="#6F707B"/>
        <path d="M57.323 42.385c.203.066.598-.472.623-1.057.016-.39-.192-.848-.623-1.374-1.066-.305-1.693-.54-1.88-.707-.467-.343-.655-.326 0 .383.656.71.922.834 1.195 1.095.183.175.28.408.29.7.129.597.26.917.395.96Z" fill="#C9C9C9"/>
        <path d="M60.509 37.925c.193.02.631-.245.77-.717.14-.472-.417-2.233-.677-2.567-.26-.333-1.096-1.4-.738-1.648.239-.165.398-.28.478-.345-.846.173-1.352.288-1.519.345-.25.084-.591.09-.711.638s.035.836.19.864c.154.028.633.16.92.278.289.118 1.1 1.465 1.127 1.808.019.229-.025.376-.13.442.064.588.16.889.29.902Z" fill="#E2E2E2"/>
        <path d="M59.427 34.95a.682.682 0 0 0-.204-.177 6.43 6.43 0 0 0-.922-.278c-.154-.028-.31-.316-.19-.864.08-.361.255-.487.438-.555-.1.295-.028.538.214.731.254.203.475.583.664 1.142Z" fill="#D4D4D4"/>
        <path d="M61.408 35.786s.647.045.811-.04c.165-.084.065-1.142 0-1.583-.065-.44.64-.515.956-.397-.256-.356-.96-.608-1.193-.585-.233.023-.66.203-.735.585-.075.382-.08 1.045 0 1.337.081.291.161.683.161.683Z" fill="#E2E2E2"/>
        <path d="M66.78 64.31a290.025 290.025 0 0 1 8.49-3.72c3.322-1.382 7.237-1.952 8.823-2.054.1.103.42.151.581.666a1.263 1.263 0 0 0-.484-.106c-.529-.013-5.549.715-8.732 1.954-2.047.797-4.93 2.029-8.647 3.696a19.012 19.012 0 0 0-.03-.437Z" fill="#FFF"/>
        <path d="M66.947 66.824c.16.045.356.013.59-.096.522-.243 5.665-2.502 8.843-3.36 2.118-.571 3.828-.9 5.128-.984-2.972.777-4.98 1.322-6.025 1.636-1.569.471-7.882 2.97-8.088 3.198-.08.089-.155.204-.228.346a4.679 4.679 0 0 1-.22-.74Z" fill="#9C9C9C"/>
        <path d="M57.417 38.461c.178-1.396.481-2.305.908-2.728.64-.633 1.208-.812 1.186-.598-.022.215-1.042 1.002-1.195 1.392-.154.39-.462 1.532-.51 1.604-.031.048-.161.158-.39.33Z" fill="#A85858"/>
    </g>
</svg>
