<svg width="96" height="96" xmlns="http://www.w3.org/2000/svg">
    <defs>
        <path id="a" d="M0 0h96v96H0z"/>
    </defs>
    <g fill="none" fill-rule="evenodd">
        <path d="M86 68s.27 2.658-2.739 3.38c-3.008.723-4.962.62-6.374.62h-4c-1.336 0-4.782-.406-5.774-.898s-1.514.02-1.816.279c-.301.259-2.9.619-4.865.619-1.966 0-4.289-.72-5.397-1.36-1.11-.637-2.69-1.302-4.027-1.302-1.337 0-3.53 1.313-4.51 1.764-.979.451-2.42.898-3.222.898h-8.457c-1.47 0-8.154-1.298-9.277-2.21-.49-.352-1.967-.452-2.617-.452-.65 0-3.063-.378-5.268-1.548-.788-.344-2.836-.186-4.898-1.263-2.061-1.078-2.827-2.328-2.793-3.874.023-1.03.416-2.037 1.179-3.02l11.78 3.854 11.894.795 12.265 3.508 6.68-.926 4.188-2.177 8.522-.405 9.624-2.38 8.384 1.585a6.844 6.844 0 0 1 1.182 2.332C86.004 67.046 86 68 86 68Z" fill="#FC8C97"/>
        <path d="m84.085 63.41.397.077a6.844 6.844 0 0 1 1.182 2.332A9.15 9.15 0 0 1 86 67.966V68s.27 2.658-2.739 3.38c-2.877.692-4.79.627-6.187.62h-4.186c-1.337 0-4.783-.406-5.775-.898s-1.514.02-1.816.279c-.301.259-2.9.619-4.865.619-1.966 0-4.289-.72-5.397-1.36-1.11-.637-2.69-1.302-4.027-1.302-1.337 0-3.53 1.313-4.51 1.764-.979.451-2.42.898-3.222.898h-8.457c-1.47 0-8.154-1.298-9.277-2.21-.49-.352-1.967-.452-2.617-.452-.65 0-3.063-.378-5.268-1.548-.788-.344-2.836-.186-4.898-1.263-1.66-.868-2.48-1.85-2.718-3.006 2.135 1.552 5.625 1.422 6.606 1.76 1.064.368 3.898 2.008 5.653 1.779 1.755-.23 4.916 1.088 6.841 2.124 1.925 1.035 13.491 1.404 15.045.62 1.554-.785 8.365-3.278 9.626-2.432 1.26.845 3.871 2.904 6.812 2.866 2.941-.038 4.85-1.427 5.283-1.904.246-.272 4.5-4.828 8.357-4.235-2.677 1.975-3.39 3.712-1.548 4.708 1.754.948 8.668.77 9.92-.71.833-.988 1.09-2.166.77-3.534.213-.487.439-.87.679-1.152Z" fill="#F27287"/>
        <path d="M10.254 64.192c1.73 1.31 4.391 2.26 4.904 2.375.614.136 1.851-.67 3.438.595 1.587 1.264 3.644 1.852 5.69.734 2.044-1.118 2.052.875 2.915 1.679.864.803 5.394 1.558 8.99 1.659 3.597.1 7.84.44 9.293-.393 1.453-.833 5.894-2.774 7.165-2.983 1.27-.209 2.49 2.255 4.305 2.853 1.815.598 6.243.5 7.159.286.916-.213 2.002-1.133 2.277-1.848.275-.715 1.243-1.894 1.88-.445.636 1.448 1.96 1.829 3.387 2.07 1.427.24 7.252.2 10.173.082 1.67-.068 3.05-.812 4.143-2.234-.117.83-.629 2.258-2.712 2.759-2.877.69-4.79.626-6.187.62L72.888 72c-1.337 0-4.783-.406-5.775-.898s-1.514.02-1.816.279c-.301.259-2.9.619-4.865.619-1.966 0-4.289-.72-5.397-1.36-1.11-.637-2.69-1.302-4.027-1.302-1.337 0-3.53 1.313-4.51 1.764-.979.451-2.42.898-3.222.898h-8.457c-1.47 0-8.154-1.298-9.277-2.21-.49-.352-1.967-.452-2.617-.452-.65 0-3.063-.378-5.268-1.548-.788-.344-2.836-.186-4.898-1.263-1.319-.69-2.108-1.45-2.495-2.314Z" fill="#D94A5C"/>
        <path d="M75.454 72h-2.566c-1.337 0-4.783-.406-5.775-.898s-1.514.02-1.816.279c-.084.072-.349.153-.73.231.679-.453 1.495-1.205 1.659-1.835.234-.903 1.92-.534 2.26.056.292.51 2.059 1.763 6.968 2.167Zm-15.246-.003c-1.916-.051-4.106-.742-5.173-1.356-1.11-.638-2.69-1.303-4.027-1.303-1.337 0-3.53 1.313-4.51 1.764-.424.196-.936.39-1.445.549.996-.379 1.755-.865 2.279-1.459.216-.245.506-.467.848-.661.355-.159.72-.317 1.082-.47 1.729-.563 3.975-.567 5.159.34 1.74 1.331 2.847 1.928 3.922 2.308.373.132 1.078.227 1.865.288Z" fill="#A32332"/>
        <path d="M51.762 69.1a3.682 3.682 0 0 0-.917-.13c-.363 0-.778.123-1.209.313-1.16.087-2.187.152-2.656.218-1.314.188-4.85-1.784-7.648-2.376-2.798-.592-7.313-.924-9.832-.083-2.519.842-4.214 2.008-5.246 1.804-1.033-.205-2.728-3.092-3.31-3.955-.583-.863-7.8-2.093-9.537-3.172a2.478 2.478 0 0 1-.942-1.015c.178-.36.405-.717.68-1.07l11.78 3.853 11.894.795 12.265 3.508 6.68-.926 4.188-2.177 8.522-.405 9.624-2.38 6.766 1.279a17.08 17.08 0 0 1 2.161 1.12 6.524 6.524 0 0 1 .668 1.624 57.215 57.215 0 0 1-2.162-.975c-3.173-1.498-7.166-1.233-8.537-.937-1.371.296-4.792 2.487-5.567 3.932-.776 1.445-3.462 1.993-4.327.512-.865-1.48-3.785-2.418-5.787-2.241-2.002.177-3.836 1.552-4.569 2.24-.316.297-1.562.498-2.982.645Z" fill="#FBBDC3"/>
        <path d="M11.13 60.402c-.26-.577.321-1.411.484-1.633.163-.223 1.061-1.7 2.524-2.22 1.463-.52 7.674-2.274 8.303-2.474.42-.133.95-.133 1.59 0 8.35 3.704 14.46 5.269 18.332 4.694 5.807-.863 10.96.803 13.776 3.649 2.817 2.846-11.331 3.143-19 2.122-2.69-.359-7.738-1.309-9.14-.526-2.155 1.203-5.185 1.96-5.477 1.388-1.217-2.388-3.18-2.301-5.157-2.76-3.848-.894-5.976-1.664-6.235-2.24Z" fill="#E2DED8"/>
        <path d="M12.445 57.71c.423-.445.993-.913 1.693-1.161 1.463-.52 7.674-2.274 8.303-2.474.42-.133.95-.133 1.59 0 3.507 1.556 6.619 2.734 9.336 3.535l.055.208c-9.709 2.306-16.185 2.88-19.428 1.72-1.193-.427-1.71-1.037-1.549-1.828Z" fill="#EDE9E2"/>
        <path d="M12.88 57.298c-.352 1.288.36 2.09 2.137 2.404 4.057.72 8.001 4.003 10.031 3.616 2.03-.388 4.77-2.163 6.799-1.742 7.29.86 11.224-.316 8.416-.414-2.809-.098-14.121-1.248-10.584-2.712.824-.34 2.57-.53 4.69-.557 3.287.887 5.952 1.179 7.994.876.329-.05.656-.09.98-.123 1.18.228 2.257.51 3.144.845 2.354.891 3.033 3.024 1.398 3.827-1.07.526-2.76 1.118-4.814 1.698-2.128-.081-4.196-.245-5.932-.476-2.69-.359-7.738-1.309-9.14-.526-2.155 1.203-5.185 1.96-5.477 1.388-1.217-2.388-3.18-2.301-5.157-2.76-3.848-.894-5.976-1.664-6.235-2.24-.26-.577.321-1.411.484-1.633.11-.15.548-.861 1.266-1.471Z" fill="#D5D2CC"/>
        <path d="M33.102 63.627a9.385 9.385 0 0 1 4.283-1.006c2.286 0 5.34.37 7.931-3.236 2.591-3.606 12.551-5.641 20.53-4.3 7.98 1.342 8.951-2.368 7.92-5.556-1.031-3.187 3.563-11.412 6.106-11.412 1.695 0 3.192 1.38 4.492 4.142.23 3.488.475 6.359.738 8.613.393 3.381 1.475 7.939 0 12.136.217.596-5.194-.773-8.767-.387-3.573.387-11.205 2.238-16.425 2.238-5.22 0-9.395 1.515-11.455 2.258-2.06.744-6.41-.444-10.146-1.754-2.49-.874-4.226-1.452-5.207-1.736Z" fill="#BA9863"/>
        <path d="M79.872 38.117c1.695 0 3.192 1.38 4.492 4.142l.09 1.333c-.173-.022-.291-.07-.354-.142-1.842-2.122-2.793-3.7-3.567-3.786-1.269-.141-3.07 1.648-3.794 4.19-.724 2.54.46 4.65 2.01 5.572 1.548.922 3.637-.057 4.352-1.166.714-1.109-.119 1.439-.642 2.127-.524.688-.628 1.188.58 2.043.954.676 1.976 1.208 2.574 2.222.316 2.602.46 5.482-.463 8.216-.686.036-1.662.036-2.833.047-1.799-.224-4.136-.493-5.982-.294-3.573.387-11.205 2.238-16.425 2.238-2.222 0-4.255.275-6.017.648l.083-.01c-1.657.162-5.986 1.945-9.445 1.614a26.924 26.924 0 0 1-1.597-.342l.05.016c-.368-.13-1.132-.33-2.085-.575a60.505 60.505 0 0 1-2.59-.847c-2.49-.874-4.226-1.452-5.207-1.736a9.393 9.393 0 0 1 1.41-.573c3.22.688 9.874 2.83 10.897 2.557 2.423-.647 5.127-2.359 8.589-2.858 4.571-.66 8.794-.701 7.846-2.202-1.203-1.904-4.2-2.029-7.524-1.706-2.698.262-6.587 1.004-9.551 1.235.185-.213.367-.445.547-.695 2.591-3.606 12.551-5.641 20.53-4.3 7.98 1.342 8.951-2.368 7.92-5.556-1.031-3.187 3.563-11.412 6.106-11.412Z" fill="#A3804A"/>
        <path d="M44.832 60.007c.163-.193.325-.4.484-.622 2.591-3.606 12.551-5.641 20.53-4.3 7.98 1.342 8.951-2.368 7.92-5.556-1.031-3.187 3.563-11.412 6.106-11.412 1.695 0 3.192 1.38 4.492 4.142l.057.85a.243.243 0 0 1-.19.003c-.38-.13-2.405-2.88-2.978-3.294-.572-.414-1.556-.66-2.371 0s-3.717 5.147-2.955 7.756c.762 2.608 4.252 3.361 4.838 3.188.587-.174-.492.44.42 1.273.912.832 3.313 1.736 3.901 2.684.33.531.564 1.1.703 1.707.102 1.424.102 2.899-.131 4.362-.292.265-.817.412-1.332.333-.677-.105-5.846-.664-9.251-1.32-3.405-.657-6.533-1.149-13.091-1.475-6.559-.326-14.637 1.228-16.223 1.546-.251.051-.561.096-.929.135Z" fill="#82602B"/>
        <path d="M22.466 65.383c.595.218 1.882-.082 3.862-.9 2.968-1.23 4.21-2.192 7.419-1.621 3.208.571 9.463 3.404 11.25 3.404 1.785 0 5.702-2.535 8.827-2.535s5.725 1.218 10.172-.56c4.448-1.78 7.78-2.67 13.07-2.104 5.288.566 8.551 1.628 8.888 2.28.338.652-.023 2.157-.188 3.18-.261-.315-3.258-3.048-7.308-3.357-4.05-.308-6.192.986-7.826 3.096-1.634 2.11-2.46 3.807-2.97 4.091-.34.19-.803.283-1.39.278a4.28 4.28 0 0 0-.731-1.514c-.51-.675-2.873-3.738-5.771-3.536-2.898.202-4.654 2.043-5.072 2.952-.418.91-.986 1.047-1.801.816-.815-.232-2.162-.378-3.25 0-1.087.378-2.512.78-2.787.579-.276-.201-4.68-3.405-9.779-3.943-5.099-.539-8.363-.233-11.259 2.89-.245.335-1.451.286-2.115-.342-.664-.627-1.24-2.336-1.24-2.548v-.606Z" fill="#BC9056"/>
        <path d="M77.065 61.067c4.473.478 7.497 1.312 8.528 1.952-.108.12-.492.077-1.151-.132-1.627-.515-3.261-.74-4.505-.947-1.243-.207-3.144-.29-5.108-.353-1.965-.063-5.009.068-7.005.734-1.997.666-4.798 1.822-5.742 2.204-.944.383-2.663.638-4.112.23-1.449-.41-4.505-.545-6.176-.144-1.672.402-4.5 2.516-7.23 2.168-2.73-.348-6.029-1.831-7.224-2.267-1.196-.436-4.335-1.386-7.616-.419-2.12.626-3.762.866-3.694.51l.298-.12c2.968-1.23 4.21-2.192 7.419-1.621 3.208.571 9.463 3.404 11.25 3.404 1.785 0 5.702-2.535 8.827-2.535s5.725 1.218 10.172-.56c4.448-1.78 7.78-2.67 13.07-2.104Z" fill="#DDB686"/>
        <path d="M72.578 63.956c2.435-1.398 5.288-1.683 8.556-.532 1.958.689 3.52 1.617 4.688 2.784-.02.111-.04.218-.056.32-.261-.316-3.258-3.049-7.308-3.358-4.05-.308-6.192.986-7.826 3.096-1.634 2.11-2.46 3.807-2.97 4.091-.34.19-.803.283-1.39.278a4.28 4.28 0 0 0-.731-1.514c-.51-.675-2.873-3.738-5.771-3.536-2.898.202-4.654 2.043-5.072 2.952-.418.91-.986 1.047-1.801.816-.815-.232-2.162-.378-3.25 0-1.087.378-2.512.78-2.787.579-.276-.201-4.68-3.405-9.779-3.943-5.099-.539-8.363-.233-11.259 2.89-.245.335-1.451.286-2.115-.342-.664-.627-1.24-2.336-1.24-2.548v-.606c.154.057.356.078.605.065-.412.329-.337.934.227 1.814 1.044 1.633 2.45 1.008 3.4.1.95-.907 4.311-2.049 8.043-1.968 3.732.08 5.985.829 8.492 1.923 2.507 1.094 3.941 2.008 4.784 1.628 1.495-.91 4.368-.546 5.087-.45.72.095 1.18-1.015 3.563-2.357 2.382-1.343 5.037-.773 6.24-.04 1.204.731 2.724 2.253 3.295 2.685.57.431 1.705-.036 2.193-.462.488-.426 1.746-2.967 4.182-4.365Z" fill="#A37030"/>
        <path d="M67.662 70.357c-.34.19-.803.283-1.39.278a4.28 4.28 0 0 0-.731-1.514 13.458 13.458 0 0 0-.712-.868c.46.366.81.64 1.046.82.73.555 1.691.217 2.101 0 .253-.134.935-.797 2.045-1.988-1.238 1.718-1.918 3.026-2.359 3.272Zm-12.964-1.82c-.418.91-.986 1.047-1.801.816-.815-.232-2.162-.378-3.25 0-1.087.378-2.512.78-2.787.579-.15-.11-1.532-1.115-3.585-2.093 1.22.435 2.007.737 2.362.908.76.366 1.93.735 2.52.563.59-.171 2.168-.49 2.956-.563.788-.072 2.554.066 2.844-.124.177-.116.754-.513 1.272-.867a3.45 3.45 0 0 0-.531.781Z" fill="#8D4725"/>
        <path d="M28.938 51.301c-.99.395-1.486.717-1.486.966 0 .374-2.537 1.208-3.636 1.74-1.098.53-5.106 2.25-1.005 4.11 4.102 1.862 12.987 3.068 15.924 3.068 2.937 0 15.103-3.135 17.58-3.642 2.477-.507 8.898-.412 14.014.414s12.383 2.46 13.643 2.842c1.26.38 1.714-.057 1.834-.363.12-.306.114-3.243 0-3.815-.115-.572-.79-1.713-1.888-2.405-1.1-.692-4.51-2.212-6.929-4-2.418-1.788-1.941-5.379-.312-7.811 1.087-1.622 2.207-2.711 3.36-3.268.633-.033 1.107.238 1.424.81.475.86 2.36 2.709 2.722 2.888.362.178.651-.228.54-.925-.111-.697-1.613-3.961-3.635-4.711-2.022-.75-5.012 1.158-6.72.708-1.707-.45-2.885-1.524-4.063-4.266-1.178-2.743-3.459-6.21-5.322-5.782-1.242.285-1.829.576-1.76.872l-.572.263c.098-.044.03.216-.203.78-.35.844-1.399 2.513-1.631 2.686-.156.116-.307.172-.455.168l-1.18 1.688-.25.682c-.298.307-.55.562-.753.764-.305.304-.64.915-.48 1.682.025.256-2.042 1.538-3.057 2.19-1.014.652-4.498 2.876-11.294 5.96-6.796 3.085-12.326 5.14-13.01 5.389a5.679 5.679 0 0 1-1.4.318Z" fill="#746959"/>
        <path d="M28.938 51.301c-.99.395-1.486.717-1.486.966 0 .374-2.537 1.208-3.636 1.74-1.098.53-5.003 1.76-.901 3.62 4.102 1.861 12.937 2.973 15.874 2.973 2.937 0 14.844-2.88 17.32-3.386 2.478-.507 9.08-.413 14.196.413S82.923 60.22 84.183 60.6c1.26.381 1.503.142 1.623-.164.12-.306.114-3.243 0-3.815-.115-.572-.79-1.713-1.888-2.405-1.1-.692-4.51-2.212-6.929-4-2.418-1.788-2-5.873-.37-8.306 1.087-1.622 2.247-2.697 3.481-3.226.779.085 1.326.413 1.643.986.475.86 2.077 2.986 2.44 3.165.362.178.651-.228.54-.925-.111-.697-1.613-3.961-3.635-4.711-2.022-.75-5.012 1.158-6.72.708-1.707-.45-2.885-1.524-4.063-4.266-1.178-2.743-3.459-6.21-5.322-5.782-1.242.285-1.829.576-1.76.872l-.572.263c.098-.044.03.216-.203.78-.35.844-1.399 2.513-1.631 2.686-.156.116-.307.172-.455.168l-1.18 1.688-.25.682c-.298.307-.55.562-.753.764-.305.304-.64.915-.48 1.682.025.256-2.042 1.538-3.057 2.19-1.014.652-4.498 2.876-11.294 5.96-6.796 3.085-12.326 5.14-13.01 5.389a5.679 5.679 0 0 1-1.4.318Z" fill="#E7E5DB"/>
        <path d="M29.73 51.136c-.045.958-.656 1.598-.94 1.678-.527.148-1.065.113-1.379-.455.027-.033.041-.064.041-.092 0-.249.496-.57 1.486-.966.116-.011.231-.026.346-.044l.446-.121Z" fill="#696867"/>
        <path d="M58.176 35.802c.387-.225.69-.349.754-.277.161.182.308 2.164 0 2.76-.308.594-4.186 2.966-5.66 3.85-1.473.885-12.163 6.095-13.32 6.548-1.157.454-11.401 4.96-11.77 4.45-.19-.265.322-.92 1.536-1.964.21-.049.417-.112.622-.186.684-.25 6.214-2.304 13.01-5.388 6.796-3.085 10.28-5.31 11.294-5.961 1.015-.652 3.082-1.934 3.057-2.19a1.86 1.86 0 0 1 .402-1.598Z" fill="#C4C3C0"/>
        <path d="M65.533 32.432c2.264-1.715 6.266 4.784 5.959 8.545-.308 3.76 2.005 6.69 3.815 8.68 1.809 1.991 2.908 2.469 6.67 4.34 1.66.825 3.047 2.047 3.89 3.33.05 1.073.031 2.873-.061 3.11-.12.305-.364.544-1.623.163-1.26-.38-8.762-2.147-13.878-2.973-5.117-.826-11.718-.92-14.195-.413-.1.02-.214.044-.342.072l-.018.004c.532-2.008 7.092-5.266 3.97-6.375-3.9-1.386-5.377-5.025-2.994-8.604 2.383-3.58 6.542-8.164 8.807-9.879Z" fill="#DCDACE"/>
        <path d="m49.812 56.98-.694.154a1.996 1.996 0 0 0-1.13-1.166 3 3 0 0 1-1.112-.108l-.072.012a2 2 0 0 0-1.561 1.952l.003.137c-.579.118-1.127.228-1.641.327a2 2 0 1 0-3.709.625c-.47.058-.841.087-1.107.087h.046a2.977 2.977 0 0 1-.084-.252 2.98 2.98 0 0 1-.113.252 23.753 23.753 0 0 1-1.164-.042 2.003 2.003 0 0 0-1.513-3.312 2 2 0 0 0-1.736 2.994 67.034 67.034 0 0 1-2.128-.31c.387-.262.647-.695.694-1.237.064-.731-.285-1.37-.861-1.706a3.751 3.751 0 0 1-1.378-.224l-.044.005c-.927.15-1.63.756-1.687 1.41-.037.418.184.88.572 1.257a52.82 52.82 0 0 1-2.01-.45c.067-.162.11-.34.128-.532.066-.759-.312-1.418-.928-1.743a3.669 3.669 0 0 1-.854-.176l.068-.028.185-.075.17-.068a20.163 20.163 0 0 0 1.43-.62c.259-.13.472-.252.657-.387.27-.199.49-.406.631-.675a6.58 6.58 0 0 1 .47-.215c.106-.014.212-.03.317-.05a2.189 2.189 0 0 1-.03.182c.11.464.515.89 1.069 1.145.115-.009.23-.011.346-.008.388.01.752.09 1.081.232.954-.128 1.581-.926 1.461-1.9a1.82 1.82 0 0 0-.345-.875l.952-.374.01.015.017-.026a214.408 214.408 0 0 0 3.575-1.452c.79.21 1.445.76 1.784 1.52a3 3 0 0 1 .931-1.053 3 3 0 0 1-.87-1.246l.922-.396c.174.516.553.938 1.04 1.169a2.999 2.999 0 0 1 1.533.072 1.996 1.996 0 0 0 1.068-2.856c.31-.142.613-.281.912-.42.106.204.19.422.249.65.095-.36.256-.694.468-.987.892-.419 1.74-.831 2.55-1.236l-.12-.004c.312 0 .612.048.895.136a1.998 1.998 0 0 0 1.495-1.302 93.34 93.34 0 0 0 1.346-.732 2 2 0 1 0 2.957-1.738 229.799 229.799 0 0 0 .918-.584c.298.24.55.535.739.87.249-.522.645-.961 1.136-1.263a3 3 0 0 1-.625-.414c.296-.196.55-.37.77-.526l.097-.07a2 2 0 0 0 2.2-3.341l.13-.135.288-.785c.435.259.8.624 1.057 1.06a2.997 2.997 0 0 1 1.362-1.411 3.01 3.01 0 0 1-1.192-1.04c.185-.158.426-.457.682-.823a2.001 2.001 0 1 0 1.817-2.839l-.118.005.858-.395-.034-.15c.094-.023.195-.048.304-.073.294-.068 1.082.723 1.919 1.966a3 3 0 0 1-1.574 3.324 3.01 3.01 0 0 1 1.44 1.49 3 3 0 0 1 1.806-1.702c.143.323.288.627.436.914a2 2 0 1 0 2.269 2.917 5.8 5.8 0 0 0 .836.548 2.991 2.991 0 0 1-1.01 1.022 3.006 3.006 0 0 1 1.3 1.269 3 3 0 0 1 1.768-1.598c.466.06.924.03 1.556-.097.11.021.215.049.32.082-.239.27-.471.561-.699.87a2 2 0 0 0-1.682 3.35 9.7 9.7 0 0 0-.24 1.104 2.987 2.987 0 0 1-.942-1.053l-.033.073a3.01 3.01 0 0 1-1.64 1.49c.637.28 1.157.776 1.469 1.395a3.003 3.003 0 0 1 1.058-1.136c-.033.446-.032.89.004 1.325a2 2 0 0 0 1.024 3.14c.347.53.783 1 1.31 1.391.08.06.162.118.244.177a2 2 0 1 0 .975.657 30.71 30.71 0 0 0 1.525.922v.02a2 2 0 0 0 3.115 1.66c.404.215.745.397.956.512-.066.061-.133.12-.202.175.59.287 1.072.761 1.368 1.346.043-.08.09-.157.14-.231a.742.742 0 0 1 .079.195c.024.123.057.896.057 1.695v.17l-.002.167a42.904 42.904 0 0 0-.99-.26 2 2 0 0 0-3.892-.909l-.976-.213a2.993 2.993 0 0 1 1.038-1.607 3.006 3.006 0 0 1-1.133-.956 3.001 3.001 0 0 1-5.447-.373 3.008 3.008 0 0 1-1.692 1.506 50.04 50.04 0 0 0-2.763-.4 2.99 2.99 0 0 1-.903-1.046 2.994 2.994 0 0 1-.61.887c-.6-.056-1.204-.104-1.807-.144a2 2 0 1 0-.87-.051 66.08 66.08 0 0 0-1.81-.075 2.95 2.95 0 0 1-.367-.602 2.98 2.98 0 0 1-.313.589c-.48-.01-.948-.013-1.4-.01a2 2 0 1 0-2.049.06c-.499.028-.961.065-1.38.112a2.98 2.98 0 0 1-.522-1.003 3.004 3.004 0 0 1-.849 1.226c-.49.105-1.575.348-2.784.619a3 3 0 0 1-2.16-2.53 3.003 3.003 0 0 1-1.385 1.79c.402.354.708.815.874 1.338Zm-10.356-3.145a2.677 2.677 0 0 1-1.902 1.27c.622.389 1.09 1.001 1.295 1.724.3-.764.908-1.376 1.67-1.682a2.993 2.993 0 0 1-1.063-1.312Zm5.454.189-.065.124a3.011 3.011 0 0 1-1.498 1.318c.477.33.853.795 1.074 1.34.24-.667.71-1.226 1.317-1.578a2.993 2.993 0 0 1-.828-1.204Zm-10.584-.13-.023.051c-.256.497-.665.9-1.177 1.152.187.216.34.461.454.728a2.987 2.987 0 0 1 1.743-1.11 3.09 3.09 0 0 1-.997-.821Zm19.266-2.463a2 2 0 1 0 0 4 2 2 0 0 0 0-4Zm-24.499 2.7-.057.07a2.66 2.66 0 0 1-1.11.755c.116.146.217.304.3.473.28-.4.69-.732 1.18-.96a2.65 2.65 0 0 1-.313-.339Zm41.105-2.804a2 2 0 1 0 0 4 2 2 0 0 0 0-4Zm-22.474-.346a2 2 0 0 0-.745 3.856 3 3 0 0 1 1.112.108 2 2 0 0 0-.367-3.965Zm-6.176-.18-.034.011a2 2 0 1 0 1.568.061 2.998 2.998 0 0 1-1.534-.072Zm-4.868-.107c-1.149.223-1.946 1.139-1.848 1.938.1.81 1.115 1.542 2.297 1.51 1.076-.028 1.811-.872 1.683-1.92-.13-1.059-1.07-1.735-2.132-1.528Zm14.093-1.09-.073.11a3.013 3.013 0 0 1-1.09.934c.593.48 1 1.182 1.093 1.98.211-.767.72-1.41 1.396-1.799a2.997 2.997 0 0 1-1.326-1.224Zm5.302-.17c-.265.54-.685.987-1.202 1.285a3.004 3.004 0 0 1 1.596 1.858 3.003 3.003 0 0 1 1.169-1.47 3.004 3.004 0 0 1-1.563-1.673Zm5.682-.188-.047.145a3.009 3.009 0 0 1-1.18 1.498 3.002 3.002 0 0 1 1.483 1.482 2.992 2.992 0 0 1 1.105-1.378 3 3 0 0 1-1.361-1.747Zm10.85.294-.03.056c-.242.432-.589.798-1.006 1.064a3.002 3.002 0 0 1 1.436 1.612 3.006 3.006 0 0 1 1.203-1.282 3 3 0 0 1-1.603-1.45Zm-5.237.104-.037.083a3.013 3.013 0 0 1-1.013 1.166c.485.284.883.702 1.143 1.203a2.991 2.991 0 0 1 1.123-1.3 3 3 0 0 1-1.216-1.152Zm-22.017-.93-.02.078a3.006 3.006 0 0 1-1.16 1.608c.387.329.688.755.868 1.24a3.002 3.002 0 0 1 1.333-1.34 2.998 2.998 0 0 1-1.02-1.587Zm19.285-2.306a2 2 0 1 0 0 4 2 2 0 0 0 0-4Zm-5.753-.028a2 2 0 1 0 0 4 2 2 0 0 0 0-4Zm11.075-.25a2 2 0 1 0 0 4 2 2 0 0 0 0-4Zm-16.582-.013a2 2 0 1 0 0 4 2 2 0 0 0 0-4Zm-5.513-.108-.044.007a2 2 0 1 0 1.227.113 2.999 2.999 0 0 1-1.183-.12Zm14.114-1.716-.044.084a3.01 3.01 0 0 1-1.623 1.365 3.002 3.002 0 0 1 1.454 1.8 3.004 3.004 0 0 1 1.962-1.993 2.99 2.99 0 0 1-1.75-1.256Zm-5.278.086-.013.028A3.012 3.012 0 0 1 55.28 45.8c.405.33.72.765.908 1.264a3.01 3.01 0 0 1 1.702-1.514 3.004 3.004 0 0 1-1.19-1.17Zm10.614-.726a3.009 3.009 0 0 1-1.916 1.854 2.996 2.996 0 0 1 1.829 1.385c.325-.722.93-1.29 1.676-1.571a3.002 3.002 0 0 1-1.59-1.668Zm-15.923.93-.014.028a3.015 3.015 0 0 1-1.11 1.128c.235.212.438.462.597.74.3-.461.725-.834 1.227-1.073a2.977 2.977 0 0 1-.7-.822Zm7.925-3.672a2 2 0 1 0 0 4 2 2 0 0 0 0-4Zm5.171-.263a2 2 0 1 0 0 4 2 2 0 0 0 0-4Zm5.628-.07a2 2 0 1 0 0 4 2 2 0 0 0 0-4Zm-2.961-2.03-.01.03A3.012 3.012 0 0 1 65.895 40a2.998 2.998 0 0 1 1.395 1.574 3 3 0 0 1 1.264-1.558 3 3 0 0 1-1.4-1.467Zm-5.36.384-.023.054c-.25.51-.642.94-1.124 1.237.48.236.887.598 1.179 1.043a3 3 0 0 1 1.146-1.208 3.004 3.004 0 0 1-1.177-1.126Zm2.586-3.523a2 2 0 1 0 0 4 2 2 0 0 0 0-4Z" fill="#CDC9C4" fill-rule="nonzero"/>
        <path d="m35.824 56.418.208.188.37.371.745.551-.253.219-.456.356-.614.637-.597-.656-.725-.454.252-.167.457-.325.613-.72Zm5.906.304.231.197.41.388.83.576-.28.229-.508.372-.036.035c-.384.07-.744.132-1.078.187l-.234-.241-.807-.476.281-.174.508-.34.683-.753Zm39.484.428.231.282.41.507.718.589c-.626-.152-1.34-.319-2.11-.493l.068-.054.683-.83Zm-50.415-1.267.208.188.37.371.745.551-.253.219-.456.356-.533.553a67.743 67.743 0 0 1-.188-.034l-.49-.538-.725-.454.253-.167.456-.325.613-.72Zm-5.226-.508.208.197.369.388.746.576-.253.229-.398.323a24.29 24.29 0 0 1-1.813-.572l.071-.048.456-.34.614-.753Zm33.612-3.144.231.282.41.507.83.683-.28.232-.508.41-.683.83-.665-.807-.808-.665.282-.231.508-.41.683-.83Zm5.593-.007.232.282.41.507.83.683-.281.232-.508.41-.683.83-.664-.807-.808-.665.282-.231.507-.41.683-.831Zm5.424-.096.231.281.41.508.83.683-.28.231-.508.41-.683.83-.665-.807-.808-.664.282-.232.507-.41.684-.83Zm5.508-.015.231.281.41.508.83.683-.28.231-.508.41-.683.831-.665-.808-.808-.664.282-.232.508-.41.683-.83Zm-22.144-.098.232.282.41.507.83.683-.281.232-.508.41-.683.83-.665-.807-.807-.665.281-.231.508-.41.683-.831Zm-5.833-.518.232.282.41.507.83.683-.281.232-.508.41-.683.83-.664-.807-.808-.665.282-.231.507-.41.683-.83Zm-5.51-.012.231.197.41.388.83.576-.28.229-.508.372-.683.666-.665-.685-.807-.476.281-.174.508-.34.683-.753Zm-5.701-.308.208.197.369.388.746.577-.253.228-.456.373-.614.665-.597-.685-.726-.476.253-.174.456-.34.614-.753Zm-4.323.817.1.12.643.648-.282.144-.499.202-.686.356-.482-.701-.274-.221.167-.056c.34-.124.785-.29 1.313-.492Zm26.672-5.086.231.281.41.508.83.683-.28.232-.508.41-.683.83-.665-.807-.808-.665.282-.232.507-.41.684-.83Zm5.723-.011.232.281.41.508.83.683-.281.232-.508.41-.683.83-.664-.807-.808-.665.282-.232.507-.41.683-.83Zm5.384-.118.232.282.41.508.83.683-.281.231-.508.41-.683.83-.664-.807-.808-.664.282-.232.507-.41.683-.83Zm-16.544-.047.232.282.41.508.83.683-.28.231-.508.41-.684.83-.664-.807-.808-.664.282-.232.507-.41.683-.83Zm-5.238.197.244.23.427.417.85.56-.298.19-.53.336-.703.68-.678-.662-.843-.545.287-.19.525-.336.719-.68Zm-5.25.6.107.126.748.642-.306.155-.547.249-.759.488-.57-.713-.3-.226c.892-.39 1.79-.79 2.69-1.198l-1.063.478Zm11.222-5.713.38.471.83.683-.281.232-.508.41-.683.83-.664-.807-.808-.665.282-.232.307-.248c.413-.237.789-.458 1.145-.674Zm5.095-.398.232.281.41.508.83.683-.281.231-.508.41-.683.83-.664-.807-.808-.664.281-.232.508-.41.683-.83Zm5.098-.131.232.281.41.508.83.683-.282.232-.507.41-.683.83-.665-.808-.807-.664.281-.232.508-.41.683-.83Zm5.798-.13.231.281.41.508.83.683-.28.231-.508.41-.683.83-.665-.807-.807-.664.281-.232.508-.41.683-.83Zm4.83.344a9.596 9.596 0 0 0-.591 1.197l-.39-.321.281-.232.508-.41ZM59.48 36.723l.224.274.83.684-.282.231-.507.41-.683.83-.339-.411c.096-.097.182-.196.261-.31.218-.316.354-.66.306-1.145-.047-.269-.015-.357.017-.39l.173-.173Zm4.733-.855.232.281.41.508.83.683-.281.231-.508.41-.683.831-.665-.808-.807-.664.281-.232.508-.41.683-.83Zm5.563.275a8.72 8.72 0 0 0 1.18 1.571l-.157.127-.683.83-.664-.808-.808-.664.282-.232.507-.41Z" fill="#D0CDC4" fill-rule="nonzero"/>
        <path d="m81.214 57.15.231.282.41.507.718.589-.177-.043a140.159 140.159 0 0 0-1.933-.45l.068-.054.683-.83Zm-20.59-3.474.033.027-.282.232-.507.41-.683.83-.665-.807-.338-.28c.883-.147 1.707-.282 2.442-.412Zm4.263-1.32.123.15.41.507.83.683-.281.232-.508.41-.683.83-.664-.807-.808-.665.282-.231.507-.41.387-.47c.148-.074.284-.15.405-.23Zm5.315-.228.231.281.41.508.83.683-.28.231-.508.41-.683.83-.665-.807-.808-.664.282-.232.507-.41.684-.83Zm5.118.917c.49.338.982.62 1.476.857l-.403.325-.683.83-.665-.808-.808-.664.282-.232.508-.41.054-.067c.078.057.158.113.239.169Zm-10.726-6.148.232.281.41.508.83.683-.281.232-.508.41-.683.83-.664-.807-.808-.665.282-.232.507-.41.683-.83Zm5.384-.118.232.282.41.508.83.683-.281.231-.508.41-.683.83-.664-.807-.808-.664.282-.232.507-.41.683-.83Zm-10.365-4.934.292.362.83.683-.281.231-.508.41-.683.83-.558-.676c.164-.632.491-1.252.908-1.84Zm4.748-.558.232.281.41.508.83.683-.282.232-.507.41-.683.83-.665-.808-.807-.664.281-.232.508-.41.683-.83Zm5.798-.13.231.281.41.508.83.683-.28.231-.508.41-.683.83-.665-.807-.807-.664.281-.232.508-.41.683-.83Zm-5.342-4.55.039.05.83.683-.281.231-.508.41-.683.831-.665-.808-.01-.009c.447-.439.877-.903 1.278-1.387Zm5.638 1.655-.338.409-.664-.808-.808-.664.282-.232.507-.41.018-.022a4.645 4.645 0 0 0 1.003 1.727Z" fill="#C4C2BD" fill-rule="nonzero"/>
        <path d="M82.511 46.287c.016-2.054-1.043-3.513-2.655-3.413-1.612.1-2.24 2.097-1.925 3.888.316 1.792 1.747 2.041 2.408 2.012.66-.03 2.157-.432 2.172-2.487Z" fill="#172B0F"/>
        <path d="M81.794 45.96c.03-1.295-1.018-2.684-1.947-2.55-.928.135-1.698 1.733-1.51 2.974.19 1.241 1.255 1.788 1.939 1.789.683.001 1.488-.917 1.518-2.213Z" fill="#073921"/>
        <path d="M79.856 42.874c.166-.01.326-.004.48.017.01.904-.344 1.432-1 1.411-.439-.013-.693-.366-.816-.712.325-.412.77-.681 1.336-.716Z" fill="#D7E3E1"/>
        <path d="M82.511 46.287c.016-2.054-1.043-3.513-2.655-3.413-1.612.1-2.24 2.097-1.925 3.888.316 1.792 1.747 2.041 2.408 2.012.66-.03 2.157-.432 2.172-2.487Zm.4.003c-.014 1.905-1.178 2.821-2.554 2.883-1.31.059-2.522-.655-2.82-2.341-.386-2.19.506-4.247 2.294-4.358 1.852-.114 3.098 1.52 3.08 3.816Z" fill="#805529" fill-rule="nonzero"/>
        <path d="m82.096 47.825-.062.09c-.5.667-1.27.84-1.695.859-.66.03-2.092-.22-2.408-2.012l.04.192.055-.007c1.5-.182 2.856.111 4.07.878Z" fill="#425F5A"/>
        <path d="M64.983 27.859c1.863-.429 4.144 3.039 5.322 5.782 1.178 2.742 2.356 3.816 4.064 4.266 1.707.45 4.697-1.459 6.72-.708 2.021.75 3.523 4.014 3.634 4.71.111.698-.178 1.104-.54.926-.363-.179-1.965-2.306-2.44-3.165-.317-.573-.864-.901-1.643-.986-.07.03-.139.061-.208.095-.98-.055-2.462.239-3.713.43-1.463.222-4.514.562-6.485-3.202-1.97-3.763-3.888-5.735-4.803-5.411-.915.323-2.913 2.8-3.504 3.746-.591.946-1.162 2.376-1.827 2.938-.665.563-1.614 1.152-1.971 1.125-.164-.012-.338-.134-.524-.365.383-.28.643-.504.634-.596a1.854 1.854 0 0 1 .48-1.682c.204-.202.455-.457.754-.764l.25-.682 1.18-1.688c.147.004.298-.052.454-.168.232-.173 1.282-1.842 1.631-2.687.233-.563.301-.823.203-.779l.571-.263c-.068-.296.52-.587 1.761-.872Z" fill="#CFCDC2"/>
        <path d="m69.454 31.901.058.106c-1.189-1.543-2.821-3.283-3.01-3.438-.236-.193-1.638-.369-2.095-.32-.304.032-.931.512-1.881 1.44a4.518 4.518 0 0 1-.035-.022l-.043.106c.214-.516.289-.777.224-.784l-.02.005.57-.263c-.068-.296.52-.587 1.761-.872 1.481-.34 3.226 1.78 4.47 4.042Z" fill="#F6F5EC"/>
        <path d="M65.455 28.742c.915.222 2.184 1.135 2.892 2.029.391.492 1.1 1.575 2.126 3.247 1.123 2.466 2.27 3.46 3.896 3.889 1.707.45 4.697-1.459 6.72-.708 2.021.75 3.523 4.014 3.634 4.71.056.356.01.636-.099.801-.062-.47-.227-.984-.493-1.54-.484-1.012-2.07-3.634-3.816-3.659-1.746-.025-3.995.769-4.97.747-.975-.022-3.23-.348-4.62-2.828-1.39-2.481-2.717-4.589-3.483-5.236-.766-.647-1.46-1.097-2.156-1.052-.696.045-1.631.85-2.044 1.404-.275.37-.275.117 0-.76.998-.844 1.803-1.191 2.413-1.044Z" fill="#F5F4EE"/>
        <path d="M64.036 30.698c.959-.797 1.864-.38 2.467.264s1.074.712 2.55 3.328c1.476 2.615 2.696 3.774 3.79 4.33 1.094.556 2.92.485 4.548.18 1.627-.306 2.435-.335 3.215-.036.068.027.132.054.19.084a2.717 2.717 0 0 0-.696-.164c-.07.03-.139.061-.208.095-.98-.055-2.462.239-3.713.43-1.463.222-4.514.562-6.485-3.202-1.97-3.763-3.888-5.735-4.803-5.411-.915.323-2.913 2.8-3.504 3.746-.591.946-1.162 2.376-1.827 2.938-.2.17-.426.342-.654.499.056-.133.167-.284.344-.454 1.076-1.033 1.293-1.868 1.627-2.473 1.185-2.147 2.66-3.739 3.16-4.154Z" fill="#928879"/>
        <path d="M63.508 29.19c-.011.237-1.092 2.403-1.375 2.806-.282.402-1.044 1.525-1.356 1.879-.313.353-.457.554-.8.746-.344.192-.85.657-1.002.666-.04.003-.109-.031-.205-.102l-.011-.009.174-.178.25-.682 1.18-1.688c.147.004.298-.052.454-.168.232-.173 1.282-1.842 1.631-2.687.214-.516.289-.777.224-.784l-.02.005.332-.152c.354.117.529.234.524.349Z" fill="#262327"/>
        <path d="M65.198 33.207c.33-.297.377-1.17-.099-1.23-.476-.059-1.155.532-1.103.989.052.457.87.538 1.202.241Z" fill="#575151"/>
        <path d="M61.863 35.567c.455-.17.683-.372.684-.603.002-.347-.516-.686-.929-.658-.413.03-2.309.755-2.904 1.004-.596.25-1.047 1.553-.985 2.032-.012.228.94-.582 1.19-.737.251-.154.336-.43 1.307-.748.647-.213 1.193-.31 1.637-.29Z" fill="#EDEAE5"/>
        <path d="M62.398 34.632c.092.1.15.216.149.332-.001.231-.23.432-.684.603-.444-.02-.99.077-1.637.29-.971.318-1.056.594-1.307.748-.25.155-1.202.965-1.19.737l.01.029c.59-.492.934-.834 1.033-1.026.156-.305.813-.682 1.124-.774a31.086 31.086 0 0 1 2.041-.435c.19-.026.35-.21.48-.551Z" fill="#94918A"/>
    </g>
</svg>
