<svg width="96" height="96" xmlns="http://www.w3.org/2000/svg">
    <defs>
        <path id="a" d="M0 0h96v96H0z"/>
    </defs>
    <g fill="none" fill-rule="evenodd">
        <path d="m69.765 29.686.744.258c1.63.584 2.53 1.034 2.53 1.156v.571c.33-.5.64-.691.93-.571.4.165 1.012.836 1.104 2.165l.011.346c0 1.56.426 3.238.885 3.936.458.699 2.456 3.061 2.686 4.427.229 1.366-.066 2.368-1.035 2.778-.969.409-1.648.281-1.95.281-.202 0-.293.122-.273.367.198 1.045.389 2.16.572 3.345.274 1.776 2.72 5.248 3.34 6.126.412.586.987 1.244 1.725 1.973l-7.218 4.45c-2.213 1.35-3.369 2.032-3.467 2.044l-47.867 2.03-11.59-.938-.317-1.092v-1.227c.383-1.612 1.414-2.697 3.095-3.256 2.521-.838 8.78-1.97 10.33-2.463 1.55-.494 7.11-2.972 9.905-4.71l.437-.284c3.437-2.3 14.53-11.09 15.832-16.078l.27-.985c1.2-4.16 2.237-4.767 3.745-4.805l.17-.002c1.714 0 6.053.395 6.659.395.605 0 1.865-.625 3.028-.777 1.163-.151 3.62-.167 5.72.54Zm3.939 3.364c.067.264.11.508.13.734.028.34.026 1.494 0 2.243.2.414.445 1.73.468 2.35l-.022.78c-.017 1-.007 2.87.02 3.545.023.573.164 1.237.425 1.99l.795-.359c.174-.084 1.506.081 1.77 0 .264-.08.002-.755 0-1.762-.002-1.007-1.313-3.418-1.917-4.465-.554-.959-.982-2.812-1.06-3.58l-.013-.18c-.01-.403-.208-.835-.596-1.296Z" fill="#DCD3C4"/>
        <path d="m62.588 29.506.512.05c3.253.271 9.934 2.8 10.47 3.052.358.168.525.56.502 1.176l.004-.2a3.252 3.252 0 0 0-.372-.534c.067.264.11.508.13.734.028.34.026 1.494 0 2.243.14.29.303 1.026.395 1.653-3.66-2.204-6.433-3.4-8.322-3.59l-.869-.071c-2.27-.155-7.052-.32-14.348-.495 1.05-3.281 2.008-3.907 3.318-3.987l.35-.01.622.013c1.965.067 5.496.383 6.038.383.351 0 .924-.21 1.57-.417Z" fill="#ECE7DD"/>
        <path d="m69.765 29.686.803.28-1.019-.179c-.95-.157-1.697-.25-2.24-.281l-1.428-.07c-.987-.035-1.956-.03-2.383.12a5.79 5.79 0 0 1-1.19.318l2.536.29c1.037.13 1.728.234 2.073.315.739.172 1.537.541 2.068.734l1.323.438c.645.222 1.554.54 2.73.957.132.13-.061.13-.58 0-.776-.194-4.074-1.407-4.704-1.546L67.419 31c-1.123-.19-4.238-.626-5.571-.772l-.242-.025c-1.295-.126-4.497-.298-5.207-.33l-.628-.013c-.523-.005-1.253 0-2.19.014l-.344-.2c.3-.099.614-.136.952-.144l.17-.002c1.714 0 6.053.395 6.659.395.605 0 1.865-.625 3.028-.777 1.163-.151 3.62-.167 5.72.54Z" fill="#F9F6F1"/>
        <path d="M40.833 55.964c4.09 1.46 7.29 5.068 8.577 8.263L22.482 65.37l-11.59-.939-.317-1.092v-1.227c.383-1.612 1.414-2.697 3.095-3.256 2.521-.838 8.78-1.97 10.33-2.463 1.55-.494 7.11-2.972 9.905-4.71l.437-.284c.123-.082.256-.173.397-.271 1.478 1.813 3.512 3.915 6.094 4.837Z" fill="#E4E3ED"/>
        <path d="M35.909 54.404c.72-.015 1.458.008 2.213.071.823.615 1.727 1.138 2.71 1.49 2.824 1.007 5.223 3.038 6.862 5.25-3.644.726-9.054 1.182-12.348 1.827l-.63.132c-6.166 1.384-18.93-1.396-16.23-2.27 2.7-.875 11.033-2.416 13.376-3.105 1.563-.46 2.912-1.591 4.047-3.395Z" fill="#DBDAE5"/>
        <path d="m42.427 44.944 6.73 16.63-6.448.934c-.096-.667-.225-1.215-.388-1.642l-.064-.135c-.391-.699-2.05-2.09-7.537-3.519-2.656-.692-4.398-1.754-5.224-3.186 1.624-.78 3.253-1.626 4.41-2.345l.436-.283.597-.411c1.745-1.229 4.662-3.491 7.488-6.043Z" fill="#CECAD3"/>
        <path d="m48.607 60.215.55 1.358-6.448.935a9.072 9.072 0 0 0-.272-1.298 85.43 85.43 0 0 1 6.17-.995Z" fill="#A5A2AA"/>
        <path d="m30.298 55.042.128-.042.561-.172c2.853-.83 10.89-2.74 13.168-2.503 1.902.198 2.686 2 2.354 5.403-2.636.235-4.8.261-6.493.077-2.136-.233-7.374-1.844-9.318-2.412a5.84 5.84 0 0 1-.4-.351Z" fill="#BEBAC3"/>
        <path d="M57.87 38.083c.506.357 4.572 2.678 8.012 2.68 3.44.002 7.883-.54 7.682-1.78-.202-1.238-1.69-3.468-4.912-3.363-3.221.105-10.867-.292-11.288 0-.421.292.001 2.107.507 2.463Z" fill="#DDD2C6"/>
        <path d="M61.942 33.533c1.869.047 3.79.139 4.627.387 1.424.422-6.5 2.384-7.017 3.953-.422 1.278 1.852 1.6 4.327 1.9l1.689.212c2.99.416 4.328-.075 5.997-.759 1.67-.684 2.14.921 2.139 2.486-.002 1.565-.899 4.023-.666 5.503.16 1.019 2.448 3.36 4.415 4.834l.446.725c.422.668.668 1.69.545 2.598-.05.368 2.36 1.554 2.178 1.853-.709 1.162-5.247 2.336-10.118 3.49l-.646.15 3.177-3.96-.565-.893c-2.004-3.126-3.293-4.615-3.868-4.468l-.37.089c-1.026.21-2.88.148-6.889-4.063-3.03-3.182-5.105-7.777-6.228-13.786.734-.224 1.686-.334 2.854-.33l3.973.08Z" fill="#CAC0AF"/>
        <path d="M56.38 33.05c1.987.167 8.177.407 9.896.734 1.146.219 1.938.369 2.376.45l-.34.355c-7.205-.566-11.088-.85-11.65-.85-.843 0-2.27-.856-.282-.69Z" fill="#C3AC98"/>
        <path d="m69.765 29.686.744.258.653.241c1.216.465 1.876.81 1.876.915v.571c-.072.263-.09.579-.003.937-.219-.134-3.646-1.021-4.748-1.543-.98-.464-2.449-.567-3.787-.752l-.495-.074a27.886 27.886 0 0 0-2.002-.236l-.985-.08c.605 0 1.865-.625 3.028-.777 1.163-.151 3.62-.167 5.72.54Z" fill="#EDE2D1"/>
        <path d="M73.968 31.1c.4.165 1.013.836 1.105 2.165l.011.346c0 1.56.426 3.238.885 3.936.458.699 2.456 3.061 2.686 4.427.229 1.366-.066 2.368-1.035 2.778-.969.409-1.648.281-1.95.281-.162 0-.252.078-.272.235l-.001.132-.167.271a.877.877 0 0 1-.141.187c-.027.019-.08-.102-.162-.36l-.176-.617v-.202l.77-.346c.173-.084 1.505.081 1.769 0 .264-.08.002-.755 0-1.762-.002-1.007-1.313-3.418-1.917-4.465-.554-.959-.982-2.812-1.06-3.58l-.013-.18c-.006-.26-.091-.533-.256-.818-.04-.39-.375-.654-1.006-.794l.017-.499a5.323 5.323 0 0 0-.007-.477l-.01-.087a.355.355 0 0 1-.001-.089l.001.09c.331-.501.642-.692.93-.572Z" fill="#C03714"/>
        <path d="m32.907 64.931-2.556-4.876 4.52-.255c3.203-.159 5.294-.202 6.273-.13 1.383.101 2.493.996 3.33 2.683.684.975 1.043 1.658 1.075 2.048l-12.642.53Z" fill="#BBB8C0"/>
        <path d="M44.473 62.353c.685.975 1.044 1.658 1.076 2.048l-12.642.53-1.045-1.983c2.624-.25 5.791-.697 8.304-1.233l.909-.204c.76-.181 1.62-.358 2.518-.524.322.376.615.831.88 1.366Z" fill="#888390"/>
        <path d="M20.44 59.61c-.325.436.81.68 3.407.733l.969 4.928-.894.038-13.03-.879c-.267-.97-.28-2.02-.041-3.151.508-1.16 1.447-1.968 2.82-2.424 2.469-.82 8.524-1.923 10.228-2.432l-1.734 1.517c-.961.86-1.535 1.416-1.725 1.67Z" fill="#C0C0C7"/>
        <path d="M11.852 59.88c-.32.77-.533 2.774.003 3.096.448.268 2.714.359 4.73.38l2.051.002c1.356-.01 3.537-.04 5.783-.092l.397 2.005-.894.038-13.03-.879c-.267-.97-.28-2.02-.041-3.151.203-.464.475-.872.816-1.223l.185-.175Z" fill="#8E8EA3"/>
        <path d="m23.899 56.423-1.734 1.517-.583.528c-.614.564-.994.944-1.142 1.141a.24.24 0 0 0-.054.133c-3.323.398-5.627.43-6.91.095-.473-.123-.763-.292-.87-.506.319-.188.674-.346 1.064-.476 2.47-.82 8.525-1.923 10.229-2.432Z" fill="#CECED6"/>
        <path d="M30.878 57.73c.669.046 2.202 2.162 4.6 6.348L21.899 65.32l-.554-.044-2.266-5.36c-.142-.376.583-.849 1.444-.972l1.118-.126c2.4-.302 8.389-1.145 9.237-1.087Z" fill="#EFEFF1"/>
        <path d="M35.478 64.078 21.899 65.32l-.554-.044-1.192-2.822.206-.006c4.944-.21 9.362-.704 13.255-1.486l.571.922c.398.653.83 1.385 1.293 2.194Z" fill="#E5E3EA"/>
        <path d="M35.478 64.078 21.899 65.32l-.554-.044-.823-1.939 3.777-.069c2.906-.066 5.944-.168 7.457-.31a83.375 83.375 0 0 0 2.877-.324c.269.447.55.93.845 1.444Z" fill="#CAC7D6"/>
        <path d="M54.444 37.127c4.901-2.078 8.697-3.184 11.388-3.32 4.037-.203 6.49.994 7.034 1.401.363.272.842.937 1.435 1.994-.232 1.072-.33 1.774-.293 2.109.056.501.472 1.668.411 2.117-.04.3-.177.618-.41.955-.422-1.593-.85-2.617-1.284-3.072-.652-.683-2.75-1.317-6.278-.865-2.35.3-6.075 1.94-11.173 4.919l-.83-6.238Z" fill="#EBE4DE"/>
        <path d="M71.399 34.809c.573.275 1.67.956 2.375 1.511.164.253.34.548.527.882l-.135.66c-.134.706-.187 1.189-.158 1.449.049.438.373 1.385.413 1.916-.17.116-.402.177-.691.19-.332-1.05-.667-1.751-1.005-2.106-.652-.683-2.75-1.317-6.278-.865-1.546.197-3.686.974-6.42 2.33a4.963 4.963 0 0 1-1.025-.334l-.93-.431c-1.784-.843-3.088-1.58-3.567-2.42l-.06-.464a72.774 72.774 0 0 1 3.904-1.534c.575 1.086 1.496 1.704 2.76 1.858 2.506.305 5.85-.397 8.118 0 1.511.265 2.536.64 3.073 1.123l-.313-.754c-.915-2.259-1.11-3.262-.588-3.011Z" fill="#DFD8D2"/>
        <path d="M67.187 37.923c4.033-.534 6.008 1.282 6.383 1.854.215.328.407.848.577 1.562l.082.373-.41-.004c-.36-1.21-.725-2.01-1.094-2.397-.652-.683-2.75-1.317-6.278-.865-1.604.205-3.847 1.033-6.73 2.485l.552-.605c1.922-1.246 4.228-2.047 6.918-2.403Z" fill="#C1B8B0"/>
        <path d="M72.866 35.208c.143.108.305.276.484.506-1.235-.116-2.356-.41-3.364-.88-1.685-.786-4.384-.579-6.152-.277l-.366.07c-1.16.247-3.38.881-6.661 1.903l-1.836.577-.097-.16.377-.157c4.512-1.86 8.04-2.855 10.581-2.983 4.037-.203 6.49.994 7.034 1.401Z" fill="#F9F2EC"/>
        <path d="m48.258 62.976-6.381-12.928 8.657-7.548L74.718 58.6l-.49-4.067c-3.766-3.428-6.37-5.606-7.814-6.534-2.165-1.392-3.279-1.522-6.607-3.5a293.338 293.338 0 0 0-7.446-4.263l3.491-4.002c5.172 2.998 8.232 4.832 9.18 5.5 1.42 1.001 4.662 3.18 5.898 4.022.823.56 1.923 1.457 3.299 2.69l1.787 4.074v7.449l-3.887 2.062-16.277-6.846-3.173 1.67 1.877 4.01-6.298 2.11Z" fill="#F0E7E0"/>
        <path d="m52.468 43.786 7.295 4.86c.284 1.76 1.208 3.858 1.809 4.937l.702 1.233a254.97 254.97 0 0 0 1.838 3.11 82.319 82.319 0 0 1-2.521-.325l-5.739-2.415-1.296.683c-.758-.355-1.28-.737-1.567-1.149-.97-1.392-1.001-6.854-.52-10.934Zm4.23-5.773 4.149 5.352a9.714 9.714 0 0 1 1.378 2.464l-.711-.367c-.377-.2-.787-.426-1.24-.688l-2.266-1.332c-1.543-.898-3.2-1.841-4.97-2.828.152-.575.324-1.012.509-1.27.897-1.257 1.947-1.7 3.15-1.331Z" fill="#E0D6CD"/>
        <path fill="#E8DACE" d="m45.309 57.005 8.462 2.188.785 1.673-3.709 1.24-2.886.267z"/>
        <path d="m43.507 53.352 3.076-2.6 1.307 1.33c3.304 3.4 5.606 6.125 6.908 8.173-1.574.569-2.497.745-2.768.529-2.098-1.67-3.586-2.175-6.456-3.248l-2.067-4.184Z" fill="#C3B6AA"/>
        <path d="M49.933 60.066c1.202-.118 2.858-.069 4.244-.007l.38.807-3.71 1.24-2.886.267-.96-1.943a69.427 69.427 0 0 1 2.932-.364Z" fill="#AAA19A"/>
        <path d="m61.054 51.31.234.422c.944 1.779 2.161 2.412 2.186 1.704l-.006-.123c-.103-.83.676-.968 1.35-.613l.153.091c.36.237 1.67.87 3.006 1.32l6.6 4.395c-1.206 1.256-2.827 2.328-3.507 2.36-1.107.052-6.558-4.26-7.452-5.028l-.12-.109c-.061-.072-3.613-3.38-4.086-4.227-.933-1.672 1.013-1.283 1.642-.192Zm3.68-9.778 2.827 1.941c1.302.885 2.663 1.803 3.369 2.284.634.432 1.43 1.062 2.392 1.891.97 1.714 2.406 6.416 2.694 8.081.131.754-.478 1.744-1.323 2.654l-.464-3.849-1.136-1.027c-1.83-1.644-3.346-2.952-4.55-3.923-.956-1.213-.985-2.014-.083-2.402l.545-.198c1.547-.624-1.124-.857-4.893-2.675-2.453-1.183-3.524-2.89-3.213-5.118l2.357 1.412c.64.39 1.132.7 1.478.93Z" fill="#E6DDD4"/>
        <path d="m61.05 49.5 12.653 8.428c-.355 1.365-.849 2.456-1.478 2.938-2.291 1.755-5.65-2.856-7.707-4.767-1.286-1.195-2.441-3.394-3.467-6.598Zm3.657-7.986 2.854 1.96c1.302.884 2.663 1.802 3.369 2.283.755.514 1.742 1.31 2.96 2.388.504 1.32.618 3.995.362 6.575l-.023-.186-1.183-1.07a170.456 170.456 0 0 0-2.12-1.874 1.644 1.644 0 0 0-.134-.275l-.084-.124c-.862-1.14-.703-2.679-.82-4.08-.118-1.403-4.175-2.811-5.428-3.617-.803-.516-1.626-2.183-1.784-3.245l1.33.817c.277.173.51.322.7.448Z" fill="#D9CDC3"/>
        <path d="m52.357 43.713 5.334 3.552c.224.42.374.762.378.954.021.884-.618 2.54-.127 3.297.327.505 2.518 2.142 6.572 4.912-.75.684-1.683.766-2.795.247l-.856-.412C58.25 54.966 52.15 51.578 52.209 48c.023-1.441.05-2.968.148-4.287Zm1.676-3.37.485.327c2.07 1.362 7.145 4.392 8.48 5.107l.726.364c1.288.63 3.37 1.624 3.875 2.014l1.303 1.071c.484.406 1.086.915 1.806 1.527.014.234-.063.385-.229.452l-.867-.739c-1.382-1.163-2.447-1.983-3.198-2.466-2.037-1.31-3.144-1.502-6.042-3.17l-2.376-1.395a310.107 310.107 0 0 0-5.007-2.849c.248-.436.587-.562 1.044-.242Z" fill="#C0B3A7"/>
        <path d="m53.689 44.602 13.68 9.105.008.02-1.1-.604-10.973-6.655c-.58-.353-1.126-1.023-1.615-1.866Zm1.979-8.15.184-.217 4.317 2.52c2.292 1.352 3.824 2.284 4.595 2.797l2.797 1.921 3.407 2.31 1.86 1.698-1.136-.905c-.46-.36-.855-.659-1.186-.898l-.45-.314-.994-.635c-1.376-.864-3.689-2.293-5.069-3.166l-1.462-.947c-1.01-.64-3.298-2.028-6.863-4.164Zm-2.041 2.333 1.452 2.976-2.718-1.524 1.266-1.452Z" fill="#FAF6F3"/>
        <path d="M22.88 59.488c-.137.523-.062.81.222.863.427.08 5.497-1.685 5.556-1.568.058.117-3.173 1.5-4.044 1.894-.871.393-1.931 1.116-2.493.701-.561-.415-.094-1.093.098-1.345.128-.169.348-.35.66-.545Z" fill="#F26652"/>
        <path d="M11.315 63.887c9.515-.061 14.316-.058 14.403.01.13.102.865.863 1.273.822.408-.042.943-1.067 1.075-1.125.132-.059 5.673-.353 7.911-.708 2.238-.355 9.662-1.814 11.007-1.92 1.345-.106 8.149-.808 9.764-.826 1.616-.018 12.966 1.277 15.663 1.085 2.696-.192 7-2.857 7.486-3.497.487-.64 1.148-1.238 1.381-1.234.233.003 1.521.95 2.39 4.092.373.239 2.332 2.248 2.332 3.882 0 1.09-.134 2.017-.402 2.785.016.297-.031.53-.143.699-.167.252-.925 1.771-3.985 2.55-.369-.056-.49-.111-.634 0-.143.11-.308.525-.598.53-.29.003-.902-.106-1.065 0-.163.104-.43.266-.652.288a3.996 3.996 0 0 1-.595 0 .777.777 0 0 1-.334 0c-.126-.024-.578.076-1.354.3h-.354a1.048 1.048 0 0 0-.52.128C75.15 71.87 73.602 72 72 72H60.431l-.819-.68c-1.296-.477-2.101-.94-2.415-1.388-.893-.026-2.645-.026-5.255 0l-.3-.182v.182h-.47c-.28.507-.644.793-1.091.858-.672.097-1.743.04-2.081.241-.226.134-.559.457-1 .969H34.732c-.559-.379-.924-.878-1.095-1.499-.249-.089-.417.531-.462.683-.046.151-.041.446-.293.437-.252-.01-1.544.168-1.7 0a1.413 1.413 0 0 1-.262-.437c-.227.203-.51.303-.846.3-.505-.005-1.11-.22-1.415-.3-.306-.08-.412-.714-.593-.683-.18.031-.514.612-.796.53-.283-.082-2.393-.403-2.822-.53-.286-.084-.51-.335-.673-.751-.152.228-.329.345-.53.35-.301.006-3.162-.498-3.763-.693-.401-.13-.753-.357-1.056-.68-.146.138-.372.184-.678.14-.459-.067-2.864-.62-3.144-.746-.187-.085-.389-.24-.607-.468-.108.081-.377.081-.806 0-.643-.123-1.834-.71-2.115-1.06-.282-.35-.73-.443-.869-2.548A31.625 31.625 0 0 0 10 62c.324-1.144.683-1.818 1.076-2.021.59-.305.412.1.265.607-.148.507-.335 1.075-.341 1.698-.004.414.101.949.315 1.603Z" fill="#DCDBE3"/>
        <path d="M58.092 61.417c5.473.484 15.423 2.246 19.076 4.092.138 1.16.609 2.219 1.413 3.174.543.645 1.447 1.109 2.71 1.392l-8.73 1.71-12.13.215-.819-.68c-1.296-.477-2.101-.94-2.415-1.388l-1.286-.018c-.968-.005-2.291.001-3.969.018l-.3-.182v.182h-.47c-.28.507-.644.793-1.091.858-.672.097-1.743.04-2.081.241-.226.134-.559.457-1 .969H34.732c-.559-.379-.924-.878-1.095-1.499-.249-.089-.417.531-.462.683l-.04.182c-.031.132-.085.26-.253.255-.252-.01-1.544.168-1.7 0a1.413 1.413 0 0 1-.262-.437c-.227.203-.51.303-.846.3-.505-.005-1.11-.22-1.415-.3-.306-.08-.412-.714-.593-.683-.18.031-.514.612-.796.53-.283-.082-2.393-.403-2.822-.53-.286-.084-.51-.335-.673-.751-.152.228-.329.345-.53.35-.301.006-3.162-.498-3.763-.693-.401-.13-.753-.357-1.056-.68-.146.138-.372.184-.678.14l-.568-.11c-.194-.042-.417-.091-.65-.144a7.149 7.149 0 0 1-.284-1.883l2.696.284c6.644.676 11.42.966 14.327.869l5.826-.245c2.707-.135 5.086-.35 6.71-.908 2.656-.912.282-4.26 2.746-5.17 1.78-.657 3.362-.619 5.644-.444l3.897.301Z" fill="#D1D0D7"/>
        <path d="m49.13 64.362 4.522.062c4.575.092 7.12.261 7.636.507.999.476.627.738 1.87 1.006l.271.041c2.07.243 11.662.394 10.722.592-.992.209-8.865.101-10.301.627-1.436.525-1.134 1.616-.602 2.383.502.724 2.919 1.485 5.192 1.538l.4.002c.747-.011.341.369-.725.88h-7.684l-.819-.68c-1.296-.477-2.101-.94-2.415-1.388l-1.286-.018c-.968-.005-2.291.001-3.969.018l-.3-.182v.182h-.47c-.28.507-.644.793-1.091.858-.672.097-1.743.04-2.081.241-.226.134-.559.457-1 .969l-3.712-.001c-.385-.987-1.116-1.857-2.194-2.612l1.216-.046c2.704-.117 4.482-.319 5.333-.605.972-.327 1.468-1.785 1.487-4.374Z" fill="#C6C5CF"/>
        <path d="M81.278 56.494c.233.003 1.521.95 2.39 4.092.373.239 2.332 2.248 2.332 3.882 0 .807-.074 1.526-.221 2.157.006-.567.004-1.129-.007-1.689-.022-1.08-1.011-2.507-1.527-2.856-.354-.24-1.023.233-1.912.99l-2.547 2.215c-1.067.912-1.986 1.628-2.46 1.635l-.367-.014c-2.06-.103-11.508-.771-11.596-.803l11.75.241c.188.001.301 0 .324-.003.247-.038 5.525-5.223 5.96-5.637.289-.276.203-.406-.26-.389l-.537-1.052c-.426-.82-.717-1.337-.872-1.548-.275-.375-.938-.687-1.21-.694.323-.313.62-.53.76-.527Z" fill="#EBEAEF"/>
        <path d="M61.288 64.931c.092.044.173.086.245.127l-1.16.39c-1.276.445-2.036.77-2.281.978-.527.445.887 3.06 1.288 3.371.402.311 3.294.732 3.2.978-.05.132-2.218.24-3.639.278-.909-.382-1.489-.756-1.744-1.121l-1.286-.018-2.777.007-1.192.011-.3-.182v.182h-.47c-.28.507-.644.793-1.091.858-.672.097-1.743.04-2.081.241-.226.134-.559.457-1 .969h-.417c-.713-.254-1.211-.792-1.497-1.613l.977-.03c1.839-.078 2.988-.255 3.448-.532.537-.323.677-1.419.422-3.289l6.343-1.727h4.559c.212.039.363.08.453.122Z" fill="#A7A5B6"/>
        <path d="M55.374 61.257c-1.549.086-4.697-.032-6.853.14-2.156.173-7.344 1.003-8.803 1.273-.973.18-1.726.282-2.26.306 3.754-.886 5.903-1.387 6.447-1.504.817-.175 3.787-.658 6.028-.8 1.494-.095 3.783-.159 6.869-.192.08.46-.396.72-1.428.777Z" fill="#BAB7BF"/>
        <path d="M44.155 61.412c-2.561.731-4.811 1.26-6.749 1.584l-.816.13c-3.47.518-7.685.803-8.03.82-.373.02-.968.918-1.528.985-.56.067-1.333-.521-1.592-.569l-.318-.032a42.052 42.052 0 0 0-2.11-.08l-2.25-.03c-1.198-.027-3.05-.088-5.558-.182l-3.89-.15-.345-.892.105-.01c.053.27.133.57.24.901l11.107-.043c2.157.003 3.256.02 3.297.053l.298.267c.286.253.703.582.975.555.408-.042.943-1.067 1.075-1.125.127-.056 5.255-.33 7.639-.667l.272-.04c1.343-.214 4.552-.824 7.196-1.301l.982-.174Z" fill="#FFF"/>
        <path d="m35.878 65.369 6.831 5.267-6.544.855-2.107-.125a2.565 2.565 0 0 1-.42-.865c-.25-.089-.418.531-.463.683l-.029.127-.586-.036-1.65-1.224-1.595-2.854c-.275-.621-.275-.983 0-1.085l.122-.031c.566-.117 2.713-.354 6.441-.712Z" fill="#DAD8E3"/>
        <path d="M29.677 67.85c-.368-.975-.368-1.497 0-1.567.552-.105 5.888-.627 6.059-.556.114.048 1.933 1.293 5.457 3.736-3.396-3.045-5.216-4.556-5.457-4.532-.363.036-5.967.544-6.314.601-.348.057-.618.723-.417 1.222.135.332.358.698.672 1.096Z" fill="#F0F0F7"/>
        <path d="m85.501 67.868-.022.044-.195.308c-.368.536-1.337 1.651-3.814 2.281l-.401-.062a.305.305 0 0 0-.233.062c-.143.11-.308.526-.598.53-.29.004-.902-.105-1.065 0-.163.105-.43.267-.652.289a3.996 3.996 0 0 1-.595 0 .682.682 0 0 1-.213.016l-.121-.016c-.126-.024-.578.076-1.354.3h-.354c-.136.002-.259.022-.368.059l-.152.069C75.15 71.87 73.602 72 72 72H60.431l-.819-.68c-1.177-.433-1.95-.855-2.316-1.264l1.285.49c.294.125 1.81.35 4.003.378l8.668.036c1.065-.001 1.906-.01 2.276-.033l1.56-.129c2.41-.223 6.52-.68 7.38-1.063.861-.383 2.252-1.272 3.033-1.867ZM46.175 70.54c.033.4.504.481.94.481l.16-.003c.152-.006.387.002.706.024L48 71.03c-.226.134-.559.457-1 .969H34.732c-.53-.359-.885-.826-1.066-1.403.12.09.277.16.376.168.205.014 1.257-.11 1.6-.486l.205-.012c.207-.007.548-.01.967-.012l5.383.024c1.047 0 3.94-.19 3.978.262ZM11.34 60.586c-.11.29-.335 1.075-.341 1.698-.004.414.101.949.315 1.603-.114.413.16.935.641 1.397l.219.2c.47.403.985.62 2.797 1.014l8.93 1.916c.686.144 1.287.267 1.743.358l4.833.866c.301.052.51.087.575.097.278.042 1.032.742 1.086.806.054.064.426.167.514 0 .09-.168.47-.273.48-.49.008-.217.11-1.16.242-1.169.12-.008.278.984.197 1.314l-.036.083c-.055.065-.032.144.03.22l.071.002c-.249-.089-.417.531-.462.683l-.04.182c-.031.132-.085.26-.253.255-.252-.01-1.544.168-1.7 0a1.413 1.413 0 0 1-.262-.437c-.227.203-.51.303-.846.3-.505-.005-1.11-.22-1.415-.3-.306-.08-.412-.714-.593-.683-.18.031-.514.612-.796.53-.283-.082-2.393-.403-2.822-.53-.286-.084-.51-.335-.673-.751-.152.228-.329.345-.53.35-.301.006-3.162-.498-3.763-.693-.401-.13-.753-.357-1.056-.68-.146.138-.372.184-.678.14l-.335-.062c-.813-.165-2.572-.577-2.809-.684-.187-.085-.389-.24-.607-.468-.108.081-.377.081-.806 0-.643-.123-1.834-.71-2.115-1.06l-.106-.116c-.258-.264-.592-.536-.735-2.081l-.028-.351A31.624 31.624 0 0 0 10 62c.324-1.144.683-1.818 1.076-2.021.393-.204.602-.127.55.12a1.548 1.548 0 0 0-.285.487Z" fill="#242424"/>
        <path d="m85.501 67.868-.022.044-.195.308-.168.226c-.466.581-1.479 1.504-3.646 2.055l-.401-.062a.305.305 0 0 0-.233.062c-.143.11-.308.526-.598.53-.29.004-.902-.105-1.065 0-.163.105-.43.267-.652.289a3.996 3.996 0 0 1-.595 0l-.063.01-.256-.255a.4.4 0 0 0-.043-.033c-.111-.07-1.177.11-1.225.18l-.217.395-.238.004c-.136.001-.259.02-.368.058l-.152.069c-.18.103-1.297.21-2.598.243-.117-.373-.197-.53-.24-.474-.035.043-.1.203-.2.48L72 72h-3.372c-.128-.236-.287-.475-.376-.483-.088-.009-.186.152-.293.483l-.925.001c-.174-.334-.308-.492-.4-.472-.09.019-.182.176-.277.47l-3.747-.001-.105-.335c-.064-.179-.116-.27-.157-.274-.076-.008-.198.244-.365.757L62.03 72H60.43l-.657-.546-.432-.75c.706.103 1.835.202 3.242.22l8.668.036 1.674-.013.602-.02 1.56-.129 1.249-.122 1.748-.191c1.927-.226 3.83-.504 4.383-.75.861-.383 2.252-1.272 3.033-1.867Z" fill="#CA391E"/>
        <path d="M51.188 70.005c-1.1-2.36-1.732-3.743-1.898-4.148-.249-.607-1.01-1.374-.663-2.427.346-1.053.551-1.111.87-1.294.32-.184 12.91-6.575 13.253-6.738.342-.164 1.212.2 2.272 1.018 1.06.818 4.649 3.1 5.108 3.22.46.12 1.202.088 1.791-.253.59-.34 1.2-.757 1.192-1-.008-.243-1.926-1.415-2.983-1.967-1.057-.552-3.438-1.973-3.622-2.108-.183-.136-.659-.672 0-1.319.66-.647 6.102-5.624 6.527-6.056.424-.432.705-.487.802-.47.065.013.212.07.44.172.758-.872 1.184-1.295 1.279-1.27.14.037 1.657 1.684 2.06 2.105.401.421 2.051 3.186 2.09 3.415.038.229-.564 1.136-.84 1.498-.184.241-.67.824-1.458 1.748-.334-.192-.515-.133-.544.177-.043.464.007.737.544 1.09.536.353 2.89 1.618 3.626 2.164.736.547 2.293 2.029 2.495 2.287.203.258.467.844-.455 1.67-.921.827-5.175 4.615-5.459 4.837-.284.222-2.569.095-4.58 0s-12.115-.486-13.288-.5c-1.174-.013-2.025-.18-2.316.5-.291.68.148 1.18.211 1.444s.874 1.44.83 1.606c-.044.166-.144.384-.305.337a15.006 15.006 0 0 1-.525-.17c-.045.168-.187.28-.425.334-.237.054-1.996.063-5.275.025l-.3-.19c.004.134-.032.225-.108.275-.077.05-.192.045-.346-.012Z" fill="#A8AAB9"/>
        <path d="m77.408 55.398.364.222c.858.503 2.64 1.48 3.262 1.942l.39.311c.793.663 1.934 1.757 2.105 1.976.203.258.467.844-.455 1.67l-4.2 3.737a11.9 11.9 0 0 1-1.466.064c-4.57-.086-12.527-7.242-15.122-9.692l.464-.23a.552.552 0 0 1 .298-.032l1.063.43c.186.107.385.236.592.384l.32.236c1.06.818 4.648 3.1 5.107 3.22.46.12 1.202.088 1.791-.253l.389-.235c.44-.282.809-.576.803-.765-.003-.097-.313-.344-.75-.64l.37-.328c.812-.703 2.08-1.667 4.13-2.734.033.263.17.47.545.717Z" fill="#B1B3C0"/>
        <path d="M77.615 66.356c-.167.13-1.026.14-2.115.107l-10.582-.431a495.916 495.916 0 0 0-5.025-.173l-.146-.002c-1.174-.014-2.025-.181-2.316.5-.291.68.148 1.179.211 1.443s.874 1.44.83 1.606c-.044.166-.144.384-.305.337l-.525-.17c-.045.168-.187.28-.425.334l-.245.023c-.62.033-2.297.033-5.03.002l-.3-.19c.004.134-.032.225-.108.275-.077.05-.192.045-.346-.012l-1.255-2.71c-.178-.39-.321-.706-.43-.95l4.476.007c.199-.002.354-.006.465-.01.874-.037 2.422-2.51 4.003-3.158l.317-.104c1.688-.413 5.161-5.943 6.185-5.666 1.023.277 3.77 2.83 5.58 4.563 1.812 1.733 5.438 3.082 6.556 2.805.643-.159 1.947-.629 3.911-1.41l-3.38 2.984Z" fill="#9395A3"/>
        <path d="M58.472 69.406c-.044.166-.144.384-.305.337l-.525-.17c-.045.168-.187.28-.425.334l-.245.023-.973.022c-.883.008-2.235 0-4.057-.02l-.3-.19c.004.134-.032.225-.108.275-.077.05-.192.045-.346-.012l-.593-1.283 7.55.001.241.432c.061.122.096.213.086.251Z" fill="#858796"/>
        <path d="M74.103 47.11c.357.065 1.46 1.277 2.277 2.376l2.062 2.7-.047.289c-.528.353-.891.653-1.087.893l-.213.257c-.351.433-.479.745-.381 1.11l.064.191c.154.365.5.665 1.571 1.331l.949.576c1.984 1.185 4.052 2.894 4.097 3.395.024.273-.23.61-.916 1.267l-4.33 3.92-.134.112-.235.171-.045.029a2.166 2.166 0 0 1-.928.311l-.285.017-3.709-.113-10.55-.384-.972-.065c-.4-.027-.747-.046-1.077-.06l-.671-.016c-.723-.007-1.227.036-1.443.134-.827.375-1.396 1.013-1.32 1.621.028.218.118.5.262.831l.116.257.203.4.459.82-.018.147-.16-.054c-.045.168-.187.28-.425.334l-.14.017.319-.376-.46-.835a9.226 9.226 0 0 1-.262-.55c-.157-.363-.257-.678-.29-.941-.104-.826.583-1.596 1.55-2.035.361-.164 1.137-.2 2.296-.153l2.437.142 13.851.479c.42-.005.736-.1 1.006-.268l.15-.102.095-.074c.114-.089.797-.699 1.624-1.445l2.078-1.884c1.025-.928 1.538-1.473 1.525-1.619-.025-.288-1.842-1.804-3.595-2.898l-1.008-.61-.601-.377c-1.063-.686-1.322-1-1.465-1.54-.119-.447-.01-.82.291-1.247l.38-.476c.18-.222.467-.472.86-.755l.138-.096-.313-.412-2.739 2.768-.245.03-4.429-2.664-.03-.32 4.229-3.803c-.212-.211-.372-.347-.437-.358-.13-.024-5.584 5.25-6.3 6.052-.094.104-.09.18.005.296.084.101.23.21.427.322l.61.319.492.273c1.705.968 4.666 2.813 4.818 3.155.242.542-.359 1.34-1.444 2.127-.876.635-2.021.829-2.565.58l-.384-.209-2.189-1.288a423.978 423.978 0 0 1-4.049-2.459L50.2 63.182l-.17.088c-.414.225-.563.632-.42.876l.272.554.846 1.85.345.77.948 2.142-.15.424-.228-.143c.004.133-.032.224-.108.274l-.06.024a.2.2 0 0 1-.031-.097l.01-.078.197-.387-2.332-5.026-.055-.105c-.264-.453-.026-1.103.575-1.43l1.586-.788c2.04-1 6.03-2.936 12.043-5.809l5.524 3.237c.595.345.982.565 1.157.66l.093.048c.402.183 1.398.015 2.164-.54.934-.678 1.443-1.353 1.314-1.641-.12-.27-4.083-2.689-5.354-3.356l-.163-.083c-.355-.174-.616-.35-.773-.539-.216-.261-.228-.557.004-.817.98-1.098 6.305-6.245 6.67-6.18Zm.647 1.045-4.042 3.627 4.062 2.444 2.667-2.694-1.378-1.808a20.188 20.188 0 0 0-1.31-1.569Z" fill="#787883"/>
        <path d="m75.556 45.365.033.04.104.066c.414.377 1.578 1.638 1.922 1.999.402.421 2.052 3.186 2.09 3.415.037.218-.505 1.047-.796 1.44l-2.475-3.254c-.772-1-1.256-1.603-1.451-1.808l-.046-.047a11.776 11.776 0 0 0-.583-.51l-.104-.084.028.013.415-.47c.5-.553.787-.82.863-.8Z" fill="#B8BAC9"/>
        <path d="M77.615 47.47c.27.282 1.1 1.618 1.63 2.536l-.26.083-.91-1.487-.235.242-1.824-1.629.543-.866 1.056 1.12Z" fill="#DBDBDC"/>
        <path d="M63.453 56.673c.107-.347.022-.614-.254-.802-.413-.281-5.017-3.77-5.34-3.982-.322-.212-.535-1.169 0-2.034.536-.864 1.733-3.383 1.088-6.733-.646-3.35-2.143-10.214-2.564-11.42-.422-1.207-1.698-3.502-2.274-3.783-.576-.282-1.337-.919-1.618-.782-.281.137-1.22 2.13-1.528 2.419-.307.29-3.014 3.582-4.169 5.785-1.154 2.202-2.146 4.067-3.224 5.169a31.981 31.981 0 0 1-3.636 3.134c-1.092.797-2.313 2.383-2.739 3.002-.425.62-1.85 2.32-2.565 2.96-.478.425-1.674 1.258-3.59 2.498l-.362.183-.327-.183c-.461-.038-.966.103-1.517.424-.825.482-.936.921-.858 1.045.05.077-.179.308-.656.667-.02.016-.038.076-.051.18 1.227 1.042 3.014 1.71 5.359 2.007 3.518.445 8.028.515 10.533.104 2.505-.411 3.1-.786 3.632-.485.534.302 4.847 3.368 5.249 3.603.267.156.68.378 1.235.666l10.176-3.642Z" fill="#8F2913"/>
        <path d="M63.453 56.673c.107-.347.022-.614-.254-.802-.413-.281-5.017-3.77-5.34-3.982-.322-.212-.535-1.169 0-2.034.536-.864 1.733-3.383 1.088-6.733-.646-3.35-2.143-10.214-2.564-11.42-.422-1.207-1.698-3.502-2.274-3.783-.576-.282-1.337-.919-1.618-.782-.281.137-1.22 2.13-1.528 2.419-.307.29-3.014 3.582-4.169 5.785-1.154 2.202-2.146 4.067-3.224 5.169a31.981 31.981 0 0 1-3.636 3.134c-1.092.797-2.313 2.383-2.739 3.002-.425.62-1.85 2.32-2.565 2.96-.478.425-1.674 1.258-3.59 2.498l-.362.183-.327-.183c-.461-.038-.966.103-1.517.424-.825.482-.936.921-.858 1.045.052.082-.183.306-.706.672 1.227 1.042 3.014 1.71 5.359 2.007 3.518.445 8.028.515 10.533.104 2.504-.411 3.099-.786 3.632-.485.534.302 4.847 3.368 5.248 3.603.268.156.68.378 1.236.666l10.175-3.467Z" fill="#E1583A"/>
        <path d="m57.952 49.647.097-.122-.19.33c-.535.865-.322 1.822 0 2.034l.376.273c1.176.87 4.61 3.468 4.964 3.71.23.156.327.367.292.634l-.038.167-10.175 3.467-.845-.447a16.033 16.033 0 0 1-.39-.22l-.42-.277c-1.191-.814-4.375-3.069-4.829-3.325a.82.82 0 0 0-.146-.065l-.139-.18c2.458-.618 4.678-1.367 6.66-2.248 1.803-.8 3.397-2.044 4.783-3.73Z" fill="#CB4528"/>
        <path d="M52.901 28.686c2.72 4.205 3.444 10.036 3.718 12.742.673 6.649-.622 8.096-2.064 9.1l-.132.09c-1.493 1.01-5.75 3.1-9.154 4.112-3.403 1.011-9.937 1.085-12.433.626-1.826-.336-3.892-.976-5.044-1.513.153-.135.213-.224.184-.27-.078-.124.033-.563.858-1.045.459-.268.886-.41 1.283-.428l.234.004.327.183.362-.183 1.564-1.029c1.02-.685 1.695-1.175 2.026-1.47.644-.575 1.862-2.01 2.41-2.743l.461-.639c.56-.746 1.54-1.927 2.433-2.58a31.981 31.981 0 0 0 3.636-3.133c.784-.801 1.522-2.006 2.311-3.451l.913-1.718c1.054-2.011 3.403-4.931 4.037-5.644l.132-.141c.01-.01.336-.53.976-1.56.55.319.87.549.962.69Z" fill="#F76D4F"/>
        <path d="m30.117 52.1.234.004.3.168-.168.145a7.095 7.095 0 0 1-.92.606c-.812.457-1.37.581-1.595.615l.014-.038-.006-.027c-.045-.072-.026-.252.161-.485a.919.919 0 0 0 .218-.07l.14-.067c.31-.159.755-.308 1.347-.717a.226.226 0 0 0 .076-.11l.199-.024Z" fill="#A13F29"/>
        <path d="M52.209 30.835c.52.962 1.707 4.276 2.235 6.686.528 2.41 1.003 5.094 1.152 7.172l.036.594c.078 1.698-.182 2.687-2.354 4.063-2.414 1.528-7.605 3.553-10.134 3.991-2.53.439-5.602.55-8.08.524-2.477-.024-3.376-.865-4.024-1.76l1.564-1.03c1.02-.685 1.695-1.175 2.026-1.47.644-.575 1.862-2.01 2.41-2.743l.461-.639c.56-.746 1.54-1.927 2.433-2.58a31.981 31.981 0 0 0 3.636-3.133c.784-.801 1.522-2.006 2.311-3.451l.913-1.718c1.155-2.203 3.862-5.496 4.17-5.785.586.41 1.004.834 1.245 1.279Z" fill="#E8E5E2"/>
        <path d="M50.963 29.556c.587.41 1.005.834 1.246 1.279l.13.26c-.73 2.577-1.143 4.823-1.241 6.74l-.02.627c-.078 5.17-5.635 13.048-14.592 14.59-2.449.421-4.798-.052-5.446-.948l1.564-1.029.905-.62c.527-.37.9-.653 1.12-.85.645-.575 1.863-2.01 2.41-2.743l.462-.639c.56-.746 1.54-1.927 2.433-2.58a31.981 31.981 0 0 0 3.636-3.133c.784-.801 1.522-2.006 2.311-3.451l.913-1.718c1.155-2.203 3.862-5.496 4.17-5.785Z" fill="#F1EFEE"/>
        <path d="m35.35 49.605-.923 1.147h-.345l.704-1.031.564-.116Zm3.063 0c.077-.016-.004.357-.244 1.119-.51.04-.713-.052-.61-.275a.515.515 0 0 1 .255-.271c-.08-.05-.066-.396.043-.573.12-.196.44.024.556 0Zm4.598-.401c-.014.181-.418.214-.486.153-.069-.061-.018-.158.127-.23.145-.07.374-.104.36.077Zm3.376-3.249.826.826-.104.19-1.304-.277.11-.196.561.004-.245-.33.156-.217Zm-1.531-7.134c.004.147-.017.316-.06.502-.083.354-.729 1.121-1.936 2.301.123.09.193.12.211.088.839-.583 1.51-1.38 2.015-2.39.005.386-.058.772-.191 1.157-.118.343-.54.79-1.266 1.344l-.287.213.413.446-.684.668-.691-.328a10.956 10.956 0 0 0-1.348 1.623 2.26 2.26 0 0 1-.256.308c.193.082.376.15.522.196l.133.039c.684.186 1.405.311 2.315-.01l.35-.143c.204-.104.326.214-.246.415-.571.2-1.468.309-2.188.114a9.963 9.963 0 0 1-1.12-.397c-.694.607-1.78 1.172-2.388 1.383l-.204.061c-.224.056-.507.18-.85.37l.401-.558.273-.354c.386-.183.873-.302 1.188-.505.254-.164.615-.473.884-.716l-.264-.15a.887.887 0 0 1-.161-.125.44.44 0 0 1-.115-.202l.222-.203.056.068c.095.108.192.194.29.258l.22.125 1.663-1.707c.066-.12.066-.197 0-.23-.066-.034-.615.396-1.646 1.288l1.161-1.166.038-.036a30.476 30.476 0 0 0 2.26-2.058c.437-.447.86-1.02 1.286-1.69Zm3.025 4.544 1.398.311-.122.311-1.394-.358.118-.264Zm.982-3.325c.117.002.637.37.737.286.1-.085.443-.141.612-.115.096.015.14.124.13.327l-.01.109h-1.628v-.2h.453l-.453-.236c.028-.115.081-.172.16-.17Zm1.3-3.805.08.212-.463.23v.157l.577-.158.087.158-1.57.521v-.198l.647-.2-.095-.123-.634.122c-.137-.058-.185-.096-.145-.115l.028-.007c.082-.014.578-.214 1.489-.6Zm-1.806-2.78.164.111c-.53.56-.823.897-.877 1.012-.08.172.166.108.356 0 .127-.073.341-.329.644-.77.178.038.238.096.18.177-.369.492-1 1.02-1.203.937-.202-.083-.29-.3-.1-.498.128-.132.406-.455.836-.97Z" fill="#515151"/>
        <path d="M69.224 61.96c.057-.395-.637-1.235-1.983-2.324-1.347-1.089-7.298-6.263-7.689-6.318-.39-.054-1.087.316-4.593 2.41-3.505 2.094-4.513 2.252-3.519 3.21.995.958 9.025 7.566 9.4 7.598.375.032 8.326-4.18 8.384-4.576Z" fill="#403C3C"/>
        <path d="M68.836 61.955c.057-.396-.636-1.236-1.983-2.325-1.346-1.088-7.088-5.976-7.48-6.03-.39-.055-.76.1-4.265 2.194-3.506 2.094-4.45 2.11-3.456 3.069.994.958 8.868 7.446 9.243 7.478.375.032 7.884-3.99 7.941-4.386Z" fill="#252222"/>
        <path fill="#4E4F58" d="m66.48 61.397-1.643-1.33-5.918 3.64 1.928 1.23z"/>
        <path fill="#AAA9B5" d="m64.575 59.382-1.643-1.331-5.919 3.64 1.928 1.23z"/>
        <path d="M57.741 55.297c-.824.413-5.211 2.894-5.446 3.132-.235.238.065.543.23.728.164.185 2.569 2.027 2.746 2.048.178.021 7.255-3.807 7.249-4.06-.007-.252-2.644-2.722-2.85-2.74-.204-.018-1.104.478-1.929.892ZM62.697 57.358c.176-.036 3.395 2.829 3.923 3.31.528.482 1.212.864.82 1.18-.39.317-6.318 4.095-6.558 3.935-.16-.106-1.923-1.547-5.286-4.323 4.616-2.71 6.984-4.077 7.101-4.102Zm-.82 5.131-.099.018c-.52.149-1.248.573-1.459.986-.21.412.28.82.636.732.356-.087 1.17-.774 1.299-.958.128-.184.045-.908-.476-.76Zm-2.346-1.915-.095.018c-.521.148-1.246.424-1.504.932-.259.508.353 1.066.872.845.519-.222 1.195-.518 1.305-.85.111-.33-.152-1.076-.673-.927Zm5.607.073-.099.018c-.52.149-1.31.55-1.52.962-.211.412.28.82.635.733.356-.088 1.232-.751 1.36-.935.129-.184.046-.908-.475-.76Zm-1.892-2.088-.094.018c-.522.148-1.246.424-1.505.932-.258.507.353 1.066.872.845.52-.222 1.195-.518 1.306-.85.11-.33-.152-1.076-.673-.927Z" fill="#353439"/>
    </g>
</svg>
