<svg width="96" height="96" xmlns="http://www.w3.org/2000/svg">
    <defs>
        <path id="a" d="M0 0h96v96H0z"/>
    </defs>
    <g fill="none" fill-rule="evenodd">
        <path d="M58.157 38.622c.104-.318.231-.714.382-1.19.226-.713.517-1.38.683-1.645.167-.263 1.381-1.565 1.513-1.917.13-.353-.077-.573-.144-.68-.066-.108.312-.309.587-.421.275-.113.736-.31.884-.762.148-.453.127-.804-.455-1.148-.583-.345-1.926-.751-2.11-.744-.184.006-.747.151-.958.598-.211.447-.15.986-.17 1.07-.021.083-.135 0-.205.074-.07.074-.26.572-.35.84-.09.267.081.1-.331.492-.412.393-.763.452-.938.68-.176.229-.473.42-.555.496-.083.076-.392.411-.506.525-.114.115-.546.274-.599.446-.052.17-.165.172-.423.374-.259.2-.369.379-.362.438.006.06.041.355-.051.401-.093.046-.468.294-.61.52-.14.228-.202.597-.322.674-.12.077-.85 1.273-1.5 1.798-.65.525-1.43 1.414-1.94 2.041-.509.628-1.518 1.682-1.84 1.834-.323.152-2.671.751-3.29 1.053-.62.301-1.733 1.503-2.189 2.002-.303.332-.5.542-.589.63-.619.402-1.12.702-1.503.899-.574.295-3.134.934-4.323 1.483-1.188.549-2.993 1.653-3.475 2.048-.358.188-1.238-.14-1.808.134-.57.274-1.428 1.098-1.763 1.338-.335.24-3.266 1.068-4.07 1.195-.804.127-3.104.71-5.177 1.144-2.073.434-5.913 1.025-7.137 2.036-1.223 1.011-1.396 1.74-1.482 2.18-.085.44 2.185 2.919 7.062 4.822 4.878 1.903 9.98 2.428 16.698 2.512 6.717.085 13.038.398 21.651-2.912s11.781-3.075 14.618-2.44c2.836.634 13.783 2.305 14.166 2.006.382-.298.774-.802.774-1.546 0-.496-.047-1.17-.142-2.02.174-2.46.09-4.453-.254-5.978-.517-2.288-3.135-11.122-3.332-11.66-.196-.539-.85-5.527-.963-5.733a.552.552 0 0 0-.213-.198c.014-.56-.033-1.02-.14-1.376-.16-.534-.187-1.044-.429-1.064a1.426 1.426 0 0 0-.345 0c-.62.153-1.204.36-1.752.618-.822.389-3.141 2.37-4.14 3.497-.997 1.126-3.048 3.053-4.237 3.496-1.19.444-4.182.575-7.211-.727-2.02-.867-3.581-1.612-4.685-2.233Z" fill="#302B2B"/>
        <path d="M59.497 30.115c.184-.007 1.527.4 2.11.744.582.344.603.695.455 1.148l.024-.092-.659-.386c-.274-.157-.22-.458-.435-.571-.345-.182-1.273-.445-1.468-.516-.505-.182-.67.2-.98.263.213-.44.77-.584.953-.59Z" fill="#7B7B7B"/>
        <path d="m80.82 34.49.061.262.076.283c.106.357.153.815.139 1.376.09.047.16.113.213.198.108.196.703 4.707.93 5.62l.591 1.932c.85 2.842 2.39 8.143 2.774 9.841.344 1.525.428 3.518.254 5.978l.036.331-.619.793a93.898 93.898 0 0 1-1.937 2.35l-.945-.11c-3.375-.413-8.824-1.279-11.028-1.739l-.305-.066c-1.47-.329-3.03-.55-5.39-.226l-.774-.134-2.361.779c-1.487.39-3.228.948-5.3 1.722l-.462.175-5.129 1.676c-1.32.345-2.589.608-3.82.808l-14.736.242-12.225-1.373-3.731-1.472a321.85 321.85 0 0 1-2.441-.984c-2.536-1.472-3.722-2.873-3.66-3.194l.074-.314c.07-.235.189-.52.43-.856.644.666 1.828 1.255 3.553 1.766 4.66 1.38 12.608-.22 13.576 0 .967.22-1.59 3.027 0 3.102 1.59.075 3.927-.26 5.29-1.365 1.279-1.037 2.566-1.775 4.508-1.328l.398.105c2.168.65 1.21-1.439 0-2.704-1.21-1.265-2.58-2.36-5.08-2.605-2.499-.244-4.755.43-6.795-.148-2.004-.569 14.964-3.185 18.208-4.544l.166-.074c2.775-1.335 24.27-4.922 28.097-8.186 2.436-2.077 4.962-5.163 6.623-7.08l.74-.837Z" fill="#191818"/>
        <path d="m82.06 41.602.017-.219.077.434c.036.193.067.345.094.444l.29.93c.279.916.734 2.448 1.213 4.095l-.23.136c-.122.071-.425-1.048-.525-1.453-.1-.404.093-.34.066-.533l-.073-.317c-.132-.512-.392-1.408-.411-1.202-.025.267-.14.435-.245.412-.105-.022-.145-.275-.127-.514l.061-.731c.02-.206.044-.385.066-.44.052-.129-.12-.283-.234-.55-.039-.088-.051-.252-.039-.492Z" fill="#D9D9D9"/>
        <path d="m81.31 36.61-1.464 1.61c-.43.483-.88 1.02-1.036 1.343-.283.58-1.802-1.708-2.39-2.709-.135-.228-.03-.576.225-.976l.535-.433c.517-.406.97-.723 1.25-.856a9.358 9.358 0 0 1 1.752-.618c.069-.014.184-.014.345 0 .12.01.188.142.245.34l.185.724c.106.357.153.815.139 1.376.09.047.16.113.213.198Z" fill="#B8B0B2"/>
        <path d="M80.527 33.97c.12.01.188.143.245.34l.185.725c.106.357.153.815.139 1.376.09.047.16.113.213.198l-1.463 1.612c-.43.482-.88 1.02-1.036 1.342-.166.34-.757-.306-1.336-1.1.214-.388.413-.706.595-.96.377-.526.743-1.599 1.1-3.218a8.661 8.661 0 0 1 1.013-.314c.069-.014.184-.014.345 0Z" fill="#B3ACAE"/>
        <path d="m80.21 35.478.598-1.028.149.585c.106.357.153.815.139 1.376.09.047.16.113.213.198l-1.463 1.612c-.43.482-.88 1.02-1.036 1.342-.127.259-.5-.054-.926-.57.06-.256.176-.498.297-.654l.93-1.165c.36-.46.698-.912.792-1.117l.118-.235c.05-.097.114-.211.189-.344Z" fill="#9F9A9C"/>
        <path d="M81.096 36.41c.09.048.16.114.213.2l-1.463 1.61c-.43.483-.88 1.02-1.036 1.343-.127.259-.5-.054-.926-.57.06-.256.176-.498.297-.654l.13-.159c.459.206.659.012.939-.251l1.026-.992c.22-.217.408-.406.495-.5.13-.142.241-.41.314-.622.013.185.016.383.01.596Z" fill="#8B898A"/>
        <path d="M81.096 36.41a.556.556 0 0 1 .163.13l-.213.176c-.626.546-2.056 1.932-2.098 1.944l2.148-2.408v.159Z" fill="#575757"/>
        <path d="M80.527 33.97c.12.01.188.143.245.34l.05.189c-.114-.152-.236-.251-.34-.199l-.239.137a89.115 89.115 0 0 0-2.311 1.444l-.482.324c-.287.213.896-1.08 1.81-1.958.297-.105.605-.198.922-.276.069-.014.184-.014.345 0Z" fill="#DED7DE"/>
        <path d="M58.362 31.792c.4.038.698.128.892.27.295.215.926.745 1.414 1.24.076.121.163.309.067.568-.132.352-1.346 1.654-1.513 1.917-.143.226-.377.75-.583 1.344l-.482 1.49c.23.13.48.266.752.406-.897.166-1.267-.196-1.107-1.085.312-1.735 1.238-3.076 1.452-3.494.213-.417-1.199.746-2.055 1.456-.855.71-6.319 7.243-8.684 9.678-2.319 2.386-20.969 8.384-22.796 8.86l-.09.023c-1.151.252-2.952 1.336-1.362 1.68 1.476.32 4.984.09 7.04.195l.447.03c1.952.175 4.604 1.158-2.512 2.3-7.117 1.144-14.469.064-15.781-.263-.454-.114-.753-.468-.898-1.063 1.267-.991 5.04-1.573 7.087-2.002l2.486-.553c1.056-.243 1.98-.46 2.511-.56l.18-.03c.804-.128 3.735-.955 4.07-1.196.335-.24 1.192-1.064 1.763-1.338.57-.275 1.45.054 1.808-.134.482-.395 2.287-1.5 3.475-2.048 1.189-.549 3.749-1.188 4.323-1.483.383-.197.884-.497 1.503-.9l.978-1.048c.538-.57 1.318-1.349 1.8-1.583.619-.302 2.967-.9 3.29-1.053.29-.137 1.136-1.004 1.674-1.634l.167-.2c.424-.522 1.037-1.227 1.605-1.751l.334-.29c.59-.477 1.248-1.509 1.453-1.75l.047-.048c.12-.077.182-.446.323-.673.14-.227.516-.475.609-.52.092-.047.057-.342.05-.402-.006-.06.104-.237.363-.438.258-.202.37-.203.423-.374.053-.172.485-.331.6-.446l.505-.525.307-.244c.088-.075.177-.16.248-.251.175-.229.526-.288.938-.68l.213-.206c.13-.131.05-.087.118-.288l.115-.32c.088-.232.188-.47.235-.519.053-.055.13-.022.174-.038l.024-.027Z" fill="#383434"/>
        <path d="m54.88 35.847.74.44c.267.165.45.31.418.44l-.032.13c-.04.132-.113.182-.459-.025l-.166-.105c-.564-.373-.941-.472-1.274-.616l-.007.037c-.007-.06.103-.237.362-.438l.128-.095c.063.07.156.146.29.232Zm1.763.226c-.05.143.281.504-.605 0-.526-.3-.883-.616-1.114-.796l-.039.059c.045-.145.362-.282.527-.39.2.313 1.275 1.005 1.231 1.127Zm-.33-1.758.57.35c.384.248.768.533.667.63-.14.136-.61-.051-1.133-.356l-.199-.12c-.217-.134-.363-.195-.47-.209l.242-.245.19-.157c.03.035.074.072.134.107Zm2.042.096-.02.088c-.026.172-.015.374-.608.022l-.714-.45c-.229-.138-.354-.201-.446-.226l-.022.025c.123-.161.334-.238.591-.407l.684.448c.307.209.571.414.535.5Zm-.279-1.576.312.135c.524.207 1.225.43 1.099.62-.154.233-.158.628-.857.247-.519-.283-.868-.555-1.047-.744l.113-.109c.104-.105.074-.098.092-.193l.038-.138a.75.75 0 0 0 .25.182Z" fill="#4B4848"/>
        <path d="M51.818 38.559c-.37.567-.735 1.356-.629 1.572.107.217 1.108.804 1.113 1.15.005.347-.576 1.353-1.113 1.312-.537-.041-1.974-.407-2.063-.186-.088.22-.251 1.105-.252 1.694-.001.59-.942 1.339-1.486 1.43-.543.093-1.568-1.027-1.981-.593-.413.435-1.755.19-1.851.884-.096.694.125 1.42.41 1.987.283.566-1.437 1.014-1.983.784-.546-.23-1.548-1.013-1.77-.617-.22.395-.7 1.927-1.043 2.277-.343.35 4.256-.108 9.345-4.431 5.088-4.323 8.09-7.733 7.776-7.92-.313-.189-1.213-.78-1.679-1.08-.466-.3-.69-.37-.247 0 .445.37 1.542.841.972 1.08-.57.237-.848.381-1.222.097-.373-.284-.48-1.149-.62-.737-.14.413.382 1.427.56 1.653.179.226-1.237.722-1.472.713-.117-.005-.36-.244-.473-.578-.117-.343-.105-.779-.292-.491Z" fill="#181616"/>
        <path d="M54.05 39.773c-.461-.164-1.374-.43-1.677-.627-.304-.196.62-1.07.492-1.11-.13-.038-1.23-.085-1.485.18-.256.264-.433.854-.42 1.187.014.333 2.052 1.35 2.527 1.485.474.135-.22 1.795-.74 1.993-.521.198-2.129-1.092-2.462-1.205-.333-.112-.372-.211-.323-.342.05-.132.12-.269-.361-.157-.481.113-1.425.52-1.601 1.01-.176.49-.254 1.119-.216 1.52.038.401.523 2.141.527 2.225.005.083-.594-.116-.988-.444-.395-.329-.862-.842-1.214-.886-.353-.045-.997-.123-1.282 0-.284.123-1.189.843-1.262 1.159-.073.316.835 1.726.87 1.898.036.172.665.475.732 0 .067-.475.02-1.721 0-1.898-.02-.177.57-.08.778 0 .208.08.909.787.82 1.112-.09.325-1.844 1.937-2.446 2.001-.602.065-2.024-1.122-2.24-1.422-.217-.301-.886-.586-1.21-.533-.324.053-.703.253-1.07.74-.367.487-.928 1.06-1.218 1.735-.29.675-.696.931-1.011.834-.316-.098-1.218-.466-1.403-.467-.184-.002-1.223.434-1.43.604-.209.17-.544.693-.915 1.202-.37.508 1.77.48 4.657-.253.599-.151 1.156.008 1.418-1.046.263-1.055.573-1.89.62-2.138.048-.248 1.499 1.317 2.597 1.41 1.097.091 1.662-.318 2.207-.666 1.435-.917 4.134-2.717 4.088-3.194-.046-.476-.161-2.126-.181-2.517a2.906 2.906 0 0 1 0-.506c.38.154.719.285 1.014.395.443.164 2.32.897 2.76.655.44-.242 1.964-2.13 1.965-2.602 0-.47-.455-1.168-.916-1.332Z" fill="#4C484C"/>
        <path d="m37.9 48.782.925-.285-.404.267c-.226.156-.363.267-.412.333-.12.163-.258.463-.37.722-.111.259-.436.202-.805.203-.368.001-.608.29-.688.346-.08.057.136-.28.168-.41.032-.13-.13-.088-.342-.139-.212-.05-.938.42-1.115.55-.177.13-.613.605-.757.784-.145.18-1.72.846-1.924.856-.101.005-.03-.195.084-.425l.051-.004.157-.049c.482-.395 2.287-1.5 3.475-2.048.495-.229 1.229-.473 1.957-.701Zm7.6-4.654 1.674-.496-.334.267-.066.058c-.176.16-.462.501-.608.572-.146.07-.725.038-.88.193-.104.103-.189.386-.255.848-.149-.53-.288-.793-.419-.788-.196.007-.92.85-1.385 1.166-.136.092-.355.177-.62.26l.45-.476c.495-.509 1.094-1.07 1.49-1.263.19-.093.544-.214.953-.341Z" fill="#1D1A1A"/>
        <path d="M37.403 49.433c-.153.016-.466.108-.614.14-.148.033-.33.113-.24.138.089.024.748.068.886.042.139-.026.212-.17.258-.25.045-.079-.137-.087-.29-.07Z" fill="#EBEAEA"/>
        <path d="M61.29 30.816c-.481.024-1.01.408-1.048.976-.037.568.474.902.784.903.311.001.764-.044 1.012-.703.248-.659-.267-1.2-.748-1.176Z" fill="#AE0D22"/>
        <path d="M61.29 30.816c.332-.016.681.237.783.613-.046.351-.212.741-.391.904-.19.171-.904.197-1.143-.203-.203-.34-.062-.8.134-1.088.186-.136.406-.215.617-.226Z" fill="#C51B31"/>
        <path d="M60.506 30.675c-.16-.041-.205-.114-.335 0-.13.114-.36.387-.294.192.065-.195.21-.37.1-.384-.109-.015-.303.054-.412.192-.108.139.096-.41-.072-.335-.168.075-.337.179-.338.143-.001-.036.18-.281 0-.237-.18.043-.554.282-.654.591-.1.31-.099.382.078.502s.254-.003.278-.12c.023-.117.213-.342.223-.207.01.135-.028.433.137.506.165.072.227-.309.266-.392.04-.084.219-.201.166.093-.052.294 0 .478.113.476.113-.003.186-.358.317-.575.132-.217.586-.403.427-.445Z" fill="#873446"/>
        <path d="M44.373 67.489c-.142-1.67-.226-4.262-2.77-7.345-2.545-3.082-4.5-4.682-5.49-4.924-.991-.243-3.812-.507-6.397-.062-2.586.446-3.025.451-3.722.483-.697.032-.328-.307-1.208-.071-.88.235-1.278.006-1.14-.35.139-.357 1.41-.995 2.07-1.293.334-.15 2.19-.834 3.333-1.2 2.304-.74 8.243-2.303 13.853-5.302 5.61-3 7.607-5.096 8.862-6.455 1.255-1.36 2.314-2.345 3.446-2.58 1.133-.235 6.474 3.781 9.275 4.334 2.8.552 12.8-1.467 14.22-.89 1.42.576 5.317 9.797 5.825 11.1.508 1.304 1.181 6.518 1.06 7.634-.08.744-.242 1.897-.484 3.46-9.55-1.912-14.83-2.953-15.838-3.122-1.513-.253-5.708-.196-8.97 1.13-3.26 1.325-15.782 7.123-15.925 5.453Z" fill="#92041A"/>
        <path d="M51.231 46.395c8.204 1.121 5.088 4.875 1.06 8.767-2.607 2.52-8.928 6.031-9.66 6.4-.288-.459-.628-.932-1.029-1.418-2.544-3.082-4.499-4.682-5.49-4.924l-.453-.09c-1.239-.208-3.681-.361-5.943.028l-.828.14c-1.865.307-2.28.315-2.894.343-.628.029-.392-.243-.98-.126l-.228.055c-.88.235-1.278.006-1.14-.35.139-.357 1.41-.995 2.07-1.293l.676-.266c.652-.245 1.62-.593 2.382-.845l.845-.268c2.612-.8 8.089-2.346 13.283-5.123l.945-.515c2.73-.538 5.307-.799 7.384-.515Z" fill="#A2001A"/>
        <path d="m40.03 49.593 1.967-.213c5.01-.51 6.745-.317 6.003 2.532-.49 1.881-2.899 4.3-7.226 7.255-2.141-2.446-3.782-3.732-4.662-3.947l-.453-.09c-1.239-.208-3.681-.361-5.943.028l-1.543.254c-1.273.196-1.652.205-2.18.229-.627.029-.39-.243-.978-.126l-.229.055c-.88.235-1.278.006-1.14-.35.139-.357 1.41-.995 2.07-1.293l.676-.266.9-.33a63.654 63.654 0 0 1 1.482-.515l.845-.268 2.481-.758a79.691 79.691 0 0 0 5.115-1.777 43.52 43.52 0 0 1 2.814-.42Z" fill="#B10122"/>
        <path d="m47.388 49.484-.018.058c-.576 1.596-5.856 4.35-10.432 6.06-.323-.201-.6-.327-.826-.382l-.453-.09c-1.239-.208-3.681-.361-5.943.028l-1.543.254-.665.097c-.765.103-1.093.113-1.514.132-.628.029-.392-.243-.98-.126l-.228.055c-.88.235-1.278.006-1.14-.35.139-.357 1.41-.995 2.07-1.293l.676-.266.9-.33 1.004-.354.478-.161.845-.268 2.481-.758 1.324-.425a74.595 74.595 0 0 0 3.791-1.352 43.52 43.52 0 0 1 2.814-.42l1.968-.213c2.72-.276 4.474-.346 5.391.104Z" fill="#C00024"/>
        <path d="M55.694 39.654c.196.251-2.214 2.524-3.53 3.73-1.315 1.206-4.062 3.44-6.514 4.792-2.451 1.35-6.804 3.052-11.453 4.552l-7.89 2.59c-.138.05.868.031 1.975-.12l1.42-.226a19.739 19.739 0 0 1 4.078-.2l.812.05c1.467.113 2.073.307 3.203 1.139 1.319.97 3.408 3.247 4.389 4.497.98 1.25 1.968 3.458 2.207 4.876.17 1.013.254 1.96.264 2.422l-.109-.036c-.104-.049-.163-.125-.173-.231l-.064-.771c-.152-1.65-.526-3.931-2.707-6.574-2.544-3.082-4.499-4.682-5.49-4.924l-.453-.09c-1.239-.208-3.681-.361-5.943.028l-.828.14c-1.865.307-2.28.315-2.894.343-.628.029-.392-.243-.98-.126l-.228.055c-.382.102-.674.117-.87.071.27-.033.613-.123 1.03-.287l.329-.138c1.697-.753 4.878-1.683 8.246-2.744l.676-.214c3.613-1.15 8.657-3.057 11.545-4.79 2.761-1.66 6.605-4.977 7.656-6.153l.126-.147c.825-1.017 1.974-1.765 2.17-1.514Z" fill="#77101F"/>
        <path d="M53.265 41.305c.432-.37.915-.815.843-1.096-.07-.28-.908.235-1.74.97-.832.734-2.574 2.712-5.636 4.749-3.062 2.037-6.725 3.654-9.07 4.436-2.343.781-7.045 2.289-8.58 2.72-1.536.432-3.576 1.055-4.856 1.61-1.28.555-.372.879.825.504 1.196-.376 5.77-1.899 9.738-3.176 3.969-1.277 8.88-3.434 10.862-4.654 1.981-1.22 5.108-3.694 5.91-4.375.8-.682 1.272-1.319 1.704-1.688Z" fill="#D52B4F"/>
        <path d="M52.368 41.178c.832-.734 1.67-1.25 1.74-.969.054.21-.204.514-.519.808l-.324.288c-.432.37-.904 1.006-1.705 1.688l-.622.511c-1.247 1.004-3.655 2.859-5.287 3.864-.803.494-2.088 1.143-3.596 1.824l-1.92.227c2.06-.867 4.474-2.079 6.597-3.491 3.062-2.037 4.804-4.015 5.636-4.75Z" fill="#D11940"/>
        <path d="M54.108 40.209c.054.21-.204.514-.519.808l-.324.288c-.432.37-.904 1.006-1.705 1.688l-.622.511-1.077.85a78.897 78.897 0 0 1-2.253 1.69l-1.171.075.295-.191c3.062-2.037 4.804-4.015 5.636-4.75.832-.734 1.67-1.25 1.74-.969Z" fill="#C20F35"/>
        <path d="m52.92 41.638-.251.002a10.96 10.96 0 0 0-.85.058l.387-.372.162-.148c.832-.734 1.67-1.25 1.74-.969.054.21-.204.514-.519.808l-.324.288c-.11.095-.224.207-.345.333Z" fill="#AD072A"/>
        <path d="m33.403 52.791-.197.073c-1 .342-5.042 1.625-3.616 1.656 1.535.032 4.279-.245 6.467.262 1.458.338 2.777 1.51 3.957 3.514l-.024.002c-1.758-1.884-3.108-2.89-3.878-3.078l-.453-.09c-1.239-.208-3.681-.361-5.943.028l-1.543.254-.665.097c-.765.103-1.093.113-1.514.132-.628.029-.392-.243-.98-.126l-.228.055c-.88.235-1.278.006-1.14-.35.064-.165.368-.388.742-.611-.24.367-.048.645.584.495l8.33-2.293a.473.473 0 0 1 .101-.02Z" fill="#920621"/>
        <path d="m71.12 48.497.47-.561c2.264-2.607 5.418-4.944 7.245-2.998l.28.313c2.092 2.423 6.752 9.55 5.201 8.521l-.121-.087c-1.983-1.525-9.049-7.3-7.903.127s4.471 6.56 6.622 5.385c.912-.498 2.02-2.224 2.706-5.12.33 1.513.41 3.482.238 5.903l.079.791c.042.489.063.898.063 1.229 0 .744-.392 1.248-.774 1.546-.372.29-10.73-1.28-13.912-1.952l-.718-.154c-2.731-.55-6.006-.59-14.154 2.54-3.432 1.319-7.425 2.147-11.978 2.484.056-.64-.31-2.045-.693-3.057 4.68.056 13.827-5.988 15.433-7.517 3.021-2.876.963-8.058-1.777-10.426-2.031-1.756-3.52-4.005-3.608-5.186-.03-.411.647-.444.793-.622.567-.69 14.23 11.653 16.507 8.841Z" fill="#840010"/>
        <path d="M64.485 42.724c2.8.552 12.8-1.467 14.22-.89 1.42.576 5.317 9.797 5.825 11.1.508 1.304 1.181 6.518 1.06 7.634l-.107.88c-.09.678-.216 1.538-.377 2.58l-.604-.125c.284-1.154.463-2.145.538-2.974.115-1.291-.066-2.815-.205-3.775-.139-.96-1.009-3.25-1.932-4.79s-2.712-3.686-3.754-4.616c-1.041-.929-3.214-1.081-3.842-.333-.58.691-.954 2.588-.97 4.076l.048 2.605c.029 2.21.039 5.131-.03 5.786l-.09.546c-.047.332-.103.8-.168 1.404l-4.72-.907-.11-.019c-1.44-.241-5.314-.2-8.497.949l-.471.18c-.07.03-.145.06-.223.092l-.026-.222c.019-.653.262-1.296.73-1.928.703-.948 1.687-1.745 3.007-3.108s1.596-2.548 1.401-3.628c-.195-1.08-2.442-4.608-5.033-7.034-2.478-2.32-5.187-4.125-5.78-4.46l-.068-.036c-.252-.127-.605-.309-.8-.503-.125-.125.055-.31-.23-.416a.563.563 0 0 0-.535.062c-.205-.084-.492-.236-.723-.127-.213.101.286-.437.926-.938l.165-.121c.523-.358 1.113-.667 1.86-1.213l.24-.065c1.133-.235 6.474 3.781 9.275 4.334Z" fill="#560002"/>
        <path d="M60.117 62.528c.86-2.803 1.82-3.171 2.543-3.962.721-.791 2.637-2.624 2.83-3.967.195-1.343-.569-3.78-2.72-6.602-2.153-2.822-4.272-4.148-5.922-5.38-1.649-1.232-3.46-2.121-3.628-2.158-.168-.037-.722.084-.735 0-.014-.084.112-.723.573-1 .461-.278 2.607-1.64 3.179-1.494.572.146 2.604 1.12 3.934 1.84 1.331.719 5.97 2.534 8.08 2.195 2.11-.339 5.47-3.003 6.184-4.035a16.22 16.22 0 0 1 1.781-2.118c.927 1.01 1.692 1.948 2.295 2.813.904 1.297 2.593 4.987 2.948 5.744.356.757 1.901 3.951 2.669 6.234.767 2.283 1.7 5.432 1.663 7.741-.024 1.54-.191 3.422-.5 5.648h-.185c.337-2.615.442-4.498.315-5.648-.19-1.725-1.17-4.776-2.072-6.322-.902-1.546-2.948-4.25-4.007-5.256-1.058-1.006-3.08-1.131-3.955-.37-.874.76-1.188 1.723-1.152 4.603.036 2.88.062 5.132 0 6.983a50.259 50.259 0 0 1-.302 3.968c-4.411-.343-7.138-.452-8.18-.329-1.563.185-4.845.73-5.636.872Z" fill="#A00019"/>
        <path d="m74.232 50.575.036 3.628c.01 1.448.004 2.703-.033 3.814a50.259 50.259 0 0 1-.302 3.968l-2.445-.177c-2.803-.188-4.658-.244-5.566-.169l-.17.017c-1.562.185-4.844.73-5.635.872.813-2.647 1.715-3.123 2.42-3.834l.966-1.026c.832-.9 1.85-2.11 1.988-3.069.012-.085.02-.175.025-.269l.277.395c.86 1.19 1.6 1.787 3.822.94 2.497-.95 3.75-6.514 5.257-8.659-.45.675-.637 1.655-.64 3.57Z" fill="#95031A"/>
        <path d="M76.216 35.847c.927 1.01 1.692 1.948 2.295 2.813.532.763 1.335 2.354 1.979 3.69l1.649 3.5c.568 1.228 1.336 2.95 1.854 4.4l.135.388c.686 2.04 1.504 4.774 1.644 6.98-1.194-4.902-3.269-8.553-6.38-11.33-3.512-3.133-7.029.942-9.212 3.32-1.468 1.6-8.12-4.344-12.656-7.588a8.461 8.461 0 0 0-3.326-1.447c-.352-.143-.815-.386-1.164-.512-.175-.063-.381.046-.451.002.083-.213.233-.459.475-.604l.732-.443c.827-.49 2.038-1.156 2.447-1.051.49.125 2.053.858 3.327 1.518l.607.321c1.331.72 5.97 2.535 8.08 2.196 2.11-.339 5.47-3.003 6.184-4.035a16.22 16.22 0 0 1 1.781-2.118Z" fill="#B00A24"/>
        <path d="M76.216 35.847a30.051 30.051 0 0 1 1.88 2.24c-.438.733-1.059 1.452-1.736 2.044-1.906 1.668-1.474 2.54-.63 2.57l.118-.002c4.433.622 5.75 2.405 6.508 3.618.59 1.297 1.317 2.969 1.772 4.321.451 1.342.96 2.984 1.294 4.579l-.382-1.202c-.563-1.71-.993-3.278-1.397-4.173-1.072-2.38-1.892-3.847-4.046-4.922-2.155-1.075-3.926-1.247-5.182-.753l-.75.307c-.782.315-1.431.497-2.36.087l-.287-.14c-1.383-.745-2.718-.817-3.798-.47l-.578.185c-1.144.347-2.889.695-4.945-.527-2.442-1.451-4.203-2.812-5.258-3.204-.695-.259-1.581-.096-2.346.13a3.144 3.144 0 0 0-1.003-.463c-.168-.037-.592.47-.605.387-.005-.027-.222-.222-.19-.334.065-.235.45-.478.763-.666l.732-.443c.827-.49 2.038-1.156 2.447-1.051.49.125 2.053.858 3.327 1.518l.607.321c1.331.72 5.97 2.535 8.08 2.196 2.11-.339 5.47-3.003 6.184-4.035a16.22 16.22 0 0 1 1.781-2.118Z" fill="#C60835"/>
        <path d="M76.216 35.847c.24.26.467.515.684.766l-.51.672c-.156.206-.296.394-.42.565l-.809 1.138c-.884 1.212-2.554 3.246-4.097 4.057-1.78.935-4.536.898-6.516.127-1.98-.771-6.817-3.615-7.65-3.867-.758-.23-1.83.148-2.37.523l-.146.112c-.313.27-.761.27-1.344 0a1.836 1.836 0 0 1-.146-.356l.08-.067.086-.058c.461-.278 2.607-1.64 3.179-1.494.49.125 2.053.858 3.327 1.518l.607.321c1.331.72 5.97 2.535 8.08 2.196 2.11-.339 5.47-3.003 6.184-4.035a16.22 16.22 0 0 1 1.781-2.118Z" fill="#DA264F"/>
        <path d="M76.216 35.847c.204.222.4.44.588.656-.084.16-.114.273-.097.339.049.182-.265.082-.347.132l-.158.134c-.247.221-.709.662-.947.947l-.098.127c-.227.332-1.963 2.196-2.792 2.87l-.375.295c-.793.6-1.869 1.217-3.674 1.245-2.107.032-4.223-.482-6.296-1.458l-.926-.448c-1.64-.811-2.944-1.545-3.656-1.82-.842-.323-1.223-.4-1.447-.345-.225.055.19.622.057.863-.133.24-.385.272-.689.204-.304-.068-.329-.213-.747-.204-.418.008-.674.076-.856.204l-.39.273a1.74 1.74 0 0 1-.089.056c-.075.043-.291.285-.472.4l-.126.057c-.034.006-.102.103-.18.093-.078-.01-.225-.189-.193-.305.066-.237.443-.517.752-.703l.732-.443c.827-.49 2.038-1.156 2.447-1.051.49.125 2.053.858 3.327 1.518l.607.321c1.331.72 5.97 2.535 8.08 2.196 2.11-.339 5.47-3.003 6.184-4.035a16.22 16.22 0 0 1 1.781-2.118Z" fill="#461C22"/>
        <path d="m62.436 61.046-.01.017-.174.127-.313-.143c-.098-.052-.09-.073-.07-.13l.005-.09.046-.201-.003-.03.015-.016.111-.343c.168-.465.391-.9.673-1.244l1.413-1.644.108-.131c.403-.498.736-.955 1.003-1.385.142-.23.263-.448.36-.656.589-1.24-.39-4.017-2.254-6.736-1.592-2.322-3.466-4.12-6.194-6.036-1.494-1.05-2.806-1.778-3.933-2.183l-.413-.137.375-.323c1.284.387 2.587.937 4.316 2.152 2.783 1.955 4.708 3.802 6.344 6.188 1.98 2.887 3.015 5.826 2.302 7.332-.108.23-.24.468-.393.715-.211.34-.46.694-.747 1.067l-.3.38c-.389.48-1.462 1.703-1.523 1.777-.232.284-.426.66-.572 1.067l-.062.184 7.515.982c1.763.22 3.073.371 3.07.374.066-.05.145-.76.174-1.534l.013-.831.017-8.956c.026-2.193.384-3.944 1.36-4.81 1.289-1.144 3.266-.994 4.955.316.643.498 1.978 2.058 3.283 4.43.449.814 1.09 2.243 1.922 4.288-1.09-2.947-3.952-7.13-5.422-8.27-1.48-1.147-3.29-1.247-4.34-.315-.803.712-1.134 2.362-1.158 4.391l-.018 9.241c-.007 1.336-.097 2.282-.425 2.53-.151.113-.778.082-2.595-.14l-8.632-1.12c.401.036.152.03.16-.112l.011-.042Z" fill="#871521" fill-rule="nonzero"/>
        <path d="M53.18 39.762c1.285.387 2.588.937 4.317 2.152 1.51 1.06 2.767 2.09 3.863 3.19.752 1.127 1.441 2.261 1.966 3.306l.02.03c-1.592-2.321-3.466-4.118-6.194-6.035-1.494-1.05-2.806-1.778-3.933-2.183l-.413-.137.375-.323Z" fill="#911421" fill-rule="nonzero"/>
        <path d="M68.443 44.38c-1.963.74-2.99 1.19-3.083 1.349-.14.239.122 1.934.71 2.988.587 1.055 2.285 2.488 2.717 2.414.433-.075 2.583-1.865 2.731-5.443-.021-.357-1.047-.792-3.075-1.307Z" fill="#7A2121"/>
        <path d="M68.46 44.619c-1.963.74-2.99 1.19-3.083 1.348-.14.239.105 1.696.692 2.75.588 1.055 2.286 2.488 2.718 2.414.433-.075 2.6-1.627 2.748-5.205-.021-.356-1.046-.792-3.075-1.307Z" fill="#060304"/>
        <path d="M68.269 45.744c-1.08.066-1.968.854-1.901 2.146.067 1.292 1.035 2.1 2.236 2.04 1.201-.059 1.977-1.02 1.903-2.227-.074-1.207-1.159-2.025-2.238-1.959Z" fill="#C8C4C5"/>
        <path d="M68.681 46.381a.836.836 0 0 0 .104-.254c.02-.107-.083-.19-.221-.195-.139-.005-.184.185-.127.316.012.027.062.091.07.134.03.165-.012.389-.024.455-.014.082-.12.233-.125.202-.004-.032-.056-.25-.165-.208-.109.041-.24.162-.19.268.051.106.092.092.049.171-.043.08-.133.283-.22.424-.043.07-.08.157-.152.25-.024.03-.17.139-.134.17.036.032.2-.016.256-.063.056-.046.272-.505.29-.54.018-.034.108.12.078.245-.03.124-.038.214-.118.295-.08.082-.226.196-.351.294a4.594 4.594 0 0 0-.417.41c-.042.05-.403.247-.314.262.09.014.368.045.384 0a.665.665 0 0 1 .12-.197c.045-.04.658-.468.752-.547.093-.079.166-.13.338-.08.171.048.353.054.389.08.036.026.574.25.64.335.065.086.144.251.263.212.118-.04.385-.171.314-.212-.071-.04-.232.022-.347-.069a4.63 4.63 0 0 0-.536-.368c-.226-.132-.527-.273-.581-.346-.055-.073.006-.326-.048-.443-.054-.116-.003-.264 0-.445.003-.12.01-.306.023-.556Z" fill="#332D2E"/>
        <path fill="#332D2E" d="m68.225 48.484-.317.779-.243.195h.453l.195-.415h.654l.166-.559z"/>
        <path fill="#C8C4C5" d="m68.438 48.683-.04.133h.432v-.133z"/>
        <path d="M52.864 39.167c-.432.19-.444.248-.573.451-.13.203-.116.645.068.743.184.097.707-.55 1.073-.836.367-.287 1.817-1.256 2.557-1.204.74.05 1.586.443 3.315 1.284 1.729.842 3.907 2.06 5.592 2.427 1.686.368 4.484.709 6.033-.237 1.548-.946 3.113-2.642 4.227-3.963 1.113-1.321 3.035-2.383 3.314-2.6.279-.218 1.79-1.26 1.805-1.271.015-.011-.311-.592-.678-.678-.368-.085-1.204.349-1.976.873s-2.012 1.352-2.505 1.856c-.493.505-2.314 2.61-2.752 3.068-.437.457-1.726 1.78-2.566 2.086-.84.307-3.155.497-4.79.017-1.636-.48-3.572-1.323-5.003-2.053-1.43-.729-2.772-1.457-3.566-1.595-.795-.139-1.9.398-2.324.654-.424.256-.818.787-1.25.978Z" fill="#515155"/>
        <path d="M80.03 33.59c.154.178.253.365.245.37l-1.711 1.2-.094.071c-.28.218-2.2 1.28-3.314 2.601-1.114 1.321-2.68 3.017-4.227 3.963-1.549.946-4.347.605-6.033.237-1.498-.327-3.385-1.325-5-2.134l-.592-.293c-1.729-.841-2.575-1.233-3.315-1.284-.679-.048-1.953.763-2.443 1.119l-.114.085c-.252.197-.625.68-.874.82-.112.063-.234.105-.235-.066 0-.17.044-.344.129-.432.293-.303.628-.407.89-.552.263-.145.305-.314.132-.41a.154.154 0 0 1-.07-.103c.159-.142.315-.294.473-.422l.244-.174c.335.044.677.232.846.194.22-.049.553-.509 1.472-.415.918.094 2.908 1.273 5.364 2.442 2.457 1.168 4.722 1.667 7.122 1.426 2.4-.242 3.313-1.64 4.25-2.534.936-.894 1.834-2.567 2.732-3.203.898-.636 2.226-1.073 3.058-1.64a8.01 8.01 0 0 0 .76-.583l.305-.282Z" fill="#39393B"/>
        <path d="M11.22 58.897c-.251.01-.398.123-.637.558C10.343 59.89 10 60.76 10 62c0 1.241-.458 2.65 2.053 4.141 2.511 1.492 7.31 3.308 9.214 3.655 1.904.347 2.365.178 2.994.377.628.2 4.642.956 7.374 1.302 2.732.346 4.626.525 6.365.525h3.966c1.139 0 6.154-.4 8.172-1.06 2.019-.66 1.884-.936 1.88-1.049-.005-.112-.134-.242.338-.295.315-.035.618-.066.91-.092l.13.092 1.012-.092.09-.122c1.458-.017 2.377-.017 2.756 0 .569.026.761-.095 1.002.41.242.504 3.918 2.208 7.736 2.208h10.02c2.454 0 6.385-.09 7.891-1.06 1.507-.97 2.143-2.627 2.242-4.94.149-1.288-.143-2.756-.145-3.07-.002-.313.038-1.42 0-1.575-.038-.155-.136 1.07-.313 1.43-.117.241-.474.438-1.07.59-8.86-.793-14.528-1.252-17.002-1.375-3.712-.185-4.445-.219-7.366 2.027-2.921 2.246-7.945 3.556-12.91 3.677-4.964.121-19.22-1.266-24.124-2.837-4.903-1.57-6.497-2.474-7.923-3.168-1.426-.694-2.71-1.4-3.151-1.678-.441-.279-.852-.603-.92-1.124Z" fill="#0F0807"/>
        <path d="m73.532 63.266 1.647-.01c1.11-.001 2.077.048 2.742.43.598.344.824 1.082 1.127 1.868.51 1.325-.31 1.846-2.458 1.565l-13.287-.24a60.858 60.858 0 0 0-2.66.015l-1.345.046c-2.678.11 2.603.683 4.334.848 1.154.11 3.166.1 6.034-.032l-4.412.862c-.784.158-1.225.253-1.323.286-.328.108-3.118-.903-4.89-1.218-1.634-.292-2.535-.148-3.002.052l-.108.05c-.391.203-.697.407-.35.433l.738.008c.916.024 2.49.11 3.464.318l.614.145c.904.23 1.628.487.701.328l-.607-.116c-2.107-.432-5.041-.395-5.524-.439l-.3-.042c-.349-.068-.668-.196-.604-.352l.052-.069c.078-.07-.41-1.166 1.928-1.254l2.094-.028c1.846-.05 3.174-.175 2.412-.244l-1.509-.114c-2.201-.197-2.004-.37-1.876-.39l.266-.03c.56-.047 1.667-.08 2.956.002l.391.028c.477.038 1.103.071 1.848.103l9.522.312c2.6.103 3.207.191 4.182.282.78.072 1.156-.489 1.13-1.683-1.168.272-2.178.426-3.03.461l-.59.007-12.713-.006c-2.595.004-2.457-.27-1.828-.462.538-.164 1.431-.112 2.221-.125l.712-.024c1.34-.028 5.395.004 7.526.01h.98l2.1-.029c1.801-.035 3.7-.098 4.3-.16.903-.092.388-.505 0-.63-.13-.043-.693-.058-1.45-.058l-11.096.119c-1.398.004-2.467-.008-2.476-.062-.02-.137 1.176-.627 2.088-.622l1.49.083c.627.03 1.429.054 2.404.036l.987-.032c1.549-.065 3.332-.2 4.448-.226Z" fill="#292624"/>
        <path d="M86.108 66.576c-.146 1.672-.62 2.964-1.565 3.862-1.025.386-2.158.621-3.4.705-2.413.164-9.445.068-12.587-.125-3.143-.193-6.146-.756-5.477-1.118.67-.362 2.506-.758 3.79-1.009 1.283-.25 2.494-.568 3.683-.58 1.188-.013 3.17.667 5.265.909 2.095.241 5.194.544 6.78.417 1.586-.127 2.435-.941 3.06-1.758.166-.218.313-.683.44-1.253Z" fill="#261F21"/>
        <path d="M10.714 63.028c.368 1.045 7.713 3.931 10.72 4.52l.901.166c3.377.589 10.231 1.513 13.842 1.88l1.477.136c3.986.331 10.652.463 9.594.788-1.149.352-5.564.758-6.071.777l-.613-.023a231.327 231.327 0 0 1-5.08-.388l-2.557-.228c-2.604-.222-7.635-.593-10.11-1.01-.417.136-1.94-.05-3.852-.493-2.227-.744-5.14-1.959-6.912-3.012-2.392-1.42-2.09-2.765-2.056-3.963L10 62c0-1.103.271-1.912.5-2.384l.083-.16c.043-.08.083-.147.121-.206-.21 1.296-.251 3.035.01 3.778Z" fill="#2B2728"/>
        <path d="m11.237 58.965.033.143c.06.176.162.327.29.461.13.162.313.322.583.466l.125.064.392.227c.54.305 1.35.738 2.244 1.182l.765.377c-.014.024-.06.027-.12.013-.252-.058-2.066-.878-2.822-1.293-.756-.416-1.181-.714-1.565-.888-.384-.174-.675.313-.784 1.095l-.038.328c-.089.944-.068 2.723 1.313 3.594 1.566.989 2.46 2.113 1.126 1.611l-1.031-.394c-1.597-1.048-1.79-2.052-1.78-2.983L10 62c0-1.241.343-2.11.583-2.545.24-.435.386-.548.638-.558-.003.022.006.045.016.068Z" fill="#4A4545"/>
        <path d="m19.27 68.843.152.04c1.603.409 2.85.632 3.1.203l.161-.297c.176-.353.285-.708.09-.84l-.158-.111c-.311-.234-.622-.64 1.848-.543 2.807.11 4.52.62 4.245.961l-.052.048c-.39.27-.709.613-.96.91l-.32.385c-.24.286-.436.567.162.637l2.941.29c2.23.207 4.96.43 5.413.345.742-.14.243-1.002.2-1.128l-.04-.029c-.373-.183-3.05-.856.58-.835l2.043.043c3.89.111 7.516.367 6.765.506l-1.788.293c-.798.14-1.56.313-1.747.515l-.19.207c-.33.372-.683.84-.27.852l.442.001c.95-.011 3.025-.097 4.872-.425 2.242-.4 2.735-.813 4.418-1.386.519-.177.773-.06.859.204a.104.104 0 0 0-.037.098l.021.148c.005.135-.088.417-1.882 1.004-1.912.626-6.513 1.018-7.961 1.058L38 72c-1.58 0-3.29-.148-5.64-.434l-.725-.09c-2.608-.331-6.383-1.035-7.268-1.272l-.106-.03c-.629-.2-1.09-.03-2.994-.378-1.799-.328-6.179-1.966-8.775-3.403l-.541-.313 2.748 1.094c2.291.899 3.814 1.455 4.572 1.67Z" fill="#0F0807"/>
        <path d="M15.669 61.798c-.345.639-.214 1.468.394 2.489.91 1.53 3.533 2.364 4.267 2.604.735.24 2.414.681 2.628.747.215.066.293.414.16.734-.131.32-.265.688-.345.787-.08.098-.052.293.075.419.126.126.404.217.703.206.299-.011.795.064 1.026.16.23.094.873.267 1.26.241.386-.026.799-.284 1.262-.696.464-.412.914-1.167 1.075-1.172.162-.006 2.05.097 4.452.346 2.403.249 3.4.333 3.634.496.234.162.27.466.281.694.012.228.177 1.162.34 1.336.163.174.475.203.846.13.372-.073.616-.21.667-.18.051.028.466.196.78.245.314.049.637.079.79 0 .154-.078 1-.847 1.309-1.21.309-.362.483-.532.56-.544.077-.011 2.06.135 4.184.174 2.124.039 4.852-.11 5.408-.226s.837-.184 1.087-.291c.25-.107 3.124-1.607 4.757-2.589 1.632-.98 5.165-3.303 5.906-3.588.74-.284 2.047-.806 4.135-.418 2.089.388 5.922 1.306 6.953 1.575 1.03.269 1.75.45 1.773.507.023.056.375 1.587.345 1.613-.03.027-1.72.564-2.38.64-.662.074-2.14.438-2.305.484-.165.046.207.166 1.023.284.815.118 3.743.767 4.571.962.828.196 2.17.397 2.56.402.391.005 1.784-.15 2.623-.402.838-.251 2.018-1.068 2.382-1.496.363-.428.532-1.02.654-1.098.122-.08.22-.017.283-.246.063-.229.235-1.65.208-1.979-.027-.328-.4-.915-.491-.974-.091-.058-4.405-.756-5.557-.963-1.151-.207-5.024-.669-5.787-.815-.764-.146-6.003-1.539-7.038-1.72-1.035-.181-3.222-.252-5.608.611-2.385.863-3.747 1.77-5.08 2.227-1.333.456-5.646 1.885-6.755 2.216-1.109.33-5.735 1.162-7.686 1.133-1.95-.028-1.715-.154-1.67-.602.045-.447.055-1.375-.084-1.94-.14-.566-1.132-1.653-1.95-2.343-.82-.69-1.763-1.358-2.505-1.163-.742.195-.969.783-1.07 1.424-.102.64-.25 1.127-.836 1.663s-1.479 1.161-1.89 1.467c-.41.305-.997.793-1.084.892-.086.1-1.927.098-3.141.095-1.214-.002-2.385.085-2.378-.01.008-.096 1.19-1.224 1.87-1.839.68-.614 1.867-1.705 2.097-2.11.23-.407.075-.86-.835-1-.91-.14-2.094.188-2.798.382-.704.194-2.106.606-3.433 1.022-1.326.416-2.773 1-3.488 1.026-.714.024-1.296-.105-1.873-.313a21.31 21.31 0 0 1-1.261-.506Z" fill="#D2CDCE"/>
        <path d="m50.141 65.78-.7.339c-2.695 1.277-6.617 2.85-7.092 3.108-.237.13-.404.264-.501.402-.062.009-.16.087-.31.246l-.265.3c-.31.362-1.155 1.13-1.309 1.21-.153.078-.476.048-.79 0a3.525 3.525 0 0 1-.78-.247c-.051-.028-.295.108-.667.181-.371.073-.683.044-.846-.13-.14-.15-.281-.856-.326-1.199l-.014-.137c-.012-.228-.047-.532-.281-.694a.682.682 0 0 0-.203-.082c.246-.042.452-.144.618-.3l.73-.74c.81-.84 1.966-2.05 2.24-2.258.126-.095.351-.21.676-.344.098.145.467.2 1.677.218 1.951.029 6.577-.803 7.686-1.133l.554-.172a408.478 408.478 0 0 0 6.2-2.044c.561-.192 1.127-.464 1.773-.779-1.93 1.14-5.837 3.143-8.07 4.254Zm-24.886-.694.225-.073-.078.098a.065.065 0 0 0-.012.024c-.006.089.99.021 2.099.012l1.689-.003c.722-.005 1.386-.021 1.633-.062.005.312-.107.716-.595 1.164l-.747.687c-.612.567-1.23 1.16-1.396 1.424l-.016.033c-.211.2-.58.763-.958 1.1-.463.411-.876.669-1.263.695-.322.022-.821-.095-1.112-.19l-.147-.052c-.185-.076-.54-.14-.827-.156l-.2-.003c-.298.011-.576-.08-.702-.206-.102-.1-.14-.246-.11-.35l.035-.07c.08-.098.214-.466.346-.786a.758.758 0 0 0 .03-.53l.263-.45c.272-.471 1.134-1.772 1.378-2.053.072-.083.227-.168.465-.253Zm50.348-3.497-1.302-.379 1.369.196c1.32.177 3.1.404 4.012.55l5.55.947c.165.032.264.053.277.061.091.06.464.646.491.974.027.329-.145 1.75-.208 1.98-.063.228-.161.166-.283.245l.018-.012c-.149-.334-.3-.568-.455-.703-.372-.323-1.826-1.242-3.16-1.829-.523-.23-1.468-.546-2.445-.853l-3.864-1.177Z" fill="#C4C0C7"/>
        <path d="M36.791 68.702c.368.477.378 1.287 1.151 1.084l.388-.122c.646-.227 1.268-.518 1.592-.06.218.309 1.148.082 2.233-.258-.138.093-.24.187-.307.283-.062.009-.16.087-.31.246l-.265.3c-.31.362-1.155 1.13-1.309 1.21-.153.078-.476.048-.79 0a3.525 3.525 0 0 1-.78-.247c-.051-.028-.295.108-.667.181-.371.073-.683.044-.846-.13-.14-.15-.281-.856-.326-1.199l-.014-.137c-.012-.228-.047-.532-.281-.694a.682.682 0 0 0-.203-.082c.246-.042.452-.144.618-.3l.097-.096.019.021Zm-13.136-1.707-.007-.074c.016.384.105.767.268 1.151.225.529 1.337-.116 1.757.319l.096.147c.157.362.88.355 2.17-.02l-.47.581c-.119.141-.244.278-.37.39-.463.412-.876.67-1.263.696-.322.022-.821-.095-1.112-.19l-.147-.052c-.185-.076-.54-.14-.827-.156l-.2-.003c-.298.011-.576-.08-.702-.206-.102-.1-.14-.246-.11-.35l.035-.07c.08-.098.214-.466.346-.786a.758.758 0 0 0 .03-.53l.411-.696.095-.151Z" fill="#AFA8B3"/>
        <path d="M30.81 65.082c.006.312-.106.716-.594 1.164l-.747.687c-.177.164-.355.33-.522.49-2.006-.473-3.955-1.375-3.315-1.695.536-.267 1.996-.455 3.243-.584h.303l.868-.014c.346-.01.623-.025.765-.048Zm27.4-3.557c-1.885 1.114-5.66 3.053-7.915 4.177-2.158.66-4.215 1.16-5.75 1.319l-1.454.141c-2.117.177-3.606.085-2.849-1.426l.139-.253c.147.11.563.155 1.617.17 1.951.029 6.577-.803 7.686-1.133l.554-.172 2.74-.89c1.383-.455 2.794-.926 3.46-1.154.561-.192 1.127-.464 1.773-.779Zm16.091-.315 1.369.196 3.29.442c.273.039.52.075.722.108l5.55.947.276.06c-.794.233-3.173.224-5.166.085l-.875-.282-3.864-1.177-1.302-.379Z" fill="#D0CCD2"/>
        <path d="M38.174 70.861c.361-.165.734-.853.76-.611l-.002.09c-.044.461.473.82.879.815.176-.002.47-.13.78-.298l-.389.346a1.845 1.845 0 0 1-.238.181c-.153.079-.476.049-.79 0a3.525 3.525 0 0 1-.78-.246c-.051-.028-.295.108-.667.181-.371.073-.683.044-.846-.13a.55.55 0 0 1-.09-.166l.208.067c.334.12.78-.05 1.175-.229Zm-14.161-1.504.235-.091c.19-.064.366-.084.521.05l.09.1c.234.318.614.515 1.069.494.262-.012.61-.106.972-.253l-.248.19c-.289.2-.558.32-.816.338-.322.022-.821-.095-1.112-.19l-.147-.052c-.185-.076-.54-.14-.827-.156l-.2-.003c-.298.011-.576-.08-.702-.206a.407.407 0 0 1-.12-.252c.13.11.225.174.287.195.18.06.676-.031.998-.164Z" fill="#827A87"/>
        <path d="m56.439 62.683-.93.582c-2.146 1.378-2.51 1.903-1.091 1.577 1.819-.418 5.355-.996 8.015-1.34-1.337.768-3.859 2.412-5.164 3.196l-.851.497a95.512 95.512 0 0 1-3.846 2.064l-.06.028c-.25.107-.53.175-1.087.29l-.305.045c-.858.098-2.92.2-4.698.187l-1.202-.025a95.858 95.858 0 0 1-2.094-.087l-1.164-.063c.102-.152.236-.274.404-.367l.54-.255c1.035-.47 3.27-1.444 4.968-2.212l1.21-.557a770.68 770.68 0 0 0 7.355-3.56Zm-18.72 4.855c.657-.095.045.46-.546.95l-.503.416a2.962 2.962 0 0 1-.383.284l-.027-.03c-.161-.111-.683-.186-1.774-.303l-2.685-.274c-1.998-.19-3.484-.269-3.627-.264l.042-.17c.136-.436.555-.458 1.438-.359l.367.02c1.458.036 5.896-.12 7.337-.234l.362-.036Zm36.879-6.281.806.113 1.106.303c1.035.29 1.857.543 2.469.756l1.057.384c3.338 1.255 4.818 2.301 5.386 3.332l.038.071c-.12.174-.288.671-.605 1.045-.364.428-1.544 1.245-2.382 1.496-.839.252-2.232.407-2.622.402l-.385-.03a22.325 22.325 0 0 1-1.883-.307l-2.117-.474a76.061 76.061 0 0 0-2.502-.513l-.68-.11c-.508-.093-.72-.177-.588-.214l.598-.147a22.772 22.772 0 0 1 1.507-.31l.2-.028c.66-.075 2.35-.612 2.38-.639.022-.019-.162-.852-.27-1.314.514.327.526 1.082.415 1.468-.097.333-.865.348-1.263.767-.397.42 2.804 1.147 4.15 1.342 1.346.196 4.275-.98 3.718-2.407-.332-.85-2.777-2.33-7.338-4.441l-1.195-.545Zm-58.182 3.5c.839.472 1.717.647 2.313.797.949.24 3.81.348 4.89 1.027 1.015.638-.226 1.139-.447 1.366-.021-.155-.097-.273-.214-.309l-2.193-.613-.435-.134c-.636-.208-2.69-.862-3.82-2.029l-.094-.104Zm19.373-5.152c.742-.195 1.686.473 2.505 1.163.818.69 1.81 1.777 1.95 2.342.115.467.128 1.178.104 1.665-.2-.202-.255-.634-.336-.966-.126-.52-1.317-.637-2.292-.553-.976.084-5.088 1.013-6.632 2.192l-.363.27c-1.021.734-.245-.118.09-.513l.041-.067.013-.068.04-.019.148-.138c.221-.193.628-.525.936-.754l.732-.537c.388-.289.823-.624 1.158-.93.513-.469.69-.9.795-1.43l.04-.233c.102-.641.329-1.23 1.07-1.424Zm-7.267.582c.91.14 1.066.593.835 1-.184.324-.981 1.087-1.64 1.694l-.99.907c-.3-.095-.48-.174-.54-.238-.222-.238.187-1.283-1.77-1.42s-3.715.707-5.14.885c-.997.125-2.007-.146-2.908-.469l-.854-.324c.03-.15.082-.29.154-.424.456.199.876.367 1.261.506.577.208 1.159.337 1.873.313.715-.025 2.162-.61 3.488-1.026l1.746-.534c.69-.205 1.296-.38 1.687-.488l.606-.161c.56-.14 1.235-.273 1.84-.252l.352.031Z" fill="#DDD7D6"/>
        <path d="m85.422 66.145.038.071c-.12.174-.288.671-.605 1.045-.364.428-1.544 1.245-2.382 1.496-.379.114-.87.208-1.332.276 1.966-.62 3.136-1.96 3.21-2.835.052-.609-1.613-1.876-3.173-2.934 2.545 1.06 3.745 1.977 4.244 2.88Zm-33.571-1.23c-.39.641-.126.988.793 1.04 1.244.072 4.922-.544 7.418-1l-2.472 1.548c-.113.07-.221.135-.321.195l-.851.497a93.73 93.73 0 0 1-1.977 1.088l-1.33.22c-2.3.403-7.488.376-9.607.237l3.823-1.694.547-.246 1.21-.557 2.767-1.328Z" fill="#E5E0DE"/>
        <path d="M61.52 60.077c2.385-.863 4.572-.792 5.607-.61l.428.087c1.61.36 5.923 1.5 6.61 1.632l.718.112c1.294.183 3.721.484 4.823.661l5.044.857.298.053c-.876.276-3.664-.424-5.316-.616l-2.322-.29c-.508-.057-.751-.066-.48.035l.535.164c1.261.362 4.154 1.131 5.43 1.775 1.534.773 2.089 1.437 2.169 1.678.08.241-.364-.467-1.828-1.357-1.463-.89-4.826-1.53-7.272-2.285-.968-.299-2.9-.556-4.164-.96-2.262-.724-4.352-1.11-6.007-1.204-2.34-.133-5.363 1.182-7.18 2.043l-9.469 4.639c-1.002.483-1.88.9-2.491 1.176l-3.33 1.445c-.468.21-.69.327-.57.332l3.898.365h-.32l-1.163-.026c-1.387-.043-2.602-.118-3.099-.144-.131-.078-.099-.163.005-.237l.07-.044c.279-.15 6.294-2.857 8.598-3.91 1.637-.748 3.865-2.04 5.89-3.216 1.272-.471 2.616-1.333 4.887-2.155ZM35.789 59.605c.742-.195 1.686.473 2.505 1.163.818.69 1.81 1.777 1.95 2.342.14.566.129 1.494.084 1.941l-.028.207a.477.477 0 0 0-.004.083l.164-.068a2.13 2.13 0 0 0-.929.618l-.797.957c-.316.378-.652.768-.922 1.028l-1.061 1.048c-.057.059-.094.1-.105.116l-.05.067a.626.626 0 0 1-.23.152l-.106-.1c-.161-.112-.683-.187-1.774-.304l-2.716-.277c-1.795-.17-3.17-.25-3.52-.26l-.076.04c.243-.15.717-.199 1.424-.147l6.302.594c.158.012.255.018.273.017.138-.014 1.447-1.166 2.036-1.882l.302-.38c.597-.771 1.384-1.89 1.428-2.148.051-.303.05-1.048-.565-1.928-.616-.88-2.33-2.323-3.11-2.245-.78.077-.853.813-.977 1.415-.096.468-.67.978-1.152 1.387l-.922.793a41.762 41.762 0 0 1-1.621 1.31c-.565.423-1.04.673-1.478 1.102-.439.43.448-.63.442-.692-.006-.052-.584-.061-1.712-.024l-1.014.032c-1.3.01-2.298-.222-.728-.279l2.677-.043c.731-.026 1.055-.08 1.179-.227l.013-.022.266-.232a19.4 19.4 0 0 1 .57-.459l1.216-.902c.302-.23.61-.477.86-.706.513-.469.69-.9.795-1.43l.04-.233c.102-.641.329-1.23 1.07-1.424Zm18.033 3.782c-1.921.628-4.021 1.446-5.917 1.79l-2.26.41c-.912.16-1.755.295-2.412.36l-1.955.157c-.457.025-.822.008-1.035-.128-.246-.156-.225-.352.061-.589.051.182.365.247 1.694.266 1.843.027 6.072-.713 7.47-1.074l.216-.06c1.038-.309 4.88-1.58 6.462-2.116-.647.334-1.45.698-2.324.984Z" fill="#E5E5E5"/>
        <path d="m28.17 60.156.352.031c.91.14 1.066.593.835 1-.184.324-.981 1.087-1.64 1.694l-.91.832c-.486.453-1.032.979-1.28 1.249-.016-.087.097-.264.336-.608.313-.45 3.07-2.756 3.241-3.019.172-.263.016-.486-.342-.385-.359.101-2.47 2.003-2.645 2.134-.175.131 1.413-1.436 1.956-1.874l.477-.377c.194-.178.167-.28-.376-.37-.845-.141-1.958.102-3.23.487-1.089.33-2.574.81-3.758 1.287l-.563.237c-1.24.549-1.928.538-2.571.44-.643-.097-2.18-.613-2.282-.683-.102-.07-.23.362-.03.977.2.614 1.061 1.78 1.782 2.24.655.419 2.458 1.16 3.417 1.427l.261.065c.387.083.799.266 1.235.55l-1.087-.297c-.257-.073-.509-.145-.725-.21l-.679-.22c-1.017-.347-3.092-1.15-3.881-2.476-.608-1.02-.74-1.85-.394-2.489.456.199.876.367 1.261.506.577.208 1.159.337 1.873.313.715-.025 2.162-.61 3.488-1.026l1.746-.534c.69-.205 1.296-.38 1.687-.488l.606-.161c.56-.14 1.235-.273 1.84-.252Z" fill="#E9E9E9"/>
        <path d="M61.947 31.535c-.057.442-.216.705-.475.79-.26.084-.57.048-.933-.107.237.306.546.412.926.317.38-.095.541-.428.482-1Z" fill="#E73A51"/>
        <path d="M61.392 31.038c-.193-.142-.59.078-.652.192-.062.115.844-.05.652-.192Z" fill="#FFBDC6"/>
        <path d="M76.255 64.524c.308.344.96 1.38.842 2.16-.118.78 1.296 1.382 2.423 1.388 1.127.006 3.064-1.246 1.635-2.432-1.43-1.186-3.265-2.693-5.42-3.461-2.156-.769-8.569-2.449-10.396-2.288-1.828.162-4.108.971-5.884 1.833-1.775.861-4.293 2.393-3.41 2.25.882-.143 5.806-.647 6.64-.899.794-.329 1.94-.923 3.544-.743 1.604.18 9.72 1.847 10.026 2.192ZM37.732 66.834c.229-.187 1.049-1.2 1.223-1.834.174-.634-2.936-.467-5.412.257-2.477.724-3.466 1.403-3.95 1.81-.485.407-.392.419.063.452.455.034 3.067-.123 4.104-.15 1.037-.028 3.744-.348 3.972-.535ZM25.016 64.52c.308-.392.72-.95.752-1.038.032-.088-.773-.598-2.035-.613-1.263-.014-3.166.823-4.743.75-1.578-.074-2.711-.274-1.212.677 1.499.95 3.197.723 4.342.971 1.146.249 1.762.986 1.913.721.151-.265.674-1.078.983-1.469Z" fill="#C8C4C3"/>
        <path d="M55.855 39.46c.153-.131.193-.405-.08-.796-.274-.391-1.81-.675-2.187-.69-.377-.016-1.077.21-1.384.347-.205.091-.34.184-.406.279 0 .2.104.35.312.45.208.099.365.156.473.17.486-.255.796-.39.931-.407.203-.024 1.454.432 1.658.564.205.132.53.215.683.083Z" fill="#474147"/>
        <path d="M55.567 38.492a.656.656 0 0 1 .207.172c.274.391.234.665.081.796-.122.105-.355.074-.548-.011l-.135-.072c-.204-.132-1.455-.588-1.658-.564-.135.017-.445.152-.931.407-.108-.014-.265-.071-.473-.17-.208-.1-.312-.25-.312-.45a.482.482 0 0 1 .082-.088l-.036-.054c.151.24.316.385.495.437.27.077.738-.422 1.396-.252.657.17 1.321.486 1.63.479.2-.005.266-.254.234-.484l-.032-.146Z" fill="#312C31"/>
    </g>
</svg>
