<svg width="96" height="96" xmlns="http://www.w3.org/2000/svg">
    <defs>
        <path id="a" d="M0 0h96v96H0z"/>
    </defs>
    <g fill="none" fill-rule="evenodd">
        <path d="M83.974 54.236c-.352-6.069-.658-9.6-.92-10.596-.391-1.493-2.064-5.612-2.064-6.469 0-.857-1.105-1.255-1.504-.627-.64-.874-2.502-2.645-2.502-2.645s-3.452 7.263-4.128 8.502c-.675 1.24-1.69 2.102-3.85 0s-6.741-6.451-6.741-6.451-.328-2.445 0-3.122.53-2.827-1.303-1.414c-1.834 1.414-5.572 5.524-6.917 6.961-1.344 1.437-5.785 5.563-7.663 6.914-1.878 1.352-2.107 1.326-3.548 1.657-1.44.33-5.795 1.871-6.272 2.546-1.038.305-2.436-.27-2.996.4-.56.671-1.04 1.417-1.732 1.417s-4.145.536-4.892.943c-.498.272-1.006.66-1.525 1.163-6.564 1.243-10.482 2.15-11.755 2.722-1.91.858-2.396 1.852-3.135 2.765-.493.608.413 2.23 2.719 4.863l33.94 2.9 14.36-2.81 4.28 2.81 18.148-12.429Z" fill="#DBE9ED"/>
        <path d="M28.209 54.505c-2.763 2.424-13.353 2.964-14.904 5.226-.66-.92-1.173-1.703-1.537-2.347.44-.43 1.017-.853 1.894-1.247 1.273-.571 5.191-1.48 11.755-2.722.519-.504 1.027-.891 1.525-1.163.527-.287 2.4-.639 3.701-.82-.427 1-1.238 2.024-2.434 3.073Z" fill="#E6F2F6"/>
        <path d="m56.04 36.233 4.002.188 11.764 9.725-8.756-2.612.77 4.466-13.236-6.292c1.45-1.328 2.814-2.642 3.461-3.333.45-.481 1.17-1.263 1.996-2.142Z" fill="#B1BECB"/>
        <path d="M15.535 57.786c-1.19 1.774-1.784 3.062-1.784 3.865a8.825 8.825 0 0 1-2.17.065c-.404-.558-.706-1.04-.903-1.445l-.281-.91c.092-.229.178-.436.258-.622.623-.802 1.13-1.657 2.628-2.42.482.32 1.232.81 2.252 1.467Z" fill="#EDF0F5"/>
        <path d="m50.152 40.263.162 1.793 1.232-.26c2.406-1.824 3.835-2.964 4.288-3.421.68-.686 3.24-1.856 4.788-.866 1.546.99 6.617 5.606 7.814 6.119 1.196.513 3.467 1.657 5.857-.863 1.593-1.68 3.369-3.412 5.327-5.197-.052-.998-.333-1.767-.841-2.304-.762-.807-1.136-1.553-1.795-1.365-.44.125-2.449 2.944-6.029 8.456-.21.53-.543.613-.999.248-.684-.547-6.12-5.71-6.906-6.182-.785-.471-4.098-2.531-6.484-1.157-2.387 1.374-6.414 4.999-6.414 4.999Z" fill="#CFD8E1"/>
        <path d="M76.984 33.9c.244 0 1.002.739 1.795 1.364.193.152.353.35.48.596l-2.103-.738c-3.942 5.39-6.103 8.185-6.482 8.386-.57.302-3.833-2.352-5.788-4.137-1.955-1.785-3.219-3.022-5.428-3.245-2.21-.222-5.02 2.322-5.707 3.245-.688.923-3.471 1.39-3.471.907a.51.51 0 0 1 .049-.174c.8-.709 4.147-3.638 6.237-4.84 2.386-1.374 5.699.686 6.484 1.157.785.472 6.222 5.635 6.906 6.182.456.365.79.283 1-.248 3.856-5.637 5.866-8.456 6.028-8.456Z" fill="#E7F1FC"/>
        <path d="M75.25 52.737c-6.384-.419-11.592-.8-15.625-1.145-6.05-.518-11.646-1.936-16.216-1.537.39-1.6.747-2.976 1.071-4.129l6.03-4.732s.803.052 1.364.027c.378-.017.521-.136.705-.072.925.318 3.966 1.614 9.121 3.89l-3.154-4.16c-.738-.971-.2-1.09 1.612-.354 1.813.735 4.37 1.776 7.67 3.124 2.054.418 3.465.5 4.233.246 1.153-.381 3.317-2.33 3.855-3.425.538-1.094 3.275-2.486 3.275-3.122 0-.637 1.566-1.618 2.02-.758.304.574 1.02 3.326 2.15 8.259l-3.625 8.762-1.002.419-.822-4.366-2.663 3.073Z" fill="#8E9CA3"/>
        <path d="M75.389 52.226c-6.383-.418-11.591-.8-15.625-1.145-6.05-.518-11.645-1.935-16.215-1.537.39-1.6.747-2.976 1.07-4.128l6.03-4.733 12.338 5.463-4.301-5.779 8.849 3.59c2.173.508 3.644.635 4.412.38 1.153-.38 3.991-2.875 4.53-3.97.538-1.094 3.076-2.403 3.076-3.04 0-.636 1.328-1.376 1.783-.516.303.574 1.025 3.082 2.164 7.527L79.876 53.1l-1.003.419-.822-4.366-2.662 3.073Z" fill="#CFDBE1"/>
        <path fill="#B9C0C2" d="m74.83 52.031-4.618-5.365-6.857 6.196 5.067 4.924z"/>
        <path d="m63.06 61.671.473-.757 15.055-13.84.527 4.225 3.949-8.25c1.89-5.656 1.705-7.07-.557-4.241-.434.635-1.182-.71-1.182-1.434s-1.097-8.632-2.21-8.632-1.422 1.633-.87 3.327c.368 1.13.658 2.197.87 3.204l-.87-1.232c-1.065-3.52-.95-5.508.343-5.965 1.94-.685 1.983 1.328 2.36 2.277.377.948.707 7.04.707 7.597 0 .559.584.929.852 0 .269-.928 1.825-1.704 2.228-.752.402.952-.988 5.61-1.209 6.117-.1.23.121 2.608.3 5.862.055 1.01.108 2.64.157 4.891l-16.276 9.107h-4.174l-.473-1.504Z" fill="#819AA2"/>
        <path d="m63.05 62.261.474-.757 15.054-13.84.528 4.225 3.948-8.249c1.89-5.656 1.705-7.07-.556-4.242-.435.635-1.182-.71-1.182-1.434s-1.097-8.632-2.21-8.632-1.422 1.634-.87 3.327c.368 1.13.658 2.198.87 3.205l-.87-1.233c-1.066-3.52-.951-5.507.342-5.964 1.941-.686 1.983 1.327 2.36 2.276.378.948.707 7.04.707 7.598 0 .558.584.928.853 0 .268-.929 1.825-1.705 2.227-.753.403.953-.987 5.61-1.208 6.117-.1.23.12 2.608.3 5.862.055 1.01.107 2.64.157 4.892l-16.276 9.106h-4.174l-.474-1.504Z" fill="#E6EBEC"/>
        <path d="M18.117 62.816c4.146-3.877 6.563-6.066 7.253-6.569 1.035-.754 3.165-3.03 3.165-3.545 0-.514.584-1.464.963-1.464.38 0 3.09-.44 3.09 0 0 .439-.412 3.607 2.115 6.51 1.685 1.935 3.778 4.193 6.278 6.773H26.413l-8.296-1.705Z" fill="#9EAFBF"/>
        <path d="M17.61 62.854c4.145-3.876 6.563-6.066 7.253-6.568 1.034-.754 3.165-3.03 3.165-3.546 0-.514.583-1.464.963-1.464s3.09-.44 3.09 0-.412 3.607 2.115 6.51c1.685 1.936 3.777 4.193 6.277 6.773H25.905l-8.296-1.705Z" fill="#E2EFFC"/>
        <path d="M32.082 51.276c0 .392-.33 2.962 1.401 5.575-.67.956-5.348.81-9.13 2.095-1.812.616-3.189 1.108-4.13 1.477 2.564-2.373 4.11-3.752 4.64-4.137 1.034-.754 3.165-3.03 3.165-3.546 0-.514.583-1.464.963-1.464s3.09-.44 3.09 0Z" fill="#F0F7FE"/>
        <path d="M62.393 59.61c-7.803-2.985-12.6-5.116-14.393-6.392-1.793-1.277-2.952-3.461-3.477-6.552-.389-.216-.99-.216-1.803 0-1.22.323-6.158 2.289-6.158 2.826 0 .537 1.158 6.117.77 7.206-.387 1.088-.716 2.906-2.024 3.65-.872.497-3.692 1.636-8.462 3.417h7.615l2.101.794L48 62.854l3.454-.914.78 2.226 10.16-4.555Z" fill="#B6CCDA"/>
        <path d="m47.905 53.727.287.054c2.515 2.092 6.994 3.983 13.513 5.696 1.058.664 1.739 1.647 2.037 2.933l.078.395-.592.098c-.217-1.316-.828-2.282-1.758-2.881-6.23-1.623-10.664-3.452-13.312-5.499l-.218-.175-10.372 3.454-.05.206c-.34 1.202-.948 2.04-1.826 2.494l-.271.125-3.778 1.583-3.199 1.362-.235-.552 6.598-2.79.389-.16c.834-.337 1.414-1.064 1.74-2.209l.09-.355.198-.22 10.681-3.559Z" fill="#9AB8C2" fill-rule="nonzero"/>
        <path d="M45.787 44.518c.403.251.736.335 1.001.251.397-.126 2.95-1.74 2.95-2.227 0-.486.556-2.267.844-2.445.193-.12.742-.295 1.649-.526-.464.946-.753 1.48-.866 1.6-.17.183-.384 1.361-.384 1.771 0 .41-.62 1.051-1.243 1.576-.622.524-2.987 1.628-3.247 1.628h-1.048l.344-1.628Z" fill="#6E7F87"/>
        <path fill="#788795" d="m44.68 47.798-.06-2.828 1.234-.451.135.274.031 4.534z"/>
        <path fill="#B1BECB" d="M44.62 47.379V44.97l1.22-.505v4.339z"/>
        <path fill="#788795" d="m48.138 47.034-1.908-3.062 2.7-1.916 4.088 5.317z"/>
        <path fill="#B1BECB" d="m48.37 46.666-2.14-2.694 2.7-1.916 3.695 4.924z"/>
        <path d="M59.443 39.103c.218-.413-.114-.805-.557-1.143-.442-.339-1.882-1.255-2.157-1.539-.276-.283-2.062-.559-2.259.244-.573-.094-1.338.029-1.338.954 0 .926.676 2.767 1.128 2.937.452.169 1.091-.052 1.091-.426s-.88-2.219-.88-2.51c0-.292.239-.403.56-.348.32.056 2.56 1.583 3.1 1.831.538.248 1.095.413 1.312 0Z" fill="#6E7F87"/>
        <path d="M12.193 60.556c3.746.856 5.977 1.283 6.692 1.283h4.635c-.444.372-.222.58.666.626 1.331.067 5.793.383 6.518.383.484 0 2.079-.128 4.785-.383.092.653.773.98 2.042.98 1.27 0 4.229-.493 8.878-1.479 5.194-1.91 7.792-2.747 7.792-2.512 0 .353-.825 2.512-.825 2.512s6.576-2.13 8.342-3.017c1.766-.886 3.781-.886 3.781-.886s-1.14 4.019-.336 4.402c.804.383 5.858-1.584 9.796-3.748 3.939-2.163 8.03-4.43 8.468-4.894.438-.464 1.377.371 1.377 1 0 .42.129 1.568.386 3.446h.73s.16.463.477 1.39c1.317 1.875 1.975 2.94 1.975 3.195 0 .383-4.076 3.876-7.47 5.473-3.393 1.597-11.245 2.178-13.198 1.887-1.303-.193-5.247-1.421-11.833-3.683l-12.818 3.683-14.613-.672-15.05-4.316-2.113-5.002.916.332Z" fill="#739BA4"/>
        <path d="M12.02 60.946c3.747.855 5.977 1.283 6.692 1.283h4.635c-.443.372-.221.58.667.625 1.33.067 5.792.383 6.518.383.483 0 2.078-.128 4.784-.383.243.607.998.911 2.268.911 1.27 0 4.153-.47 8.653-1.41 5.194-1.909 7.791-2.746 7.791-2.511 0 .352-.824 2.511-.824 2.511s6.576-2.13 8.342-3.016c1.766-.886 3.78-.886 3.78-.886s-1.14 4.018-.336 4.401c.804.383 5.685-1.352 9.623-3.515 3.939-2.163 8.368-4.438 8.805-4.902.438-.465 1.37-.059 1.37.57 0 .42.13 1.568.387 3.446h.731l.476 1.39c1.327 1.752 1.99 2.756 1.99 3.011 0 .383-4.076 3.876-7.47 5.473-3.393 1.597-11.245 2.178-13.198 1.887-1.303-.193-5.247-1.421-11.833-3.683l-12.818 3.683-14.613-.672-15.05-4.316-2.285-4.612.916.332Z" fill="#C8D3DD"/>
        <path d="M86.314 59.336s-1.941 2.583-6.713 5.223c-.551.751-1.577 2.385-3.078 4.901 3.134-.677 5.892-1.913 8.275-3.707 2.383-1.793 3.724-2.957 4.025-3.492l-2.51-2.925Z" fill="#A2BBC2"/>
        <path d="M64.684 58.49 41.013 68.818l.524-.871 11.612-5.486c.28-.094 6.669-2.254 8.397-3.121 1.148-.576 2.401-.778 3.138-.848Zm-11.755 1.543-19.587 8.089.421-.923 10.515-4.444c.615-.122 1.268-.255 1.959-.4 3.243-1.192 5.474-1.966 6.692-2.322Zm32.246-1.58h.731c-.318.333-2.875 2.043-5.565 3.808-1.793 1.177-3.942 2.304-6.449 3.38l.19-.872 1.383-1.915-.792-1.614c-.394.562-.591.902-.591 1.021 0 .119-2.942 1.31-8.824 3.575l-1.503.695.95-4.492c.009.413.09.722.285.815.1.048.264.063.48.048l-.212 1.657c6.06-2.617 9.2-3.99 9.415-4.116.216-.127.671.547 1.365 2.02l-.86 1.564.025-.012c.167-.081 1.204-.605 3.867-2.301a104.889 104.889 0 0 0 5.985-4.143l.12.882Zm-50.418 4.453-3.881.695-8.694 2.43.334-.616 7.013-2.22c.475.026.837.042 1.003.042.45 0 1.857-.11 4.225-.33Zm-16.002-.678h4.592l-.041.037-7.983.798 3.432-.835Z" fill="#F2F2F2"/>
        <path d="M84.789 55.007c0 .402.118 1.474.355 3.215l.22-.13a513.215 513.215 0 0 1-11.282 6.677c.749-2.338.604-3.024.389-3.184-.215-.16-10.268 3.641-10.268 3.641l.52-3.972.021-.173-.004.099v.147l-.01.088c-.066.71-.025 1.303.26 1.439.804.383 5.685-1.352 9.623-3.515 3.939-2.163 8.368-4.438 8.805-4.902.438-.465 1.37-.059 1.37.57Z" fill="#D0DADE"/>
        <path d="M49.54 67.104c4.187-1.372 6.788-2.201 7.804-2.488 1.522-.43 4.202-1.093 4.202-.761 0 .331-.785 2.75-1.37 3.682-.39.621-.74 1.654-1.048 3.097l-1.784-1.602c-5.426.96-8.378 1.284-8.858.973-.479-.312-.128-1.279 1.053-2.901Z" fill="#A2BBC2"/>
        <path d="M49.964 68.599c1.279-.948 6.078-.686 6.525-.323.27.217.605.524.832.735l.023.021c-5.426.96-8.378 1.284-8.858.973a.441.441 0 0 1-.092-.08c.3-.331.824-.773 1.57-1.326Z" fill="#87A2AC"/>
        <path d="M57.344 69.032c-.492.649-.934.973-1.328.973-.591 0-6.53 1.995-8.016 1.995H37.128l-.994-.844-1.36.844c-11.643-1.373-19.474-3.96-23.49-7.763-1.701-1.634-1.952-3.562-.752-5.784l1.814 2.8c1.77 2.975 7.57 5.37 17.4 7.183 4.078.608 8.338.988 12.78 1.14l7.013-2.472c-1.102 1.71-1.452 2.677-1.053 2.9.4.225 3.352-.1 8.858-.972Z" fill="#ABB8CA"/>
        <path d="M57.344 69.032c-.492.649-.934.973-1.328.973-.591 0-6.53 1.995-8.016 1.995h-.241c-.07-.34.103-.987.52-1.94.034-.042.072-.088.116-.135.024.032.055.059.091.08.4.224 3.352-.1 8.858-.973Z" fill="#99A1B3"/>
        <path d="M60.09 67.2c5.763 1.828 9.238 2.742 10.425 2.742 1.78 0 5.863-.416 8.043-.893 2.18-.478 8.595-4.763 9.796-6.195.172.196-.895 3.84-2.987 5.464C83.275 69.942 79.78 72 75.148 72H62.02c-1.287 0-2.251-.455-2.892-1.366.062-.622.154-1.15.276-1.585.122-.436.35-1.052.685-1.85Z" fill="#ABB8CA"/>
        <path d="M44.23 46.98c.523 3.346 1.118 5.69 1.785 7.032-2.231-.391-5.12-.852-8.665-1.38l-.768-3.62 6.41-2.658 1.238.626Z" fill="#9AB1C0"/>
        <path d="M44.23 46.504c.142 3.335.546 5.673 1.213 7.015-2.231-.391-4.848-.822-7.851-1.293l-.797-3.422 6.41-2.658 1.025.358Z" fill="#CFE1ED"/>
        <path fill="#4B4848" fill-rule="nonzero" d="m69.498 48.741.697.717-3.83 3.72-.697-.717zM70.677 50.068l.697.717-3.83 3.72-.697-.717zM71.72 51.275l.696.717-3.83 3.72-.697-.717z"/>
        <path d="M76.27 44.544c-.336.221-.617.213-.844-.026-.227-.239-.216-.524.032-.856l5.872-5.314c.085.273.157.467.215.584.058.116.147.244.267.385l-5.541 5.227Z" fill="#8E9CA3" fill-rule="nonzero"/>
    </g>
</svg>
