<svg width="96" height="96" xmlns="http://www.w3.org/2000/svg">
    <defs>
        <path id="a" d="M0 0h96v96H0z"/>
    </defs>
    <g fill="none" fill-rule="evenodd">
        <path d="M60.018 44.017c.555-2.473 1.62-6.384 1.727-8.837.106-2.454-.072-4.756-1.229-5.544-.32-.1-.892-.163-1.182.086-.393 0-1.301-.234-4.137 2.955-2.835 3.188-3.358 4.536-3.483 4.703-.124.168-.715.98-1.383 1.36-.669.38-2.12 1.245-2.555 2.106-.434.86-1.776 1.344-2.621 1.912-.846.569-3.413 1.79-4.245 2.573-.833.782-2.148 1.314-3.062 1.693-.913.38-2.146 1.305-2.456 1.515-.31.209-2.071.784-3.096 1.314-.972.354-2.27.841-3.744 1.8-1.474.96-1.803 1.165-2.476 1.886-.673.722 12.198-1.414 17.847-2.29 5.65-.874 15.54-4.759 16.095-7.232Z" fill="#3B3B3B"/>
        <path d="M57.816 30.765c.034.148-.533.485-.766.547-.232.063-1.16 1.078-1.4 1.314s-.944 1.135-1.151 1.361c-.207.226-.346.18-.496.59-.15.408-.277.998-.458 1.428l-.17.377c-.103.218-.178.371-.183.473v.192c-.005.094-.027.176-.125.203-.162.047-.573.076-.488 0 .074-.065.217-.427.33-.795l.272-.915c.04-.147.068-.276.068-.373l.004-.149.424-.543c.077-.096.156-.195.239-.296l.219-.192c.112-.12.258-.322.374-.518l.447-.519.549-.614c.018.002.02.013.01.033a2.505 2.505 0 0 1-.173.338l1.51-1.395.201-.236c.079-.09.167-.183.26-.252.187-.137.468-.208.503-.059Z" fill="#AEC77D"/>
        <path d="M59.474 29.634c.308-.142.768-.084 1.042.002 1.157.788 1.335 3.09 1.229 5.544-.107 2.453-1.172 6.364-1.727 8.837-.54 2.412-9.956 6.165-15.663 7.162L36 52.49c-4.763.73-9.444 1.385-9.912 1.146.321-.449.707-.834 1.059-.999l.336-.17c1.073-.57 3.418-1.957 3.535-1.735.133.25.993.222 1.592-.18l.419-.271c.788-.502 2.208-1.364 3.065-1.794l.263-.126c.797-.36 1.856-1.014 2.736-1.482l.503-.254c.844-.399 2.374-1.368 3.334-1.85l1.052-.485c1.16-.547 2.94-1.46 3.23-1.86.363-.503 1.374-1.593 1.69-1.945.271-.302.964-.48 1.448-.742l.222-.138c.464-.343 1.073-.178 1.77-.894l3.559-3.526c.438-.44.86-.869 1.227-1.253 1.271-1.33 2.071-3.317 2.26-4.246l.085-.052Z" fill="#1F2224"/>
        <path d="M61.001 30.128c.722 1.04.833 2.993.744 5.052-.107 2.453-1.172 6.364-1.727 8.837-.54 2.412-9.956 6.165-15.663 7.162l-9.05 1.417c-4.976.756-9.641 1.385-9.23.943l.28-.289.132-.127c1.051-.68 2.434-1.312 2.804-1.428l1.092-.351c.292-.098.56-.193.717-.26.367-.158.3-.245.34-.769l.023-.148.419-.161c.076.425.292 1.083.591 1.356.438.4 2.09.375 2.799-.279l.603-.535c.39-.357.586-.631.227-.925-.351-.288-1.141-.536-1.538-.725l.409-.161.165-.07.134.005c.436-.01.624.39 1.18.117l.2-.117c.718-.484.826-.166 1.309.194s.403-.41.473-.866c.04-.262.3-1.013.514-1.452l.289-.133-.006.85c.007.439.05.804.23 1.013.287.334 1.374-.087 1.808-.278.434-.191-.604-.982-.963-1.271-.181-.145-.506-.325-.723-.494.256-.132.504-.278.737-.437.273.075.584.227.949.424.75.406 1.377 1.321 2.208 1.778.83.457 2.04-.918 2.179-1.593.139-.674-.84-1.773-.953-1.9-.113-.128-.713-.018-1.047 0-.333.017.486-.71.274-.902a.357.357 0 0 0-.131-.065l.468-.258.377.13c.143.053.303.117.482.193.822.348.88 1.577 1.469 1.892.589.314 2.005-.522 2.568-.746.563-.223.233-1.972-.512-2.57-.425-.34-1.029-.51-1.533-.607.285-.213.519-.45.658-.728l-.11.171c.372.023.493.205.985.411.57.239 1.973 1.377 2.428 1.695.455.318.794-1.5 1.023-1.854.229-.356-.087-1.806-.52-2.427-.17-.241-.43-.39-.78-.445.184-.158.354-.336.497-.498l.076-.01c.255-.014.874.31 1.385.598l.627.355c.427.232 1.205.672 3.506-1.859 1.957-2.151 3.515-5.035 4.057-6.687l.051-.168Z" fill="#212121"/>
        <path d="M59.474 29.634c.308-.142.768-.084 1.042.002 1.157.788 1.335 3.09 1.229 5.544-.091 2.093-.88 5.25-1.455 7.667-.88-.077-1.866-.876-1.73-1.23l.332-.886c.249-.68.57-1.599.845-2.514.433-1.438.72-5.233.669-6.161-.045-.8-.686-1.9-1.06-2.347l.128-.075Z" fill="#EF9890"/>
        <path d="M59.445 29.65c.176.117.344.32.503.607.466.843.771 2.053.955 2.857.129.563.484.418.838-.12.042.686.037 1.428.004 2.186-.091 2.093-.88 5.25-1.455 7.667-.88-.077-1.866-.876-1.73-1.23l.332-.886.326-.915c.172-.5.354-1.05.52-1.599.432-1.438.719-5.233.668-6.161-.045-.8-.686-1.9-1.06-2.347l.099-.059Z" fill="#E1786E"/>
        <path d="M60.372 33.408c.061.826.074 1.787.028 2.154-.054.43.746-.384 1.367-1.17-.003.26-.01.523-.022.788-.091 2.093-.88 5.25-1.455 7.667-.88-.077-1.866-.876-1.73-1.23l.332-.886.326-.915c.172-.5.354-1.05.52-1.599.296-.989.525-3.091.622-4.61l.012-.2Z" fill="#DB695F"/>
        <path d="m61.72 35.564.025-.384c-.091 2.093-.88 5.25-1.455 7.667-.88-.077-1.866-.876-1.73-1.23l.332-.886.326-.915c.172-.5.354-1.05.52-1.599.108-.36.207-.87.294-1.445.41-.16 1.168-.774 1.687-1.208Z" fill="#CA4C41"/>
        <path d="M60.29 42.847c-.88-.077-1.866-.876-1.73-1.23l.332-.886.326-.915c.172-.5.354-1.05.52-1.599.092-.309.178-.726.256-1.2.06.748.183 1.119.369 1.11.33-.016.924-.83 1.23-1.433-.275 1.928-.854 4.265-1.303 6.153Z" fill="#B73327"/>
        <path d="m59.871 37.679.053-.267.028.207.01.136c.044.88.248 1.027.563 1.051.224.018.474-.252.819-.662-.296 1.572-.713 3.267-1.054 4.703-.88-.077-1.866-.876-1.73-1.23l.332-.886.326-.915c.172-.5.354-1.05.52-1.599.046-.154.09-.336.133-.538Z" fill="#9D1F14"/>
        <path d="M33.377 51.989c-.166-.86.084-2.443.352-3.15.268-.708.532-.815.783-.877.251-.062.734-.026.892.028.158.054.227.153.293.255.065.102 2.059.997 2.398 1.23.34.232.862.535 1.056.435.195-.1 2.987-1.539 3.2-1.766.214-.227-.227-.561-.518-.703-.291-.142-1.08-.847-1.497-1.001-.416-.154-.793-.224-1.167-.136-.374.087-.098-.67.215-.882.313-.213 1-.229 1.404 0 .404.228 2.07 1.31 2.482 1.756.412.445 3.182-1.063 2.972-1.438-.21-.376-.755-1.083-1.28-1.526-.524-.442-1.032-.84-1.364-.846-.332-.006-.41.067-.422 0-.012-.067.137-.657.516-.779s.959.045 1.27.258c.313.212 2.362 1.884 2.696 2.308.335.424 2.51-1.14 2.679-1.322.168-.183-1.131-1.39-1.701-1.74-.57-.351-1.379-.766-1.783-.72-.405.045-.487-.414-.17-.666.317-.252 1.024-.303 1.87.145.845.449 2.175 1.658 2.542 2.016.366.357 1.908-1.977 2.079-2.406.17-.428-1.042-1.606-1.498-1.913-.457-.307-1.032-.264-1.255-.163-.223.1-.155-.794.16-.974a.955.955 0 0 1 1.095.108c.34.288 1.223.539 1.766.866.542.327 1.156 1.67 1.17 2.051.014.38-1.481 2.703-2.936 3.777-1.456 1.074-9.668 5.036-11.13 5.933-1.461.898-2.408 1.134-2.836.618-.428-.515-1.578-1.2-2.013-1.44-.436-.24-.856-.329-1.1-.297-.165.485-.265.83-.3 1.036-.053.308-.026 1.987-.294 2.113-.268.126-.459.671-.626-.188Z" fill="#41413D"/>
        <path d="m35.435 48.131.643.415c.076.053.117.086.086.077l-.056-.024c-.305-.145-.738-.334-.955-.308-.217.025-.265.37-.235.376l.234.052c.226.057.58.165.921.342.454.235 1.172.648 1.773 1.044l.917.629c.09.06.177.118.258.17-.543.182-.945.174-1.207-.036l-.104-.103c-.428-.515-1.578-1.2-2.013-1.44-.436-.24-.856-.329-1.1-.297l-.166.515a4.614 4.614 0 0 0-.134.52c-.033.193-.035.919-.097 1.468l.018-.536c.04-.831.133-1.73.17-1.93.064-.334.299-.95.483-.976.184-.026.441-.016.564.042Zm4.082-2.526c.25.007 1.055.451 1.572.775l1.296.854c.535.36 1.062.726 1.174.855.086.098.179.22.263.328l-1.113.57a8.112 8.112 0 0 0-.544-.706l.148-.103a.35.35 0 0 0 .039-.034c.213-.227-.228-.561-.52-.703-.29-.142-1.08-.847-1.496-1.001-.377-.14-.723-.21-1.064-.157l.005-.18c.019-.336.099-.502.24-.498Zm4.226-2.37c.355.016 1.523.77 2.024 1.317l1.754 1.97-.756.391-.182-.345c-.112-.202-.25-.436-.386-.654.053-.07.07-.13.045-.174-.21-.376-.755-1.083-1.28-1.526l-.387-.318c-.38-.299-.728-.524-.977-.528l-.24.01a.558.558 0 0 1 .385-.143Zm3.356-2.257c.605.192 1.289.504 2.396 1.408l.312.262c.656.562 1.268 1.091 1.836 1.59l.033-.024c-.178.131-.455.305-.808.51a15.365 15.365 0 0 0-.597-.833l.066-.058c.168-.183-1.131-1.39-1.701-1.74-.499-.307-1.18-.663-1.614-.717l-.17-.004c-.208.024-.33-.087-.358-.234.147-.146.353-.24.605-.16Zm4.426-3.564.15.106c.34.288 1.224.539 1.767.866.542.327 1.156 1.67 1.17 2.051.005.14-.193.542-.519 1.047-.203-.341-.55-.781-.914-1.184-.082-.505-1.095-1.476-1.503-1.75-.457-.308-1.032-.265-1.255-.164-.096.043-.138-.098-.13-.288a.458.458 0 0 1 .27-.147c.502-.11.804.058 1.36.371.558.314.1-.458-.312-.654l-.25-.123c-.176-.085-.31-.13-.691-.172l-.086.04a.954.954 0 0 1 .943 0Z" fill="#1C1C1A"/>
        <path d="m81.052 32.173.16.077c.433.231 1.372.907 1.4 2.465.034 1.797-.603 2.142-1.135 2.935l-.304.477c-.47.77-.963 1.718-.953 2 .012.344.445 1.24.416 1.443-.029.203-1.25 1.422-1.23 1.128v-.259c-.01-.837-.107-3.291-.298-3.738-.22-.516-.814-1.414-1.193-1.659-.378-.245-.672-.49-.503-1.312.168-.822.93-2.443 1.508-2.986.579-.543 1.849-.693 2.132-.571Zm.267 1.806c-.249-1.253-1.706-1.21-1.808-1.15-.103.062-.531.648-.803 1.449-.181.533-.3 1.149-.357 1.847.152.024.283.072.394.144.167.108.661.579.742 1.074.054.33.168.815.34 1.454l.35-.593c.145-.243.684-.95.838-1.344.154-.394.552-1.628.304-2.881Z" fill="#79AA3B"/>
        <path d="M81.912 33.147c.196.444.53 1.306.51 1.777-.02.471-.113.982-.178 1.101-.062.113-1.073 1.012-1.423 1.203a2.42 2.42 0 0 0 .194-.368c.154-.394.552-1.628.304-2.881-.249-1.253-1.706-1.21-1.808-1.15a.565.565 0 0 0-.111.116l.043-.078c.188-.282.51-.468.858-.52.578-.09 1.414.355 1.61.8Z" fill="#98C165"/>
        <path d="M77.837 35.106c.225.04.215.47.137.748l-.06.24c-.027.131-.019.2.06.174l.283-.104a1.65 1.65 0 0 1 .124-.035l-.03-.004c.152.024.283.072.394.144.167.108.661.579.742 1.074.054.33.168.815.34 1.454l.35-.593.465-.69a4.57 4.57 0 0 0 .352-.604l.33-.239c.318-.235.698-.55.822-.87.208-.539.214.134 0 .467-.214.332-1.033 1.385-1.363 1.846-.33.46-.602.882-.732 1.336-.13.453-.111 2.038-.176 2.096-.024.021-.234.027-.49.027l-.046-.93c-.05-.852-.127-1.697-.231-1.942-.22-.516-.814-1.414-1.193-1.659-.378-.245-.672-.49-.503-1.312.025-.122.063-.263.112-.414.119-.134.231-.225.313-.21Z" fill="#3B760B"/>
        <path d="M26.495 53.483c1.73-.605 5.078-1.61 6.829-2.292 1.75-.682 8.11-4.037 9.458-4.837.899-.534 2.194-1.245 3.887-2.134-.229-.349-.224-.606.012-.771.356-.248 4.882-2.584 6.793-3.763 1.912-1.18 2.598-2.158 4.88-1.158 2.28 1 5.095 2.103 7 2.563 1.905.46 3.293.766 4.672.594 1.379-.171 1.912-.85 2.232-1.556.321-.706.834-1.93 1.397-2.536.562-.606 2.051-1.572 2.254-1.747.203-.174.829-.712 1.323-.522.494.19.658.224.704.412.045.188-.102.505-.154.582.203-.064.82-.096 1.13.59.308.687.822 2.061.848 2.554.026.492.046 2.89 0 3.325-.046.435-2.55 17.182-3.538 17.615-.987.433-25.328 2.388-27.137 2.89-1.81.503-5.471 2.517-7.538 2.81-2.067.294-17.956-.709-19.73-1.219-1.773-.51-5-2.067-4.676-3.182.324-1.114 7.625-7.613 9.354-8.218Z" fill="#BEBDB2"/>
        <path d="M68.97 52.464c-1.907 2.527-6.027 6.418-10.214 9.754l-4.656.456c-2.63.268-4.554.49-5.015.618-1.81.503-5.471 2.517-7.538 2.81-2.067.294-17.956-.709-19.73-1.219-1.584-.456-4.328-1.747-4.665-2.812.057-.24.12-.483.19-.726.595-.842 2.396-2.59 4.273-4.228l.233.51c.862 1.803 2.197 3.746 4.649 3.366l3.848-.564c3.268-.51 6.953-1.268 8.063-2.621 1.603-1.955 2.766-2.122 5.866-.776 2.067.898 9.078-1.262 21.034-6.48l.766-.304c4.281-1.639 5.246-.9 2.896 2.216Z" fill="#B8B6B0"/>
        <path d="M58.353 38.528c2.281 1 5.096 2.103 7.001 2.563l1.085.254c1.375.309 2.484.478 3.587.34 1.379-.171 1.912-.85 2.232-1.556l.17-.377.784.21c2.672.747 3.17 1.267 2.945 2.977-.35 2.646-8.165 5.747-6.567 4.573l.138-.096c2.13-1.426 2.382-3.04.84-3.492-1.544-.451-6.14-.687-8.809-1.61-2.668-.924-3.604 1.483-3.211 3.291.385 1.771-14.393 8.857-16.863 9.43l-.138.028c-1.985.302-7.806 3.48-11.356 4.306-2.677.623-7.669.183-10.945-.083l.65-.618c2.36-2.208 5.535-4.813 6.6-5.185l1.206-.405c1.798-.59 4.221-1.341 5.622-1.887l.555-.235c2.156-.963 7.164-3.603 8.7-4.484l.861-.5a110.83 110.83 0 0 1 3.229-1.752c-.229-.349-.224-.606.012-.771l.172-.104c.92-.525 4.87-2.578 6.621-3.66l.567-.363c1.507-1 2.271-1.689 4.312-.794Z" fill="#CFD1C0"/>
        <path d="m77.232 35.324.348.132c.23.09.323.146.356.28.045.188-.102.505-.154.582.203-.064.82-.096 1.13.59l.228.543c.284.711.6 1.628.62 2.01l.02.885c.01.7.011 1.609-.003 2.118l-1.93.412c-.576.128-1.109.26-1.333.358-.42.186-1.094-.044-1.636-.298l-.425-.213c-.562-.302-1.623-.724-2.241-1.106-.135-.083-.305-.372-.378-.8.184-.214.316-.45.424-.688l.32-.705c.298-.65.675-1.398 1.077-1.831.562-.606 2.051-1.572 2.254-1.747l.192-.158c.282-.22.747-.512 1.131-.364Z" fill="#C0C0AF"/>
        <path d="M77.782 36.318c.203-.064.82-.096 1.13.59l.228.543.214.56c.21.576.39 1.163.406 1.45l.02.885.006 1.498c-.001.236-.004.45-.01.62l-.205.04-.002-.82c-.01-.755-.043-1.311-.098-1.67-.131-.845-.765-2.54-.981-2.984-.178-.363-1.253-.425-1.712-.38l-.098.015.653-.276c.173-.07.352-.14.513-.192l-.064.121Z" fill="#C1D1AD"/>
        <path d="M77.34 37.488c.647.218 2.115 1.457 2.445 3.095l.001 1.261c-.001.236-.004.45-.01.62l-1.93.412-.55.128c-.346.084-.633.165-.782.23-.42.186-1.094-.044-1.636-.298l-.425-.213c-.429-.23-1.148-.53-1.74-.83.512-.756 1.345-2.322 1.692-3.11.425-.969 2.277-1.516 2.934-1.295Z" fill="#B3B4A9"/>
        <path d="m77.232 35.324.348.132c.23.09.323.146.356.28.037.153-.055.393-.117.518l.135-.057c-.154.07-.332.14-.534.208l-.32.104c-.509.154-1.555.614-2.046 1.008-.49.394-.869 1.104-1.398 2.123l-.316.618c-.426.824-.895 1.61-1.712 1.946-1.021.42-2.933.568-4.924.179-1.991-.39-4.893-1.302-6.674-2.135l-.84-.385c-1.315-.589-2.225-.908-2.857-.93-.586-.02-3.526 1.858-5.288 3.005L47.47 44.25c-.331.203-.868.04-.852-.345l.026-.287.024-.159c.369-.258 4.895-2.594 6.806-3.773l.567-.364c1.507-1 2.271-1.689 4.312-.794 2.281 1 5.096 2.103 7.001 2.563l1.085.254c1.375.309 2.484.478 3.587.34 1.379-.171 1.912-.85 2.232-1.556l.32-.705c.298-.65.675-1.398 1.077-1.831.562-.606 2.051-1.572 2.254-1.747l.192-.158c.282-.22.747-.512 1.131-.364Z" fill="#323232"/>
        <path d="M49.786 46.276c-1.439.688-4.05 1.886-5.818 3.125-1.768 1.239-2.55 2.284-1.352 3.488 1.198 1.204 4.4 3.428 5.384 3.179.985-.25 17.33-6.506 17.263-6.667-.067-.16-4.259-2.32-6.937-3.38-2.678-1.061-3.854-1.658-4.556-1.518-.703.14-2.545 1.084-3.984 1.773Z" fill="#ABAA9E"/>
        <path d="M53.77 44.503c.66-.132 1.741.39 4.1 1.335l.456.182c.21.083.428.173.652.267-2.944 2.225-5.316 3.631-7.117 4.22l-1.18.387c-2.066.668-5.131 1.581-8.232 1.817-.95-1.132-.16-2.134 1.519-3.31 1.286-.901 3.018-1.78 4.42-2.458l3.15-1.515c.935-.448 1.8-.84 2.232-.925Z" fill="#B2B3A2"/>
        <path d="M51.606 47.526c.015 0-.502 3.374 1.553 3.417 2.054.043 3.273-.5 6.166-1.957 2.894-1.456 8.785-4.445 9.15-4.576.365-.132.014.384-1.385 1.516-1.4 1.132-7.97 5.545-8.559 5.983-.588.438-2.482 1.53-3.837 2.192-1.354.663-2.766.98-4.014.251-1.248-.727-1.153-2.472-.735-3.838.418-1.366 1.645-2.988 1.66-2.988Z" fill="#CED0C3"/>
        <path d="M55.234 44.821c-.246.237-.862.488-1.196.478-.334-.01-3.92.024-4.122-.011-.203-.035-1.361-.8-1.63-1.136-.02-.025-.398.225-1.133.752-.332-.542-.493-.83-.484-.863.028-.108 2.815-1.976 8.36-5.603l5.366 1.568a8.17 8.17 0 0 0-.41.26c-.59.413-.755.859-1.076 1.21-.584.637-3.519 3.196-3.675 3.345Z" fill="#7B7B77"/>
        <path d="M55.004 44.543c-.246.236-.546.405-.88.395-.334-.01-4.233-.103-4.504-.204-.187-.069-1.722-1.557-1.74-1.68a4.498 4.498 0 0 1-.002-.652c.042-.162 4.551-2.533 6.957-4.5 2.406-1.966 3.083-2.51 3.43-2.536.347-.025 1.814.529 1.881.79.068.262.016.734-.166 1.024-.181.29-.388.654-.293 1.128.095.474.405 1.143-.146 1.964-.55.82-4.29 4.035-4.537 4.271Z" fill="#333638"/>
        <path d="M54.612 44.39c-.078.041-.359.239-.554.239-.196 0-4.22-.238-4.49-.338-.271-.1-1.713-1.684-1.67-1.846.042-.161 4.531-2.576 6.937-4.543 2.406-1.966 2.906-2.4 3.253-2.426.347-.025 1.866.634 1.933.895.068.261-.183.52-.364.81-.182.29-.302.689-.207 1.163.095.474.379.805-.172 1.626-.55.822-4.588 4.379-4.666 4.42Z" fill="#333638"/>
        <path d="M58.234 35.527c.215.04 1.096.424 1.458.623l.139.087.19.15.01.115a.803.803 0 0 1-.14.33l-.249.374a.874.874 0 0 1-.17-.16c-.076-.109-1.44-.882-1.62-.885-.178-.003-.376.15-.275.212l.666.378c.255.148.526.315.709.451.41.307.44.504.34.588-.087.073-.28-.12-.724-.379l-.83-.45c-.314-.168-.563-.285-.681-.267-.163.025-.218.215-.084.313l.084.04c.232.068 1.364.805 1.88 1.109.516.303.527.666.49.747-.03.07-.22-.073-.455-.251l-.12-.091c-.288-.215-1.979-1.272-2.316-1.359-.338-.087-.473.172-.401.21l1.281.748c.694.417 1.768 1.106 1.82 1.226.065.145-.03.39-.052.462-.022.072-.569-.191-.636-.209-.068-.018-.115-.221-.143-.292-.028-.072-1.16-.893-1.796-1.233-.635-.34-.981-.425-1.088-.406-.107.02-.151.355.09.42.242.063 1.543.758 1.661.83l.877.707c.107.084.2.151.256.183l.248.14c.168.102.315.217.299.324-.025.16-.736.411-.81.358l-.576-.377-.61-.476c-.11-.092-.179-.159-.125-.147l.064.024c.329.148.533.052.199-.161-.334-.214-1.487-.84-1.668-.74-.182.099-.5-.071-.75-.106-.249-.036-.223.34-.335.394l-1.327.876a7.04 7.04 0 0 1-.353.217l-.093.045c-.192.059-.326.364-.07.349.255-.015 1 .574 1.288.795.287.22 1.2.654 1.151.544-.048-.11-1.97-1.559-2.058-1.688-.089-.13.134-.217.273-.192.14.025.713.48.953.695.241.215.379.04.358 0l-.128-.13c-.262-.252-.83-.78-.833-.822-.005-.054 1.07-.679 1.174-.689a.57.57 0 0 1 .215.068l.514.249 1.404.82c.294.168.827.59.8.627l-.032-.003c-.181-.063-.535.312-.724.52-.19.21-.84.086-.718.255s1.076.284 1.137.29c.061.005-.406.275-.59.331-.15.046-1.12-.592-1.608-.95l-.24-.187c-.258-.228-.454-.091-.222.09l1.539 1.103c.225.17.38.296.369.32-.036.077-.684.493-.823.62-.139.128-.88-.543-1.085-.72l-.228-.169c-.564-.399-1.912-1.295-2.031-1.39-.143-.114-.457-.244-.624-.178-.167.066-.314.317-.183.245.049-.026.178.033.336.126l1.326.86c.582.386 1.422.954 1.655 1.077.333.176.46.535.38.559-.08.024-.303.002-.438-.048a1.39 1.39 0 0 1-.216-.134l-.702-.52c-.14-.099-2.557-1.705-2.683-1.75-.125-.046-.404.115-.46.17-.034.036.078.127.268.26l2.1 1.418 1.46.958c.117.055.092.101 0 .183-.093.083-.378.07-.467.012l-1.72-1.064c-.585-.405-.814-.568-.684-.488.02.128.04.233.061.315.019.073.024.176.015.307.851.533 1.803 1.14 1.875 1.22.128.142-.722-.063-.924-.157-.136-.064-.808-.51-1.31-.86-.162-.113-.415.075-.927-.303s-.163-.514-.528-.747c-.282-.18-.531-.313-.602-.28-.163.073-.008.275.303.54.31.264 2.333 1.62 2.421 1.69.088.072-.876-.043-1.188-.173-.312-.13-1.785-1.449-1.95-1.58-.166-.13-.294-.162-.427-.099s-.083.105-.067.162c.016.057 1.387 1.25 1.837 1.517-.25.028-.73-.04-.863-.195l-1.203-1.306a1.884 1.884 0 0 1-.149-.178c-.053-.1 2.933-1.665 3.724-2.159.581-.362 2.042-1.498 2.94-2.211l2.355-1.921.441-.374c.218-.17.512-.356.7-.322Z" fill="#1A1B1C"/>
        <path d="M64.36 50.552c-6.097 6.322-9.437 9.7-10.017 10.133-.87.65-1.043 1.423-1.067 1.622-.025.199 17.147-.738 19.438-.815a69.853 69.853 0 0 1 4.635 0l-6.514-6.454 8.064-10.922-14.538 6.436Z" fill="#EC3333"/>
        <path d="m72.172 53.224-1.337 1.814 6.514 6.454a70.666 70.666 0 0 0-3.102-.034l-1.533.034c-2.291.077-19.463 1.014-19.438.815l.031-.161c.07-.28.271-.797.815-1.282l.391-.32c.286-.251.805-.751 1.558-1.5l16.1-5.82Z" fill="#DF2525"/>
        <path d="m64.36 50.552 14.465-6.408.03.028-8.02 10.866 6.514 6.454a70.666 70.666 0 0 0-3.102-.034l-1.533.034c-2.291.077-19.463 1.014-19.438.815l.031-.161c.07-.28.271-.797.815-1.282l.221-.18c.126-.093.381-.325.766-.696l-.557 1.088c-.121.24 8.609-.545 9.852-.567 1.244-.022 2.266-.883 3.428-.952 1.162-.069 3.11-.664 3.56-.961.45-.297-2.15-3.071-2.242-3.54-.093-.467 1.473-2.445 2.652-4.047 1.18-1.601 1.428-2.684.58-2.354l-8.76 3.215c-.334.126-.624.238-.857.33l1.596-1.648Z" fill="#D41025"/>
        <path d="M79.343 43.136c-2 .653-3.726 1.296-5.178 1.93-2.179.949-8.554 3.996-12.394 5.654-3.84 1.657-11.241 4.45-12.531 4.855-1.29.404-1.417 1.257-.142 1.41 1.274.153 5.2-1.397 7.902-2.393 2.702-.997 16.925-7.38 17.85-7.827.925-.447 3.597-1.673 4.162-2.135.376-.308.487-.806.331-1.494Z" fill="#9B9687"/>
        <path d="M79.343 43.136c-2 .653-3.726 1.296-5.178 1.93-2.179.949-8.554 3.996-12.394 5.654-3.84 1.657-11.241 4.45-12.531 4.855-1.29.404-1.43 1.031-.155 1.184 1.275.153 5.2-1.397 7.902-2.393 2.702-.997 16.925-7.38 17.85-7.827.926-.447 3.598-1.673 4.162-2.135.377-.308.491-.73.344-1.268Z" fill="#D0CCBE"/>
        <path d="M78.855 43.298v.038l-1.81.74c-4.102 1.692-7.349 3.156-9.74 4.39l-.499.261c-3.895 2.063-15.002 6.182-18.503 7.345.12-.139.347-.28.673-.406l1.12-.386c2.408-.858 8.365-3.131 11.675-4.56l1.009-.442c3.864-1.71 9.388-4.342 11.385-5.213a55.466 55.466 0 0 1 4.338-1.65l.352-.117Z" fill="#DEDBD2"/>
        <path d="M80.29 40.892c-.464-.466-1.526-1.358-1.878-1.542-.351-.184-.553.027-.344.47.209.442 1.41 1.934 1.304 2.18-.105.248-2.42 3.443-4.35 6-1.93 2.557-4.865 6.044-5.373 6.77-.508.725.25 1.001 1.09 1.651.84.65 3.583 3.022 4.345 3.894.763.872 9.029-1.466 9.278-1.664.25-.197-.375-3.488-.534-4.566-.106-.719-.165-1.185-.177-1.398.114-.147.133-.399.059-.756-.112-.536-.142-1.204-.204-1.514-.061-.31-.338-1.43-.617-2.23-.28-.8-.454-1.276-.505-1.437-.051-.162.035-.462-.155-.703-.19-.242-.23-.247-.21-.61.018-.361-.379-1.499-.491-1.626a.463.463 0 0 0-.235-.155c-.058-.514-.12-.871-.185-1.073a3.75 3.75 0 0 0-.446-.842c-.062-.068.091-.383-.372-.849Z" fill="#040507"/>
        <path d="M79.787 41.062c.083.003.477.311.856.607l.005.04.014.032c.062.069.348.54.446.842.065.202.127.56.185 1.073.081.019.16.07.235.155.112.127.51 1.265.49 1.627-.019.362.02.367.21.609.153.193.128.424.139.59l.017.113-.104-.151c-.177-.286-.363-.716-.388-.914a.832.832 0 0 0-.255-.53l-.17-.166a1.87 1.87 0 0 1-.418-.611l-.228-.687c-.221-.622-.587-1.506-.804-1.91l-.084-.14c-.24-.36-.26-.583-.146-.58Z" fill="#A73433"/>
        <path d="m82.455 48.9.937 2.842c.063.202.1.333.113.393.065.316.167.32.082-.465l-.05-.371c-.064-.392-.106-.4.03-.395l.083.684.06.343c.074.357.055.609-.059.756l.067.613.183 1.249c.206 1.256.621 3.59.497 4.037l-.011.014-.24-1.693c-.39-2.656-.676-4.29-.86-4.902l-.272-.953c-.164-.6-.351-1.317-.56-2.152Z" fill="#8D8F91"/>
        <path d="M79.861 41.987c.26-.02-.145.925-1.764 3.116-1.62 2.192-5.272 7.181-6.49 8.752l-.867 1.105c-.094.127-.104.155-.097.17l.052.07c.03.032.074.075.14.134l5.45 4.776-.396.452-5.337-4.676-.274-.252a.806.806 0 0 1-.187-.269l-.055-.131c-.066-.176-.044-.28.254-.676l1.025-1.308c1.679-2.177 6.415-8.472 6.985-9.304.361-.527 1.302-1.938 1.561-1.959Z" fill="#232024" fill-rule="nonzero"/>
        <path d="M79.861 41.987c.232-.019-.067.736-1.293 2.465l-2.953 4.021-1.364.91 3.186-4.253c.369-.498.65-.882.8-1.093l.57-.828c.406-.576.881-1.208 1.054-1.222Z" fill="#181718" fill-rule="nonzero"/>
        <path d="M79.861 41.987c.254-.02-.128.885-1.662 2.978l-1.357.966 1.395-1.895.57-.827c.406-.576.881-1.208 1.054-1.222Z" fill="#161516" fill-rule="nonzero"/>
        <path d="M64.032 56.695c2.089-.358 4.123-.765 4.159-.645.036.12-2.156.52-4.09.841-1.935.321-3.9.624-3.94.546-.039-.077 1.782-.385 3.871-.742Z" fill="#1F1D1D"/>
        <path d="m62.816 57.412.205.752-.21.04-.472.09-.252.048-.09-.779a.615.615 0 0 1 .373-.218.67.67 0 0 1 .446.067ZM66.391 56.711l.074.312-.177.303.302.233-.91.152-.147-.817z" fill="#1F1D1D" fill-rule="nonzero"/>
        <path fill="#1F1D1D" d="m64.027 57.082.235-.043.133.844-.192.039zM63.453 58.286c.072-.003.045.337.348.393.304.055 1.583-.695 1.645-.594.062.1-1.236.87-1.495.962-.259.093-.51.047-.566-.18-.057-.227-.003-.578.068-.581ZM60.095 56.54l1.003-.192.094.422-1.017.199zM62.332 56.226l1.002-.192.095.421-1.018.2zM64.646 55.817l1.002-.193.095.422-1.018.199zM66.95 55.407l1.002-.192.095.421-1.018.2z"/>
        <path d="M22.886 64.852c.067-.18 1.455-2.737 2.186-3.494.73-.756 2.76-1.824 3.16-2.167.4-.342 1.539-1.528 2.144-2.201.605-.673 1.212-1.104 2.148-1.045.936.058 1.84 1.72 2.094 2.108.254.388.924.611 1.893.098.97-.513 2.632-1.494 3.436-1.448.804.046 2.414 1.315 3.166 2.498.751 1.183 1.066 4.509 1.632 5.077.566.569 5.81-.861 6.278-1.642.469-.781 2.907-4.233 2.655-5.35-.063-.28-4.406-.338-5.597-.657-3.236-.866-6.83-1.641-7.13-1.735-.547-.173-6.42-.307-8.044-.369-1.623-.062-5.058 1.962-6.167 2.956-1.11.993-3.695 3.235-4.729 4.854-1.033 1.618-1.14 2.555-.562 2.731.578.176 1.37-.033 1.437-.214Z" fill="#9C9C98"/>
        <path d="M41.9 59.692c-.215.03-4.918 1.176-9.411 2.23-4.1.96-7.535 1.468-7.762 1.502-.426.066-.347.15-.554.178-.795.107-1.192.136-1.191.085.001-.14.89-1.559 1.45-2.098.56-.54 1.875-1.484 2.682-1.976.806-.492 1.422-.863 1.846-1.364.424-.5 1.78-1.744 2.142-1.994.363-.25 1.167-.485 1.585-.281.419.204 1.832 1.567 2.047 1.804.215.237.672.554 2.415-.297 1.744-.851 2.062-1.1 3.052-1.238.99-.138 3.146 1.786 3.812 2.222.665.435-1.585-2.58-2.824-2.993-1.24-.412-8.876-.608-9.581-.554-.705.054-5.963 3.36-7.34 4.391-1.377 1.032-2.708 4.016-2.77 4.391-.063.375-.197 1.02.937 1.218.942.164 12.322.254 22.101-.038 7.368-.22 13.885-.824 14.02-.847.022-.004 4.149-1.803 5.348-2.645.38-.266-7.259.03-11.325.195-1.271.052-2.688.01-2.76.024-.68.138-4.476 2.082-4.614 1.827-.425-.784-1.259-1.943-2.331-3.459-.196-.277-.576-.34-.974-.283Z" fill="#6E6C69"/>
        <path d="m33.686 56.902 1.588.475-.39.427.45.223-.183.354-.549-.271-.722.788.788.382.54-.625 1.004-.196.756.373.556-.63.744-.144.824.446.57-.694-.03-.016.668-.13-.018.022.98.518.464-.503.366.196-.464.501.88.464.44-.504.36.196-.436.502.846.448.453-.48.364.199-.451.475.7.368.403-.487.357.196-.398.483.95.502.402-.463.36.197-.398.458.814.432.375-.455.356.195-.371.45 1.357.718-.239.327-1.378-.729-.624.758 1.244.674-.339.27-1.165-.63-.33.402 1.1.544-.344.275-1.018-.503-.612.746.825.4-.346.277-.741-.361-.017.02-.633-.778.542.262.614-.746-.898-.444-.524.6-.256-.315.408-.469-.906-.446-.124.149-.256-.315.012-.014-.039-.02-.836-1.028.379-.4-.776-.42-.484.556.064.032-.736.127.028-.031-.97-.478-.696.756.053.026-.739.127.026-.027-.776-.376-.51.62-.705.122-.987-.494-.544.616.217.105-.995.17.128-.143-.926-.446-.498.578.347.176-1.204.207.223-.257-.896-.454-.732.798.24.114-1.055.182.153-.166-.808-.382-.66.686.29.13-.576.18-.008-.004-.01.01-.784.243.41-.427-.44-.201.32-.292.412.187.666-.692-.344-.163.32-.292.316.149.786-.82-.237-.12.312-.287.213.107.494-.514-.174-.085.315-.292.149.073.63-.656-.117-.058a26.3 26.3 0 0 0 .291-.3l.116.056.526-.55-.127-.06.282-.31.137.066.752-.784-.178-.087c.14-.16.284-.327.431-.5l-.162.188.199.097.204-.212Zm11.596 5.406-.38.436.89.438.34-.414-.85-.46Zm-1.264-.684-.402.486.914.452.39-.45-.902-.488Zm-14.016-.304-.778.81.798.378.74-.804-.76-.384Zm16.188-.058-.64.736.842.456.622-.756-.824-.436Zm-14.276-.222-.5.546.884.446.492-.572-.876-.42Zm10.94-.044-.476.504.87.428.41-.498-.804-.434Zm2.032-.424-.61.738.914.494.636-.734-.94-.498Zm-10.902.114-.552.64.932.448.55-.62-.93-.468Zm2.112-.268-.54.61 1.034.518.524-.636-1.018-.492Zm-5.306.08-.498.52.75.38.496-.54-.748-.36Zm7.606-.516-.65.79.798.386.698-.76-.846-.416Zm-5.608.106-.59.644.862.414.556-.644-.828-.414Zm11.012-.09-.66.696.778.422.606-.734-.724-.384Zm-9.03-.224-.518.6.936.47.536-.608-.954-.462Zm5.67-.086-.542.59.96.472.496-.566-.914-.496Zm-3.376-.364-.692.782 1.004.486.65-.792-.962-.476Zm-5.358.22-.624.65.738.356.596-.65-.71-.356Zm10.894-.18-.616.706.792.428.656-.694-.832-.44Zm-9.004-.158-.526.574.814.41.514-.596-.802-.388Zm5.594-.192-.534.65.868.428.552-.6-.886-.478Zm-3.464-.35-.686.796.96.466.694-.784-.968-.478Zm5.622.038-.628.684.904.488.612-.702-.888-.47Zm-8.82-.014-.532.554.702.352.522-.57-.692-.336Zm5.41-.352-.6.678.95.468.544-.662-.894-.484Zm2.084-.334-.572.696.906.492.626-.68-.96-.508Zm-6.452-.4-.75.782.684.332.724-.79-.658-.324Z" fill="#7C7C77" fill-rule="nonzero"/>
        <path d="m33.686 56.902 1.588.476-.39.426.45.222-.184.356-.548-.272-.722.788.788.382.54-.625 1.006-.196.754.373.558-.63.741-.144.825.446.57-.694-.03-.016.669-.13-.019.022.615.326-.512.182-.363-.192-.377.458-.89.32-.817-.444-.6.678.32.158-.523.188-.071-.036-.08.09-.779.278.489-.55-.968-.478-.686.796.77.374-.527.188-.513-.248-.518.6.021.01-.806.29.149-.172-.828-.414-.59.644.471.228-.528.188-.227-.108-.26.284-.963.344-.689-.348-.778.81.075.036-1.01.362.263-.272-.343-.165.319-.29.316.149.786-.82-.237-.12.314-.29.211.11.494-.514-.173-.086.314-.29.149.072.63-.656-.117-.057.29-.301.117.056.526-.55-.127-.06.28-.307.139.063.752-.784-.179-.086.27-.312.199.096.204-.212Zm-2.896 3.596-.498.52.75.38.496-.54-.748-.36Zm.916-.954-.624.65.738.356.596-.65-.71-.356Zm1.89-.338-.526.574.814.41.514-.596-.802-.388Zm-1.068-.518-.532.554.702.352.522-.57-.692-.336Zm1.042-1.086-.75.782.684.332.724-.79-.658-.324Z" fill="#919190" fill-rule="nonzero"/>
        <path d="M55.937 58.045c.281-.243-.584-1.017-2.48-1.688-1.898-.671-9.406-3.022-10.358-3.304-.953-.283-1.833-.578-1.673-1.403.16-.825.965-1.048 1.094-1.36.13-.311.1-1.477-.652-1.772-.751-.296-1.301-.467-1.579-.518-.278-.05-.712.01-1.463.34-.752.332-3.09 1.205-3.653 1.463-.564.258-1.908.88-2.266 1.122-.358.242-.748.518-1.158.506-.41-.013-1.182.087-2.267.492-1.086.405-2.328.913-3.43 1.107-1.102.194-6.876 1.069-9.47 1.625-2.594.556-4.194 2.134-4.776 3.486-.582 1.352 10.451 7.038 10.548 6.6.098-.44.821-2.131 2.034-3.32 1.213-1.19 2.826-2 3.597-2.519.77-.518 2.103-2.198 2.896-2.67.793-.473 1.612-.918 2.794.238 1.182 1.157 1.496 1.78 3.869.511 2.373-1.269 2.982-1.316 4.464-.162 1.482 1.155 3.066 2.616 4.373 3.013 1.306.398 3.103-.333 5.154-.754 2.051-.42 4.121-.79 4.402-1.033Z" fill="#D1D1C9"/>
        <path d="M55.779 57.909c.28-.243-.606-.757-2.503-1.428-1.897-.672-9.225-3.146-10.177-3.428-.953-.283-1.957-.686-1.797-1.51.16-.826 1.047-1.428 1.176-1.74.13-.312.142-.99-.61-1.285-.751-.296-1.301-.467-1.579-.518-.278-.05-.712.01-1.463.34-.752.332-3.09 1.205-3.653 1.463-.564.258-1.908.88-2.266 1.122-.358.242-.748.518-1.158.506-.41-.013-1.182.087-2.267.492-1.086.405-2.328.913-3.43 1.107-1.102.194-6.876 1.069-9.47 1.625-2.594.556-4.194 2.134-4.776 3.486-.582 1.352 9.822 7.133 10.078 6.746.255-.387 1.094-2.42 2.307-3.608 1.213-1.19 3.044-2.29 3.678-2.73.634-.441 2.162-2.228 2.955-2.701.793-.473 1.612-.918 2.794.239 1.182 1.156 1.353 1.94 3.726.672 2.373-1.27 3.346-1.268 4.829-.113 1.482 1.154 3.005 2.59 4.311 2.988 1.307.397 2.875-.39 4.926-.811 2.051-.42 4.088-.671 4.369-.914Z" fill="#DFDEC9"/>
        <path d="m38.333 48.546.493-.205c.751-.331 1.185-.392 1.463-.341.278.05.828.222 1.58.518.75.295.738.973.609 1.285-.13.312-1.017.914-1.176 1.74a.787.787 0 0 0 .076.538l-.739-.041c-.78-.048-1.272-.101-1.478-.16-.754-.212-1.386-.597-2.629-1.68-.678-.591-1.43-.533-1.475.328-.036.716.478 1.762-.75 2.646-1.019.733-1.721.644-4.812 1.61l-.482.154c-3.504 1.13-7.508 1.585-10.44 1.283-1.673-.173-2.197-.84-2.008-1.562l1.166-.233c2.872-.544 7.363-1.227 8.321-1.396 1.102-.194 2.344-.702 3.43-1.107 1.085-.405 1.857-.505 2.267-.492.41.012.8-.264 1.158-.506.358-.242 1.702-.864 2.266-1.122l.703-.29c.723-.288 1.765-.687 2.457-.967Z" fill="#E3E6CF"/>
        <path d="M32.267 51.625c.28-.235 1.186.332 1.464.477.35.183.264.406-.123.609-.387.202-.952.44-1.084.268-.058-.076-.476-1.171-.257-1.354Zm5.797-3.032c.28-.235.754.778.91 1.105.191.398.105.574-.292.871-.396.297-.823.508-.955.335-.058-.076.118-2.128.337-2.311Zm4.981-1.708c.281-.235.999.125 1.156.453.19.398.179.618-.234.879-.414.26-.937.46-1.069.287-.057-.076-.072-1.436.147-1.62Zm3.68-1.65c.28-.235.933-.221 1.222.103.294.329.192.595-.221.856-.414.261-.815.422-.993.296-.143-.101-.227-1.072-.008-1.255Z" fill="#888881"/>
        <path d="M44.074 53.684c.421.048.893.098 1.416.151l6.875 2.328.91.318c1.898.67 2.785 1.185 2.504 1.428-.281.243-2.318.493-4.369.914-2.051.42-3.62 1.208-4.926.81-1.306-.397-2.829-1.833-4.311-2.987-1.4-1.09-2.346-1.152-4.446-.087l-.383.2c-2.373 1.269-2.544.484-3.726-.672-1.182-1.157-2.001-.712-2.794-.239-.793.473-2.32 2.26-2.955 2.7l-1.16.77c-.791.53-1.772 1.23-2.518 1.96-1.213 1.19-2.052 3.222-2.307 3.61-.256.386-10.66-5.395-10.078-6.747.445-1.034 1.486-2.2 3.111-2.94-.675.613-.848 1.031-.675 1.657.237.864 3.506 2.463 6.673 2.073 3.166-.39 7.199-2.305 7.863-2.587.664-.282 2.569-2.138 3.83-1.575l.814.367c.98.413 2.098.67 3.688-.295l.348-.225c1.877-1.294 2.727-1.387 4.588-1.178l2.028.246Z" fill="#D1CFBD"/>
        <path d="m46.962 54.945.972.169a173.1 173.1 0 0 1 3.073.589l1.358.46.91.318c1.898.67 2.785 1.185 2.504 1.428-.281.243-2.318.493-4.369.914-2.051.42-3.62 1.208-4.926.81-1.306-.397-2.829-1.833-4.311-2.987-1.4-1.09-2.346-1.152-4.446-.087l-.383.2c-2.373 1.269-2.544.484-3.726-.672-1.182-1.157-2.001-.712-2.794-.239-.793.473-2.32 2.26-2.955 2.7l-1.16.77c-.791.53-1.772 1.23-2.518 1.96-1.213 1.19-2.052 3.222-2.307 3.61-.256.386-10.66-5.395-10.078-6.747.168-.39.42-.798.757-1.196.16.851.616 1.482 1.367 1.892 1.635.892 5.579 2.11 6.97 2.088 1.391-.022 3.767-1.16 5.189-1.967 1.422-.807 4.142-3.073 4.904-3.486.762-.413 1.645-.7 2.573.133.929.832 1.239 1.72 2.633 1.134 1.394-.586 2.772-1.794 4.167-1.443 1.395.35 3.091 2.07 5.151 1.932l.554-.043c1.985-.174 4.36-.588 3.881-.87l-.177-.088c-.917-.41-4.138-1.495-2.813-1.282Z" fill="#BFBBAD"/>
        <path d="M41.478 52.979c-.323-.339-.526-.678-.607-1.016-.123-.509-.003-1.088.481-1.452.484-.365.789-.561.786-.898-.003-.338-.394-.522-.786-.713-.392-.19-1.055-.409-1.335-.433-.28-.024-4.476 1.483-4.844 1.696-.368.213-1.882.845-2.61 1.254-.726.409-2.65 1.326-2.979 1.562-.329.236.14.221.331.143.192-.079 3.094-1.748 4.104-2.196 1.01-.448 5.406-2.2 5.852-2.204.445-.003 2.018.625 1.989.858-.029.232-.906.702-1.234 1.473-.328.77.081 1.529.478 1.926.264.265.389.265.374 0Z" fill="#BFBEB0"/>
        <path d="M37.937 52.436c.859-.185 2.693.183 5.705 1.076l4.184 1.286c2.78.873 5.16 1.657 5.541 1.854l.215.102 1.063.442c.035.015.066.03.095.044.124.06.2.107.247.168.15.192.006.352-.185.385l-6.413 1.22c-.542.097-.851.146-.922.145-.601-.007-1.218-.159-2.09-.645a6.495 6.495 0 0 1-.49-.31l-1.946-1.42-.662-.465c-.713-.483-1.223-.76-1.57-.837-.967-.211-1.803.002-2.865.63l-.811.474c-.892.508-1.103.546-1.596.474-.294-.043-.593-.238-1.199-.742l-.71-.594c-.44-.358-.658-.497-.817-.519-.988-.135-1.612.03-2.658 1.028a60.14 60.14 0 0 1-1.242 1.152l-1.202 1.054c-.134.119-1.723 1.012-1.598.94l-.46.277-.2.13a6.142 6.142 0 0 0-.422.303c-.755.6-2.471 2.93-2.945 3.971l-.082.203-.379-.129c.331-.977 2.29-3.67 3.157-4.359a6.53 6.53 0 0 1 .45-.323l.207-.133 1.834-1.068c.092-.056.156-.096.174-.112l.82-.712.772-.697c.267-.246.546-.507.84-.787 1.14-1.088 1.886-1.285 2.988-1.134.258.035.496.18 1.013.602l.477.399c.69.585 1.022.822 1.24.854l.178.018c.368.016.672-.148 1.968-.914 1.141-.675 2.073-.913 3.153-.676.406.089.943.377 1.689.882l1.036.737c.071.052.936.693 1.164.858l.425.301c.187.128.338.225.463.294.812.453 1.363.589 1.901.595l-.196-.387 6.14-1.253-.232-.11c-.507-.262-5.114-1.737-9.08-2.94l-1.102-.327c-2.624-.757-4.262-1.069-4.98-.914a4.141 4.141 0 0 0-.589.193l-1.288.538c-.313.13-.578.236-.832.33-.814.302-1.46.459-1.992.452a5.78 5.78 0 0 1-2.141-.442 9.44 9.44 0 0 1-.781-.366c-.414-.202-.574-.24-.821-.097l-.618.406c-1.967 1.344-6.529 4.918-7.369 5.846-.611.676-1.458 1.918-2.534 3.722l-.3.506-.344-.202c1.233-2.102 2.191-3.532 2.882-4.294.866-.957 7.283-5.831 7.841-6.1.558-.27.91-.284 1.435-.028.296.151 1.416.714 2.68.69.842-.016 2.118-.433 3.828-1.25l.406-.158c.18-.065.326-.11.452-.137Z" fill="#A0A093" fill-rule="nonzero"/>
        <path d="m43.642 53.512 4.468 1.375-.698.2c-1.085-.34-2.22-.69-3.307-1.02l-1.103-.326c-2.624-.757-4.262-1.069-4.98-.914a4.141 4.141 0 0 0-.589.193l-1.288.538c-.313.13-.578.236-.832.33-.814.302-1.46.459-1.992.452a5.78 5.78 0 0 1-2.141-.442 9.44 9.44 0 0 1-.781-.366c-.414-.202-.574-.24-.821-.097l-.618.406-.596.418c-2.17 1.554-6.01 4.585-6.773 5.428l-.182.21-.518.005c.144-.183.278-.344.404-.483.866-.957 7.283-5.831 7.841-6.1.558-.27.91-.284 1.435-.028l.366.175c.499.221 1.366.533 2.313.515.843-.016 2.119-.433 3.829-1.25l.406-.158c.18-.065.326-.11.452-.137.859-.185 2.693.183 5.705 1.076Zm-10.877 1.296c.258.035.496.18 1.013.602l.477.399c.69.585 1.022.822 1.24.854l.178.018c.368.016.672-.148 1.968-.914 1.141-.675 2.073-.913 3.153-.676.406.089.943.377 1.689.882l.619.44-.473.153-.35-.248c-.713-.483-1.223-.76-1.57-.837-.967-.211-1.803.002-2.865.63l-.811.474-.462.251c-.526.268-.74.28-1.134.223-.294-.043-.593-.238-1.199-.742l-.71-.594-.326-.255c-.233-.173-.377-.248-.49-.264-.99-.135-1.613.03-2.659 1.028a60.14 60.14 0 0 1-1.242 1.152l-1.202 1.054-.187.124a50.61 50.61 0 0 1-1.288.747c-.352.082-.731.162-1.133.234l.06-.045.276-.18 2.008-1.18.82-.712.772-.697.84-.787c1.14-1.088 1.886-1.285 2.988-1.134Z" fill="#ADACA0" fill-rule="nonzero"/>
        <path d="M32.042 49.16c.146-.07.094-.024.24.092.144.117.36.428.295.551-.064.123.04 1.041.23 1.343.19.302.72.898.96 1.04.24.14.086.305-.05.384-.135.078-.838.462-.963.403-.125-.06-.28-.478-.373-.707-.092-.229-.665-1.32-.776-1.828-.112-.507-.076-1.078.05-1.108.125-.029.242-.099.387-.17Zm6.805-4.007c.21-.357.622-.4.783-.361.161.038.585.12.965.3s.293.392.195.344c-.097-.048-.688-.18-.846-.156-.157.025-.273.395-.385.648-.113.253-.571 1.227-.712 1.72-.141.492-.025 1.705.054 2.087.078.383.035.481 0 .55-.036.068-.847.583-1 .635-.152.053-.047-.348 0-.563.048-.215-.087-.936-.094-1.6-.007-.665.212-1.533.348-1.965.136-.433.482-1.283.692-1.64Zm5.419-2.86c.527.184.738.386.756.448.02.062.03.156-.048.133-.078-.024-.495-.272-.708-.265-.213.007-.345-.06-.4.052-.055.112-.246 1.343-.265 1.729-.018.385-.095 1.257 0 1.642.096.385.324 1.115.434 1.31.11.197.345.485.097.675-.248.19-.199.12-.389.214s-.509.284-.643.225c-.134-.06-.095-.572-.092-.662.004-.09-.312-1.224-.402-1.642-.091-.418.02-1.855.049-2.343.03-.487.202-1.19.445-1.424.243-.234.639-.275 1.166-.092Zm3.518-1.923c.12.045.182.135.187.272-.205-.093-.387-.127-.546-.103-.239.037-.533.019-.555.471-.023.453.11 1.604.183 2.073.072.47.2.922.359 1.327.158.404.316.78.422.911.106.131.364.437.166.558-.198.122-.166.147-.375.24-.208.092-.496.314-.572.309H47c-.11-.003-.307-.035-.323-.427-.018-.47-.192-1.265-.343-1.757-.152-.492-.446-2.57-.43-3.12.014-.55.457-.77.686-.852.228-.081 1.015.032 1.194.098Zm3.036-3.345c.254.136.228.217.4.222.173.004.525.238.73.259.204.02.816-.276 2.044.656 1.228.931 2.026 1.496 1.99 1.978-.035.482-.166.639-.361.706-.196.068-.719.046-.842-.062s-.392-.35-.447-.54c-.055-.19-.85-1.086-1.202-1.458-.354-.371-1.01-.92-1.083-1.007-.073-.087-.56-.41-.86-.452a1.012 1.012 0 0 0-.521.046c-.04.432-.04.89 0 1.373.06.724.084 1.422.194 1.9.111.477.5 1.347.547 1.533.048.186.096.802 0 .921a.677.677 0 0 1-.794.134c-.36-.181-.563-.85-.593-1.147-.031-.297-.351-1.226-.358-1.58-.007-.356-.065-1.413-.066-2.109 0-.696.037-.882.307-1.184a.76.76 0 0 1 .915-.189Z" fill="#514F4F"/>
        <path d="M32.23 51.683c.301.447.755.42.82.347.045-.05-.13-.519-.278-.955l.035.071c.163.26.576.734.841.953l.119.086c.24.142.086.306-.05.385l-.228.124c-.262.137-.646.321-.735.279-.062-.03-.132-.15-.199-.29l-.174-.417c-.092-.229-.665-1.32-.776-1.828a2.791 2.791 0 0 1-.057-.825c.12.61.444 1.715.683 2.07Zm5.83-2.419c.059.359.447.53.52-.138.036-.326.118-.781.224-1.25-.051.425-.01 1.071.043 1.508l.054.351c.078.383.035.481 0 .55-.036.068-.847.583-1 .635-.152.053-.047-.348 0-.563.048-.215-.087-.936-.094-1.6-.003-.32.046-.688.113-1.032l.128 1.44.012.099Zm5.975-1.921.11.186c.094.166.164.352-.013.488-.248.19-.199.12-.389.214l-.27.137c-.145.07-.292.123-.373.088-.134-.06-.095-.572-.092-.662.004-.09-.312-1.224-.402-1.642-.042-.19-.041-.59-.026-1.017l.365 1.295c.091.311.177.58.242.713.17.358.105-.707.277-.32.141.318.35.524.383.193l.001-.15.148.396c.014.033.027.06.039.08Zm-3.223-2.11.025.032c.035.057.042.17-.002.171-.482-.137-.78-.188-.89-.156-.168.05-.274.395-.386.648l-.308.684c-.133.302-.274.64-.361.899.062-.247.128-.487.195-.704l.268-.782c.184-.522.344-.91.6-.951.225-.037.61.055.859.158Zm6.6-.823.186.458c.09.208.173.375.236.453l.114.147c.102.144.194.324.052.411l-.256.18-.119.06c-.208.092-.496.314-.572.309l-.088-.003c-.112-.01-.274-.071-.288-.424-.014-.364-.122-.923-.24-1.386l.202.347c.142.253.533.547.61.215l.069-.314c.014-.085.02-.16.018-.251l-.023-.349a14.198 14.198 0 0 1-.004-.147c.03.1.066.198.103.294Zm2.992-2.276c.313.322.36-.481.55-.181.14.22.181-.051.176-.509l.252.651c.013.035.022.063.027.084.048.186.096.802 0 .921a.677.677 0 0 1-.794.134c-.309-.155-.502-.669-.57-1l-.023-.147c-.028-.271-.298-1.07-.35-1.476.214.604.513 1.297.732 1.523Zm2.84-3.772c.5.397 1.26 1.135 1.463 1.408.203.274.864.577.69.357l-.102-.143c-.166-.255-.364-.635-.179-.466l.076.078c.368.4.524.376.514.288l-.024-.135a1.38 1.38 0 0 0-.172-.386c.318.297.491.547.474.777-.035.482-.166.639-.361.706-.196.068-.719.046-.842-.062-.099-.087-.29-.26-.39-.422l-.057-.118c-.049-.169-.682-.896-1.07-1.316l-.132-.142c-.282-.296-.756-.704-.974-.902.4.114.84.283 1.086.478Z" fill="#222020"/>
        <path d="M12.142 57.502c-.313.033-.57.125-.772.276-.302.227-.68.812-.743 1.098C10.402 59.033 10 60.099 10 61s.184 2.717 3.226 4.9c3.042 2.182 5.796 3.468 7.765 4.163 1.969.696 3.397 1.226 3.93 1.018.531-.209.825-.879 1.12-.846.294.032.596.175.594.411-.001.237.281.387.423.435.143.047 11.867.525 12.027.527.16.002.443.301.643.346.2.045 5.543-.298 12.133-.296 6.591.002 9.668.342 14.167.342h7.896c1.902 0 5.78-.493 8.157-1.748 2.377-1.254 3.95-2.987 3.935-5.12-.016-2.132-1.347-.019-2.25.204-.905.223-9.471-.996-11.314-1.554-1.843-.559-7.674-2.242-8.607-2.336-.933-.095-10.757.347-11.85.354-1.095.007-1.784-.077-2.17.02-.385.097-4.56 2.005-5.066 2.201-.506.196-6.397-1.788-7.181-1.807-.784-.02-12.578 1.499-13.615 1.596-1.037.097-1.156.096-1.587.042-.432-.054-1.508-1.106-2.001-1.517-.493-.412-4.428-1.928-5.292-2.288-.864-.36-2.69-1.505-2.957-1.725-.178-.146-.173-.42.016-.82Z" fill="#D0CCC0"/>
        <path d="M10.298 59.471c.676.785 1.171 1.271 1.485 1.46l.165.09c.25.105-.321-.453 1.018-.198 1.36.26 2.914 1.417 4.468 1.832l.582.117c1.743.23 2.575 2.747 5.59 2.958 3.015.211 12.431-.978 14.179-1 1.747-.022 4.988 1.789 7.655 2.03 2.666.243 6.924-1.397 8.394-2.332 1.018-.648-4.288-.924-6.517-1.537l2.198-.956c.154-.062.262-.103.31-.115.338-.085.907-.031 1.778-.021l.736-.006c2.062-.059 10.638-.435 11.506-.347.65.065 3.668.9 6.066 1.59l2.54.746c1.844.558 10.41 1.777 11.314 1.554.904-.223 2.235-2.336 2.25-.203.016 2.132-1.557 3.865-3.934 5.12-2.218 1.17-5.745 1.678-7.751 1.74l-.406.007h-7.896c-4.5 0-7.576-.34-14.167-.342l-2.334.013c-5.476.062-9.622.322-9.799.283-.2-.045-.483-.344-.643-.346l-10.594-.448c-.851-.04-1.402-.07-1.433-.08-.113-.037-.317-.14-.393-.302l-.03-.132c.002-.236-.3-.379-.595-.411-.294-.033-.588.637-1.12.846-.497.194-1.774-.255-3.543-.88l-.386-.138c-1.97-.695-4.723-1.98-7.765-4.164C10.184 63.717 10 61.901 10 61c0-.492.12-1.032.265-1.447l.033-.082Z" fill="#C9C4B9"/>
        <path d="M18.314 66.356c-.288-.422-1.89-2.816-1.543-2.407.346.41 1.265 1.524 1.76 2.19.497.666 2.083 1.727 3.158 2.364 1.076.637 3.33.929 3.583.917.254-.011.413-.3.562-.723.149-.423.18-1.02.871-.993.69.028 2.762.417 4.68.535 1.919.118 7.146.075 7.685.102.54.026 1.085.049 1.392.204.308.156.475 1.291.542 1.448.067.156-.701.006-.987 0-.286-.006-.455.036-.497.216-.025.105 0 .948.012 1.65l-.09-.06c-.134-.092-.265-.19-.357-.191-.16-.002-11.884-.48-12.027-.527-.142-.048-.424-.198-.423-.435.002-.236-.3-.379-.595-.411-.294-.033-.588.637-1.12.846-.532.208-1.96-.322-3.93-1.018a22.481 22.481 0 0 1-.186-.066c.752-.115 2.218-.28 1.267-.749-1.27-.627-3.47-2.47-3.757-2.892Z" fill="#C5BBAE"/>
        <path d="m72.904 64.025.209-.076.638.134c3.031.602 9.251 1.441 10.014 1.253.904-.223 2.235-2.336 2.25-.203.016 2.132-1.557 3.865-3.934 5.12-2.218 1.17-5.745 1.678-7.751 1.74l-.406.007h-7.896c-4.5 0-7.576-.34-14.167-.342l-2.334.013c-5.476.062-9.622.322-9.799.283-.2-.045-.483-.344-.643-.346l-10.594-.448c-.851-.04-1.402-.07-1.433-.08-.113-.037-.317-.14-.393-.302l-.03-.132c.002-.236-.3-.379-.595-.411-.294-.033-.588.637-1.12.846-.402.157-1.318-.108-2.592-.547l-.879-.519c-1.533-.93-3.716-3.894-3.998-4.679-.282-.785 1.571 1.603 2.184 2.081.614.479 2.986 1.73 3.925 1.946.845.194 2.377.27 3.116.193l.215-.031c.606-.124.608.154 1.572.2l7.486.221c3.008.074 5.894.125 6.457.069 1.143-.113 5.53-.984 8.374-1.166l1.53-.083c3.22-.209 8.7-.746 7.49-.253l-1.864.727c-1.364.558-2.549 1.183-1.02 1.39l.536.068c2.684.318 8.947.797 15.254.567 6.774-.247 9.866-2.044 10.438-2.438.572-.393-1.398-.556-2.328-.673-.931-.116-5.404-1.342-9.107-2.454-1.299-.39-.557-1.039 1.195-1.675Z" fill="#ACA6A2"/>
        <path d="M82.081 70.252c-2.218 1.171-5.745 1.679-7.751 1.741l-.406.007h-7.896c-4.5 0-7.576-.34-14.167-.342l-2.334.013-3.696.073c-3.55.097-5.969.24-6.103.21-.2-.045-.483-.344-.643-.346l-.124-.01c.098-.262.525-.294.559-.15.035.15.205.24.44.111l.124-.083c.299-.238.728-.42 1.208-.257l.376.137c.298.107.585.18 1.09.12l.358-.052c1.14-.182 4.02-.715 5.704-.758 1.908-.05 5.12.567 6.453.645 1.238.072 4.391-.004 6.264.108l.408.03c1.784.155 10.236.018 12.763-.023 2.052-.034 5.413-.72 7.452-1.217l-.079.043Z" fill="#8F8888"/>
        <path d="M40.85 71.139c.159-.03.333.085.494.224l.116.108c.168.16.246.354.824.33l.755-.062c1.665-.108 6.3-.29 8.253-.287l.762.008c2.54.044 7.165.26 8.37.309.284.011.443.052.51.107l-3.994-.145a174.794 174.794 0 0 0-5.079-.073l-2.334.013c-5.476.062-9.622.322-9.799.283a.933.933 0 0 1-.283-.152l.049-.268c.06.176.147.274.259.293a.4.4 0 0 0 .39-.15l.083-.123c.132-.238.424-.379.623-.415Z" fill="#302E2E"/>
        <path d="m71.068 63.847.216-.413 1.168.348c.083.025.181.052.291.08l-.343.47c-.69.98-1 1.707-.484 1.823l4.57 1.056c1.4.333 2.617.637 2.92.752.665.255-6.902-1.122-8.402-1.183-1.333-.055-2.91.284-4.546.658l-.616.141c-.596.136-1.672.33-2.854.53l-5.386.852c.107-.023 1.446-.374 3.688-1.084l.431-.137c.229-.074 1.023-.393 2.382-.957l6.965-2.936Zm-58.926-6.345c-.189.4-.194.674-.016.82.266.22 2.093 1.365 2.957 1.725l2.582 1.04c1.224.502 2.45 1.03 2.71 1.248l.793.696c.458.397.949.789 1.208.821l.337.033c.248.013.524-.007 1.25-.075l10.958-1.329c1.41-.163 2.443-.272 2.657-.267.784.02 6.675 2.003 7.181 1.807l.72-.31.223-.1c-.106.102-.169.183-.185.241-.075.267.93 1.578.977 1.848.048.27-.373.629-.734.64-.332.012-1.487-.207-2.632-.664l-.311-.13c-1.24-.546-3.908-1.915-4.435-1.89l-1.164.15c-3.379.464-12.86 1.812-13.096 1.335-.282-.57-1.258-.57-2.109-.637-.85-.067-2.248-1.72-3.613-2.207-1.365-.487-3.246-.765-5.379-2.162-1.166-.764-1.694-1.592-2.055-1.913.127-.179.273-.345.404-.444.201-.15.459-.243.772-.276Zm-1.585 1.444.052-.05.018.129c.145.641 1.705 1.995 2.607 2.488.901.493 2.134.868 2.93 1.673.796.805 1.235 2.117 1.284 2.356.05.239-.713-1.069-1.346-1.842-.633-.773-2.538-1.464-4.545-2.752-.61-.391-1.049-.832-1.319-1.322.103-.307.22-.554.32-.68Z" fill="#E5E0D5"/>
        <path d="M12.142 57.502c-.189.4-.194.674-.016.82.266.22 2.093 1.365 2.957 1.725l2.582 1.04c1.224.502 2.45 1.03 2.71 1.248l.793.696c.458.397.949.789 1.208.821l.337.033c.106.006.218.005.368-.003l.882-.072c.554-.052 4.17-.508 7.542-.92l3.342-.183c2.18-.131 3.808-.248 3.906-.245l.338.107.681.259c2.014.787 6.293 2.586 6.388 2.714.121.164.052.362-.171.571-.223.21-1.098.029-3.129-.777l-1.058-.433c-1.606-.676-2.963-1.317-3.19-1.335-.226-.018-.886.115-1.894.257l-4.004.485c-.854.097-1.8.2-2.758.292l-2.298.206c-1.823.151-3.28.244-3.346.227-.18-.049-.238-.776-.243-.94-.006-.166-.928.058-1.565.095-.637.038-1.27-.681-1.932-1.339-.478-.475-1.188-.823-2.667-1.387l-2.078-.766c-2.976-1.08-4.242-2.076-4.474-2.414-.112-.162-.048-.372.122-.573.182-.112.405-.182.667-.21Z" fill="#F2F0EC"/>
        <path d="M24.396 64.766c-.114-.075-.072-.95.02-1.08.092-.128.057-.122.663-.198.606-.076 6.073-1.055 10.498-2.182 4.425-1.126 6.18-1.435 6.427-1.46.248-.025.55-.09.828.295.277.386 1.473 2.268 1.927 2.952.454.684 1.41 2.033 1.523 2.368.113.336-.298.667-.429.678-.13.01-1.288-.293-3.058-1.065-1.77-.772-3.96-1.752-4.097-1.808-.138-.056-4.328.61-6.806.855-2.477.245-7.383.72-7.496.645Z" fill="#000"/>
        <path d="M32.366 62.982c1.69-.365 6.717-1.526 7.292-1.405.574.122.946.547 1.062.68.116.134-.765-.384-.996-.442-.23-.057-.547-.097-1.938.167-1.39.264-7.109 1.366-5.42 1ZM42.708 60.188c-.097-.109-.187-.296-.615-.253-.429.044-9.094 2.076-8.92 2.086.174.01 7.942-1.745 8.407-1.816.465-.07.632-.093.764-.061.131.031.461.153.364.044Z" fill="#959595"/>
        <path d="M26.594 69.112c.062-.221.149-1.333.411-1.421.263-.088.924-.077 2.068.14 1.144.218 2.774.333 4.834.288 2.06-.046 5.453.085 5.719.13.266.046.335.135 0 .154-.335.02-4 .116-5.281.12-1.282.004-4.652-.207-5.097-.273-.445-.067-1.348-.4-1.697-.368-.349.033-.453.015-.576.368-.124.352-.444 1.083-.381.862Z" fill="#DBD0C6"/>
        <path d="M27.745 67.91c-.33.006-.457.028-.473.274-.016.246.088.912 0 1.09-.088.177.087.205 0 .277-.087.073-.034.21-.118.414-.084.204-.008 1.121 0 1.14.009.018.254-.06.316.122s2.961.773 5.106.773h6.79c.161 0 .196-.55.204-.876.008-.327.027-.695.056-.85.03-.155.047-.153.226-.17.179-.016.21-.152.176-.437-.034-.284-.186-1.12-.508-1.187-.322-.066-3.606-.095-5.701-.099-.967-.001-2.534-.05-3.65-.161-1.302-.13-2.247-.313-2.424-.31Z" fill="#B73A3E"/>
        <path d="m29.578 68.209.02-.052.572.063c1.115.11 2.682.16 3.649.161l2.89.018c.777.01 1.5.021 2.021.037.054.295.077.691-.121.857-.319.268-3.824.378-5.252.337l-.898-.033c-1.23-.058-2.488-.188-2.63-.55l-.095-.206c-.086-.192-.192-.462-.156-.632Z" fill="#CC4C50"/>
        <path d="m27.745 67.91.157.014c.257.032.767.117 1.439.202.182.21.253.44.3.676l.03.18c.087.531.153.593.487.763.335.17 3.56.446 5.043.436l.65-.012c1.317-.04 2.674-.16 2.91-.25.274-.108.318-.426.323-.834a1.968 1.968 0 0 0-.128-.641l.422.02c.067.006.115.01.142.016.322.067.474.903.508 1.187.035.285.003.421-.176.437-.179.017-.197.015-.226.17l-.022.169-1.323-.01c-.168.001-.342.002-.522.005l-.56.012c-2.465.076-8.123-.354-9.13-.52a1.77 1.77 0 0 1-.82-.345l.023-.034c.087-.072-.088-.1 0-.277.088-.178-.016-.844 0-1.09.016-.246.143-.268.473-.274Z" fill="#6B3333"/>
        <path d="M29.042 68.305c-.259-.028-.698-.054-.787.117-.09.17-.181.65-.08.871.1.222.61.23.846.218.237-.012.28-1.178.021-1.206Z" fill="#983236"/>
        <path d="m27.278 69.462.05-.004a.563.563 0 0 1 .235.028c.219.098.554.207 1.147.347.554.131 2.878.334 4.603.388l.36.009c1.278.024 3.16-.008 4.339-.047l.944-.044c.325-.025.536.002.698.041l-.01.019-.018.075c-.024.124-.04.385-.05.65l-.01.331c-.013.278-.047.627-.145.72l-.055.025h-6.79c-2.145 0-5.044-.591-5.106-.773-.062-.182-.307-.104-.316-.123l-.015-.157c-.02-.275-.048-.83.015-.982.063-.153.05-.268.075-.347l.043-.067c.04-.033.025-.056.006-.09Z" fill="#CE3336"/>
        <path d="m27.563 69.486.114.049c.034.623.182.96.444 1.011l.301.074c.657.173 2.001.533 4.68.484 2.389-.043 4.816-.314 6.502-.652l-.02.301-.019.502c-.012.278-.046.627-.144.72l-.055.025h-6.79c-2.145 0-5.044-.591-5.106-.773-.062-.182-.307-.104-.316-.123l-.015-.157-.02-.343c-.009-.257-.007-.537.035-.639.063-.153.05-.268.075-.347l.043-.067c.04-.033.025-.056.006-.09l.05-.003a.563.563 0 0 1 .235.028Z" fill="#B92C2F"/>
        <path d="M34.625 70.36c-.118-.064-2.584-.1-3.912-.205-1.327-.104-2.27-.279-2.544-.35-.274-.07.657.335 2.028.48 1.371.143 4.546.14 4.428.075Z" fill="#DC484B"/>
        <path d="m28.881 68.291.172.021c.282.058.344.302.461.518.097.18.014.487-.129.674l-.091.096c-.138.11-.106.161-.016.193l.129.03c.166.033 1.012.165 1.058.088.047-.077-.014-.714.013-.994s.131-.438.24-.32c.08.09.089.275.084.424l-.009.133c-.01.148-.109.82 0 .81.11-.008.812.112.957.097.145-.015.062-.2.069-.355.006-.155.054-.522.056-.687l-.034-.319c-.004-.06.002-.1.034-.102l.142-.011c.082-.001.16.015.153.097-.012.137.097.675.062.836l-.04.22c-.025.17-.033.355.053.364l.574.045c.246.013.473.016.463-.021a1.108 1.108 0 0 1-.013-.192l.02-.512-.017-.27c-.011-.103-.025-.535.01-.556.035-.021.305.012.396.013.09.001.067.333 0 .573-.067.241.009.362 0 .573-.009.21-.091.421-.046.444.045.022.644.064.8.058a1.8 1.8 0 0 0 .382-.067c-.045-.062-.068-.248-.076-.44v-.362c.014-.252-.024-.424-.03-.606-.007-.183 0-.19.123-.186.121.002.145.038.158.284.013.246.192.675.18.888l-.02.215c-.012.138-.01.248.079.241l.76-.015c.172-.008.31-.022.323-.05.035-.074-.135-.347-.07-.561.066-.215.104-.446.08-.606-.026-.16-.142-.358-.079-.383.063-.026.207 0 .356 0s.109.117.045.219c-.063.101-.122.416-.045.566.076.15.12.411.06.559l-.054.13c-.023.073-.008.12.123.133.197.019.714.002.95-.063.235-.064.103-.243.1-.577-.002-.25.035-.392.06-.547l.02-.164c.014-.237.085-.265.223-.183.12.07.12.544.099.785l-.012.098c-.032.17-.06.505.06.537.118.033.696-.072.835-.15.14-.076.126-.425.172-.619.035-.15-.16-.65-.245-.892l.396.022c.063.005.109.01.135.015.322.067.474.903.508 1.187.029.237.012.371-.098.42l-.054.012-.523.036c-.4.035-.865.086-1.177.11l-.203.014c-.465.02-3.516.074-4.966 0l-1.08-.068a52.576 52.576 0 0 1-2.793-.28c-.97-.127-1.315-.352-1.561-.403a.808.808 0 0 0-.285.018c.03-.057-.093-.098-.016-.252.164-.026.561 0 .909.046.215.028.442.11.49.054.1-.118-.018-1.093.21-1.083Z" fill="#743D46"/>
        <path d="M27.297 69.508h.315l.249.01c.284.024.79.213 1.917.344l.392.036c1.69.13 6.492.304 6.878.3l2.34-.107c.115-.002.162.002.106.013l-.516.118a7.8 7.8 0 0 1-1.057.115l-.312.012c-1.218.036-4.572-.071-6.97-.245l-.723-.06c-1.734-.162-1.966-.35-2.178-.366-.204-.017-.291.148-.274.487l.017.184c.06.463.055.656.602.852.511.183 2.41.393 4.3.495l.405.02c2.016.093 5.473.045 5.932.028.46-.017.454-.469.457-.64.004-.17.266-.782.347-.827.011-.006.043.02.09.074l-.028.347-.029.7c-.017.244-.054.5-.136.578l-.055.024h-6.79c-2.145 0-5.044-.591-5.106-.773-.062-.182-.307-.104-.316-.123l-.015-.157c-.02-.275-.048-.83.015-.982.084-.204.031-.34.118-.414.02-.016.026-.03.025-.043Z" fill="#990311"/>
        <path d="M41.289 70.1a19.628 19.628 0 0 0 3.59-1.139c1.795-.759 8.35-3.235 10.805-4.259C58.139 63.678 62.803 62 63.21 61.8c.409-.199.517-.399.7-.452.183-.054 1.724-.276 2.171-.39.447-.114.815-.479 1.36-.577.545-.098 3.293-.422 6.619-1.021 3.326-.6 7.17-1.185 8.69-1.523 1.014-.225 1.54-.4 1.578-.526.48.164.768.32.863.467.141.22.54 2.175.694 4.18.154 2.007.071 3.007-.024 3.545-.096.537-.682 1.56-1.441 1.99-.76.428-1.87.633-4.438.21-2.568-.421-7.647-1.25-8.984-1.28-1.336-.031-4.464.444-6.51 1.015-2.048.571-6.667 1.57-7.89 1.858-1.224.288-2.37.602-2.792.619-.422.017-4.285.006-5.807.04-1.015.022-2.952.1-5.813.23l-.898-.085Z" fill="#121819"/>
        <path d="M85.192 57.778c.141.22.54 2.175.694 4.18l.055.857c.073 1.447.001 2.233-.08 2.688-.095.537-.68 1.56-1.44 1.99-.713.401-1.732.606-3.973.283l-3.9-.626-.639-.1c4.554.166 7.157-.35 7.811-1.545 1.146-2.092 1.331-5.823 1.324-7.872.07.052.118.1.148.145Z" fill="#2F2E35"/>
        <path d="M84.329 57.31c.48.165.768.321.863.468.141.22.54 2.175.694 4.18l.055.857c.073 1.447.001 2.233-.08 2.688-.057.322-.29.819-.632 1.258.244-.51.4-.968.465-1.373.182-1.124 0-4.096-.123-4.879l-.072-.396c-.177-.898-.535-2.316-.648-2.332-.092.217-.116.097-2.829.72-2.712.621-13.628 2.26-14.46 2.474-.832.214-1.284 1.014-1.903 1.014l-.567-.012c-.49-.018-.984-.048-1.212-.035-.318.018-2.64.776-2.814.787-.173.01 2.596-1.12 2.927-1.182l.367-.067c.462-.081 1.135-.18 1.373-.087.317.125.6.054.718.002.118-.053.351-.466.61-.687.226-.192 1.498-.322 2.953-.526l.986-.148 8.659-1.486a22.846 22.846 0 0 0 2.641-.616l.452-.095c1.013-.225 1.539-.4 1.577-.526Z" fill="#6C6C6C"/>
        <path d="m85.886 61.959.055.856c.073 1.447.001 2.233-.08 2.688-.095.537-.68 1.56-1.44 1.99-.713.401-1.732.606-3.973.283l-4.352-.697c-2.146-.332-4.295-.638-5.097-.656-1.24-.029-4.026.379-6.057.894l-1.223.326c-1.555.398-3.823.91-5.443 1.273l-1.892.43-8.93-1.243 1.724-.565c.49-.164.897-.305 1.22-.423l1.701-.64c3.524-1.35 5.199-2.108 5.32-2.131.25-.05 5.528 2.218 7.339 2.198 1.811-.02 5.042-.555 6.616-.423l.558.057c2.088.243 6.977 1.01 8.001 1.14 1.133.144 3.872-.136 4.762-1.358.559-.767.84-3.017.843-6.748.135.764.272 1.75.348 2.749Z" fill="#2D2C31"/>
        <path d="m85.886 61.959.055.856c.073 1.447.001 2.233-.08 2.688-.095.537-.68 1.56-1.44 1.99-.713.401-1.732.606-3.973.283l-3.938-.632c-.645-.101-1.297-.201-1.921-.293l4.559.411c1.695.148 3.188.257 3.732.207 1.384-.127 2.38-1.4 2.577-2.327.172-.81.124-4.09.057-6.055l.142.858c.093.617.177 1.312.23 2.014Z" fill="#4D4E4F"/>
        <path d="M47.432 65.516c.477.605.938.93 1.384.977.67.07 9.67-3.668 9.772-3.583.103.086-4.017 1.675-5.162 2.188-1.145.513-4.08 1.545-4.415 1.572-.334.027-.702-.035-1.06-.44a3.832 3.832 0 0 1-.519-.714Z" fill="#AFAA9F"/>
        <path d="M28.135 66.131c-.5.053 1.388.285 4.385.176 2.997-.11 7.846-.476 7.283-.555-.563-.078-8.186.292-8.972.305-.785.014-2.196.022-2.696.074Z" fill="#D8D4CA"/>
        <path d="M43.686 68.151c-.302-.266-3.151-2.378-3.622-2.56-.471-.18-3.986.125-6.54.213s-5.347.131-5.905.21c-.559.078-4.333.897-4.976.994-.644.097-1.127-.337-1.366-.869-.239-.532-.888-2.275-1.118-2.546.35.94.729 2.082.94 2.6.213.518.694 1.132 1.321 1.114.627-.018 4.66-.986 5.084-1.054.423-.069 3.735-.143 5.969-.175 2.234-.033 6.233-.384 6.531-.274.298.11 2.844 1.83 3.185 2.078.341.249.799.535.497.27Z" fill="#AFAA9F"/>
        <path d="M10.609 58.896c.096-.008.484 1.25 2.588 2.453 2.103 1.204 2.964 1.563 3.529 2.331s1.173 2.208 3.03 3.598c1.856 1.39 3.806 2.122 5.192 2.245 1.387.122 2.135-.035 2.206-.127.072-.092.276-.365.296-.211.02.153.226 2.259-.296 2.155-.52-.103-.572-.715-.757-.88-.185-.167-.705-.431-1.438-.568-.733-.137-1.785-.323-3.72-1.318-1.936-.995-2.898-2.16-3.42-2.881-.522-.721-1.096-1.959-1.796-2.448-.7-.489-2.216-1.326-2.91-1.77-.694-.443-1.51-1.06-1.94-1.575-.43-.514-.66-.997-.564-1.004Z" fill="#969185"/>
    </g>
</svg>
