<svg width="96" height="96" xmlns="http://www.w3.org/2000/svg">
    <defs>
        <path id="a" d="M0 0h96v96H0z"/>
    </defs>
    <g fill="none" fill-rule="evenodd">
        <path d="M67.939 27.063c.923.081 1.373.554 1.223 3.068-.15 2.513-1.057 8.465-1.911 11.438l-.619 2.108a52.48 52.48 0 0 1-.688 2.152c1.754.953 3.403 1.25 4.948.892 2.317-.537 3.356-1.531 5.026-2.77 1.113-.826 2.096-1.436 2.95-1.83-.289-1.745-.061-2.841.681-3.288l.28-.153c1.022-.504 2.013-.317 2.062 2.307.054 2.863-.286 6.342-.27 6.495l.036.26c.07.457.23 1.331.402 1.438.222.138 1.115 1.307 1.46 1.916.345.61.7 2.875.612 3.392-.088.518-.5 1.448-.518 1.634-.019.186.066 1.02.104 1.392.039.372.264.698.135 1.006-.128.308-.727.984-2.231 1.57-1.46.57-9.756.913-16.348 1.66l-.594.069c-6.677.796-17.504 3.263-25.169 3.344h-1.112c-7.878-.073-21.222-1.661-24.341-3.344-3.27-1.765-3.196-2.556-3.395-3.3-.133-.495-.133-.94 0-1.335.754-1.118 2.138-1.945 4.151-2.481l1.561-.382c3.893-.984 11.548-3.224 12.6-3.367l.082-.008c.454 0 2.333-.728 5.638-2.183.618-.663 1.324-.806 2.118-.43.624.4 1.308-.51 1.431-1.075l.018-.124c.036-.54.686-1.084 1.25-1.097.562-.013 2.24-.436 2.735-1.048l.572-.706c.497-.587 1.109-1.186 1.567-1.029.442.152.905.294 1.39.427l.994-.494c.778-.373 1.27-.567 1.477-.585l.25-.35c.638-.845 1.665-1.808 3.156-1.415.388.035.84-.385 1.241-1.164l.132-.273c.432-.953 1.278-1.661 1.724-1.547.446.114.806.119 1.36 0 .368-.08.706-.325 1.01-.735l2.628-2.59c2.203-2.19 3.619-3.656 4.248-4.397 1.276-1.506 3.02-3.15 3.944-3.068ZM82.263 50.29l.507 2.383c.066.328.115.584.146.768l.034.222c.067.544.322 1.686.38 1.667.06-.019.515-1.126.221-2.497-.294-1.372-.687-2.112-.896-2.277a3 3 0 0 0-.392-.266Zm-1.646-11.13c-.627-.141-1.325.935-1.361 1.69-.033.688.218 1.713.254 1.951l.004.047c-.01.055.04.166.18.375l.21.301c.198.275.668 1.401 1.407 3.377l.105-2.919c.021-.664.039-1.28.053-1.847.048-1.985-.226-2.835-.852-2.976Z" fill="#D7DCE5"/>
        <path d="M58.047 36.204c1.451.557 1.39 1.984.977 2.158-.767.323-1.606 2.187-1.604 3.096l.013.18c.136.815-1.07.812-1.225 0-.154-.813-2.38.997-2.983 1.863-.402.577-.187 1.353.643 2.328-1.886-1.038-2.721-1.127-2.505-.265l.046.152c.474 1.378-.435 1.598-2.475 2.576l-.72.357c-2.542 1.3-3.112-.385-4.47-1.274-1.3-.85-2.807 1.528-3.048 2.78l-.025.162c-.128 1.192-2.07 3.516-3.759 1.914-.882-.837-1.113-2.197-.693-4.078.193.022.39.084.593.18.624.4 1.308-.51 1.431-1.075l.018-.124c.036-.54.686-1.084 1.25-1.097.562-.013 2.24-.436 2.735-1.048l.572-.706c.497-.587 1.109-1.186 1.567-1.029.442.152.905.294 1.39.427l.994-.494.53-.246c.476-.213.792-.326.947-.339l.25-.35c.638-.845 1.665-1.808 3.156-1.415.388.035.84-.385 1.241-1.164l.132-.273c.432-.953 1.278-1.661 1.724-1.547.446.114.806.119 1.36 0 .368-.08.706-.325 1.01-.735l.928-.914Z" fill="#CCD2DB"/>
        <path d="M81.891 40.987c.054 2.863-.286 6.342-.27 6.495l.036.26c.07.457.23 1.331.402 1.438.222.138 1.115 1.307 1.46 1.916.345.61.7 2.875.612 3.392-.088.518-.5 1.448-.518 1.634-.019.186.066 1.02.104 1.392.039.372.264.698.135 1.006-.128.308-.727.984-2.231 1.57-1.46.57-9.756.913-16.348 1.66l-.594.069c-6.677.796-17.504 3.263-25.169 3.344h-1.112c-4.27-.04-10.147-.524-15.13-1.228l2.85-3.032c3.685.197 8.782.197 15.291 0 9.5-.287 13.467-5.157 17.65-8.56l1.568-1.236c3.193-2.467 3.747-2.464 6.743-1.379 3.343 1.211 6.23.59 8.245-1.08 1.052-.872 1.704-2.813 1.958-5.822.461-.286.892-.519 1.295-.704-.289-1.746-.061-2.842.681-3.29l.28-.152.265-.115c.922-.338 1.752.026 1.797 2.422Zm.372 9.303.507 2.383.146.768.034.222c.067.544.322 1.686.38 1.667.06-.019.515-1.126.221-2.497-.294-1.372-.687-2.112-.896-2.277a3 3 0 0 0-.392-.266Zm-3.007-9.44c-.033.688.218 1.713.254 1.951l.004.047c-.01.055.04.166.18.375l.21.301c.198.275.668 1.401 1.407 3.377l.105-2.919.053-1.847c.048-1.985-.226-2.835-.852-2.976-.627-.14-1.325.936-1.361 1.692Z" fill="#CDD3E0"/>
        <path d="M78.236 43.586c.23-.125.143-1.076.516-.676s1.083 1.793 1.1 2.51c.005.24.017.446.033.63l.129 1.25c.083.714.283 2.25.338 3.164l.056 1.364c.041.834.101 1.771.166 2.311l.033.235c.11.656.103 1.127.097 1.576-.006.448-.565-1.046-.597-1.86l-.211-3.861A65.655 65.655 0 0 1 79.803 48c-.01-1.175-1.092-4.463-1.187-4.675-.057-.127-.079.02-.1.272l-.056.588c-.064.52 0 .848.383 2.071.344 1.101.43 2.893.417 3.89l-.007.302c-.032.792-.225 1.615-.225.917l.01-.337c.054-1.103-.194-2.497-.473-3.404l-.105-.316c-.317-.871-.558-3.108-.401-3.372.157-.265-.192.016-.599.25-.37.211-.374.87-.093 1.788l.093.282c.37 1.063.778 5.617.599 5.904-.179.287-.412-2.42-.525-3.284l-.046-.28c-.11-.601-.37-1.695-.78-3.282l-.238-.915-.944.13c.662 1.603 1.103 2.876 1.325 3.817.221.941.268 2.265.14 3.971l-.158-.936a15.683 15.683 0 0 1-.19-1.879c-.026-.978-1.533-3.889-1.965-4.621.234-.167.47-.348.715-.535l.523-.123c.441-.096.87-.173 1.075-.207a4.308 4.308 0 0 0 1.245-.43Z" fill="#C1C9DA"/>
        <path d="m32.21 53.777-.26.404c-1.151 1.725-4.326 5.94-4.674 6.35l-.226.236c-.495.492-1.659 1.56-3.491 3.205l-1.905-.28c-3.496-.549-6.356-1.204-7.597-1.873-3.27-1.765-3.196-2.556-3.395-3.3-.133-.495-.133-.94 0-1.335.754-1.118 2.138-1.945 4.151-2.481l1.561-.382 1.734-.453c4.083-1.09 9.954-2.79 10.866-2.914l.082-.008c.431 0 2.15-.657 5.155-1.971l-.373 1.014c-.717 1.919-1.26 3.181-1.629 3.788Z" fill="#DFE2ED"/>
        <path d="m16.32 58.708 1.518.325c2.628.54 5.74 1.075 9.335 1.605l-.123.13-.588.562a204.71 204.71 0 0 1-2.903 2.642l-1.905-.28-1.206-.198c-2.94-.505-5.296-1.084-6.391-1.675-3.27-1.765-3.196-2.556-3.395-3.3-.133-.495-.133-.94 0-1.335.426-.632 1.054-1.171 1.883-1.617-.079 1.517 1.18 2.563 3.774 3.141Z" fill="#D2D7E5"/>
        <path d="M33.816 49.147c-.264.324-.782.593-1.07.748-.395.213-2.224.808-2.607 1.158-.383.35-.592.212-.62 0a2.006 2.006 0 0 1-.012-.195c.703-.202 2.062-.739 4.08-1.612Z" fill="#A65151"/>
        <path d="m23.37 52.425 1.397.253-1.108 1.64.91.838-3.52-.272 2.359-1.308.25-.13-2.853.576-2.35 1.682h3.487l.37.218 2.723.454v3.177l1.18-.815 3.924-4.16.687.752-3.438 3.408v-.773l-.784.43c.153.666.268 1.052.344 1.158.068.094-.117.45-.557 1.07l-.177.244-1.02-1.07v1.07l.537.836-.964 1.48-.41-6.807h-1.14l.442 6.346h-.88l-1-6.8-4.196.454.873 1.59h1.342l-1.783 1.333-.432-.905-.803.905v2.404h-.776v-2.965l.776-2.816h-2.888l-2.62 1.377 3.285-.923-2.84 3.926c-.912-.788-.924-1.295-1.055-1.782-.133-.496-.133-.941 0-1.336.615-.911 1.647-1.629 3.097-2.153l.798.507 3.458.166 2.017-1.387v-.295l-4.028 1.134-.75-.561 1.12-.274 1.757-.459c.425-.113.868-.233 1.324-.358l1.16-.056-.211.574 2.813-.574-.164-.29-.424-.528.74-.205Z" fill="#CDD3E0"/>
        <path d="m35.779 48.143.143-.271c-1.776 3.473-3.428 6.29-4.958 8.452-1.528 2.158-3.555 4.673-6.082 7.546a.3.3 0 1 1-.45-.396c2.514-2.859 4.528-5.358 6.042-7.497 1.364-1.927 2.832-4.39 4.401-7.388l-.181.174c.336-.36.697-.567 1.085-.62Z" fill="#CBCED6"/>
        <path d="M36.812 48.333a.59.59 0 0 0 .324.098l-.464.173c-.207.075-.372.13-.481.159-.452.12-.862.144-1.23.072l-.267-.072c.618-.663 1.324-.806 2.118-.43Zm31.127-21.27c.923.081 1.373.554 1.223 3.068-.15 2.513-1.057 8.465-1.911 11.438l-.619 2.108c-.231.766-.43 1.392-.594 1.878l-.094.274c-2.574-1.459-2.64-3.037-3.174-4.956-.533-1.92-2.32-2.898-3.795-2.874-1.475.024-3.72 1.96-4.385 2.474-.62.48-3.26 1.884-3.962 2.177l-.119.045c-.288.089-.288.258 0 .509l-.301.11-1.381.486c-1.27.477-5.274 2.08-6.625 2.6l-.797.302c-.788.314-2.522 1.04-3.805 1.547a1.88 1.88 0 0 0 .63-.939l.031-.176c.036-.54.686-1.084 1.25-1.097.562-.013 2.24-.436 2.735-1.048l.572-.706c.497-.587 1.109-1.186 1.567-1.029.442.152.905.294 1.39.427l.994-.494c.778-.373 1.27-.567 1.477-.585l.25-.35c.638-.845 1.665-1.808 3.156-1.415.388.035.84-.385 1.241-1.164l.132-.273c.432-.953 1.278-1.661 1.724-1.547.446.114.806.119 1.36 0 .368-.08.706-.325 1.01-.735l2.628-2.59c2.203-2.19 3.619-3.656 4.248-4.397 1.276-1.506 3.02-3.15 3.944-3.068Z" fill="#E0E5EB"/>
        <path d="m58.447 35.81.969 1.604-.751.614-.659-1.309-.124-.178a8.755 8.755 0 0 0-.073-.096l.638-.636Zm1.436-1.42.992 1.923-.624.614-1.176-1.738.672-.66.136-.14Zm1.319-1.319.966 2.023-.481.579-1.209-1.874.724-.728Z" fill="#CFD6E2"/>
        <path d="M69.162 30.13c-.15 2.514-1.057 8.466-1.911 11.439l-.619 2.108-.261.852c-.123.393-.234.734-.333 1.026l-.094.274c-2.574-1.459-2.64-3.037-3.174-4.956a3.865 3.865 0 0 0-1.54-2.163l.594-.572.512-.483c1.388-1.294 3.351-3.626 5.891-6.998l.963-1.292-.014.494-.014.272Z" fill="#D4D8E2"/>
        <path d="m67.251 41.569-.619 2.108-.261.852c-.123.393-.234.734-.333 1.026l-.094.274c-1.965-1.113-2.468-2.297-2.834-3.648.468-.404.953-.85 1.444-1.342 1.438-1.444 2.753-3.221 3.944-5.332-.357 2.226-.809 4.536-1.247 6.062Z" fill="#C1C8D3"/>
        <path d="m63.457 43.227 1.492 1.35 1.775-1.224-.092.324-.261.852c-.123.393-.234.734-.333 1.026l-.094.274c-1.442-.817-2.096-1.671-2.487-2.602Z" fill="#A6B0C2"/>
        <path d="M67.939 27.063c.874.077 1.325.505 1.242 2.688l-.02.38c-.048.823-.179 2.015-.362 3.35-.001-.764-.027-1.54-.103-2.127-.223-1.707-.627-3.503-.83-3.612-.179-.097-.773.352-1.234.758l-.699.662c-.83.809-2.551 2.505-5.164 5.089l-2.326 2.222-.217.259-1.074.356 2.595-2.56c2.056-2.044 3.426-3.457 4.111-4.24l.137-.157c1.276-1.506 3.02-3.15 3.944-3.068Z" fill="#E4E8ED"/>
        <path d="m68.17 27.367.213 1.428-.516-1.053h-.259l-2.521 2.561-4.529 4.408-1.92 2.023-1.703.676-.07.004a2.64 2.64 0 0 0 .255-.296l.399-.395.946-.323 6.427-6.569 2.716-2.464h.561Z" fill="#959CA6"/>
        <path d="M40.167 46.463c.16.21.319.395.476.55l-1.622.664a1.447 1.447 0 0 0-.255-.175c-.187-.104-.36-.31-.472-.541.126-.425.592-.815 1.047-.905l.223-.027c.238.096.457.241.603.434Zm4.218-3.209a22.8 22.8 0 0 0 1.175.367c.5.29.992.687 1.13 1.013l-1.333.524a1.848 1.848 0 0 0-.547-.32l-.185-.047c-.681-.106-.582-1.118-.31-1.465l.07-.072Zm7.949-1.458-.829.432-.76.37-.277-.154a.719.719 0 0 0-.179-.07c-.025-.25.218-1.05.736-1.13.387-.06.906.204 1.309.552Z" fill="#F0F3F8"/>
        <path d="M83.761 57.587c-.043.45-.114.723-.211.818-.147.142-.542.397-.594.333-.052-.064-.316-2.343-.477-3.214-.16-.87-1.082-5.214-1.294-5.956-.212-.742-1.152-3.26-1.437-3.898-.285-.637-1.019-2.008-1.043-2.17-.015-.109.037-.267.158-.476-.574.219-1.01.441-1.31.667-.448.338-.982.734-2.322 1.853-1.34 1.12-3.125 1.939-5.152 1.986-2.026.046-4.018-.5-5.543-1.81-1.526-1.31-2.604-4.181-2.919-5.205-.315-1.023-1.606-1.372-1.997-1.473-1.452-.374-2.233.237-2.556.447-1.314.852-2.99 2.46-3.475 2.734-2.707 1.53-3.76 1.268-3.102.911 1.209-.655 3.606-1.955 3.9-2.2 1.086-.908 2.902-2.08 3.361-2.257 1.953-.751 2.955.069 3.062.133 1.594.972 2.015 4.089 3.25 5.776 1.714 2.345 5.539 2.623 6.028 2.602 1.622-.072 2.955-.353 4.569-1.623 1.614-1.27 2.682-2.106 3.287-2.425.403-.213.618-.28.645-.202.069-.136.211-.231.428-.285.325-.082.714-.01.822.17.108.18 1.646 4.653 1.975 6.048.33 1.394 1.238 4.893 1.347 5.86.073.644.273 1.596.6 2.856Z" fill="#939AA7"/>
        <path d="M59.163 38.042c1.106-.178 2.911 1.407 3.3 2.394l.264.716c.386 1.092.906 2.623 1.42 3.254.357.438.832.84 1.426 1.207l.37.216c1.755.953 3.404 1.25 4.949.892 2.317-.537 3.356-1.531 5.026-2.77 1.113-.826 2.096-1.436 2.95-1.83-.289-1.745-.061-2.841.681-3.288l.28-.153.265-.115c.922-.338 1.752.026 1.797 2.422.054 2.863-.286 6.342-.27 6.495l.036.26c.07.457.23 1.331.402 1.438.222.138 1.115 1.307 1.46 1.916.345.61.7 2.875.612 3.392-.088.518-.5 1.448-.518 1.634-.019.186.066 1.02.104 1.392l-.167.598c-.11.36-.22.619-.345.625-.325.016-.265-.217-.193-.615.041-.223-.141-1.265-.353-2.379l-.46-2.378c-.253-1.376-.881-4.028-1.199-5.116l-.111-.34c-.252-.712-.77-1.921-1.555-3.628l-.454-.98v-.49c-1.09.474-1.893.94-2.405 1.399l-.202.196c-.738.781-3.092 2.52-5.164 2.9-2.072.378-5.255-.26-6.962-1.887-1.707-1.626-1.866-3.534-2.43-4.983-.564-1.45-2.495-1.667-3.295-1.654-.8.013-3.422 1.961-3.96 2.572-.537.61-3.12 1.875-3.834 1.947-.658.066-.212-.534.116-.647l.08-.017c.325-.026 1.732-.864 2.303-1.115.57-.25 1.648-1.222 3.047-2.255 1.399-1.033 1.882-1.048 2.989-1.225Zm23.1 12.248.507 2.383.146.768.034.222c.067.544.322 1.686.38 1.667.06-.019.515-1.126.221-2.497-.294-1.372-.687-2.112-.896-2.277a3 3 0 0 0-.392-.266Zm-3.007-9.44c-.033.688.218 1.713.254 1.951l.004.047c-.01.055.04.166.18.375l.21.301c.198.275.668 1.401 1.407 3.377l.105-2.919.053-1.847c.048-1.985-.226-2.835-.852-2.976-.627-.14-1.325.936-1.361 1.692Z" fill="#E8EAF1"/>
        <path d="M36.428 52.097c.608-.126.83-.506.83-.958 0-.452-.753-.933-1.34-.332-.585.602-.098 1.415.51 1.29Z" fill="#CBB067"/>
        <path d="M36.47 51.873c.608-.125.775-.542.685-.94-.09-.398-.797-.521-1.214-.076-.417.444-.08 1.141.53 1.016Z" fill="#694916"/>
        <path d="M41.981 50.38c.621-.007.912-.338.998-.782.086-.443-.562-1.06-1.252-.581-.69.479-.367 1.37.254 1.363Z" fill="#CBB067"/>
        <path d="M42.065 50.168c.62-.006.864-.384.852-.792-.012-.407-.683-.663-1.177-.306-.494.357-.296 1.105.325 1.098Z" fill="#694916"/>
        <path d="M48.041 48.221c.62-.007.912-.338.998-.782.086-.443-.562-1.06-1.252-.581-.69.479-.367 1.37.254 1.363Z" fill="#CBB067"/>
        <path d="M48.125 48.01c.62-.007.864-.385.852-.793-.013-.407-.683-.663-1.177-.306-.495.357-.296 1.105.325 1.098Z" fill="#694916"/>
        <path d="M53.66 45.27c.621-.008.912-.339.998-.783.086-.443-.562-1.06-1.252-.58-.69.478-.367 1.369.254 1.362Z" fill="#CBB067"/>
        <path d="M53.744 45.058c.62-.007.864-.385.852-.793-.012-.407-.683-.663-1.177-.306-.494.357-.296 1.105.325 1.099Z" fill="#694916"/>
        <path d="M58.457 41.406c.62-.007.911-.338.997-.782.086-.443-.562-1.06-1.251-.581-.69.479-.367 1.37.254 1.363Z" fill="#CBB067"/>
        <path d="M58.54 41.194c.621-.006.864-.384.852-.792-.012-.407-.682-.663-1.177-.306-.494.357-.295 1.105.325 1.098Z" fill="#694916"/>
        <path d="m36.093 48.291-.017.121c-.041.562.238 1.522.369 1.965.174.59.396.888.286 1.086-.109.198-.42.33-.592.343-.171.013-.524-.12-.8-.706-.252-.536-.57-1.842-.5-2.44.387-.31.805-.433 1.254-.369Zm8.175-4.89c.262.09.532.176.809.26l.132-.014c-.673-.028-1.46 1.143-1.862 1.922-.375.727-.788 3.025-.821 3.557l-.001.086c.024.283-.151.581-.453.649-.302.067-.546-.122-.7-.565-.156-.443-.086-2.102.218-3.038.097-.301.267-.671.467-1.053l.072-.07.57-.706c.498-.587 1.11-1.186 1.569-1.029Zm6.996-2.476.027-.01c-.799.304-1.731 1.796-1.985 2.466-.253.67-.451 3.362-.488 3.7-.037.338-.502.652-.822.567l-.299-.075c-.057-.025-.09-.068-.155-.18-.129-.224-.239-1.332 0-2.746.128-.75.3-1.355.575-1.899l.261-.35c.599-.793 1.54-1.69 2.886-1.473ZM54.631 38c.23.059.438.089.661.087a.808.808 0 0 1-.138.099l-.266.142.449.085c.617.132 1.72.412 2.4.79.95.53 1.28 1.14 1.114 1.478-.166.338-.576.384-.81.306-.234-.078-2.297-1.327-2.6-1.439-.174-.064-.503-.04-.986.074l-.254.065.013-.64c-.31.869-.506 1.57-.588 2.105-.122.802.54 2.433.637 2.819.095.385-.066.8-.514.892-.447.093-.955-.556-1.112-1.044-.156-.488-.336-2.234-.237-2.955.026-.189.062-.387.106-.588.093-.135.182-.287.27-.456l.131-.273c.433-.953 1.278-1.661 1.724-1.547Z" fill="#C3CAD4"/>
        <path d="m36.211 48.145-.018.121c-.04.562.238 1.522.37 1.965.174.59.395.888.286 1.086-.109.198-.421.33-.592.343-.172.013-.525-.12-.8-.706-.252-.536-.57-1.842-.5-2.44.387-.31.805-.433 1.254-.369Zm8.174-4.89c.263.09.532.176.81.26l.131-.014c-.673-.028-1.46 1.143-1.86 1.922-.376.727-.79 3.025-.823 3.557v.086c.024.283-.151.582-.454.649-.302.067-.545-.122-.7-.565-.155-.443-.086-2.102.218-3.038.098-.301.267-.671.467-1.053l.072-.07.572-.706c.497-.587 1.109-1.186 1.567-1.029Zm6.997-2.476.027-.01c-.8.304-1.731 1.796-1.985 2.466-.254.67-.452 3.362-.488 3.7-.037.338-.503.653-.823.567l-.298-.075c-.057-.025-.09-.068-.155-.18-.129-.224-.24-1.332 0-2.746.127-.75.299-1.355.574-1.899h.012l.25-.35c.599-.793 1.54-1.69 2.886-1.473Zm3.367-2.926c.23.059.438.089.661.087a.808.808 0 0 1-.138.099l-.267.142.45.085c.616.132 1.72.412 2.4.79.95.53 1.28 1.14 1.114 1.478-.166.338-.576.384-.81.306-.234-.077-2.297-1.327-2.601-1.439-.174-.064-.502-.04-.985.074l-.255.065.013-.64c-.31.869-.506 1.57-.587 2.105-.122.802.54 2.433.636 2.819.096.385-.066.8-.513.892-.448.093-.955-.556-1.112-1.044-.157-.488-.336-2.234-.238-2.955.026-.189.062-.387.106-.588.093-.135.183-.287.27-.456l.132-.273c.432-.953 1.278-1.661 1.724-1.547Z" fill="#ECEFF4"/>
        <path d="M61.363 45.727c.452-.284.649-.56.59-.829-.088-.403-.619-.397-.85-.147-.231.25-.143.663-.123.75.02.086-.207 1.086-.348 1.38-.094.196-.205.36-.334.494-.249-.2-.46-.257-.633-.17-.26.129-.247.553-.23.795.018.242-.173.175-.299.263-.126.087-.572.738-.744 1.143-.173.405-.329.73-.598.793-.268.063-.557.15-.392.187.165.036.87.247.902.158.03-.089-.034.049 0-.158.033-.208.835-1.225.91-1.23.076-.006.204.29.222.443.018.154-.15.673-.426.945-.276.272-1.356 1.028-1.608 1.116-.252.089-.897.76-1.115.826-.218.066-.7.248-.672.4.029.152.709.217.889.065.18-.153 1.981-1.105 2.285-1.29.303-.186.835-.442 1.108-.39.273.052 1.393.453 1.726.645.334.191 1.181.943 1.284.97.102.026.417.54.595.56.179.019.538-.088.627-.27.09-.181.363-.762 0-.581-.362.181-.464.108-.627 0-.162-.108-.855-.782-.986-.935-.132-.152-1.201-.862-1.413-1.003-.212-.14-.345-.46-.328-.606a4.451 4.451 0 0 0-.105-1.54c-.11-.397.134-.85.232-1.018.099-.167.254-.634.34-1.04.058-.271.098-.513.121-.726Z" fill="#A9987F"/>
        <path d="m63.171 36.467.57 2.68 2.32.927-1.274-1.803 1.488-1.424 1.545 1.631.283-.637-1.379-1.374 1.659-1.604-.563-.702-.377-1.77-1.383-.317c.896-.27 1.357-.531 1.383-.786.025-.254-.364-.895-1.168-1.923-.577.675-.818 1.225-.723 1.651.096.426.265.67.508.733l-.508.642c-.104 1.203-.03 1.793.225 1.77.254-.023.809-.023 1.666 0l.377.559-1.545.957-2.534-3.286 2.062 3.883-1.016 1.14v.427l-.252.187-1.364-1.56Z" fill="#CAD0D8"/>
        <path d="M26.03 63.184 27.33 60v1.591h1.22l.886.399h2.902v1.193l1.18-1.592.694 1.592h1.246l-.763-1.592.253-4.102c2.138-.804 3.21-1.326 3.218-1.568.007-.242-.74-.759-2.243-1.551-1.65 1.94-2.452 2.98-2.406 3.12.046.139.046 1.13 0 2.97l-.562-2.97-.856-1.017V54.37l2.113-3.76 1.256 2.522 3.307 2.789 4.39-2.474-.328.923v.96l1.014.591 1.476-1.551v-1.238l-.962-.356v-1.46l1.59.343-.628 6.144-2.49-1.882-.647-.592-.026-.598-2.218 1.19 3.244 2.436-.353.38-3.591-2.264-3.333 1.33-.445 4.187.99 1.193.01-3.183h.445l.224 2.788h1.638l.47-2.328-1.08-.46v-2.51h.61v1.968l1.17 1.002v1.854l1.22 1.262 2.204.395-1.179-4.513 2.175 4.513h.599c-.287-1.68-.487-2.602-.6-2.765-.112-.162-.112-.853 0-2.072h.6v2.856l.991 1.586 4.335-.788-2.04-3.082-1.24-2.982.344-3.03 6.042-6.32-.527 2.52.974.717 1.772-2 .783 2.504-.783.544h-2.746l-2.579.765-.825 1.946-1.241.96.026 2.473c1.407.412 2.087.597 2.04.554-.047-.043-.047.505 0 1.643l.738.46.915-8.036.547-.194-.547 8.643.926.333 1.396.385.604-1.591v-5.269l.785.561.096 5.168h1.116l.747-5.168h.197v5.168l.803.413 1.031-1.892-.03-3.652.375-.037.335 4.166c.802-.388 1.278-.628 1.427-.721.15-.093.603-1.032 1.36-2.816l1.202 2.436h.898c-1.041-1.958-1.524-3.309-1.45-4.052.113-1.114 1.427-1.902 1.19-3.075-.239-1.172-1.646-3.313-1.779-3.856-.133-.542-.218-1.411-1.42-1.263-1.204.148-2.104.671-3.942 0-1.838-.672-2.187-1.267-1.412-2.883.776-1.616 2.043 2.562 2.613.902.57-1.66-.23-6.154 1.313-4.984s1.374 3.154 2.787 4.984c1.412 1.83-.018 2.473 1.475 2.748 1.493.275 3.075.579 2.632 1.25-.444.671-1.607 1.002-.493 3.102.743 1.4 2.365 2.754 4.867 4.062-.337-.965-.898-1.685-1.683-2.16-1.178-.712-2.462-2.764-.718-2.599 1.744.166 4.915-.339 5.154 0 .24.34 2.914-.27 2.907.078-.007.348.351 2.52.802 2.165.45-.356 2.073-1.315 2.31.356.238 1.67-.243 1.317.653 2.197.597.587 1.027 1.229 1.292 1.924-.362-.158-.793-.08-1.292.236-.75.474-1.213-.878-1.763-.236-.551.643 1.855 4.413 1.11 4.338-.745-.074-2.204-.04-2.31-.385-.106-.344-2.331-1.868-3.207-3.403-.876-1.535-1.201-1.899-2.102-1.33-.9.568-3.32.074-3.554-.552-.233-.626-1.895-3.763-1.973-3.497-.08.265.882 1.93.528 2.905-.353.976-.284 2.137.752 3.408s.618 1.484 0 2.136c-.618.651-21.286 4.853-28.552 4.735-7.267-.118-14.74.018-15.589-.9-.565-.613-.007-1.12 1.675-1.525Z" fill="#C7CED8"/>
        <path d="m64.585 46.88.787.15c1.202.243 2.21.546 1.845 1.099-.444.671-1.607 1.002-.493 3.102.743 1.4 2.365 2.754 4.867 4.062-.295-.844-.761-1.501-1.4-1.97l-.283-.19c-1.129-.683-2.355-2.596-.92-2.608l.202.01c1.647.156 4.567-.286 5.088-.05l.066.05c.24.339 2.914-.271 2.907.077-.007.348.351 2.52.802 2.165l.167-.122c.594-.4 1.93-1.026 2.143.478.238 1.67-.243 1.317.653 2.197.597.587 1.027 1.229 1.292 1.924-.362-.158-.793-.08-1.292.236-.75.474-1.213-.878-1.763-.236-.551.643 1.855 4.413 1.11 4.338l-.422-.03c-.772-.043-1.8-.068-1.888-.355-.106-.344-4.782-1.086-5.334-1.539-.553-.453-3.295-3.12-3.529-3.746-.233-.626-1.895-3.763-1.973-3.497-.08.265.882 1.93.528 2.905-.18.497-.516 1.517.102 1.934.503.34 1.92.056 2.288.575l.223.292c1.036 1.27-1.243 2.091-1.861 2.743-.446.47-11.316 2.785-20.07 3.996l-.682-1.617 2.544-.464-2.04-3.082-.654-1.575.648-.946.006.618 1.735.493c.138.036.23.058.275.065h.018l-.009.031c-.024.141-.017.677.021 1.608l.738.46.915-8.036.189-.067.352-.022-.541 8.538.926.333 1.396.385.604-1.591v-5.269l.785.561.096 5.168h1.116l.747-5.168h.197v5.168l.803.413 1.031-1.892-.03-3.652.375-.037.335 4.166 1.122-.554a5.1 5.1 0 0 0 .305-.167c.139-.086.54-.902 1.202-2.447l.157-.367 1.203 2.434h.898c-1.041-1.958-1.524-3.309-1.45-4.052.113-1.114 1.427-1.902 1.19-3.075-.239-1.172-1.646-3.313-1.779-3.856-.05-.204-.093-.455-.192-.68l.823-.979.014.307c.007.466-.015.712.77.856Z" fill="#BCC4D2"/>
        <path d="m74.839 51.317 2.854 2.78h1.261l3.373 5.681c-.21.105-.444.21-.706.313-1.46.57-9.756.912-16.348 1.659l-.594.069c-2.536.302-5.671.846-9.005 1.408l-3.302-.748 3.242-2.303 3.278.368 2.431-1.806 3.628 1.093 4.488-3.771 1.757.166 3.643-4.909Zm3.995 6.436-.74 1.816.61.975c.968-.29 1.397-.492 1.286-.605-.11-.113-.496-.842-1.156-2.186Zm-9.395-.137-1.531 2.122 1.187-.276 1.188-1.12-.844-.726Zm4.307-1.297-.729 1.158 1.153 1.85h.669l.502-.579-1.595-2.43Zm1.791-2.871-.196.536 1.124 1.896.292-.356-1.22-2.076Z" fill="#88909F"/>
        <path d="M85.36 67.734c-.282.512-.519.885-.71 1.116-.288.348-2.064 3.134-8.655 3.15-6.592.016-8.653-.235-10.053-.534-1.4-.3-5.932-2.028-7.166-2.375s-4.336-.354-5.98.025c-1.643.38-6.117 1.588-8.295 2.083-2.177.496-3.296.801-6.501.801-3.205 0-9.779-.682-12.063-1.179-2.284-.497-7.353-2.244-10.29-4.165-2.937-1.92-5.065-4.249-5.25-4.662A4.916 4.916 0 0 1 9.992 60c0-.893.043-1.816.21-2.196.182.376.438 2.357 1.032 3.1.595.741 13.044 6.977 15.792 7.393 2.749.416 13.527 2.223 17.278.237 3.751-1.985 8.34-4.284 11.904-3.821 3.565.463 7.79 2.598 10.325 3.272 2.534.675 14.193.358 15.39 0 .8-.238 1.945-.322 3.437-.251Z" fill="#D0D0D9"/>
        <path d="M49.909 68.474c2.843-1.143 4.83-1.507 8.127-1.023 3.296.483 4.526 1.642 7.995 2.957 3.468 1.314 9.5 1.024 11.936.969 1.48-.034 3.517-.657 6.113-1.87-.937.932-3.175 2.481-8.085 2.493l-2.445-.008c-4.507-.044-6.257-.25-7.46-.495l-.148-.031c-1.4-.3-5.932-2.028-7.166-2.375s-4.336-.354-5.98.025l-1.188.29c-1.894.478-4.84 1.259-6.673 1.693l-1.638.374C41.793 71.805 40.564 72 38 72l-1-.018c-3.418-.11-8.996-.711-11.063-1.16-.885-.194-2.236-.589-3.722-1.096 3.853.884 10.964 1.651 14.58 1.651 3.89 0 5.688-.344 6.733-.655a77.894 77.894 0 0 0 6.38-2.248Z" fill="#A4A4B8"/>
        <path d="M57.853 67.82c3.074.388 5.26 2.036 6.357 2.484l.987.494c.657.243 1.56.564 2.71.963a17.26 17.26 0 0 1-1.818-.264l-.147-.031c-1.4-.3-5.932-2.028-7.166-2.375s-4.336-.354-5.98.025l-1.188.29-4.561 1.17c-.52.132-1.02.258-1.477.37l2.15-1.235c.87-.367 1.9-.818 2.546-1.057 2.144-.793 4.512-1.222 7.587-.834Z" fill="#838397"/>
        <path d="M57.852 65.103c.33.047 3.41.98 4.375 1.747a54.85 54.85 0 0 1 1.809 1.5c-.49.107-1.032.09-1.628-.053l-1.878-.46c-1.074-.254-2.356-.537-3.391-.68-1.813-.251-5.035.177-6.85 1.125-1.167.608-2.397.857-3.363.986l-1.87.206c-.484.035-.675-.034-.066-.45l.17-.112c1.056-.674 6.014-3.447 8.065-3.749 1.62-.238 3.388-.237 4.627-.06Z" fill="#DDE0E7"/>
        <path d="M11.548 56.234c-.66.859-.836 1.594-.53 2.206.46.917 2.183 1.75 3.93 2.324 1.747.574 8.657 2.277 9.92 2.498 1.262.221 2.695.389 4.843.458 2.147.069 10.875.048 16.303-.568.502-.046.905-.102 1.209-.166.67-.317 1.037-.462 1.102-.434.098.043 2.018.61 2.54.632.521.021 28.595-2.708 30.36-3.327 1.764-.619 2.528-1.07 2.575-1.34.032-.18.022-.414-.029-.7.55-.02.913.213 1.086.703.26.734 1.143 2.746 1.143 5.48 0 2.734-.59 3.919-.77 4.12-.178.202-3.712 1.349-5.795 1.552-2.084.203-9.332.486-11.87 0-1.544-.296-2.612-.631-3.396-.955-.265-.05-5.25-1.24-5.381-1.29-.17-.064 4.413.935 4.617.938a10.305 10.305 0 0 1-.448-.245c-.821-.473-3.634-2.504-6.954-2.751-3.32-.248-6.63 1.034-9.506 3.05-.507.354-.952.647-1.351.89-.072.043 2.024-.188 2.85-.26.214-.02 1.655-.45 1.637-.44-.015.009-1.293.457-1.609.504-1 .147-3.281.432-3.328.458-1.565.876-2.378.901-3.566.959-1.575.076-4.074.082-6.688-.108-2.615-.19-6.268-.516-7.594-.842-1.326-.325-7.085-2.401-10.616-4.211-3.531-1.81-5.685-4.527-6.012-5.1-.327-.571-.234-1.152-.22-1.932.014-.78.461-1.572.859-1.863.264-.195.494-.275.689-.24Z" fill="#838599"/>
        <path d="M11.548 56.234c-.66.859-.836 1.594-.53 2.206.46.917 2.183 1.75 3.93 2.324 1.747.574 8.657 2.277 9.92 2.498 1.262.221 2.695.389 4.843.458 2.147.069 10.875.048 16.303-.568.502-.046.905-.102 1.209-.166.67-.317 1.037-.462 1.102-.434.098.043 2.018.61 2.54.632.521.021 28.595-2.708 30.36-3.327 1.764-.619 2.528-1.07 2.575-1.34.032-.18.022-.414-.029-.7.55-.02.913.213 1.086.703.26.734 1.143 2.746 1.143 5.48 0 2.734-.53 3.713-.71 3.915-.178.202-3.712 1.348-5.796 1.552-2.083.203-9.332.486-11.869 0-2.537-.487-3.788-1.078-4.609-1.552-.82-.474-4.03-2.806-6.954-2.752-2.923.055-6.551 1.142-9.506 3.05-2.954 1.909-3.792 2.035-5.367 2.111-1.574.077-4.073.083-6.688-.108-2.614-.19-6.268-.515-7.594-.84-1.325-.326-7.084-2.403-10.615-4.213-3.531-1.81-5.685-4.526-6.012-5.099-.327-.572-.294-.947-.28-1.727.014-.78.461-1.572.859-1.863.264-.195.494-.275.689-.24Z" fill="#D8D9E4"/>
        <path d="M11.548 56.234c-.66.859-.836 1.594-.53 2.206.46.917 2.183 1.75 3.93 2.324l.538.166c2.216.65 7.695 2 9.195 2.297l.187.035c1.136.199 2.41.355 4.22.434l1.137.036c2.683.05 10.162-.001 15.236-.52l.553-.06c.502-.046.905-.102 1.209-.166l.445-.205c.39-.174.608-.25.657-.229l.663.2c.428.122.98.27 1.397.357l-3.993.412c-.427.171-1.814.355-4.16.552l-.517.042c-3.99.32-12.988.49-16.33-.104-3.342-.592-10.183-2.368-11.974-3.15-1.79-.78-2.577-1.569-2.888-2.498-.185-.553.084-1.26.807-2.122a.551.551 0 0 1 .218-.007Zm72.223 1.583c.227-.008.421.026.584.104.167.34-.01.59-.21.827-.143.169-.596.46-1.362.873l-.302.16-1.643.17.29-.065c.038-.01.07-.02.097-.029l.695-.255c1.273-.49 1.84-.854 1.88-1.086.032-.18.022-.413-.029-.699Z" fill="#F7F8FB"/>
        <path d="M82.404 59.462c-.802-.004-1.474.032-2.016.108-.812.114-5.515-.028-8.102.068-2.586.097-9.907.99-13.12 1.454-3.213.463-9.204 1.546-9.702 1.591-.499.046-.897-.152-1.468.173-.571.325-3.239 2.967-3.525 3.21-.285.243-2.02-.139-2.808 0-.788.139-2.147 1.517-2.952 1.286-.804-.23-1.478-1.06-2.697-.32-1.389.753-3.194 1.537-3.44 1.905-.245.368-.294.614.96.677 1.254.063 4.973.42 6.446.338 1.474-.082 3.903-.44 5.974-1.873 2.072-1.432 5.25-3.282 7.642-3.416 2.391-.133 6.62.572 8.23 1.403 1.611.83 2.56 2.257 5.927 2.6 3.367.341 9.45.316 10.979.271 1.529-.045 3.66-.658 3.909-1.015.248-.356 1.38-3.858 1.503-4.622.082-.509-.498-1.788-1.74-3.838Z" fill="#AF8D72"/>
        <path d="m82.404 59.462.462.779c.923 1.598 1.35 2.618 1.278 3.06-.068.425-.451 1.705-.82 2.814l-2.468 2.501-14.726-.237c-2.113-.558-2.987-1.634-4.304-2.313-.906-.467-2.64-.895-4.409-1.156l-.552-.24-.458.11c-1.03-.113-2.02-.16-2.81-.117-1.092.061-2.348.48-3.587 1.053l1.118-.668c.413-.249.867-.525 1.361-.827l3.638-.648 4.848.99 2.262 1.171c2.27 1.162 3.538 1.763 3.804 1.8l.646.035c2.568.098 11.731.287 12.017.125.325-.184 2.927-3.305 2.713-3.844l-.088-.192c-.258-.519-.951-1.712-2.081-3.58l-1.724-.065c-2.494-.084-4.114-.084-4.859-.002l-11.332 1.045-.535.045c-.871.07-2.84.415-4.774.777l-6.884 1.328c-.555.11-1.222.246-2.002.404l-3.395 3.527.334-1.028c.11-.326.218-.636.325-.928L46.652 64c.588-.546 1.123-1.018 1.344-1.144.571-.325.97-.127 1.468-.173l1.274-.203c1.949-.329 5.645-.975 8.074-1.336l1.957-.274c3.405-.454 8.674-1.075 11.117-1.213l.4-.019c2.469-.092 6.867.034 7.968-.054l.134-.014c.542-.076 1.214-.112 2.016-.108Z" fill="#8B735F"/>
        <path d="m77.11 52.23.263.428 1.718-2.068c.25 1.3.78 2.83 1.588 4.589 1.068 2.327 2.54 4.28 3.31 5.181l.267.303c.638.69 1.46 2.048 1.436 2.309a2.422 2.422 0 0 1-.085.45l-.125.39c-.134.392-1.639 4.074-1.867 4.378-.229.303-2.927.996-4.229 1.146-1.302.149-9.653-.003-10.42 0-.766.002-4.614-.783-4.95-.965-.336-.182-2.271-1.665-3.578-2.232-1.306-.568-4.033-1.195-6.202-1.127-2.034.063-4.642 1.436-5.718 2.08l-.195.118c-.92.573-3.607 2.404-5.859 2.753-2.12.33-5.665.125-7.068.01l-4.304-.346a.293.293 0 0 1-.045-.008l-.07-.053a7.853 7.853 0 0 1-.26-.236l-1.634-1.377c.335-.297.655-.562.958-.797.303-.234.897-.592 1.781-1.074l2.03 1.288 2.717-1.982 2.212 1.252 2.724-2.136 2.367 1.102 4.1-5.332 3.158 1.744 4.755-3.975 2.38 1.816 2.937-3.345.106.065c.21.14.725.513 1.547 1.116l.924.68 2.271-2.495 1.685.793 4.3-5.667 1.068 1.334 1.667-2.82c.636.44 1.35 1.454 2.34 2.71ZM39.52 68.127c-.03-.016-.303.359-.816 1.126l1.18.01c.726-.002 1.091-.02 1.097-.058.014-.08-1.413-1.053-1.46-1.078Zm-5.495.238c-.135.06-.711.55-.677.67.033.119 1.635.191 1.627.042-.009-.15-.815-.772-.95-.712Zm2.504-1.093c-.154-.007-.956.676-.949.775.007.1 1.264.933 1.312.94.033.006.332-.284.899-.868l-.445-.332c-.465-.339-.737-.51-.817-.515Zm7.453.188-.133.117c-.325.31-1.124 1.123-1.109 1.167.02.053.744.04.817 0l.502-.352c.303-.22.63-.468.63-.506.002-.069-.643-.453-.707-.426Zm32.672.646-.688-1.128-.532.658c-.336.432-.49.674-.465.727.03.06.336.072.92.037l.568-.041.197-.253Zm-5.99-1.614c-.104-.004-1.266 1.473-1.254 1.66.012.187 2.646.116 2.691.062.046-.055-1.331-1.717-1.436-1.722Zm10.015 1.505-.915-1.725-.826 1.624c-.069.142-.103.22-.104.234 0 .02.022.026.06.025l.274-.024.158-.001c.16.007.514-.024 1.062-.095l.29-.038ZM41.567 66.37l-.562.401c-.24.177-.361.277-.362.3-.003.053.954.845 1.048.85.095.004 1.071-1.107 1.049-1.188-.015-.054-.406-.175-1.173-.363Zm26.167-1.65c-.163-.013-2.3 2.206-2.321 2.287-.008.031.129.155.301.297l.66.512c.048.036 1.448.007 1.49 0l.175-.172c.215-.226.626-.675 1.232-1.349l-.781-.87c-.432-.465-.684-.7-.756-.706Zm7.66 1.165-1.253-1.864-.875 1.135c-.352.466-.52.709-.503.729l1.315 1.814 1.316-1.814Zm-29.366-.58c-.06-.004-.878.97-.897 1.05-.018.082 1.007.671 1.1.672.092 0 1.368-.897 1.365-.97-.002-.075-1.508-.75-1.568-.753Zm37.084-1.554-1.35-2.679-.772 2.127c-.205.586-.309.916-.311.99-.003.093.134.465.411 1.117l.521 1.186 1.501-2.741Zm-4.278.195L76.74 59.86l-.878 1.512c-.16.286-.248.461-.268.524-.05.168.309.88.622 1.475l.22.412c.327.616 1.027 2.251 1.12 2.276.053.015.366-.487.94-1.505l.338-.607Zm-9.233-1.57-1.2 1.406 1.551 1.678.777-.814c.292-.315.438-.494.439-.536 0-.052-.293-.39-.88-1.015l-.687-.72Zm-18.936 1.85c-.093.037-.92.863-.88.888.028.016.503-.168 1.427-.551-.252-.207-.421-.319-.506-.337h-.041Zm14.748-2.884c-.052-.013-2.152 2.005-2.16 2.083-.009.078 1.824 1.665 1.893 1.672.068.008 2.178-1.938 2.184-2.011.007-.073-1.865-1.73-1.917-1.744Zm-17.268 1.465-1.164 1.404 1.084.687 1.323-1.36-1.243-.731Zm11.067-.294c-.06 0-1.98 1.315-2.016 1.488-.036.172.9.145 1.322.222.423.077 1.036.364 1.09.338l.63-.441c.295-.216.58-.433.558-.454l-.681-.515c-.414-.308-.87-.638-.903-.638Zm-5.921.123c-.095-.003-1.082.934-1.075.996.007.062.66.516.842.468l.287-.044c.621-.075 1.836-.156 1.873-.23.044-.089-1.832-1.187-1.927-1.19Zm18.677-2.898c-.097-.005-1.193 1.602-1.153 1.683l.1.126 1.768 2.026 1.035-1.515-1.131-1.56c-.376-.505-.582-.758-.62-.76Zm-15.966.806c-.063 0-1.238 1.097-1.239 1.112l.412.298c.41.286.986.676 1.06.682.118.01 1.362-.891 1.362-.98 0-.09-1.533-1.112-1.595-1.112Zm5.689-1.413c-.07-.01-1.558 1.592-1.577 1.686-.018.095 1.77 1.37 1.847 1.377.078.008 1.638-1.503 1.625-1.565-.012-.061-1.826-1.489-1.895-1.498Zm17.292-3.25-1.103 2.4 1.701 3.614 1.192-2.585-1.79-3.43Zm-9.458.783-2.484 2.951 1.59 1.457 2.375-2.95-1.481-1.458Zm4.28-1.287c-.132-.101-1.28 1.607-1.37 1.711-.092.105.47.96.946 1.58.476.619 1.025 1.773 1.172 1.768.147-.005 1.314-1.879 1.305-2.045-.009-.166-1.919-2.913-2.052-3.014Zm1.69-3.136-.755 1.314.879 1.278c.552.82.861 1.329.929 1.527a7.99 7.99 0 0 0 .529-.918l.116-.263-1.697-2.938Z" fill="#8D8E9A"/>
        <path d="m77.057 52.669.263.428 1.718-2.069c.251 1.3.78 2.83 1.588 4.589 1.069 2.328 2.54 4.28 3.31 5.182l.268.302c.638.69 1.46 2.048 1.436 2.31-.016.156-.04.286-.086.45l-.124.39c-.135.391-1.64 4.073-1.868 4.377-.228.304-2.927.997-4.229 1.146-1.302.15-9.653-.002-10.42 0-.765.002-4.585-1.192-4.92-1.374-.337-.182-2.26-1.562-3.676-2.234-1.414-.672-3.967-1.078-6.136-1.011-2.034.063-4.641 1.436-5.718 2.08l-.194.118c-.921.573-3.607 2.404-5.86 2.754-2.119.329-5.663.42-7.066.304l-4.304-.346a.293.293 0 0 1-.044-.008l-.07-.052a7.853 7.853 0 0 1-.261-.237l-1.599-1.553 2.542-1.655 2.193 1.248 2.586-1.91 2.342 1.18 2.6-2.079 2.492 1.045 4.099-5.331 3.158 1.743 4.756-3.974 2.38 1.815 2.936-3.344.107.064c.209.141.724.513 1.546 1.116l.924.68 2.271-2.494 1.685.792 4.3-5.667 1.068 1.334 1.628-3.05c.636.44 1.429 1.42 2.38 2.94ZM39.468 68.565c-.031-.016-.304.36-.816 1.126l1.18.01c.725-.002 1.09-.02 1.097-.057.013-.08-1.413-1.054-1.46-1.079Zm-5.495.238c-.135.06-.712.55-.678.67.034.12 1.635.192 1.627.042-.008-.15-.814-.772-.95-.712Zm2.503-1.092c-.154-.008-.955.675-.949.775.007.1 1.264.933 1.313.94.032.005.332-.285.898-.869l-.445-.331c-.464-.34-.737-.511-.817-.515Zm7.454.187-.133.118c-.326.31-1.125 1.123-1.11 1.166.02.054.745.04.818 0l.501-.351c.303-.22.63-.468.631-.507.001-.069-.644-.453-.707-.426Zm32.671.646-.688-1.128-.531.659c-.336.431-.491.673-.465.727.028.06.335.071.919.036l.568-.04.197-.254Zm-5.989-1.613c-.105-.005-1.266 1.472-1.254 1.66.011.186 2.645.115 2.69.06.046-.053-1.33-1.716-1.436-1.72Zm10.014 1.504-.915-1.724-.826 1.623c-.069.142-.103.22-.103.234 0 .02.021.026.06.025l.273-.024h.159c.159.007.513-.025 1.062-.095l.29-.04Zm-39.112-1.626-.562.4c-.24.177-.36.277-.362.3-.003.053.954.845 1.049.85.094.005 1.07-1.107 1.048-1.187-.014-.054-.405-.175-1.173-.363Zm26.167-1.651c-.162-.012-2.3 2.207-2.32 2.287-.009.032.128.156.3.298l.66.512c.048.035 1.448.006 1.49 0l.175-.172c.215-.226.626-.676 1.233-1.35l-.782-.87c-.432-.464-.683-.7-.756-.705Zm7.66 1.165L74.09 64.46l-.876 1.134c-.351.466-.519.71-.503.73l1.315 1.813 1.316-1.814Zm-29.366-.58c-.06-.004-.878.97-.896 1.05-.019.082 1.006.672 1.099.672.092 0 1.368-.897 1.366-.97-.003-.074-1.509-.75-1.569-.753Zm37.085-1.554-1.35-2.678-.773 2.126c-.205.587-.309.917-.31.99-.004.093.133.466.41 1.117l.522 1.187 1.5-2.742Zm-4.278.196-2.095-4.087-.877 1.511c-.16.287-.25.461-.268.525-.05.167.308.88.621 1.474l.22.413c.328.615 1.027 2.25 1.12 2.276.053.014.366-.488.94-1.506l.339-.606Zm-9.233-1.57-1.2 1.406 1.55 1.677.778-.814c.291-.315.437-.494.438-.536.001-.052-.292-.39-.88-1.014l-.686-.72Zm-18.937 1.85c-.093.036-.92.863-.88.887.028.016.504-.167 1.428-.55-.253-.207-.422-.32-.507-.337h-.04Zm14.748-2.884c-.052-.014-2.152 2.004-2.16 2.082-.008.078 1.824 1.665 1.893 1.673.069.007 2.178-1.939 2.185-2.012.006-.073-1.866-1.73-1.918-1.743Zm-17.267 1.464-1.164 1.405 1.083.687 1.324-1.36-1.243-.732Zm11.066-.294c-.06 0-1.98 1.316-2.016 1.488-.036.172.9.146 1.322.222.423.077 1.036.365 1.09.338l.63-.441c.296-.215.58-.432.558-.454l-.68-.515c-.415-.307-.87-.638-.904-.638Zm-5.92.123c-.096-.002-1.083.935-1.076.996.007.062.66.516.843.468l.287-.044c.62-.074 1.835-.156 1.872-.23.044-.088-1.832-1.187-1.927-1.19Zm18.676-2.898c-.097-.005-1.192 1.603-1.152 1.683l.099.126 1.768 2.027 1.035-1.516-1.13-1.56c-.376-.504-.583-.758-.62-.76Zm-15.966.806c-.063 0-1.237 1.098-1.239 1.112l.413.298c.409.287.986.676 1.06.682.117.01 1.361-.89 1.361-.98 0-.09-1.532-1.112-1.595-1.112Zm5.689-1.413c-.07-.01-1.558 1.592-1.576 1.687-.019.094 1.77 1.37 1.847 1.377.077.007 1.637-1.504 1.625-1.565-.013-.062-1.827-1.49-1.896-1.499Zm17.292-3.25-1.102 2.4 1.7 3.615 1.192-2.586-1.79-3.43Zm-9.458.784-2.484 2.95 1.59 1.458 2.375-2.95-1.481-1.458Zm4.281-1.288c-.133-.1-1.28 1.607-1.371 1.712-.092.104.47.959.946 1.578.476.62 1.025 1.774 1.172 1.77.147-.005 1.314-1.88 1.305-2.045-.009-.166-1.919-2.914-2.052-3.015Zm1.69-3.136-.756 1.315.88 1.277c.551.82.86 1.329.928 1.528a7.99 7.99 0 0 0 .53-.918l.115-.264-1.697-2.938Z" fill="#69697E"/>
        <path d="M74.678 49.728c.693.48 1.601 1.508 2.723 3.082l1.637-1.782c.305 1.11.862 2.544 1.67 4.302 1.21 2.638 2.939 4.795 3.577 5.485.638.69 1.46 2.047 1.435 2.309-.025.26-.075.448-.21.84-.134.392-1.639 4.073-1.867 4.377-.228.304-2.926.997-4.229 1.146-1.302.15-9.653-.002-10.42 0-.765.003-4.614-.782-4.95-.965-.335-.182-2.27-1.664-3.577-2.232-1.307-.567-4.033-1.194-6.203-1.127-2.17.068-4.992 1.625-5.912 2.198-.92.573-3.607 2.404-5.86 2.754-2.251.35-6.114.097-7.305-.01-1.19-.109-4.015-.299-4.111-.334-.064-.024-.707-.638-1.93-1.842l2.542-1.656 2.193 1.248 2.586-1.91 2.342 1.181 2.6-2.08 2.492 1.045L48 60.426l3.158 1.744 4.756-3.975 2.38 1.815c1.95-2.209 2.928-3.323 2.936-3.344.008-.021.867.6 2.577 1.86l2.271-2.494 1.685.792 4.22-5.38 1.148 1.048a81.374 81.374 0 0 0 1.547-2.764Zm-35.129 18.55c-.031-.016-.304.36-.816 1.126 1.509.022 2.268.006 2.277-.047.013-.08-1.413-1.054-1.46-1.078Zm-5.457.236-.038.002c-.135.06-.712.551-.678.67.034.12 1.635.192 1.627.042-.008-.15-.814-.772-.95-.712Zm2.465-1.09c-.154-.008-.955.675-.948.775.006.1 1.263.933 1.312.94.032.005.332-.284.898-.868-.738-.56-1.159-.842-1.262-.847Zm7.454.188c-.064.027-1.261 1.23-1.242 1.284.018.053.744.04.817 0 .073-.04 1.13-.79 1.132-.858.001-.07-.644-.454-.707-.426Zm31.984-.483-.261.319c-.523.645-.768 1-.736 1.067.037.076.533.075 1.487-.005l.197-.253-.687-1.128Zm-5.302-.485c-.105-.005-1.266 1.472-1.254 1.66.012.186 2.646.115 2.69.061.046-.054-1.33-1.716-1.436-1.721Zm9.1-.22c-.62 1.197-.93 1.816-.93 1.857-.001.063.213-.013.492 0 .186.01.636-.035 1.352-.133Zm-38.198.098c-.614.43-.922.664-.924.7-.003.054.954.845 1.049.85.094.005 1.07-1.106 1.048-1.187-.014-.054-.405-.175-1.173-.363Zm26.167-1.65c-.162-.013-2.3 2.206-2.32 2.287-.02.08.913.773.96.809.048.036 1.448.006 1.49 0 .028-.004.497-.511 1.408-1.521-.917-1.042-1.43-1.568-1.538-1.576Zm6.408-.699c-.946 1.21-1.405 1.83-1.379 1.863l.027.036c.109.147.538.74 1.288 1.778l1.317-1.814Zm-28.114 1.283c-.06-.003-.878.97-.896 1.051-.019.081 1.006.671 1.099.671.093 0 1.369-.896 1.366-.97-.003-.074-1.508-.75-1.569-.752Zm35.734-4.232c-.717 1.939-1.079 2.978-1.083 3.117-.004.14.307.907.933 2.303l1.5-2.742Zm-5.022-1.213c-.721 1.218-1.103 1.897-1.145 2.036-.063.21.513 1.271.84 1.887.329.616 1.028 2.25 1.122 2.276.062.017.488-.687 1.278-2.112Zm-7.138 2.516-1.2 1.407 1.55 1.677.148-.15c.71-.734 1.067-1.134 1.068-1.2.001-.07-.52-.647-1.566-1.734Zm-18.908 1.849-.029.002c-.093.036-.92.863-.88.887.028.017.504-.167 1.428-.55-.303-.248-.486-.36-.548-.337Zm14.719-2.882c-.052-.013-2.151 2.005-2.16 2.083-.008.077 1.824 1.664 1.893 1.672.069.008 2.178-1.938 2.185-2.012.006-.073-1.866-1.73-1.918-1.743Zm-17.267 1.464-1.164 1.405 1.083.687 1.324-1.36-1.243-.732Zm11.067-.294c-.06 0-1.981 1.316-2.017 1.488-.036.173.9.146 1.322.223.423.076 1.036.364 1.09.338l.075-.05c.27-.183 1.15-.809 1.113-.845-.042-.043-1.523-1.153-1.583-1.154Zm-5.922.124c-.095-.003-1.082.934-1.075.996.007.062.66.516.843.467.375-.085 2.115-.185 2.16-.273.043-.089-1.833-1.188-1.928-1.19Zm18.677-2.898c-.097-.005-1.192 1.602-1.152 1.682.026.054.649.771 1.867 2.153l1.035-1.516-.147-.205c-1.007-1.406-1.541-2.111-1.603-2.114Zm-15.966.805c-.063 0-1.237 1.098-1.239 1.112-.001.014 1.356.97 1.473.98.117.01 1.361-.89 1.361-.98 0-.089-1.532-1.112-1.595-1.112Zm5.689-1.413c-.07-.01-1.558 1.593-1.576 1.687-.019.094 1.77 1.37 1.847 1.377.077.007 1.637-1.503 1.625-1.565-.013-.062-1.826-1.489-1.896-1.499Zm17.292-3.25-1.102 2.4 1.7 3.615 1.192-2.585-1.79-3.43Zm-9.458.784-2.483 2.95 1.59 1.458 2.374-2.95-1.481-1.458Zm4.281-1.288c-.133-.1-1.28 1.607-1.371 1.712-.092.105.47.96.946 1.579.476.62 1.025 1.774 1.172 1.769.147-.005 1.314-1.88 1.305-2.045-.009-.166-1.919-2.914-2.052-3.015Zm1.69-3.135-.756 1.314.162.233c1.005 1.442 1.554 2.3 1.646 2.572.296-.45.51-.845.645-1.182l-1.697-2.937Z" fill="#DDE0E7"/>
        <path d="M74.678 49.728c.63.437 1.438 1.325 2.423 2.666l.3.416 1.553-1.692-1.453 1.896-2.727-2.914-1.526 2.676-1.198-.966-4.159 5.293-1.707-.634-2.376 2.415-2.578-1.781-2.936 3.213-2.423-1.647-4.583 3.809L48 60.903l-4.08 5.206-2.51-1.207-2.677 2.142-2.258-1.146-2.662 1.706-2.153-1.02-2.382 1.258 2.41-1.569 2.193 1.248 2.586-1.91 2.342 1.181 2.6-2.08 2.492 1.045L48 60.426l3.158 1.744 4.756-3.975 2.38 1.815 2.936-3.344.048.026c.094.06.324.222.69.487l1.84 1.347 2.27-2.494 1.685.792 4.22-5.38 1.148 1.048.78-1.362c.307-.546.563-1.013.767-1.402Z" fill="#FFF"/>
    </g>
</svg>
