<svg width="96" height="96" xmlns="http://www.w3.org/2000/svg">
    <defs>
        <path id="a" d="M0 0h96v96H0z"/>
    </defs>
    <g fill="none" fill-rule="evenodd">
        <path d="M11.247 59.011c-.353-.268.199-.824 1.656-1.666 2.185-1.262 12.858-3.084 13.175-3.084.211 0 .367-.046.467-.137.264-.728.68-1.139 1.249-1.232a2.796 2.796 0 0 1 1.68.251c1.024-1.207 1.965-1.81 2.82-1.81.856 0 1.575.186 2.156.559.213.084.32.084.32 0s.402-.413 1.208-.987v-.575l1.063-.762.453.301.794-.858h.285l1.12-1.472 3.43-1.622 2.871-.852.127-.486h.832c.193-.728.29-1.139.29-1.23 0-.138.21-1.294 2.103-1.57.232-.52.805-1.232 1.185-1.232h.794c-.043-.27-.097-.462-.161-.578-.097-.174-.388-.828 0-1.196.258-.245.57-.436.934-.573v-.306c.77-1.656 1.5-3.317 2.189-4.981a21.344 21.344 0 0 1 2.513-4.508c.223-.485.525-.652.906-.501.572.226 1.712 1.082 2.627 3.299.61 1.478 1.03 2.835 1.258 4.073 4.497 1.029 7.884 1.869 10.159 2.52 3.413.977 5.527 1.479 7.031 1.479 1.505 0 2.303 2.323 1.721 2.943.217.473.328 1.422.334 2.847l1.136 1.415 1.495 4.425.516.987v1l.465 1.369v1.919l-.465.92.465 1.23-.465.681v.866l-.516.965-.337 1.254c-21.845 2.606-37.057 3.91-45.636 3.91-12.868 0-22.29-1.752-24.471-2.831-1.454-.72-2.046-2.107-1.776-4.164Z" fill="#AA1932"/>
        <path d="M57.706 27.904c.52.206 1.512.933 2.376 2.734a10.467 10.467 0 0 1-1.244 4.592c-2.755 5.114-2.659 11.428-4.14 13.815-1.48 2.387-9.349 6.835-16.032 8.26-6.507 1.39-13.238.584-13.007-2.987.24-.037.386-.057.419-.057.211 0 .367-.046.467-.137.264-.728.68-1.139 1.249-1.232a2.796 2.796 0 0 1 1.68.251c1.024-1.207 1.965-1.81 2.82-1.81.856 0 1.575.186 2.156.559.213.084.32.084.32 0s.402-.413 1.208-.987v-.575l1.063-.762.453.301.794-.858h.285l1.12-1.472 3.43-1.622 2.871-.852.127-.486h.832c.193-.728.29-1.139.29-1.23 0-.138.21-1.294 2.103-1.57.232-.52.805-1.232 1.185-1.232h.794c-.043-.27-.097-.462-.161-.578-.097-.174-.388-.828 0-1.196.258-.245.57-.436.934-.573v-.306c.77-1.656 1.5-3.317 2.189-4.981a21.344 21.344 0 0 1 2.513-4.508c.223-.485.525-.652.906-.501Z" fill="#C43A47"/>
        <path d="m55.249 45.726-1.923-1.548-.893.041-2.54 2.113v.979c1.413 1.032 2.18 1.62 2.3 1.765.182.217 1.13.712 1.708.252.384-.307.833-1.508 1.348-3.602Z" fill="#A52037"/>
        <path d="m61.418 34.466-3.472 1.138-.437.408c-1.011.905-1.41.97-1.195.192.217-.789 1.68-1.537 4.39-2.246l.546-.136c.061.218.117.432.168.644Z" fill="#D25B68"/>
        <path d="M57.706 27.904c.572.226 1.712 1.082 2.627 3.299.61 1.478 1.03 2.835 1.258 4.073l.509.116-.952 3.543c-.412-2.243-.827-4.043-1.248-5.402l-.09-.285c-.676-2.083-1.551-3.268-1.975-3.832-.25-.333-.7-.523-1.347-.57l.312-.44c.223-.486.525-.653.906-.502Z" fill="#6D222F"/>
        <path d="M57.706 27.904c.572.226 1.712 1.082 2.627 3.299.61 1.478 1.03 2.835 1.258 4.073l.559.128-.626 3.512c-.577-2.65-1.091-4.67-1.542-6.058-.676-2.083-1.677-3.348-2.1-3.912-.24-.318-.644-.437-1.212-.358a5.71 5.71 0 0 1 .13-.183c.223-.485.525-.652.906-.501Z" fill="#93505B"/>
        <path d="M35.925 50.944c1.625 5.08 4.7 8.129 9.275 10.1 3.106 1.34 7.58 2.076 13.425 2.21 1.818.91 1.66 1.403-.475 1.48-17.812.642-38.092-.34-41.15-.784-4.006-.58-5.348-2.993-5.776-4.747l.023-.192a.258.258 0 0 1-.09-.115l-.013-.067c-.01-.305.576-.8 1.759-1.484 2.185-1.262 12.858-3.084 13.175-3.084.211 0 .367-.046.467-.137.264-.728.68-1.139 1.249-1.232a2.796 2.796 0 0 1 1.68.251c1.024-1.207 1.965-1.81 2.82-1.81.856 0 1.575.186 2.156.559.213.084.32.084.32 0 0-.078.347-.367 1.042-.867Z" fill="#D14C5A"/>
        <path d="M45.2 61.045c3.106 1.339 7.58 2.075 13.425 2.208 1.818.91 1.66 1.404-.475 1.481-17.812.642-38.092-.34-41.15-.784-.984-.142-1.806-.395-2.494-.721-.895-.573-1.63-1.155-2.204-1.746a5.983 5.983 0 0 1-.956-1.846h1.865c6.527.703 12.166.622 16.916-.242 4.399-.8 7.494-1.562 9.284-2.285 1.551 1.669 3.479 2.94 5.79 3.935Z" fill="#BF3945"/>
        <path d="m13.327 57.137.017-.162c-.13.94.277 1.645 1.218 2.117 1.411.707 5.221 1.9 5.315 3.763-1.133.387-4.445.635-6.225-.339a6.668 6.668 0 0 1-1.168-.81 6.02 6.02 0 0 1-1.26-2.503l.023-.192a.258.258 0 0 1-.09-.115l-.013-.067c-.01-.305.576-.8 1.759-1.484.117-.068.26-.137.424-.208Z" fill="#D46673"/>
        <path d="M14.691 59.747c1.412.707 4.21 1.06 4.664 2.977-1.133.387-3.923.766-5.703-.208a6.703 6.703 0 0 1-.955-.633l-.226-.191a6.028 6.028 0 0 1-1.246-2.484l.022-.197a.27.27 0 0 1-.082-.096l-.015-.057c-.054-.29.488-.77 1.624-1.438-.083 1.19.976 1.855 1.917 2.327Z" fill="#BD3F4D"/>
        <path d="m36.079 50.256.549 2.03c-2.023.952-3.839 1.726-5.448 2.32-2.413.892-4.808 1.339-5.581.947-.45-.227-.334-.735-.1-1.17l.536-.117.043-.005c.211 0 .367-.046.467-.137.264-.728.68-1.139 1.249-1.232a2.796 2.796 0 0 1 1.68.251c1.024-1.207 1.965-1.81 2.82-1.81.856 0 1.575.186 2.156.559.213.084.32.084.32 0s.402-.413 1.208-.987v-.575l.1-.074Z" fill="#B23C45"/>
        <path d="m49.49 41.505.003.673-1.057.544.415.373 2.708.865-1.704.993-1.419-.578.1.57c.07.425.104.724.104.898 0 .364-.64 1.25-.64 1.25l-1.21-2.514h.163l.248-.993a4.43 4.43 0 0 0 .023-.109l.03-.224c.067-.317.435-1.232 2.092-1.474.04-.087.088-.18.143-.274Z" fill="#8A2D38"/>
        <path d="M56.045 44.772c.637.684 1.036 1.127 1.195 1.328l-3.467 5.954a796.794 796.794 0 0 1-4.805-4.138c-.171-.15-.524.019-1.057.508L46.868 47c3.089-2.244 4.944-3.453 5.566-3.628.933-.261 2.654.372 3.61 1.399Zm-3.098.504c-.855 0-2.69 1.889-2.69 2.196 0 .308 2.399 2.196 3.039 2.196.589 0 1.205-2.806 1.3-3.255l.013-.06s-.807-1.077-1.662-1.077Z" fill="#8E1323"/>
        <path d="M56.134 44.18c.638.684 1.036 1.127 1.196 1.328l-3.467 5.954a796.798 796.798 0 0 1-4.806-4.138c-.171-.15-.523.019-1.057.508l-1.043-1.423c3.09-2.244 4.945-3.453 5.566-3.628.933-.261 2.655.372 3.611 1.399Zm-3.098.504c-.854 0-2.69 1.889-2.69 2.196 0 .308 2.4 2.196 3.04 2.196.588 0 1.205-2.806 1.3-3.255l.012-.06s-.807-1.077-1.662-1.077Z" fill="#B5283A"/>
        <path d="m55.443 43.588.184.135c-.547-.13-2.121-.75-2.64-.72-.345.02-.8.094-1.366.22.413-.241.714-.389.902-.442.737-.206 1.965.145 2.92.807Z" fill="#DA6776"/>
        <path d="m61.584 35.23.007.046 2.412.559c3.06.718 5.497 1.33 7.307 1.837l1.733.488c.409.113.796.218 1.164.314l1.228.307c1.406.327 2.478.494 3.346.494 1.505 0 2.303 2.323 1.721 2.943.217.473.328 1.422.334 2.847l.197.248-.384 3.034c-1.004 7.654-1.861 11.8-2.573 12.438-.807.724-6.176 1.877-16.105 3.461l-2.802.44-.361.033a7.786 7.786 0 0 1-1.87-.77c-5.475-2.429-6.67-6.19-4.041-11.517l.228-.447c2.92-5.564 2.406-8.942 2.406-10.613 0-1.671-.188-3.72.645-5 .62-.955 3.406-1.12 5.408-1.142Z" fill="#6E373F"/>
        <path d="m74.207 38.474 1.228.307c1.406.327 2.478.494 3.346.494 1.505 0 2.303 2.323 1.721 2.943.217.473.328 1.422.334 2.847l.197.248-.384 3.034a197.78 197.78 0 0 1-.74 5.175c-1.855 2.05-4.3 3.837-6.182 5.283-2.234 1.717-8.34 4.184-12.592 5.572l-1.966.308-.361.034a7.786 7.786 0 0 1-1.87-.77c-5.475-2.429-6.67-6.19-4.041-11.517l.228-.447a24.666 24.666 0 0 0 1.401-3.162c.274 3.023.633 6.076 5.158 5.796 4.837-.3 9.849-4.325 12.114-8.642 1.365-2.602 2.03-5.14 1.992-7.614l.417.11Z" fill="#63343B"/>
        <path d="m61.584 35.23.007.046 2.412.559c3.06.718 5.497 1.33 7.307 1.837l1.733.488c.409.113.796.218 1.164.314l1.228.307c1.406.327 2.478.494 3.346.494 1.493 0 2.29 2.284 1.736 2.927-2.195.946-10.32-1.85-16.501-3.487-4.123-1.091-6.92-1.018-8.39.22a7.332 7.332 0 0 1-.077-.313c.062-.843.227-1.635.627-2.25.62-.955 3.406-1.12 5.408-1.142Z" fill="#804D54"/>
        <path d="m61.06 35.24.524-.01.007.046 2.412.559c3.06.718 5.497 1.33 7.307 1.837l1.733.488c.409.113.796.218 1.164.314l1.228.307c1.406.327 2.478.494 3.346.494 1.491 0 2.288 2.28 1.738 2.925l-.181-.054c-2.303-.9-3.857-1.247-4.737-1.607l-.192-.084c-1.427-.673-7.016-2.308-9.315-2.877l-1.122-.263c-2.186-.495-5.584-1.159-7.055-.529-1.386.594-1.963 1.812-2.403 2.974l.006-.553.026-.546.047-.489.027-.19.078-.419.041-.166.052-.182.06-.177c.085-.238.192-.462.325-.667l.138-.167.09-.08.14-.102.19-.109.262-.118.291-.102.303-.086.36-.082.492-.086.438-.06c.381-.044.777-.077 1.17-.1l1.01-.04Z" fill="#521B26"/>
        <path d="m61.584 35.23.007.046 2.412.559 2.365.564c1.978.48 3.625.905 4.942 1.273l1.733.488 1.164.314 1.228.307c1.406.327 2.478.494 3.346.494.796 0 1.394.65 1.695 1.353-.546-.386-1.603-.814-1.961-.839l-.25-.03c-.81-.117-3.106-.537-4.684-.954l-1.108-.3c-2.88-.746-10.726-2.598-12.945-2.673-1.47-.05-2.722.434-3.759 1.451l.081-.245c.086-.238.193-.462.326-.667l.138-.167.09-.08.14-.102.19-.109.262-.118.291-.102.303-.086.36-.082.492-.086.438-.06c.381-.044.777-.077 1.17-.1l1.01-.04.524-.009Z" fill="#925965"/>
        <path d="m80.84 45.07 1.132 1.41 1.495 4.425.516.987v1l.465 1.369v1.919l-.465.92.465 1.23-.465.681v.866l-.516.965-.231.858-22.644 1.553c3.582-2.277 6.466-4.11 8.65-5.5 3.278-2.085 9.066-6.088 9.86-7.309.45-.691 1.096-2.267 1.734-5.356l.004-.019Z" fill="#D9D9D0"/>
        <path d="M46.899 44.577c.913 2.27 3.216 5.846 3.766 6.418.625.651.108 2.398-.237 3.255-.322.8-.757 4.073-.639 5.384l.033.256c.203 1.153-.934 1.584-2.076 1.118l-1.068-.44c-1.849-.884-5.873-3.018-7.4-4.184-1.082-.825-2.03-2.299-3.069-4.49l-.254-.972.023-.017v-.575l1.063-.762.453.301.794-.858h.285l1.12-1.472 3.43-1.622 2.871-.852.127-.486.778-.002Z" fill="#821C21"/>
        <path d="M46.9 44.579c.913 2.27 3.216 5.844 3.765 6.416.625.651.055 2.415-.29 3.272-.346.857-.734 4.045-.531 5.197.202 1.153-1.093 1.384-2.235.918-1.142-.465-6.577-3.29-8.334-4.63-1.17-.894-2.317-2.59-3.437-5.087l.116.257c.008-.005.016-.01.024-.017v-.575l1.063-.762.453.301.794-.858h.285l1.12-1.472 3.43-1.622 2.871-.852.127-.486Z" fill="#C15157"/>
        <path d="M45.979 45.069c.77 1.915 2.296 4.354 2.84 4.912.628.644 1.691 1.637-1.628 2.42-3.32.783-8.358.09-9.135-.42-.518-.34-.72-1.006-.607-2l-.094-.204.14.092.793-.858h.285l1.12-1.472 3.43-1.622Z" fill="#8B1E23"/>
        <path d="M45.795 45.125c.454 1.847 1.977 4.164 2.521 4.721l.211.219c.595.635 1.31 1.62-1.759 2.108-3.281.521-7.635.088-8.412-.421-.46-.302-.832-.657-.794-1.476l-.113-.295-.095-.205.14.093.794-.858h.285l1.12-1.472 3.43-1.622 2.672-.792Z" fill="#AE3E43"/>
        <path d="M49.365 53.063a.4.4 0 1 1 .256.758c-2.582.874-5.982 1.134-10.205.785a.4.4 0 0 1 .066-.797c4.122.34 7.418.089 9.883-.746ZM49.226 54.413a.4.4 0 0 1 .24.763c-2.812.889-5.628 1.22-8.444.992a.4.4 0 0 1 .064-.797c2.712.219 5.425-.1 8.14-.958ZM48.956 55.929a.4.4 0 0 1 .202.774 24.133 24.133 0 0 1-6.098.793.4.4 0 1 1 0-.8c1.965 0 3.93-.256 5.896-.767ZM48.936 57.325a.4.4 0 0 1 .242.762 15.764 15.764 0 0 1-3.436.68.4.4 0 0 1-.069-.798 14.964 14.964 0 0 0 3.263-.644ZM48.972 58.646a.4.4 0 0 1 .27.745l-.1.037-1.242.27a.4.4 0 0 1-.27-.746l.1-.037 1.242-.269Z" fill="#9A292F" fill-rule="nonzero"/>
        <path d="M36.01 50.563c.14.643.212 1.15.212 1.522 0 .557-.61 3.016-2.317 3.457-1.707.442-2.616-2.313-2.645-2.643-.294.269-1.699 2.62-2.121 3.14-.422.52-2.354.454-2.688-.333-.13-.309-.206-.838-.039-1.501a.427.427 0 0 0 .133-.081c.264-.728.68-1.139 1.249-1.232a2.796 2.796 0 0 1 1.68.251c1.024-1.207 1.965-1.81 2.82-1.81.856 0 1.575.186 2.156.559.213.084.32.084.32 0s.402-.413 1.208-.987v-.314l.031-.028Zm22.124-12.66c.804 0 1.472.897 1.472 1.191 0 .294-.6.662-1.048.662-.42 0-2.204-.31-2.885-.35l-.12-.004H52.77c3.268 2.462 5.14 3.903 5.617 4.324.714.63.619 1.127.619 1.329 0 .201-.882-.03-1.677-.37-.51-.22-1.939-1.198-4.284-2.936l-.275-.204h-1.826c.288 1.454.753 2.5 1.395 3.14.642.638 1.03 1.195 1.164 1.67-.187.598-.431.844-.733.737-.452-.16-1.826-1.392-2.729-2.892-.605-1.006-.711-1.965-.598-2.615.268-.485.752-1.038 1.087-1.038h.794c-.043-.27-.097-.462-.161-.578a1.675 1.675 0 0 1-.094-.206 2.306 2.306 0 0 1 .094-.99c.2-.19.431-.347.695-.472.337-.058.663-.019.663-.019s0-.6.416-.6 4.392.22 5.196.22Z" fill="#8D3741"/>
        <path d="M26.57 57.706c.279-1.754.534-2.69.766-2.807.232-.118.64-.118 1.226 0l.49 2.807H26.57ZM32.794 57.341c.111-1.08.167-1.923.167-2.53 0-.912-.318-1.555-.084-1.733.157-.12.742-.383 1.757-.791.135.994.202 1.6.202 1.815 0 .324.183 2.91.183 3.056 0 .098-.742.159-2.225.183Z" fill="#B12B38"/>
        <path d="m56.283 30.054-.534.995h.82l-.82.951-.19.6-1.054.965v1.06l-1.082 2.46v.597h-1.228l.473-1.031c.562-1.244 1.102-2.49 1.619-3.738a22.177 22.177 0 0 1 1.616-3.177c.11.09.236.196.38.318Z" fill="#E4E7E3"/>
        <path d="M56.079 50.665c.312.195-.399 4.492 1.973 5.285 2.372.792 13.29-6.232 16.702-8.58 3.412-2.347 4.14-3.42 4.427-3.15.287.269-.426 1.264-3.776 4.136-3.35 2.873-11.866 9.71-14.146 11.155-2.28 1.445-6.22 2.22-7.308-.875-1.088-3.094 1.816-8.166 2.128-7.971Z" fill="#E7E6EB"/>
        <path d="M55.092 53.922c.212.1.188 2.55 2.937 3.042 2.749.492 13.501-7.021 16.914-9.369 3.412-2.347 3.996-3.573 4.238-3.376.243.197-.683.915-4.033 3.788-3.35 2.872-11.236 8.902-13.515 10.347-2.28 1.446-5.51 2.268-6.64.406-1.132-1.862-.112-4.939.1-4.838Z" fill="#CECCD6"/>
        <path d="m80.738 46.332.262.548h.422l1.266 3.302-.321 1.077.69 1.219.436-1.016-.004.691c-.017 1.277-.088 1.915-.213 1.915-.146 0-.287.083-.422.248l-1.6-3.24-.444.183 1.413 2.969c.42.906.63 1.399.63 1.478l.047.62c.06.696.157 1.711.157 1.711l-2.66-5.56h-.835l1.86 4.93-.169 1.062-2.358-5.295h-.771v.725l1.115 3.508v1.062l-1.887-4.401-.42.248.583 2.39v1.763l-1.355-3.57-.655.417-.278 1 .626 2.153-.626-.432-1.094-1.897-.59.897v2l-.522-.568-.472-1.432-.514.669-.352 1.6-.714-1.6-.87.54-.482 1.663-.507-1.215-.751.478-.704 1.436-.245-1.08-3.394 1.549 5.227-3.324c3.277-2.085 9.065-6.088 9.859-7.309.37-.569 1.01-2.086 1.636-4.112Z" fill="#CBC8BC"/>
        <path d="M86 64.946c-.365-1.147-.882-1.96-1.552-2.439-1.005-.718-.494-1.371-1.288-1.73-.793-.36-5.853-1.814-11.74-.907-5.885.907-11.72 3.32-14.484 3.663-2.765.344-10.907-1.035-11.992-1.272-1.1-.538-4.051-2.09-8.102-1.056-1.618-.027-8.03 1.302-9.966 1.302-1.934 0-9.787-.358-12.085-1.044-1.532-.458-2.515-.989-2.95-1.593.124-.807.124-1.266 0-1.375-.184-.164-.563-.362-.804 0-.241.362-1.037 1.979-1.037 2.71 0 .73.31 5.606 7.97 8.407 3.808 1.391 8.032 2.394 13.05 2.39L36.222 72c8.216-.517 15.121-.776 20.714-.776 8.39 0 9.867.774 16.085.776 6.218.002 9.875-2.27 11.427-3.596C85.483 67.52 86 66.367 86 64.946Z" fill="#D7D5DB"/>
        <path d="m85.442 63.653.083.143c.18.336.338.72.475 1.15 0 .507-.066.98-.197 1.418-.778.08-1.82.094-3.122.042-.6-3.196.32-4.113 2.76-2.753Z" fill="#E7E5EB"/>
        <path d="M10.858 58.806c.164.338.272.836.326 1.493.146 1.804.973 1.939 3.705 2.954 2.731 1.016 8.804 1.111 12.283 1.894 3.478.782 3.788 0 4.567-.413.565-.299 3.635-2.503 5.811-3.687 3.686-.695 6.36.708 7.394 1.214l.022.005c1.31.628 2.923 1.437 4.938 2.468a47.77 47.77 0 0 0 14.354 4.699c1.058-.968 2.11-1.452 3.159-1.452 1.571 0 8.203-.74 12.55-1.382 2.398-.354 4.372-1.011 5.924-1.971.038.102.074.208.109.318 0 1.42-.517 2.574-1.552 3.458-1.552 1.327-5.21 3.598-11.427 3.596-6.218-.002-7.696-.776-16.085-.776-5.593 0-12.498.259-20.714.776l-4.14.001H31.02c-5.018.005-9.242-.998-13.05-2.39-7.66-2.8-7.97-7.675-7.97-8.406 0-.56.465-1.636.792-2.274Z" fill="#CDCCD2"/>
        <path d="M12.37 60.386c.534.396 1.341.755 2.42 1.077 2.3.686 10.152 1.044 12.086 1.044 1.935 0 8.348-1.33 9.966-1.302 4.05-1.033 7.003.518 8.102 1.056 1.085.237 9.227 1.616 11.992 1.272 1.871-.232 5.15-1.413 8.897-2.433 8.153.415 14.632.746 15.117.89 1.154.34-1.439.677-4.642 1.263-10.464 1.975-14.834 2.001-20.894 2.328-6.06.326-8.36.242-18.773.046-10.412-.195-18.309-.176-21.39-.908-2.055-.488-3.423-1.849-4.105-4.082.306-.065.611-.129.916-.19Z" fill="#E9E8EC"/>
        <path d="m65.833 61.1 12.226.652c1.666.102 2.708.183 2.891.237 1.154.341-1.439.678-4.642 1.264l-1.892.348c-6.692 1.196-10.733 1.538-14.652 1.756l-4.35.224c-2.052.11-3.672.173-5.323.201L44.27 62.05l-.57-.36c.537.218.955.43 1.245.572l.55.107c2.162.397 8.963 1.473 11.442 1.165 1.871-.232 5.149-1.413 8.897-2.433Z" fill="#C9C8D0"/>
        <path d="M71.42 59.87c5.887-.907 10.947.547 11.74.907.44.198.48.487.597.826l.43.068c-1.994-.326-3.799-.54-5.413-.644-2.421-.154-7.049.054-9.487.322l-.668.083c-1.553.205-4.4.658-8.54 1.357l1.477-.439c2.837-.855 6.342-1.937 9.865-2.48Z" fill="#EEEEF1"/>
        <path d="M37.566 61.417c-3.78.556-6.486.958-8.116 1.205-.863.131-1.605.317-3.25.293-3.014-.045-7.43-.45-9.658-.733-3.445-.439-4.524-1.706-4.766-1.984-.078.486-.066 1.352.385 1.682.45.33 2.88 1.19 3.966 1.48 1.085.29 6.638.984 8.093 1.104a24.79 24.79 0 0 1 3.248.482c.552.127 2.633.879 4.62-.454 1.324-.89 3.15-1.914 5.478-3.075Z" fill="#BABAC4"/>
        <path d="M10.858 58.806c.164.338.272.836.326 1.493.146 1.804.973 1.939 3.705 2.954 2.731 1.016 8.804 1.111 12.283 1.894 3.478.782 3.788 0 4.567-.413.565-.299 3.635-2.503 5.811-3.687 3.686-.695 6.36.708 7.394 1.214l.022.005c1.31.628 2.923 1.437 4.938 2.468a47.77 47.77 0 0 0 14.354 4.699c1.058-.968 2.11-1.452 3.159-1.452 1.571 0 8.203-.74 12.55-1.382 2.398-.354 4.372-1.011 5.924-1.971.038.102.074.208.109.318 0 1.42-.517 2.574-1.552 3.458-1.552 1.327-5.21 3.598-11.427 3.596-6.218-.002-7.696-.776-16.085-.776-5.593 0-12.498.259-20.714.776l-4.14.001H31.02c-5.018.005-9.242-.998-13.05-2.39-7.66-2.8-7.97-7.675-7.97-8.406 0-.56.465-1.636.792-2.274Z" fill="#CDCCD2"/>
        <path d="M27.866 70.618c11.528.301 17.084-.254 20.837-.605 3.752-.35 9.666-.33 13.515.139 3.849.468 12.388 1.085 15.097.476 2.405-.54 6.45-2.534 8.423-4.066a4.281 4.281 0 0 1-1.29 1.842c-1.552 1.327-5.21 3.598-11.427 3.596-6.218-.002-7.696-.776-16.085-.776-5.593 0-12.498.259-20.714.776h-2.84l-1.3.001H31.02c-5.018.005-9.242-.998-13.05-2.39-3.937-1.44-5.933-3.427-6.942-5.119 4.193 3.9 9.806 5.942 16.838 6.126Z" fill="#A6A5B0"/>
        <path d="m44.944 62.261.02.005 1.936.948c.889.442 1.884.947 3.004 1.52.721.37 1.448.72 2.18 1.05l-2.695-.776a22.488 22.488 0 0 1-1.262-.41l-.888-.336c-1.772-.646-5.817-2.037-7.267-2.228-1.755-.232-4.017 1.108-5.632 1.886-.918.442-2.075.887-3.473 1.334.265-.118.458-.264.662-.395l.45-.268c.928-.585 3.606-2.474 5.564-3.54 3.69-.7 6.366.703 7.4 1.21Z" fill="#EDECEC"/>
        <path d="M14.675 63.388c2.571.956 7.85 1.224 11.57 1.712l.64.131c3.333.75 4.28.052 4.994-.37l.096-.053c.564-.299 1.815-1.396 3.617-2.297 1.802-.902 1.724-.88 2.656-1.006.932-.126 2.516.097 3.204.216l.501.099.525.13.288.084.328.104.434.156.124.048c.136.053.267.107.39.16l.56.256c.165.079.309.15.43.21l.02.004 1.722.695c.889.443 1.782.745 2.902 1.318.686.351 1.299.696 2.173.917l-1.876-.117c-1.196.018-2.413.02-3.826.006l-19.49-.333c-5.403-.106-9.413-.266-11.407-.74-1.926-.457-3.248-1.681-3.968-3.673l-.136-.408.074-.015c.222 1.501.896 1.815 3.455 2.766Z" fill="#BDBBC2"/>
        <path d="M21.166 66.8c3.504.19 12.258.426 19.823-.192a.8.8 0 0 1 .863.733c.035.44-.234.834-.733.862-6.875.381-12.883.55-18.71 0-5.825-.55-6.134-.968-6.06-1.404.066-.38.344-.381.716-.393.397.135 1.764.266 4.1.393Z" fill="#93939E" fill-rule="nonzero"/>
        <path d="M77.02 60.148c2.574.186 4.689.434 6.343.745.436.324.253.812.78 1.355l.044-.01c-.876.327-4.863.682-11.809 1.536l-2.534.31c-7.61.863-15.618 1.419-15.454.936.17-.505 2.065-.876 3.988-1.345l1.529-.38c3.59-.916 4.845-1.395 5.693-1.63l1.232-.32c2.274-.57 6.407-1.47 10.188-1.197Z" fill="#CDCDD4"/>
        <path d="M76.308 63.253a.296.296 0 0 1-.1.063c-1.156.135-2.433.286-3.83.458l-2.534.31-.714.08c-7.384.814-14.823 1.283-14.664.816.171-.505 1.989-.836 3.912-1.305l1.529-.38c.516-.132.984-.255 1.41-.37 2.088-.318 4.056-.534 4.979-.6 1.595-.112 10.256.62 10.012.928Z" fill="#E8E7EB"/>
        <path d="M76.188 63.808c-.414.285-5.533 1.263-7.664 2.04-2.13.778-4.158 3.147-4.137 2.062.02-1.085-.063-.938-2.598-1.075-2.535-.138-9.11-.08-7.553-.744 1.556-.665 7.541-.69 12.534-1.251 4.993-.561 9.833-1.316 9.418-1.032Z" fill="#DEDCE2"/>
        <path d="M85.89 64.628c.039.102.075.208.11.318 0 .094-.002.187-.007.278-.724.632-1.896 1.144-3.514 1.536-3.852.93-10.395 1.696-13.19 1.836-2.795.14-3.145.347-3.56.654-.413.306-.94 1.038-1.227 1.015-.287-.023-3.099-.581-5.693-1.45-1.73-.578-4.635-1.76-8.715-3.543v-.443l.533.268a47.702 47.702 0 0 0 13.63 4.336c1.059-.968 2.112-1.452 3.16-1.452 1.571 0 8.203-.74 12.55-1.382 2.398-.354 4.372-1.011 5.924-1.971Z" fill="#E0DFE4"/>
    </g>
</svg>
