<svg width="96" height="96" xmlns="http://www.w3.org/2000/svg">
    <defs>
        <path id="a" d="M0 0h96v96H0z"/>
    </defs>
    <g fill="none" fill-rule="evenodd">
        <path d="M73.938 37.338c.481.094.947.134 1.397.118.675-.023 3.466-.2 4.785-.327s2.23-.129 2.48 0c.252.128.807.463.788.9-.018.436.075.158.216.52.141.36.788.184.391.645-.396.462-.295.313-.191.925.104.612.027.27-.2.79-.226.521-.52-.161-.388.555.131.715.537.952.474 1.319-.063.367-.368.497-.302 1.012.066.514.337.981.416 1.063.079.083.55-.1.675.455.124.557.414.664.2 1.386-.214.721-.064.737 0 1.157.064.42-.091 1.076-.2 1.541-.11.465-.082 1.016-.675 1.02-.594.003-6.25.88-6.975.593-.726-.285-1.972-.809-2.059-2.18-.087-1.372-.104-5.378-.123-6.483-.019-1.105-.033-3.038-.709-3.562-.45-.349-.45-.831 0-1.447Z" fill="#C6C6CA"/>
        <path d="M76.649 44.05c1.174-.286 4.16-.083 6.826.127.106.347.27.62.329.681.079.083.55-.1.675.455.124.557.414.664.2 1.386-.214.721-.064.737 0 1.157.038.252-.002.589-.064.918l-.136.623c-.11.465-.082 1.016-.675 1.02l-.299.023c-1.327.136-6.02.829-6.676.57l-.338-.138c-.72-.314-1.646-.867-1.72-2.042-.056-.877-.083-2.83-.1-4.413l1.108-.186c.274-.049.564-.106.87-.18Z" fill="#BBBBBF"/>
        <path d="M83.804 44.858c.079.083.55-.1.675.455.124.557.414.664.2 1.386-.2.673-.082.732-.014 1.077-.171.196-.355.343-.532.321l-.273-.018c-1.162-.058-5.384-.175-5.804-.255-.47-.09.346-.25 1.122-.306.776-.055 3.605.333 4.507.306.601-.019.825-.237.673-.654l.1-.82c.003-.03.007-.053.01-.07.029-.163-.347-.493-.507-.64-.16-.146-1.51.106-2.405.225-.795.105-2.11-.214-3.252-.4l-.419-.064c-1.165-.156.48-.356 1.63-.325l1.638.063c1.106.03 2.29.03 2.496-.085.045-.025.078-.12.102-.264l.053.068Zm-4.83-5.607.204.006 1.042.067c.706.054 1.378.117 1.667.14.315.024 1.335.29 1.886.48l.031.175c.095.56.039.321-.145.675-.15-.503-1.094-.79-1.475-.99-.302-.16-2.12-.268-3.26-.315l-.868-.026c-.45-.001.058-.219.918-.212Z" fill="#D8D8DC"/>
        <path d="M75.51 44.82c.104 2.099.486 3.533 1.197 3.98 1.067.672 4.893.657 5.778.34.507-.182 1.242-.532 2.204-1.05l-.01-.234c.038.252-.002.589-.064.918l-.136.623c-.11.465-.082 1.016-.675 1.02l-.299.023c-1.327.136-6.02.829-6.676.57l-.338-.138c-.72-.314-1.646-.867-1.72-2.042l-.03-.598c-.033-.923-.053-2.3-.067-3.519.376-.013.294.047.836.108Z" fill="#9F9FA5"/>
        <path d="m82.6 37.129.232.133c.261.169.57.439.556.766-.018.437.075.16.216.52.11.28.523.237.518.419l-.058.014-.478-.102c-.086-.021-.187-.047-.314-.082l-.466-.134c-.84-.25-1.765-.371-2.189-.249l-.618.197c-.402.117-.864.205-1.214.052-.49-.214-1.016-.298-1.265-.268l-.238.056c-.253.049-.778.12-1.575.212l-.656-.146-.39-.103c-.17-.054-.522-.114-1.056-.18-.026-.259.086-.557.333-.896.481.094.947.134 1.397.118l2.15-.125a147.78 147.78 0 0 0 1.62-.116l1.692-.143c.951-.067 1.598-.049 1.804.057Z" fill="#D7D7DC"/>
        <path d="M74.677 39.463c1.083.34 1.956.515 2.616.523l1.293.032c1.12.042 2.401.133 2.444.332.042.193.464.388 1.267.584.336.15.633.235.89.254-.006.047.003.134.029.276.131.715.537.952.474 1.319-.063.367-.368.497-.302 1.012.066.514.337.981.416 1.063.024.025.083.026.157.03a.831.831 0 0 1-.594.327l-.367.022c-1.29.044-4.844-.002-5.163-.022-.36-.022-1.473.114-1.804.293-.331.18-.8.254-.812-.293l-.042-.61c-.073-.87-.24-2.585-.502-5.142Z" fill="#9F9FA5"/>
        <path d="M77.04 42.287c-.538-.315.159-.213.848 0 .591.183 1.216.146 2.067.218l.444.047c1.085.136 1.774.084 2.626.382l.442.148.098.028c-.106.178-.22.35-.177.685.028.213.09.418.16.591-.287-.265-.638-.709-.927-.985-.335-.32-1.006-.292-1.883-.414l-.339-.053c-1.043-.189-2.821-.332-3.359-.647Zm-2.363-2.824c1.083.34 1.956.515 2.616.523l1.293.032.784.038c.86.052 1.627.14 1.66.294.042.193.464.388 1.267.584.336.15.633.235.89.254-.006.047.003.134.029.276.062.341.188.574.295.763a1.962 1.962 0 0 0-.486-.458c-.348-.206-2.196-.218-3.284-.31l-.254-.026c-.95-.109-3.49-.505-4.585-1.417l-.187-.18-.038-.373Z" fill="#939398"/>
        <path d="M11.916 62.198c.455-1.602 1.073-2.652 1.854-3.15 1.172-.747 6.428-1.546 8.301-1.904 1.873-.358 4.86-1.185 6.942-1.83 2.081-.645 11.635-4.573 15.682-6.469 4.047-1.896 8.272-4.553 9.988-7.095 1.715-2.542 2.625-5.016 3.244-5.866.618-.85 2.406-2.576 2.91-2.576.505 0 1.192.71 1.554 1.02.24.207.472.585.693 1.134.326.565.63.903.91 1.014.42.167 1.617-.069 2.236.182.62.251 3.124 1.002 5.131.837 2.007-.165 2.303-.157 2.577-.157.275 0 1.104 1.58 1.403 3.552.3 1.971.14 7.362.317 7.955s.849 1.482 3.005 1.482c2.157 0 4.846-.476 5.104-.476s.829-1.006.829-1.006.028 1.606.163 2.13c.135.524.502 3.387.546 4.182.043.796.392 1.87.392 2.843 0 .974.069 4.135-.392 6.123-2.433.457-24.27 1.365-31.266 1.363-6.996-.003-31.036-1.145-33.754-1.363-1.811-.146-4.601-.787-8.369-1.925Z" fill="#F4F4F5"/>
        <path d="M75.658 48.845c.177.593.849 1.482 3.005 1.482 2.157 0 4.846-.476 5.104-.476s.829-1.006.829-1.006l.031.869c.02.389.052.824.1 1.11l.032.151c.135.524.502 3.387.546 4.182.043.796.392 1.87.392 2.843l.002 1.451c-.01 1.384-.077 3.305-.394 4.672-2.256.424-21.197 1.235-29.517 1.35l-1.75.013c-6.995-.003-31.035-1.145-33.753-1.363-1.811-.146-4.601-.787-8.369-1.925.455-1.602 1.073-2.652 1.854-3.15.557-.355 2.039-.722 3.64-1.048 1.557.791 3.69 1.155 6.396 1.093 5.595-.126 15.152-1.63 21.258-6.818 1.499-1.274 2.653-3.277 3.68-5.574 2.56-1.53 26.737 1.551 26.914 2.144Z" fill="#EAEAEE"/>
        <path d="M62.39 34.328c.242.207.473.585.694 1.134l.035.055-.225-.034c-.23-.022-.644-.231-1.14.087-.495.318-.772.702-1.445.914-.45.14-.948.4-1.496.777.03-.213.295-.71.793-1.49.634-.992 1.939-1.645 2.404-1.788l.38.345Z" fill="#234C4F"/>
        <path d="M64.267 38.238c2.66 1.344 3.409 2.837 6.097 2.811 1.727-.016 3.443-.69 4.786-1.117.075.304.14.625.191.958.3 1.971.14 7.362.317 7.955s.849 1.482 3.005 1.482c2.157 0 4.846-.476 5.104-.476s.829-1.006.829-1.006l.031.869c.02.389.052.824.1 1.11l.075.35c-2.505.673-7.097 1.268-11.201.707-4.658-.637-10.028-4.487-9.334-2.484.693 2.003 6.262 4.755 10.41 4.639l1.167-.038c2.442-.088 5.538-.251 9.288-.491l.125 1.087c.023.233.04.428.048.563.043.796.392 1.87.392 2.843l.002 1.451c-.01 1.384-.077 3.305-.394 4.672-2.256.424-21.197 1.235-29.517 1.35l-1.75.013c-6.995-.003-31.035-1.145-33.753-1.363-1.811-.146-4.601-.787-8.369-1.925.455-1.602 1.073-2.652 1.854-3.15.317-.202.933-.408 1.7-.608.215.929 1.477 2.053 4.922 2.386 6.048.585 10.213.352 15.437-.55 5.223-.901 8.03-4.121 11.161-8.279l.424-.541c3.63-4.49 14.3-14.507 16.853-13.218Z" fill="#E1E1E5"/>
        <path d="m69.884 41.056.225-.009.255.002c1.727-.016 3.443-.69 4.786-1.117.075.304.14.625.191.958.3 1.971.14 7.362.317 7.955.095.32.334.724.87 1.03-.104.257-.224.414-.357.446-1.11.272-4.535.395-7.185-.924-2.65-1.319-6.47-1.965-4.904.087.225.294.506.591.833.883 1.735 1.816 6.256 3.767 9.762 3.669l1.167-.038 1.451-.058c1.015-.044 2.122-.098 3.322-.164l-.233.123c-2.5 1.186-7.858 2.537-10.465 2.473-2.608-.065-5.403-1.044-6.8-2.336-1.398-1.292-2.093-4.78-3.888-4.957-1.796-.178-7.013.664-5.01-1.079 2.005-1.743 6.663-4.801 7.677-6.735.89-1.698 1.897-2.872 3.237-2.548.693.415 1.248.825 1.777 1.183l.412.27c.626.505 1.335.92 2.56.886Z" fill="#D8D8DB"/>
        <path d="M14.644 61.108c2.41.898 14.208 2.769 23.857 2.753 9.65-.015 16.366-.34 25.886.054 4.074.168 7.564.47 10.47.904l-5.074.224c-5.193.212-10.52.382-13.995.43l-1.75.013c-6.995-.003-31.035-1.145-33.753-1.363-1.811-.146-4.601-.787-8.369-1.925.24-.842.524-1.531.853-2.069.455.356 1.08.682 1.875.979Z" fill="#CFCFD5"/>
        <path d="M63.873 40.746c1.114-1.755.727.603 3.977 1.276s5.062-.3 6.828-.652c.218-.044.446-.045.685-.004l.048.43c.206 2.287.085 6.508.247 7.05.032.106.08.222.149.34l-.062.023c-1.872.605-3.555.551-5.932-.687-2.376-1.238-2.74-2.197-4.874-1.93-2.133.266-2.481 1.782-2.045 2.642.436.86 4.46 3.861 6.721 4.367 2.261.506 12.63-.324 10.939.698-1.691 1.022-10.648 1.784-12.992.737-2.344-1.048-4.575-3.441-6.024-5.173-1.45-1.731-2.619-1.35-4.85-1.635l-.407-.068c-1.458-.325.897-1.035 2.309-1.923 1.107-.696 2.588-1.165 3.895-2.761.407-.498 1.123-2.313 1.388-2.73Z" fill="#CCCCCF"/>
        <path d="m85.132 53.507.125 1.087.037.41c.005.057.008.108.01.153.044.796.393 1.87.393 2.843l.002 1.451c-.01 1.384-.077 3.305-.394 4.672l-.293.045c-2.219.295-11.233.742-19.297 1.031 3.743-1.595 7.13-4.551 10.163-8.869.473-.674 6.938-2.675 9.254-2.823Z" fill="#CECECE"/>
        <path d="m85.132 53.507.125 1.087.048.563c.043.796.392 1.87.392 2.843l.002 1.451c-.01 1.384-.077 3.305-.394 4.672l-.293.045-.964.102c-1.98.178-5.743.391-10.018.589 4.952-2.326 7.862-5.972 8.731-10.938l.781-.173a12.299 12.299 0 0 1 1.59-.241Z" fill="#C2C2C2"/>
        <path d="m85.132 53.507.125 1.087.048.563c.043.796.392 1.87.392 2.843l.002 1.451c-.01 1.384-.077 3.305-.394 4.672l-.293.045-.964.102-1.167.094-.452.033.034-.11c.911-2.627 1.407-6.167 1.487-10.618.455-.085.859-.141 1.182-.162Z" fill="#B9B9B9"/>
        <path d="M63.994 36.476c.079.032.185.049.31.058l-.216.248c.127.08.298.117.512.111l.487-.006c.283.003.61.02.909.075.498.094 1.94.84 2.876.926.936.085 5.03-.005 5.374 0l.153.012c.342.627.75 1.728.942 2.99.3 1.971.14 7.362.317 7.955s.849 1.482 3.005 1.482c2.157 0 4.846-.476 5.104-.476s.829-1.006.829-1.006l.031.869c.02.389.052.824.1 1.11l.032.151c.135.524.502 3.387.546 4.182.043.796.392 1.87.392 2.843l.002 1.451c-.01 1.384-.077 3.305-.394 4.672L85 64.17l-.019.227.086-1.235c.234-3.55.27-5.725.107-6.525-.271-1.333-.743-5.209-.824-5.57a2.032 2.032 0 0 0-.286-.673l-1.707.265c-2.302.342-3.89.51-4.766.502-1.617-.014-3.114-.987-3.11-3.653l.002-3.045c-.01-1.902-.056-3.7-.237-4.421a11.13 11.13 0 0 0-.645-1.917l-1.09.048c-1.716.064-2.929.048-3.639-.048-1.278-.174-2.321-1.11-3.157-1.092a42.35 42.35 0 0 1-1.73 0l-.36-.251.369-.306Z" fill="#BABABF"/>
        <path d="M55.507 48.564c-.108.464-1.972 6.118 2.486 6.819 4.459.7 13.006-.159 16.354-.891 3.348-.733 9.786-2.534 9.846-2.613.04-.052.04-.238 0-.558.342 1.42.53 2.28.562 2.578.034.298.04.698.021 1.199-7.075 3.098-12.5 5.013-16.276 5.743-5.663 1.095-14.552 2.595-18.585.529-4.033-2.066-3.862-5.613-2.417-7.88 1.444-2.267 5.744-4.462 6.46-4.934.715-.473 1.657-.457 1.549.008Z" fill="#09201D"/>
        <path d="M55.297 48.623c-.108.464-1.92 6.207 2.538 6.908 4.458.701 13.206-.17 16.554-.903 3.348-.733 9.744-2.67 9.804-2.749.04-.052.04-.238 0-.558.342 1.42.53 2.28.562 2.578.034.298.034.631 0 1-7.074 3.098-12.5 5.013-16.275 5.743-5.664 1.095-14.404 2.653-18.438.587-4.033-2.066-3.821-5.474-2.377-7.74 1.445-2.268 5.615-4.246 6.33-4.719.716-.472 1.41-.611 1.302-.147Z" fill="#1C776A"/>
        <path d="m55.297 48.623-.173.682c-.38 1.652-.961 5.649 2.71 6.226 4.281.673 12.514-.103 16.128-.815l.427-.088c3.348-.733 9.744-2.67 9.804-2.749.04-.052.04-.238 0-.558l.312 1.327c.146.644.23 1.061.25 1.25.034.299.034.632 0 1-6.767 2.965-12.025 4.845-15.774 5.642l-.501.102c-5.664 1.095-14.404 2.653-18.438.587-.783-.401-1.407-.853-1.892-1.338 2.474.868 11.332 1.345 12.74.36 1.409-.986.487-1.374-5.502-2.663-5.989-1.29-1.552-4.414-1.73-6.09-.114-1.067-2.15-.342-6.106 2.177l.113-.187c1.445-2.267 5.615-4.245 6.33-4.718.716-.472 1.41-.611 1.302-.147Z" fill="#106A5D"/>
        <path d="m84.193 51.321.312 1.327c.146.644.23 1.061.25 1.25.034.299.034.632 0 1l-1.976.854c-4.508 1.915-8.282 3.305-11.323 4.167-3.345-1.18-6.84-2.56-10.482-4.142 4.415.105 10.189-.504 13.03-1.069l.385-.08c3.348-.733 9.744-2.67 9.804-2.749.04-.052.04-.238 0-.558Z" fill="#0B6053"/>
        <path d="m84.193 51.321.312 1.327.153.703c.053.257.085.44.097.548.034.298.034.631 0 1l-1.976.853c-1.799.764-3.48 1.445-5.046 2.042-1.86-.62-3.995-1.504-6.402-2.655a45.436 45.436 0 0 0 2.673-.43l.385-.081c3.348-.733 9.744-2.67 9.804-2.749.04-.052.04-.238 0-.558Z" fill="#015447"/>
        <path d="m84.193 51.321.312 1.327.153.703.085.453c.005.036.01.068.012.095.034.298.034.631 0 1l-1.616.696c-.01-.557-.162-1.032-.453-1.424-.312-.42-.93-.836-1.855-1.251l2.375-.712c.602-.187.973-.31.987-.329.04-.052.04-.238 0-.558Z" fill="#07483E"/>
        <path d="m56.59 43.23.231.019c3.07 2.605 7.912 5.659 14.526 9.157l1.848.965.08.28-.546.942c-.026.045-.13.174-.314.387-.367.628-.862 1.479-1.485 2.552-.934 1.61-1.563 2.85-1.803 3.26-.127.216-.254.434-.379.651-.865 1.507-1.781 3.135-2.826 4.963a.2.2 0 0 1-.347-.198c1.329-2.1 2.296-3.678 2.903-4.732l.325-.57c.375-.662 1.046-1.673 1.987-3.325 1.03-1.806 1.191-2.257 1.48-2.82.194-.375.377-.753.552-1.133l-.748-.388c-6.798-3.55-11.823-6.658-15.079-9.325l-.323-.271-10.773 6.49-4.175 2.548.084.176c1.049 2.218 2.337 5.845 3.868 10.884l.506 1.687a.2.2 0 1 1-.383.113l-.492-1.64c-1.45-4.777-2.682-8.282-3.693-10.51l-.328-.697.074-.258 3.812-2.33 11.417-6.877Z" fill="#BBB" fill-rule="nonzero"/>
        <path d="M60.838 33.308c.504 0 1.19.71 1.553 1.02.172.148.34.384.503.708-.122.008-.26.027-.415.059l-.892.206c-.26.062-.397.12-.61.332l-.471.508c-.118.117-.181.15-.468.375-.458.36-.788.448-1.082.624-.293.176-.848.578-1.135.797-.287.22-.545.22-.844.232a.993.993 0 0 0-.285.065l.698-1.413c.203-.4.38-.72.537-.937.618-.85 2.406-2.576 2.91-2.576Z" fill="#62A299"/>
        <path d="M60.344 34.095c-.12.032-.358.032-.714 0 .31.319.365.48.163.481-.304.003-.49-.156-.616 0s-.003.252.453.383c.304.088.455.231.453.43l-.542-.14c-.48-.112-.776-.14-.887-.087-.22.107-.152.312 0 .451.152.14-.112.536-.264.665-.152.128-.25.023-.4 0-.072-.012-.236.027-.375.113.113-.205.216-.375.312-.507.431-.593 1.433-1.613 2.17-2.175.246.237.329.364.247.386Z" fill="#C1E2DD"/>
        <path d="M23.31 64.209c.658-2.639 1.305-4.481 1.943-5.528.956-1.57 2.084-2.841 2.466-3.026.382-.184 4.29-1.766 5.613-2.274 1.322-.508 11.38-4.637 13.31-5.616 1.929-.98 5.905-3.141 7.308-5.117 1.403-1.975 2.27-3.297 2.8-3.747.532-.45 2.18-1.646 3.66-2.003 1.48-.357 3.374-.452 3.584-.422.14.02.23.23.273.63-2.096 2.266-3.381 3.703-3.857 4.31-.714.91-3.44 2.987-4.128 3.879-.688.891-3.027 2.56-6.18 4.26-3.153 1.702-12.09 5.383-14.995 6.341-2.905.959-2.968 1.092-3.156 1.11-.187.017-.652.4-.944.437-.291.037-.75.478-.972.812-.222.333-1.045 1.85-1.42 3.493a53.888 53.888 0 0 0-.595 2.935l-4.71-.474Z" fill="#EEEEF2"/>
        <path d="M28.615 61.748a53.888 53.888 0 0 0-.595 2.935l-4.71-.474c.234-.937.466-1.773.697-2.509 1.594-.579 3.506-1.097 5.265-1.935-.246.579-.494 1.269-.657 1.983Zm35.379-25.272c.14.02.23.23.273.63l-2.016 2.2c-.93 1.027-1.544 1.73-1.841 2.11-.659.84-3.032 2.675-3.935 3.653l-.193.226c-.336.435-1.064 1.054-2.087 1.772l.656-.7c3.013-3.316 5.31-7.196 4.942-7.435-.303-.196-2.325.425-3.893.966l.388-.502c.177-.217.33-.383.463-.495l.32-.255c.714-.543 2.087-1.446 3.339-1.748 1.48-.357 3.374-.452 3.584-.422Z" fill="#DCDFE0"/>
        <path d="m63.433 36.608.065.308c-2.353 2.753-4.412 4.743-6.355 6.582-1.467 1.389-2.148 2.042-3.62 3.209a22.581 22.581 0 0 1-3.259 2.137c-2.193 1.281-8.18 3.773-11.04 4.753l-1.917.638-1.585.552c-2.614.934-5.001 1.905-5.836 2.486-.882.615-1.724 2.812-2.48 6.525l-.118.599v.211l-.399-.04.002-.209c.569-2.964 1.184-5.059 1.864-6.297l.09-.158-1.844.416c-.747.176-1.13.285-1.152.327-.086.17-.216.353-.284.513l-.24.594c-.298.771-.66 1.816-1.087 3.135l-.437 1.37-.4-.043.853-2.691c.269-.835.466-1.384.922-2.357.65-1.387 1.911-2.772 2.592-3.535l.266-.115.087-.1c-.815.973-1.542 1.88-2.007 2.67l.043-.003c.047-.007.13-.023.252-.049l2.778-.638.014-.015c.1-.124.203-.232.307-.321l.15-.117c1.035-.72 4.24-1.972 7.434-3.06l1.585-.526c2.488-.806 8.467-3.265 11.013-4.65 1.133-.562 2.335-1.339 3.607-2.332 1.907-1.49 2.118-1.794 3.571-3.17 1.738-1.645 3.556-3.356 5.63-5.742l.369-.43-.105.011a17.554 17.554 0 0 0-2.937.578l-.41.124c-.907.293-1.565.678-1.978 1.148l-.162.207-.329-.228c.09-.13.194-.254.31-.372.388-.278.908-.623 1.478-.929.173-.075.36-.143.558-.207.953-.308 2.129-.54 3.528-.696l.613-.063Z" fill="#CCCED1"/>
        <path d="m64.267 37.107-2.016 2.199c-.93 1.027-1.544 1.73-1.841 2.11-.659.84-3.032 2.675-3.935 3.653l-.193.226c-.688.891-3.027 2.56-6.18 4.26-3.027 1.634-11.384 5.092-14.618 6.213l-1.697.573c-1.612.558-1.682.65-1.836.664-.156.015-.505.283-.786.393l-.158.045c-.291.037-.75.478-.972.812l-.127.208a13.36 13.36 0 0 0-1.189 2.871l.384-1.446c.09-.32.17-.596.237-.795.377-1.137 1.065-2.118 2.762-2.752l1.173-.421c2.273-.8 6.327-2.187 9.432-3.458 3.76-1.538 7.582-3.132 10.578-5.412 2.996-2.28 8.051-7.439 8.669-8.121l1.816-2.066.301-.347c.097.073.162.271.196.59Z" fill="#C4C4C4"/>
        <path d="M30.778 54.211c.503-.01.64.751.66 1.01.02.26-.391.67-.647.637-.256-.033-.818-.656-.84-.945-.021-.289.323-.69.827-.702Zm3.317-1.17c.503-.01.927.904.948 1.163.02.26-.528.583-.784.55-.256-.034-.863-.874-.844-1.253.02-.379.176-.449.68-.46Zm3.188-1.42.063.003c.222.033.946 1.042.966 1.301.021.26-.528.583-.784.55-.255-.034-1.07-.907-1.05-1.286.02-.378.646-.597.868-.565Zm2.242-.663c-.168-.347.463-.598.94-.517.479.08.946 1.041.967 1.3.02.26-.457.5-.884.474-.426-.026-.854-.911-1.023-1.257Zm3.386-1.492c-.36-.24.47-.625.948-.544.479.08.937.978.958 1.237.02.26-.422.488-.848.463-.426-.026-.7-.917-1.058-1.156Zm4.185-2.096.084.008c.478.08.712.686.733.945.02.26-.422.489-.848.463-.426-.026-.557-.53-.916-.769-.358-.24.552-.72 1.03-.639Zm3.205-1.6.08.008c.478.08.919.745.94 1.004.02.26-.422.489-.848.463-.426-.026-.855-.555-1.214-.795-.358-.239.643-.753 1.122-.672Zm2.624-2.166.076.004c.478.08 1.001.604.974 1.039-.027.434-.51.575-.936.549-.426-.026-.79-.684-1.169-.686-.38-.003.653-.982 1.13-.902Zm2.262-2.622.079.004c.478.08 1.448.909 1.42 1.344-.026.435-.723.579-1.149.553-.426-.026-.84-.875-1.22-.878-.38-.002.47-1.1.949-1.02Zm2.203-2.567.136.004c1.09.096 1.677.783 1.662 1.373-.014.59-.429.662-1.214.717-.784.055-1.676-.723-2.056-.726-.38-.002.518-1.46 1.608-1.364Z" fill="#F4F4F8"/>
        <path d="M31.438 55.221c.02.26-.391.67-.647.637-.256-.033-.818-.656-.84-.945a.458.458 0 0 1 .045-.22c.076.344.227.466.365.597.203.191.423-.064.614-.254.113-.112.206-.327.263-.517.138.237.188.553.2.702Zm3.605-1.017c.02.26-.528.583-.784.55-.163-.021-.468-.37-.663-.717l.266.163c.23.148.594.002.756-.164.092-.095.107-.326.088-.577.196.273.326.605.337.745Zm3.27-1.279c.02.26-.529.583-.785.55-.217-.029-.837-.663-1.007-1.085.337.191.615.421.702.526.097.119.5-.055.694-.367.056-.09.08-.16.087-.224.166.248.3.49.308.6Zm3.119-1.184c.02.26-.457.5-.884.474-.353-.021-.708-.635-.915-1.04.208.099.43.251.567.374.256.229.579.17.79 0 .115-.092.09-.33.098-.573.197.296.333.628.344.765Zm3.385-1.582c.02.26-.422.488-.848.463-.366-.023-.619-.68-.91-1.019.17.051.238.105.3.191l.126.198c.161.246.49.166.768.037.166-.077.195-.389.18-.668.217.293.372.65.384.798Zm3.096-1.836c.02.26-.422.489-.848.463-.383-.023-.527-.431-.812-.688.367.023.458.172.625.222l.112.017c.256.003.372.127.562 0 .14-.093-.05-.455-.068-.82.275.216.413.61.429.806Zm3.407-1.54c.021.259-.421.488-.847.462-.314-.019-.63-.311-.917-.56.38.114.8.22 1.102.106.193-.072.305-.306.367-.573.171.207.285.436.295.564Zm2.655-2.136c-.027.434-.51.575-.936.549-.235-.014-.45-.22-.66-.403.411.162.742.222.716-.003-.03-.26.128-.102.488-.079.185.012.23-.258.203-.586.125.165.2.35.19.522Zm2.712-2.317c-.027.435-.724.579-1.15.553-.426-.026-.84-.875-1.22-.878-.059 0-.088-.026-.094-.07l.185.008c.383.072.808.44 1.047.609.278.197.472.061.45-.25-.022-.311.36-.11.355-.377-.001-.088-.055-.247-.137-.435.317.274.578.611.564.84Zm2.501-2.538c-.014.59-.429.662-1.214.717-.697.049-1.48-.56-1.911-.698l-.145-.028c-.05 0-.077-.025-.086-.068l.06-.01.144-.01c.49-.024.746.163 1.245.327.448.148.882.073.812-.22l-.043-.107c-.209-.381.392.083.434-.232.03-.23-.288-.683-.58-.982.848.203 1.297.794 1.284 1.31Z" fill="#B6B5BE"/>
        <path d="M11.223 62.497c.028-.193.33-1.26.693-1.163.363.097 3.122.926 5.936 1.412 2.813.486 10.224 1.26 17.993 1.436 7.768.177 13.581.472 20.655.476 7.074.005 18.656-.636 21.82-.668 3.165-.032 6.914-.332 7.028-.366.114-.035-.061-.368.234-.278.295.09.418 1.277.418 1.626s-.453 3.993-.573 4.987c-.119.994-.95 2.042-2.403 2.049-1.454.006-13.774 0-17.024 0-3.25 0-5.886-.224-9.245-.224-3.36 0-8.473.216-10.755.216h-9.094c-1.967 0-13.81-1.497-15.016-1.628-1.207-.13-10.007-1.865-10.762-2.106-.755-.24-1.135-.713-1.129-1.109.008-.396.341-3.604.57-4.243.228-.639.626-.223.654-.417Z" fill="#D7D8DF"/>
        <path d="m11.916 61.334 1.436.399c1.143.306 2.811.721 4.5 1.013l.672.109c1.851.28 4.938.625 8.607.898 1.564.662 2.86 1.452 3.738 2.426 1.847 2.047 3.38 3.959 4.6 5.734l-1.683-.16c-1.409-.144-3.1-.335-4.763-.528l-7.133-.853c-1.207-.13-10.007-1.865-10.762-2.106-.755-.24-1.135-.713-1.129-1.109l.04-.532c.097-1.044.347-3.2.53-3.711.228-.639.626-.223.654-.417.028-.193.33-1.26.693-1.163Z" fill="#CFD0D7"/>
        <path d="m10.805 62.579 2.298.504c2.163.463 3.937.805 5.321 1.027l.448.069c2.877.43 4.745.93 5.987 1.507 1.242.577 2.215 2.106 2.624 2.751.223.352.54 1.084.95 2.196l.196.545-6.74-.806c-1.206-.13-10.006-1.865-10.761-2.106-.755-.24-1.135-.713-1.129-1.109l.04-.532c.097-1.044.347-3.2.53-3.711.068-.192.152-.289.236-.335Z" fill="#CCCCD0"/>
        <path d="m10.805 62.579 2.298.504 2.034.423c1.268.255 2.364.456 3.287.604l1.434.226c.157.026.31.053.462.08l-.001 5.699-1.932-.359c-2.978-.566-6.775-1.335-7.26-1.49-.754-.24-1.134-.713-1.128-1.109l.04-.532.098-.948c.12-1.071.295-2.38.432-2.763.068-.192.152-.289.236-.335Z" fill="#C8C8CD"/>
        <path d="m10.805 62.579 2.298.504 1.412.296.66.134-.18 1.343c-.217 1.71-.334 3.1-.354 4.17l-2.31-.48a20.367 20.367 0 0 1-1.203-.28c-.755-.24-1.135-.713-1.129-1.109l.04-.532.098-.948c.12-1.071.295-2.38.432-2.763.068-.192.152-.289.236-.335Z" fill="#C0C0C5"/>
        <path d="m10.805 62.579 1.048.23-.104 1.058c-.215 2.35-.234 3.864-.056 4.54l-.565-.14c-.755-.241-1.135-.714-1.129-1.11l.04-.532.098-.948c.12-1.071.295-2.38.432-2.763.068-.192.152-.289.236-.335Z" fill="#B6B6BE"/>
        <path d="M85.582 63.346c.295.09.418 1.277.418 1.626l-.018.25c-.084.92-.45 3.86-.555 4.737-.119.994-.95 2.042-2.403 2.049H66c-3.25 0-5.886-.224-9.245-.224l-1.758.015c-1.857.029-3.954.092-5.76.14 1.094-1.23-.693-3.74-5.358-7.529l3.58.105c2.954.081 5.871.141 9.041.143l1.293-.005c6.67-.06 16.258-.564 19.885-.651l1.849-.035c2.839-.08 5.721-.313 5.821-.343.114-.035-.061-.368.234-.278Z" fill="#D0D1D8"/>
        <path d="M85.582 63.346c.295.09.418 1.277.418 1.626l-.018.25-.158 1.442c-.14 1.209-.327 2.71-.397 3.295-.119.994-.95 2.042-2.403 2.049H66c-1.165 0-2.25-.029-3.32-.066-2.345-.646-3.183-2.884-4.81-4.898l-.315-.375c-.78-.89-.493-1.543.537-2.018l2.604-.046c6.299-.143 13.855-.528 16.982-.603l1.849-.035 1.536-.057c2.259-.101 4.203-.262 4.285-.286.114-.035-.061-.368.234-.278Z" fill="#C5C6CC"/>
        <path d="M85.582 63.346c.295.09.418 1.277.418 1.626l-.018.25-.158 1.442c-.14 1.209-.327 2.71-.397 3.295-.119.994-.95 2.042-2.403 2.049h-9.258c-1.126-2.273-1.858-4.865-2.196-7.777l4.012-.161c.821-.03 1.53-.055 2.096-.068l1.849-.035 1.536-.057 1.158-.058c1.73-.095 3.06-.208 3.127-.228.114-.035-.061-.368.234-.278Z" fill="#C0C1C6"/>
        <path d="M85.582 63.346c.295.09.418 1.277.418 1.626l-.018.25-.158 1.442c-.14 1.209-.327 2.71-.397 3.295-.119.994-.95 2.042-2.403 2.049h-3.143c.643-.184 1.118-.388 1.427-.611 1.123-.813 1.505-3.86 2.07-5.356.29-.767-.471-1.479-2.282-2.134l1.125-.055c1.73-.095 3.06-.208 3.127-.228.114-.035-.061-.368.234-.278Z" fill="#BBBCC1"/>
        <path d="m17.852 62.746.622.1c3.068.47 9.63 1.123 16.595 1.317l3.995.101c6.235.173 11.373.39 17.436.394l1.293-.005c6.67-.06 16.258-.564 19.885-.651l1.849-.035c2.839-.08 5.721-.313 5.821-.343.114-.035-.061-.368.234-.278.295.09.418 1.277.418 1.626l-.017.245c-.198-.513-.254-1.343-.335-1.394-.132-.082-.203-.016-.294.007l-.219.044c-.967.162-3.73.326-7.898.439l-24.896.48-3.307.031c-3.632-.021-15.03-.286-21.717-.764l-1.31-.103c-5.837-.502-10.808-1.489-12.236-2.114l1.034.261c.923.225 1.98.458 3.047.642Z" fill="#EFEFEF"/>
        <path d="M11.212 62.524c.376.017 3.23.833 6.098 1.295l2.509.386c2.47.405 4.954.947 5.954 1.857 1.157 1.052 1.778 2.062 2.2 2.977l.69 1.582c.079.173.125.272.14.3l.06.02c.527.124 4.438.646 9.636 1.058L36.906 72l-.462-.016c-1.497-.083-5.024-.477-8.243-.856l-6.311-.756c-1.207-.13-10.007-1.865-10.762-2.106l-.15-.056.386.093c4.967 1.159 10.65 2.031 17.053 2.618-.075-.423-1.139-3.086-2.451-4.2l-.558-.475c-.882-.73-1.678-1.172-4.732-1.673l-2.481-.384c-3.89-.638-6.914-1.39-7.168-1.4a.755.755 0 0 0-.286.055l-.173.074c.024-.07.085-.255.18-.329.094-.073.2-.067.302-.048.051.008.096.017.127.01l.035-.027Z" fill="#EBEBEB"/>
        <path d="m42.775 62.062-.012.011a.255.255 0 0 0 .001.369.267.267 0 0 0 .378-.008l.018-.019a.25.25 0 0 0-.012-.358.273.273 0 0 0-.373.005ZM50.648 62.189l-.012.011a.255.255 0 0 0 .001.369.267.267 0 0 0 .377-.008l.018-.02a.25.25 0 0 0-.01-.357.273.273 0 0 0-.374.005ZM58.678 62.707l-.012.012a.255.255 0 0 0 .001.368.267.267 0 0 0 .377-.008l.019-.019a.25.25 0 0 0-.012-.357.273.273 0 0 0-.373.004Z" fill="#535353"/>
    </g>
</svg>
