<svg width="96" height="96" xmlns="http://www.w3.org/2000/svg">
    <defs>
        <path id="a" d="M0 0h96v96H0z"/>
    </defs>
    <g fill="none" fill-rule="evenodd">
        <path d="M53.354 47.125c.581-1.157.69-4.837.634-5.56-.057-.721-.573-2.242-.88-3.099-.306-.856.121-1.79.126-2.07.004-.281-.427-1.18-.65-1.14-.224.04-.362.609-.698.835-.337.226-2.384 1.693-2.743 1.91-.358.216-2.354 1.853-3.005 2.554-.65.702-4.747 3.666-5.055 4.037-.307.37-3.863 3.252-4.305 3.666-.442.414-.97 1.767-1.283 2.005-.313.237-2.01 1.424-2.513 1.55-.503.125-1.22.65-1.6.815-.378.166-.6.432-.674.439-.074.007-.465-.049-.767.188-.301.237-.836 1.028-1.035 1.312-.198.284 1.594.282 3.544-.184 1.95-.467 10.601-3.12 13.401-4.067 2.8-.948 6.923-2.035 7.503-3.191Z" fill="#4A4A4A"/>
        <path d="m41.362 44.78-.044.11c-.087.195-.3.624-.638 1.287l-1.45.863c-.455.267-.76.438-.914.515l-.065.03c-.027.012-.51.21-.764.068l2.665-2.227c.4-.34.718-.618.865-.763l.066-.071c.032-.038.105-.105.21-.193l.06.259a.379.379 0 0 1 .01.122Zm5.074-3.36-1.95 1.089c-.406.233-.727.426-.805.498-.069.064-.336.116-.803.155l1.232-.946c.82-.631 1.574-1.226 1.919-1.552l.11-.109c.182-.196.47-.467.798-.759l-.354 1.108c-.066.216-.115.388-.147.515Z" fill="#242424"/>
        <path d="M52.584 35.256c.223-.04.654.859.65 1.14-.005.28-.432 1.214-.125 2.07l.258.745c.277.823.578 1.813.62 2.355l.013.305c.005.32-.003.794-.028 1.334-.258.062-.595-.02-1.01-.238l-.462-2.645c-.056-.365-.687-2.018-.706-2.409-.02-.391.337-1.212.366-1.326.015-.058-.159-.25-.342-.45l.068-.046c.336-.226.474-.794.698-.835Z" fill="#343434"/>
        <path d="m51.97 36.262.064.026c.141.138.34.512.337.658-.003.147-.103.613-.23.939-.126.326.288.921.551 1.706.194.577.617.823 1.112 1.06.097.358.165.679.184.915.02.26.02.903-.018 1.673l-1.093-.266c-.562-.141-1.257-.32-2.085-.538l-.232-1.405c-.02-.185-.343-1.18-.506-1.684-.078-.24-.244-.575-.5-1.008l-.265-.432.689-.474c.465-.326 1.02-.72 1.42-1l.29-.117c.086-.029.16-.047.22-.053h.063Z" fill="#151515"/>
        <path d="M51.712 35.846c.1-.032.288.266.424.462.137.196.294.365.123.655-.17.29-.28 1.003-.238 1.14.044.138.488 1.042.737 1.934.25.891.433 2.438.496 3.466s-2.033-.563-2.143-1.583c-.11-1.019-.888-2.945-1.134-3.374-.245-.43-.628-.779-.651-.921-.022-.143.667-.585 1.049-.86.381-.277 1.236-.887 1.337-.92Zm-1.37 1.443c.018.072.162.414.255.38.093-.032 1.038-.53 1.113-.57.074-.04-.149-.261-.23-.352-.082-.09-1.154.47-1.137.542Z" fill="#404040"/>
        <path d="M50.075 36.918c.084.138.14.195.17.173.046-.033.975-.574.998-.617.022-.044-.075-.212-.107-.24-.02-.017-.375.21-1.061.684Z" fill="#1E1E1E"/>
        <path d="M75.935 34.53c.723.077 1.263.986 1.177 1.853-.086.866-.706 1.637-1.322 2.217-.616.58-1.157 1.683-1.212 2.56-.043.684.271 1.85.592 2.877l.269.832c.38 1.154.916 2.832 1.213 4.067.297 1.235.3 2.25.236 2.51-.064.259-.24.36-.417.264-.13-.07-2.028-6.256-3.093-9.755l-.705-2.323c-.174-.577-.319-1.138-.264-1.3.056-.16.376-.22.657-.123a.448.448 0 0 1 .32.39l.192-.864c.183-.796.34-1.386.47-1.769.238-.702 1.017-1.389 1.702-1.439l.185.003Zm-.846.69c-.415.372-.732.896-.903 1.598l-.352 1.402c-.06.26-.104.485-.113.636-.017.268.193.805.63 1.61.138-.643.327-1.104.568-1.385.361-.42 1.37-1.282 1.57-1.852.199-.57.404-1.543 0-1.969-.405-.426-.985-.41-1.4-.04Z" fill="#181818"/>
        <path d="M10.387 61.067c-.1-1.422.607-2.538 1.263-2.94.657-.4 2.043-1.126 5.384-1.637 3.341-.512 5.562-.433 6.282-.67.719-.24 1.777-.597 2.479-.752.702-.155 3.216-1.22 3.689-1.38.472-.162 5.318-2.179 5.828-2.45.51-.272.479-2.053 1.669-3.024 1.19-.971 8.208-6.202 9.799-6.61 1.59-.408 3.54-.92 6.475 0 2.935.92 6.721 3.018 7.906 3.691 1.185.674 2.509 1.365 3.532.113 1.024-1.252 2.951-3.147 4.675-4.57 1.723-1.423 3.113-2.208 3.295-2.201.182.007.466.227.524.625.058.398.097.475.219.611s.515 1.725.65 2.136c.134.412.861 2.492 1.173 3.399.312.906.954 2.618 1.131 3.43.178.812.392 2.151.404 2.505.011.354.766 2.113-8.73 5.147-9.497 3.033-33.855 10.395-36.477 10.67-2.621.275-17.641-1.946-18.981-2.868-1.34-.921-2.088-1.802-2.189-3.225Z" fill="#2B2B2B"/>
        <path d="m52.716 41.448.729.216c-.676 1.67-2.114 4.659-4.317 6.327l-1.26.941c-2.65 1.948-5.193 3.57-6.668 3.389l-1.035-.127c-1.64-.236-3.63-.825-3.595-3.557.119-.154.254-.296.41-.423l.34-.27c1.826-1.424 7.982-5.961 9.46-6.34l.614-.155c1.374-.333 3.036-.608 5.322-.001Z" fill="#3A3A3A"/>
        <path d="m60.438 44.89.723.405c.616.35 1.269.705 1.898.79.123.316.198.625.22.901.16 1.975-.83 1.158-1.575 1.072-.723-.084-5.954 1.795-3.655 3.408l.222.142c2.833 1.642-1.541 6.346-9.043 9.569a73.44 73.44 0 0 1-15.38 4.713c5.65-4.22 8.283-7.658 7.9-10.313 1.787-1.779 11.06-7.187 14.752-10.57l.339-.32c.458-.45.907-.772 1.34-.99l1.24.642c.38.202.725.39 1.02.552Z" fill="#1E1E1E"/>
        <path d="M72.663 38.637c.182.007.466.227.524.625.058.398.097.475.219.611s.515 1.725.65 2.136l1.173 3.399c.312.906.954 2.618 1.131 3.43l.121.603c.122.648.236 1.38.272 1.75l.03.385c0 .289-.12.786-.997 1.483l-6.636-2.403c-4.52-1.65-7.142-2.652-7.87-3.004-.81-.392-.987-1.254-.531-2.587l.835.466c1.07.573 2.206.981 3.11-.123 1.023-1.252 2.95-3.147 4.674-4.57l.629-.504c1.423-1.103 2.506-1.703 2.666-1.697Z" fill="#333233"/>
        <path d="M73.12 41.602c.045 1.297-.1 2.042-.434 2.233-.464.265-2.182 1.739-3.199 2.318l-.238.125c-.96.451-.48.794.226 1.042.707.249.813-.582 2.209-.38 1.396.201 3.684 1.079 4.3 2.21l.177.34c.319.662-.017.447-.948.22l-.208-.048a74.3 74.3 0 0 0-3.074-.594c1.172.81 1.982 1.276 2.432 1.398l.771.159c.52.106 1.156.197 1.541-.035l.078.6.03.386c0 .11-.018.253-.09.425-1.67-.255-3.931-1.893-5.529-2.688l-.825-.419c-1.982-1.026-4.209-2.355-3.616-3.046.452-.527 2.584-1.942 6.397-4.246Z" fill="#252325"/>
        <path d="M73.373 42.468c.169-.014.4.48.282 1.04-.119.56-.84 1.255-1.607 1.693-.768.437-2.489 1.358-2.322 1.605.168.247.145.515-.25.44-.396-.076-.96-.413-.495-.698.463-.286 3.289-2.233 3.654-2.553.365-.32.472-.657.506-.955.035-.298.063-.557.232-.572Z" fill="#494747"/>
        <path d="M34.964 53.22c1.682 1.073 4.77 3.37 5.504 4.166 1.18 1.278.45 2.806-4.208 3.773-4.657.967-9.454.176-10.635.03-1.181-.147-8.481-.381-11.129-1.164-1.34-.396-2.159-1.102-2.458-2.118l.324-.162c.833-.394 2.23-.882 4.672-1.255 3.341-.512 5.562-.433 6.282-.67l.98-.324a25.43 25.43 0 0 1 1.04-.314l.459-.114c.648-.143 2.84-1.061 3.545-1.329l.428-.16c.554-.22 1.642-.531 3.51-.811.493-.074 1.055.076 1.686.451Z" fill="#464646"/>
        <path d="M41.15 58.13c-.61.209-4.083 1.627-6.875 1.76s-3.487.07-4.173-.375c-.685-.444-1.092-1.175-.905-1.518.186-.344 3.045-2.04 3.964-2.304.92-.263 2.514-.39 3.024-.29.51.1-.872-.538-1.81-.528-.94.01-.217-1.056-1.214-.783-.997.274-.976.682-1.017.978-.041.296-2.832 2.277-4.162 3.284-1.33 1.008-1.926 1.682-1.887 2.144.038.462 2.313.96 4.825.988 2.512.027 5.88-.58 7.543-1.127 1.663-.547 2.532-1.097 2.876-1.323.345-.227.42-1.114-.19-.906Z" fill="#2E2E2E"/>
        <path d="M41.15 58.13c.61-.208.534.68.19.906l-.218.138c-.439.271-1.273.73-2.659 1.185-1.662.547-5.03 1.154-7.543 1.127-2.512-.027-4.787-.526-4.825-.988-.017-.2.085-.44.315-.73 2.26.21 4.113.27 5.563.18l.523.003a49.697 49.697 0 0 0 1.78-.06c2.791-.134 6.263-1.552 6.873-1.76Z" fill="#222"/>
        <path d="M52.897 47.189c.267.17 1.87.683 1.513.973-.358.29-2.53.951-3.75 1.892-1.22.94-3.222 2.247-3.962 2.59-.74.343-1.76.637-2.826.356-1.065-.281-3.194-1.1-3.72-2.236-.526-1.135-.368-1.718.366-2.602.735-.885 6.986-5.117 7.76-4.923.773.194 5.379 2.19 6.132 2.674.753.483.39.715-.52.427-.911-.288-4.218-2.182-5.613-1.56-1.394.623-6.617 3.966-6.824 4.672-.207.707 2.845 2.205 3.476 2.166.63-.04 6.007-2.698 6.852-3.26.845-.562.85-1.34 1.116-1.17Z" fill="#474646"/>
        <path d="M32.876 53.088c.05-.984.176-1.944.86-2.957.683-1.014 1.767-1.746 2.282-1.788.343-.028.562-.028.655 0l-.27.48c.618-.022 1.02.008 1.205.089.277.12 1.341-1.009 1.299-1.149-.043-.14-1.144-.292-1.3-.32-.155-.029 1.127-1.098 1.383-1.334.255-.237 1.446.325 1.662.34.217.017 1.77-.96 1.938-1.358.167-.397-.706-1.123-.675-1.256.03-.132.856-1.016 1.115-1.051.26-.036.942.837 1.067 1.134.124.298.379 1.191.187 1.432-.193.24-4.228 3.044-5.294 3.882-1.066.838-1.7 1.235-2.033 1.038-.333-.196-.231-.332-1.117-.306-.885.026-1.008.28-.906.415.101.134.682.105.603.25-.078.145-.435.6-.663.987-.228.387-.568.993-.815 1.283-.248.29-1.233 1.173-1.183.19Z" fill="#393939"/>
        <path d="M36.312 48.57c.09.094.064.285-.067.299-.13.013-1.049.548-1.126.647-.078.099-.243.476-.211.458l.115-.062c.195-.1.584-.275.8-.204.165.055-.067.17-.309.28-.59.071-.668.275-.58.39.101.135.716-.253.637-.108-.009.228-.062.412-.16.55-.146.209-.374.52-.537.796l-.302.515c-.1-.036-.166-.077-.19-.122-.194-.362-.096-.855.081-1.524.178-.669.545-1.512.803-1.681.257-.17.955-.33 1.046-.235Zm7.972-3.22c-.19.236-4.107 2.96-5.244 3.842-.096-.375-.268-.746-.488-.934.1-.107.189-.21.252-.296l.373.196c.238.116.447.19.58.148.378-.119 4.26-3.065 4.579-3.526.03.248.03.468-.052.57Z" fill="#181818"/>
        <path d="M15.922 63.972c.032-.516.657-1.922 2.063-3.315 1.407-1.393 3.874-3.022 5.413-3.787 1.54-.766 2.534-1.227 3.005-1.559.47-.331.909-1.007 1.074-1.123.165-.117 1.531-.721 1.798-.683.178.026.214.077.109.155-.071.033-.165.08-.283.145-.176.096-.832.774-1.245 1.273-.414.498-1.275 1.1-2.47 1.83-1.194.73-3.497 2.126-4.685 3.378-1.188 1.252-1.968 3.207-2.08 3.75-.11.542.127.551.234.303.108-.248.002-1.208 1.737-3.28 1.735-2.07 4.676-3.748 5.4-4.18.725-.433 3.354-2.516 3.92-2.878.564-.363 2.328-1.56 4.32-1.69 1.993-.132 3.332.426 4.449.9 1.116.475 6.547 3.544 6.938 3.865.39.32.848-.25.338-.477-.51-.227-5.318-2.913-6.62-3.593-1.3-.68-1.778-1.643-1.85-2.605-.071-.962.274-1.596.662-2.046.387-.449 3.55-2.839 4.876-3.745 1.325-.906 3.402-2.183 4.826-2.44 1.423-.257 2.165-.34 5.255.914s6.691 3.098 9.103 4.204c2.412 1.106 8.633 3.401 9.706 3.853 1.074.451 1.796 1.09 2.022 1.17.226.078.934.12 0-.59-.935-.71-2.605-1.3-4.463-2.045-1.857-.747-4.18-1.58-4.438-2.12-.258-.538.569-1.28 2.088-2.787 1.52-1.508 3.582-3.32 4.503-3.878.922-.557 1.458-.797 1.581-.813.123-.015 1.003 1.677.849 1.829-.154.152-.79.39-1.92 1.23-1.128.841-3.484 3.07-3.794 3.41-.31.342-.109.382.323.708.431.325 3.706 1.69 4.747 2.143 1.041.455 2.905 1.185 2.452 2.046-.454.86-2.231 1.917-2.77 1.988-.54.07-1.33-.54-2.723-1.067-1.393-.526-4.527-1.657-8.716-3.422-4.19-1.764-9.73-4.198-11.402-4.552-1.672-.354-2.537-.215-3.678.386-1.14.6-3.844 2.489-4.583 3.065-.74.577-1.993 1.32-1.78 2.418.215 1.097.814 1.334 2.394 2.149 1.58.814 4.448 2.588 4.92 2.902.473.315.82.68-.352 1.765s-1.873 2.075-2.42 1.896c-.546-.18-2.947-1.941-5.367-3.16-2.42-1.218-4.169-2.004-5.574-1.755-1.406.248-2.895.887-4.302 1.933-1.407 1.047-4.045 2.75-4.897 3.544-.851.792-2.177 1.727-3.357 4.493-.44 1.078-.591 1.503-1.076 1.425-.484-.078-4.29-.965-4.26-1.48Z" fill="#161616"/>
        <path d="M16.072 63.67c.031-.515.656-1.922 2.063-3.314 1.406-1.393 3.874-3.023 5.413-3.788 1.54-.765 2.533-1.227 3.004-1.558.471-.332.798-.76.963-.876.165-.116 1.532-.72 1.798-.682.178.025.214.077.109.155a.478.478 0 0 0-.311.028c-.171.068-.752.605-1.166 1.103-.413.499-1.275 1.1-2.469 1.83s-3.547 2.067-4.735 3.319c-1.188 1.252-2.079 3.24-2.19 3.783-.112.543.347.616.454.368.107-.249.001-1.209 1.736-3.28 1.735-2.07 4.676-3.748 5.401-4.18.725-.434 3.354-2.516 3.919-2.879.564-.362 2.328-1.559 4.32-1.69 1.993-.131 3.333.427 4.45.901 1.116.474 6.547 3.544 6.937 3.864.391.32.848-.249.339-.476-.51-.227-5.319-2.914-6.62-3.593-1.3-.68-1.778-1.644-1.85-2.606-.072-.961.273-1.596.661-2.045.388-.45 3.55-2.84 4.876-3.745 1.325-.906 3.402-2.183 4.826-2.44 1.424-.257 2.166-.34 5.255.914 3.09 1.254 6.692 3.097 9.103 4.203 2.412 1.107 8.633 3.402 9.707 3.853 1.073.452 1.795 1.092 2.021 1.17.226.078.935.12 0-.59s-2.605-1.299-4.462-2.045c-1.857-.746-4.18-1.58-4.438-2.119-.258-.538.568-1.28 2.087-2.788 1.52-1.507 3.583-3.32 4.504-3.877.921-.557 1.458-.798 1.58-.813.123-.015.792 1.707.638 1.859-.153.152-.79.39-1.919 1.231-1.129.84-3.485 3.069-3.795 3.41-.31.341-.288.628.143.953.432.326 3.707 1.69 4.748 2.144 1.041.454 2.905 1.185 2.451 2.045-.453.86-1.84 1.64-2.38 1.712-.539.07-1.438-.678-2.831-1.205-1.393-.526-4.333-1.62-8.522-3.385-4.19-1.765-9.869-4.41-11.541-4.764-1.673-.354-2.538-.214-3.678.387-1.14.6-3.892 2.515-4.631 3.091-.74.577-2.205 1.406-1.99 2.503.214 1.098.846 1.523 2.426 2.338 1.58.814 4.728 2.6 5.2 2.914.473.314.82.68-.352 1.764-1.172 1.085-1.687 1.833-2.234 1.654-.546-.18-3.143-1.819-5.563-3.037s-4.169-2.004-5.574-1.756c-1.406.249-2.873.927-4.302 1.934-1.43 1.007-4.045 2.75-4.897 3.543-.852.793-2.333 1.792-3.513 4.558-.44 1.078-.591 1.503-1.076 1.425-.484-.078-4.124-.909-4.093-1.425Z" fill="#363636"/>
        <path d="M32.762 53.616c.223-.117.412-.35.398-.745-.014-.396-.065-1.068-.2-1.162-.135-.094-.546-.215-1.203.205-.656.42-.734.85-.533 1.099.202.248.643.514.943.567.3.053.372.152.595.036Z" fill="#535353"/>
        <path d="m33.066 52.565.058-.236.029.374.007.168c.014.396-.175.628-.398.745-.223.116-.295.017-.595-.036s-.741-.319-.943-.567a.432.432 0 0 1-.098-.275l.171.172c.22.205.857.447 1.018.386.16-.06-.031-.427.082-.543.114-.117.315.392.486.2.069-.076.13-.206.183-.388Z" fill="#2B2B2B"/>
        <path d="M38.786 49.787c.225-.006.692-.033.778-.808.085-.774.031-1.442.436-2.387.405-.945.67-1.488.928-1.674.26-.186.55-.376.387-.433-.163-.057-.758.024-.931.235-.174.21-.274.61-.538.758-.264.148-.655.414-1.041 1.014-.387.6-.644 1.375-.75 1.964-.105.589.053.957.159 1.107.106.15.347.23.572.224Z" fill="#393939"/>
        <path d="M41.34 44.59c-.063.086-.244.208-.412.328-.259.186-.523.729-.928 1.674s-.35 1.613-.436 2.387c-.086.775-.553.802-.778.808-.225.006-.466-.074-.572-.224-.091-.129-.22-.417-.188-.868l.03-.24.005.034c.05.227.129.464.254.533.25.138.703.056.92-.26.217-.317.332-1.177.496-1.717.163-.54.835-1.942 1.032-2.14.098-.098.272-.218.467-.287l.11-.029Z" fill="#1B1B1B"/>
        <path d="M43.917 45.265c-.31.064-.818.085-.946-.312-.127-.396-.054-1.53.06-2.17.112-.64.312-.975.64-1.277.33-.302.983-.97 1.269-1.02.285-.05.814-.027 1.198.07.63-.043 1.38.062 2.362.534.981.472 1.932.958 1.974 1.296.043.337-.032.799-.244.839-.213.04-.705-.044-1.012-.057-.307-.014-.997-.036-1.356-.441-.36-.406-.67-.456-.975-.55-.306-.094-.468-.307-.673-.374-.205-.068-1.006-.155-1.274-.146-.27.01-.29.142-.344.455-.054.313-.188.46-.242.776-.054.317.203.93.241 1.334.038.404-.368.979-.678 1.043Z" fill="#3C3C3C"/>
        <path d="M44.92 41.202c-.215.177-.003.348.273.347l.308-.01c.189-.003.438.012.905.113.749.162 1.988.696 2.34.985.35.289.856.49.914.463l.063-.056c.092-.107.207-.352-.053-.64l-.315-.342c-.095-.119-.069-.155.21-.094.464.1.729.5.727.249a.397.397 0 0 0-.023-.123c.12.105.194.204.205.292.043.337-.032.799-.244.839-.213.04-.705-.044-1.012-.057-.307-.014-.997-.036-1.356-.441-.36-.406-.67-.456-.975-.55-.306-.094-.468-.307-.673-.374-.205-.068-1.006-.155-1.274-.146-.27.01-.29.142-.344.455-.054.313-.188.46-.242.776-.054.317.203.93.241 1.334.038.404-.368.979-.678 1.043-.31.064-.818.085-.946-.312a1.83 1.83 0 0 1-.061-.435c.176.233.362.411.505.406.373-.012.584-.431.584-.927 0-.495.566.269.479-.252-.087-.52-.282-.925-.267-1.244.01-.204.328-1.386.598-1.696.27-.31.121.263.112.397Z" fill="#141414"/>
        <path d="M83.767 63.675c-.558-.981-2.022-5.018-2.065-5.267-.043-.25.232-.285.202-.438-.03-.154-.713-1.558-.785-1.697-.072-.14-.354.081-.509 0-.155-.082-1.759-3.38-1.87-3.508-.113-.128.067-.236 0-.325-.069-.088-.929-1.634-1.124-1.673-.195-.038-1.156.272-1.923.453-.766.18-5.882 1.326-7.288 1.69-1.406.363-2.776.25-3.5 0-.724-.25-7.413-2.577-8.059-2.755-.646-.178-1.831-.084-2.272 0-.44.084-.835.234-2.42 1.144-1.583.91-5.923 4.066-8.055 6.163-2.133 2.098-4.006 4.425-4.3 4.903-.293.478-.663 1.285-.387 2.08.277.795 1.496 3.063 1.767 3.56.27.498-.734.99-2.395 1.585-1.661.594-8.19.819-11.344.725-3.155-.094-11.664-2.742-13.825-4.181-2.161-1.44-2.357-4.341-2.363-4.513-.006-.171.013-1.588-.003-2.06-.017-.474-.343-.796-.547-.655C10.498 59.048 10 59.8 10 62c0 2.2.774 3.247 1.9 4.263 1.128 1.017 3.723 2.27 5.513 3.059 1.79.788 6.866 2.343 8.067 2.393 1.2.051 2.518.014 2.577 0 .058-.013.103.285 1.943.285h4.94c.975 0 3.649-.399 5.053-1.38 1.405-.982 1.898-1.609 2.597-2.44.699-.83 2.16-2.063 3.425-2.203.844-.094 1.39-.13 1.639-.109.012.15.1.24.267.266.25.04 1.153.244 1.411.39.258.146 2.38 1.642 2.488 1.83.109.19-.063.359.223.6.287.241 1.824 1.58 4.055 2.143 2.23.561 6.126.903 7.902.903h9.333c2.103 0 4.78-.426 6.6-.903 1.82-.477 4.553-1.88 5.404-2.406.567-.351.73-.854.487-1.508a269.861 269.861 0 0 1-2.057-3.508Z" fill="#E74C5C"/>
        <path d="M43.617 61.117c.182-.192-3.685 1.343-3.781 1.468-.096.125-.336.911-.26 1.276.075.365 1.762 3.55 1.87 3.761.109.212.576.806.658.732.082-.074 1.341-1.935 1.833-2.18.493-.247.021-.198-.158-.195-.18.004-.812-.401-1.111-.702-.3-.3-.85-.94-.867-1.518-.018-.577 1.635-2.45 1.816-2.642Z" fill="#F66D77"/>
        <path d="M64.91 71.123c.055-.274 1.467-.087 1.693.111l.89.763h-2.798l.192-.77c.01-.04.017-.075.023-.104Z" fill="#60272B"/>
        <path d="M80.441 56.021c.085.147.145.239.169.252.155.081.437-.14.51 0l.468.972c.16.341.303.656.316.725.03.153-.245.188-.202.438l.015.058c-.958.27-2.697.663-4.038.942l-1.025.205c-1.702.325-19.102 2.759-21.112 3.08-2.011.32-2.47 2.271-2.645 2.584l-.146.225a50.17 50.17 0 0 1-.746 1.049l-.895 1.223-1.08-.779c-.34-.238-.615-.424-.698-.471-.258-.146-1.161-.35-1.411-.39-.166-.027-.255-.115-.267-.266l-.03-.002a1.04 1.04 0 0 1 .125-.762l.213-.34c.604-.94 2.08-3.052 3.261-3.623 1.363-.66 11.983-2.536 16.486-3.228l9.309-1.408c1.348-.199 2.495-.365 3.223-.464l.2-.02Z" fill="#DF4356"/>
        <path d="M80.441 56.021c.085.147.145.239.169.252.155.081.437-.14.51 0l.618 1.296c.091.2.157.355.166.4.03.154-.245.19-.202.439l.015.058c-.838.236-2.275.567-3.52.832l-1.543.315-1.545.248c-4.713.715-17.837 2.556-19.567 2.831-1.415.226-2.062 1.258-2.382 1.96l-.946-1.12c-.769-.895-1.346-1.521-1.73-1.88.253-.22.502-.397.74-.511 1.362-.66 11.982-2.536 16.485-3.228l9.309-1.408 3.223-.464.2-.02Z" fill="#DF5243"/>
        <path d="M80.441 56.021c.085.147.145.239.169.252.155.081.437-.14.51 0l.618 1.296c.091.2.157.355.166.4.03.154-.245.19-.202.439l.015.058c-.838.236-2.275.567-3.52.832l-1.543.315-1.545.248c-4.713.715-17.837 2.556-19.567 2.831-.87.139-1.45.583-1.842 1.067-.345-1.355-1.067-2.27-2.16-2.743l.54-.16c2.945-.804 11.661-2.334 15.629-2.943l9.309-1.408 3.223-.464.2-.02Z" fill="#D56931"/>
        <path d="M80.441 56.021c.085.147.145.239.169.252.155.081.437-.14.51 0l.618 1.296.15.347a.405.405 0 0 1 .016.054c.03.153-.245.188-.202.438l.015.058-.728.193-1.066.256c-.566.131-1.165.264-1.725.383l-1.544.315-1.545.248-19.567 2.831c-.156.025-.302.06-.44.102l-1.071-2.403 1.453-.305c3.867-.787 9.32-1.727 12.225-2.173l9.309-1.408 3.223-.464.2-.02Z" fill="#D8842D"/>
        <path d="M80.441 56.021c.085.147.145.239.169.252.155.081.437-.14.51 0l.618 1.296.15.347a.405.405 0 0 1 .016.054c.03.153-.245.188-.202.438l.015.058-.728.193-1.066.256c-.566.131-1.165.264-1.725.383l-1.544.315-1.545.248-15.576 2.252 1.763-3.124 3.526-.61c.878-.147 1.688-.279 2.385-.388l9.81-1.486 3.224-.464.2-.02Z" fill="#CB9D64"/>
        <path d="M80.441 56.021c.085.147.145.239.169.252.155.081.437-.14.51 0l.618 1.296.15.347a.405.405 0 0 1 .016.054c.03.153-.245.188-.202.438l.015.058-.728.193-1.066.256c-.566.131-1.165.264-1.725.383l-1.544.315-1.545.248-11.644 1.684 2.147-3.297 1.595-.257 9.81-1.486 3.224-.464.2-.02Z" fill="#B4B9AE"/>
        <path d="M80.441 56.021c.085.147.145.239.169.252.155.081.437-.14.51 0l.618 1.296.15.347a.405.405 0 0 1 .016.054c.03.153-.245.188-.202.438l.015.058-.728.193-1.066.256c-.566.131-1.165.264-1.725.383l-1.544.315-1.545.248-6.96 1.004 1.31-3.216 7.559-1.144 3.223-.464.2-.02Z" fill="#B0C5C4"/>
        <path d="M81.093 56.518c-.073-.162-.625.55-1.63.746-1.004.196-13.35 2.189-14.543 2.996-1.192.807 6.428-.666 8.01-.909 1.582-.242 6.438-1.342 7.174-1.492.735-.15 1.495.087 1.475-.148-.02-.236-.412-1.032-.486-1.193Z" fill="#A2B7B5"/>
        <path d="M63.167 60.366c1.038-.129 11.718-2.112 11.75-1.866.03.246-9.865 1.96-11.036 2.108-1.172.148-1.752-.113-.714-.242Z" fill="#989575"/>
        <path d="M74.916 58.5c.018.14-3.145.749-6.106 1.278l.143-.405 3.31-.555c1.535-.246 2.643-.397 2.653-.318Z" fill="#96ABA1"/>
        <path d="M56.615 59.89c-1.675.355-4.635 1.285-5.43 1.974-.75.648-2.534 2.904-2.84 3.26l-.212.216c-.123.146-.213.333.036.444l.491.198c.287.107.588.059.643.037.052-.021.341-.255.702-.687l.756-.925c.526-.657 1.815-2.126 3.35-2.53l.416-.096c2.286-.485 9.9-1.642 10.639-1.67h.156c.489.028-.286.355-3.237.85l-2.925.461c-2.364.36-4.162.62-4.687.824-.467.18-.791.488-.974.923l-.153.68c-.177.718-.344 1.177-.501 1.378L51.23 67.48a35.25 35.25 0 0 1-.186.25l-1.015-.735-.698-.471c-.258-.146-1.161-.35-1.411-.39-.166-.027-.255-.115-.267-.266l-.03-.002a1.04 1.04 0 0 1 .125-.762l.213-.34.336-.508c.715-1.045 1.926-2.632 2.925-3.115.58-.28 2.841-.783 5.593-1.32.084-.004.06.01-.093.045l-.108.024Z" fill="#A7213A"/>
        <path d="M65.322 60.112c.489.027-.286.354-3.237.85l-2.925.46-2.868.444c-.897.147-1.54.271-1.82.38-.466.18-.79.488-.973.923l-.153.68c-.177.718-.344 1.177-.501 1.378l-.065.088-.382-.024a1.661 1.661 0 0 1-.364-.064c-.87-.311-.267-1.597.232-2.352.536-.432 1.167-.82 1.846-.998l.415-.096.567-.113c2.771-.531 9.386-1.53 10.072-1.556h.156Z" fill="#BC4849"/>
        <path d="M65.322 60.112c.489.027-.286.354-3.237.85l-2.925.46-2.868.444-.623.106c-.573.102-.986.193-1.196.274-.296.115-.535.28-.716.497a3.64 3.64 0 0 1 .62-.929l.15-.033.567-.113 1.394-.252c3.146-.545 8.09-1.282 8.678-1.304h.156Z" fill="#A96E3F"/>
        <path d="M54.574 50.155c.44-.084 1.626-.178 2.272 0l.28.087c1.44.464 7.116 2.44 7.78 2.668.723.25 2.093.363 3.499 0l1.624-.392c2.068-.484 5.09-1.162 5.664-1.298l.53-.134c.626-.167 1.241-.348 1.393-.319.195.039 1.055 1.585 1.123 1.673.068.089-.112.197 0 .325l.124.218c.087.162.21.402.351.68l-3.492.864c-5.828 1.413-9.186 2.057-10.072 1.934-1.669-.233-6.81-2.7-9.44-2.982-1.686-.181-4.564 1.7-8.632 5.645l-.475.464-2.751-2.37c2.206-2.09 6.279-5.043 7.803-5.919l.61-.345c1.088-.606 1.432-.727 1.81-.799Z" fill="#EB6055"/>
        <path d="m56.846 50.155.28.087 7.78 2.668c.723.25 2.093.363 3.499 0l1.624-.392 5.664-1.298.53-.134c.626-.167 1.241-.348 1.393-.319.195.039 1.055 1.585 1.123 1.673.068.089-.112.197 0 .325l.124.218.351.68-3.492.864-2.428.578c-4.34 1.01-6.889 1.461-7.644 1.356-1.669-.233-6.81-2.7-9.44-2.982-1.538-.165-4.067 1.385-7.586 4.651l-2.535-2.433.84-.678c1.997-1.584 4.195-3.127 5.226-3.72l.61-.345.524-.285c.69-.363.976-.455 1.285-.514.44-.084 1.626-.178 2.272 0Z" fill="#E09047"/>
        <path d="m56.846 50.155.28.087 7.78 2.668c.723.25 2.093.363 3.499 0l1.624-.392 5.664-1.298.53-.134c.626-.167 1.241-.348 1.393-.319.195.039 1.055 1.585 1.123 1.673.068.089-.112.197 0 .325l.124.218.351.68-3.492.864-2.428.578-2.19.495c-3.018.66-4.836.947-5.454.86-1.669-.232-6.81-2.699-9.44-2.981-1.292-.139-3.283.933-5.972 3.215l-2.3-2.46.84-.63c1.383-1.024 2.661-1.893 3.377-2.305l.61-.345.524-.285.448-.225c.387-.182.606-.245.837-.289.44-.084 1.626-.178 2.272 0Z" fill="#D8B44B"/>
        <path d="M77.616 50.767c.195.039 1.055 1.585 1.123 1.673.068.089-.112.197 0 .325l.124.218.351.68-3.492.864-2.428.578-2.19.495-1.486.315c-2.136.435-3.46.617-3.968.546-.813-.114-2.45-.757-4.218-1.42l1.192-2.915 2.281.784c.724.25 2.094.363 3.5 0l1.624-.392 5.664-1.298.53-.134c.626-.167 1.241-.348 1.393-.319Z" fill="#C9AE58"/>
        <path d="M77.616 50.767c.195.039 1.055 1.585 1.123 1.673.068.089-.112.197 0 .325l.124.218.351.68-3.492.864-2.428.578-2.19.495-1.486.315-.928.183c-1.596.302-2.61.423-3.04.363-.475-.067-1.23-.313-2.128-.64l1.108-3.007.275.096c.724.25 2.094.363 3.5 0l1.624-.392 5.664-1.298.53-.134c.626-.167 1.241-.348 1.393-.319Z" fill="#C5B590"/>
        <path d="M77.616 50.767c.195.039 1.055 1.585 1.123 1.673.068.089-.112.197 0 .325l.124.218.351.68-3.492.864-2.428.578-2.19.495-1.486.315-.928.183c-.902.17-1.618.283-2.148.338l-.826.032-.214-.034.528-3.313a7.37 7.37 0 0 0 2.375-.211l1.624-.392 5.664-1.298.53-.134c.626-.167 1.241-.348 1.393-.319Z" fill="#CAC3B1"/>
        <path d="M77.616 50.767c.195.039 1.055 1.585 1.123 1.673.068.089-.112.197 0 .325l.124.218.351.68-3.492.864-2.428.578-2.19.495-1.486.315-1.466.282-.852-3.092c.358-.035.73-.098 1.105-.195l1.624-.392 5.664-1.298.53-.134c.626-.167 1.241-.348 1.393-.319Z" fill="#C6CCCA"/>
        <path d="M11.736 62.11c-.327-.11-.485-.413-.672-.3-.188.115-.184 1.248.237 2.264.422 1.016 1 1.964 2.114 2.786 1.114.82 2.396 1.273 3.858 1.806 1.462.533 4.553 1.447 5.418 1.64.865.191 3.038.508 3.694.577.656.068 2.23.086 3.219.096.988.011 4.463 0 5.674 0 1.21 0 3.054-.3 4.563-1.108 1.51-.809 2.103-1.265 2.097-1.35-.006-.086-.33-.402-.608-.913-.28-.511-1.731-3.08-1.84-3.698-.107-.618.232-1.17.265-1.254.033-.083-.002-.141-.322-.08-.32.06-6.248 1.345-7.692 1.62-1.443.276-6.535.322-7.9.223-1.366-.099-8.452-1.475-9.843-1.763-1.39-.288-1.936-.437-2.262-.547Z" fill="#DFDFE1"/>
        <path d="M11.064 61.81c.187-.113.345.19.672.3l.473.14c.361.096.904.223 1.79.406l1.597.318c2.604.508 7.176 1.368 8.245 1.445 1.365.1 6.457.053 7.9-.222l7.692-1.621c.32-.061.355-.003.322.08l-.098.204a2.41 2.41 0 0 0-.096.251c-.062-.23-.322-.284-.777-.161l-.744.18c-1.657.38-5.12 1.103-6.174 1.263-1.15.173-2.923.282-5.049.279l-1.522-.017c-1.717-.032-2.437-.113-4.982-.533l-1.062-.185c-2.773-.507-6.657-1.362-7.55-1.609l-.165-.052c-.385-.157-.325.05-.338.89-.01.686 1.031 2.43 1.912 3.455-.919-.765-1.428-1.629-1.809-2.547-.421-1.016-.425-2.15-.237-2.263Z" fill="#FFF"/>
        <path d="M45.665 65.47c-.842.105-1.273.418-1.678.42-.406.002-.488-.033-1.121-.57-.634-.536-1.028-1.271-.946-1.706.082-.435 1.25-1.855 2.09-2.758.841-.902 3.206-3.176 6.012-5.212 2.807-2.037 4.416-2.986 4.813-3.12.397-.136 1.247-.303 2.462.122 1.215.426 4.23 1.507 5.255 1.89 1.025.383 3.167.94 3.93.932.765-.007 5.314-1.05 6.874-1.382 1.56-.33 4.635-1.197 5.04-1.302.406-.106.586-.144.763.126.177.27 1.353 2.623 1.41 2.821.055.199.241.612-.232.685-.474.073-6.906 1.17-10.038 1.615-3.132.444-12.557 2.015-15.04 2.482-2.483.468-2.717.518-3.327.791-.611.273-1.38.84-2.029 1.641-.648.802-1.502 1.897-1.749 2.159-.247.262-.483.328-.845.334-.361.006-.801-.074-1.644.032Z" fill="#181516"/>
        <path d="M52.773 60.901c-.734.157-2.023.643-3.18 2.06-1.158 1.416-1.906 1.925-2.157 1.804-.251-.122-.809-.86-1.467-.604-.657.256-1.533 1.055-1.806 1.274-.272.22-.582.246-1.267-.379-.685-.625-.884-1.22-.755-1.52.129-.299.926-1.352 1.131-1.337.205.015 1.674-.078 2.372-.298.697-.221 13.135-4.361 15.72-5.1 2.587-.739 4.5-1.06 5.206-1.1.708-.04 1.901-.204 2.239-.304.338-.099 8.308-1.837 8.836-2.008.527-.171.852-.063.903.09.052.153.937 2.638.81 2.7-.127.063-5.462 1.082-7.31 1.352-1.85.27-10.07 1.59-12.785 2.137-2.715.548-5.755 1.077-6.49 1.233Z" fill="#373334"/>
        <path d="M43.73 61.803c-.033-.116-.399-.014 1.523-1.82 1.922-1.807 4.608-3.932 4.753-3.993.144-.06.33-.189.229.342-.102.53-.369 1.584.052 2.096s1.33.345 1.605.211c.274-.133 2.43-1.659 3.468-2.429 1.038-.77 2.259-1.733 2.32-1.902.06-.168-.078-.593-.45-.491-.371.101-2.893 1.676-3.756 2.173-.862.498-1.426.808-1.755.79-.328-.016-.48-.224-.58-.79-.1-.566-.52-.405-.634-.334-.114.07 1.179-.85 1.456-1.061.278-.212 2.59-1.814 3.675-1.908 1.085-.094 3.347.897 4.406 1.284 1.06.387 4.765 1.52 4.64 1.59-.126.071-3.65.851-4.799 1.258-1.149.407-7.886 2.543-9.19 2.923-1.304.38-5.5 1.777-5.893 1.908-.393.131-1.039.269-1.07.153Z" fill="#1B1A19"/>
        <path d="M50.799 55.745c-.242-.024-.377.352-.455.888-.077.535-.092 1.17.178 1.576.27.408.812.457 1.562.062.75-.396 4.446-3.287 4.897-3.59.45-.303.575-.456.466-.603-.11-.147-.422.072-.696.241-.273.17-2.004 1.157-2.59 1.51-.587.352-1.907 1.087-2.176 1.145-.27.058-.668.04-.847-.238-.178-.277-.097-.967-.339-.991Z" fill="#E2DFE0"/>
        <path d="M81.903 57.997c-4.404.913-7.858 1.561-10.362 1.945-3.917.6-15.331 2.16-16.477 2.417-1.145.258-1.99.85-2.167 1.47-.177.621-.206 1.19-.227 1.275-.02.086 1.649.138 8.067.17 6.42.033 16.668-.239 18.462-.42 1.793-.18 4.048-1.303 4.195-1.71.148-.407.211-1.582 0-2.37-.21-.788-1.389-2.039-1.564-2.142a.291.291 0 0 1-.002-.485c.054-.04.11-.137.075-.15Z" fill="#CBD4D2"/>
        <path d="m81.846 58.133-.099.096a.293.293 0 0 0 .02.349l.07.058-.454.083c-1.041.215-3.106.744-3.873 1.171-.934.52-.817 1.499-.789 1.747.028.248-.147.917-.592 1.095l-1.046.318c-.563.191-.95.424-.03.635 1.36.311 5.029.156 6.411.584-.718.28-1.53.512-2.265.586l-.618.046c-2.857.177-11.96.403-17.844.373l-3.97-.028c-3.177-.032-4.112-.078-4.097-.142.02-.086.05-.654.227-1.275.176-.62 1.022-1.212 2.167-1.47l.279-.053c1.947-.345 11.056-1.6 15.31-2.23l2.221-.245c1.58-.181 2.966-.357 3.564-.472l4.605-1.061c.39-.087.683-.148.803-.165Z" fill="#BAC9C7"/>
        <path d="m70.653 60.076 1.204-.133.779-.056c.733-.045 1.326-.055 1.707-.012 1.953.218.225 1.748-.218 2.57-.425.79-6.006 2.498-7.263 2.648l-.139.011c-.125.001-.368.054-.712.143-1.87.025-3.688.035-5.274.027l-5.551-.048c-1.918-.03-2.529-.07-2.517-.122.022-.086.051-.654.228-1.275.176-.62 1.022-1.212 2.167-1.47l.279-.053 1.931-.304c3.466-.518 9.976-1.421 13.379-1.926Z" fill="#AABAB9"/>
        <path d="M57.274 62.002 66 60.747l.657.197c1.7.529 2.952 1.094 2.593 1.41-.55.484-3.74 1.897-6.181 2.921h-2.33l-5.552-.049-1.508-.034c-.748-.024-1.017-.053-1.009-.088.022-.086.051-.654.228-1.275.176-.62 1.022-1.212 2.167-1.47l.279-.053 1.931-.304Z" fill="#99A7A6"/>
        <path d="m59.587 64.004.017.126c.077.267.035.694-.151 1.131l-4.267-.035-1.508-.034c-.748-.024-1.017-.053-1.009-.088.022-.086.051-.654.228-1.275.176-.62 1.022-1.212 2.167-1.47l.279-.053 1.931-.304 4.347-.625c-1.18.938-2.042 2.039-2.034 2.627Z" fill="#909797"/>
        <path d="M81.812 58.914c-.02-.087.104-.083.29-.033.412.426 1.132 1.294 1.292 1.893.211.788.148 1.963 0 2.37-.021.06-.088.135-.192.22l-.479.234c-1.43.68-.501-.872-.106-1.442.396-.57.282-1.028.228-1.501-.055-.473-.97-1.482-1.033-1.74Z" fill="#CBD0CC"/>
        <path d="M82.103 58.881c.411.426 1.131 1.294 1.291 1.893.057.533.045 1.04-.02 1.294-.132.51-.209-1.272-.811-2.187-.318-.483-.486-.82-.505-1.014l.045.014Z" fill="#8DAEA7"/>
        <path d="M63.329 61.833c-2.111.495-6.893.757-7.853 1.223-.583.284-.635 1.007-.154 2.17l-1.515-.03c-.846-.025-1.146-.055-1.137-.092.02-.086.05-.654.227-1.275.176-.62 1.022-1.212 2.167-1.47l.49-.09 3.257-.493c2.065-.3 4.676-.67 7.084-1.014l-.675.384c-.43.232-.971.472-1.891.687Z" fill="#A58D7C"/>
        <path d="M56.68 62.388c-1.155.267-1.932.318-2.632.862-.7.544.295.917.971.627.676-.291 4.708-.572 6.715-.612 1.339-.027 2.895-.099 4.669-.215-2.303-.383-3.875-.584-4.717-.604-1.262-.03-3.85-.326-5.005-.058Z" fill="#85857A"/>
        <path d="M53.23 64.32c.11.118 1.837.173 4.101.184l8.034-.019c4.311.008 9.54.075 11.682.352l.262.044c.105.023.171.048.201.075l-2.241.087c-3.62.12-8.905.228-13.1.234l-5.403-.03c-3.176-.033-4.111-.079-4.096-.143.02-.086.05-.654.227-1.275.071-.25.25-.495.515-.716-.2.47-.297 1.086-.182 1.208Z" fill="#967367"/>
        <path d="M53.027 64.52c.118.065.454.104 1.008.116 3.65.05 17.127.039 18.677.137l.093.008c.582.063-4.765.308-10.038.494l-.599.002-5.402-.03-3.152-.057c-.7-.024-.952-.052-.945-.086.022-.086.051-.654.228-1.275l.045-.118c-.038.361-.092.711.085.809Z" fill="#715B46"/>
        <path d="M75.357 61.208c.696-.131.78-.669.602-.92-.177-.25-9.681 1.047-11.95 1.349-2.27.302-5.517.532-6.982.76-1.465.23-1.51.86-.375.761 1.134-.1 3.656-.178 5.369-.163 1.712.014 4.878.169 7.244 0 2.365-.17 5.271-.756 5.31-.839.04-.083-.263-.24 0-.52.264-.279.086-.297.782-.428Z" fill="#77968D"/>
        <path d="M72.918 60.498c.03.144-.092.319-.399.529-2.813 1.927-4.665 1-5.247 1.405-.264.184.737.397 2.09.555l-.097.008c-2.169.155-5.01.038-6.787.006l-.457-.006c-1.713-.015-4.235.064-5.369.163-1.134.1-1.09-.531.375-.76l.729-.099c1.37-.164 3.448-.335 5.228-.537l7.703-.997 2.231-.267Z" fill="#6A817A"/>
        <path d="m60.906 62.995-1.432.028a54.27 54.27 0 0 0-2.822.135c-1.134.1-1.09-.531.375-.76l.729-.099c1.37-.164 3.448-.335 5.228-.537l.295-.04-.516.178c-1.262.443-2.266.886-1.857 1.095Z" fill="#737872"/>
        <path d="m62.94 61.767.547-.064 7.037-.918c2.777-.344 5.344-.626 5.435-.497.177.251.094.789-.602.92s-.518.15-.781.429c-.168.178-.106.307-.049.398-1.054.015-4.131.402-4.927.555-.966.185-3.898.083-4.732.036-.834-.047 3.238-.296 3.904-.37l.684-.096c.903-.137 2.352-.375 3.349-.52l1.12-.158c.964-.15 1.813-.35 1.768-.455-.048-.114-1.134.001-2.211.217l-.269.057c-1.1.238-3.637.484-7.692.733l-.653.04c-2.95.174-2.641-.064-1.928-.307Z" fill="#B4C6BE"/>
        <path d="M74.284 59.98c-2.359.044-8.23 1.207-9.884 1.515-1.654.31 1.597.177 2.84.132 1.242-.045 7.09-.711 8.094-.876 1.004-.164 1.309-.813-1.05-.77Z" fill="#D5DEDC"/>
        <path d="M74.84 60.081c-.976-.055-3.388.372-4.343.503-.954.13-4.223.679-3.867.705.357.027 5.685-.435 7.024-.606 1.34-.172 2.163-.546 1.186-.602Z" fill="#FFF"/>
        <path d="M77.303 59.476c-.603.235-1.071.653-.96 1.064.112.411.139.646.024.964-.115.318-.021.708-.023.781-.001.074 1.424.047 1.776.06.352.012 3.052-.118 3.624 0 .573.117.904-.816.871-1.147-.033-.33-.295-1.707-.695-2.066-.4-.358-.394-.57-.944-.485-.55.086-3.07.594-3.673.83Z" fill="#DEE2E2"/>
        <path d="M51.374 64.83c-.24.132-1.169 1.045-1.37 1.236a4.71 4.71 0 0 0-.505.6c-.05.076 2.037 1.765 2.13 1.793.093.028.268-.26.415-.137.146.124 1.973 1.452 2.77 1.818.797.366 2.157.832 4.755 1.01 2.598.177 11.926.198 13.117.198 1.19 0 4.776-.22 6.778-.662 2.001-.442 5.294-1.876 6.186-2.529.405-.294.35-.956.35-1.157 0-.2-1.49-4.118-1.802-4.495-.208-.252-.43-.382-.668-.392.071.535-.228.971-.898 1.307-1.005.504-4.576 1.358-10.612 1.297-6.035-.06-13.045.137-15.292.17-2.247.034-3.32-.046-3.942-.168-.622-.122-1.172-.023-1.412.11Z" fill="#E5E3E5"/>
        <path d="M83.53 62.113c.237.01.46.14.668.392C84.51 62.882 86 66.799 86 67l.002.224c-.003.285-.048.713-.352.933-.892.653-4.185 2.087-6.186 2.53-1.212.267-3.004.453-4.493.558l-1.257-6.535c5.013-.095 8.011-.836 8.918-1.29.67-.336.969-.772.898-1.307Z" fill="#E8E8E8"/>
        <path d="M83.53 62.113c.237.01.46.14.668.392C84.51 62.882 86 66.799 86 67l.002.224c-.003.285-.048.713-.352.933-.82.6-3.671 1.862-5.681 2.405l-2.445-6.07 1.045-.12c2.142-.28 3.502-.671 4.063-.952.67-.336.969-.772.898-1.307Z" fill="#EBEBEB"/>
        <path d="M83.53 62.113c.237.01.46.14.668.392C84.51 62.882 86 66.799 86 67l.002.224c-.003.285-.048.713-.352.933-.25.183-.69.428-1.237.696l-.734-1.665c-.43-.958-.74-1.611-.935-1.961-.385-.695-1.357-.966-2.232-1.177 1.047-.217 1.754-.447 2.12-.63.67-.336.969-.772.898-1.307Z" fill="#F0F0F0"/>
        <path d="M83.53 62.113c.237.01.46.14.668.392C84.51 62.882 86 66.799 86 67l.002.233c0 .05-.003.103-.007.16l-.216-.438c-.638-1.351-1.727-4.017-1.834-4.236-.124.342-.76 1.347-3.458 1.775-2.051.325-5.832.428-10.423.46l-14.64.063a30.949 30.949 0 0 1-1.98-.049l-.65-.044c-.946-.055-1.245-.01-1.71.2l-.196.105.336-.292c.062-.05.114-.088.15-.108.206-.114.64-.203 1.15-.15l.558.09c.547.077 1.377.128 2.753.126l8.969-.155c2.113-.028 4.388-.043 6.566-.028l.65.005c6.036.06 9.607-.793 10.612-1.297.67-.336.969-.772.898-1.307Z" fill="#F4F4F4"/>
        <path d="M63.03 49.653c-.993-.312-1.454-.423-2.293-.277-.838.146-2.48.653-1.455 1.196 1.025.543 5.265 1.965 6.176 2.198.91.232 1.66.066 2.227.012.568-.054 1.62-.351 1.787-.476.167-.124-5.45-2.34-6.442-2.653Z" fill="#3F3F3F"/>
        <path d="M70.71 59.901c.048-.163 8.113-1.637 9.079-1.862.965-.225 1.754-.324 1.575-.774-.18-.45.389.38.16.603-.228.224-1.568.44-2.55.611-.982.17-8.313 1.586-8.264 1.422Z" fill="#CADDDC"/>
    </g>
</svg>
