<svg width="96" height="96" xmlns="http://www.w3.org/2000/svg">
    <defs>
        <path id="a" d="M0 0h96v96H0z"/>
    </defs>
    <g fill="none" fill-rule="evenodd">
        <path d="M77.686 33.548c1.042-.573 1.96.05 2.2 1.026.24.975-.12 1.766-.674 2.463l-.73.926c-.458.595-.9 1.21-.951 1.457-.08.39-.26 1.907-.166 2.522.092.614.793 1.759.91 2.29l.176.962c.085.443.188.86.322.951.174.117.485.001.719-.112l.23-.12c.191-.103.946-.45 1.17-.342.222.108.267.706.285 1.077.019.372.559 1.11.504 1.654-.055.544.255 1.393.37 1.913.114.52.156.972-.028 1.127-.184.155-.598.298-.577.45.022.151 1.068 2.476 1.138 2.767.047.194-.014.584-.182 1.172-.337.175-.577.26-.72.253-.165-.008-.702-1.287-1.145-2.386l-.38-.948-.229-.542c-.665-1.536-2.162-4.812-2.563-6.195l-.42-1.537c-.355-1.347-.86-3.339-1.517-5.976a5.325 5.325 0 0 1 .17-2.239 4.364 4.364 0 0 1 2.088-2.613Zm-1.174 2.446c-.174 1.259.174 3.027.423 3.06.25.033.507-.516.827-1.046l.48-.756c.224-.372.432-.794.512-1.277.14-.845-.05-1.478-.65-1.603-.6-.124-1.42.363-1.592 1.622Z" fill="#0B0B0B"/>
        <path d="M29.134 53.094c.803-.278 1.264-.482 1.383-.614.177-.198.528-.443.918-.555a5.43 5.43 0 0 0 1.686-.798c.668-.475 2.753-1.873 3.688-2.27.623-.265 1.329-.55 2.117-.857.126-.391.258-.636.397-.733.138-.098.4-.098.784 0 .278-.94.582-1.518.913-1.738.331-.22.542-.22.633 0 .24-.08.466-.08.678 0 .317.12 1.172-.236 1.387-.45.214-.216.215-.871.39-1.362.176-.491.817-.723 1.144-.758.218-.023.693.154 1.426.532l.14-.248c-.262-.74-.368-1.235-.318-1.485.05-.25.306-.454.767-.614.232-.3.439-.471.62-.516a.815.815 0 0 1 .46 0c.185-.077.308-.419.37-1.025.092-.91.627-1.998.654-2.537.026-.539.437-2.648.39-3.07-.046-.423.205-.994.25-1.103.046-.109-.06-.828 0-1.132.061-.304.39-.867.53-.807.138.061 1.07.295 2.323 1.315 1.254 1.02 2.348 3.113 2.709 4.322.361 1.21.765 3.912.775 4.39.01.477.212 3.718 0 5.32-.212 1.6-2.64 9.32-2.94 10.309-.199.66-.658 2.09-1.376 4.294l-4.146.951c-2.488-2.356-5.176-4.294-8.064-5.814-2.888-1.52-6.451-2.503-10.688-2.947Z" fill="#121D35"/>
        <path d="m50.415 32.87.238.12c.768.403 3.074 1.802 3.332 3.793l.156 1.25c.161 1.372.244 2.474.182 3.563l-.048.676c-.126 1.564-.409 4.243-.451 5.457l-.016.64c-.08 1.834-.628 7.69-1.14 8.001-.553.337-6.091 1.797-6.988 1.605-.856-.184-1.302-.736.498-1.47l.273-.106c1.99-.74 4.502-2.083 5.18-2.563l.465-.356c.5-.397 1.04-1.028.089-2.395-1.129-1.622-3.004-3.229-3.408-3.888l-.06-.119c-.212-.563-2.198-2.184-1.953-2.422.245-.238.744-1.084.807-1.336.042-.168-.05-.743-.278-1.724l.175-.686c.152-.157.292-.25.418-.282a.815.815 0 0 1 .462 0c.184-.077.307-.419.368-1.025.093-.91.628-1.998.655-2.537.024-.49.365-2.277.392-2.916l-.002-.155c-.046-.422.205-.993.25-1.102a.656.656 0 0 0 .01-.2c.113.043.244.103.394.176Z" fill="#37496F"/>
        <path d="M50.23 34.792c-.243.204.304 1.06 1.192.974.888-.087 1.253-.733.901-1.12-.352-.386-1.848-.059-2.092.146ZM49.888 37.485c-.243.205.532 1.19 1.284 1.246.751.056 1.22-.888 1.026-1.415-.195-.527-2.066-.035-2.31.17ZM49.672 40.29c-.192.426.399 1.326 1.15 1.382.752.057 1.19-1.008.995-1.535-.195-.527-1.952-.272-2.145.153Z" fill="#596B91"/>
        <path d="M51.872 48.249c-1.018-.375-.636-.896-1.103-1.707-.388-.674.127-1.214-.4-1.396-.69-.239-.956-.372-1.313-.93-.43-.673-.165-.994-.244-1.398-.205-1.058-1.158-.332-1.219-.799-.025-.199.687-.617 1.578-.442 1.039.203 2.477.929 2.48.902a9.344 9.344 0 0 1 .512-2.187c.144-.392.226-.41.839-1.408.292-.475.745-1.847.18-3.22-.662-1.61-2.234-2.93-2.085-2.843.233.135 2.176 1.03 2.966 2.635 1.01 2.052.878 4.918.854 5.11-.067.518-2.027 8.058-3.045 7.683Z" fill="#1A2842"/>
        <path d="m50.54 30.954.431.16c.415.168 1.088.5 1.893 1.155 1.254 1.02 2.348 3.113 2.709 4.322.337 1.13.711 3.558.768 4.265l.086 2.176c.03 1.113.033 2.42-.079 3.268a9.381 9.381 0 0 1-.171.847l-.254.177c-.669.532-1.83.226-1.742-.246l.084-.57c.147-1.087.405-3.26.417-3.857.014-.745-.492-4.261-.762-5.947-.27-1.685-1.89-3.067-2.656-3.57a2.746 2.746 0 0 0-1.24-.428l-.027-.483a2.198 2.198 0 0 1 .015-.462c.06-.304.389-.867.528-.807Z" fill="#0A1938"/>
        <path d="m50.54 30.954.431.16.358.16c.402.194.931.503 1.535.995 1.254 1.02 2.348 3.113 2.709 4.322.337 1.13.711 3.558.768 4.265l.028.736c-.553-3.248-1.228-5.515-2.026-6.8-.888-1.432-2.259-2.613-4.112-3.543.11-.186.236-.327.31-.295Z" fill="#334365"/>
        <path d="m52.577 52.941.822.007-.116.889c-.187 1.339-.404 2.406-.614 2.533-.554.337-6.092 1.797-6.989 1.605-.856-.184-1.302-.736.498-1.47l.273-.106c1.99-.74 4.502-2.083 5.18-2.563l.465-.356c.179-.142.362-.314.481-.539Z" fill="#24314C"/>
        <path d="M10.433 63.288c.058-1.422.183-2.34.377-2.752.29-.62 1.221-1.33 4.464-2.453 3.242-1.124 10.756-3.519 12.083-4.223.724-.514 1.011-.834 1.643-1.04.631-.206 4.166.069 5.317.188 1.15.12 4.034.97 7.045 2.701 2.008 1.155 4.459 3.068 7.354 5.741-6.415 2.492-11.566 3.87-15.453 4.133-5.83.395-14.482-.185-17.053-.432-1.715-.165-3.64-.786-5.777-1.863Z" fill="#E4E7E6"/>
        <path d="M34.317 53.008c.706.074 2.064.422 3.704 1.08l.49-.306c-3.224 2.102-7.034 3.614-11.43 4.533L26 58.537c-5.297 1.06-11.457 1.916-13.057.451a25.67 25.67 0 0 1 1.864-.74l1.224-.425c3.528-1.198 10.095-3.309 11.327-3.963.724-.514 1.011-.834 1.643-1.04.631-.206 4.166.069 5.317.188Z" fill="#F3F6F5"/>
        <path d="M31.532 53.907c1.734.234 5.156 1.018 7.165 2.031 2.01 1.014 4.42 2.623 4.863 2.986.427.35 1.812 2.965 1.725 3.801-4.85 1.69-8.856 2.643-12.022 2.858-5.83.395-14.482-.185-17.053-.432-1.715-.165-3.64-.786-5.777-1.863l.043-.793c.068-.976.18-1.629.334-1.96.174-.37.576-.773 1.566-1.277-.11.603.403 1.075 1.537 1.417 2.754.832 14.672 1.264 19.814 1.002l.847-.112c2.551-.366 1.874-6.08 1.238-6.335-1.06-.424-3.216-1.163-4.28-1.323Z" fill="#D1D5D4"/>
        <path d="M13.012 61.633c1.383.55 8.3 1.549 11.12 1.769l.615.038c2.244.09 5.356.66 6.53 1.836.168.168 0 .305-.42.414l-1.257.022c-5.307.053-11.32-.362-13.39-.561-1.715-.165-3.64-.786-5.777-1.863l.043-.793c.068-.976.18-1.629.334-1.96.108-.23.305-.474.677-.746.109.57.447 1.417 1.525 1.844Z" fill="#BBC0BE"/>
        <path d="m34.081 52.985.236.023c1.15.12 4.034.97 7.045 2.701 1.78 1.024 3.91 2.645 6.39 4.864-.313.165-.76.278-1.337.342l-.927-.874c-2.237-2.08-3.855-3.386-4.856-3.919l-6.551-3.137Z" fill="#BAC2BF"/>
        <path d="M26.797 57.21c-3.845.034-10.045.856-11.71 1.507-.896.35-1.31.594-1.367.871-.068.327.346.582 1.307.874 1.656.502 7.43 1.568 10.501 1.963l1.048.12 1.471.141c2.833.248 4.014.153 4.99-.49 1.345-.888 2.098-3.43 1.266-4.064-.78-.596-3.62-.957-7.506-.922Zm.002.2c3.836-.034 6.652.323 7.383.88.697.532-.009 2.916-1.256 3.738-.925.61-2.09.701-4.88.457l-1.699-.166-.795-.093c-3.061-.394-8.823-1.457-10.466-1.956l-.495-.166c-.494-.186-.702-.347-.675-.475.036-.176.429-.407 1.243-.726 1.638-.64 7.817-1.459 11.64-1.493Z" fill="#AB3048" fill-rule="nonzero"/>
        <path d="m20.655 58.043-1.017.105c-3.386.375-4.968.803-5.112 1.244-.075.234.254.396.91.571a14.4 14.4 0 0 0 1.673.322c1.038.138 3.472.325 5.052.384 1.691.063 3.089-.372 4.107-1.31.587-.542.33-1.03-.643-1.27-.987-.243-2.697-.267-4.97-.046Zm4.922.241c.839.207 1.002.516.555.927-.976.9-2.322 1.32-3.964 1.258l-.847-.039c-1.497-.08-3.327-.229-4.185-.343a14.208 14.208 0 0 1-1.65-.317c-.493-.132-.783-.275-.77-.316.112-.344 1.834-.785 5.453-1.161l.506-.05c2.251-.22 3.942-.196 4.902.041Z" fill="#AB3048" fill-rule="nonzero"/>
        <path d="M20.31 58.629c-.12.432-.002.632.353.602.532-.045 4.19-.844 4.333-.779.142.065-.274.246-.853.375-.58.13-2.42.613-3 .777-.579.164-1.879.527-1.78-.004.066-.354.382-.678.947-.971Z" fill="#AB3048"/>
        <path d="m27.92 53.441.33-.008c1.909-.049 4.58.02 6.228.474 2.472.68 5.42 1.996 7.185 3.159 1.02.671 2.605 1.954 4.752 3.849l1.031.917-.199.178-1.116.409-.673-.96c-1.713-2.236-6.054-4.743-7.752-5.561-1.697-.818-4.366-1.705-7.16-1.991a26.043 26.043 0 0 0-3.06-.14l.434-.326Z" fill="#8F918F"/>
        <path d="M50.653 61.388c.005-2.694.259-4.87.762-6.527.756-2.487 4.045-8.173 4.935-9.8.89-1.627 2.201-3.092 4.03-3.142 1.83-.05 3.416.825 5.158 1.968 1.742 1.144 4.346 1.753 5.952 1.225 1.605-.528 2.346-2.002 2.747-3.655.4-1.653.614-3.134 1.123-3.489.51-.354 1.032 1.286 1.065 1.782.022.331.17 1.271.446 2.821.894 3.033 1.374 4.647 1.44 4.842.1.293 1.37 2.894 1.463 3.203.063.206.766 2.078 2.109 5.615-3.427-.105-5.6-.105-6.523 0-1.383.157-7.78 3.414-10.557 3.862-2.777.448-8.478-.083-9.635 0-.77.056-2.276.487-4.515 1.295Z" fill="#D5D0C5"/>
        <path d="M60.535 46.021c1.352-.147 5.849 2.333 6.125 4.881.13 1.195-2.09 5.342-5.11 9.373l-1.419-.022c-2.207-.058-4.31-.207-4.963-.16-.77.056-2.276.487-4.515 1.295.005-2.694.259-4.87.762-6.527.498-1.637 2.168-4.519 3.454-6.858l.645-.624c1.664 3.684 2.733 6.393 3.871 5.38 1.914-1.703-.202-6.59 1.15-6.738Z" fill="#C9C2B1"/>
        <path d="m76.417 39.694.054.463c.067.482.2 1.287.4 2.414l1.44 4.842.202.461c.353.765 1.046 2.205 1.224 2.643l2.146 5.714-1.473-.04c-.684-.203-1.18-.388-1.488-.558l-.138-.083c-.772-.517-3.748-1.71-4.797-2.038l-.799-.217c-.595-.146-1.137-.192-1.397.36-.231.492-.39 1.447-.479 2.865l-1.157-.158c-4.833-.698-7.276-1.516-7.33-2.455-.087-1.518-1.173-3.543-3.06-4.758-1.736-1.119-3.598-1.868-4.192-2.701l.777-1.387c.488-.894 1.105-1.74 1.864-2.327l1.488.859c2.514 1.423 7.131 3.858 9.545 3.731 3.193-.168 5.216-1.586 5.834-3.392l.37-1.119c.272-.844.594-1.883.966-3.119Z" fill="#AEAAA1"/>
        <path d="M63.684 52.746c-.684-.255-2.93-2.73-1.427-3.242 1.502-.513 4.907-1.37 6.63-1.414 1.723-.043 3.482-.374 4.435-1.017.953-.642 2.313-2.469 2.599-2.954.286-.485 2.429 2.444 2.478 2.776.05.333-.214 1.034-.36 1.51-.099.318.059.83.472 1.538l1.39 5.735a43.92 43.92 0 0 1-2.27-1.038c-1.288-.628-3.839-1.597-4.755-1.594-.916.003-1.302.27-1.442.86l-.521 2.171c-4.363-2.051-6.773-3.162-7.229-3.331Z" fill="#827D73"/>
        <path d="m76.264 39.04-.069.525c-.07.504-.141.92-.217 1.25l-.057.23c-.203.747-.458 2.972-1.664 4.278-1.207 1.306-3.308 2.268-5.75 1.648-2.269-.576-3.475-1.52-4.54-2.137l-.243-.136c-1.129-.606-2.172-1.77-3.285-1.17-1.114.6-2.635 2.32-3.26 3.175-.624.855-2.056 4.121-2.75 6.09a75.37 75.37 0 0 0-1.21 3.727l-1.955.391.182-2.144-.03.094c.755-2.487 4.044-8.173 4.934-9.8.89-1.627 2.201-3.092 4.03-3.142 1.83-.05 3.416.825 5.158 1.968 1.742 1.144 4.346 1.753 5.952 1.225 1.605-.528 2.346-2.002 2.747-3.655l.407-1.777c.202-.849.403-1.494.716-1.712.349-.243.704.45.904 1.071Z" fill="#C7C4BD"/>
        <path d="m59.007 44.646-.078.072c-.63.61-1.62 2.22-2.002 2.715-.916-.572-1.115-.849-1.13-.35-.01.361.18.454.31 1.637a50.938 50.938 0 0 0-1.677 4.073 75.37 75.37 0 0 0-1.212 3.727l-2.397.77.623-2.52.09-.267c.93-2.637 3.967-7.889 4.816-9.442.38-.697.839-1.363 1.382-1.902.699.347 1.122.843 1.275 1.487Z" fill="#A29D94"/>
        <path d="m75.823 38.12-.017.13c-.098.602-.334 1.418-.644 2.429-.398 1.299-.946 2.693-1.953 3.738-1.007 1.045-2.738 1.444-3.778 1.426-.954-.016-2.164-.365-3.747-1.278l-.441-.264c-1.801-1.11-3.43-1.966-4.45-1.993-1.021-.027-1.74.242-2.28.65l-.478.375a85.72 85.72 0 0 0-1.294 1.073c.866-1.345 2.06-2.443 3.64-2.487 1.828-.05 3.415.825 5.157 1.968 1.742 1.144 4.346 1.753 5.952 1.225 1.605-.528 2.346-2.002 2.747-3.655l.407-1.777c.202-.849.403-1.494.716-1.712.158-.11.317-.028.463.153Z" fill="#E1E1E1"/>
        <path d="M52.962 60.186c-.16-4.228-.404-7.375-.728-9.442-.486-3.099-1.355-7.463-1.366-7.79-.01-.328 1.84-2.033 2.48-2.608.429-.384 1.01-.318 1.746.196 1.398.696 2.335 1.176 2.81 1.441.475.265 1.686 1.04 3.635 2.325 1.295.912 1.946 1.416 1.952 1.513.008.146-1.392 2.95-1.635 3.06-.244.109-2.913-1.503-3.421-1.974-.508-.47-1.957-1.366-2.367-1.387-.41-.022-.872.245-.772 1.196.1.952 1.674 10.352 1.883 11.829.14.984.14 1.531 0 1.64h-4.217Z" fill="#E4E7E7"/>
        <path d="m55.094 40.542 1.456.732c.515.261.914.47 1.197.623l.157.086c.475.265 1.686 1.04 3.635 2.325l.552.392c.928.665 1.395 1.039 1.4 1.121.008.146-1.392 2.95-1.635 3.06-.228.102-2.589-1.309-3.302-1.873l-.12-.1c-.507-.47-1.956-1.367-2.366-1.388-.41-.022-.872.245-.772 1.196l.153 1.06c.109.706.265 1.682.44 2.764-1.02-.656-2.783-2.089-4.26-3.336l-.721-3.964a3.291 3.291 0 0 1-.04-.287c-.01-.327 1.84-2.032 2.48-2.607.429-.384 1.01-.318 1.746.196Z" fill="#D5D9D9"/>
        <path d="M51.591 46.013c1.039.793 1.704 1.252 1.996 1.376 1.29.55 1.475.053 1.468-.108-.027-.664-.19-2.288.96-1.934 2.577.792 2.7 1.376 3.38 1.802.68.426 3.96-1.258 2.436-2.383s-4.942-3.133-5.68-3.432c-.737-.3-1.61-.977-2.095-.97-.486.008-2.866 2.003-2.917 2.287-.035.189.116 1.31.452 3.362Z" fill="#C8CCD1"/>
        <path fill="#767676" d="m55.515 43.005.459.563.369-.629z"/>
        <path fill="#F6F6F6" d="m55.927 42.592-.412.413.457.335.37-.4z"/>
        <path d="M53.669 42.401c.516.935-1.102 4.032-1.647 3.802-.364-.153-.618-.743-.764-1.768-.174-1.141-.167-1.434-.141-1.573.026-.142 2.036-1.396 2.552-.46Z" fill="#A3A9AF"/>
        <path d="M53.255 42.604c-.177.44-.122.6.259.487.381-.112.29-.71.2-.833-.09-.123-.281-.094-.459.346Z" fill="#4F4E4E"/>
        <path d="M58.07 60.47c.833-2.577 1.789-4.427 2.867-5.549 1.616-1.682 2.284-2.064 2.245-3.603-.027-1.027-.469-1.84-1.326-2.438-.185.06-.491-.073-.92-.403-.642-.494-2.12-1.715-2.185-1.944-.065-.23 1.28-2.2 1.612-2.582.332-.383.526-.71 1.493-.236.967.473 3.536 2.278 4.807 3.023 1.27.745 3.448 1.335 4.615 1.3 1.167-.034 3.222-.747 3.881-1.942.66-1.195.868-2.473 1.202-2.912.334-.44.578-.55.633-.53.055.019 1.161 3.722 1.155 3.84-.004.078-.004.16 0 .244.102.137.152.262.148.374-.005.167-.83 1.11-.919 1.454-.09.344.392.812.92 1.01.526.2.987.249 1.145.382.105.089.208.212.31.371.05.147.114.255.192.325.118.104 1.432 3.25 1.546 3.73.075.319.139 1.008.19 2.067l-1.058.032c-1.04-.913-1.935-1.556-2.686-1.928-1.126-.558-3.604-1.608-4.35-1.822-.745-.213-1.917-.154-2.292.533-.25.458-.32 1.714-.21 3.767-3.434 1.538-5.621 2.514-6.562 2.927-.941.413-3.092.583-6.454.51Z" fill="#DFE3E2"/>
        <path d="M59.159 45.703c-.133.416-.094.712.117.889l.667.557c.612.5 1.427 1.132 1.646 1.113l.378-.048c.058-.005.1 0 .126.021l.027.048c.032.128 1.168 1.494 1.269 2.49.068.665.035 1.159-.097 1.482a21.99 21.99 0 0 0-.112-.75l.002-.187c-.023-.88-.351-1.603-.985-2.169l-.16-.314c-.058-.077.18-.444 0-.37-.183.074-.264.343-.749.082s-2.228-1.707-2.412-1.92c-.123-.14-.03-.449.283-.924Z" fill="#F1F1F1"/>
        <path d="M76.994 42.653c.055.02 1.161 3.723 1.155 3.84-.004.079-.004.16 0 .245.102.137.152.262.148.374-.005.167-.83 1.11-.919 1.454-.09.344.392.812.92 1.01.526.2.987.249 1.145.382.105.089.208.212.31.371.05.147.114.255.192.325.118.104 1.432 3.25 1.546 3.73.075.319.139 1.008.19 2.067l-1.058.032c-1.04-.913-1.935-1.556-2.686-1.928-1.126-.558-3.604-1.608-4.35-1.822-.745-.213-1.917-.154-2.292.533-.25.458-.32 1.714-.21 3.767l-6.562 2.927c-.941.413-3.092.583-6.454.51.834-2.577 1.79-4.427 2.868-5.549l1.155-1.177c.39-.406.669-.736.847-1.1.55.262 1.183.521 1.893.776 3.305 1.184 4.164-2.586 3.592-3.916-.26-.607-1.308-1.818-3.141-3.635l.883.567c.18.112.348.215.497.302 1.27.745 3.448 1.335 4.615 1.3 1.167-.034 3.222-.747 3.881-1.942.66-1.195.868-2.473 1.202-2.912.334-.44.578-.55.633-.53Z" fill="#CED6D4"/>
        <path d="M76.994 42.653c.055.02 1.161 3.723 1.155 3.84-.004.079-.004.16 0 .245.102.137.152.262.148.374-.005.167-.83 1.11-.919 1.454-.09.344.392.812.92 1.01.526.2.987.249 1.145.382.105.089.208.212.31.371.05.147.114.255.192.325.118.104 1.432 3.25 1.546 3.73.075.319.139 1.008.19 2.067l-1.058.032c-1.04-.913-1.935-1.556-2.686-1.928-1.126-.558-3.604-1.608-4.35-1.822-.477-.136-1.129-.161-1.634.019a73.476 73.476 0 0 1-1.128-3.926 2.454 2.454 0 0 1-.067-.81c.193.02.365.027.52.023 1.167-.035 3.222-.748 3.881-1.943.66-1.195.868-2.473 1.202-2.912.334-.44.578-.55.633-.53Z" fill="#BEC7C5"/>
        <path d="M76.994 42.653c.055.02 1.161 3.723 1.155 3.84-.004.079-.004.16 0 .245.102.137.152.262.148.374-.005.167-.83 1.11-.919 1.454-.09.344.392.812.92 1.01.526.2.987.249 1.145.382.105.089.208.212.31.371.05.147.114.255.192.325.118.104 1.432 3.25 1.546 3.73.075.319.139 1.008.19 2.067l-1.058.032c-.91-.8-1.709-1.391-2.397-1.776l-.353-.184c-.963-2.845-2.14-5.362-3.533-7.55.346-.251.636-.546.82-.877.658-1.195.867-2.473 1.2-2.912.335-.44.579-.55.634-.53Z" fill="#B1BAB7"/>
        <path d="m71.084 57.033-6.561 2.927c-.941.413-3.092.583-6.454.51.455-1.404.945-2.592 1.472-3.564l-.123.005c3.036-.026 5.28-.304 6.731-.834l1.055-.393a159.33 159.33 0 0 0 3.882-1.543c-.068.657-.07 1.621-.002 2.892Zm10.255-3.107.131.384c.01.029.016.054.02.073.076.32.14 1.009.191 2.068l-1.058.032c-1.04-.913-1.935-1.556-2.686-1.928l-.589-.28c-.22-.102-.46-.21-.71-.321.26-.007.493-.016.701-.028l.292-.02c1.113-.087 2.637-.111 3.708.02Z" fill="#C2C8C6"/>
        <path d="M62.67 49.687c.5.535.947 1.301.714 2.394-.348 1.64-1.29 1.968-2.527 3.597-1.238 1.629-1.467 4.506-1.439 4.68.004.024-.028.069-.089.126l-1.26-.013c.834-2.578 1.79-4.428 2.868-5.55l.596-.61c1.186-1.195 1.683-1.66 1.649-2.993a2.965 2.965 0 0 0-.43-1.513l-.082-.118Z" fill="#AFB3B2"/>
        <path d="M76.994 42.653c.01.004.057.135.126.347-.187.08-.348.255-.482.528-.292.599-.887 2.266-1.326 2.876-.438.61-2.007 1.509-3.216 1.798-1.209.29-3.426-.26-4.41-.656-.654-.265-2.594-1.456-3.987-2.334l-1.45-.928c-.582-.384-.757-.457-1.019-.318-.174.093-.438.323-.79.69.301-.58.586-.914.853-1 .09-.029.263-.017.517.037l.046.022c.967.473 3.536 2.278 4.807 3.023 1.27.745 3.448 1.335 4.615 1.3 1.167-.034 3.222-.747 3.881-1.942.66-1.195.868-2.473 1.202-2.912.334-.44.578-.55.633-.53Z" fill="#F1F1F1"/>
        <path d="M72.657 52.416c1.001-.041 4.1 1.168 5.1 1.714.932.51 2.73 1.838 3.157 2.274l.058.068-.349.01c-1.04-.912-1.935-1.555-2.686-1.927-1.126-.558-3.604-1.608-4.35-1.822-.745-.213-1.917-.154-2.292.533-.231.424-.308 1.533-.232 3.326l-.238-.055c-.11-1.237-.093-2.18.052-2.828.217-.972.779-1.252 1.78-1.293Zm5.492-5.922c-.004.078-.004.16 0 .244.102.137.152.262.148.374-.005.167-.83 1.11-.919 1.454-.09.344.392.812.92 1.01.526.2.987.249 1.145.382.055.047.11.103.165.17a24.104 24.104 0 0 1-1.03-.243c-.817-.21-1.378-.714-1.43-1.17-.053-.455.73-1.445.862-1.82l.134-.42.005.019Z" fill="#DDD"/>
        <path d="M33.658 52.623c-.21-.107.014-.87.83-1.337.816-.467 1.32-.61 1.812-1.143.492-.532.413-.767 1.57-1.145 1.159-.379 3.574-2.015 3.62-1.915.046.1.814 4.324 0 6.115-.814 1.79-1.126 1.551-1.306 1.472-.18-.079-2.676-1.521-3.712-1.689-1.035-.168-2.605-.25-2.814-.358Z" fill="#3F4871"/>
        <path d="M51.456 35.388c-.618.06-1.374-.534-1.36-.962.013-.428.484-.66.951-.757.468-.098 1.222.022 1.323.476.1.454-.296 1.182-.914 1.243ZM51.15 38.23c-.75.05-1.399-.373-1.36-.961.037-.588.454-.79.921-.887.468-.097 1.346-.028 1.475.455.13.483-.285 1.345-1.036 1.394ZM50.873 41.258c-.751.05-1.262-.615-1.23-1.054.031-.439.518-.72 1.13-.785.613-.065 1.109.268 1.043.787-.066.519-.192 1.003-.943 1.052Z" fill="#1A2842"/>
        <path d="M38.203 49.793c-.868.105-1.283.632-1.324.88-.042.25.422.636 1.196.615.775-.021.997-1.6.128-1.495Z" fill="#091119"/>
        <path d="M51.716 35.344c.283-.109.455-.551.323-.8-.132-.25-.511-.46-.796-.245-.285.214-.509.441-.375.692.134.251.564.461.848.353ZM51.398 38.498c.284-.108.455-.551.323-.8-.131-.25-.51-.459-.796-.245-.285.215-.508.441-.375.693.134.25.564.46.848.352ZM51.018 41.596c.284-.108.455-.55.323-.8-.131-.25-.51-.459-.796-.244-.285.214-.508.44-.375.692.134.251.564.46.848.352ZM50.25 44.671c.284-.108.456-.55.324-.8s-.511-.459-.796-.244c-.286.214-.509.44-.375.692.134.251.564.46.848.352ZM49.91 47.33c.283-.109.454-.551.322-.8-.131-.25-.85-.634-1.135-.42-.286.215-.17.616-.035.867.133.251.563.461.847.353Z" fill="#091118"/>
        <path d="M49.759 48.262c-.074-.35-1.446-2.48-2.078-3.037-.63-.556-1.883-1.672-2.268-1.693-.385-.021-.7.053-.893.323-.193.27-.443.867-.27 1.015.172.147.686-.635 1.163-.415.476.22 2.497 2.367 3.186 3.545.689 1.178-3.475 1.52-3.74 1.31-.264-.21-1.482-2.466-1.84-2.862-.357-.396-.795-1.376-1.614-1.185-.818.19-1.353 2.318-1.413 2.92-.04.4-.138.89-.295 1.47.339.586.553.75.643.49.135-.39.795-2.612.867-3.065.072-.453.372-.744.828-.249.456.495 1.662 3.074 1.79 3.215.128.142.962.369 3.131.074 2.17-.295 2.876-1.506 2.803-1.856Z" fill="#EDEEEF"/>
        <path d="M45.759 44.287c.653.508 2.924 2.922 3.265 3.713.136.314.206.771.161 1.221-.437.38-1.153.75-2.229.897-2.17.295-3.003.068-3.13-.074-.129-.14-1.335-2.72-1.791-3.215-.415-.45-.7-.25-.803.13l-.093.428c-.116.47-.348 1.277-.536 1.906.032-.474.086-.909.16-1.305.267-1.424.658-1.88 1.099-1.773.44.107.839.936 1.637 1.892.797.957.746 1.963 1.79 1.78.28-.05.48-.23.601-.542l.444-.045c1.224-.152 2.697-.562 2.265-1.3-.689-1.178-2.71-3.325-3.186-3.545-.32-.147-.655.154-.894.325.445-.627.858-.79 1.24-.493Zm-4.913 1.431.07-.19a10.829 10.829 0 0 0-.642 2.494c-.08.583-.06 1.292.06 2.127-.09.249-.304.081-.637-.496.126-.464.214-.87.264-1.22l.031-.25c.045-.45.356-1.757.854-2.465Z" fill="#B6B6BB"/>
        <path d="M49.6 47.445c1.915.24 3.207.857 4.504 2.45a83.575 83.575 0 0 1 4.454 5.971 166.564 166.564 0 0 1 2.898 4.36c-2.98-.596-4.99-.847-6.03-.754-1.562.141-14.172 4.54-16.15 5.138-1.319.4-3.69.768-7.115 1.107a306.44 306.44 0 0 0 2.09-6.486c.823-2.676 3.069-7.94 4.025-9.088.956-1.148 2.886-2.244 4.043-2.44 1.156-.195 5.364-.497 7.28-.258Zm-8.682 6.24c-.396-.138-1.057.237-1.28.339-.223.102-.301.317-.444 1-.144.682-1.571 4.603-1.747 5.162-.176.559-.148 1 .118 1.125.265.125 5-1.21 5.272-1.585.271-.374.144-2.163-.173-3.206-.318-1.042-1.35-2.696-1.746-2.834Zm8.138-2.783c-.383.018-.955.002-1.952.636-.998.634-.934 1.868-.838 2.359.097.49 1.285 1.554 1.784 1.93.498.377 1.108 1.062 1.398 1.084.29.021 2.824-.947 3.147-1.084.324-.136.098-.858-.38-1.399a27.827 27.827 0 0 1-1.62-2.074c-.445-.635-1.156-1.47-1.54-1.452Z" fill="#5B605D"/>
        <path d="M49.733 47.406c1.916.24 3.208.857 4.505 2.45a83.575 83.575 0 0 1 4.454 5.971 166.564 166.564 0 0 1 2.897 4.359c-2.98-.596-4.99-.847-6.03-.753-1.561.14-14.761 4.578-16.74 5.177-1.319.4-3.69.768-7.115 1.107a306.44 306.44 0 0 0 2.09-6.486c.823-2.676 3.07-7.94 4.025-9.088.957-1.148 2.886-2.244 4.043-2.44 1.157-.195 5.955-.536 7.871-.297Zm-9.271 6.28c-.397-.14-1.058.236-1.28.338-.224.102-.302.317-.445 1-.144.682-1.571 4.603-1.747 5.162-.176.559-.147 1 .118 1.125s5-1.21 5.272-1.585c.271-.374.145-2.163-.173-3.206-.318-1.042-1.35-2.696-1.745-2.834Zm8.137-2.784c-.383.018-.955.002-1.952.636s-.934 1.868-.837 2.359c.096.49 1.284 1.554 1.783 1.93.498.377 1.108 1.062 1.398 1.084.29.021 2.824-.947 3.148-1.084.323-.136.097-.858-.38-1.399a27.827 27.827 0 0 1-1.62-2.074c-.446-.635-1.157-1.47-1.54-1.452Z" fill="#D6D8D7"/>
        <path d="M49.733 47.406c.95.119 1.747.33 2.467.708-2.54.1-5.091.624-7.652 1.573-3.885 1.44-6.817 2.76-8.744 4.309l.355-.789c.648-1.41 1.265-2.589 1.66-3.064.957-1.148 2.886-2.244 4.043-2.44 1.157-.195 5.955-.536 7.871-.297Z" fill="#DFE1E0"/>
        <path d="M39.874 50.049c-.47.066-.617.238-.358.41.26.173.704.012.766-.127.061-.14.062-.35-.408-.283ZM44.572 49.135c-.47.067-.617.238-.358.41.26.173.705.012.766-.127.062-.14.063-.35-.408-.283ZM49.562 49.152c-.47.066-.617.238-.358.41.26.172.704.012.766-.128.061-.14.062-.349-.408-.282Z" fill="#4F4E4E"/>
        <path d="m54.238 49.855.657.814a82.221 82.221 0 0 1 3.359 4.522l1.289 1.888a142.334 142.334 0 0 1 2.046 3.107l-1.671-.316c-2.074-.366-3.527-.512-4.359-.437-1.561.14-14.761 4.578-16.74 5.177l-.583.158c-1.387.34-3.564.655-6.532.949l1.039-3.162c.237-.735.459-1.428.663-2.078l.388-1.246c.114-.368.254-.786.414-1.235a78.69 78.69 0 0 0 3.957-1.176l-1.175 3.366c-.176.559-.147 1 .118 1.125s5-1.21 5.272-1.585c.271-.374.145-2.163-.173-3.206-.092-.3-.242-.65-.42-1.001a49.088 49.088 0 0 0 4-1.785l.023.163c.086.442 1.058 1.347 1.614 1.798l.169.132c.498.377 1.108 1.062 1.398 1.084.29.021 2.824-.947 3.148-1.084.323-.136.097-.858-.38-1.399-.399-.45-.949-1.15-1.379-1.738l-.241-.336a8.74 8.74 0 0 0-.616-.78c1.354-.9 2.55-1.854 3.592-2.859.38.308.752.684 1.123 1.14Z" fill="#CECFCB"/>
        <path d="M52.146 55.88a3.372 3.372 0 0 1 1.055.043c1.788.298 3.516.52 5.183.664l.866.066.293.426a142.334 142.334 0 0 1 2.046 3.107l-1.671-.316-.985-.165c-1.556-.244-2.68-.335-3.374-.272-1.561.14-14.761 4.578-16.74 5.177l-.583.158c-1.387.34-3.564.655-6.532.949l1.136-3.464 1.247-.329c.881-.238 1.851-.513 2.848-.805.036.089.094.154.173.192.265.125 5-1.21 5.272-1.585a.824.824 0 0 0 .11-.335l.943-.322c.745-.26 1.381-.495 1.856-.69 1.137-.466 2.365-1.04 3.549-1.524.059.034.11.053.153.056.257.019 2.271-.737 2.955-1.006l.2-.025Z" fill="#BFC1BC"/>
        <path d="M49.733 47.406c1.916.24 3.208.857 4.505 2.45l.657.813a82.221 82.221 0 0 1 3.359 4.522l.438.636a176.367 176.367 0 0 1 2.696 4.044l-.342-.06-3.316-4.643c-1.878-2.608-3.09-4.24-3.636-4.897l-.085-.1c-1.102-1.279-2.285-1.995-3.662-2.323-1.378-.329-7.011-.09-8.054.024-1.043.116-3.044 1.26-3.867 1.967-.473.406-1.415 1.953-2.828 4.641.832-1.937 1.71-3.724 2.221-4.337.957-1.148 2.886-2.244 4.043-2.44 1.157-.195 5.955-.536 7.871-.297Z" fill="#FFF"/>
        <path d="m40.018 47.245-.038.053-.084.047c-.185.066.076 1.585.226 2.084l.038.11c.137.32.093.719 0 .805a.558.558 0 0 1-.679 0c-.267-.212-.413-1.185-.486-1.832a5.593 5.593 0 0 1-.03-.621l-.04.109c.127-.391.259-.636.398-.733.127-.09.36-.097.695-.022Zm8.04-6.646.098-.001.096.006.096.024.014-.01.027.003c.215.024.48.106.775.207l.624.216c.542.183 1.384.622 1.72.672l.4.075c.518.108 1.299.289 1.537.356.318.09.39.662 0 .857-.39.195-1.584-.02-2.034-.23-.451-.21-1.158-.468-1.77-.73-.611-.262-1.155-.245-1.414-.245-.259 0-.74-.129-.877-.083-.036.178.45 1.576.694 2.184.245.608 1.422 2.822 1.583 3.458l.276.952c.108.405.168.776.03.95-.247.316-.568.331-.804.193-.236-.138-.548-1.333-.644-1.75-.082-.356-.365-1.034-.604-1.68l-.115-.32c-.226-.65-.69-1.622-.832-2.11l-.037-.158c-.021-.141-.06-.224-.1-.257l.021.065c-.262-.74-.368-1.235-.318-1.485.05-.25.306-.454.767-.614.232-.3.439-.471.62-.516l.171-.029Zm-1.42 2.872-.01.091c-.075.223-.355.27-.423.22-.08-.059-.854-.397-1.125-.248-.225.124-.196 1.287-.135 2.032l.082.857c.055.74.09 1.816.06 2.09l-.04.327c-.044.29-.114.583-.237.613-.173.042-.547.119-.665-.078-.078-.13-.1-.412-.097-.698l.018-.415c.025-.342-.142-2.62-.166-3.633l.122-.607c.024-.105.052-.208.086-.305.176-.491.817-.723 1.144-.758.214-.023.676.148 1.387.512Z" fill="#EEEEF1"/>
        <path d="M38.986 47.828c.068.588.184 1.225.295 1.517.184.485.774.82.69.222-.047-.33-.113-.89-.092-1.369.061.457.167.977.243 1.231l.038.11c.137.32.093.719 0 .805a.558.558 0 0 1-.679 0c-.267-.212-.413-1.185-.486-1.832a5.593 5.593 0 0 1-.03-.621l.02-.063Zm7.503-5.974c.173.468.353.982.54 1.542.285.857.766 1.796 1.102 2.502l.155.332c.324.724.888 2.56 1.195 2.485.224-.053.158-.576.056-1.18l-.126-.751.135.328c.018.049.035.094.048.135l.309 1.063c.108.405.168.776.03.95-.247.316-.568.331-.804.193-.183-.108-.413-.854-.551-1.377l-.093-.373c-.082-.356-.365-1.034-.604-1.68l-.115-.32c-.226-.65-.69-1.622-.832-2.11l-.037-.158c-.021-.141-.06-.224-.1-.257l-.081-.237c-.156-.478-.232-.832-.228-1.06l.001-.027Zm-1.418 1.688c-.216.116-.187 1.28-.126 2.024l.082.857.033.53c.034.648.05 1.347.027 1.56l-.04.327c-.044.29-.114.583-.237.613-.173.042-.547.119-.665-.078-.078-.13-.1-.412-.097-.698l.018-.415c.025-.342-.142-2.62-.166-3.633l.063-.318.073 1.114c.025.32.048.588.072.805l.046.365c.12.776.076 2.298.417 2.231.266-.051.323-.342.251-1.624l-.092-1.359c-.132-1.808.114-2.217.341-2.3Zm2.218-2.206a5.88 5.88 0 0 1 1.205.183l.578.197c.844.278 2.63.804 3.384.935.528.092.81-.078.843-.51v-.032l.146.038c.318.09.39.662 0 .857-.39.195-1.584-.02-2.034-.23-.451-.21-1.158-.468-1.77-.73-.611-.262-1.155-.245-1.414-.245-.25 0-.707-.12-.862-.088l-.076-.375Z" fill="#B8B8BD"/>
        <path d="M10.872 63.413c-.097-.774-.133-1.293-.108-1.558.037-.397.176-1.203-.052-1.348-.227-.145-.556.298-.644 1.044-.088.745-.075 1.01-.075 1.56s.007 2.225 1.138 3.28c1.13 1.057 3.83 2.655 4.157 2.669.327.013.61-.218.727-.32.117-.1.562-.336.575-.48.012-.143-3.183-1.682-4.244-2.524-.706-.561-1.198-1.336-1.474-2.323Z" fill="#AFB0BF"/>
        <path d="M45.09 70.966c.06.022.308.17.422.296.114.126.165.64.245.69.053.034.134.05.24.052h8.036c.506 0 1.104-.052 1.252-.742.099-.46.153-.735.164-.825-6.945.338-10.398.515-10.358.53Z" fill="#606060"/>
        <path d="M11.163 63.075c-.505-.015-.67.371-.542.94.129.568.644 1.416 1.37 2.025.727.61 3.84 2.439 4.044 2.447.204.009.586-.31.89-.069.304.241 1.035.032 1.161.118.127.087-.04.558.236.745.277.187.627.171.68.314.055.143.187.657.628.821.441.165 2.641.635 3.142.794.501.16 2.702.481 2.906.45.204-.032.93-.738 1.21-.846.28-.108.578.243.577.53 0 .285 1.777.63 2.535.656.758.026 7.508-.015 8.361 0 .853.015 1.807.013 2.091 0 .285-.013.438-.362.58-.657.143-.295 1.049-1.139 1.65-1.104.602.034 1.678.733 1.97.827.29.095 10.295.04 10.576.027.28-.014.577-.338 1.058-.435.481-.098 1.413-.015 1.688.264.131.132.211.325.24.578.011.103.009.166.067.256.06.09.208.08.339.079 7.57-.045 11.424-.074 11.563-.086.212-.019.033-.625.254-.651.22-.027.074.102.341.112.267.01.759-.109.8 0 .04.109-.035.362.748.21s4.402-1.162 5.7-1.696c1.298-.535 4.193-1.894 6.032-3.511C85.285 65.134 85.932 64.397 86 64v-2.45c0-.272-.015-1.212-.844-1.063-.322-.352-.76-.895-.73-2.594-.13-.933-.798-2.363-1.087-2.48-.29-.116-2.384-.087-4.29-.38-1.906-.295-4.01-.723-4.957-.514-.947.21-5.682 1.995-7.516 2.792-1.834.796-4.538 1.908-5.45 1.871-.913-.036-4.253-.91-5.074-.925-.82-.015-10.875 3.246-13.76 4.095-2.886.849-7.97 2.204-10.528 2.39-2.558.188-12.543-.096-14.76-.415-2.215-.318-5.336-1.238-5.841-1.252Z" fill="#8E8F96"/>
        <path d="M11.103 63.251c-.505-.014-.61.195-.482.763.129.569.644 1.417 1.37 2.026.727.61 3.84 2.439 4.044 2.447.204.009.586-.31.89-.069.304.241 1.035.032 1.161.118.127.087-.04.558.236.745.277.187.627.171.68.314.055.143.187.657.628.821.441.165 2.641.635 3.142.794.501.16 2.702.481 2.906.45.204-.032.93-.738 1.21-.846.28-.108.578.243.577.53 0 .285 1.777.63 2.535.656.758.026 7.508-.015 8.361 0 .853.015 1.807.013 2.091 0 .285-.013.438-.362.58-.657.143-.295 1.049-1.139 1.65-1.104.602.034 1.678.733 1.97.827.29.095 10.295.04 10.576.027.28-.014.577-.338 1.058-.435.481-.098 1.413-.015 1.688.264.131.132.211.325.24.578.011.103.009.166.067.256.06.09.208.08.339.079 7.57-.045 11.424-.074 11.563-.086.212-.019.033-.625.254-.651.22-.027.074.102.341.112.267.01.759-.109.8 0 .04.109-.035.362.748.21s4.402-1.162 5.7-1.696c1.298-.535 4.193-1.894 6.032-3.511C85.285 65.134 85.932 64.397 86 64v-2.45c0-.272-.015-1.212-.844-1.063-.322-.352-.76-.895-.73-2.594-.13-.933-.798-2.363-1.087-2.48-.29-.116-2.444.09-4.35-.204-1.905-.294-4.01-.723-4.957-.513-.947.21-5.682 1.994-7.516 2.791-1.833.797-4.538 1.908-5.45 1.872-.913-.037-4.253-.911-5.073-.926-.82-.014-10.876 3.246-13.761 4.095-2.886.85-7.97 2.204-10.528 2.391-2.558.188-12.543-.097-14.76-.415-2.215-.319-5.336-1.238-5.841-1.253Z" fill="#CACBD3"/>
        <path d="m86.005 61.63-.006 1.903-.722.242c-1.83.611-3.73 1.27-5.697 1.977-3.542 1.273-7.267 4.124-7.867 5.327l-.059.141a.253.253 0 0 1-.05.086l-.026-.096c-.041-.109-.533.01-.8 0s-.12-.139-.341-.112c-.22.026-.042.632-.254.651l-11.563.086c-.131 0-.28.01-.339-.08-.058-.09-.056-.152-.067-.255-.029-.253-.109-.446-.24-.578-.275-.28-1.207-.362-1.688-.264l-.153.04c-1.354-2.803-1.357-4.61-.007-5.418 2.433-1.456 13.719.038 19.654-1.224a205.63 205.63 0 0 0 10.225-2.427Z" fill="#C3C4CF"/>
        <path d="M19.024 69.665c.814.27 1.669.494 2.566.673l1.382.26c1.349.241 2.779.459 3.092.404.316-.29 1.909-1.11 2.86-.833.635.185 1.047.55 1.237 1.096h1.543l1.594.017c2.61.01 6.306-.048 7.864-.115a.895.895 0 0 0-.1.125l-.18.35c-.109.192-.24.35-.43.358l-.961.01-2.79-.012c-2.307.004-6.14.02-6.701.002l-.38-.03c-.85-.093-2.155-.381-2.155-.627 0-.286-.296-.637-.577-.53-.28.109-1.006.815-1.21.847-.188.029-2.078-.243-2.761-.41l-.566-.154c-.822-.206-2.36-.545-2.72-.68-.316-.117-.473-.413-.557-.624l-.05-.127Zm36.242.78.098-.039c.596-.353 2.459.333 3.46.361h1.22c1.65-.017 4.836-.072 9.554-.165l.498.199c.358.149.576.255.654.32a.15.15 0 0 1 .05.086l-.022.003c-.267-.01-.12-.139-.341-.112-.22.026-.042.632-.254.651l-11.563.086c-.131 0-.28.01-.339-.08-.058-.09-.056-.152-.067-.255-.029-.253-.109-.446-.24-.578-.275-.28-1.207-.362-1.688-.264-.48.097-.777.421-1.058.435l-6.809.027c-1.98-.002-3.651-.016-3.768-.054-.097-.031-.283-.13-.51-.25l.98-.114c.212-.022.445-.044.699-.067l.396-.033c.99-.08 7.984.139 9.05-.158Z" fill="#5B5C65"/>
        <path d="M82.812 57.065c-1 .215-4.024.552-6.199.786-2.174.234-6.38.278-7.121.384-.742.105-1.495.938-.511 1.36.984.421 2.701.55 5.82.262 3.119-.288 6.657-1 7.53-1.315.875-.315 1.48-1.692.481-1.477Z" fill="#D8D9DD"/>
        <path d="M83.509 55.781c.07.035.165.121.275.24.277.533.561 1.297.641 1.872-.029 1.7.409 2.242.73 2.594l.051-.008.01.088c.083.224.005.375-.233.452-.359.117-.69-1.286-1.146-1.419-.457-.132-1.472.269-2.402.442l-.425.07c-1.418.217-4.95.644-6.612.703l-1.114.041c-1.468.052-2.839.07-3.76-.18-1.152-.314-1.148-.972-1.071-1.288.076-.316.175-.414.452-.726v.174c.01.302.115.643.97.813 1.027.204 6.736-.109 8.259-.232 1.522-.123 4.263-.706 4.96-.882.697-.177.887-.595.911-.85.025-.255-.216-.703-.234-.974-.018-.27-.414-.489-.542-.727-.128-.238-.817-.221-.789.19.023.33.138.595.213.797l.13.403c.042.146.05.267-.104.245-.246-.035-.3-.387-.523-.493l-.282-.13c-.21-.105-.437-.248-.495-.447l-.064-.23c-.053-.233-.045-.455.275-.53.427-.1 1.57-.185 1.919-.008Z" fill="#BDBAC2"/>
        <path d="M82.468 56.958c-.71.089-3.86.351-5.342.523-1.481.17-5.083.452-6.169.402-1.085-.05 2.104-2.317.961-1.911-1.142.406-6.453 2.242-5.65 2.638.803.396 2.313.528 2.755.378.442-.15.642-.537 1.868-.552 1.225-.015 5.087-.31 7.022-.497 1.934-.187 4.078-.518 4.765-.737.687-.218.5-.334-.21-.244Z" fill="#E6E7EC"/>
        <path d="M86 63.285V64c-.068.397-.715 1.134-1.942 2.213-1.716 1.51-4.352 2.794-5.752 3.393l-.28.118c-1.298.534-4.917 1.544-5.7 1.696-.425.082-.597.046-.672-.022.098-.484.335-.965.783-1.178.72-.342 2.24-.076 4.833-.99 2.594-.912 4.804-2.392 6.086-3.312.76-.545 1.618-1.393 2.573-2.543l.071-.09Z" fill="#9A98A5"/>
        <path d="m85.045 60.443-.003-.085.114.129c.223-.04.387-.001.508.082l-.028.094c-.16.409-1.084.742-2.54 1.157l-2.6.806a39.195 39.195 0 0 1-8.813 1.816l-1.082.09c-1.951.13-4.614.206-3.786.173l.784-.052c1.497-.118 4.356-.404 5.704-.648l.802-.17c1.802-.405 5.597-1.31 6.036-1.474l2.912-.93c.984-.324 1.855-.638 1.936-.768a.441.441 0 0 0 .056-.22Z" fill="#FFF"/>
        <path d="M74.032 54.696c.947-.21 3.052.219 4.957.513 1.135.175 2.358.173 3.222.167-.589.102-1.103.168-1.546.197-1.175.078-3.09-.292-4.183-.498-1.093-.207-2.435-.218-3.577.298l-.583.25c-1.328.547-3.501 1.342-4.087 1.593l-.788.357a20.595 20.595 0 0 0-3.765 2.33c-1.866 1.469-4.74.382-5.52-.247l-.093-.083c-.61-.608-1.855-.778-2.62-.648-.357.06-1.097.283-1.985.57L50.19 60.59c-1.254.422-2.3.787-3.137 1.095.992-.214 4.633-.753 3.746-.237-.888.517-3.562 1.477-5.448 1.726-1.886.248-3.839.64-5.174.857-1.335.218-5.023 1.068-6.832 1.227l-2.295.194c-2.232.173-5.337.356-8.13.265-2.66-.087-5.01-.329-7.046-.725 2.08.446 3.917.726 5.507.841 2.386.173 5.303.203 8.347.006l1.071-.078c2.619-.208 5.956-.584 7.77-.814l2.207-.29c1.926-.24 4.473-.5 5.19-.264.935.31 1.267 1.11 1.357 1.636.06.35.042 1.1-.052 2.25l.011-.73c.003-.323 0-.583-.007-.78-.019-.491-.154-1.135-.706-1.678-.461-.453-2.853-.302-5.996.072l-1.967.248c-4.076.537-11.281.94-13.443.926-2.161-.012-6.888-.4-9.065-.926-2.178-.527-4.317-1.574-4.685-1.77-.211-.113-.447-.056-.709.17l-.105.095c-.09-.487.032-.668.504-.655.505.015 3.626.934 5.842 1.253 2.216.318 12.201.603 14.76.415 2.557-.187 7.641-1.542 10.527-2.39l3.989-1.23c4.012-1.254 9.193-2.876 9.772-2.866.82.015 4.16.889 5.073.926.684.027 2.376-.591 3.953-1.238l2.128-.9c2.112-.872 6.033-2.337 6.885-2.525Z" fill="#FAFAFA"/>
        <path d="m10.667 64.174.454.515c.878.969 1.601 1.618 2.17 1.947l.743.414a60.013 60.013 0 0 0 2.144 1.103c.193.09 1.286-.163 1.602-.399l.196-.164c.211-.189.353-.33.359-.014.007.406.633 1.193 1.18 1.484.519.278 5.092.713 6.343.727l.17-.001c.927-.033 1.431.026 1.864 0 .433-.026 1.011-1.468 1.137-1.475.126-.007.488 1.555 1.201 1.542 7.372-.348 11.267-.534 11.684-.558.625-.037.55-1.63.83-1.76.164-.074.275.706 1.574 1.898.057.052.59.227 1.37.333 1.828.247 6.75.325 7.426.578.438.165-.796.286-3.232.336-.942.019-3.681-.049-4.314-.013l-.352.43c-.324-.009-.527-.018-.565-.03-.291-.095-1.367-.794-1.969-.828-.418-.024-.983.376-1.337.722-.48-.043-1.28-.194-1.87-.195l-5.253-.022c-.736 0-1.397.005-1.859.016l-.947.038c-.633.037-1.085.093-1.354.166-.474-.62-.95-.92-1.427-.903-.614.022-.936.081-1.302.297l-.189.12c-.405.282-.422.14-.91.07l-.603-.065c-1.332-.177-5-.79-5.634-.827-.72-.044-1.657-1.288-1.997-1.374-.243-.062-.766.04-1.11.12-.294-.204-.658.093-.855.085-.205-.008-3.317-1.838-4.044-2.447-.636-.533-1.11-1.25-1.304-1.8l-.02-.066Z" fill="#DCDCE1"/>
        <path d="M65.414 61.344c2.488.574 5.144.978 8.64.994l2.078-.002 3.21-.025c.31.002.557.01.751.027.811.07-3.312 1.243-5.963 1.607-2.65.363-6.925.711-9.575.98l-1.04.12-1.294.185c-2.155.392-3.129.805-3.606 1.294-.484.495.654 1.483 1.384 2.332.73.85 2.326 1.28 3.492.165 1.165-1.114 2.846-2.016 3.37-2.083.525-.066 1.417.156 2.379.875.855.64 1.374 1.36 1.495 2.168l.026.308c.001.051.122.507-.118.512l-2.393.056-.86.03-1.284.054-2.239.052c-1.646.029-3.45.047-4.51.051h-1.003l-.28.007a.685.685 0 0 0-.1-.13c-.275-.278-1.207-.36-1.688-.263-.48.097-.777.421-1.058.435l-6.929.027c-.65 0-1.264-.003-1.796-.007l-.637-.054c-.432-.052-.578-.122-.153-.215 1.268-.277 8.545-.224 9.223-.286.638-.058-.368-.539-1.444-1.352l-.202-.156c-1.145-.908-3.774-3.09-3.526-4.442.247-1.353 2.771-3.51 6.68-4.121 3.91-.612 6.482.283 8.97.857Z" fill="#CDCCD6"/>
        <path d="M67.15 68.278c.928.017 2.132.684 3.61 2l.02.134c.022.152.034.385-.137.389l-2.393.056-.86.03-1.284.054-2.239.052c-1.646.029-3.45.047-4.51.051h-1.003l-.28.007a.685.685 0 0 0-.1-.13c-.275-.278-1.207-.36-1.688-.263-.48.097-.777.421-1.058.435l-6.929.027-1.796-.007-.637-.054-.243-.038c-.226-.047-.24-.105.09-.177 1.268-.277 8.545-.224 9.223-.286.357-.032.199-.197-.198-.478l.391.036c.108.012.193.024.252.036l.068.017c.545.196 5.807.057 6.781 0 .974-.056 3.255-1.92 4.92-1.89Z" fill="#BEBDC6"/>
        <path d="m66.63 69.41.418.018c1.019.088 2.037.55 3.056 1.385l-1.854.044-.86.03-1.284.054-2.239.052c-1.646.029-3.45.047-4.51.051h-1.003l-.28.007a.685.685 0 0 0-.1-.13c-.275-.278-1.207-.36-1.688-.263-.48.097-.777.421-1.058.435l-6.929.027-1.796-.007-.637-.054-.243-.038c-.226-.047-.24-.105.09-.177 1.268-.277 8.545-.224 9.223-.286.104-.01.164-.03.188-.062l1.608.028c2.618.036 5.916.04 6.56-.076.972-.177 1.74-1.036 3.339-1.038Z" fill="#ADACB6"/>
        <path d="M45.573 68.087c.363-.235.62-1.93-.315-2.386-.936-.456-7.515.143-9.473.247-1.959.104-9.08.629-10.597.609-1.517-.02-7.663-.505-7.206-.31.458.194 3.349.842 3.808 1.284.459.441 1.032 1.35 1.642 1.382.61.03 4.19.24 4.44.024.251-.216 1.042-1.776 1.262-1.774.22.002.743 1.488 1.076 1.67.334.18 3.673-.027 5.776-.095 2.104-.069 5.79-.191 5.876-.275.086-.084.654-2.096.921-2.11.267-.015.927 1.848 1.051 1.925.124.078 1.376.043 1.739-.191Z" fill="#D8D9DD"/>
        <path d="M63.292 45.843c-1.283-.865-2.006-1.303-2.169-1.314-.162-.01-.663.614-1.5 1.874l-.09-.304c.836-1.23 1.355-1.845 1.56-1.845.308 0 2.154 1.191 2.199 1.295.03.069.03.167 0 .294Z" fill="#F4F4F4"/>
        <path d="M59.97 46.403c.197.198 1.464 1.169 1.734 1.14.27-.028 1.396-1.512 1.42-1.604.022-.092.055-.316 0-.442.221.188.298.38.244.502-.055.122-1.285 1.813-1.42 1.912-.135.1-.382.137-.62 0-.237-.136-1.686-1.311-1.746-1.424-.06-.112-.02-.37.068-.507.026-.041.202-.23.221-.229.025.002-.146.412.099.652Z" fill="#B9C1BF"/>
        <path d="M61.158 44.087c-.253-.015-.441.187-1.06 1.014l-.314.434c-.352.51-.438.766-.308.98.14.232 1.346 1.192 1.744 1.428.372.221.645.235.863-.014l.204-.256c.225-.294.56-.75.785-1.069l.313-.459c.197-.312.138-.56-.31-.884l-.527-.372c-.589-.407-1.075-.707-1.307-.783l-.083-.019Zm-.012.2c.161.01.974.533 1.812 1.137.313.225.38.354.306.525l-.08.137-.422.608c-.309.429-.71.968-.83 1.103-.14.16-.31.152-.61-.026-.372-.22-1.557-1.164-1.675-1.36-.084-.137.042-.406.446-.966l.165-.224c.484-.646.696-.888.838-.928l.05-.006Z" fill="#AEAEAE" fill-rule="nonzero"/>
        <path d="M59.717 70.024c.12-.3-.138-1.116-.857-1.746-.719-.63-1.256-1.87-.542-2.245.713-.374 5.091-1.246 6.543-1.32 1.452-.075 8.026-.738 10.518-1.165 1.662-.285 3.038-.627 4.129-1.025-3.289.105-5.998.118-8.127.04-3.194-.116-7.991-1.48-9.995-1.723-2.003-.242-5.686-.287-7.298.479s-3.553 2.2-3.801 3.101c-.248.902-.211 1.667.704 2.567.915.9 2.98 2.269 3.352 2.495.373.226.817.475 1.276.534.459.06 3.978.308 4.098.008Z" fill="#B8B6C2"/>
        <path fill="#292929" d="m65.643 52.359.043.619.97-.042-.083-.268h-.26l-.045-.31zM67.039 52.362h.429l.162.306-.247.296-.114-.105.065-.256h-.25zM68.143 52.405l.585-.193.064.097-.274.146v.325h-.248l-.042-.23h-.085zM69.321 52.266h.554v.23h-.182l.012.479h-.226l-.012-.479h-.146z"/>
    </g>
</svg>
