<svg width="96" height="96" xmlns="http://www.w3.org/2000/svg">
    <defs>
        <path id="a" d="M0 0h96v96H0z"/>
    </defs>
    <g fill="none" fill-rule="evenodd">
        <path d="M13.437 61.877c-.361-2.605.637-4.076 2.995-4.415 3.537-.507 13.718-1.404 20.263-5.754 6.544-4.35 13.687-8.906 15.633-12.745 1.946-3.84 4.737-11.95 6.325-12.083 1.587-.132 4.583 2.36 5.217 3.493.634 1.132 1.447 2.118 4.079 3.432 2.631 1.314 4.501 3.407 6.592 3.486 2.09.078 3.938.298 4.096 1.02.105.482 1.02 4.083 2.743 10.803.831 1.538 1.335 4.114 1.51 7.729.177 3.614.253 5.747.23 6.397.461.447.385.721-.23.822-.92.15-18.402.649-26.363.982-7.961.334-15.21 1.768-25.1 1-9.89-.767-15.515-2.605-16.847-2.804-.888-.133-1.269-.587-1.143-1.363Z" fill="#E0E3EE"/>
        <path d="M63.87 30.373c.286.51.607.99 1.115 1.484-.05.424-.178.87-.383 1.336-4.202 4.498-6.604 7.288-7.207 8.369-.904 1.62-5.469 3.55-7.569 5.71-2.1 2.159-12.764 7.86-13.424 7.85-.66-.011-1.912-.973-2.308-1.741a.69.69 0 0 1-.06-.171c.933-.45 1.827-.948 2.66-1.502 6.545-4.35 13.688-8.906 15.634-12.745 1.946-3.84 4.737-11.95 6.325-12.083 1.587-.132 4.583 2.36 5.217 3.493Z" fill="#DCE8FA"/>
        <path d="m60.748 27.577.018.077c.027.154 0 .26-.104.247-.262-.033-1.858.306-2.591 1.64l-.489.914c-.518.988-.936 1.836-1.107 2.055-.222.285-.228.89-.622.944-.231.033-.557-.039-.978-.213l.546-1.25c1.211-2.73 2.39-5.04 3.232-5.11.573-.049 1.33.246 2.095.696Z" fill="#43ABF4"/>
        <path d="m57.693 28.11-1.721 3.633c-.144.3-.24.492-.247.5-.026.021-.319.12-.49.171l.186-.424c.817-1.842 1.62-3.492 2.314-4.393a.815.815 0 0 1-.042.512Z" fill="#AB0000"/>
        <path d="M35.322 53.38c.34.01 3.59-2.312 4.088-2.621.331-.206 1.393-.903 3.184-2.09 1.119.27 1.876.336 2.27.2.396-.137.555-.96.478-2.472.916-1.173 1.49-1.877 1.721-2.112.347-.351 3.707-3.25 3.74-2.639.034.612 3.118 1.094 4.02 1.13.903.036 2.236-4.484 2.086-4.994-.1-.34-1.115-1.011-3.043-2.013.702-.573 1.154-.847 1.356-.822.304.038 2.364.526 2.491.822.128.296 1.543 3.329.8 5.192-.742 1.864-3.62 4.914-4.647 4.956-1.027.043-4.17-.478-4.996.654-.827 1.133-1.933 4.103-3.61 4.443-1.675.34-7.08 3.132-8.268 3.38-1.189.25-2.01-1.022-1.67-1.013Z" fill="#000"/>
        <path d="M80.267 45.4c.064.27-.02.456-.252.56-6.029 2.701-11.389 3.826-13.03 2.975-2.603-1.349-11.276-4.791-12.02-6.296-.744-1.504 2.98-13.765 6.962-12.65 3.982 1.116 5.803 2.177 7.178 3.074 1.375.897 3.205 2.65 5.472 2.836 2.268.186 4.563.522 4.17 2.069-.262 1.031.244 3.508 1.52 7.432Z" fill="#262327"/>
        <path d="M61.927 29.99c3.982 1.115 5.803 2.176 7.178 3.073 1.375.897 3.205 2.65 5.472 2.836 2.268.186 4.563.522 4.17 2.069a2.378 2.378 0 0 0-.063.477c-.39-.604-.665-.998-.828-1.183-.323-.368-3.684-.68-5.114-.993-1.43-.314-4.654-2.633-5.982-3.636-1.133-.856-4.463-2.264-5.517-2.708.228-.02.456 0 .684.064Z" fill="gray"/>
        <path d="m63.526 31.798-.714 1.482c-1.81 3.84-2.866 6.774-3.169 8.804l-.099.745c-.36 3.039-.149 5.2-2.802 5.393-2.867.208-3.356-.45-5.354 1.465-1.999 1.914-3.26 2.86-4.448 3.395-1.188.533-4.304 1.416-6.046 2.203-1.162.524.6 4.161 5.285 10.912-5.175.63-11.313.681-18.414.15-7.708-.87-12.15-2.296-13.314-2.47-.888-.133-1.27-.587-1.144-1.362-.361-2.605.637-4.077 2.995-4.415l.625-.086c-.364.19-.046.342.956.455l7.52.758c2.535.261 4.866.525 5.649.701 1.685.38 2.71 3.333 4.685 1.802 1.975-1.53-.935-3.255-1.077-4.687l-.04-.473c-.054-1.065.289-1.558 3.09-3.488 3.181-2.194 6.197-3.418 7.558-4.558 1.362-1.14 4.654-4.762 5.63-4.911.977-.15 3.552 1.033 4.02-.959l.622-2.716c.819-3.467 2.212-8.668 3.588-9.135 1.236-.42 2.702-.088 4.398.995Z" fill="#780210"/>
        <path d="m63.655 31.16-.714 1.483c-1.81 3.839-2.866 6.773-3.168 8.803l-.1.746c-.359 3.038-.148 5.2-2.802 5.392-2.866.209-3.356-.449-5.354 1.465-1.998 1.915-3.259 2.861-4.447 3.395-1.189.534-4.305 1.417-6.047 2.203-1.161.525.6 4.162 5.286 10.912-5.175.631-11.314.682-18.416.151l-1.498-.18c-6.544-.844-10.443-2.039-11.687-2.269l-.128-.021a2.674 2.674 0 0 1-.541-.135 5.947 5.947 0 0 1-.52-.316c-.21-.201-.33-.468-.357-.798-.178-2.68.912-4.19 3.27-4.529l.865-.117c-.363.229-.072.465.874.71 2.398.622 11.325.856 13.01 1.236 1.686.38 2.71 3.333 4.686 1.802 1.975-1.531-.935-3.256-1.077-4.687l-.04-.473c-.055-1.066.289-1.559 3.089-3.489 3.182-2.194 6.198-3.418 7.559-4.557 1.361-1.14 4.654-4.762 5.63-4.912.976-.15 3.551 1.034 4.02-.958l.621-2.716c.82-3.467 2.212-8.668 3.588-9.135 1.236-.42 2.703-.089 4.398.994Z" fill="#A02434"/>
        <path d="M55.384 40.48c.016-.002-2.63-2.328-2.452-2.819.179-.49-1.431 1.157-1.396 1.41.035.252 2.808 2.945 3.387 3.056.579.111.444-1.646.46-1.647Z" fill="#000"/>
        <path d="M42.492 66.655c-2.873-4.817-5.228-7.795-7.067-8.934-2.757-1.708-3.255-2.163-1.01-3.809 2.246-1.645 8.508-5.913 8.716-5.574.207.338.845 6.231 1.633 8.2.526 1.314 2.213 4.491 5.062 9.534l-7.334.583Z" fill="#780210"/>
        <path d="M42.954 66.349c-2.873-4.817-5.228-7.795-7.067-8.934-2.757-1.708-3.255-2.163-1.01-3.809 2.246-1.645 8.508-5.913 8.716-5.575.207.34.845 6.232 1.633 8.202.526 1.312 2.213 4.49 5.062 9.533l-7.334.583Z" fill="#AE293D"/>
        <path d="M80.235 43.914c-.056-.588-.054-1.514-.486-1.923-.431-.41-11.308-5.816-13.253-6.808-1.946-.991-7.74-3.086-8.444-3.114-.703-.028-1.787 2.362-2.356 3.902s-1.418 2.413 2.856 5.47c4.274 3.058 10.345 7.256 10.704 7.37.358.112 3.383.393 10.85-2.973.23-.23.185-1.335.13-1.924Z" fill="#780210"/>
        <path d="M80.397 43.476c-.057-.589-.054-1.514-.486-1.923-.432-.41-11.309-5.816-13.254-6.808-1.945-.992-7.74-3.086-8.443-3.114-.704-.028-1.788 2.361-2.357 3.901-.569 1.54-1.418 2.414 2.856 5.472 4.275 3.057 10.345 7.255 10.704 7.368.359.113 3.383.394 10.85-2.972.23-.23.186-1.335.13-1.924ZM66.847 63.993c2.33-6.421 3.587-9.768 3.771-10.038.276-.407 10.901-4.694 11.107-4.707.205-.013.973 1.486.986 2.755.012 1.27.573 3.527.706 4.778.132 1.251.272 5.345-.298 6.459-1.341.498-2.464.75-3.369.753H66.847Z" fill="#A02434"/>
        <path d="M81.122 47.271c-6.348 2.545-11.42 4.317-15.215 5.318-5.693 1.501-10.216 4.036-9.455-3.341-3.311 2.012-5.476 5.537-3.382 8.166 2.094 2.63 8.767-.205 17.215-3.644 5.632-2.293 9.445-3.8 11.44-4.522l-.603-1.977ZM36.256 54.774c-.699.581-1.17.423-2.112-.398-.942-.821-1.167-.916-.945-1.256.222-.34 1.25-1.638 1.49-1.464.239.174 2.267 2.536 1.567 3.118Z" fill="#262327"/>
        <path d="M39.963 53.38c-.498.5-1.228.652-1.928 0-.7-.65-3.043-1.228-3.046-1.337-.003-.109 1.03-1.007 1.413-1.029.383-.022 4.058 1.868 3.56 2.367ZM42.126 51.64c-.6.537-1.341.646-2.117.244-.776-.401-2.55-.905-2.51-1.146.04-.24 1.529-1.616 1.673-1.49.144.125 3.553 1.855 2.954 2.392Z" fill="#262327"/>
        <path d="M42.342 48.012c-.066-.6.015-1.032.242-1.296 2.05-1.562 3.218-2.365 3.502-2.41.426-.068 1.338.044 1.324.174-.014.13-.528.176-1.04.392-.511.216-1.876 2.582-1.656 3.331.22.75-2.274.71-2.372-.19Z" fill="#C9C7E4"/>
        <path d="M41.913 47.254c-.51.156-1.077.757-1.54 1.177-.463.42-.474.619-.364.601.11-.017 2.268-.218 2.957.208.689.425 2.37 1.862 3.12 1.443.751-.418-.118-2.187-1.095-2.652-.978-.464-2.568-.934-3.078-.777ZM49.398 48.031c-.562.735-1.827.078-2.867-.61-.694-.459-1.117-.806-1.27-1.043.645-1.15 1.137-1.689 1.477-1.614.51.113 3.222 2.533 2.66 3.267ZM52.716 46.172c-.446.44-2.05-.36-2.588-.812-.537-.452-3.05-.94-3.058-1.245-.01-.305 1.458-1.694 1.849-1.617.391.077 2.695 1.046 3.325 1.787.63.742.919 1.447.472 1.887Z" fill="#262327"/>
        <path d="M57.82 44.757c-.41.646-1.729.23-3.064-.62s-3.129-1.593-4.125-1.652c-.996-.06-1.335.31-1.347 0-.013-.31 1.5-2.358 1.982-2.207.483.15 3.955 1.49 5.191 2.29 1.236.798 1.774 1.543 1.363 2.19ZM59.212 37.707c.124-.775-.63-1.509-2.335-1.868-1.706-.36-2.87.127-3.416.471-.546.344-2.023 1.688-2.153 2.166-.086.318.051.777.414 1.375.869-1.064 1.703-1.685 2.503-1.862 1.2-.265 2.197-.378 3.131-.001.935.376 1.733.494 1.856-.281Z" fill="#262327"/>
        <path d="m83.128 62.738.737 6.453a2 2 0 0 1-1.909 2.226C38.068 73.139 14.71 71.35 11.88 66.05c-.125-.353-.125-.848 0-1.486.53-2.347.997-3.396 1.4-3.147.605.374 11.418 4.975 30.044 3.126 12.417-1.232 25.685-1.834 39.804-1.805Z" fill="#780210"/>
        <path d="m83.12 63.24.726 5.936a2 2 0 0 1-1.907 2.242c-43.877 1.72-67.23-.07-70.059-5.368-.125-.353-.125-.848 0-1.486.525-2.013.989-2.895 1.392-2.646.605.375 11.418 4.975 30.044 3.126C55.733 63.812 69 63.21 83.119 63.24Z" fill="#E2E6EC"/>
        <path d="m12.54 62.558-.036-.018c3.998 1.99 9.652 3.224 16.96 3.697 3.24.21 6.2.208 9.504.029l1.852-.116 2.077-.158 5.865-.506c5.12-.433 9.308-.69 14.37-.823l10.778-.256 3.557-.064c2.575-.04 4.503-.052 5.784-.037l.047.402-1.8-.007c-3.537.012-9.656.132-18.355.362-4.422.117-8.176.327-12.47.668l-6.971.596c-1.86.156-3.31.262-4.713.338-3.32.18-6.294.181-9.551-.03-7.006-.452-12.513-1.602-16.522-3.454l-.53-.256c.052-.135.103-.258.154-.367Z" fill="#A4ABB6"/>
        <path d="M11.926 64.385c1.274 1.32 3.44 2.534 5.609 3.12 2.454.664 8.728 2.558 27.514 3.016 11.21.274 25.357.052 36.494-.84.74-.06 1.556-.26 2.447-.6l-.15.053.006.042a2 2 0 0 1-1.907 2.242c-43.877 1.72-67.23-.07-70.059-5.368-.125-.353-.125-.848 0-1.486Z" fill="#848FCC"/>
        <path d="M60.102 33.4c-1.074-.531-3.263-1.18-4.753-.419-1.489.761-1.626 1.635-1.457 2.731.288.076.504.076.647 0 .637-.817 1.319-1.185 2.045-1.104 1.089.122 3.32 1.111 3.907.67.588-.44.684-1.346-.39-1.878Z" fill="#262327"/>
        <path d="m63.898 37.908 1.771 1.209.745-.303.308.634c.395-.408.611-.62.65-.634.037-.014.309.248.814.789.987-.489 1.933-.424 2.837.195.904.619 1.262 1.43 1.074 2.435l.957.438-.367.634.723.17-.117.89c.95.667 1.41 1.005 1.378 1.013-.131.033-1.247-.232-1.345-.305-.097-.073-.706.178-.812.145-.07-.022-.285-.07-.642-.145l-.332.145-.496-.35-.352.35-1.067-.532-.563-.169-2.215-1.449-.207-.42-.312-.516v-.251l-.454-.4v-.33l-.148-.375.148-.296-.31-.273-.162-.367-.391-.392-1.113-1.54Z" fill="#66232E"/>
    </g>
</svg>
