<svg width="96" height="96" xmlns="http://www.w3.org/2000/svg">
    <defs>
        <path id="a" d="M0 0h96v96H0z"/>
    </defs>
    <g fill="none" fill-rule="evenodd">
        <path d="M14.18 58.397c.735-.54 1.618-.876 2.648-1.008 1.545-.197 4.54-.258 8.99-1.023 4.45-.764 9.514-2.425 9.993-2.557.48-.133 7.436 5.467 7.971 7.185.535 1.719-1.957 5.335-6.784 5.408-4.827.072-13.99 1.914-17.747-1.545-2.504-2.306-4.194-4.46-5.072-6.46Z" fill="#F3F0ED"/>
        <path d="M18.738 57.532c2.475.802 4.562 1.85 8.59 1.77 4.028-.08 7.665.55 9.122 1.503.97.636 2.523.15 4.658-1.456 1.323 2.296 1.526 3.798.61 4.508-1.374 1.064-3.182 2.491-9.356 2.205-6.173-.286-10.44-.669-11.286-.863-.847-.194-4.897-4.774-5.453-5.024-.246-.11-.595-.433-1.047-.967-.148-.273-.28-.544-.397-.811.736-.54 1.62-.876 2.649-1.008.254-.032.548-.061.881-.09a5.66 5.66 0 0 1 1.029.233Z" fill="#E8E5DD"/>
        <path d="M17.106 59.896c2.606 1.561 6.814 2.66 12.236 2.976l1.843.101c3.167.164 6.808.3 10.922.41-.09.186-.22.343-.389.474l-.582.44c-1.3.937-3.265 1.933-8.17 1.788l-2.457-.115c-5.166-.272-8.674-.597-9.433-.77-.847-.195-4.897-4.775-5.453-5.025-.245-.11-.593-.43-1.042-.962a10.344 10.344 0 0 1-.402-.816c.22-.161.453-.304.698-.43.269.558 1.013 1.2 2.23 1.93Z" fill="#D8D2C8"/>
        <path d="M58.77 21.035c.873.37 1.073 1.37.6 3.001 1.546.326 2.842.77 3.886 1.335 1.566.847 3.259 2.371 3.182 4.43-.077 2.06-.386 2.447.175 2.616.56.17 5.07.91 6.585.955 1.516.045 2.318.098 2.31 0v-.147c.01-.8.132-4.575 1.067-4.827 1.035-.28 2.002-.527 2.28 1.631.279 2.158.74 5.143.633 6.03-.108.888-.52 1.918-.468 2.384.035.311.114.878.237 1.699.242.095.396.27.462.522.1.38.412 2.011.328 2.777.218.423.445 1.706.614 1.813.17.107.482.08.679.54.197.46 1.425 4.452 1.31 4.983-.113.53-.737.547-1.001.738-.264.19-.124.413 0 .649.124.236.803 2.435 1.002 3.946.199 1.51.255 3.965.383 4.271-1.108-.125-3.346-.353-5.555.623-2.208.975-6.675 2.383-9.486 2.206-2.812-.177-10.506 1.24-12.887 1.808-2.38.569-4.804 1.147-7.452.35a54.126 54.126 0 0 0-5.828-1.377c-1.074-2.06-2.207-3.637-3.4-4.732-1.79-1.642-3.2-3.132-3.537-3.416-.336-.285-.454-1.127 0-1.575.454-.448.732-.743.794-.913.062-.171.279-.832.648-1.063.369-.231.779-.003.997-.128.219-.126 1.635-.646 1.866-.819.23-.173 1.392-1.413 1.647-1.396.255.016.879.026.934-.345.056-.37 1.362-.84 1.638-.87.276-.031.64-.474 1.118-.613.479-.14 1.072-.645 1.29-1.051.218-.406.87-.294 1.099-.365.228-.07.87-.576 1.08-1.271.21-.695.54-1.081 1.361-1.59.821-.51 2.061-1.38 2.34-1.732.28-.352.784-1.892 1.134-2.307.35-.414.436-.873.269-1.07-.168-.197-.007-2.453.182-2.979.189-.526.364-.61.477-.739.113-.129.604-.824.523-2.6-.081-1.775.38-5.54 1.348-7.96.968-2.422 1.826-3.976 3.136-3.422Zm17.683 8.874c-.135.822-.196 1.955-.182 3.4.92-.04 1.415-.04 1.485 0 .105.062.085.398.178.458.094.06.443.2.578.377.09.119.194.332.31.64.005-1.483-.056-2.552-.18-3.207-.187-.982-.413-2.776-.97-2.832-.558-.057-1.016-.068-1.22 1.164Zm-19.14-7.685c-.67 1.285-1.478 3.314-1.717 4.14-.24.825-.9 4.276-.905 5.089.03-.156.131-.252.301-.29-.086-.525-.016-.842.21-.95-.052-.348.156-1.048.44-1.05-.1-.615.003-.938.197-1.052-.05-.288.095-.805.345-.85-.154-.311.053-.836.259-.898-.071-.272.043-.795.41-.86.114-.18.545-.872.601-1.015.056-.142.132-.668.594-.695.308-.018.52-.018.639 0 .143-.853.185-1.376.126-1.569-.089-.289-.832-1.284-1.5 0Z" fill="#D8D4C4"/>
        <path d="m62.867 43.711 9.713 3.83c1.009.4 2.019.804 3.055 1.225 2.11.856 4.203 1.73 6.278 2.621-.104.04-.196.078-.264.128-.264.19-.124.413 0 .649l.077.192c.22.618.753 2.445.925 3.754.199 1.51.255 3.965.383 4.271l-.5-.052c-1.204-.112-3.14-.17-5.055.675-2.078.918-6.157 2.218-8.974 2.22l-.512-.014c-2.69-.17-9.846 1.12-12.547 1.73l-.34.078c-.942.225-1.89.452-2.857.594l-.466-.01c-.755-.034-.962-.168-.622-.403l-1.136-.51c-2.187-1.013-3.043-1.611-2.569-1.794l1.21-.476c13.828-5.556 17.881-11.204 8.568-15.375-1.146-.513 2.732-4.486 5.633-3.333Z" fill="#C9C3AB"/>
        <path d="m80.333 50.713 1.191.507.007.437c-.043.073-.037.154-.01.238-.007.219-.027.41-.058.576-.09.496-.834 1.115-2.23 1.858l-11.394 4.11-1.42.496c-2.472.847-11.909 5.1-12.904 5.127-.58.016-.999-.809-1.255-2.473l-.09-.677.819-.385 27.344-9.814Z" fill="#ADA68C"/>
        <path d="m78.855 30.03.408 3.061c.166 1.306.285 2.47.225 2.968-.108.888-.52 1.918-.468 2.384l.067.529c.04.295.095.67.163 1.126-.128-.002-.216-.047-.266-.132-.303-1.086-.34-1.896-.295-3.127l.046-1.013a8.92 8.92 0 0 0-.012-1.291l.1.249-.007-.928c-.017-.865-.062-1.547-.135-2.045l-.216-1.215c-.166-.884-.395-1.811-.793-1.851-.558-.057-1.016-.068-1.22 1.164-.133.813-.194 1.93-.181 3.353-.241.058-.514.072-.764.05l.01-.469c.039-1.236.23-4.222 1.058-4.445l.308-.08c.914-.225 1.722-.23 1.972 1.711ZM58.77 21.034c.866.367 1.07 1.355.61 2.965a7.149 7.149 0 0 1-.963-.22l.203.005a.946.946 0 0 1 .067.008l.088-.578c.07-.516.082-.846.038-.99-.089-.29-.832-1.285-1.5 0-.67 1.284-1.478 3.313-1.717 4.138l-.126.5c-.289 1.258-.775 3.894-.78 4.59a.338.338 0 0 1 .16-.235l-.17 2.194c-.07.851-.182.969-.322 1.245-.11.214-.35.447-.723.697.127-.224.048-.245.128-.337l.099-.152c.158-.237.437-.808.433-2.084l-.009-.364c-.081-1.775.38-5.54 1.348-7.96l.288-.7c.856-2.012 1.669-3.22 2.848-2.722Z" fill="#85352A"/>
        <path d="m57.892 23.825.156-.032.779.114c.168.027.352.058.55.093l-.008.036c1.547.326 2.843.77 3.887 1.335 1.566.847 3.259 2.371 3.182 4.43-.056 1.49-.232 2.104-.114 2.395l-.747 2.723a22.099 22.099 0 0 0-.334 1.348c-.225 1.183-6.165 4.365-8.151 6.648l-.204.25c-1.634 2.15-4.558 3.21-7.725 4.775l-.637.32c-3.408 1.747-7.178 2.361-6.44 1.9l4.9-2.854c.742-.44 1.294-.779 1.39-.873.313-.308.79-1.904 1.98-2.755 1.189-.85 2.36-2.044 2.626-2.252.242-.189.67-1.16.664-1.951l-.016-.231c-.111-.821.434-3.775.459-3.864.024-.09.365-.418.376-.49l.018-.176c.016-.123.045-.281.11-.41-.068-.104-.094-.568.204-.95-.28-.147-.214-.46 0-.727-.208-.154-.136-.571 0-.738-.081-.033-.12-.132-.116-.299l.01-.137c.03-.156.131-.252.301-.29-.086-.525-.016-.842.21-.95-.052-.348.156-1.048.44-1.05-.1-.615.003-.938.197-1.052-.05-.288.095-.805.345-.85-.154-.311.053-.836.259-.898-.071-.272.043-.795.41-.86l.477-.783c.061-.105.108-.19.124-.232l.063-.2c.058-.17.158-.383.375-.463Z" fill="#DFD7D5"/>
        <path d="M56.9 33.185c.011-2.693 1.363-7.821 5.447-6.911 3.943.879 4.662 3.662 3.645 5.522l-.116.196c-.552.869-1.83 3.75-3.324 6.68l-2.013 1.41c-1.366.968-2.692 1.965-3.447 2.833l-.204.25c-.89 1.17-2.16 2.017-3.645 2.799-.601-.375-.799-.979-.292-1.738l.142-.193c1.572-1.971 3.797-8.155 3.807-10.848Z" fill="#C9C2BC"/>
        <path d="M53.998 44.003c.292.372.877.602 1.339.672l-.44.312c-.47-.13-.937-.383-1.214-.737-.38-.486-1.275-1.196-1.99-1.654l.31-.275c.744.485 1.602 1.18 1.995 1.682Zm-1.411-2.22.825.534 1.632 1.071.469.323c.208.148.378.278.509.394a6.413 6.413 0 0 1-.307.27l-.13-.103a14.05 14.05 0 0 0-.543-.4l-2.76-1.805.305-.284Zm3.596 1.235.226.165c.093.072.195.138.3.197l.179-.216c-.14.183-.288.359-.445.527l-.108-.07-.17-.122c-.658-.508-2.673-1.683-3.33-1.954l.147-.119a.768.768 0 0 0 .153-.183c.722.331 2.277 1.236 3.048 1.775Zm-1.64-2.16 1.68 1.014.917.59c.081.053.158.105.23.156-.102.101-.194.2-.278.297l-.456-.305-1.225-.768-1.073-.64a3.416 3.416 0 0 0-.977-.412c.049-.114.095-.242.135-.376.351.085.682.227 1.047.444Zm-.631-3.162 2.863 1.19.801.35c.153.07.29.136.416.198l.35.184c.1.056.184.109.25.157.183.131.288.257.244.402l-.045.09a.33.33 0 0 0-.044.1l-.04.196c-.054.32-.105.46-.286.581-.219.146-.545.136-1.037-.02l-.964-.32-2.8-.95.02-.192.003-.225 1.074.36 2.788.945c.388.123.603.13.694.07.04-.027.064-.073.088-.182l.028-.15c.036-.216.067-.324.147-.44-.046.066-.056.085-.077.076l-.026-.017a4.19 4.19 0 0 0-.545-.307l-.407-.193-.5-.222-3.227-1.353.048-.408.184.08Zm.43-2.637 3.151 1.122.391.153.087.037.155.082 1.116.682.08.052c.398.26.674.465.81.62.309.346.043.58-.434.506l-.857-.142-.793-.147c-1.311-.255-2.529-.554-3.049-.792l-.356-.176-.773-.42.068-.418.698.38c.202.111.368.196.53.27.584.268 2.194.635 3.754.91l.716.118-.326-.236-.652-.418-.781-.47-.118-.057a12.08 12.08 0 0 0-.559-.216l-3.111-1.12c.014-.054.15-.2.253-.32Zm.292-1.874.495.097c.353.073.632.141.87.22l3.303 1.174.701.266c.296.121.247.144.221.294-.06.349-2.438.294-3.512-.002l-.285-.082-1.908-.638a.969.969 0 0 1 .074-.21.436.436 0 0 1-.043-.195l1.692.567c.21.067.399.124.576.173.346.095.966.158 1.553.204l1.075.073-.266-.08-2.892-1.01-.215-.082a5.003 5.003 0 0 0-.77-.225l-.651-.132c.036-.082.084-.164.145-.242a.335.335 0 0 1-.163-.17Zm.483-1.469.273.03c1.32.127 3.766.927 5.961 2.043l.458.243c.332.186.543.334.643.45.122.141.143.322-.023.432-.086.057-.2.07-.36.063-.424-.02-1.247-.224-2.062-.5l-1.65-.59-.791-.272c-1.258-.423-2.207-.693-2.643-.733a1.698 1.698 0 0 0-.275 0 .939.939 0 0 1 .149-.255.302.302 0 0 1-.103-.146c.092-.006.18-.005.265.003.611.055 2.055.498 3.939 1.17l.9.325c.663.243 1.375.446 1.874.542l.24.039a7.083 7.083 0 0 0-.518-.298l-.224-.117c-2-1.016-4.212-1.766-5.53-1.964l-.288-.036a6.292 6.292 0 0 1-.641-.091.548.548 0 0 1 .086-.165c-.06-.025-.098-.087-.111-.187l-.003-.06.273.051.161.023Zm.092-1.811.655.033.313.026.15.018c.203.027.389.065.56.115l.31.112 4.564 1.805.79.328c.66.285.953.445 1 .547.099.22.128.525 0 .742-.193.323-.629.352-1.294.086l-.347-.145-2.554-1.151-.782-.337c-.85-.355-1.486-.578-1.92-.662l-1.552-.204a13.66 13.66 0 0 0-.209-.022l.1-.033a2.477 2.477 0 0 1-.036-.367l1.57.201c.534.064 1.369.358 2.575.877l2.756 1.239.548.233c.504.202.738.186.8.08.048-.08.03-.259-.02-.372l-1.738-.732-2.542-1.012-1.927-.757a2.868 2.868 0 0 0-.705-.174l-.282-.031-.904-.049a.351.351 0 0 1 .114-.086 1.113 1.113 0 0 1 .007-.308Zm1.558-1.15c.298.018.676.114 1.193.295l.672.253 2.012.802.599.224c.47.17.901.35 1.378.571l1.27.622c.837.416 1.37.653 2.015.877.13.045.241.079.337.102l-.104.386a4.236 4.236 0 0 1-.364-.11 14.67 14.67 0 0 1-1.66-.7l-1.176-.581c-.507-.248-.94-.444-1.383-.62l-1.055-.398-2.354-.934c-.654-.246-1.097-.371-1.403-.389-.541-.03-1.041.023-1.251.075a.225.225 0 0 1 .148-.068 2.902 2.902 0 0 1-.037-.358c.303-.049.72-.073 1.163-.048Zm1.74-.479c.439.154.876.324 1.33.515l.692.303c.434.196 2.46 1.173 2.916 1.362.226.094.489.19.797.292l2.079.649-.033.384a.457.457 0 0 1-.103-.015l-1.739-.532c-.464-.146-.84-.278-1.155-.408l-.391-.175c-.763-.35-2.188-1.035-2.536-1.192a24.416 24.416 0 0 0-1.99-.805c-1.122-.393-1.814-.502-2.485-.468l-.147.01a.357.357 0 0 1 .097-.085.966.966 0 0 1 .009-.323l.293-.007c.642.003 1.34.137 2.365.495Zm-1.442-1.266c1.082.053 2.583.546 4.194 1.3l.55.266 2.715 1.403.324.154c.044.02.082.035.115.048.416.161 1.139.258 1.444.265l-.032.373c-.45.029-1.09-.084-1.556-.265l-.28-.122-.406-.201-1.867-.974a40.477 40.477 0 0 0-.916-.46l-.26-.124c-1.568-.734-3.027-1.214-4.045-1.263l-1.019-.048a.278.278 0 0 1 .158-.1.592.592 0 0 1-.053-.282l.402.008c.156.005.332.012.532.022Zm1.626-.68.523.195c.895.354 2.198.944 2.752 1.267l.155.097c.618.427 2.49 1.267 3.262 1.426l.182.026c.31.014.623.15.872.335v.125l-.017.388a1.502 1.502 0 0 0-.699-.423l-.175-.026c-.636-.03-2.562-.86-3.44-1.386l-.212-.136c-.46-.318-2.49-1.222-3.332-1.51-.438-.15-1.219-.19-2.331-.111.055-.12.133-.21.212-.234a.7.7 0 0 1-.02-.178l.137-.033c1.199-.088 1.62.002 2.131.177Z" fill="#B9B19A"/>
        <path d="m58.048 23.793.779.114.55.093-.008.036c1.547.326 2.843.77 3.887 1.335 1.566.847 3.259 2.371 3.182 4.43-.056 1.49-.232 2.104-.114 2.395l-.571 2.079-1.317.143c.1-.296.204-.735.31-1.318l.131-.768c.232-1.466.273-2.783-.565-4.027-.839-1.244-4.847-2.702-5.592-2.795-.397-.05-.894-.07-1.49-.062l-.35.009.45-.737.098-.177a.674.674 0 0 0 .026-.055l.063-.2c.058-.17.158-.383.375-.463l.156-.032Z" fill="#908A88"/>
        <path d="M56.136 28.058c-.098.03-.365.2-.394.33-.02.085.046.27.196.555-.028.232-.122.361-.28.389-.236.04-.28.554-.165.656.113.103.033.1-.13.201-.162.102-.172.61 0 .788-.294.238-.481.456-.375.665-.035.297-.059.666 0 .774.06.107-.256.351-.208.618a.508.508 0 0 1-.02.294l.037.027c-.28-.148-.214-.46 0-.728-.208-.154-.136-.571 0-.738-.081-.033-.12-.132-.116-.299l.01-.137c.03-.156.131-.252.301-.29-.086-.525-.016-.842.21-.95-.052-.348.156-1.048.44-1.05-.1-.615.003-.938.197-1.052-.032-.187.017-.47.125-.659l.134.355c.048.128.08.238.038.25Zm1.756-4.233.027-.007.119-.124c-.225.22-.356.42-.392.598-.054.266-.339 1.008-.416 1.156-.396.028-.577.338-.591.443-.01.07-.018.17.126.526-.29.047-.467.107-.532.18-.066.073.002.275.204.606l-.284.093a1.77 1.77 0 0 0-.095.038.23.23 0 0 1 .126-.073c-.154-.311.053-.836.259-.898-.071-.272.043-.795.41-.86l.477-.783.098-.177a.674.674 0 0 0 .026-.055l.063-.2c.058-.17.158-.383.375-.463Z" fill="#603333"/>
        <path d="m59.674 30.746.156.007.664.104c1.052.18 2.864.535 4.028.89l.3.096c.578.197 1.094.339 1.546.425.046.068.126.113.245.15.532.16 4.628.836 6.336.942l1.676.058c.586.017.888.014.883-.046l-.013-.016 1.003-.005.131-.059.8-.013c.188.003.297.013.327.03.105.062.085.398.178.458l.343.185c.093.056.181.121.235.192.058.076.121.19.19.344l.035.493c.031.56.035 1.043.044 1.149.019.214-.301 2.22-.26 2.615.027.264.2.808.52 1.632a44.16 44.16 0 0 1-2.724-.826l-.582-.207c-1.406-.516-12.586-5.075-14.088-5.354-1.502-.28-3.482 7.55-3.115 7.883.366.333.355 1.84 1.007 3.93-.325 2.008-2.649 2.503-3.43 2.522l-.843-.028c-1.177-.02-3.158.159-4.939 2.117l-.28.325c-2.403 2.942-3.907 2.114-4.58 1.993-.31-.386-1.045-2.025-1.126-2.595l-.06-.436c-.053-.441-.057-.88.193-1.182.333-.402 2.583-1.093 3.036-1.772.452-.678 1.533-.868 2.061-.945.528-.077.626-.666.902-1.301.275-.635 1.697-.379 3.197-.461 1.5-.083 2.203-.419 2.625-1.205.422-.786-.107-2.172-.185-3.546-.079-1.375.505-4.682.972-6.233.437-1.448 1.818-2.283 2.592-2.31Z" fill="#EAE6DB"/>
        <path d="m72.95 33.36 1.675.058.538.009c.231-.002.348-.017.345-.055l-.013-.016 1.003-.005.131-.059.8-.013.223.01c.054.005.09.012.104.02.093.055.088.322.15.426l.549-.06-1.071.092c-1.178.092-2.103.133-2.776.123-1.21-.02-6.667-1-7.624-1.386l.68.128c1.471.262 4.027.65 5.285.728Z" fill="#B1AC9E"/>
        <path d="M64.418 33.651c1.548-.048 9.122 1.274 11.678 1.527 1.005.1 1.886.042 2.643-.172l.042 1.124c.019.214-.301 2.22-.26 2.615.027.264.2.808.52 1.632a44.16 44.16 0 0 1-2.724-.826l-.582-.207-1.644-.642c-2.505-.993-7.078-2.824-9.974-3.892-.387-.59-.509-1.134.3-1.159Z" fill="#CDC6B6"/>
        <path d="M57.578 32.114c.635-.631 1.893-.227 2.985.243l2.448 1.094c1.326.581 3.061 1.32 4.216 1.745l2.962 1.051c2.046.737 4.535 1.657 5.428 2.054l3.055 1.476c.063.031.226.033.404.143.177.11.184.767.25 1.02.1.38.413 2.011.328 2.777.218.423.445 1.706.615 1.813.17.107.481.08.678.54.197.46 1.425 4.452 1.311 4.983-.114.53-.738.547-1.002.738-.263.19-.124.413 0 .649l.077.193c.22.617.753 2.444.925 3.753l.077.696c.128 1.35.187 3.01.28 3.478a43.746 43.746 0 0 0-3.177-.253c-1.841-.074-5.54 1.638-8.161 2.417-2.621.78-4.694.368-6.614.346.015-.822.846-2.819 2.289-4.881l.296-.413c1.626-2.204 2.918-6.51 1.953-7.41-.964-.9-2.568-1.033-3.796-1.25-1.228-.217-4.262-1.72-5.35-2.461-.999-.68-1.18-1.573-1.268-2.516l-.023-.259c-.078-.963-.276-1.668-1.335-1.959l-.26-.06c-1.289-.242-1.053-1.432-1.32-2.487-.266-1.056.456-3.376.66-4.232.204-.855.222-2.185 1.069-3.028Z" fill="#9B9276"/>
        <path d="M57.63 32.445c.847-.842 2.8.158 3.994.698 1.193.54 4.44 1.97 6.017 2.513 1.577.543 7.179 2.552 8.205 3.058 1.026.505 2.973 1.427 2.976 1.446.002.01.201-.028.426-.075l.009.057c.242.095.396.27.462.522.1.38.412 2.011.328 2.777.218.423.445 1.706.614 1.813.17.107.482.08.679.54.197.46 1.425 4.452 1.31 4.983-.113.53-.737.547-1.001.738-.264.19-.124.413 0 .649.124.236.803 2.435 1.002 3.946.185 1.403.246 3.622.357 4.175a43.343 43.343 0 0 0-3.177-.254c-1.841-.074-5.541 1.638-8.162 2.417-2.62.78-4.694.368-6.613.345.016-.876.96-3.09 2.585-5.293 1.626-2.204 2.918-6.51 1.953-7.41-.965-.9-2.568-1.033-3.796-1.25-1.228-.217-4.262-1.72-5.351-2.461-1.089-.742-1.206-1.737-1.29-2.775-.084-1.038-.308-1.775-1.596-2.018-1.288-.243-1.393-.826-1.66-1.882-.266-1.055.456-3.376.66-4.231.204-.856.222-2.186 1.069-3.028Z" fill="#E0DBCB"/>
        <path d="m71.965 38.453-.1-.061c-1.003-.539 5.793 2.064 6.675 2.531.883.468.93 2.651 1.195 3.226.08.174.28.407.6.698l.205.184c.043.117.084.2.121.223.084.052.201.073.322.134l.197.155c.04.04.077.09.11.151l.05.1c.036.086.107.29.199.571L69.886 51.85c.096-.819.02-1.468-.292-1.759a2.846 2.846 0 0 0-.39-.303c.771-.637 1.797-1.847 3.073-3.623 2.656-3.697.723-7.013-.312-7.711Z" fill="#D7D2C1"/>
        <path d="M70.13 37.388c-3.689-.9-5.964-.587-6.825.939-.861 1.526-.915 3.721-.162 6.586a42.401 42.401 0 0 1-3.636.392c-.194-.422-.27-.877-.318-1.346l-.032-.355c-.078-.963-.276-1.668-1.336-1.959l-.26-.06c-1.288-.242-1.393-.825-1.66-1.88-.177-.704.084-1.97.339-2.99l.326-1.265.365-.934c.382-.93.71-1.485 1.266-1.52 1.016-.064 4.994 1.4 11.933 4.392Z" fill="#D9D3C2"/>
        <path d="M80.047 43.441c.218.423.445 1.706.614 1.813.17.107.482.08.679.54.197.46 1.425 4.452 1.31 4.983-.113.53-.737.547-1.001.738-.264.19-.124.413 0 .649l.077.192c.22.618.753 2.445.925 3.754l.077.696c.128 1.35.186 3.009.28 3.478a43.746 43.746 0 0 0-3.177-.253c-1.841-.074-5.541 1.638-8.162 2.417-2.62.78-4.694.368-6.613.345.015-.821.846-2.818 2.289-4.88l.296-.413c1.626-2.204 2.918-6.51 1.953-7.41-.409-.381-.933-.625-1.494-.796.07-.148.117-.272.137-.367l.011-.086c.035-1.067 2.197-2.04 4.077-2.743l5.29-1.887c1-.349 1.912-.654 2.438-.792l-.006.022Z" fill="#CDC6AF"/>
        <path d="M81.463 50.307c.05.516.072.966.068 1.348-.043.074-.037.155-.01.238-.007.22-.027.411-.058.578-.09.496-.834 1.115-2.23 1.858l-11.474 4.137c-.394.14-.732.258-1.016.357.187-.3.387-.604.602-.91l.296-.413c.552-.748 1.065-1.738 1.465-2.755l12.357-4.438Z" fill="#BAB39B"/>
        <path d="M44.406 51.673c.134 1.343 1.543 5.222 2.372 7.262l.148.36c.53 1.268 1.714 3.504 3.55 6.706a9.517 9.517 0 0 1-3.22-.378 54.126 54.126 0 0 0-5.829-1.378c-1.073-2.06-2.207-3.637-3.4-4.732l-.652-.606c-1.474-1.39-2.59-2.561-2.884-2.81-.337-.285-.454-1.127 0-1.575l.345-.347c.25-.26.404-.444.449-.566l.09-.245c.108-.269.293-.653.557-.818.369-.231.78-.002.998-.128l.296-.134c.493-.206 1.39-.55 1.569-.685.23-.173 1.392-1.412 1.647-1.396l.246.005c.286-.008.647-.072.688-.35.05-.328 1.081-.735 1.507-.844.733.502 1.302 1.47 1.479 2.364l.044.295Z" fill="#9C9584"/>
        <path d="m44.76 51.124.045.295c.134 1.343 1.543 5.222 2.372 7.262l.148.36c.53 1.268 1.713 3.503 3.55 6.706a9.517 9.517 0 0 1-3.221-.378 54.126 54.126 0 0 0-5.828-1.378c-1.074-2.06-2.207-3.637-3.4-4.732l-.652-.606c-1.474-1.39-2.59-2.561-2.885-2.81-.336-.285-.454-1.127 0-1.575l.345-.347c.25-.26.405-.444.45-.566l.09-.245c.107-.269.293-.653.557-.818.369-.231.779-.003.997-.128l.297-.134c.493-.206 1.39-.55 1.569-.685.23-.173 1.392-1.413 1.647-1.396l.246.005c.285-.008.646-.072.688-.35.05-.328 1.081-.735 1.507-.844.732.502 1.302 1.47 1.479 2.364Z" fill="#E6E1D5"/>
        <path d="M40.395 57.793c1.972.374 4.506.537 6.648.548l.282.7c.53 1.268 1.713 3.503 3.55 6.706a9.517 9.517 0 0 1-3.221-.378 54.126 54.126 0 0 0-5.828-1.378c-1.074-2.06-2.207-3.637-3.4-4.732l-.652-.606-1.438-1.39c-.669-.66-1.16-1.161-1.386-1.367 1.651.724 3.9 1.604 5.445 1.897Z" fill="#E1DACB"/>
        <path d="m82.765 57.226.171 2.428c.03.372.061.639.098.727l-.5-.052c-1.204-.112-3.14-.17-5.055.675-2.078.918-6.157 2.218-8.974 2.22l-.512-.014c-.796-.05-1.983.027-3.33.177.13-.172.225-.357.283-.55.9-3.05 3.236-3.48 4.894-2.9 1.658.582 4.968-3.177 8.322-3.481 1.858-.169 3.392.088 4.603.77Z" fill="#C2BBA3"/>
        <path d="m58.556 41.977.914.315c2.376.829 4.405 1.497 5.296 2.085 2.296 1.516 3.79 3.834 3.538 4.453-.224.549-3.028.174-5.419-.954l-.463-.238-.41-.218c-.482-.28-1.388-.94-1.801-1.216-.784-.648-.948-1.459-1.029-2.313l-.025-.287c-.044-.55-.341-1.275-.601-1.627Z" fill="#B3A88E"/>
        <path d="m58.769 42.237-.234-.077c3 1.004 5.031 1.83 6.095 2.479 1.595.973 3.676 3.369 3.424 3.988-.224.547-3.218-.002-5.605-1.123a28.523 28.523 0 0 1-.906-.473l.013.007a25.694 25.694 0 0 1-1.321-.818c-.893-.72-1-1.65-1.078-2.616-.044-.55-.128-1.015-.388-1.367Z" fill="#D0C8B5"/>
        <path d="M86 66c-.917 2.787-3.503 4.559-7.757 5.315-.407.063-.758.063-1.055 0-1.44.455-2.503.683-3.188.685-1.028.003-7.686 0-8.742 0-1.055 0-1.912-.802-2.343-.852-.431-.05-5.155-.323-7.724-.323-2.568 0-7.422.593-8.594.73-1.172.138-2.147.445-3.73.445H33.74c-2.087 0-11.19-1.19-15.538-3.418-4.348-2.228-6.198-3.134-6.198-6.582 0-2.142 1.152-3.54 2.175-3.603.668.405 2.902 2.094 4.023 3.123.748.685 1.673 1.686 2.775 3 .705-.185 1.524-.25 2.456-.197 1.398.082 2.61.227 4.888.066 2.279-.16 4.937-.76 7.212.136 2.276.895 4.445-.45 5.009-.832.563-.382 1.385-1.394 5.432-.185 4.047 1.21 4.991 1.954 11.369.043 6.378-1.912 10.018-1.506 11.199-1.358 1.18.147 2.713.15 6.285-1.351 3.572-1.503 6.582-1.771 8.039-.857.566.413 1.632 1.692 2.73 3.774.34.643.474 1.39.404 2.241Z" fill="#F0F1ED"/>
        <path d="m84.317 61.807.228.168c.336.507.692 1.103 1.05 1.784.34.643.475 1.39.405 2.241-.917 2.787-3.503 4.559-7.757 5.315-.407.063-.758.063-1.055 0-1.44.455-2.503.683-3.188.685h-8.742c-1.055 0-1.912-.802-2.343-.852l-1.623-.106c-1.718-.096-4.389-.217-6.1-.217-2.569 0-7.423.593-8.595.73-1.172.138-2.147.445-3.73.445H33.74c-2.087 0-11.19-1.19-15.538-3.418l-1.77-.915c-3.085-1.637-4.428-2.73-4.428-5.667l.006-.237c.912-.352 1.995.035 3.247 1.16 2.909 2.611 5.277 6.033 9.436 6.222 4.033.183 2.625-1.374.894-1.751l-.163-.032c-1.8-.31-1.566-.86 2.34-.826 3.904.034 7.636 1.043 9.731.92 2.095-.122 4.341-2.418 7.714-1.357 3.195 1.005 6.376.488 8.192-.228l.954-.404c2.173-.9 6.652-2.545 8.95-2.811l.77-.071c2.78-.207 5.126.354 8.153-.555s9.215-4.258 12.09-.223Z" fill="#E5E5E5"/>
        <path d="M28.23 70.572c5.027.588 14.5-.03 19.063-1.005 7.364-1.573 8.83-.885 11.65-1.497 2.504-.543 4.802-1.262 9.153-3.007 4.351-1.746 11.645-4.283 14.929-2.84 3.283 1.444 2.272 4.307 1.518 6.207-1.354 1.419-3.454 2.38-6.3 2.885-.407.063-.758.063-1.055 0-1.44.455-2.503.683-3.188.685h-8.742c-1.055 0-1.912-.802-2.343-.852l-1.623-.106-1.437-.074c-1.556-.075-3.38-.143-4.664-.143-2.568 0-7.422.593-8.594.73-1.172.138-2.147.445-3.73.445H33.74c-2.087 0-11.19-1.19-15.538-3.418l-1.77-.915c-1.361-.723-2.383-1.339-3.1-2.054 6.618 2.918 11.584 4.572 14.898 4.96Z" fill="#DADADA"/>
        <path d="m14.18 58.397.374.246c.908.628 2.687 1.995 3.648 2.877.748.685 1.673 1.686 2.775 3 .705-.185 1.524-.25 2.456-.197l1.382.09a25.47 25.47 0 0 0 3.506-.024c2.116-.149 4.56-.676 6.72-.034l.492.17c2.156.848 4.216-.315 4.906-.764l.55-.385c.61-.386 1.724-.77 4.548.007l.437.125c3.527 1.055 4.697 1.756 9.162.653-3.408 1.293-5.298.989-6.362.793-1.207-.222-5.782-1.742-6.782-1.292l-.45.22c-1.21.623-3.452 1.888-4.65 1.645l-.78-.15c-1.442-.26-3.518-.55-5.07-.423l-1.775.137c-1.816.128-3.96.24-4.822.108l-.726-.098c-1.114-.132-2.399-.2-2.342.098.07.368 1.706 2.436 2.291 2.82.39.257 1.487.13 3.289-.381-1.767.813-2.983 1.077-3.65.79-.999-.43-2.507-3.11-3.157-3.973-.65-.864-2.698-2.738-4.714-4.074-1.845-1.222-2.362-.447-3.025-.412.425-.96 1.122-1.532 1.768-1.572Z" fill="#FFF"/>
        <path d="M85.342 64.53c-.708.815-1.124 1.415-1.248 1.798-.306.947-.298 1.93-.06 2.43.02.042.053.064.095.073-1.348 1.197-3.312 2.027-5.886 2.484-.407.063-.758.063-1.055 0-1.44.455-2.503.683-3.188.685h-8.742c-1.055 0-1.912-.802-2.343-.852l-1.77-.114a184.85 184.85 0 0 0-2.888-.136l-3.855-.06c-.605-.425-.457-.652.445-.68 1.351-.044 3.63.278 3.657.268.51-.18.055-.496-.429-.688l-.147-.056c.126.03 1.93.603 2.657.977.824.424 1.57.148 1.756.123.124-.016-.237-.446-1.083-1.288l.661.419c.507.331.904.621 1.19.87.6.52 1.69.593 2.227.471.538-.122-.627-.858-.42-1.76.139-.6.733-1.006 1.783-1.217-.802.235-1.256.64-1.363 1.217-.16.865.153.938.933 1.553s1.91.343 2.273.42c.242.05-.302-.539-1.632-1.767.955.682 1.793 1.2 2.516 1.554 1.083.532 1.619.225 2.023.212.404-.013-.85-1.09-1.075-1.521-.15-.288.047-1.08.592-2.374-.218.821-.28 1.53-.189 2.129.138.897 1.745 1.55 2.286 1.554l.314-.005c.577-.02 1.35-.1 1.137-.202-.17-.082-.882-.85-2.133-2.303l1.067.825c.643.488 1.152.851 1.527 1.09.843.537 1.725.783 2.293-.238.567-1.02 1.262-3.674.815-4.662-.299-.659-.979-.846-2.04-.56.43-.205.838-.3 1.225-.284.58.024 1.248.554 1.2 1.64-.047 1.086-.59 3.547-.591 3.866 0 .32 1.278.514 1.877-.202s.357-3.71 0-5.304c.57.74.805 2.335.706 4.785.36.563.719.645 1.077.245.538-.6.574-3.884.23-5.286.887.791.279 4.575.254 4.835-.025.26 1.11-.123 1.339-.35.228-.226.288-2.12.288-2.964-.194-.624-.697-1.422-.64-1.52.057-.1.852 1.384 1.023 1.027.114-.238.55-.623 1.311-1.156Z" fill="#C2C2C2"/>
        <path d="M22.34 69.622c.613.514 2.039 1.063 2.118.516a5.741 5.741 0 0 0 2.114.696c.799.096 1.042.286.726-.2.572.315.996.474 1.273.478.415.006.467-.078.445-.453.659.4 1.12.624 1.382.675 1.918.37 1.016-.257 1.183-.287.446.431 2.142.54 2.381.535.239-.006-.68-.634-.673-.757.007-.122.872.398 1.302.641.43.243 1.722.287 1.814.116.06-.114-.113-.381-.52-.8.419.32.818.547 1.198.684.57.206 2.254.297 2.364.198.074-.065-.285-.399-1.075-1l.71.324c.552.238 1.007.397 1.365.478.752.17 2.173.209 2.52 0a2.362 2.362 0 0 1-1.3-1.045c.268.226.626.435 1.074.626.672.286 2.577.267 3.078.207.333-.04.803-.558 1.41-1.554l-.188.596c-.148.438-.27.733-.366.885l-.054.073c-.19.207.407-.022 1.021-.17l.167-.037c.445-.094 1.247-.543 2.407-1.347l-.68.587c-.51.449-.763.702-.762.76.002.119.662-.092 1.088-.265l.241-.113c.342-.175.894-.498 1.656-.969-.65.649-.445.808-.042.748.403-.061 1.594-.328 3.33-.293 1.158.024.944.25-.641.68l-.907.048c-2.606.153-5.955.561-6.902.673-1.172.137-2.147.444-3.73.444H33.74l-.446-.013c-2.236-.11-8.27-.93-12.61-2.39l1.653.3c.17.015.092.185.002-.275ZM75.185 65.519c.29.046.903.64 1.839 1.782l-1.042-.841c-.416-.33-.676-.524-.778-.581-.257-.144-1.872.697-1.87.972.003.275 2.33 2.54 2.708 2.585.378.045-.012.306-1.26-.66l-.57-.452c-.855-.703-1.26-1.16-1.343-1.517-.098-.427 1.881-1.357 2.316-1.288Z" fill="#C2C2C2"/>
        <path d="M56.383 49.824c-.172.154.086 3.33 2.882 4.31 2.796.981 19.674-6.955 20.167-6.32.492.636-12.478 8.383-16.474 10.154-3.996 1.77-8.336 2.092-9.632-1.757-1.295-3.849 3.23-6.54 3.057-6.387Z" fill="#BEBBA8"/>
        <path d="M80.735 45.366c-.243-.319-.542.005-1.428.238-.887.234-12.163 5.032-13.468 5.697-1.304.665-14.702 6.453-14.855 6.776-.154.323 2.08 4.538 2.109 4.845.028.307.546.73 1.059.465.513-.266 9.058-4.396 11.205-4.99 2.146-.594 9.231-3.748 11.646-4.892 2.414-1.144 4.109-1.903 4.418-2.145.31-.243.884-.72.862-.863-.023-.144-.13-.793-.193-1.096-.062-.303-1.113-3.716-1.355-4.035Z" fill="#F7F1E5"/>
        <path d="M80.874 45.686c-.243-.32-.542.004-1.428.238-.887.234-12.163 5.031-13.468 5.696-1.305.666-14.702 6.454-14.855 6.777-.154.323 1.942 4.218 1.97 4.525.028.307.546.73 1.059.465.513-.266 9.058-4.396 11.205-4.99 2.146-.594 9.231-3.748 11.646-4.892 2.414-1.144 4.109-1.903 4.418-2.145.31-.243.884-.72.862-.863-.023-.144-.13-.793-.193-1.096-.062-.303-.974-3.396-1.216-3.715Z" fill="#DFD4BD"/>
        <path d="m76.655 47.023 2.814 5.323-3.125 1.467c-1.72.797-4.647 2.103-7.132 3.133-1.067-1.132-1.35-5.055-1.247-5.465.05-.2.516-.656 1.4-1.37l4.652-1.986c.94-.396 1.845-.774 2.638-1.102Z" fill="#D2C9B7"/>
        <path d="M79.446 45.924c.886-.234 1.185-.557 1.428-.238.242.319 1.154 3.412 1.216 3.715l.193 1.096c.022.143-.552.62-.862.863-.09.07-.302.187-.615.344L77.16 53.43l-2.552-5.554 2.992-1.24A50.41 50.41 0 0 1 79.216 46l.23-.076Z" fill="#C9C1B0"/>
        <path d="M80.047 43.441c.218.423.445 1.706.614 1.813.17.107.482.08.679.54.197.46 1.425 4.452 1.31 4.983-.113.53-.737.547-1.001.738a.33.33 0 0 0-.144.196l-.568.27-.085-.376c.778-.655 1.172-1.087 1.18-1.298.014-.315-1.047-3.882-1.278-4.453-.232-.571-.396-.374-.679-.373-.62.135-.712.228-.75.126-.32-.89-.415-1.528-.283-1.916.109-.322.447-.517 1.014-.586.006.127.001.239-.01.336Z" fill="#AAA596"/>
        <path d="M71.076 51.5a.5.5 0 0 1 .375.92l-.091.034.033.024.088.101a.5.5 0 0 1-.148.692l-.865.553c-2.904 1.825-4.494 2.467-5.195 1.891-.895-.736-.758-1.58-.026-2.272.359-.339 2.153-.922 5.829-1.943Zm-.808 1.264-1.58.462c-1.671.498-2.638.835-2.754.944-.346.327-.372.488-.026.773.176.144 1.524-.435 3.7-1.765l.66-.414Z" fill="#C3424E" fill-rule="nonzero"/>
        <path d="M77.786 45.926c-.507-.07-8.227 3.48-8.765 4.598-.54 1.117.518 2.41.725 2.873.207.462.708 2.03 1.305 2.276.596.246 4.778-1.098 6.057-1.493 1.278-.395 3.142-1.076 3.484-1.485.04-.048.281-.309.246-.503-.259-1.442-2.605-6.205-3.052-6.266Z" fill="#777377"/>
        <path d="M78.015 45.552c-.507-.069-8.227 3.48-8.765 4.598-.54 1.118.518 2.41.725 2.873.207.462.708 2.03 1.305 2.276.596.246 4.778-1.098 6.057-1.493 1.278-.395 3.142-1.076 3.484-1.484.342-.41-2.299-6.7-2.806-6.77Z" fill="#9B969B"/>
        <path d="m62.094 53.924.267.103 1.828 4.292-.104.261L53.7 63.106l-.266-.109-1.675-4.146.102-.257 10.233-4.67Zm-8.738 5.068.358 3.384a.2.2 0 0 1-.04.143l.054.137 2.087-.91-2.459-2.754Zm2.4-1.176.453 3.758 2.448-1.066-2.901-2.692Zm-2.85.738-.706.324 1.003 2.484-.296-2.808Zm2.403-1.096-1.978.904 2.415 2.704-.437-3.608Zm6.095-2.164.002 3.938-.356.126-2.276-2.824.237 3.82 4.731-2.062-.444-1.042a.2.2 0 0 1-.075-.018l-.065-.046-1.754-1.892Zm-3.061.78-2.6 1.186 2.837 2.634-.237-3.82Zm2.662-1.216-2.242 1.024 2.241 2.782v-3.806Zm1.067-.486-.687.314 1.516 1.632-.829-1.946Z" fill="#BF6D74" fill-rule="nonzero"/>
        <path d="M70.667 49.985a.5.5 0 0 1 .59.134l.072.114 1.622 3.561a.5.5 0 0 1-.838.528l-.072-.113-1.622-3.561a.5.5 0 0 1 .248-.663Z" fill="#9D3B44" fill-rule="nonzero"/>
        <path fill="#AEA8AE" d="m74.975 48.84-2.208 2.977 3.681.654 2.536-3.082z"/>
        <path d="M57.995 45.5c.206-.21.098-.893-.415-.874-.514.02-.729.288-.624.729.104.44.834.356 1.04.145ZM58.24 39.712c.205-.21.205-.796-.309-.776-.513.02-.563.612-.443.843.12.231.546.144.751-.067ZM59.025 35.176c.206-.211.206-.796-.308-.776-.513.02-.563.612-.443.843.12.231.546.144.751-.067ZM52.32 46.326c.274-.105.538-.409.266-.734-.272-.326-.925.044-.963.372-.037.327.423.466.697.362ZM49.375 48.703c.274-.105.538-.409.266-.734-.272-.326-.925.044-.962.372-.038.327.422.466.696.362ZM46.368 50.376c.274-.104.538-.408.266-.734s-.925.044-.962.372c-.038.327.422.466.696.362ZM43.603 51.398c.274-.104.537-.408.266-.734-.272-.325-.925.045-.963.372-.037.328.423.466.697.362ZM40.559 53.098c.274-.104.425-.324.153-.65-.272-.325-.632-.089-.67.239-.037.328.243.515.517.41ZM37.382 54.349c.274-.105.425-.324.153-.65-.272-.325-.88.016-.917.343-.037.328.49.41.764.307Z" fill="#404040"/>
        <path d="m37.204 52.2.044-.013c.155.312.226.755.29.94.094.267-.111.879-.267.852-.156-.027-.204.213-.532 0-.19-.123-.634-.568-.946-.917.108-.261.288-.614.538-.77.307-.193.643-.066.873-.091Zm3.637-2.251.078.001-.113.122c-.748.896.007 1.698-.026 2.279-.011.192-.365.294-.333.359.138.273-.412.227-.698.014-.196-.146-.455-.816-.533-1.4l-.022.021c.23-.173 1.392-1.413 1.647-1.396Zm7.036-4.211.078-.313c.137.294-.103 1.783-1.274 2.353-.33.122-.293.596-.234.88l.048.185c.057.17.2.823.139 1.077s-.527.045-.616.165c-.088.12-.39.155-.7-.051-.131-.088-.348-.405-.52-.838-.567.113-1.387-.033-1.354.094l.159.666c.062.271.132.59.212.958l-.226.035a.767.767 0 0 0-.063.014c-.068.02-.188.296-.27.358-.082.062-1.143-.674-1.504-1.532l-.021-.065a.304.304 0 0 0 .044-.12c.056-.37 1.362-.84 1.638-.87.267-.03.618-.448 1.075-.6l.06.008-.003-.028.197-.074c.43-.2.892-.622 1.079-.97.218-.406.87-.294 1.099-.365.193-.06.684-.432.957-.967Zm1.803.624.029.09c.208.393-.046 1.726-.17 1.65-.083-.05-.19.012-.323.188-.04.196-.112.275-.217.237-.157-.058-.606-.344-.77-.81-.164-.466-.245-1.466-.123-2.355l.047-.252c.01-.047.023-.097.036-.15.183-.354.45-.63.888-.931l.896-.58-.086.508c-.143.904-.28 2.025-.207 2.405Zm8.447-12.286c1.396.356.715.572.686.983-.03.41-.781.564-1.301.418-.52-.145-2.414.714-2.821 1.057l-.298.244c-.123.116-.091.174.126.393.325.328 2.39.82 2.852 1.067.307.166.533.505.677 1.018-.047.199-.096.355-.148.467-.077.17-1.301.6-2.158.27l-.179-.076-.585.22c-.326.126-.689.272-1.016.433-.633.31-1.18 1.147-1.274 1.327-.33.63-.268 1.768-.287 2.307l-.012.172c-.053.417.227 1.306.132 1.397l-.225.212c-.132.11-.29.211-.408.169-.204-.074-.322-.355-.468-.602-.12-.202-.455-1.88-.376-2.868.31-.232.552-.439.658-.572.279-.352.783-1.892 1.133-2.307.115-.135.2-.275.26-.41l.04-.037c.236-.223.612-.33.943-.383l-.498-.358a.696.696 0 0 0-.065-.038c-.233-.115-.27.043-.421-.126-.031-.035-.05-.15-.06-.314-.002-.764.118-2.01.252-2.383l.065-.164.02-.029c.2-.258.42-.127.845-.416.486-.33 2.515-1.427 3.911-1.07Z" fill="#D9D2C6"/>
    </g>
</svg>
