<svg width="96" height="96" xmlns="http://www.w3.org/2000/svg">
    <defs>
        <path id="a" d="M0 0h96v96H0z"/>
    </defs>
    <g fill="none" fill-rule="evenodd">
        <path d="M31.284 53.074c9.326-3.927 14.584-6.384 15.774-7.37 1.785-1.478 7.686-9.697 8.882-11.7 1.196-2.004 2.38-5.321 2.992-5.321.612 0 4.39 3.045 5.672 7.62.856 3.05 1.204 5.109 1.046 6.176L32.694 55.333l-1.41-2.259Z" fill="#B4B9D4"/>
        <path d="M58.932 28.683c.612 0 4.39 3.045 5.672 7.62.856 3.05 1.204 5.109 1.046 6.176L32.694 55.333l-1.41-2.259c9.326-3.927 14.584-6.384 15.774-7.37.653-.54 1.857-1.984 3.18-3.695h2.358l5.43-7.607-1.043-2.4c.803-1.673 1.518-3.32 1.95-3.32Z" fill="#E7EBED"/>
        <path d="M64.604 36.303c.856 3.05 1.204 5.109 1.046 6.176L32.694 55.333l-.714-1.143 4.111-2.166 12.395-6.678 3.595-3.338h.515l1.01-1.415 6.06-5.623.633-1.6-.944-3.539.808-.387c1.4 1.177 3.538 3.64 4.441 6.86Z" fill="#CED7DB"/>
        <path d="M58.932 28.683c.612 0 4.39 3.045 5.672 7.62.555 1.976.896 3.536 1.025 4.68l-1.682-.422c-1.898-4.829-3.166-7.621-3.804-8.378-.527-.624-1.283-1.303-2.269-2.037.429-.854.796-1.463 1.058-1.463Z" fill="#BEBECF"/>
        <path d="M10 60.511c.478-1.513 1.708-2.406 3.69-2.678 2.971-.408 14.923-4.05 16.685-4.87 1.763-.82 15.033-4.108 20.566-9.315 5.533-5.207 6.284-7.732 7.424-7.732 1.14 0 5.619 3.299 9.704 4.197 4.085.899 11.835-2.626 13.381-2.142 1.546.484 2.132 1.622 1.84 3.811-.294 2.19 0 4.246 0 6.906 0 2.66.081 7.929.825 11.173-.387.949 1.083 2.241-4.368 3.15-5.452.908-14.053-.149-18.195.38-4.143.528-12.176 2.968-22.73 2.968-10.552 0-21.973-1.58-22.435-1.58-.236 0-2.434-.547-4.81-2.218-.482-.34-1.008-1.023-1.577-2.05Z" fill="#E1E8F1"/>
        <path d="M10.985 61.153c5.377 1.443 10.08 1.228 14.111-.644 6.046-2.808 15.76-5.838 18.432-2.578 1.782 2.174 3.434 5.404 4.958 9.692-17.168 1.128-27.333 1.128-30.496 0-3.162-1.128-5.497-3.285-7.005-6.47Z" fill="#D8E1ED"/>
        <path d="m58.44 35.924-.075-.008c1.14 0 5.619 3.299 9.704 4.197 3.086.68 8.263-1.166 11.278-1.901.679-.109 1.33-.205 1.93-.276.064.008.122.02.173.035 1.455.456 2.06 1.49 1.882 3.436l-.043.375c-.26 1.946-.058 3.787-.01 6.04l.023 2.607c.041 2.823.209 6.796.813 9.432-.152.373-.017.8-.129 1.235l-2.091 1.44c-3.062.394-5.908.681-8.537.86-4.42-.014-9.079-.353-11.806-.006-2.098.268-5.192 1.025-9.106 1.708l-1.414.164c-2.085.23-4.209.454-4.59.26-1.222-.62-2.41-2.45-2.067-5.952.316-3.227 3.868-12.014 4.488-14.232.49-.364 1.666-1.302 2.078-1.69 4.778-4.496 5.99-6.993 6.966-7.59.18-.06.358-.105.533-.134Z" fill="#BFC9D5"/>
        <path d="M68.069 40.113c3.082.679 8.253-1.163 11.269-1.899a48.15 48.15 0 0 1 1.935-.278.92.92 0 0 1 .177.035c1.546.484 2.132 1.622 1.84 3.811-.294 2.19 0 4.246 0 6.906 0 2.66.081 7.929.825 11.173-.152.374-.016.801-.13 1.237l-2.09 1.437a142.75 142.75 0 0 1-8.538.86c-4.419-.013-9.078-.352-11.805-.005-2.094.267-5.18 1.022-9.082 1.704-2.812.34-4.948.541-5.412.305-1.222-.62-2.702-2.035-2.359-5.538.316-3.227 4.265-12.865 4.885-15.083.49-.365.945-.742 1.357-1.13 4.781-4.499 5.992-6.996 6.968-7.592.187-.06.372-.106.553-.136 1.277.167 5.629 3.318 9.607 4.193Z" fill="#E2E4EB"/>
        <path d="M58.462 35.92c1.277.167 5.629 3.318 9.607 4.193 3.082.679 8.253-1.163 11.269-1.899a48.15 48.15 0 0 1 1.935-.278.92.92 0 0 1 .177.035c1.546.484 2.132 1.622 1.84 3.811-.203 1.51-.126 2.955-.06 4.58-.868-2.125-1.313-3.34-1.336-3.644-.04-.535-4.796 1.027-9.51.966-4.716-.062-8.896-2.51-10.631-2.699-1.736-.19-1.907 1.322-4.394 3.156-1.498 1.104-5.1 4.154-10.806 9.152 1.23-3.54 2.676-7.244 3.031-8.515.49-.365.945-.742 1.357-1.13 4.781-4.499 5.992-6.996 6.968-7.592.187-.06.372-.106.553-.136Z" fill="#EEF2F8"/>
        <path d="M59.888 36.752c.44.163 2.644 1.69 3.208 2.02 1.927 1.128 3.978 1.818 6.501 1.992 3.56.245 7.882-.152 12.962-1.192l.591-.125c.068.178.119.37.154.58l.409-.086a79.931 79.931 0 0 1-3.811.736l-.727.117.01.073c.358 2.681 1.122 4.47 2.27 5.376.588.464 1.192.849 1.812 1.156.008.218.013.443.017.672a10.401 10.401 0 0 1-1.705-.986l-.495-.37c-1.259-.993-2.072-2.843-2.463-5.541l-.04-.29c-3.402.499-6.41.659-9.025.479-2.434-.168-4.453-.801-6.333-1.83l-.375-.212-.013.017C58.216 44.8 57.2 48.214 59.56 49.66c1.029.63 2.147.811 3.429.62.845-.126 1.641-.37 2.793-.837l2.132-.9c1.627-.675 2.264-.844 3.152-.844 3.174 0 4.728 2.968 3.76 6.422l-.478 1.534c-.375 1.28-.482 2.028-.37 2.664.163.923.869 1.487 2.412 1.787 1.93.374 4.402-.278 7.412-1.973.032.216.065.427.1.632-3.04 1.679-5.579 2.327-7.626 1.93-1.765-.343-2.677-1.072-2.888-2.272-.167-.945.056-1.99.758-4.13 1.07-3.258-.265-5.994-3.08-5.994-.902 0-1.564.214-3.693 1.123l-.416.18c-1.74.749-2.756 1.104-3.88 1.271-1.413.211-2.673.008-3.83-.702-2.72-1.667-1.784-5.22 2.604-10.587l.486-.582-.033-.02c-.872-.566-2.335-1.561-2.624-1.668-1.16-.43-2.109.119-2.895 1.554-.74 1.353-6.669 6.635-8.602 7.792-1.946 1.165-14.546 6.388-16.225 6.642-.83.126-1.529.085-2.09-.13a9.1 9.1 0 0 0 .508-.21c.117-.054.284-.12.496-.195.297.017.629-.002.997-.058.805-.122 4.42-1.516 8.036-3.008a62.017 62.017 0 0 0 4.684-1.994c1.568-.692 2.792-1.266 3.286-1.562 1.85-1.107 7.704-6.323 8.384-7.566.914-1.667 2.143-2.38 3.63-1.828Z" fill="#B4B5C2"/>
        <path d="M83.909 50.812c-1.652-.655-2.962-1.432-3.932-2.332-1.454-1.35-2.476-4.28-3.556-4.595-1.08-.315-2.745.315-5.628 0-2.882-.315-6.032-1.876-6.672-1.876-.64 0-5.188 4.455-3.983 6.471 1.206 2.017 8.133-1.224 9.185-1.557 1.052-.332 3.879-.109 5.28 1.07 1.403 1.18 2.34 4.838 1.387 8.204-.952 3.365.59 3.187 3.376 2.548 1.857-.427 3.371-1.135 4.543-2.126v-5.807Z" fill="#9EABC8"/>
        <path d="M84.115 50.331c-1.65-.654-2.961-1.431-3.93-2.331-1.455-1.35-2.477-4.28-3.557-4.595-1.08-.316-2.746.315-5.628 0-2.882-.316-6.032-1.877-6.672-1.877-.64 0-5.189 4.455-3.983 6.472 1.206 2.017 8.133-1.224 9.185-1.557 1.052-.333 3.879-.11 5.28 1.07 1.402 1.18 2.34 4.837 1.387 8.203-.952 3.366.59 3.188 3.376 2.548 1.857-.426 3.371-1.135 4.542-2.125V50.33Z" fill="#C5CFE6"/>
        <path d="M72.445 49.65c-.226.423-1.006 1.032-2.341 1.826-6.347 3.691-10.194 5.889-11.934 6.382-1.817.516-3.46.618-4.969.01-1.34-.54-2.122-2.043-2.343-4.511-.365.539-.854 1.47-1.468 2.796-1.113 3.23-1.14 5.77 1.014 7.266 2.91 2.021 9.605-.902 18.865-9.017.996-.763 2.003-1.468 2.458-1.355.303.076-.092.598-1.184 1.568-10.45 9.219-17.47 12.501-21.185 9.63-2.473-1.91-2.595-4.995-1.098-8.61a20.376 20.376 0 0 1 1.925-3.549c.28-.413.548-.772.759-1.022l.186-.207.078-.074c.064-.058.064-.058.235-.139l.301.04c.271.05.287.133.362.506-.304 2.86.326 4.545 1.644 5.3 1.05.6 2.555.612 4.139.163 1.75-.497 5.465-2.236 12.538-6.388.944-.535 2.356-1.25 2.018-.615Z" fill="#262327" fill-rule="nonzero"/>
        <path d="M32.926 54.66c1.11-.175 1.287-.867 1.11-1.226-.175-.36-1.475-.161-1.925.19-.45.352-.295 1.21.815 1.036ZM39.115 52.723c1.091-.27 1.206-.975 1-1.318-.207-.343-1.485-.032-1.902.358-.418.389-.189 1.23.902.96ZM45.358 50.317c1.09-.27 1.206-.975 1-1.318-.207-.343-1.485-.032-1.902.357-.418.39-.189 1.231.902.96Z" fill="#878DB1"/>
        <path d="M59.181 39.757c.44-.952.04-1.528-1.156-1.801-1.194-.273-4.036-1.52-4.46-1.797-.423-.277-.7.916-.7 1.348 0 .431 1.946 1.476 2.97 1.863 1.022.387 2.906 1.34 3.346.387Z" fill="#DBDCE9"/>
        <path d="M53.033 36.425c-.797.57-1.196 1.142-1.196 1.718 0 .863 1.378 3.076 2.019 3.865.64.79.932 1.523 1.775 1.26.844-.263.225-1.577-.527-2.71-.751-1.131-1.624-2.192-1.889-2.71-.176-.346-.237-.82-.182-1.423Z" fill="#C8CAE2"/>
        <path d="M52.402 46.935c.464-.227.026-1.298-.565-2.21-.325-.503-.88-1.023-1.369-2.292-.069-.18-.069-.573 0-1.183-.737.542-1.166.936-1.287 1.183-.12.246-.002.734.355 1.464.71 1.27 1.217 2.103 1.522 2.497.458.592.88.768 1.344.541Z" fill="#CDCEDC"/>
        <path d="M84.15 59.223c1.25 2.458 1.874 4.498 1.874 6.12 0 2.434-.056 5.267-4.536 5.962-4.48.695-42.98.695-50.614.695s-20.84-1.93-20.84-12.127c0-.706 2.027 2.35 7.535 3.366 5.507 1.017 15.501 1.064 16.039 1.064.553-.326 2.027-2.753 4.947-2.425 1.946.219 3.63 1.027 5.05 2.425a198.66 198.66 0 0 0 12.532-2.425c5.955-1.36 10.35-.888 15.04-.504 2.168.178 5.393.492 8.432 0 1.83-.296 3.343-1.013 4.541-2.151Z" fill="#95A3B8"/>
        <path d="M84.115 59.861c1.273 2.032 1.91 3.86 1.91 5.483 0 2.433-.057 5.266-4.537 5.96-4.48.696-42.98.696-50.614.696S10 70.708 10 60.511c0-.705 2.026 2.35 7.534 3.367s15.501 1.063 16.039 1.063c.553-.325 2.027-2.752 4.947-2.424 1.947.218 3.63 1.026 5.05 2.424a198.66 198.66 0 0 0 12.532-2.424c5.955-1.361 10.35-.888 15.04-.504 2.168.177 5.393.492 8.432 0 1.83-.296 3.343-1.014 4.541-2.152Z" fill="#E2E8F0"/>
        <path d="m10.063 60.406.006.064c.128 1.34.435 2.293.921 2.863.99 1.159 9.214 4.666 12.955 5.313 3.741.647 7.137 0 9.628-3.705.553-.325 2.027-2.752 4.947-2.424a8.28 8.28 0 0 1 3.756 1.362c1.632 1.83 4.05 5.129 9.066 5.42 5.57.323 10.147-1.149 16.188-2.483 6.04-1.334 10.137.655 14.346.655 1.803 0 3.172-.212 4.106-.636-.158 1.992-.912 3.914-4.494 4.47-4.077.632-36.326.69-47.85.694L30.873 72C23.24 72 10 70.708 10 60.511c0-.071.02-.104.063-.105Z" fill="#C2D1E1"/>
        <path d="M38.401 71.602c2.21 0 3.937-1.434 3.937-3.644a4 4 0 0 0-4-4c-2.21 0-4.132 1.83-4.132 4.04s1.986 3.604 4.195 3.604Z" fill="#CADAEC"/>
        <path d="M12.269 66.698c8.543 4.243 18.986 5.073 21.792 3.388 3.188-1.913 7.03-2.17 10.484-.758 3.455 1.412 9.797 1.988 15.24 1.084 5.445-.904 8.456-1.084 12.724-1.084 4.267 0 5.473.509 8.951.509 1.458 0 2.746-.222 3.867-.665-.605 1.007-1.733 1.806-3.84 2.133-4.076.632-36.325.69-47.85.694L30.874 72c-5.646 0-14.359-.707-18.513-5.2Z" fill="#6F90BF"/>
        <path d="M32.304 54.094c-.072-.301-.528-1.588-.324-1.944.204-.357.799-.795 1.21-.501.41.294.557 2.097.552 2.169-.006.07-1.365.578-1.438.276ZM38.392 52.24c-.073-.302-.69-1.992-.486-2.349.204-.357.977-.77 1.389-.476.41.294.54 2.477.534 2.548-.006.071-1.365.578-1.437.277ZM44.632 49.784c-.072-.301-.94-2.572-.736-2.929.204-.356.978-.77 1.389-.475.41.293.79 3.057.785 3.128-.006.071-1.365.578-1.438.276Z" fill="#CDCEDC"/>
    </g>
</svg>
