<svg width="96" height="96" xmlns="http://www.w3.org/2000/svg">
    <defs>
        <path id="a" d="M0 0h96v96H0z"/>
    </defs>
    <g fill="none" fill-rule="evenodd">
        <path d="M60.921 31.538c.55.622 1.964 2.771 2.29 4.802.217 1.354.217 2.767 0 4.24 1.608 1.468 2.997 2.595 4.167 3.381 1.754 1.179 3.65 2.149 4.168 2.149.08-.186.037-2.195.723-3.52.686-1.326 1.957-2.973 2.293-2.973.336 0 .891.558.891.76 0 .202.285.404.333.202.047-.202-.819-2.696-.819-3.985 0-1.288.586-2.467 1.374-2.467.789 0 1.454.394 1.454 1.68 0 1.287-.258 3.769-.362 4.399-.07.42-.07.904 0 1.454l.837.794c.738.712 1.178 1.176 1.32 1.392.282.433.217.707.32.908l.62.987c.354.572.753 1.26.896 1.707.249.78.73 4.355.79 5.287l.006.15c0 .592.11 1.067.244 1.348.125.26.323 2.257.35 3.311l.003 3.539-2.542 2.878c-3.854-2.936-6.695-3.606-8.525-2.011l-.206.194c-2.728 2.756-12.802 4.1-15.018 2.958-1.983-1.02-3.254-.737-5.842.035l-.972.292c-3.121.935-5.905 1.43-9.77-.095l-.559-.232c-4.16-1.802-4.816 2.147-10.774 2.147l-1.424-.007c-4.997-.051-7.6-.451-11.459-2.674-2.806-1.616-4.434-3.065-4.882-4.346.103-2.262 1.22-3.716 3.349-4.361 3.194-.968 8.454-1.773 9.852-2.101 1.306-.307 4.218-1.514 5.33-2.093l.208-.115c.897-.516 2.654-.977 2.654-.977l.188-.374c.23-.434.629-1.11.955-1.263l.406-.176c.547-.223 1.279-.483 1.437-.483.295-.27.536-1.048 1.363-1.048s1.256 1.039 1.67.52c.415-.52 2.258-1.641 3.138-1.641.386-.031.785-1.558 1.737-1.558.635 0 1.312.105 2.031.317.066-1.406.26-2.109.584-2.109.324 0 .824.122 1.5.366 1.407-.147 2.229-.533 2.466-1.159l.213-.58c.216-.62.317-1.036.241-1.181l-.072-.16c-.17-.415-.49-1.416.072-1.675.665-.306 1.016-1.108 1.408-1.108.262 0 .49.08.682.24l2.995-2.701c2.094-1.867 3.386-2.955 3.878-3.264l.424-.254c.686-.378.901-.273 1.366.254Zm15.528 3.124c-.65-.087-.919.859-.919 1.491 0 .562.22 1.923.406 2.538l.068.192c.195.455.51 2.083.696 2.083.165 0 .183-.717.242-1.195l.113-.762c.095-.697.223-1.758.307-2.501.115-1.023-.263-1.758-.913-1.846Z" fill="#F0F0F2"/>
        <path d="M74.562 39.617c.336 0 .891.558.891.76 0 .197.272.395.33.215.246.667.471 1.079.673 1.233.43.328-1.417 5.52-2.844 5.52-1.15 0-2.123-.08-2.603-1.371.238.088.422.136.537.136.08-.186.037-2.195.723-3.52.686-1.326 1.957-2.973 2.293-2.973Z" fill="#E8E2E2"/>
        <path d="M74.562 39.617c.294 0 .756.427.867.67l.024.09c0 .06.025.12.061.168l.15-.133a10.094 10.094 0 0 0-1.789 2.008c-.8 1.17-.888 3.213-.845 3.82.044.606-.75 1.795-1.432.58a9.249 9.249 0 0 1-.402-.783c.15.048.267.073.35.073.08-.186.037-2.195.723-3.52.686-1.326 1.957-2.973 2.293-2.973Z" fill="#D14343"/>
        <path d="M74.562 39.617c.294 0 .756.427.867.67l.024.09c0 .06.025.12.061.168l-.307.282c-.432-.184-.841-.127-1.228.17-.703.54-1.534 2.367-1.75 3.068l-.106.41a20.455 20.455 0 0 0-.308 1.94l-.347.168-.083-.155c-.067-.13-.13-.26-.189-.39.15.047.267.072.35.072.08-.186.037-2.195.723-3.52.686-1.326 1.957-2.973 2.293-2.973Z" fill="#EB5B5B"/>
        <path d="M76.341 34.127c.789 0 1.454.394 1.454 1.68 0 1.287-.258 3.769-.362 4.399-.07.42-.07.904 0 1.454l.368.349-.012.026-1.475-.342-.528-1.114c.047-.202-.819-2.696-.819-3.985 0-1.288.586-2.467 1.374-2.467Zm.108.535c-.65-.087-.919.859-.919 1.491 0 .562.22 1.923.406 2.538l.068.192c.195.455.51 2.083.696 2.083.165 0 .183-.717.242-1.195l.113-.762.19-1.5.117-1.001c.115-1.023-.263-1.758-.913-1.846Z" fill="#464646"/>
        <path d="M79.688 53.159c3.833 2.924 2.42 2.026 2.984 6.442.564 4.417-2.782 3.915-4.567 2.507-1.786-1.408-4.982-3.028-6.576-1.503-.776.741-1.943 2.161-3.398 3.406-4.083 1.425-9.972 1.931-11.603 1.091-1.859-.957-3.092-.768-5.372-.104l-1.442.431c-3.121.935-5.905 1.43-9.77-.095l-.559-.232c-4.16-1.802-4.816 2.147-10.774 2.147l-1.424-.007-.966-.015c-.156-.003-.31-.007-.461-.012l-.032-.031-.468-.576c-1.788-2.263-4.252-6.106-3.57-8.005.495-1.38 2.052-2.956 6.55-2.34 3.998.547 8.89 3.612 10.72 3.08l1.957-.541c3.624-.978 10.572-2.775 12.13-2.918.071-2.63.737-4.051 1.995-4.266.91-.155 3.473.168 6.528 1.443 1.352.563 4.08.345 4.1-1.687.005-.425 1.475-2.458 2.888-2.542 2.398-.144 7.298 1.403 11.13 4.327Z" fill="#D1D1D2"/>
        <path d="M28.24 56.263c3.998.547 8.89 3.612 10.72 3.08l2.35-.649c1.245 1.876 2.587 4.239 4.025 7.09l.247.495c-1.71.122-3.51-.106-5.637-.945l-.56-.232c-4.16-1.802-4.816 2.147-10.774 2.147l-1.424-.007-1.427-.027-.032-.031-.468-.576-.48-.624c-1.713-2.293-3.713-5.647-3.09-7.38.495-1.381 2.052-2.957 6.55-2.34Z" fill="#ECEAEA"/>
        <path d="m36.156 59.866 1.15.827c-.395.27-2.975 2.386-5.139 3.196-2.163.81-4.146.892-5.042.235-.897-.657-2.27-3.47-2.74-4.653.956.433 3.647 1.49 5.984 1.343 1.04-.065 2.968-.38 5.787-.948Z" fill="#E1E1E2"/>
        <path d="M24.316 59.865c-.062.132 1.87 2.065 3.456 2.634 1.587.568 4.766.436 6.932-.25.36 1.624-2.474 3.268-5.818 3.303-3.345.035-4.508-5.82-4.57-5.687Z" fill="#D6D7DC"/>
        <path d="M24.74 60.608c-.418-2.11-.25-3.306.503-3.59 1.13-.426 5.634.873 9.292 2.122 3.657 1.249 20.567.708 20.74-.35.174-1.059-.332-4.147.019-4.85.35-.704 1.272-1.021 2.258-.701.657.213 4.107 2.32 10.35 6.325 2.126-1.43 3.137-2.226 3.035-2.39-.155-.247-3.164-5.005-3.013-5.833.15-.827 1.437-1.32 4.564-.217 3.127 1.104 7.336 4.358 7.872 5.181.537.823 1.213 2.421 1.148 2.747-.49.498-1.035 1.173-1.6 1.925-.564.752-2.35-1.785-3.712-2.516-1.363-.73-2.916-1.502-3.55-1.425-.422.052-1.931.94-4.527 2.661l.25.549c-.99 1.276-1.849 2.055-2.577 2.338-1.092.424-3.634-.21-4.87-.765-.823-.37-1.816-.798-2.977-1.287-1.737-.434-2.77-.545-3.096-.335-4.873 3.125-7.02 3-7.553 2.948-.934-.09-1.361-.072-2.604-.613s-3.956-2.277-5.871-2.286c-1.915-.01-6.766 2.821-7.48 3.06-.714.237-3.079.535-4.026.28-.475-.362-1.208-1.239-2.2-2.63l-.541.516 2.167 3.23c.621.915 3.837.092 9.648-2.47 3.838-1.693 5.934 2.203 10.228 2.402 3.706.171 6.354-2.63 10.108-2.171 6.1.746 8.164 3.16 10.378 1.355 1.377-1.122 4.265-4.402 5.53-4.647 1.264-.244 5.285 2.758 6.98 3.57.699.335.766-.927 2.788-3.08-.003-1.416-.45-5.023-3.626-6.989-8.926-5.522-12.665-5.407-13.829-.975-.09.048-1.722.982-3.695 1.042-1.058-.53-8.078-4.324-7.969 1.116-10.508 4.348-27.653-.261-29.472 1.746-1.247 1.377-1.22 3.083.084 5.117l.846-.11Z" fill="#8C8C95" opacity=".5"/>
        <path d="M67.68 60.408c-.553 1.284-1.273 1.961-2.161 2.033-1.332.107-3.724-.831-4.786-1.047-1.062-.216-1.468-.398-1.952-1.137-.483-.738-3.209-5.125-1.886-5.805.882-.454 4.477 1.532 10.785 5.956Z" fill="#E2E2E8"/>
        <path d="M67.68 60.408c-.553 1.284-1.273 1.961-2.161 2.033-1.22.098-3.332-.682-4.494-.98l-.292-.067c-.956-.195-1.38-.361-1.808-.931l-.144-.206A25.288 25.288 0 0 1 58 58.965c.25.044.456.097.616.16l1.62.632c1.683.629 3.15.984 4.607.177.166-.092.352-.203.554-.33l.58-.376 1.12.773.583.407Z" fill="#D8D8DB"/>
        <path d="M72.07 57.135c-2.067-3.146-2.699-4.942-1.896-5.389 1.203-.67 5.436 2.153 7.282 3.289 1.231.757 2.22 2.051 2.969 3.883.05 1.334-.138 1.78-.563 1.34-.638-.662-4.075-2.988-5.414-3.257-.893-.18-1.686-.135-2.379.134Z" fill="#E2E2E8"/>
        <path d="M77.456 55.035c1.231.757 2.22 2.051 2.969 3.883.046 1.238-.112 1.712-.476 1.42l-.087-.08c-.638-.662-4.075-2.988-5.414-3.257-.893-.18-1.686-.135-2.379.134-.276-.42-.526-.817-.751-1.189.814-.373 1.557-.594 2.135-.545 2.186.182 2.755 1.285 3.13.388.134-.32.02-.825-.342-1.512l1.215.758Z" fill="#D8D8DB"/>
        <path d="M22.094 55.33c0 .727.96 4.679 2.877 11.854-3.64-.167-5.998-.747-9.243-2.616-2.806-1.616-4.434-3.065-4.882-4.346.103-2.262 1.22-3.716 3.349-4.361 2.526-.766 6.344-1.43 8.522-1.836-.417.439-.623.874-.623 1.304Z" fill="#F6F6F6"/>
        <path d="M13.933 58.918c1.505.675 4.584 1.13 9.237 1.368l.977 3.788c.251.959.526 1.996.824 3.11-3.64-.167-5.998-.747-9.243-2.616-2.806-1.616-4.434-3.065-4.882-4.346.063-1.37.497-2.444 1.303-3.221.202.837.797 1.474 1.784 1.917Z" fill="#E6E7EC"/>
        <path d="M11.048 58.899c.127.322.302.567.527.737.593.447 2.977 1.583 4.947 2.134 1.97.55 4.431 1.024 5.188 1.016.535.69.772 1.969.985 2.766l.05.21c.192.98-.52.891-5.143-.698a41.357 41.357 0 0 1-2.909-1.119c-2.175-1.367-3.457-2.609-3.847-3.723.021-.457.083-.88.187-1.272l.015-.051Z" fill="#D7D8DF"/>
        <path d="M60.921 31.538c.55.622 1.964 2.771 2.29 4.802.181 1.128.211 2.298.09 3.508l-.09.731c-.354 1.826-.792 3-1.315 3.523l-.137.112c-1.658 1.212-14.984 8.266-25.269 10.42-10.673 2.237-14.396.874-14.396.333l.007-.37c.006-.142.017-.299.039-.465l1.725-.332.182-.04c1.306-.307 4.218-1.514 5.33-2.093l.208-.115c.897-.516 2.654-.977 2.654-.977l.188-.374c.23-.434.629-1.11.955-1.263l.406-.176c.547-.223 1.279-.483 1.437-.483.295-.27.536-1.048 1.363-1.048s1.256 1.039 1.67.52c.415-.52 2.258-1.641 3.138-1.641.386-.031.785-1.558 1.737-1.558.635 0 1.312.105 2.031.317.066-1.406.26-2.109.584-2.109.324 0 .824.122 1.5.366.938-.098 1.676-.61 2.215-1.534.425-.737.781-1.241.705-1.386l-.072-.16c-.17-.415-.49-1.416.072-1.675.665-.306 1.016-1.108 1.408-1.108.262 0 .49.08.682.24l2.995-2.701c2.094-1.867 3.386-2.955 3.878-3.264l.424-.254c.686-.378.901-.273 1.366.254Z" fill="#F8F8F8"/>
        <path d="M60.921 31.538c.55.622 1.964 2.771 2.29 4.802.048.3.086.603.112.909-.334 1.027-.744 2.01-1.215 2.796-1.711 2.86-10.308 5.918-11.81 5.662-.985-.168-4.132-.557-4.08-1.29.005-.066.334-1.167.783-1.364.062-.028.17.051.235.06-.226.368-.355.955-.156.9.603-.168 1.288-.321 1.833-.828.491-.458 1.12-1.38 1.326-2.04.113-.362.222-.78.328-1.252 1.32-.29 4.072-.968 6.33-2.665 1.817-1.367 3.05-3.238 3.697-5.613l.082-.333c.076.07.156.155.245.256Z" fill="#E5E5E8"/>
        <path d="m25.436 53.329.58-.216-.477.516c-.089.102-.144.175-.146.197-.006.115 1.369-.074.906.2-.462.272-1.653.516-1.801.32-.074-.096.24-.435.938-1.017Z" fill="#F68382"/>
        <path d="M63.21 36.34c.182 1.128.212 2.298.091 3.508l-.09.731a17.592 17.592 0 0 1-.379 1.6c-3.656 2.704-14.28 8.854-20.098 9.793-6.547 1.056-6.745-.655-7.463-.987l-.313-.132c-.496-.195-1.31-.468-2.44-.817l.107-.19c.038-.064.076-.128.116-.19l2.986-.779c3.614-.962 5.76-1.622 6.441-1.98l1.539-.85c1.357-.733 3.14-1.584 4.846-1.72l.464-.02c2.61 0 10.464-5.034 11.433-6.51.587-.894.862-2.828.826-5.802.65.902 1.665 2.664 1.935 4.345Z" fill="#CDD0D9"/>
        <path d="M48.826 44.32c.056.417.081.767.075 1.05-.021 1.048-.997 2.39-1.622 2.64-.577.23-2.326-.547-2.991-.976l-.142-.1c-.435-.335-.764-.432-1.331-.393l.892-.493c1.357-.734 3.14-1.585 4.846-1.721l.273-.007Z" fill="#DCDEE5"/>
        <path d="M42.605 46.941c.653-.898 1.654-1.058 1.65-.866-.002.193.288 1.592.28 2.12-.009.526 1.32 1.726 1.543 1.573.223-.152.273-2.592.607-2.532.335.06 1.863 1.322 2.515 1.241.434-.053.317-.4-.353-1.04-1.324-1.374-1.893-2.073-1.708-2.098.278-.036 2.216.06 2.512.291.296.23.752-.233.083-.622-.669-.39-1.349-1.016-2.595-.688-.518.136-1.067.483-1.707.73-.902.348-1.88.608-2.3.768-.715.274-1.18 2.021-.527 1.123Z" fill="#A0A0B5"/>
        <path d="M47.045 43.054c-.08.171-.182.312-.304.427-.404.384-.073 1.603.214 1.683.223.063.809.662 1.272 1.092l.32.316c.225.248.625.568 1.2.961.013.715-.272.956-.856.723-.875-.35-1.612-.964-1.944-1.42-.331-.455-.752-.644-.852-.3-.1.344.061 1.268.096 1.658.034.39-.007 1.39-.422 1.884-.293.35-6.164 2.076-6.928 1.997-.397-.042-2.407-.65-2.797-.81-.207-.085-.763-.343-.955-.781-.144.115-.395.294-.955.15-.364-.093-1.279-1.014-.915-1.463l.19-.245.38-.164.652-.25c.362-.131.685-.233.784-.233.295-.27.536-1.048 1.363-1.048.19 0 .36.055.513.134-.15.37-.863.96-.558 1.157-.792 1.225.38 1.851 1.427 1.907l1.694.017c.724-.004 1.501-.044 2.1-.212l.659-.19c1.588-.478 2.712-.968 2.537-1.621l-.129-.522c-.18-.78-.269-1.51-.18-1.807.073-.245.171-.858.486-1.233l.027.008c.06-1.289.229-1.987.506-2.094l.078-.015.117.005.226.029.296.063.173.045c.148.042.31.093.485.152Z" fill="#F5F5F5"/>
        <path d="m44.765 45.722.35-.54-.315.91a3.56 3.56 0 0 1-.035.09c-.093.227.271 1.236.386 1.592.06.19.11.451.151.785l.028.263.214.332c.094-.014.198-.124.314-.332.175-.31-.074-1.973-.089-2.446-.014-.474.273-.326.737-.3.463.025.924.796 1.44 1.168.275.198.661.399 1.158.603l.393.153.046.25c-.142.12-.36.123-.652.006-.766-.305-1.426-.814-1.8-1.242l-.144-.178c-.331-.455-.752-.644-.852-.3-.1.344.061 1.268.096 1.658.034.39-.007 1.39-.422 1.884-.293.35-6.164 2.076-6.928 1.997-.397-.042-2.407-.65-2.797-.81-.207-.085-.763-.343-.955-.781l-.035.025c-.143-.388-.156-.746-.04-1.072.072.55.195.905.368 1.065.448.413.997.646 1.284.75l.312.105c.217.068.52.13.327-.248-.239-.469-1.008-1.148-1.142-1.631-.131-.469.083-.853.3-1.01l.02-.012a.16.16 0 0 0 .06.066c-.792 1.225.38 1.851 1.427 1.907l1.694.017c.724-.004 1.501-.044 2.1-.212l.659-.19.608-.193c1.257-.418 2.08-.862 1.929-1.428l-.129-.522c-.18-.78-.269-1.51-.18-1.807l.099-.383.015.01Z" fill="#D9D9E2"/>
        <path d="M52.971 37.487c-.156.116-.972 1.388-1.175 1.388-.204 0-.735-.307-.368-1.078l.232-.524-.084-.01c.262 0 .49.08.682.24l.641-.58c.16.145.193.474.072.564Zm1.111-.94c0 .138.37-.059 1.112-.591.047.048-.044.245-.273.59-.343.52-1.227 1.251-1.53 1.251-.27 0-.182-.5-.051-.828l.05-.113c.068-.137.193-.373.374-.708l1.077-.974-.421.686c-.225.381-.338.61-.338.687Z" fill="#4D4949"/>
        <path d="M60.921 31.538c.55.622 1.964 2.771 2.29 4.802.181 1.128.211 2.298.09 3.508l-.09.731a18.271 18.271 0 0 1-.338 1.456l-1.07-1.069c.127-.786.19-1.698.19-2.737 0-1.558-.76-3.573-1.452-4.788a10.79 10.79 0 0 0-1.405-1.906l.42-.251c.685-.378.9-.273 1.365.254Z" fill="#F46D6A"/>
        <path d="M61.753 33.222c.654.946 1.202 1.525 1.458 3.118.181 1.128.211 2.298.09 3.508l-.09.731c-.085.44-.175.84-.27 1.204a13.835 13.835 0 0 1-1.137-.817c.236-1.378.364-2.564.383-3.558.03-1.49-.885-3.472-1.287-4.264-.403-.791.273-.439.853.078Z" fill="#DA4F4C"/>
        <path d="M59.096 38.83c1.707-.184 2.424.125 2.789.355l.254.174c.159.098.452.421.88.97l.192.25c1.608 1.469 2.997 2.596 4.167 3.382 1.754 1.179 3.688 1.888 4.238 2.02.55.132.85.121 1.353 0 .504-.12.682-1.14 1.246-2.675.563-1.535 1.363-1.846 1.917-1.91.397-.044.853.041 1.297.231l.004.033.837.794.498.488c.441.44.715.742.821.904.283.433.218.707.32.908l.621.987c.127.205.26.425.384.644-.183.335-.327.875-.43 1.615-.246 1.767.448 3.56.797 4.323.155.34.511.675 1.069 1.007.037.394.016.693.116.903.125.26.323 2.257.35 3.311l.003 3.539-.462.72c-.33.093-.495-.481-.495-1.721 0-2.702-1.283-4.264-2.85-5.499-1.476-1.161-4.79-2.867-5.92-3.342l-.688-.263c-1.42-.527-4.132-1.763-4.814-.352-.636 1.312.796 3.111 1.892 4.31l.986 1.059c.609.673 1.553 1.773 2.833 3.299l.732.875-1.199 1.445a3.335 3.335 0 0 0-1.216.685l-.301.284a43.37 43.37 0 0 1-1.492-1.196l-1.094-.923c-2.404-1.985-9.602-7.628-12.22-7.628-2.882 0-1.374 2.834-.658 4.423.716 1.588 3.454 5.123 3.999 5.958.273.42-2.011 1.294-4.368 1.844-1.516-.527-2.76-.223-4.933.425l-1.021.306a11.607 11.607 0 0 1-1.371-.092c-4.167-.555-8.316-3.443-8.887-3.897-.57-.455-4.443-2.306-6.246-3.134-1.803-.827-5.221-1.915-6.582-1.915-1.361 0-1.95.094-2.204 1.257-.253 1.163 1.71 4.599 2.72 5.714l1.879 2.023c.35.39.557.654.46.654l-8.799-.496c-.586-2.107-.984-3.949-1.191-5.525-.312-2.365-.377-3.943.545-4.912.921-.969 3.245-.759 4.464-.759 1.22 0 1.184-.389 2.26-.475 1.077-.087 2.848.086 5.763-.216 2.769-.287 3.905-1.535 4.84-3.875l.146-.379c.465-1.245.939-1.965 1.381-2.423.55-.416 1.431-.918 2.122-1.13.793-.044 1.953.275 3.364 1.491l.33.297c2.216 2.077 3.195 1.683 4.107.902.912-.782.661-4.509.661-4.941 0-.252.245-.537.734-.855l.224-.138h-.327c-.207 0-.33-.458.207-.79.322-.2 1.006-.544 1.727-.902l1.395-.697c1.043-.532 3.612-1.51 5.844-1.75Z" fill="#8B8B9C"/>
        <path d="M59.096 38.83c1.707-.184 2.424.125 2.789.355l.254.174c.159.098.452.421.88.97l.192.25c1.608 1.469 2.997 2.596 4.167 3.382 1.754 1.179 3.688 1.888 4.238 2.02.55.132.85.121 1.353 0 .504-.12.682-1.14 1.246-2.675.563-1.535 1.363-1.846 1.917-1.91.397-.044.853.041 1.297.231l.004.033.837.794.498.488c.441.44.715.742.821.904.283.433.218.707.32.908l.621.987c.127.205.26.425.384.644-.183.335-.327.875-.43 1.615-.246 1.767.448 3.56.797 4.323.155.34.511.675 1.069 1.007.037.394.016.693.116.903.125.26.323 2.257.35 3.311l.003 3.539-.327.372c-.33.092-.496-.482-.496-1.722 0-2.702-1.282-4.264-2.85-5.498-1.476-1.162-4.788-2.868-5.92-3.343l-.687-.263c-1.42-.527-4.648-1.615-5.33-.204-.636 1.312.795 3.111 1.892 4.31l.986 1.059c.609.673 1.553 1.773 2.833 3.299l.731.875-.682 1.298a3.335 3.335 0 0 0-1.217.684l-.3.284a43.37 43.37 0 0 1-1.492-1.196l-1.095-.923c-2.403-1.985-9.6-7.628-12.22-7.628-2.881 0-1.889 2.982-1.173 4.57.716 1.589 3.454 5.124 3.998 5.96.274.419-1.494 1.145-3.85 1.695-1.517-.527-2.762-.223-4.934.425l-1.021.306a11.607 11.607 0 0 1-1.371-.092c-4.167-.555-8.316-3.443-8.887-3.897-.57-.454-4.443-2.306-6.246-3.133-1.803-.828-5.222-1.916-6.582-1.916-1.361 0-2.467.241-2.72 1.405-.253 1.163 1.71 4.599 2.72 5.714l1.879 2.023c.349.39.557.654.459.654l-8.417-.295c-.586-2.107-.984-3.949-1.191-5.525-.312-2.365-.377-3.943.545-4.912.921-.969 3.245-.759 4.464-.759 1.22 0 1.184-.389 2.26-.475 1.077-.087 2.848.086 5.763-.216 2.769-.287 3.905-1.535 4.84-3.875l.146-.379c.465-1.245.939-1.965 1.381-2.423.55-.416 1.431-.918 2.122-1.13.793-.044 1.953.275 3.364 1.491l.33.297c2.216 2.077 3.195 1.683 4.107.902.912-.782.661-4.509.661-4.941 0-.252.245-.537.734-.855l.224-.138h-.327c-.207 0-.33-.458.207-.79.322-.2 1.006-.544 1.727-.902l1.395-.697c1.043-.532 3.612-1.51 5.844-1.75Z" fill="#F1F1F1"/>
        <path d="m77.429 41.627.004.033.837.794.498.488.385.394c.22.232.365.402.436.51.283.433.218.707.32.908l.621.987c.127.205.26.425.384.644-.183.335-.327.875-.43 1.615-.246 1.767.448 3.56.797 4.323.155.34.511.675 1.069 1.007.03.315.022.57.07.766l.046.137c.125.26.323 2.257.35 3.311l.003 3.539-.327.372c-.33.092-.496-.482-.496-1.722 0-2.702-1.282-4.264-2.85-5.498-1.476-1.162-4.788-2.868-5.92-3.343l-.687-.263c-1.42-.527-4.648-1.615-5.33-.204-.636 1.312.795 3.111 1.892 4.31l.986 1.059.891 1.012c.44.508.962 1.121 1.568 1.842l1.105 1.32-.682 1.298a3.335 3.335 0 0 0-1.217.684l-.3.284a43.37 43.37 0 0 1-1.492-1.196l-1.095-.923c-2.403-1.985-9.6-7.628-12.22-7.628-2.881 0-1.889 2.982-1.173 4.57.716 1.589 3.454 5.124 3.998 5.96.274.419-1.494 1.145-3.85 1.695-1.517-.527-2.762-.223-4.934.425l-1.021.306a11.607 11.607 0 0 1-1.371-.092c-4.167-.555-8.316-3.443-8.887-3.897-.57-.454-4.443-2.306-6.246-3.133-1.803-.828-5.222-1.916-6.582-1.916-.591 0-1.134.045-1.58.192 1.082-.619 3.686-.446 7.52-.116 5.285.455 6.27 1.702 9.565 2.437 3.294.735 4.504-3.86 8.876-6.43 4.372-2.572 7.221-1.21 8.818-2.46 1.597-1.252 2.434-5.778 6.543-4.098 4.108 1.68 8.73 3.872 10.117 3.285.924-.391.261-1.794-1.99-4.207a6.699 6.699 0 0 1-.465-1.055l.232-.647c.563-1.535 1.363-1.846 1.917-1.91.397-.044.853.041 1.297.231Z" fill="#E7E7E9"/>
        <path d="m61.885 39.185.254.174c.159.098.452.421.88.97l.192.25c1.608 1.469 2.997 2.596 4.167 3.382 1.754 1.179 3.688 1.888 4.238 2.02.55.132.85.121 1.353 0 .504-.12.682-1.14 1.246-2.675.563-1.535 1.363-1.846 1.917-1.91.397-.044.853.041 1.297.231l.004.033.837.794.498.488.385.394c.22.232.365.402.436.51.223.34.23.582.273.768l-1.311-1.343c-.677-.677-1.402-1.334-1.75-1.236l-.171.049c-.33.102-.584.285-.856 1.488l-.279 1.337c-.185.83-.418 1.504-.999 1.825-.871.481-2.287.745-3.616.225-1.33-.52-3.414-1.765-5.416-3.285-2.003-1.52-3.553-3.348-3.794-3.59-.241-.243-2.035-.611-3.068-.306l-.538.166c-1.3.41-3.801 1.252-4.786 1.726l-.213.11c-.892.508-2.406 1.008-2.61 1.098l-.22.089h-.312c-.207 0-.33-.457.207-.79.322-.199 1.006-.543 1.727-.901l1.395-.697c1.043-.532 3.612-1.51 5.844-1.75 1.707-.183 2.424.126 2.789.356Z" fill="#F6F6F9"/>
        <path d="M56.684 39.911c2.4-.66 3.778-.249 4.63-.161.853.088.88.661 1.142 1.097.26.435 1.655 1.453 3.633 2.934 1.98 1.48 3.859 2.448 5.785 2.865 1.926.417 2.777-.596 2.923-1.334l.162-.857c.158-.774.411-1.709.9-2.15.698-.632 1.247-.241 1.827.052.352.178.983.77 1.894 1.78l.227.254.055.271-1.311-1.343-.408-.398c-.543-.512-.972-.829-1.25-.75l-.171.049c-.33.102-.584.284-.856 1.488l-.28 1.337c-.184.83-.467 1.52-1.048 1.842-.872.481-2.42.725-3.75.206-1.328-.52-3.412-1.766-5.415-3.286s-3.553-3.348-3.794-3.59c-.24-.243-2.035-.61-3.067-.306l-.538.166c-1.301.41-3.802 1.253-4.787 1.726l-.213.11c-.892.509-2.406 1.009-2.61 1.098l-.219.089h-.313a.146.146 0 0 1-.098-.038c.12-.12.335-.325.564-.433l.172-.06c.355-.076.538-.317.742-.4l1.524-.56c.31-.124.077-.297.405-.64.327-.342 1.144-.398 3.543-1.058Z" fill="#9292A5"/>
        <path d="M56.775 39.778c2.4-.66 3.778-.25 4.63-.161.852.087.88.661 1.141 1.096.261.436 1.655 1.453 3.634 2.934 1.979 1.482 3.858 2.449 5.785 2.866 1.926.417 2.607-.619 2.753-1.357l.162-.857c.158-.774.41-1.709.9-2.15.698-.632 1.326-.133 1.906.16.351.178.983.77 1.894 1.779l.227.255.055.271-1.311-1.343-.409-.398c-.543-.512-1.062-.916-1.34-.838l-.172.049c-.33.102-.584.285-.856 1.488l-.279 1.337c-.185.83-.418 1.504-.999 1.825-.871.481-2.287.745-3.616.225-1.33-.52-3.414-1.765-5.416-3.285-2.003-1.52-3.553-3.348-3.794-3.59-.241-.243-2.035-.611-3.068-.306l-.538.166c-1.3.41-3.801 1.252-4.786 1.726l-.213.11c-.892.508-2.406 1.008-2.61 1.098l-.22.089h-.312a.146.146 0 0 1-.098-.038c.119-.121.334-.325.563-.433l.173-.06c.355-.076.538-.318.741-.4l1.525-.56c.31-.124.077-.297.404-.64.328-.342 1.144-.398 3.544-1.058Z" fill="#E3E2EC"/>
        <path d="M34.735 58.965c4.396 1.004 7.487 1.936 9.271 2.796 1.785.861 6.21.36 13.278-1.504-3.068 2.94-5.489 4.523-7.26 4.75-1.773.227-6.869-1.787-15.289-6.042Z" fill="#D5D5DA"/>
        <path d="M55.21 40.045c1.382-.537 5.495-.903 6.045-.738.55.165 1.024 2.127 1.445 3.55.42 1.423.543 5.223-1.295 5.333-1.839.109-3.103-1.738-3.78-2.66-.635-.864-.91-.01-1.633.633l-.151.125c-.84.646-1.94 2.021-2.822 1.886-.391-.06-1.624-.892-3.697-2.494v-.534c-.005-.59-.03-1.05-.03-1.185 0-.252.245-.537.734-.855l.224-.138h-.327c-.054 0-.103-.032-.135-.084l1.189-.674c1.402-.783 3.285-1.797 4.233-2.165Z" fill="#EBEBF2"/>
        <path d="M56.947 40.053c2.11-.089-2.545 1.434-2.189 1.683l.058.022c.447.095 1.266 1.242 2.457 3.441-.415-.191-.706.454-1.281.964l-.151.125c-.84.646-1.94 2.021-2.822 1.886-.391-.06-1.624-.892-3.697-2.494v-.534l-.03-1.185c0-.252.245-.537.734-.855l.224-.138h-.327c-.054 0-.103-.032-.135-.084l1.189-.674c.26-.145.538-.299.824-.455 2.349-1.09 4.063-1.656 5.146-1.702Z" fill="#D8D7E1"/>
        <path d="M50.08 44.25c1.112-.862 1.888-1.287 2.328-1.275.31.195.868.762 1.15 1.186.987 1.482.822 2.293-.595 2.297-.944.004-2.016-.422-3.216-1.275l.333-.933Z" fill="#E9E9E9"/>
        <path d="M54.63 45.53c.164.222.453 1.083.126 1.55-.326.465-.714.784-1.392.803-.485.013-.953-.305-1.211-.7-.104-.158-2.122-1.279-2.146-1.445-.03-.217-.015-.373.047-.466 1.323.669 2.115.996 2.375.981.451-.025 1.17-.626.934-1.934-.05-.269-.36-.755-.931-1.458l.185-.145c.547.567.889 1.02 1.025 1.361.214.536-.03.934.058.946.493.07.814.349.93.507Z" fill="#B7B7C7"/>
        <path d="M54.43 45.933c.072.346-.064.998-.727 1.188-.663.191-1.324-.158-1.408-.742-.084-.585.193-.96.882-1.149.688-.189 1.18.356 1.252.703Z" fill="#949597"/>
        <path d="M42.673 48.075c.104 1.16-.027 1.928-.395 2.3-.43.434-.373.87-.549 1.07-.263.301-1.207.719-1.546.486-.161-.11-.318-.34-.407-.588-.026-.075-.488-.188-1.276-.66-.12-.07-.327-.234-.624-.488.035-.28.088-.41.157-.391.972.27 1.737.839 1.782.783.29-.353 1.278-.805 1.7-.806.173 0 .5-.591.978-1.773l.18.067Z" fill="#BBBCCF"/>
        <path d="M40.92 51.336c.341-.111.787-.843.595-1.076-.19-.234-.47-.154-.937.067-.467.221-.688.686-.471.915.217.23.47.205.812.094Z" fill="#949597"/>
        <path d="M60.799 48.154c-.416-.125-1.613-1.13-2.457-2.067-.845-.937-2.649-2.662-2.717-3.079-.068-.416-1.675-1.807-.658-1.81 1.017-.003 3.038.471 3.554.837.515.366 2.86 4.813 2.882 5.29.023.476-.188.954-.604.829Z" fill="#9292A5"/>
        <path d="M62.86 42.703c-.07-.387-.26-.994-.462-1.531-.034-.092-.301-.171-.32-.263-.093-.48-.126-.776-.226-.852-.238-.182-1.137-.864-2.3-.735-1.163.129-4.041.825-4.205 1.06-.164.236.873 1.227 1.688 1.869.815.64 1.457 1.177 1.541 1.997.084.82.404 2.458.909 3.098.505.639 1.098.956 2.185.808 1.087-.148 1.51-1.295 1.53-1.634.023-.339-.2-3.034-.34-3.817Z" fill="#EBEBF2"/>
        <path d="M61.197 41.038c1.562.53 1.16.975 1.803 1.952.465.708.254 2.937.143 3.802a2.332 2.332 0 0 1-.238.51.616.616 0 0 1-.267.138c-1.13.282-2.625.275-3.048-1.467-.424-1.742-.448-3.402-1.737-3.98l-.738-.852-.057-.106c-.342-.62 3.143-.334 4.139.003Z" fill="#DADAE4"/>
        <path d="M57.032 40.966c2.058.377 3.54.854 4.446 1.432.635.405 1.135.806 1.5 1.203l.115 1.19c.07.808.119 1.56.108 1.73-.006.09-.04.238-.108.41l-.302.313c-1.037-.058-1.723-.282-2.058-.672-.502-.586-.858-2.79-1.597-3.245a9.172 9.172 0 0 1-1.197-.891l-.17-.328-.168-.308a5.06 5.06 0 0 0-.504-.706l-.065-.128Z" fill="#BCBCC8"/>
        <path d="M59.947 43.481c.575.457.985.927 1.231 1.409.37.722.93 1.301 1.454 1.398.524.097.963-2.257.423-2.529-.54-.272-3.148-1.5-3.291-1.005-.095.33-.034.572.183.727Z" fill="#A0A0B5"/>
        <path d="M29.932 56.48c3.514.87 7.683 3.056 9.5 4.125 1.045.614 2.202 1.774 3.252 2.853l-.71-.376-.642-.365c-1.013-.594-1.714-1.095-1.925-1.263-.57-.454-4.443-2.306-6.246-3.133-1.803-.828-5.222-1.916-6.582-1.916-1.361 0-2.467.241-2.72 1.405-.253 1.163 1.71 4.599 2.72 5.714l1.879 2.023.233.267c.2.238.3.387.226.387l-1.957-.065a55.224 55.224 0 0 1-2.923-4.585c-1.6-2.797-1.198-4.232-.467-5.07.73-.838 2.847-.87 6.362 0Zm33.671-14.174c.503 2.641.427 4.54-.23 5.694-1.112 1.96-3.48 1-4.56 0a9.054 9.054 0 0 1-.768-.856c-.604 1.813-1.746 2.994-3.412 3.497-1.8.543-3.455.044-4.909-1.449-.299.594-.756 1.07-1.43 1.395-.729.352-1.656.045-2.61-.487-.537 2.948-1.877 4.688-4.024 5.111-2.09.413-3.827-.301-5.136-2.093a7.143 7.143 0 0 1-1.671 1.157c-1.83.939-8.219.687-8.922.687l-1.333-.007-.971.014c-.844.024-1.734.082-2.373.218-1.39.296-1.275 2.555-.94 4.675l.118.655c.235 1.175.659 2.76 1.272 4.758l.21.68-1.414-.049c-.586-2.107-.984-3.949-1.191-5.525-.312-2.365-.377-3.943.545-4.912.921-.969 3.245-.759 4.464-.759 1.22 0 1.184-.389 2.26-.475 1.077-.087 2.848.086 5.763-.216 2.769-.287 3.905-1.535 4.84-3.875l.146-.379c.465-1.245.939-1.965 1.381-2.423.55-.416 1.431-.918 2.122-1.13.793-.044 1.953.275 3.364 1.491l.33.297c2.216 2.077 3.195 1.683 4.107.902.912-.782.661-4.509.661-4.941 0-.252.245-.537.734-.855l.073-.045.633-.225.52-.204c.154-.064.289-.125.406-.182l.16-.082c.499-.273 1.628-.74 3.388-1.402l1.288 1.915.949 1.366c1.28 1.808 2.167 2.901 2.66 3.279 1.115.853 2.219-.094 2.403-.282.123-.126.22-.843.198-1.51-.021-.667-.42-3.728-.559-4.511a5.316 5.316 0 0 0-.054-.266c-.046-.203.254.157.686.564.323.306.627.637.826.785Zm-3.5 10.181c1.465.765 6.683 4.8 8.623 6.327l.577.456c.624.5 1.527 1.324 2.708 2.47l-.259.21-.3.284a43.37 43.37 0 0 1-1.492-1.196l-1.095-.923c-2.403-1.985-9.6-7.628-12.22-7.628-2.881 0-1.889 2.982-1.173 4.57.716 1.589 3.454 5.124 3.998 5.96.14.214-.253.508-.986.819a23.184 23.184 0 0 1-3.167-4.566l-.379-.735c-1.332-2.662-2.014-4.935-.52-6.223 1.63-1.406 4.03-.69 5.686.175Zm11.093-3.333c2.597.824 6.596 2.966 7.484 3.615.888.649 2.196 1.778 2.816 2.958.568 1.082.746 2.49.772 3.058l.002 2.609c-.182-.186-.274-.74-.274-1.661 0-2.702-1.282-4.264-2.85-5.498-1.476-1.162-4.788-2.868-5.92-3.343l-.687-.263c-1.42-.527-4.648-1.615-5.33-.204-.636 1.312.795 3.111 1.892 4.31l.986 1.059.891 1.012 1.568 1.842 1.105 1.32-.407.775-4.245-4.558c-.701-.763-1.23-1.346-1.584-1.749l-.14-.161c-1.26-1.452-1.98-2.898-1.25-4.31.73-1.413 2.575-1.636 5.171-.811Zm-32.705.521-.105.29c-.311.942-.69 1.722-1.18 2.38l-.099-.142c1.12 1.73 2.544 2.385 4.36 2.027 1.768-.348 2.87-1.871 3.298-4.693-.814-.54-1.607-1.14-2.278-1.537-1.63-.966-3.252-.198-3.996 1.675Zm12.42-6.05-.213.115c-.255.148-.431.396-.458 1.804l-.003 1.05a8.28 8.28 0 0 1-.148 1.51l-.066-.076c1.323 1.605 2.737 2.134 4.321 1.656 1.52-.459 2.493-1.608 2.94-3.514l-.677-.911c-.977-1.334-1.895-2.663-2.084-2.891-.31-.374-2.824.85-3.611 1.258Z" fill="#DCDBE3"/>
        <path d="m62.475 41.227.166.514c.671 2.132 1.009 3.746 1.013 4.842a4.62 4.62 0 0 1-.117 1.085 3.032 3.032 0 0 1-.163.332c-1.113 1.96-3.482 1-4.561 0a9.054 9.054 0 0 1-.768-.856l-.047.123-.716-1.089.002-.008-.062-.083-.24-.365-.024.01-1.158-1.59c-.635-.887-1.142-1.611-1.277-1.774-.31-.374-2.824.85-3.611 1.258l-.214.114c-.255.148-.431.396-.458 1.804l-.003 1.05-.01.274c-.271-.4-.562-.787-.909-.995l.003-.861c-.008-.525-.029-.926-.029-1.051 0-.252.245-.537.734-.855l.073-.045.633-.225.52-.204c.154-.064.289-.125.406-.182l.16-.082c.499-.273 1.628-.74 3.388-1.402l1.288 1.915.949 1.366.563.784c.98 1.343 1.68 2.175 2.098 2.495 1.114.853 2.218-.094 2.402-.282.123-.126.22-.843.198-1.51-.021-.667-.42-3.728-.559-4.511l-.054-.266c-.035-.151.123.01.384.27Z" fill="#C2C1CA"/>
        <path d="M29.932 56.48c.376.094.76.202 1.149.323a47.254 47.254 0 0 0-2.162.027c-.95-.257-1.804-.425-2.34-.425-1.361 0-2.467.241-2.72 1.405-.253 1.163 1.71 4.599 2.72 5.714l1.028 1.106a7.317 7.317 0 0 1-.292 1.306l-.075.208-.28-.008a55.224 55.224 0 0 1-2.923-4.585c-1.6-2.797-1.198-4.232-.467-5.07.73-.838 2.847-.87 6.362 0Zm14.262-8.777.33.297c2.216 2.077 3.195 1.683 4.107.902.407-.35.583-1.286.652-2.254.296 1.437-.072 2.778-1.194 4.019l-.255.056c-.64.084-1.387-.197-2.15-.623-.537 2.948-1.877 4.688-4.024 5.111-2.09.413-3.827-.301-5.136-2.093a7.143 7.143 0 0 1-1.671 1.157c-1.83.939-8.219.687-8.922.687l-1.333-.007-.971.014c-.844.024-1.734.082-2.373.218-1.39.296-1.275 2.555-.94 4.675l.118.655c.235 1.175.659 2.76 1.272 4.758l.21.68-1.414-.049c-.586-2.107-.984-3.949-1.191-5.525-.312-2.365-.377-3.943.545-4.912.921-.969 3.245-.759 4.464-.759 1.22 0 1.184-.389 2.26-.475 1.077-.087 2.848.086 5.763-.216 2.769-.287 3.905-1.535 4.84-3.875l.146-.379c.465-1.245.939-1.965 1.381-2.423.55-.416 1.431-.918 2.122-1.13.793-.044 1.953.275 3.364 1.491Zm-5.703 1.972-.105.29c-.311.942-.69 1.722-1.18 2.38l.115.17c1.085 1.495 2.443 2.051 4.145 1.715 1.769-.348 2.87-1.871 3.299-4.693-.814-.54-1.607-1.14-2.278-1.537-1.63-.966-3.252-.198-3.996 1.675Z" fill="#E5E5EE"/>
        <path d="M51.734 52.559c0-.42-.391-.838-1.196-.42-.806.42-3.907 1.53-5.533 5.614-1.625 4.085 1.695 6.474 4.235 6.595 2.541.12 5.598-1.073 10.172-3.165 4.575-2.092 14.665-7.039 16.118-7.802 1.453-.763 3.663-2.487 3.844-2.815.18-.327-.293-1.873-.62-1.873s-.49-.016-1.562.486c-1.073.503-3.912 1.657-10.424 3.789-6.511 2.131-11.717 3.522-12.988 3.797-1.271.274-2.559-.262-2.398-1.622.16-1.36.352-2.165.352-2.584Z" fill="#982732"/>
        <path d="M51.654 52.906c0-.419-.39-.838-1.196-.419-.805.42-3.697 1.623-5.13 5.42-1.434 3.798 1.487 5.795 3.97 6.081 2.482.286 5.597-1.072 10.171-3.165 4.575-2.092 14.742-6.985 16.195-7.748 1.453-.763 3.663-2.488 3.843-2.815.18-.328-.352-1.324-.679-1.324-.326 0-.644.089-1.716.591s-3.912 1.656-10.423 3.788c-6.512 2.132-11.717 3.523-12.989 3.797-1.271.274-2.558-.262-2.398-1.621.16-1.36.352-2.166.352-2.585Z" fill="#DC2739"/>
        <path d="m68.13 56.578 1.422-.518-5.063 2.416c-1.671.792-3.25 1.533-4.503 2.11l-1.785.814c-3.894 1.76-6.658 2.847-8.904 2.588-1.705-.197-3.617-1.2-4.183-3.041l.228.17c.938.642 3.03 1.484 6.825.58 3.288-.782 10.688-3.223 15.962-5.12Z" fill="#CB1829"/>
        <path d="M50.458 52.487c.805-.419 1.196 0 1.196.42 0 .418-.191 1.224-.352 2.584-.16 1.36 1.127 1.895 2.398 1.621l1.214-.295c1.918-.495 5.506-1.5 9.863-2.885l1.912-.617c.616-.202 1.2-.395 1.752-.58l-1.396.611c-5.113 2.19-17.691 7.147-21.036 6.125-.415-.127-.74-.308-.974-.544a6.14 6.14 0 0 1 .292-1.02c1.434-3.797 4.326-5 5.13-5.42Zm28.37-3.551c.327 0 .86.996.68 1.324-.17.308-2.138 1.854-3.58 2.67l-.196.109c.723-1.142.819-2.362.64-2.872-.037-.106-.152-.162-.333-.175l.722-.306.35-.159c1.073-.502 1.39-.591 1.717-.591Z" fill="#EC3D48"/>
        <path d="M10.93 59.49c.266.537.705.992 1.315 1.367.916.561 4.244 2.305 5.664 2.913 1.42.607 2.08 1.024 2.221.481.141-.543.282-1.001.787-1.223.505-.223 2.951.22 5.007.797 2.057.578 4.326.83 6.883-.797 2.557-1.628 2.856-1.998 5.03-2.419 2.175-.42 5.114 1.663 7.261 2.557 2.147.894 4.512.816 6.537-.766 2.025-1.583 3.455-2.328 4.814-2.152 1.36.176 2.877 1.123 4.163 1.749 1.286.625 4.593 1.975 6.302.565 1.708-1.41 3.345-4.075 3.723-4.563.377-.488 1.559-1.353 3.62-.323 2.063 1.03 3.798 2.62 4.288 3.172.49.551 1.262 1.233 2.032.136.77-1.096.915-1.317 1.181-1.494.267-.176.983-.79 1.177-.614.195.176.7.984.858 1.831.105.565.237 1.335.396 2.311v.506c.92 1.894 1.455 3.135 1.608 3.725.152.59.22 1.117.203 1.583-.072 1.245-1.316 1.803-3.73 1.675-.15.317-.353.54-1.537.682-.789.095-2.149.197-4.08.308-3.158.258-5.362.396-6.612.415-1.251.02-1.962-.183-2.133-.606h-2.923c-.447.465-.798.698-1.055.698-.384 0-11.417-.082-11.978-.286-.374-.137-.62-.313-.738-.529h-3.57c-.303.543-.85.815-1.644.815H32.807c-.253 0-.462-.17-.629-.507h-2.326c-.247.3-.527.438-.84.415-.471-.034-3.841-.618-4.36-.723-.31-.14-.48-.29-.866-.253-.386.038-6.32-1.282-9.992-3.387-3.671-2.106-3.781-3.85-3.795-5.88-.008-1.354.302-2.08.93-2.179Z" fill="#EEE"/>
        <path d="m33.287 66.762-.16.384c-.145.371-.318.874-.52 1.507-.241.76-.347 1.65-.317 2.671l.018.39a1.451 1.451 0 0 1-.13-.217h-2.326c-.05.06-.101.114-.154.162-.1-.446-.393-1.167-.663-1.805l-.416-.981c-.211-.519-.444-.925-.7-1.22 1.676.139 2.816.185 3.421.139.605-.047 1.254-.39 1.947-1.03Zm35.492-1.319-.4 3.353c-.066.511-.12.906-.162 1.183a6.522 6.522 0 0 0-.054 1.62.642.642 0 0 1-.255-.293h-2.923c-.187-.773-1.263-2.914-1.857-3.563l-1.904-2.044c.985.192 1.936.36 2.851.502 1.373.215 2.655.073 3.133 0 .32-.049.843-.301 1.57-.758Zm-16.232-.145-.403.939c-.149.36-.256.644-.323.853-.117.364-.216 1.203-.297 2.516l-.096.72c-.053.433-.086.772-.1 1.017a.697.697 0 0 1-.114-.154h-3.57l-.077.113-.016-.311c-.043-.488-.76-1.597-1.302-2.34l-.325-.432c-.342-.434-.955-1-1.84-1.7.582.127 1.467.249 2.657.367 1.785.177 3.536-.268 4.219-.492.455-.15.984-.515 1.587-1.096Z" fill="#EBE9E9"/>
        <path d="m29.035 69.854-.255-.6-.478-.016c1.36.055 2.735.1 4.125.135a8.951 8.951 0 0 0-.137 1.951l.018.39a1.451 1.451 0 0 1-.13-.217h-2.326c-.05.06-.101.114-.154.162-.1-.446-.393-1.167-.663-1.805Zm39.385-1.431-.042.373-.134 1.003-.027.18a6.522 6.522 0 0 0-.054 1.62.642.642 0 0 1-.255-.293h-2.923c-.128-.528-.669-1.692-1.189-2.585 1.526-.087 3.068-.188 4.624-.298Zm-16.896 1.183-.096.72-.065.579c-.016.17-.028.315-.035.438a.697.697 0 0 1-.114-.154h-3.57l-.077.113-.016-.311c-.03-.338-.383-.974-.778-1.58 1.57-.027 3.16-.067 4.768-.117l-.017.312Z" fill="#E4E4E4"/>
        <path d="m30.701 70.516 1.595-.003c-.012.26-.014.531-.006.811l.018.39a1.451 1.451 0 0 1-.13-.217h-2.326c-.05.06-.101.114-.154.162-.067-.295-.218-.712-.39-1.144l1.393.001Zm33.792-.462 3.734-.138-.01.063a6.522 6.522 0 0 0-.054 1.62.642.642 0 0 1-.255-.293h-2.923c-.068-.282-.254-.746-.492-1.252Zm-13.083.42-.047.43-.035.44a.697.697 0 0 1-.114-.155h-3.57l-.077.113-.016-.311a1.645 1.645 0 0 0-.155-.488l4.014-.029Z" fill="#DFDEDE"/>
        <path d="M38.14 71.22c.161.176.311.437.452.782L36.991 72l.258-.56c.045-.095.082-.168.111-.22.14-.254.432-.385.78 0Zm5.369.117.036.185c.016.12.03.28.041.479h-1.005c0-.449.034-.71.103-.782.128-.134.748-.14.825.118Zm17.66-.29c.059.431.146.743.263.937l-1.398-.018a.771.771 0 0 0 .13-.41l-.003-.322c0-.06.002-.122.004-.186h1.005Zm-5.544 0h1l.163.43c.077.187.15.337.216.448l-1.71-.04c.114-.192.224-.472.33-.837Zm17.332-.086c.056.37.143.597.259.681.053.039.247.063.582.074l-1.61.105-.468.026c.064-.134.1-.294.12-.41l.014-.1a.906.906 0 0 0 0-.29l1.103-.086Zm5.608-.416c.008.323.052.548.13.674.04.063.15.104.332.124l-1.666.112-.483.029a.37.37 0 0 0 .107-.147c.103-.256.056-.557.154-.617.065-.04.54-.098 1.426-.175Zm-54.342-.566c.252-.002.564.788.767 1.274l-.338-.064-.328-.16a.989.989 0 0 0-.33-.094l-.208.001a.79.79 0 0 1-.144-.01c.163-.053.245-.123.248-.206l.01-.221c.02-.243.083-.518.323-.52Z" fill="#484848"/>
        <path d="m85.755 67.101.036.139c-.18-.083-.297-.162-.353-.239-.158-.216-.483-1.112-.48-1.366.003-.117.019-.27.037-.404l.297.67c.22.514.375.914.463 1.2Z" fill="#DE6F75"/>
        <path d="M10.93 59.49c.266.537.705.992 1.315 1.367.794.487 3.4 1.861 5.004 2.614l1.638.73c.757.33 1.14.448 1.243.05.141-.543.282-1.001.787-1.223.475-.21 2.67.17 4.641.697l.366.1c2.057.578 4.326.83 6.883-.797l1.862-1.198c1.065-.667 1.674-.932 3.169-1.22 2.174-.42 5.113 1.662 7.26 2.556 2.147.894 4.512.816 6.537-.766 2.025-1.583 3.455-2.328 4.814-2.152 1.36.176 2.877 1.123 4.163 1.749l.58.265c.66.287 1.548.614 2.462.79-1.136-.065-2.327-.328-3.149-.703l-1.556-.714c-1.05-.466-2.108-.865-3.094-.92-1.183-.067-2.812.992-3.738 1.636l-.545.382c-.628.426-1.75 1.216-4.237 1.224-2.488.009-5.986-2.213-7.131-2.609-1.146-.396-3.14-.573-4.64.527l-1.003.766c-1.604 1.204-4.066 2.741-7.7 1.84l-1.367-.333c-3.307-.787-3.997-.8-4.419-.77-.316.024-.63.315-.945.873-.098.561-.298.81-.6.747l-.195-.067c-1.256-.48-7.549-3.338-8.489-4.147-.345-.297-.496-.62-.454-.969a.827.827 0 0 1 .538-.325Zm63.328-1.814c1.924.961 3.564 2.411 4.173 3.049l.31.332c.487.485 1.162.887 1.836-.073l.69-.975c.19-.255.301-.378.427-.473l.064-.046c.267-.176.983-.79 1.177-.614.042.038.098.105.162.196-.13.145-.28.28-.435.375l-.156.082c-.411.177-.76.616-1.126 1.184l-.372.607c-.512.855-.925 1.024-1.625.6-.7-.425-3.494-2.916-4.646-3.653-1.153-.738-2.45-.727-3.008-.49-.506.216-.872.589-1.522 1.576l-.204.315c-.782 1.225-2.204 2.91-3.04 3.345-.836.436-1.497.318-.984.194.305-.074.813-.45.885-.61l.05-.035c1.708-1.41 3.345-4.075 3.723-4.563.377-.488 1.559-1.353 3.62-.323Z" fill="#FFF"/>
        <path d="M78.087 63.165a40.403 40.403 0 0 1 2.59 3.297l.422.605c.458.666.787 1.264 1.171 1.128.357-.126.978-1.667 1.224-2.712l.05-.232c.126-.65.337-1.412.634-2.283l.01.05v.506l.016.034-.037.12c-.215.68-.39 1.3-.528 1.861l-.252 1.103c-.2.848-.366 1.39-.568 1.553-.167.136-.485.188-.952.156l.246.724c.085.27.138.468.157.595.035.224.035.46 0 .706l.67-.945c.206.123.312.264.317.423.005.18-.133.452-.328.67-.208.001-.428-.005-.659-.017a.892.892 0 0 1-.165.25.97.97 0 0 0 .058-.637l-.135-.703c-.126-.581-.37-1.31-1.137-2.35l-1.067-1.423c-.959-1.252-2.02-2.553-2.666-3.036l-.591-.444c-.856-.622-1.981-1.272-3.4-.906-1.64.423-2.289 1.155-2.781 1.834l-1.106 1.595c-.15.226-.253.394-.27.451l-.033.181c-.066.44-.208 1.574-.323 2.53l-.218 1.879c-.072.709-.12 1.409-.05 1.646.044.147.18.298.408.452-.488-.093-.784-.267-.886-.52h-.04a.623.623 0 0 0 .143-.378l.027-.387c.082-.945.32-3.047.454-3.916l.033-.205c.118-.651.057-.723-.057-.637l-.082.076c-.16.166-1.174.637-2.709.548-1.023-.06-2.35-.212-3.98-.458 1.007.993 1.808 1.906 2.402 2.74.893 1.252 1.2 2.268 1.086 2.544l-.04.07-.16.003a5.45 5.45 0 0 1-.245.24.624.624 0 0 0 .064-.313c-.03-.72-.683-1.905-1.43-2.882l-.465-.587c-.78-.952-1.937-2.174-3.408-3.005-1.798-1.015-3.148-1.447-4.292-1.158-1.145.289-1.994 1.189-2.372 1.65-.378.462-.919 1.365-1.043 2.682l-.125 1.425c-.041.52-.067.938-.075 1.208l-.019.699c-.001.097.001.194.01.285a1.002 1.002 0 0 1-.371-.36h-.104c.053-.139.093-.298.122-.479.125-.784.15-1.487.299-2.736.1-.833.342-1.588.729-2.266-.812.667-1.604 1.103-2.378 1.308-1.054.28-3.241.292-4.381.073l-.309-.073a2.228 2.228 0 0 0-.268-.063l.558.553c.337.34.605.62.803.844l.342.389c.439.506.963 1.166 1.043 1.636.043.25.059.52.049.81l-.076.003a1.493 1.493 0 0 1-.945.728c.287-.278.563-.644.598-.99.063-.61-2.002-3.386-2.857-3.9-.856-.512-2.08-1.016-3.073-1.423-.991-.407-2.255-1.78-3.546-1.768-1.29.01-2.733 1.224-3.314 1.772-.581.549-1.1 1.288-1.27 1.64-.151.314-.52 1.395-.671 2.155l-.144.87c-.086.59-.115 1.28.393 1.731-.26 0-.47-.17-.636-.507l-.054-.001-.013-.122-.008-.29a9.448 9.448 0 0 1 .704-3.644l-.17.1c-.549.298-2.018.878-4.27.304l1.704 3.65-.219.003c-.247.3-.527.438-.84.415l-.212-.024c.432-.134.649-.305.648-.514-.002-.492-1.334-3.398-1.606-3.53l-.197-.076c-.727-.26-3.1-1.015-4.393-1.567-.976-.417-2.096-.977-3.36-1.68a7.756 7.756 0 0 1-.123 1.874l-.123.594c-.097.425-.178.698-.25 1.012l-.043.194c-.112.54-.167 1.044-.253 1.112-.085.069-.217-.395-.133-.956.084-.56.64-2.11.694-2.642l.11-.896.042-.303c.15-.006.248-.065.3-.204a.674.674 0 0 0 .287.264l.444.204c1.05.46 3.548 1.497 4.371 1.782l1.06.37c1.324.445 3.31 1.007 4.764.72 1.937-.382 3.058-1.896 3.535-2.395.476-.498 2.216-1.617 2.784-1.65.53-.03 2.003.34 3.774 1.242l.383.201c1.94 1.05 3.528 1.68 5.623 1.633l.881-.028c1.727-.074 3.237-.308 4.401-1.398l.958-.926c.68-.644 1.196-.984 2.55-1.16 1.894-.245 4.744 2.067 5.311 2.34.567.273 2.932.732 4.873.693 1.682-.033 2.306-.564 2.966-1.623l.312-.527c.804-1.41 2.273-3.11 4.077-3.25 1.805-.14 3.214.775 4.62 2.367Zm-62.49-.346c.086.033.255.27.592 1.4l.795 2.83c.244.843.468 1.538.586 1.64.188.165.398.329.542.403l.094.037c.099.021-.186.035-.245.251l-.463-.164-.346-.128c.069-.056.063-.156.024-.323l-.256-1c-.388-1.438-1.404-4.976-1.324-4.946Z" fill="#BCBAC5"/>
        <path d="m37.562 65.726 2.066 3.916h-.594l-.576-.932-1.57.034-.427 1.112-.63.001 1.595-4.13h.136Zm.039 1.402h-.12l-.34 1.051.972-.057-.512-.994ZM56.278 64.927v4.326h.694v-4.326zM74.122 63.733c.35.071 1.212.52 1.186 1.452-.026.934-.923 1.34-.99 1.494-.066.153.099.418.471.87.373.452 1.28 1.509 1.16 1.518-.08.007-.396.007-.95 0-.836-1.214-1.284-1.82-1.346-1.818-.093.002-.503-.114-.503.08v.143l.01 1.89-.747-.008c-.277-3.53-.416-5.337-.417-5.422 0-.129.08-.149.295-.171.214-.023 1.482-.1 1.831-.028Zm.112.949c-.26-.183-.672-.225-1.236-.126l.075 1.325c.44.087.795.07 1.065-.05.407-.181.486-.875.096-1.15Z" fill="#28282B"/>
        <path d="M62.63 44.355a6.976 6.976 0 0 0-.11-.788c-.113-.193-4.583-2.313-4.999-2.6-.415-.288-1.453-.384-1.68 0 .326.23.917.76.908 1.068.355-.03.923.372 1.621.765.699.394 3.072 1.425 3.535 1.89.244.245.513.472.807.68-.033-.233-.054-.681-.082-1.015Z" fill="#F4F4F6"/>
        <path d="M56.356 41.282c.143-.05.341.068.629.15l.193.05c.165.037.402.11.67.206.547.194 1.228.48 1.705.748l.274.167c.427.288 1.388.78 2.885 1.478l-.117-.06.035.334.06.805c.006.08.014.152.022.21a6.097 6.097 0 0 1-.807-.68c-.463-.465-2.836-1.496-3.535-1.89l-.726-.423c-.368-.211-.673-.361-.895-.342.005-.176-.185-.424-.41-.647l.017-.106Z" fill="#D4D5DE"/>
        <path d="M51.576 37.263c.538-.216 1.041.624 1.597.818.513.18 1.995 1.994 2.55 2.527l.118.105c.21.163.698.626.945 1.088.08.151.005.208-.011.352-.116.306-.223.46-.323.463-.15.004-.969-.115-1.454-.433-.485-.319-1.372-.98-1.882-1.295-.34-.21-.924-.472-1.814-.76.546.507 1.054.956 1.525 1.347l.346.283c.847.68 1.606 1.475 1.75 2.589.145 1.114-.968 1.618-1.705 1.821-.737.203-2 .167-2.219-.25-.218-.419-.707-.425-1.862-.75a6.639 6.639 0 0 0-2.396-.217c-.373-.424-.292-.974-.199-1.095.094-.12.516.05.76.035.705-.047 1.818.2 2.749.37 1.254.23 1.31.66 1.758.907.45.246 1.385-.058 1.763-.217.252-.106.307-.336.168-.69a3.735 3.735 0 0 0-.486-.794l-.412-.457c-.645-.686-1.789-1.846-2.157-2.297-.478-.585-.82-1.153-.938-1.94-.12-.787.55-.44.938-.692.39-.253.353-.601.891-.818Zm-.08 1.296c-.268-.055-.39-.005-.37.15l.023.086c.205.132.449.25.732.355.425.157 1.14.509 1.45.72l-.738-.605c-.317-.273-.786-.642-1.098-.706Z" fill="#F6F6F6"/>
        <path d="M49.756 38.433c.046.383.257.821.429 1.303.16.45.983 1.252 1.45 1.652l.155.13c.407.324 1.795 1.644 2.015 2.154.22.51.268.84.038 1.083a.46.46 0 0 1-.11.083c.106-.126.109-.318.007-.577a3.735 3.735 0 0 0-.486-.794l-.412-.457-1.578-1.653a14.537 14.537 0 0 1-.579-.644c-.478-.585-.82-1.153-.938-1.94a.798.798 0 0 1 0-.307l.01-.033Z" fill="#DCDCE2"/>
        <path d="M54.998 41.734c.021-.026.107-.15.257-.372.272.2.457.327.555.383.068.04-.116.267-.087.352.079.234.226.392.442.474.118.05.918.246 1.366.437.163.07.508.307.902.594.072.22.122.437.143.646.033.322.103.77.205 1.235l-.028-.025c-.609-.574-1.962-1.372-2.955-1.991-.992-.62-1.073-1.426-.8-1.733Z" fill="#EFEEF0"/>
        <path d="M55.833 41.859c-.104.249.006.473.332.673.117.05.918.285 1.366.476.163.07.508.307.902.594.072.22.122.437.143.646l.04.323-.296-.225c-.548-.419-2.381-1.308-2.738-1.724-.146-.171-.224-.31-.234-.42-.018-.14.087-.463.236-.576.058.053.206.157.249.233Z" fill="#D4D5DE"/>
        <path d="M51.952 38.556c.51.234 1.172.829 1.533 1.13l.136.11c.305.234 2.25 1.953 2.324 2.048.05.063.083.166.1.31a1.063 1.063 0 0 0-.304-.396l-1.598-1.26a59.065 59.065 0 0 0-1.266-.964l.037.018-.321-.287-.356-.29c-.256-.195-.534-.373-.742-.416a.605.605 0 0 0-.274-.01c.216-.12.46-.118.731.007ZM50.54 38.207c.142.8.35 1.315.687 1.604.366.118.998.433 1.66.686.441.17 1.141.585 2.1 1.248l-.101.383c-.79-.59-1.354-.99-1.694-1.2-.34-.21-.963-.536-1.89-.8.546.507 1.054.956 1.525 1.347l.346.283c.847.68 1.606 1.475 1.75 2.589.099.755-.382 1.23-.931 1.521a2.753 2.753 0 0 1-.338-.385c.492-.5.756-.889.793-1.163.055-.412-.054-1.062-.793-1.773l-.957-.957c-.648-.66-1.328-1.364-1.49-1.513l-.034-.028c-.068-.03-.594-.883-.632-1.276-.026-.262-.026-.45 0-.566Z" fill="#CAC9CE"/>
        <path d="M46.507 44.465c.233.046.479.077.737.093l.396.013c.61.003 2.71.36 3.045.612.335.252.892.83 1.105.892.143.042.306.009.49-.098.142.085.211.186.21.301-.652.04-1.335-.064-1.49-.36-.22-.419-.708-.425-1.863-.75a6.632 6.632 0 0 0-2.364-.22 1.46 1.46 0 0 1-.18-.289l-.087-.19.001-.004Z" fill="#D6D6DC"/>
        <path d="M52.73 44.187c-.48.114-.964.618-.939.984.026.367.543.601.5.926-.04.142-.148.204-.323.186.3.32.835.374 1.604.163 1.153-.317 1.279-1.285 1.238-1.438-.041-.154-.469-.852-1.027-.9-.557-.05-.574-.035-1.053.08Z" fill="#F6F3F2"/>
        <path d="m52.73 44.187.362-.082c.141-.026.25-.03.453-.017l.238.02c.042.003.082.01.122.02a1.18 1.18 0 0 1-.075.336c-.116.323-1.495.938-1.81.862a.368.368 0 0 1-.23-.167c-.01-.368.466-.86.94-.972Z" fill="#FCFCFC"/>
        <path d="M53.947 44.14c.476.15.826.73.863.868.04.153-.085 1.12-1.238 1.438-.77.21-1.304.157-1.604-.163.175.018.282-.044.322-.186.034-.252-.27-.45-.42-.697.177.143.57.44 1.15.445.703.006 1.138-.429 1.19-.837.028-.218-.03-.46-.175-.724l-.088-.144Z" fill="#F3EDED"/>
        <path d="M54.81 45.008c.04.153-.085 1.12-1.238 1.438-.77.21-1.304.157-1.604-.163.175.018.282-.044.322-.186l-.017-.12c.141.056.4.124.746.098.513-.037 1.32-.129 1.428-.592.066-.283.078-.645.062-.945.171.195.28.396.3.47Z" fill="#CECACA"/>
        <path d="m37.847 47.857.021.03c.337.457 1.021 1.221 1.385 1.394.453.215 1.457-.283 1.725-.606.224-.269.384-.535.39-.905l-.016-.235c-.045-.313.046-.961.209-1.526.344-.33.754-1.457 1.572-1.457.635 0 1.312.105 2.031.317l.008-.103c.201.153.4.34.597.56a3.07 3.07 0 0 1-.498.761c-.26.275-.785-.315-1.278-.557-.492-.242-1.107.429-1.31.916-.202.486-.026 2.35-.294 2.793-.268.443-1.282 1.338-2.247 1.534-.966.197-2.366-.671-2.727-1.454-.129-.277-.358-.257-.794-.67-.233-.222-.13-.572.31-1.052l.209-.212c.282.155.507.382.707.472Z" fill="#F5F5F5"/>
        <path d="M43.107 45.555c.393-.273.813-.214.996-.18.097.02.25.13.46.333l.168.17h.126l-.076.163c-.24-.142-.519-.378-.788-.51-.492-.243-1.107.428-1.31.915-.202.486-.026 2.35-.294 2.793-.268.443-1.282 1.338-2.247 1.534-.966.197-2.366-.671-2.727-1.454-.129-.277-.355-.266-.79-.68-.087-.082-.162-.458-1.257-.42.98-.274 1.144.038 1.16-.013.303.108 1.218.685 1.443 1.09.23.417.853.902 1.293.875.441-.026 2.765-1.635 2.892-1.822.127-.187.026-1.08.084-1.524.057-.443.475-.997.867-1.27Z" fill="#D1D1D8"/>
        <path d="M40.272 47.885c-.644.213-1.351.792-1.36 1.194-.006.266.074.69.074 1.026 0 .171.344.94.701.977.358.036 1.54-.073 2.105-.495s.76-1.223.706-1.508c-.054-.285-.062-.96-.68-1.118-.62-.157-.903-.29-1.546-.076Z" fill="#F6F3F2"/>
        <path d="M40.272 47.885c.643-.213.926-.081 1.545.076-.156.34-1.625 1.068-2.115 1.193a2.19 2.19 0 0 1-.784.047l-.006-.122c.009-.402.716-.98 1.36-1.194Z" fill="#FCFCFC"/>
        <path d="M40.227 50.178c.396-.003 1.932-1.04 1.891-1.356-.02-.152-.143-.445-.37-.879l.07.018c.618.158.626.833.68 1.118.053.285-.141 1.086-.706 1.508-.564.422-1.747.531-2.105.495-.234-.024-.35-.216-.509-.371-.158-.156-.184-.666-.214-.983l-.29-.297c.772.5 1.289.75 1.553.747Z" fill="#EAE4E4"/>
        <path d="M42.498 49.079c.053.285-.141 1.086-.706 1.508-.564.422-1.747.531-2.105.495-.108-.011-.376-.135-.515-.34-.16-.24-.185-.57-.186-.67.155.282.441.48.855.591.825.224 1.513-.43 1.951-.81.413-.357.575-.74.515-1.509.143.25.158.563.19.735Z" fill="#CECACA"/>
        <path d="M62.017 40.605c.466 3.27.661 5.054.585 5.355-.114.452-.094 1.265-.457 1.386-.362.12-1.051.727-2.028-.102-.976-.83-1.133-1.276-1.219-1.76-.085-.485-.045-1.38-.282-1.753-.158-.25-.45-.552-.879-.907.446.407.675.71.689.907.013.197.076.729.19 1.595l-.727-.48c.655 1.124 1.07 1.781 1.247 1.971.265.286 1.042.924 1.592 1.05.549.124 1.687-.168 1.874-.623.188-.456.248-1.903.19-2.397-.02-.165-.068-1.15-.391-3.365-.01-.068.036-.174.148-.167.033.002.097.037.191.106l-.723-.816Z" fill="#9292A5"/>
        <path fill="#8B8B9C" d="m62.37 47.346 4.943 3.422v-.256l-4.943-3.33z"/>
        <path d="m38.227 50.477-.888-.76.124-.294c.142.201.264.352.364.454.101.102.26.226.475.372l-.075.228Z" fill="#C7C8D5"/>
    </g>
</svg>
