<svg xmlns="http://www.w3.org/2000/svg" viewBox="0 0 96 96">
  <defs>
    <path id="a" d="M0 0h96v96H0z"/>
  </defs>
  <g fill="none" fill-rule="evenodd">
    <path fill="#F4F5F7" d="M10.52 59.593c.372-1.38 2.075-2.375 5.11-2.984 4.55-.913 11.688-2.381 12.138-2.578.451-.198 3.222-1.37 3.814-1.398.592-.028 2.373-.123 2.51 0 .139.123 8.817-1.665 12.67-3.456 3.854-1.79 5.93-3.571 6.338-3.984.408-.413.141-1.4.272-1.817.132-.417.236-1.117.946-2.554.71-1.438 2.18-5.706 2.61-6.204.287-.332.793-.841 1.519-1.528l1.86-3.892 5.25 1.369-1.66 5.936c5.204 1.986 8.855 4.158 10.954 6.518 3.149 3.54 4.835 7.937 5.072 9.993.157 1.37.453 3.76.888 7.165v1.058c-8.938.04-15.211.157-18.82.349-5.414.287-15.326 2.304-20.047 2.595-4.721.29-28.93-1.398-29.708-1.54-.778-.143-.898-.765-.93-1.324-.02-.373-.282-.948-.786-1.724Z"/>
    <path fill="#BDBDBD" d="M56.63 35.828v.495l-1.352 3.413v2.415l-.296.27-.42-2.132c.534-1.23 1.294-3.307 1.833-4.59l.236.13Z"/>
    <path fill="#DEE8EA" d="m74.906 48.957.844 3.964c.95 4.591 1.401 7.372 1.355 8.34l-5.071.052c-4.414.06-7.761.152-10.043.273-3.61.191-9.93.859-18.964 2.002-7.818 1.656-13.544-1.644 2.552-7.04 2.852-.956 9.965-3.887 17.607-6.617 1.746-.624 8.401-.654 11.72-.974Z"/>
    <path fill="#E8E9EA" d="M12.903 57.402c.217.794 1.293 1.56 2.364 1.594 1.37.043 10.332-1.42 15.517-.858 3.456.374 5.68 2.4 6.67 6.076l-.015-.058c-8.567-.27-24.573-1.4-25.203-1.515-.778-.143-1.404-.916-1.435-1.475-.02-.373-.112-.9-.275-1.583.237-.883 1.024-1.608 2.363-2.175Z"/>
    <path fill="#D9D9D9" d="M71.638 50.935c-2.802 2.508-4.924 5.653-6.368 9.434 4.092.211 7.864.342 11.315.391.66-4.314.66-7.013 0-8.097-.99-1.626-2.28-2.549-2.916-2.663-.425-.077-1.102.235-2.03.935Z"/>
    <path fill="#ABB9C1" d="m73.574 49.99.095.01.06.012-.114.168-.14.189c-3.088 2.482-5.594 5.827-7.516 10.035l-.689-.035c1.444-3.781 3.566-6.926 6.368-9.434.93-.7 1.606-1.012 2.03-.935Z"/>
    <path fill="#DFE0E2" d="M80.922 39.389c.408-.2.569-.227.691-.166.122.06 1.668 2.275 1.293 4.9.036.32.469 1.806 1.3 4.457.131.1.229.183.293.25.064.066.156.18.277.34.296 1.571.48 2.767.55 3.589.032.371-.123 1.249-.094 1.595.126 1.498.268 3.268.426 5.313l-6.601 1.093c-.473-3.416-1.06-6.532-1.76-9.35-1.053-4.227 3.216-11.82 3.625-12.021Z"/>
    <path fill="#A4A6A8" d="m84.52 48.639.256.532c.296 1.57.48 2.766.55 3.588.032.371-.123 1.249-.094 1.595l.01.132-1.102 1.837-.091.566-.618.464-.118-.418 1.131-2.853.062-.837c-.276.146-.422.148-.437.008-.016-.14.077-.482.277-1.025l.016-2.424-.3-.494.086-.888.066-.002c.067.063.17.136.306.219Z"/>
    <path fill="#D1D2D4" d="m82.906 44.123.06.325c.066.313.185.818.358 1.515-2.951 2.17-4.847 4.236-5.69 6.204l-.189-.147-.149-.61c-.47-1.889-1.2-3.74-2.19-5.554l7.778-3.564c.09.569.114 1.187.022 1.83Z"/>
    <path fill="#A6B7C0" d="M82.906 44.123c.005.05.02.132.043.247a332.037 332.037 0 0 0-6.837 3.918l.126-.073a24.37 24.37 0 0 0-.845-1.816l7.435-4.737c.172.8.198 1.62.078 2.46Z"/>
    <path fill="#DFDFDF" d="m81.469 38.301.231.592.056.241.115.191.994 2.521c.06.327.097.657.11.99a4.021 4.021 0 0 1-.296.842c-2.86 1.262-5.11 2.542-6.75 3.837a26.348 26.348 0 0 0-2.476-4.31l7.363-3.598c.046-.307.067-.647.063-1.021l.59-.285Z"/>
    <path fill="#EAEFF1" d="M81.222 38.421c.122.041.238.085.348.133l.13.34.056.24.115.191.494 1.257c-3.684 1.708-6.462 3.445-7.79 4.356-.344-.582-.72-1.16-1.122-1.733l7.363-3.598c.046-.307.067-.647.063-1.021Z"/>
    <path fill="#40E5D5" d="M82.103 33.923c1.424.41.453 2.591-.272 3.64-.262.377-.235.962-.075 1.571 1.01 1.566 1.395 3.218 1.154 4.957a.597.597 0 0 1-.577-.209c.03-.92-.093-1.677-.367-2.272a7.851 7.851 0 0 0-.733-1.268l-.296-.391-7.021 3.433-.203-.307 6.537-3.594c.465-.493.647-.857.607-1.46l-.071-.83c-.086-1.325.022-3.642 1.317-3.27Zm-.148.756c-.332.29-.502 1.256-.509 2.899.511-.838.78-1.421.808-1.75.042-.493.2-1.583-.299-1.149Z"/>
    <path fill="#2BCABB" d="M82.103 33.923c1.424.41.453 2.591-.272 3.64-.262.377-.235.962-.075 1.571 1.01 1.566 1.395 3.218 1.154 4.957a.597.597 0 0 1-.577-.209c.03-.92-.093-1.677-.367-2.272a7.851 7.851 0 0 0-.733-1.268l-.13-.171a6.377 6.377 0 0 0-.441-1.227c.161-.273.22-.553.195-.92l-.071-.83-.019-.424c-.033-1.338.17-3.182 1.336-2.847Zm-.148.756c-.332.29-.502 1.256-.509 2.899.511-.838.78-1.421.808-1.75l.047-.519c.032-.472.01-.94-.346-.63Z"/>
    <path fill="#A0DFDA" d="m60.025 29.788 1.284.245v3.44l-.88 2.17c-.558 1.344-.922 2.14-1.092 2.392l-.041.054c-.3.337-1.43 1.44-.895-.531l.076-.263c.387-1.276.64-3.227.76-5.852l.788-1.655Z"/>
    <path fill="#C8DBDF" d="M55.93 56.665c-3.109.76-6.544 1.667-10.308 2.72-5.645 1.58-6.12 2.59-1.084 1.987 3.356-.402 7.736-.736 13.137-1.003l-1.746-3.704Z"/>
    <path fill="#B3E6E2" d="m62.29 54.16-3.998 4.601c-1.397-2.003-2.355-3.101-2.872-3.294-.477.329.37 1.642.751 2.671.255.686.653 1.645 1.192 2.878l1.314.112c2.883-4.417 4.65-7.048 5.3-7.894.65-.847.088-.538-1.687.927Z"/>
    <path fill="#ADE6E6" d="m61.676 47.322.257 4.741c-.396-.394-1.14-.599-2.233-.615-1.092-.017-4.823.457-11.193 1.422 7.616.23 10.966.623 10.052 1.18-.915.556-2.262 1.27-4.043 2.14 7.819-2.01 11.503-4.076 11.051-6.198-.451-2.122-1.748-3.012-3.891-2.67Z"/>
    <path fill="#6ADFDE" d="M50.583 52.87c3.553-.754 6.353-1.158 8.402-1.212 2.049-.054 2.916.327 2.602 1.142.948-.53 1.319-1.885 1.112-4.063-.207-2.177-.785-4.12-1.733-5.829-2.733 3.675-4.883 5.893-6.45 6.656a10.53 10.53 0 0 0-3.933 3.306Z"/>
    <path fill="#5EF4E6" d="M59.267 35.947c.735-.282 2.833-.02 4.687.353l-.057.203c5.732 1.679 8.744 3.67 10.815 6.255 2.878 3.591 4.817 8.24 5.054 10.297l.59 3.525c.13 1.037.281 2.237.455 3.6l-6.147.39c-.156-.995-.699-2.41-.858-3.217-.16-.806-.438-1.192-.319-1.954.065-2.049-1.924-4.417-2.316-4.615-.392-.199-4.348 1.56-7.296.441-1.965-.746-3.292-2.35-3.981-4.814-.579 1.109-1.268 2.013-2.067 2.711-1.09.953-2.795 1.756-4.556 2.186l-3.507.765c-3.132.707-7.479 1.74-8.585 2.15l-.147.06c-1.11.503-9.26 2.582-11.205 2.134-1.113-.256-1.647-1.116-1.603-2.58l1.142-.468c.574-.228 1.188-.46 1.64-.6-.005.906.155 1.41.476 1.513l.116.025c.644.084 2.546-.374 8.4-1.728 6.257-1.448 10.988-4.314 12.323-5.336 1.272-.972 3.539-5.224 3.868-6.376l.034-.149c.134-.868 1.855-4.315 3.044-4.771Z"/>
    <path fill="#01BBA9" d="M71.175 49.935c-4.686 2.063-6.906 1.42-8.772-.015-.954-.87-1.585-1.69-2.022-3.255-.585.954-1.854 2.224-2.558 2.744-1.241.92-2.077 1.73-7.63 3.7-3.702 1.315-8.64 2.425-14.813 3.33 11.172-4.308 17.507-7.154 19.006-8.54 1.499-1.386 3.692-3.623 6.58-6.712.305-.277 12.273 5.704 10.209 8.748Z"/>
    <path fill="#41D0C2" d="M64.44 37.796c5.172 1.305 9.116 3.685 11.832 7.14 2.005 3.116 3.303 6.461 3.494 8.119l.59 3.525c.13 1.037.281 2.237.455 3.6l-1.792.113c-1.646-8.09-3.209-12.793-4.69-14.11-1.532-1.362-4.551-3.737-9.059-7.125l-.83-1.262Z"/>
    <path fill="#B1F0EA" d="M31.007 52.769c-.006.906.154 1.41.475 1.513l.116.025c.444.058 1.487-.142 4.013-.716-.534 1.032-1.11 1.861-1.725 2.489-1.758.321-3.336.504-4.059.337-1.113-.256-1.647-1.116-1.603-2.58l1.142-.468 1.033-.394c.22-.079.427-.15.608-.206Z"/>
    <path fill="#E6E6E6" d="M32.498 52.384c.955-.178 1.896-.081 2.213 0 .317.081.798.672 0 1.102-.532.287-1.468.586-2.81.898-.592.008-.925-.11-1-.355-.075-.244-.043-.562.095-.952.365-.343.865-.574 1.502-.693Z"/>
    <path fill="#525252" d="M31.03 53.19c.13-.435.229-.672.298-.71.104-.055 1.422-.514 1.662-.345.16.113-.046.482-.617 1.109l-.548.403h-.795v-.456ZM32.632 54.03c1.473-.293 2.274-.573 2.405-.84.196-.398.236-1.669.842-1.763.404-.063.858.035 1.36.293-.727.627-1.023 1.118-.885 1.47-.433.143-1.674.423-3.722.84Z"/>
    <path fill="#525252" d="M36.354 53.19c.502-.164.797-.271.886-.32.133-.074.802-.82 1.553-.49.07.151.271.21.602.177l1.592-.4c.728-1.076 1.204-1.592 1.427-1.548.224.044.623.259 1.199.643l2.053-.643c.217-.885.458-1.436.724-1.652.167-.107.637-.037 1.41.21v.397l1.448-.607v-.222h1.028l.307-.503-.95-.232c.088-.445.302-.695.643-.75.342-.054.75-.129 1.227-.223l.453.47.697-.47v-.76h.809l.547-.703-.244-.183.582-1.248h.931l.893-.493-.573-.482.256-.456h.777l.576-1.363-1.787.618-.854.745v.938h-.557c-.944.794-1.496 1.271-1.658 1.433-.242.242-.948 1.134-.988 1.228-.04.094-1.373-.309-2.115.405a7.72 7.72 0 0 0-1.24 1.526c-.821-.382-1.36-.46-1.618-.232-.386.341-1.555 1.224-1.898 1.564a2.293 2.293 0 0 0-.494.68c-.668-.308-1.195-.41-1.584-.309-.582.154-1.645.28-2.682 1.473-.238-.105-1.591-.312-2.492.312-.601.416-.896.906-.886 1.47Z"/>
    <path fill="#539FAC" d="M31.156 54.945c-.674.491-.331 1.753.369 1.802.7.048 3.683.133 8.222-.988 4.538-1.121 9.992-2.528 14.275-4.648 2.855-1.412 5.056-3.554 6.603-6.423.03 2.62.882 4.455 2.558 5.505 2.514 1.574 4.54.794 7.749-.149.39-.047 2.135 1.525 2.52 2.826.258.867.533 2.16.827 3.877.925-2.105 1.206-3.686.843-4.743-.363-1.057-3.102-3.633-8.218-7.73l-6.938-2.71-8.632 7.393-8.867 3.913-8.728 2.265c-1.272-.454-2.133-.517-2.583-.19Z"/>
    <path fill="#EBF3F6" d="M30.784 55.8c.003-.848-.165-1.327 4.252-2.194 4.417-.866 14.292-3.404 17.988-7.037 3.697-3.634 6.335-8.301 6.608-9.867.182-1.044.505-3.526.968-7.448l5.327.808c-.84 3.234-1.424 5.29-1.751 6.168-.49 1.317-.225.976.547 1.372.772.397 5.917 1.866 8.626 4.925 2.708 3.058 5.106 6.853 5.737 11.08.421 2.817.744 5.071.97 6.762h-5.234c-.813-2.444-1.085-3.817-.815-4.12.235-.223.173-2.65-.658-4.272-.832-1.622-1.962-2.577-2.886-2.24-.924.338-5.066 1.972-7.407 0-1.56-1.313-2.25-3.4-2.07-6.26-1.967 3.616-4.462 6.124-7.484 7.525-4.532 2.1-14.004 4.731-17.535 5.185-3.531.453-5.186.46-5.183-.387Z"/>
    <path fill="#DCE5E7" d="m79.086 53.606.652 4.464c.122.857.227 1.623.318 2.3h-5.234l-.28-.867c-.55-1.768-.744-2.83-.58-3.185l.045-.07c.235-.222.173-2.649-.658-4.27-.302-.588-.642-1.088-.997-1.471l.68-.663c1.384-1.36 2.17-2.233 2.361-2.614.145-.291.208-.916.188-1.874 1.713 2.455 3.056 5.243 3.505 8.25Z"/>
    <path fill="#D6E1E4" d="M60.296 31.784 65.2 32.8l-.372 1.338-4.681-1.154z"/>
    <path fill="#BBCCD1" d="m60.455 30.468 5.098 1.018-.373 1.385-4.88-1.118z"/>
    <path fill="#D9E3E6" d="m64.016 37.301.01.007a.4.4 0 0 0 .047.029c.037.02.082.037.134.056.1.036.223.075.369.14l.147.07c.772.396 5.917 1.865 8.626 4.924l.263.3.026.03a33.725 33.725 0 0 1 .682.817c-3.818-1.366-6.372-1.412-7.663-.137C65.3 44.876 64.838 46.364 65.27 48c-1.859-.541-3.328-.271-4.133-1.698-.166-.84-.217-1.781-.15-2.826-.752 1.382-1.58 2.601-2.486 3.66-1.545 1.272-4.173 2.395-8.616 1.627 1.256-.677 2.342-1.41 3.14-2.194 3.696-3.634 6.334-8.301 6.607-9.867.07-.407.163-1.033.277-1.879v-.005l4.302 1.314-.035.098c-.15.401-.23.649-.245.81a.507.507 0 0 0 0 .115.222.222 0 0 0 .056.12l.007.006.01.01a.269.269 0 0 0 .012.01Z"/>
    <path fill="#C6D2D6" d="m59.896 34.918 4.292 1.278-.012.034c-.458 1.23-.257 1.014.4 1.302l.147.07c.494.254 2.772.945 5.06 2.21l-4.179 2.608-2.236 3.763c-1.148-4.014-2.56-6.701-4.237-8.06.27-.591.441-1.08.5-1.42l.164-1.055c.032-.22.065-.464.101-.73Z"/>
    <path fill="#90ABB3" d="m59.967 34.388 4.386 1.329-.123.362-.171.473-4.23-1.146z"/>
    <path fill="#A3A3A3" d="m79.736 58.138.027.11.227 1.635.066.486h-1.074l-.224-2.153.978-.078Z"/>
    <path fill="#A6AFC1" d="M66.57 49.564a4 4 0 1 0 0-8 4 4 0 0 0 0 8Z"/>
    <path fill="#DCDFE5" d="M66.632 49.187a4 4 0 1 0 0-8 4 4 0 0 0 0 8Z"/>
    <path fill="#D0D4DB" d="M66.632 41.187a3.99 3.99 0 0 1 2.976 1.326c-.815-.05-1.585.02-1.95.395-.877.9-1.43 3.965-2.388 4.607-.463.31-1.065.346-1.808.107a4 4 0 0 1 3.17-6.436Z"/>
    <path fill="#C8CBD2" d="m66.632 41.187.21.005c.07.004.138.01.206.016l-.123-.01c.067.004.134.01.201.019l-.078-.009c.072.007.143.017.213.028l.019.003c-.59.788-1.206 1.535-1.499 3.368-.259 1.622-1.08 3.297-2.6 2.601a4 4 0 0 1 3.452-6.022Z"/>
    <path fill="#9BA1AD" d="M66.632 41.187a4.001 4.001 0 0 1 3.944 3.324c-.588-1.716-1.67-2.597-3.25-2.642-2.685-.076-4.285 1.81-4.693 3.392v-.074a4 4 0 0 1 4-4Z"/>
    <path fill="#FFF" d="M68.526 42.092c.324.063.644.16.96.29a3.99 3.99 0 0 1 1.021 3.8 3.997 3.997 0 0 0-1.778-3.966l-.203-.124Z"/>
    <path fill="#A8B4BC" d="M76.761 58.138c.553 0 1.21-.276 1.256-1.236.045-.96-.633-1.587-1.408-1.542-.774.045-1.338.658-1.256 1.59.082.934.856 1.188 1.408 1.188Z"/>
    <path fill="#C0CEDB" d="M76.774 57.806c.413 0 .905-.198.938-.889.034-.69-.472-1.142-1.052-1.11-.58.033-1.001.474-.94 1.145.061.671.64.854 1.054.854Z"/>
    <path fill="#5D7A91" d="M76.763 57.198c.244-.04.32-.114.293-.368-.028-.254-.097-.452-.426-.402-.33.05-.338.346-.308.508.03.162.196.303.44.262Z"/>
    <path fill="#6D9BA8" d="M32.73 55.968c.487-.096 1.026-.216 1.018-.605-.008-.389-.898-.689-1.507-.452-.609.237-.777.61-.682.844.096.234.684.31 1.171.213Z"/>
    <path fill="#B3D9E4" d="M32.72 55.74c.487-.096 1.027-.217 1.019-.605-.008-.39-.898-.69-1.507-.453-.609.238-.778.61-.682.844.096.234.684.31 1.17.214Z"/>
    <path fill="#A1A6AC" d="M60.914 40.642c.99.035 1.315-.897 1.315-1.45 0-.552-.354-1.377-1.218-1.386-.864-.01-1.31.819-1.31 1.37 0 .553.224 1.43 1.213 1.466Z"/>
    <path fill="#006E60" d="M60.974 39.903c.28.009.612-.252.611-.654-.001-.401-.366-.56-.681-.549-.316.012-.574.261-.556.631.018.37.346.563.626.572Z"/>
    <path fill="#98A8BD" d="M32.006 62.94c3.073-.056 7.509-.463 13.309-1.221 3.93-.514 10.954-1.922 20.09-2.308 4.414-.187 8.958.488 13.023.439 2.71-.033 5.12-.182 7.23-.447l-.195.966-50.083 4.234-2.912-.337-.462-1.325Z"/>
    <path fill="#DFE4EA" d="M85.947 65.772c.08-1.085.082-4.873.053-5.308-.029-.436-.06-1.109-.645-.988-.86.239-5.552 1.164-15.258.565-9.707-.6-29.614 3.086-37.465 3.127-7.85.041-19.079-2.37-20.37-3.194-.86-.55-1.366-.847-1.514-.894-.082.475-.11.85-.086 1.124.171 1.94.846 3.312 1.41 4.079 1.026 1.395 6.686 4.58 16.15 5.422 6.309.56 11.965.56 16.968 0 .471-1.478.908-2.374 1.309-2.69.602-.475 9.549-3.605 16.847-2.732 7.299.873 13.46 1.975 13.733 2.273.183.199.496.352.94.458 2.318-.151 4.014-.272 5.086-.361 1.609-.135 2.695-.736 2.842-.88Z"/>
    <path fill="#D8DDE4" d="m85.83 61.896.187-.187-.01 2.047c-.006.419-.013.822-.023 1.171l-.026.657c-.16.174-.316.327-.469.459a7.115 7.115 0 0 1-2.384.61l-3.883.282-1.168.077-.083-.01c-.418-.105-.715-.254-.892-.446-.274-.298-6.434-1.4-13.733-2.273-5.95-.712-12.995 1.237-15.722 2.238l-3.802.03c-3.257.007-6.953-.044-7.468-.327-.714-.393 7.69-1.508 13.998-1.93l7.54-.416c6.046-.32 13.08-.65 16.437-.513l3.37.14c2.875.103 4.999.072 6.4-.553.705-.314 1.281-.666 1.73-1.056Z"/>
    <path fill="#A6B1BF" d="M31.427 67.674c4.066.258 6.795.392 8.187.402 1.392.01 2.957.01 4.696 0h.626c1.971.92 4.419 1.386 7.343 1.396 2.924.01 9.674-.456 20.25-1.396l5.38-1.35c1.926.06 3.516-.007 4.77-.198 1.254-.191 2.351-.475 3.292-.85-.927.936-1.409 1.413-1.447 1.429-.038.016-3.098 1.022-9.18 3.018l-34.714.162-11.507-1.322 2.304-1.29Z"/>
    <path fill="#A6B1BF" d="m31.49 63.158 1.198.01-.056-.216c.472 1.661.472 2.92 0 3.775s-1.279 1.624-2.42 2.306c-.915.577-3.118.527-6.61-.15-3.492-.678-6.466-1.897-8.922-3.658 1.908-1.554 3.871-2.63 5.891-3.23 3.446.592 7.434 1.084 10.92 1.163Z"/>
    <path fill="#AAB2BD" d="M10.748 59.08c.148.047.653.345 1.514.894.421.269 1.9.707 3.974 1.173l-1.966 1.008c-.936.493-1.386.758-1.35.797l1.744 1.146c2.067 1.343 5.222 3.39 5.122 3.414l-.109.014c-.208.022-.699.064-1.473.125-3.452-1.193-5.547-2.572-6.132-3.368-.564-.767-1.239-2.14-1.41-4.079-.024-.274.004-.65.086-1.124Z"/>
    <path fill="#FFF" d="M85.29 59.537c.328-.092.479-.048.553.09-1.012.364-2.518.639-4.516.826-3.958.37-10.116-.635-18.343-.14-8.226.494-14.604 1.62-22.465 2.579-7.48.913-8.047.816-8.426.717l-.057-.015c-.158-.04-.36-.185-.609-.434.41.007.812.01 1.205.008 7.85-.04 27.758-3.727 37.465-3.127 9.706.599 14.622-.343 15.192-.504Z"/>
    <path fill="#C7D4DE" d="M10.722 59.083c.768.796 1.165 1.308 1.188 1.536.035.342-1.739 2.28 2.266 4.72s11 3.802 13.244 3.595c1.497-.138 2.886-.44 4.17-.906 2.922.237 5.227.382 6.915.436 1.688.054 3.797.002 6.327-.155 1.63 1.184 3.398 1.778 5.306 1.782 2.86.006 19.682.159 20.431 0 .75-.16 4.332-.628 7.45-3.148.695.074 6.806-.077 7.981-1.262-.879 2.076-2.22 5.726-9.906 5.99-5.124.177-9.273.284-12.447.321l-1.681-.828h-10.65c-1.685.562-2.731.838-3.139.828-.611-.015-13.678 0-17.32 0-3.642 0-15.455-1.066-18.754-6.003-2.2-3.292-2.66-5.594-1.381-6.906Z"/>
    <path fill="#98A8BD" d="m51.316 71.164-.79.257-.128.04a35.496 35.496 0 0 1-.753.228l-.318.088.074-.02-.208.055.134-.035-.184.048a10.1 10.1 0 0 1-.339.08l.06-.013-.135.03.075-.016a3.568 3.568 0 0 1-.468.08h-.001l-.055.004-.597-.001c-2.52-.01-13.53.003-16.826.003l-.674-.01-.267-.009a39.353 39.353 0 0 1-.82-.04l.068.005c-.091-.005-.184-.01-.279-.017l.211.013a43.005 43.005 0 0 1-.295-.018h.001a45.356 45.356 0 0 1-.893-.067l-.355-.031a49.798 49.798 0 0 1-1.598-.173l.245.03-.316-.039a48.569 48.569 0 0 1-3.17-.504l.212.04a42.67 42.67 0 0 1-.511-.1l.3.06c-.154-.03-.307-.06-.46-.092l.16.033a41.156 41.156 0 0 1-.336-.07l.175.037-.424-.09.25.053a36.681 36.681 0 0 1-1.547-.36l.427.106c-.34-.082-.68-.17-1.018-.263l.133.036c-.146-.04-.292-.08-.438-.122l.305.086a31.32 31.32 0 0 1-.417-.118l.112.032c-.14-.04-.278-.08-.417-.122l.305.09a29.587 29.587 0 0 1-.441-.132l.136.042a28.36 28.36 0 0 1-.442-.138l.306.096a25.183 25.183 0 0 1-1.292-.433l.116.042a21.94 21.94 0 0 1-1.31-.519l-.019-.008c6.136 1.328 11.356 1.48 15.2 1.472l36.478-.11c4.832-.028 8.217-.247 10.122-.603 2.14-.4 4.396-.839 6.585-2.295-1.14 1.775-3.323 3.612-8.485 3.873l-.386.016-4.581.147c-.447.013-.884.026-1.31.037a643.186 643.186 0 0 1-4.312.102h.002a359.058 359.058 0 0 1-2.246.035l-1.681-.828h-10.65Z"/>
    <path fill="#D2DADC" d="M11.849 62.43c-.167-.892 2.257-2.354 8.82-2.56 6.562-.205 10.851.502 11.711 3.225.86 2.723-.599 5.247-4.135 5.587-3.537.34-9.822-1.244-12.95-3.016-3.13-1.772-3.28-2.345-3.446-3.237Z"/>
    <path fill="#E2E7E8" d="M32.38 63.095c.024.075.144.66-.525.819-.931.22-3.653.11-5.152-.025-2.576-.232-4.618-.793-7.99-1.424-2.968-.556-5.256-.568-6.864-.036-.162-.863 2.108-2.262 8.217-2.536l.603-.022c6.562-.206 10.851.501 11.711 3.224Z"/>
    <path fill="#F5F6F6" d="m32.286 62.838.046.114c-.47-.43-1.226-.805-2.266-1.125-1.84-.565-4.431-.999-9.09-1.171-2.822-.104-5.693.288-8.61 1.177l-.386.124c.578-.83 3.005-1.837 8.09-2.064l.599-.022c6.35-.2 10.572.456 11.617 2.967Z"/>
    <path fill="#88C1C3" d="M16.754 62.61c.388-.89 1.269-1.494 1.26-1.037-.67 2.235 1.002 2.5 4.038 3.507 3.036 1.006 7.109 1.168 7.07 2.044-.028.645-1.001 1.262-1.554 1.598-3.46.102-8.852-1.267-11.883-2.844a25.22 25.22 0 0 0-.243-.2c-.813-.66-.303-.97 1.096-1.395-.213-.429-.171-.783.216-1.673Z"/>
    <path fill="#A4C2C5" d="m28.53 66.605.025.007c.366.146.576.31.567.512-.028.645-1.001 1.262-1.554 1.598-3.456.103-8.854-1.268-11.887-2.846l-.24-.199c-.514-.417-.498-.695-.062-.95l.369.144c1.903.706 5.564 1.504 12.783 1.734Z"/>
    <path fill="#00B7AF" d="M71.175 62.402c4.275.738 7.408 2.128 7.29 3.749-.119 1.62-4.15 3.746-8.22 4.086-2.185.183-7.63.137-12.54.056l-9.081-.168c-2.155 0-4.343-1.275-4.115-2.051l.083-.234c.361-.852 1.674-2.404 7.578-3.93 6.495-1.68 14.73-2.246 19.005-1.508Zm-13.678 4.325c-.21-.33-2.538-.443-5.167-.246-2.63.198-2.898.782-3.046 1.256-.148.473.145.846 1.117 1.01.972.163 5.274.441 6.413-.101 1.138-.543.893-1.59.683-1.92Z"/>
    <path fill="#00A099" d="M65.037 67.584c1.373.562-.028 2.312-2.977 2.614-.566.057-1.128.103-1.686.136a1637.3 1637.3 0 0 1-2.67-.041l-1.406-.027-.047-1.454a2.41 2.41 0 0 0 .563-.166c1.138-.543.893-1.59.683-1.92-.029-.044-.097-.085-.199-.122 4.316.309 6.895.635 7.74.98Z"/>
    <path fill="#57C9C4" d="M57.782 69.631a7.227 7.227 0 0 1-.447.657l-.737-.016-.235-1.484.052-.01c.157-.038.292-.082.399-.132 1.138-.543.893-1.59.683-1.92.78.396.875 1.364.285 2.905Z"/>
    <path fill="#0ACAC7" d="M52.046 65.1c2.246-.287 6.507-.408 12.784-.36 4.26.117 10.476.77 10.784 1.207.344.487-.181.996-4.06 1.754-3.879.758-6.395.032-8.806-.466-1.366-.283-3.24-.433-5.259-.518-.203-.32-2.53-.433-5.16-.236-1.45.11-2.183.336-2.572.598-1.548.544-2.348 1.373-2.533 1.42l-.145.014c-.343.011-1.192-.037-2.548-.144a.438.438 0 0 1-.022-.295c.058-.199.163-.46.397-.765l.244-.148.29-.146c1.06-.49 3.238-1.483 6.606-1.915Z"/>
    <path fill="#A1E7EA" d="M71.175 62.402c3.88.67 6.818 1.876 7.24 3.305-.043.2-.201.355-.445.455-2.787 1.67-6.8 2.247-12.038 1.73l1.408-.07a58.73 58.73 0 0 0 3.391-.271l.444-.055c1.917-.252 7.666-1.41 1.398-2.069-6.268-.659-11.33-.759-18.56-.226-3.206.237-5.348.575-7.056 1.357-1.708.782-2.159.88-1.987.67.723-.881 2.517-2.108 7.2-3.319 6.495-1.679 14.73-2.245 19.005-1.507Z"/>
    <path fill="#A2ECEA" d="m64.238 70.363.468-.05c4.973-.541 8.38-1.201 10.223-1.981 1.977-.837 3.125-1.73 3.444-2.678l.011-.04c.066.175.094.354.08.537-.118 1.62-4.148 3.746-8.22 4.086l-.629.042c-1.275.068-3.199.09-5.377.084Z"/>
    <path fill="#007061" d="M49.284 67.737c-.148.473.145.846 1.117 1.01l.182.025-1.108.725a2.088 2.088 0 0 1-1.006.346l-.296.011c-1.492-.05-2.007-.336-2.374-.684l-.26-.27c-.432-.46-.041-.535 1.736-.656a8.56 8.56 0 0 1 2.416-1.12c-.263.2-.345.416-.407.613Z"/>
    <path fill="#B1E0DB" d="M57.756 69.55c-.1.316-.225.562-.374.739l-7.99-.155c.25-.658.626-1.114 1.126-1.372l-.117-.016c.966.163 5.226.439 6.393-.091.766.204 1.086.503.962.894Z"/>
    <path fill="#90ABB3" d="m60.488 30.112 5.143 1.117-.255.889-4.985-1.174z"/>
  </g>
</svg>
