<svg xmlns="http://www.w3.org/2000/svg" viewBox="0 0 96 96">
  <defs>
    <path id="a" d="M0 0h96v96H0z"/>
  </defs>
  <g fill="none" fill-rule="evenodd">
    <path fill="#ECECF1" d="M11.283 61.033c-.119-.877.156-1.83.823-2.858 1-1.541 3.915-2.69 6.213-3.521 2.299-.831 18.027-6.492 19.293-7.15.772-.789 1.997-1.53 2.827-1.53.83 0 1.732-.559 2.11-1.04.377-.48 1.086-.812 1.428-.812.341 0 1.384-1.543 2.841-1.352.971.128 1.699-.18 2.182-.92.355-1.48.685-2.306.989-2.478.304-.171.994-.294 2.071-.367l.487-1.986c-.289-1.068-.2-1.796.266-2.183.558-.868 1.676-.707 1.676-.707l4.226-5.598c-.08-.442.017-.663.293-.663.413 0 1.35.31 2.748 1.776a85.94 85.94 0 0 1 2.66 2.917c1.585.292 2.838.546 3.76.762 1.381.324 5.77 2.323 7.005 2.842 1.235.518 1.821.695 2.268-.537.447-1.232 1.8-2.014 2.303-2.014.335 0 .629.23.88.689.378.21.566.483.566.82 0 .505.181 1.756.367 2.395.187.64.618 1.712.618 2.865 0 1.153-.18 2.12-.18 2.12l.341.267-.161 1.163c.9 1.94 1.458 3.13 1.676 3.572.327.662.88 2.656.88 3.501 0 .564.055 1.204.164 1.92.289.204.434.459.434.766 0 .461-.042.694-.211.962.017.475 0 .675 0 1.867v2.131l-.223.498-.164 2.04c-3.442 2.628-8.64 3.941-15.594 3.941-10.43 0-16.808-.443-24.17.48-7.363.922-14.065 3.037-20.809 1.279-4.15-1.082-8.591-2.413-12.397-4.823-.212-.134-.374-.479-.486-1.034Z"/>
    <path fill="#E1E2E7" d="m64.863 35.145.885.304c1.752.582 5 1.604 6.085 2.15l4.707 2.694c1.522.861 3.423 1.933 5.7 3.214l-.057.426 1.47 3.147.206.425c.327.662.88 2.656.88 3.501 0 .564.055 1.204.164 1.92.289.204.434.459.434.766 0 .461-.042.694-.211.962l.007.6c-.001.168-.004.371-.005.66l-.002 2.738-.223.498-.164 2.04c-3.442 2.628-8.64 3.941-15.594 3.941l-2.337-.007c-9.08-.053-15.037-.365-21.833.487-7.363.922-14.065 3.037-20.809 1.279-4.15-1.082-8.591-2.413-12.397-4.823-.212-.134-.374-.479-.486-1.034-.119-.877.156-1.83.823-2.858.366-.564.989-1.076 1.744-1.538-.565 1.037-.017 1.66 1.645 1.868 2.97.373 7.351.31 11.15.425l.936.033c3.995.161 21.572-.937 24.779-1.348l.64-.095c4.326-.715 19.093-4.143 17.358-6.238-1.836-2.217-17.334-3.326-17.606-5.634l-.274-2.396c-.087-.832-.127-1.382-.118-1.766.016-.67 6.091-5.593 7.074-6.34.983-.749 4.215-.452 5.429 0Z"/>
    <path fill="#DBDCE1" d="m83.34 46.41.52 1.095c.326.662.88 2.656.88 3.501 0 .564.054 1.204.163 1.92.289.204.434.459.434.766 0 .461-.042.694-.211.962l.007.6-.005.66-.002 2.738-.223.498-.164 2.04c-3.442 2.628-8.64 3.941-15.594 3.941l-2.337-.007-3.17-.028c-2.169-.498-3.924-1.173-4.855-2.05-1.742-1.64 1.7-5.147 6.267-8.47l.76-.25c3.096-1.05 5.276-2.164 4.548-3.044l-.126-.128 1.08-.64c3.216-1.866 6.142-3.246 7.543-3.513 1.53-.292 2.973-.519 4.486-.59Z"/>
    <path fill="#D0D1D7" d="M71.214 62.811c-2.278-.879-3.141-1.783-2.59-2.711.825-1.394 2.64-1.976 3.886-3.446.83-.98 1.682-2.867 2.555-5.66.126-2.471-.793-3.78-2.758-3.925-2.946-.218-11.893 9.628-9.584 13.929 2.31 4.3 9.974 7.81 13.34 6.219 3.368-1.593 9.145-4.305 8.66-6.22-.485-1.914 1.926-5.33-2.482-4.145-4.407 1.186-9.327-.14-8.062 2.133 1.265 2.273 5.046 2.225 3.577 3.2-.98.648-3.16.857-6.542.626Z"/>
    <path fill="#C3C1CE" d="m84.749 51.377-.01-.37c0 .563.055 1.203.164 1.92.289.203.434.458.434.765 0 .461-.042.694-.211.962l.007.6-.005.66-.002 2.738-.223.498-.164 2.04-.208.156c-.107-.221-.217-.468-.331-.741-.49-1.259-.967-1.822-1.43-1.69l-.115.048c-.748.404-6.036 1.265-7.026.894l-.39-.154c-.83-.354-1.519-.858-1.367-2.09.117-.946.703-1.944 1.757-2.992l1.49-.6c3.359-1.333 5.902-2.214 7.63-2.644Z"/>
    <path fill="#272727" d="m85.13 55.105.003.15-.005.66-.002 2.737-.18.398c-.172-.223-.203-.677-.19-1.035.012-.327-.135-.742-.443-1.245.137-.198.237-.247.3-.149l.102.185c.064.127.148.304.251.531l-.08-1.152c-.022-.367-.026-.591-.015-.674.014-.111.08-.228.196-.348l.062-.058Z"/>
    <path fill="#F6F6F6" d="M59.008 27.868c.413 0 1.35.31 2.748 1.776a85.94 85.94 0 0 1 2.66 2.917l.075.013c.215.364.415.733.599 1.105.301.673.373 1.58.216 2.722-.237 1.712-8.288 11.599-12.652 12.973l-.554.162c-5.202 1.421-22.627 4.021-23.33 3.449-.49-.399.243-1.545.984-2.485l5.504-2.048c1.23-.469 2.095-.813 2.354-.947.695-.711 1.757-1.382 2.567-1.509l.26-.022c.737 0 1.532-.442 1.965-.877l.144-.162c.378-.48 1.087-.813 1.429-.813.341 0 1.384-1.543 2.841-1.352.971.128 1.699-.18 2.182-.92l.175-.686c.29-1.052.56-1.649.814-1.792.304-.171.994-.294 2.071-.367l.487-1.986c-.289-1.068-.2-1.796.266-2.183.558-.868 1.676-.707 1.676-.707l4.226-5.598c-.08-.442.017-.663.293-.663Z"/>
    <path fill="#E1E1E7" d="M61.756 29.644a85.94 85.94 0 0 1 2.66 2.917l.075.013c.215.364.415.733.599 1.105.301.673.373 1.58.216 2.722-.237 1.712-8.288 11.599-12.652 12.973l-.554.162-.806.206c-2.644.64-7.212 1.454-11.548 2.116l-.856-.347c-1.22-.514-2.141-.986-2.64-1.277-.76-.443-.613-1.256.074-2.193l.729-.29c.268-.11.459-.194.559-.246.695-.711 1.757-1.382 2.567-1.509l.26-.022c.737 0 1.532-.442 1.965-.877l.144-.162c.378-.48 1.087-.813 1.429-.813.341 0 1.384-1.543 2.841-1.352.971.128 1.699-.18 2.182-.92l.175-.686.058-.197a18.607 18.607 0 0 0 2.651-1.949l.176-.013.049-.187c.773-.7 1.362-1.342 1.714-1.777 1.107-1.366 4.208-3.517 5.611-4.54.726-.528 1.406-1.576 2.04-3.143l.282.286Z"/>
    <path fill="#BEBDC4" d="M49.904 44.46c-.46-.253-1.06-2.193-.844-2.761.422-1.109 1.743 2.835 1.835 2.724.65-.787 1.93-.228 1.908-.39a45.71 45.71 0 0 1-.238-2.045c-.04-.55-2.366-1.427-2.306-1.508.018-.025 2.569.316 2.982-.103.146-.149-.906-3.251-.542-3.618.09-.092.677.704 1.76 2.387l1.288-1.291c-1.38-1.335-1.986-2.075-1.821-2.222.165-.146 1.254.167 3.266.94 1.048-.845 1.82-1.425 2.317-1.74 1.144-.727 5.181-.296 5.817-.182-2.706.03-4.872.547-5.475 1.694-.206.392-.097 1.224-.882 1.55-.785.327-1.917.297-2.315.589-.398.29-.836.672-.872 1.084-.056.649.66 1.995-.455 2.28-.578.147-.635.938-.636 1.209-.003 1.152 3.156 1.386 3.994 1.209.839-.177.63-1.239.046-1.877-.583-.639 3.11-1.424 7.44.012s7.975 2.557 9.274 4.507c1.298 1.95 3.394 3.05 1.725 5.018-1.668 1.967.837.616-1.487 1.854s.457-3.05-1.968-4.778c-2.425-1.727-2.638-.756-4.034-.485-1.324.258-24.743-1.502-26.718-1.959-.044-.01-1.077-.87-.192-1.877.383-.435 1.24-.734 2.015-.718.843.017 1.7.4 2.506.533 1.54.254 2.619-.032 2.612-.036Z"/>
    <path fill="#939297" d="M50.895 44.423c.46-.557 1.236-.44 1.642-.381l.037.41c.02.314.011.546-.066.617-.182.17-4.894 1.288-7.32 1.775l-1.04-.114a41.94 41.94 0 0 1-.287-.035c.228-.51.82-1.505 1.542-2.66.641.117 1.28.361 1.889.461 1.54.254 2.619-.032 2.612-.036-.46-.253-1.06-2.193-.844-2.761.422-1.109 1.743 2.835 1.835 2.724Zm8.757-8.951-.501.714c.005.205.663.576.353 1.18-.206.404-.902.49-2.088.259-.936.781-1.554 1.31-1.878 1.782-.057.083.573 1.925-.146 2.11-.272.07-.728.086-1.011-.044-.467-.212-.696-.443-.747-.385-.107.123-.478 1.395.424 3.792.017.047-.281.03-.896-.051-.48-1.763-.733-2.8-.757-3.11-.522-.525-2.197-1.17-2.146-1.24l.938.074c.779.053 1.796.075 2.044-.176.146-.149-.906-3.251-.542-3.618.09-.092.677.704 1.76 2.387l1.288-1.291-.51-.502c-1.017-1.02-1.454-1.593-1.311-1.72.159-.14 1.173.144 3.043.856.073.027 2.607-1.046 2.683-1.017Z"/>
    <path fill="#A3A2AC" d="M54.41 39.517c-.822 1.083-1.223 1.85-1.2 2.303.032.678.222 2.153.599 2.588.377.435 3.89.22 4.508.122.62-.098 1.363-.644 2.572-.571 1.21.072 6.016.732 7.614 1.42 1.598.687 2.592 1.535 3.142 2.387.367.569.367.966 0 1.193-4.752-1.936-8.082-2.936-9.99-3-2.86-.097-7.016.146-7.734 0-.718-.147-1.453-2.591-1.511-3.257-.06-.666.137-1.842.634-2.252.331-.273.787-.584 1.366-.933Z"/>
    <path fill="#9D9CA6" d="M57.237 40.214c-.127 1.17.073 1.956.599 2.358.788.605.994.352 1.194.473.134.08.269.279.404.596-.012-.844-.393-1.45-1.143-1.816-1.124-.549-.04-1.02-.32-1.358-.186-.225-.431-.31-.734-.253Z"/>
    <path fill="#373232" d="M57.426 44.983c1.332-.345 2.262-.537 2.79-.575.79-.056 2.942.18 5.029.786 2.087.606 5.11 1.57 5.69 2.523.581.954-1.411 1.27-4.524.625-2.074-.43-5.07-1.55-8.985-3.359Z"/>
    <path fill="#D0D1D8" d="M13.797 60.165c2.122.437 6.924.2 9.463 1.646l.424.273c2.293 1.68 10.177 1.878 12.923 1.503l1.151-.182c5.075-.748 27.552-3.566 28.653-3.548 1.185.02 5.891 1.008 7.942 1.32 2.052.312 4.258-.255 5.85-.924 1.592-.67 3.83-.473 4.287 0 .116.12.233.379.266.709l-.017.228c-2.1 1.604-4.855 2.718-8.264 3.343l-5.497.565c-.598.023-1.209.033-1.833.033l-2.337-.007c-9.08-.053-15.037-.365-21.833.487-7.363.922-14.065 3.037-20.809 1.279-4.15-1.082-8.591-2.413-12.397-4.823-.212-.134-.374-.479-.486-1.034-.105-.777.098-1.613.61-2.508.228.88.864 1.426 1.904 1.64Z"/>
    <path fill="#B4B3BF" d="M67.989 61.67c-1.7-1.133-2.031-2.035-.991-2.707 1.56-1.007 2.563-1.464 4.439-2.765 1.875-1.302 3.242-6.11-.076-6.898-3.319-.788-9.661 6.887-7.935 10.557 1.15 2.447 2.671 3.051 4.563 1.812Z"/>
    <path fill="#4B4B4B" d="M59.008 27.868c.413 0 1.35.31 2.748 1.776a85.94 85.94 0 0 1 2.66 2.917l.075.013c.215.364.415.733.599 1.105.12.267.203.57.25.91a.998.998 0 0 1-.203.1c-.494.166-.91-.23-1.25-1.188a17.916 17.916 0 0 0-.75-1.308c-.335-.521-2.367-2.307-3.002-2.884a3.36 3.36 0 0 0-1.112-.683l-.308-.095c-.08-.442.017-.663.293-.663Z"/>
    <path fill="#EFEFEF" d="M62.597 36.751c3.872-.86 8.115-.721 11.013.237 2.593.857 5.359 2.976 6.541 3.998l.35.311c.35.327.756.663 1.216 1.009l.497.363.13.101-.161 1.163 1.47 3.147.206.425c.327.662.88 2.656.88 3.501 0 .564.055 1.204.164 1.92.289.204.434.459.434.766 0 .461-.042.694-.211.962l.005.19c-.457.718-.894 1.272-1.312 1.663-.896.84-4.607 2.456-6.968 2.456-2.36 0-3.24-1.324-3.24-2.456s2.252-3.869 2.684-4.653c.432-.784-.073-2.69-.986-3.455-.912-.765-4.733-3.12-6.7-3.827-1.21-.436-3.297-1.1-5.04-1.404l-2.8-.466c-1.821-.308-3.228-.719-3.634-2.235-.407-1.516 1.59-2.855 5.462-3.716Z"/>
    <path fill="#DDDDE2" d="m83.829 47.44.03.065c.327.662.88 2.656.88 3.501 0 .423.031.889.092 1.398l-.01.03c-.48 1.265-1.239 2.385-2.13 3.104-1.389 1.118-4.772 1.978-5.482 2.076-.71.098-1.968-.431-1.559-1.494.409-1.062 5.437-3.715 7.04-5.306.99-.983 1.166-2.355 1.139-3.374Z"/>
    <path fill="#DADAE0" d="M62.39 41.4c-.858-.237-2.083-.69-1.438-1.307.645-.617 3.063-1.804 5.176-2.176 2.113-.371 3.225-.038 4.027-.068.802-.03 2.922.12 2.487.384-.434.264-.604 1.464-.356 1.704.249.24.804.465 1.22.156.415-.309.039-1.083.801-1.028.763.055 2.484 1.374 2.046 1.506-.438.131-1.201.185-1.29.369-.087.183.05.71-.02 1-.07.29.739.617 1 .46.262-.157.692-.555.713-.88.015-.217-.036-.457-.15-.72-.038-.618.163-.819.603-.603.66.324 3.695 2.96 4.154 5.288.459 2.328-1.137 5.399-2.508 6.329-1.371.93-.566-1.038-.685-1.339-.12-.301-.661-2.44-2.127-3.406-1.465-.965-4.905-2.921-6.302-3.428-1.397-.506-6.494-2.003-7.351-2.24Z"/>
    <path fill="#CCCCD2" d="M75.062 43.11c2.935 2.164 4.103 4.733 3.207 6.476-.061.119-.171.193-.324.23-.29-.79-.864-2.063-1.902-2.747-1.465-.965-4.905-2.921-6.302-3.428l-.542-.186c-1.392-.46-4.08-1.262-5.669-1.726-.338-.42-.207-.806 1.253-.98 2.95-.352 7.343.197 10.279 2.36Z"/>
    <path fill="#A09EA8" d="M71.503 37.204c2.558.586 4.62 1.411 6.547 2.95l1.53 1.205.742.57c.822.622 1.484 1.097 1.946 1.393l-.085.611.167.356c-.817-.42-2.446-1.63-4.8-3.51-1.814-1.449-3.775-2.234-6.226-2.795-1.576-.362-5.789-.245-7.82.253l-.812.21-.764.221c-1.84.56-3.127 1.174-3.156 1.56-.009.125.582.362 1.835.635l2.93.563c.315.063.604.124.88.187 4.11.932 7.358 2.168 10.454 4.372 2.926 2.083 3.611 3.256 3.438 5.023l-.043.349-.048.255c-.093.378-.295.764-.772 1.505l-.813 1.231c-.614.936-.931 1.545-1.017 2.026-.077.43.173.67.824.785.62.11 1.493.052 2.251-.124 1.477-.343 3.641-1.513 4.482-2.493.51-.594 1.047-1.49 1.604-2.687.025.332.068.691.126 1.072.063.044.12.092.17.141-.44.838-.869 1.502-1.293 1.995-.962 1.122-3.277 2.372-4.908 2.75-.855.2-1.833.265-2.572.134-1.035-.184-1.641-.764-1.472-1.714.098-.546.379-1.13.898-1.955l1.033-1.574.292-.468c.246-.41.358-.662.405-.888l.032-.203c.216-1.59-.25-2.492-3.081-4.508-2.994-2.132-6.15-3.334-10.168-4.244l-1.005-.211-2.095-.394c-2.377-.456-3.227-.77-3.164-1.62.077-1.061 2.165-1.93 5.339-2.708 2.147-.526 6.485-.647 8.189-.256Z"/>
    <path fill="#BCBBC0" d="M84.777 51.855c.025.332.068.691.126 1.072.063.044.12.092.17.141-.44.838-.869 1.502-1.293 1.995-.962 1.122-3.277 2.372-4.908 2.75-.855.2-1.833.265-2.572.134-1.035-.184-1.641-.764-1.472-1.714.083-.46.295-.948.672-1.584l2.021-1.651-.888 1.35c-.614.936-.931 1.545-1.017 2.026-.077.43.173.67.824.785.62.11 1.493.052 2.251-.124 1.477-.343 3.641-1.513 4.482-2.493.51-.594 1.047-1.49 1.604-2.687Z"/>
    <path fill="#575757" d="M83.86 47.505c.281.57.73 2.13.85 3.09-.04.23-.096.476-.168.737l-.121.405-.317.158-.414-.158.202-.262.212-1v-.935l-.212-.065v-.795l-.126-1.366.093.19Z"/>
    <path fill="#EEEFF2" d="M53.305 39.228c-1.915-.21-2.324-.37-2.834-.37-.579 0 .376 1.977.376 1.977H52.673c.348 0 .893-1.579.632-1.607Z"/>
    <path fill="#F6F7F8" d="M47 42.702c.132 0 .697.148.348.596-.349.448-.594 2.923-1.46 3.97-.866 1.049-3.145 1.777-3.145 1.002 0-.774 1.339-3.957 1.603-4.392.265-.435 1.295-1.176 1.542-1.176h1.111Z"/>
    <path fill="#2C2B2B" d="m62.797 32.502.674.012c.272.008.588.022.94.043l1.648.317c.835.165 1.54.314 2.117.45 1.381.323 5.77 2.322 7.005 2.84l.434.177c.946.364 1.443.365 1.834-.713.447-1.232 1.8-2.014 2.303-2.014.335 0 .629.23.88.689.378.21.566.483.566.82 0 .505.181 1.756.367 2.395l.278.884c.172.571.34 1.26.34 1.98 0 1.154-.18 2.12-.18 2.12l.014.012c-.752.264-1.84-.958-2.843-1.758-1.062-.847-5.191-2.81-6.425-3.443-1.235-.633-5.036-1.803-7.495-2.492-2.46-.688-4.647.039-5.082.363l-.216.176c-.775.65-3.041 2.667-4.543 3.759l-.272.193c-1.66 1.15-2.13 1.674-2.275 2.291-.145.617.237 2.746.51 3.867.274 1.121-.666.573-.778.111l-.125-.534a8.827 8.827 0 0 1-.152-.818l-.014-.198c0-.33-.163-.458-.412-1.576-.25-1.117.092-1.806.703-2.419l2.76-2.723c.69-.696 2.956-2.525 4.27-3.63 1.313-1.105 2.35-1.181 3.17-1.181Z"/>
    <path fill="#636161" d="M79.752 33.614c.273 0 .518.153.736.457-.173.181-.412.348-.49.449-.197.248-.611 1.183-1.04 1.887-.428.704-1.116.477-1.565.48-.278 0-.634-.18-.892-.329.416-.002.703-.254.948-.93.447-1.232 1.8-2.014 2.303-2.014Z"/>
    <path fill="#D74E4E" d="m56.678 31.225.457.419-.182.222c-.213.254-.553.636-.672.636-.18 0-1.21 1.549-1.21 1.549l-.286.213-.568.731c-.262.343-.437.58-.524.712-.139.211-.265 1.22-.377 3.025l-.326.328s-.39.14-.172-1.108c.195-1.114.54-2.63 1.146-3.815.3-.04.525-.008.525-.008l2.19-2.904Z"/>
    <path fill="#F6F7F8" d="M59.358 37.443c.29-.3-.301-1.106-.849-1.535-.547-.429-2.587-1.283-3.566-1.527-.979-.244-1.058-.209-1.314 0-.601-.032-1.026.543-1.238.995-.212.451.727 2.669.982 3.69.256 1.02.578 1.971.843 2.184.265.213 1.175.404 1.337 0 .162-.404-.223-2.012-.61-2.91-.258-.598-.5-1.326-.727-2.184.984.156 1.795.41 2.434.76.957.527 1.37.772 1.615.772.244 0 .804.054 1.093-.245Z"/>
    <path fill="#D2D4D7" d="M53.85 34.949c.023.132.06.28.112.443l.254.764c.492.05 1.01.14 1.553.27.815.196 1.622.672 1.898.823.275.151.935.034.98-.34.046-.375-.413-.965-.772-1.272l-.31-.258.46.23c.208.112.376.214.484.3.548.428 1.138 1.235.85 1.534-.29.3-.85.245-1.094.245-.244 0-.658-.245-1.615-.771-.639-.352-1.45-.605-2.434-.76a17.2 17.2 0 0 0 .574 1.809l.153.374c.387.898.772 2.506.61 2.91-.162.404-1.072.213-1.337 0-.212-.17-.46-.813-.682-1.586l-.16-.599c-.168-.667-.627-1.846-.866-2.708.467 1.292.774 2.142.923 2.548.478 1.304.685 1.713 1.384 1.823.7.11.402-.879.297-1.328-.105-.449-.541-1.616-.896-2.856l-.218-.806c-.094-.378-.143-.641-.148-.79Z"/>
    <path fill="#64656D" d="M55.553 41.25c-.162.404-1.072.213-1.337 0a.84.84 0 0 1-.18-.238c.19.15.322.232.399.242.15.02.629.037.833-.085.163-.098.122-.227.126-.411l.015-.15c.025-.13.019-.422.024-.712l.1.493c.065.39.08.71.02.86Zm3.805-3.807c-.289.3-.849.245-1.093.245-.11 0-.254-.05-.466-.152l.764.005.091-.005c.187-.018.428-.294.462-.562.017-.137-.063-.379-.24-.725.402.425.706.962.482 1.194Z"/>
    <path fill="#F6F7F8" d="M52.752 45.637c-.234-1.052-.449-1.755-.645-2.109-.295-.53-1.381-2.679-1.381-2.87 0-.127-.147-.575-.441-1.342-.676.504-1.072.951-1.186 1.342-.17.586.226 1.821.46 2.337.234.516.992 1.591.726 2.642-.266 1.05-.303.788-2.285.493-1.982-.295-3.826-2.008-4.023-2.008-.197 0-1.046.042-1.46.589-.413.546.976 1.517 1.46 1.85.484.335 4.615 1.63 6.102 2.158.991.351 1.882-.676 2.673-3.082Z"/>
    <path fill="#8B898E" d="M23.099 54.619c-.318.79-.348 1.393-.09 1.807.386.622 2.18.94 3.267 1.19 1.086.248 5.835 1.16 7.068 1.638 1.234.478 2.072 1.341 2.052 2.283-.021.942 1.036.482 1.2 0 .163-.482.795-2.528-.315-3.76-1.11-1.232-.086-1.26-3.61-2.182-2.35-.614-5.54-.94-9.572-.976Z"/>
    <path fill="#201C1E" d="M71.21 64.04c-1.626-.61-4.658-3.08-5.055-3.84-.398-.76-.26-2.147.464-2.757.724-.61 5.538-3.749 6.065-4.618.527-.869 1.256-3.218-2.017-5.108-3.272-1.89-9.105-2.884-12.924-3.084-3.819-.2-9.135-.2-13.376.568-4.24.768-13.972 4.428-15.175 4.91-1.203.48-5.458 2.71-6.142 4.166-.684 1.455.49 1.984 2.629 2.415 2.14.43 5.794 1.226 7.502 1.792 1.708.565 2.484 1.48 2.238 2.517-.165.692-1.628 2.278-4.39 4.76l-.553.638c4.475 1.212 8.564 1.077 12.267-.408 5.553-2.226 9.253-3.869 10.576-3.198 1.323.67 2.807 1.955 5.794 1.955 2.987 0 13.723-.096 12.097-.707Z"/>
    <path fill="#302E2F" d="M44.367 45.201c4.241-.768 9.557-.768 13.376-.568a43.38 43.38 0 0 1 6.528.879 7.013 7.013 0 0 1-1.17.16l-.378.02c-7.561.308-12.808 1.238-17.574 2.09l-1.35.24c-5.136.91-15.271 4.44-10.903 6.83l.638.344c4.131 2.197 7.866 3.682 4.715 6.15-1.81 1.418-4.168 2.846-7.072 4.284l.842-.77c2.123-1.97 3.256-3.255 3.4-3.859.246-1.037-.53-1.952-2.238-2.517-1.314-.435-3.78-1.007-5.821-1.443l-1.681-.35c-2.14-.43-3.313-.959-2.629-2.414.648-1.379 4.501-3.453 5.928-4.076l.512-.207c2.031-.786 10.886-4.07 14.877-4.793Z"/>
    <path fill="#F4F3F6" d="M44.367 45.201c4.241-.768 9.557-.768 13.376-.568 3.819.2 9.652 1.195 12.924 3.084 3.273 1.89 2.544 4.24 2.017 5.108-.527.87-5.341 4.007-6.065 4.618-.723.61-.862 1.997-.464 2.757.375.718 3.1 2.96 4.771 3.722l.284.119c.134.05.184.097.161.14-.739-.075-2.085-.42-4.038-1.035-1.564-1.953-2.394-3.232-2.493-3.837-.147-.907-.047-2.256 1.823-3.44l2.62-1.625c1.354-.853 2.56-1.677 2.65-2.064l.066-.285c.172-.818.309-2.463-2.328-3.587-2.996-1.278-8.29-2.47-12.872-2.66l-2.277-.097c-3.542-.132-6.833-.07-13.224 1.479-7.724 1.872-12.437 3.886-14.868 5.392l-1.045.658c-1.76 1.139-2.585 1.9-1.156 2.247l.783.176c2.142.459 6.273 1.22 7.652 1.625 1.577.463 4 1.86 3.934 3.117-.06 1.167-1.28 2.897-2.022 3.739l-.162.177a145.7 145.7 0 0 1-2.539 2.569l-.697-.152-.702-.18.553-.637c2.762-2.482 4.225-4.068 4.39-4.76.246-1.037-.53-1.952-2.238-2.517-1.314-.435-3.78-1.007-5.821-1.443l-1.681-.35c-2.14-.43-3.313-.959-2.629-2.414.648-1.379 4.501-3.453 5.928-4.076l.512-.207c2.031-.786 10.886-4.07 14.877-4.793Z"/>
    <path fill="#F1F1F3" d="M55.762 63.426c.944-.482 1.84-1.15 2.686-2.001 1.269-1.278 4.585-4.542 5.36-6.28.774-1.739 1.091-4.647-3.028-5.778-4.119-1.13-10.11-1.678-15.679-1.13-5.569.549-10.535 1.752-12.454 2.419-1.919.667-3.461 1.352-3.461 2.41s1.539 1.614 2.949 1.846c1.41.233 8.58 1.101 10.307 1.57 1.727.469 4.022 1.516 3.843 2.71-.18 1.194-3.01 3.45-4.275 4.117-1.265.666-5.376 2.448-6.262 2.647-.422.095 2.803.747 9.647-.363 1.832-.298 5.288-1.02 10.367-2.167Z"/>
    <path fill="#DADAE0" d="M35.877 54.141c-1.15-.39-1.295-.954-.437-1.688 1.287-1.102 6.72-2.586 11.578-2.864 4.858-.279 10.655-.082 12.957.645 2.301.726 3.67 3.03 3.159 3.61-.513.58-4.694 6.716-7.237 8.497-2.543 1.781-11.469 1.398-10.787.288.682-1.11 2.142-2.906 1.624-4.104-.517-1.197-1.693-1.91-4.292-2.732-1.733-.548-3.921-1.099-6.565-1.652Z"/>
    <path fill="#C9C9D2" d="M59.975 50.234c2.301.726 3.67 3.03 3.159 3.61l-.157.196c-.925 1.209-4.713 6.643-7.08 8.301-2.348 1.645-10.141 1.444-10.782.529l.613-.307 1.326-.768c5.352-3.15 8.527-5.682 9.525-7.595.93-1.784.319-3.336-1.834-4.655 2.22.113 4.126.34 5.23.689Z"/>
    <path fill="#A09EA8" fill-rule="nonzero" d="M41.734 49.385c5.043-.757 7.537-.831 12.373-.384l1.172.12c4.92.552 7.768 1.562 8.094 3.298.246 1.31-.339 2.364-2.265 4.574l-1.372 1.547c-1.174 1.346-2.935 3.108-5.285 5.29a.4.4 0 1 1-.544-.586l1.116-1.047c1.601-1.518 2.871-2.8 3.81-3.844l1.682-1.898c1.716-1.975 2.252-2.925 2.071-3.888-.247-1.316-3.346-2.289-8.553-2.77-4.473-.413-6.888-.375-11.275.247l-.906.132c-4.427.664-8.816 1.729-10.228 2.363-.911.41-.83.668.707.801l1.718.163c3.936.4 8.502 1.05 10.225 1.62 2.664.882 4.085 2.534 3.656 4.519a11.93 11.93 0 0 1-1.39 3.539.4.4 0 0 1-.69-.405 11.131 11.131 0 0 0 1.298-3.303c.326-1.508-.804-2.822-3.125-3.59-1.897-.627-7.613-1.386-11.761-1.746-2.284-.198-2.712-1.544-.966-2.328 1.494-.67 5.944-1.75 10.438-2.424Z"/>
    <path fill="#5A5A5A" fill-rule="nonzero" d="M77.753 55.04c.307.007.583.203.59.58.005.378-.338.582-.58.582-.242 0-.562-.131-.591-.52a.582.582 0 0 1 .581-.641Zm.01.162a.411.411 0 0 0-.42.435c.003.213.211.4.39.404.25.005.453-.202.436-.432-.018-.25-.24-.407-.406-.407Zm2.414-1.6c.307.007.582.203.589.58.006.377-.338.581-.58.581-.241 0-.562-.13-.59-.519a.582.582 0 0 1 .58-.642Zm.01.161a.411.411 0 0 0-.421.436c.003.212.212.4.39.403.251.005.454-.201.437-.431-.019-.25-.24-.408-.406-.408Zm2.052-1.428c.307.007.582.202.588.58.007.377-.337.58-.579.58-.241 0-.562-.13-.59-.518a.582.582 0 0 1 .58-.642Zm.01.16a.411.411 0 0 0-.422.437c.004.212.212.4.39.403.252.005.454-.201.437-.432-.018-.25-.24-.407-.405-.407Zm-2.011-2.6c.307.006.582.202.589.58.006.377-.338.58-.58.58-.241 0-.562-.13-.59-.519a.582.582 0 0 1 .581-.641Zm.01.16a.411.411 0 0 0-.421.436c.003.213.212.4.39.404.251.005.454-.202.437-.432-.018-.25-.24-.407-.406-.408Zm2.44-2.096c.306.007.582.203.588.58.006.377-.337.581-.58.581-.24 0-.562-.13-.59-.519a.582.582 0 0 1 .581-.642Zm.01.161a.411.411 0 0 0-.422.436c.004.212.212.4.39.403.251.006.454-.201.437-.431-.018-.25-.24-.408-.406-.408Zm-4.26-1.302c.307.006.583.202.589.58.006.377-.338.58-.58.58-.24 0-.562-.13-.59-.519a.582.582 0 0 1 .581-.641Zm.01.16a.411.411 0 0 0-.42.436c.003.213.211.4.389.404.251.005.454-.202.437-.432-.018-.25-.24-.407-.406-.408Zm2.184-1.909c.307.007.582.203.588.58.007.377-.337.581-.579.581-.241 0-.562-.13-.59-.519a.582.582 0 0 1 .58-.642Zm.01.161a.411.411 0 0 0-.421.436c.003.212.212.4.39.403.25.006.454-.201.437-.431-.019-.25-.24-.408-.406-.408Zm-5.015-.852c.307.007.582.203.588.58.007.377-.337.581-.579.58-.241 0-.562-.13-.59-.518a.582.582 0 0 1 .58-.642Zm.01.16a.411.411 0 0 0-.421.437c.003.212.211.4.39.403.25.005.453-.201.437-.431-.019-.25-.24-.408-.406-.408Zm2.569-1.506c.307.006.582.202.589.58.006.377-.338.58-.58.58-.241 0-.562-.13-.59-.518a.582.582 0 0 1 .58-.642Zm.01.16a.411.411 0 0 0-.421.436c.003.213.212.4.39.404.25.005.454-.202.437-.432-.019-.25-.24-.407-.406-.407Zm-5.325-.662c.307.006.582.202.588.58.007.377-.337.58-.579.58-.241 0-.562-.13-.59-.518a.582.582 0 0 1 .58-.642Zm.01.16a.411.411 0 0 0-.421.436c.003.213.212.4.39.404.25.005.454-.201.437-.432-.019-.25-.24-.407-.406-.407Zm2.746-1.75c.307.006.583.202.589.58.006.377-.338.58-.58.58-.24 0-.562-.13-.59-.519a.582.582 0 0 1 .581-.641Zm-5.909-.12c.307.007.583.202.589.58.006.377-.337.58-.58.58-.24 0-.562-.13-.59-.518a.582.582 0 0 1 .581-.642Zm5.92.28a.411.411 0 0 0-.422.436c.004.213.212.4.39.404.251.005.454-.202.437-.432-.018-.25-.24-.408-.406-.408Zm-5.91-.12a.411.411 0 0 0-.42.437c.003.212.211.4.389.403.251.005.454-.201.437-.432-.018-.25-.24-.407-.406-.407Zm-6.028-1.043c.307.007.583.202.589.58.006.377-.338.58-.58.58-.24 0-.562-.13-.59-.518a.582.582 0 0 1 .581-.642Zm.01.16a.411.411 0 0 0-.42.437c.003.212.211.4.389.403.251.005.454-.201.437-.432-.018-.25-.24-.407-.406-.407Zm3.11-.928c.306.006.582.202.588.58.007.377-.337.58-.579.58-.242 0-.562-.13-.59-.519a.582.582 0 0 1 .58-.641Zm.01.16a.411.411 0 0 0-.422.436c.004.213.212.4.39.403.252.006.454-.2.437-.431-.018-.25-.24-.408-.405-.408Zm6.02-.438c.306.006.582.202.588.58.007.377-.337.58-.579.58-.242 0-.562-.13-.59-.519a.582.582 0 0 1 .58-.641Zm.01.16a.411.411 0 0 0-.422.436c.004.213.212.4.39.403.252.006.454-.2.437-.431-.018-.25-.24-.408-.405-.408Z"/>
    <path fill="#D6D7DE" d="M11.256 59.857c-.14.71.263 1.248 1.207 1.61 1.416.545 3.16.736 6.123.794 2.964.058 6.453 1.949 6.964 2.56.51.61 3.22 2.729 3.636 3.229.415.5 2.059 2.041 1.848 2.242-.211.2-4.957.02-6.624-.314-1.667-.335-3.523-.54-3.883-.747-.36-.206-.38-.674-.82-.67-.44.002-.791.272-1.375.143-.584-.128-4.735-1.164-6.41-2.059-1.677-.895-1.844-1.304-1.887-1.746-.043-.441-.054-3.814.193-4.34.164-.35.507-.584 1.028-.702Z"/>
    <path fill="#EEEFF0" d="M11.256 59.857c-.14.71.263 1.248 1.207 1.61 1.416.545 3.16.736 6.123.794 2.835.056 6.15 1.788 6.88 2.473l.084.087c.476.57 2.869 2.453 3.523 3.108l.468.51.156.163c.415.737.527 1.247.41 1.182l-.14-.091a27.176 27.176 0 0 1-1.18-.931l-1.846-1.67c-.953-.853-1.63-1.437-2.03-1.753-.935-.736-3.251-1.637-4.711-1.988-1.46-.35-3.464-.311-5.653-.455-2.188-.143-3.88-1.058-3.979-1.57-.041-.214-.014-.623.08-1.226.164-.109.367-.188.608-.243Z"/>
    <path fill="#E2E2E8" d="M85.74 66.023 86 64c-.182-1.501-.403-2.503-.663-3.006-.39-.755-1.328-1.424-2.634-1.01-1.306.414-2.88 1.425-3.767 1.79-.888.367-4.5.926-6.391.857-1.891-.069-13.975.68-14.78.763-.803.084-1.092-.577-1.743-1.273-.65-.696-2.914-2.24-6.499-1.454-3.585.786-6.525 2.363-8.567 3.158-2.041.796-6.565 1.765-7.879 1.704-1.313-.06-5.034-1.06-5.795-.964-.762.096-1.278.384-1.33.615-.05.23.44.796 1.33 1.473.89.678 2.075 1.799 2.364 2.137.29.338.8.99.979 1.198.18.208.817.553 1.276.264.459-.29 1.034-.293 1.313.09.279.385.623.428 1.112.463.49.035 7.209.342 7.612.345.404.003.933-.034.978-.16.046-.127-.216-.723 0-.647.217.075.722.5.962.29.241-.209.39-.477.689-.29.3.187 1.22.729 1.908.29.688-.438 2.955-2.75 4.891-4.05 1.936-1.299 7.955-2.586 11.445-2.583 3.49.003 10.306.692 13.598 1.529 3.293.837 6.526 1.108 7.425 1.063.6-.03 1.235-.22 1.906-.57Z"/>
    <path fill="#FFF" d="M82.703 59.984c.531-.168 1.002-.157 1.4-.034-.62-.12-1.012-.086-1.183.105-.314.35-1.56 1.222-2.68 1.72-.555.248-1.572.379-2.735.362l.598-.124a5.77 5.77 0 0 0 .833-.238c.887-.366 2.461-1.377 3.767-1.79Z"/>
    <path fill="#F2F0F3" d="M49.523 60.667c3.585-.785 5.848.758 6.5 1.454.483.517.767 1.015 1.21 1.202l-.033.074c-.104.262-.818.889-1.834 1.68-1.72.44-3.204.973-4 1.506-1.936 1.3-4.203 3.612-4.89 4.05-.689.439-1.61-.103-1.91-.29.467.04.963.065 1.489.074.789.013.654-.141 1.46-1.13.767-.94 4.928-4.105 6.127-4.786l.157-.083c.932-.442 1.997-1.436 2.015-1.767.018-.331-.999-1.068-2.739-1.428-1.74-.36-4.786.368-5.621.542l-.471.11c-.918.234-2.453.71-3.875 1.39l-.423.209c-1.81.933-8.444 2.818-11.633 2.302l-.799-.136c-2.437-.433-2.69-.678-3.315-.586-.458.068-.683.218-.675.45a1.013 1.013 0 0 1-.182.015c-.102-.147-.145-.262-.128-.34.05-.23.567-.518 1.329-.614.761-.097 4.482.903 5.795.964 1.314.06 5.838-.908 7.88-1.704 2.041-.795 4.981-2.372 8.566-3.158Z"/>
    <path fill="#191919" d="M10 64.817c.039.55.177 1.022.415 1.415.357.59 2.2 1.614 4.29 2.319 2.09.704 4.126 1.196 4.217 1.174.09-.022.25-.393.378-.487.127-.093.31.037.317.11.006.073-.04.447 0 .511.04.065 2.329.54 4.062.877C25.413 71.074 31.325 72 36.004 72h10.061c3.07 0 4.238-.937 5.373-1.531 1.134-.594 3.65-.926 4.537-.9.886.024 3.5.256 4.106.616C60.687 70.545 61.353 72 64 72c2.647 0 14.077-.048 16.61-.663 2.532-.615 4.947-2.25 5.085-2.523.092-.182.194-.453.305-.814.004-1.199-.093-1.88-.289-2.044-.294-.245-3.677 0-7.594-1.338-3.916-1.338-8.435-2.882-10.63-3.288-2.196-.406-2.445-.74-5.12-.725-2.675.015-5.374 2.1-5.678 2.2-.304.1-.845.595-1.118.752-.272.156-3.63 2.238-5.492 3.767s-2.549 2.385-2.846 2.702c-.298.317-.677.716-1.335.71-.659-.005-1.227-.285-1.41-.36-.183-.075-.435.518-.784.36-.348-.157-.65-.45-.703-.36-.052.089.089.573-.085.614-.173.04-2.755.082-4.597 0-1.842-.083-3.595-.138-3.993-.185-.398-.047-.665-.06-.882-.208-.218-.147-.384-.515-.914-.51-.53.006-1.164.384-1.614.382-.45-.003-2.835-.14-3.5-.192-.664-.052-6.101-.797-6.531-.929-.43-.132-.793-.718-1.045-.797-.25-.08-.948.2-1.2.17s-3.183-.677-5.337-1.504c-2.154-.828-2.698-1.425-2.888-1.59-.127-.11-.265-.38-.415-.81Z"/>
    <path fill="#3D3D3D" d="M53.363 66.022c2.65-2.11 3.646-2.532 6.229-3.431 2.582-.9 6.93-.106 8.664.455s4.601 1.285 2.544 2.835c-2.058 1.55-4.288 3.843-6.017 3.909-1.73.065-3.628-1.719-5-2.143-1.372-.424-3.164-.532-4.96 0-1.795.532-4.12 2.152-3.823 1.409.297-.744-.287-.924 2.363-3.034Z"/>
    <path fill="#302E2E" d="m52.456 67.731.237-.123c1.545-.856 4.27-1.957 6.741-1.376 2.472.582 3.751 1.135 5.349 1.234 1.597.099 4.148-1.545 4.77-2.028.449-.347.632-1.164-.432-2.07l-.099-.079.8.273c1.375.508 2.468 1.197.978 2.32-2.058 1.55-4.288 3.842-6.017 3.908-1.73.065-3.628-1.719-5-2.143-1.372-.424-3.164-.532-4.96 0-1.717.509-3.918 2.014-3.847 1.493l.024-.084c.16-.403.063-.64.36-1.109l.071-.105c.157.184.499.147 1.025-.11Z"/>
    <path fill="#868686" d="M62.367 60.605c2.496-.014 2.88.276 4.705.644l.414.08c1.064.197 2.673.661 4.495 1.24l-2.246-.45c-3.07-.595-7.154-1.289-8.617-.904-.718.189-1.451.397-2.199.625l-1.334.424.548-.32c1.097-.613 2.67-1.33 4.234-1.339Z"/>
    <path fill="#424241" d="M57.963 67.694c1.434.23 3.26.892 3.497 1.213l.17.23c.154.22.236.405.021.543-.286.185-.82.751-1.21.785l-.024-.001a1.95 1.95 0 0 0-.336-.279c-.56-.332-2.83-.555-3.873-.607l-.233-.01c-.545-.015-1.707.104-2.785.337a.48.48 0 0 0-.183-.175l-.125-.05c-.332-.089-.262-.506.497-1.027.758-.522 3.15-1.19 4.584-.96Z"/>
    <path fill="gray" d="M57.963 67.694c1.434.23 3.26.892 3.497 1.213l.17.23c.035.05.066.1.091.146-.447.051-2.373-.945-4.457-.996-2.406-.06-3.368.667-4.117.76l-.147.009a.576.576 0 0 1-.093-.007c.113-.122.267-.256.472-.396.758-.522 3.15-1.19 4.584-.96Z"/>
    <path fill="#EBEBEB" d="M65.993 70.091c-.268.07-.383-.052-.342-.368.06-.475 1.56-2.216 2.493-2.787.933-.57 2.998-1.305 5.899-.205 2.9 1.099 5.788 2.612 6.016 2.847.227.235.218.905-.261.887-.479-.018-4.57.274-5.108.258-.538-.015-1.408-.483-1.546-.47-.137.014-.376.459-.78.47-.404.012-4.141.013-4.533-.119-.393-.132-1.065-.739-1.338-.775-.182-.023-.348.064-.5.262Z"/>
    <path fill="#D0D2D7" d="M72.481 70.66c.234-.025.449-.514.69-.483.241.032.943.37 1.311.449.368.078 4.842-.223 5.112-.28.27-.057.351-.38.2-.532-.15-.152-4.457-2.128-5.35-2.506-.893-.377-2.475-1.161-4.07-.853-1.595.307-2.399.75-3.109 1.412-.71.662-1.396 1.532-1.478 1.863-.081.33.086.327.206.361.12.035.274-.4.66-.277.385.123.987.634 1.246.76.26.124 4.348.11 4.582.086Z"/>
    <path fill="#8D2626" d="M63.85 62.593c.04-.013.427-.16.363-.487-.064-.327-.243-.349-.425-.324-.182.026-.407.329-.328.56.08.232.048.649.04.828-.008.18-.125.505-.15.513a.646.646 0 0 1-.306-.103c-.094-.07-.425-.098-.435 0-.01.098.093.308 0 .442-.093.133-.338.253-.383.415-.044.16-.323.566-.445.652-.121.087-.344.193-.322.331.021.138.102.125.2.084.097-.042.273-.037.288-.131.01-.063.163-.268.457-.617.145.061.209.16.189.296-.03.204-.143.455-.646.853-.502.398-.548.364-.764.534-.216.17-.51.475-.6.533-.092.06-.672.117-.603.319.07.201.624.204.682.14.058-.064.059-.15.242-.27.183-.118 1.569-.8 1.87-.999.302-.2.375-.154.856.14.482.294.62.24.905.425.285.185.72.473.808.564.088.09.153.307.216.276.063-.03.84-.213.851-.276.01-.064-.032-.215-.311-.21a.752.752 0 0 1-.54-.203c-.115-.094-.778-.663-1.024-.83-.247-.166-.835-.482-.938-.775-.102-.293.014-.802 0-.948-.014-.146-.07-.346 0-.567a9.24 9.24 0 0 0 .191-.672c.025-.126.022-.48.062-.493Z"/>
    <path fill="#5E1D1D" fill-rule="nonzero" d="M66.105 67.516c.327-.094.389-.117.404-.21.023-.144-.08-.277-.28-.315l-.132-.01c-.202.003-.308-.046-.475-.18l-.55-.46-.395-.314-.086-.061c-.04-.027-.33-.209-.423-.27-.205-.139-.347-.257-.426-.365a.36.36 0 0 1-.05-.091 1.01 1.01 0 0 1-.037-.351l.044-.546-.019-.153c-.025-.177-.026-.282.012-.402l.173-.591.03-.144.02-.292c-.001-.043-.009-.081-.034-.073.259-.086.492-.284.43-.602-.066-.338-.249-.442-.536-.403-.261.036-.504.416-.41.692.028.08.043.199.047.346v.155l-.012.29-.038.2c-.028.115-.058.227-.042.222l-.16-.057-.056-.03c-.155-.118-.574-.133-.594.069l.006.101.03.172c.005.057-.001.096-.02.122l-.03.036-.128.114a.808.808 0 0 0-.209.222l-.029.073c-.038.137-.302.523-.407.598l-.12.08c-.181.118-.265.208-.243.348.016.1.063.17.146.19.04.01.077.008.121-.004l.119-.04.047-.012c.169-.037.234-.067.253-.18.006-.035.161-.246.434-.57-.01.072.027.13.014.218-.033.23-.19.456-.609.789l-.247.19a3.016 3.016 0 0 1-.097.068l-.34.215-.171.136-.431.395-.07.057-.272.075c-.288.081-.435.174-.371.36.084.247.718.32.85.175l.047-.066a.463.463 0 0 1 .1-.132l.159-.105 1.609-.843.178-.106c.105-.07.167-.098.221-.104.076-.008.145.017.372.151l.156.095c.178.108.28.16.435.22l.254.094c.077.03.141.062.213.109l.648.436c.072.052.121.091.143.114l.03.037.113.19c.038.053.08.087.133.084l.558-.156Zm-2.303-5.635c.19-.026.269.02.313.244.035.18-.125.316-.297.373-.061.021-.079.012-.091.12l-.037.448-.094.352c-.03.1-.062.21-.094.31a.83.83 0 0 0-.039.307l.035.342-.021.222a3.902 3.902 0 0 0-.021.283c-.006.171.007.31.047.424a.556.556 0 0 0 .078.143c.072.099.178.197.32.303l.578.38.187.139.83.685c.15.121.27.19.43.214l.174.01c.168-.002.219.05.211.095.003-.017-.023-.017-.06-.01l-.681.195-.057-.098a.646.646 0 0 0-.099-.141c-.082-.084-.391-.296-.825-.578l-.123-.071-.207-.087a2.554 2.554 0 0 1-.43-.182l-.426-.252c-.184-.101-.262-.12-.374-.108a.515.515 0 0 0-.193.065l-.289.173-1.698.897a.606.606 0 0 0-.172.15l-.066.102-.023.034c-.035.038-.481-.013-.501-.12l.062-.033.167-.056.265-.076.055-.022.159-.134.264-.246c.072-.066.133-.118.186-.16l.166-.115.241-.151a3.8 3.8 0 0 0 .214-.155l.143-.113c.457-.361.642-.63.683-.917.026-.183-.064-.324-.25-.403-.43.402-.579.603-.593.694l-.176.036-.118.04c.007.001.007.002.003-.028-.003-.02.021-.053.082-.1l.2-.134c.113-.082.322-.37.427-.574l.056-.134c.009-.033.033-.067.081-.113l.18-.157a.657.657 0 0 0 .107-.114.368.368 0 0 0 .054-.254l-.037-.235c-.002.022.222.03.275.07.102.077.326.142.398.119.075-.025.17-.29.206-.493l.019-.222c.006-.136.009-.242.006-.348a1.4 1.4 0 0 0-.057-.406c-.054-.155.11-.41.247-.429Z"/>
    <path fill="#9A9A9A" d="M43.456 70.747c-.375-.152-.58-.432-.612-.839-.05-.61-.027-1.767-.408-2.34-.382-.574-1.248-1.498-2.706-1.372-1.459.125-2.204.859-2.947 1.371-.744.513-2.05 1.859-2.28 2.09-.179.178-.73.536-1.21.67-.051-.041-.484-.34-.717-.338-.399.004-.76.16-1.177.282-.177.051-1.244-1.309-2.358-2.488-.338-.358-3.175-2.65-3.008-2.329.406.407 1.482 1.309 2.57 2.363.897.869 1.543 1.599 1.832 2.088.06.103.46.243.307.373-.153.131-1.036.124-1.037.124.019.093 1.237.162 1.706.08.19-.033.653-.305 1.007-.285.519.03.937.365 1.013.356.288-.038.604-.152.708-.222.197-.132 1.54-1.536 2.119-2.106.579-.57 1.719-1.423 2.885-1.725 1.167-.3 2.13.06 2.81.717.679.656.695 1.728.692 2.008-.003.28.044.94.066 1.227.014.191.114.424.299.699l.446-.404Z" opacity=".5"/>
    <path fill="#5A5A5A" fill-rule="nonzero" d="M53.407 57.614c.307.007.582.202.589.58.006.377-.338.58-.58.58-.241 0-.562-.13-.59-.518a.582.582 0 0 1 .58-.642Zm.01.16a.411.411 0 0 0-.421.436c.003.213.212.4.39.404.25.005.454-.201.437-.432-.019-.25-.24-.407-.406-.407Zm-3.55-.598c.308.006.583.202.59.58.006.377-.338.58-.58.58-.241 0-.562-.13-.59-.518a.582.582 0 0 1 .58-.642Zm.011.16a.411.411 0 0 0-.421.436c.003.213.212.4.39.404.251.005.454-.201.437-.432-.019-.25-.24-.407-.406-.407Zm5.506-1.796c.306.007.582.202.588.58.007.377-.337.58-.579.58-.242 0-.562-.13-.59-.518a.582.582 0 0 1 .58-.642Zm3.396-.053c.307.007.583.203.589.58.006.377-.338.581-.58.581-.24 0-.562-.13-.59-.519a.582.582 0 0 1 .581-.642Zm-3.386.214a.411.411 0 0 0-.422.435c.004.213.212.4.39.404.252.005.454-.201.437-.432-.018-.25-.24-.407-.405-.407Zm3.396-.053a.411.411 0 0 0-.421.436c.004.212.212.4.39.403.251.006.454-.201.437-.431-.018-.25-.24-.408-.406-.408Zm-6.793-.376c.307.007.583.203.589.58.006.377-.337.581-.58.58-.24 0-.562-.13-.59-.518a.582.582 0 0 1 .581-.642Zm.01.16a.411.411 0 0 0-.42.437c.003.212.211.4.389.403.251.005.454-.201.437-.431-.018-.25-.24-.408-.406-.408Zm-3.62-.474c.307.006.583.202.589.58.006.377-.338.58-.58.58-.24 0-.562-.13-.59-.519a.582.582 0 0 1 .581-.641Zm.01.16a.411.411 0 0 0-.42.436c.003.213.211.4.389.404.251.005.454-.202.437-.432-.018-.25-.24-.408-.406-.408Zm12.49-1.712c.306.007.582.203.588.58.007.377-.337.581-.579.58-.242 0-.562-.13-.59-.518a.582.582 0 0 1 .58-.642Zm.01.16a.411.411 0 0 0-.422.437c.004.212.212.4.39.403.252.005.454-.201.437-.431-.018-.25-.24-.408-.405-.408Zm-3.635-.47c.306.006.582.201.588.579.007.377-.337.58-.579.58-.242 0-.562-.13-.59-.518a.582.582 0 0 1 .58-.642Zm-3.056-.048c.307.007.583.202.59.58.005.377-.338.58-.58.58-.242 0-.562-.13-.591-.518a.582.582 0 0 1 .581-.642Zm3.066.208a.411.411 0 0 0-.422.436c.004.212.212.4.39.403.252.005.454-.201.437-.432-.018-.25-.24-.407-.405-.407Zm-3.056-.047a.411.411 0 0 0-.42.435c.003.213.211.4.39.404.25.005.453-.201.436-.432-.018-.25-.24-.407-.406-.407Zm-3.496-.396c.307.007.583.202.589.58.006.377-.337.58-.58.58-.24 0-.562-.13-.59-.518a.582.582 0 0 1 .581-.642Zm.01.16a.411.411 0 0 0-.42.437c.003.212.211.4.389.403.251.005.454-.201.437-.432-.018-.25-.24-.407-.406-.407Zm-6.934-.442c.307.007.583.202.59.58.006.377-.338.58-.58.58-.242 0-.562-.13-.591-.518a.582.582 0 0 1 .581-.642Zm3.539-.106c.307.006.582.202.588.58.007.377-.337.58-.579.58-.241 0-.562-.13-.59-.519a.582.582 0 0 1 .58-.641Zm-3.528.267a.411.411 0 0 0-.422.436c.004.212.212.4.39.403.252.005.454-.201.437-.432-.018-.25-.24-.407-.405-.407Zm3.538-.107a.411.411 0 0 0-.421.436c.003.213.212.4.39.403.25.006.454-.2.437-.431-.019-.25-.24-.408-.406-.408Zm-6.99-.322c.308.007.583.203.59.58.006.377-.338.581-.58.581-.241 0-.562-.13-.59-.519a.582.582 0 0 1 .58-.642Zm.01.161a.411.411 0 0 0-.42.436c.003.212.212.4.39.403.25.006.453-.201.437-.431-.019-.25-.24-.408-.406-.408Zm-3.119-.551c.307.006.583.202.59.58.005.377-.338.58-.58.58-.242 0-.563-.13-.591-.519a.582.582 0 0 1 .581-.641Zm.01.16a.411.411 0 0 0-.42.436c.003.213.211.4.39.404.25.005.453-.202.436-.432-.018-.25-.24-.408-.406-.408Zm-3.158-.38c.307.006.582.202.589.579.006.377-.338.581-.58.58-.241 0-.562-.13-.59-.518a.582.582 0 0 1 .58-.642Zm.01.16a.411.411 0 0 0-.421.436c.003.212.212.4.39.403.251.005.454-.201.437-.431-.019-.25-.24-.408-.406-.408Zm18.81-1.252c.307.007.583.202.59.58.006.377-.338.58-.58.58-.242 0-.562-.13-.59-.518a.582.582 0 0 1 .58-.642Zm-3.409-.122c.307.007.583.203.589.58.006.377-.337.581-.58.581-.24 0-.562-.13-.59-.519a.582.582 0 0 1 .581-.642Zm6.627-.033c.307.007.583.203.589.58.006.377-.338.581-.58.581-.24 0-.562-.13-.59-.519a.582.582 0 0 1 .581-.642Zm-3.207.316a.411.411 0 0 0-.422.436c.004.212.212.4.39.403.252.005.454-.201.437-.432-.018-.25-.24-.407-.405-.407Zm-10.197-.362c.307.006.583.202.59.58.006.377-.338.58-.58.58-.242 0-.562-.13-.59-.518a.582.582 0 0 1 .58-.642Zm6.787.24a.411.411 0 0 0-.42.436c.003.212.211.4.389.403.251.006.454-.201.437-.431-.018-.25-.24-.408-.406-.408Zm6.627-.033a.411.411 0 0 0-.42.436c.003.212.211.4.389.403.251.005.454-.201.437-.431-.018-.25-.24-.408-.406-.408Zm-9.91-.333c.306.006.582.202.588.58.006.377-.338.58-.58.58-.24 0-.562-.13-.59-.519a.582.582 0 0 1 .581-.641Zm-3.493.287a.411.411 0 0 0-.422.435c.004.213.212.4.39.404.252.005.454-.202.437-.432-.018-.25-.24-.407-.405-.407Zm3.502-.127a.411.411 0 0 0-.42.436c.003.213.211.4.389.403.251.006.454-.2.437-.431-.018-.25-.24-.408-.406-.408Z"/>
    <path fill="#4E4C4C" d="M60.982 34.065c.202-.514 1.859-1.102 2.741-.995.882.107 1.61.266 2.263.322.652.056 1.615.045 2.232.232.618.188 2.651.677 4.135 1.48 1.483.804 3.03 1.538 3.82 1.804.789.267 2.37.43 2.711.053.34-.377 1.626-2.17 1.627-2.272.001-.102.056-.385.082-.286.026.1.186.353 0 .853s-1.196 2.79-2.222 2.949c-1.026.159-.082.561-.36.544-.28-.017-1.274-.73-2.262-1.205-.987-.475-2.333-1.13-3.463-1.364-1.13-.233-1.718-.112-2.235-.274-.518-.163-2.754-.861-3.452-1.082-.698-.22-1.099-.326-1.694-.42-.596-.096-1.639-.23-2.47-.193-.83.037-1.656.367-1.453-.146Z"/>
  </g>
</svg>
