<svg xmlns="http://www.w3.org/2000/svg" viewBox="0 0 320 320">
  <defs>
    <path id="a" d="M0 0h320v320H0z"/>
  </defs>
  <g fill="none" fill-rule="evenodd">
    <path fill="#E2E5F2" d="M44.789 206.257c-1.204-8.682 2.125-13.588 9.984-14.716 11.79-1.692 45.727-4.682 67.543-19.182 21.815-14.5 45.624-29.684 52.11-42.483 6.486-12.798 15.792-39.833 21.083-40.275 5.291-.442 15.277 7.866 17.39 11.642 2.115 3.775 4.823 7.061 13.596 11.44 8.773 4.38 15.005 11.358 21.975 11.619 6.969.261 13.127.996 13.653 3.404.352 1.605 3.4 13.607 9.145 36.006 2.77 5.127 4.447 13.715 5.034 25.764.587 12.049.842 19.156.763 21.323 1.54 1.491 1.285 2.404-.763 2.74-3.072.504-61.342 2.163-87.879 3.276-26.536 1.112-50.698 5.892-83.665 3.334-32.967-2.558-51.717-8.686-56.157-9.35-2.96-.443-4.23-1.957-3.812-4.542Z"/>
    <path fill="#CCD0E0" d="m121.341 181.424 7.85 15.308c5.375 10.57 9.275 18.46 11.698 23.666-11.109.622-22.912.777-36.131-.25l-3.418-.281c-29.726-2.601-47.156-8.015-52.218-8.978l-.52-.09c-2.96-.443-4.232-1.957-3.813-4.542-.905-6.527.751-10.92 4.969-13.177 3.478-.822 6.069-2.025 6.958-1.413 1.71 1.177 26.966 3.949 47.878 1.113 11.545-1.566 13.926-6.87 16.747-11.356Z"/>
    <path fill="#E9EBF4" d="M228.494 170.715c-2.845 2.69-12.543 6.26-29.092 10.709l-1.663 1.121c-7.993 5.448-11.132 8.474-9.42 9.077 2.742.965 25.962-1.333 33.35-4.092l1.39-.51c5.793-2.07-10.769 20.24-16.928 26.1l-18.422 1.268c-6.687-2.132-11.186-3.649-15.008-7.509-5.733-5.79-14.03-18.141-15.792-22.106-1.763-3.964 9.508-8.648 11.23-11.445 1.723-2.798 8.367-11.408 14.76-11.098 6.393.31 16.301-.482 19.687-2.125 3.386-1.643 30.177 6.573 25.908 10.61Z"/>
    <path fill="#262C35" d="M212.9 101.243c.952 1.7 2.025 3.301 3.718 4.948-.168 1.414-.594 2.898-1.277 4.451-14.007 14.996-22.015 24.295-24.024 27.897-3.014 5.404-18.229 11.835-25.229 19.033-7 7.197-42.547 26.203-44.747 26.167-2.2-.037-6.376-3.241-7.694-5.803a2.302 2.302 0 0 1-.2-.57c3.106-1.495 6.086-3.157 8.869-5.007 21.815-14.5 45.624-29.684 52.11-42.483 6.486-12.798 15.792-39.833 21.083-40.275 5.291-.442 15.277 7.866 17.39 11.642Z"/>
    <path fill="#1E2123" d="m202.492 91.924.06.257c.092.513.004.865-.345.821-.873-.108-6.195 1.02-8.638 5.471l-1.63 3.044c-1.725 3.292-3.12 6.12-3.689 6.85-.74.95-.761 2.964-2.074 3.147-.77.108-1.857-.13-3.26-.712l1.82-4.168c4.039-9.099 7.97-16.799 10.773-17.033 1.912-.16 4.437.824 6.983 2.323Z"/>
    <path fill="#80818B" d="m192.31 93.698-5.738 12.113c-.48.997-.796 1.64-.823 1.664-.086.073-1.062.404-1.634.573l.622-1.414c2.724-6.14 5.4-11.642 7.714-14.644.09.455.15 1.086-.141 1.708Z"/>
    <path fill="#000" d="M117.74 177.936c1.136.03 11.97-7.709 13.627-8.74 1.104-.687 4.642-3.01 10.614-6.966 3.728.9 6.25 1.121 7.569.665 1.318-.455 1.848-3.201 1.59-8.238 3.053-3.912 4.965-6.258 5.737-7.04 1.158-1.17 12.356-10.835 12.468-8.795.112 2.04 10.392 3.645 13.4 3.765 3.01.12 7.452-14.947 6.95-16.647-.334-1.133-3.715-3.37-10.143-6.71 2.342-1.91 3.85-2.823 4.523-2.74 1.01.127 7.879 1.754 8.303 2.74.424.986 5.142 11.097 2.667 17.308-2.474 6.211-12.07 16.378-15.493 16.52-3.421.14-13.896-1.595-16.652 2.18-2.756 3.775-6.445 13.674-12.031 14.808-5.587 1.133-23.6 10.442-27.563 11.27-3.962.829-6.7-3.41-5.565-3.38Z"/>
    <path fill="#262327" d="M267.556 151.333c.213.9-.066 1.522-.838 1.868-20.097 9.004-37.963 12.751-43.433 9.916-8.679-4.496-37.588-15.97-40.068-20.986-2.48-5.015 9.933-45.884 23.207-42.166 13.274 3.717 19.342 7.255 23.926 10.245 4.584 2.989 10.683 8.833 18.24 9.453 7.559.62 15.211 1.741 13.9 6.897-.874 3.437.815 11.694 5.066 24.773Z"/>
    <path fill="#717070" d="M206.424 99.965c13.274 3.717 19.342 7.255 23.926 10.245 4.584 2.989 10.683 8.833 18.24 9.453 7.559.62 15.211 1.741 13.9 6.897a7.93 7.93 0 0 0-.211 1.592c-1.296-2.012-2.216-3.327-2.759-3.945-1.078-1.226-12.28-2.264-17.046-3.311-4.766-1.047-15.514-8.774-19.94-12.119-3.775-2.852-14.866-7.542-18.385-9.025.754-.067 1.513 0 2.275.213Z"/>
    <path fill="#23376A" d="m211.752 105.993-2.38 4.94c-6.033 12.798-9.553 22.58-10.562 29.346l-.33 2.485c-1.198 10.128-.495 17.331-9.342 17.975-9.554.695-11.185-1.497-17.846 4.884-6.661 6.38-10.864 9.536-14.825 11.315-3.962 1.78-14.348 4.722-20.155 7.344-3.87 1.748 2.002 13.873 17.619 36.374-17.25 2.103-37.71 2.27-61.382.504-25.691-2.903-40.5-7.656-44.38-8.236-2.96-.443-4.23-1.957-3.812-4.542-1.204-8.683 2.124-13.588 9.984-14.716l2.082-.285c-1.212.634-.152 1.14 3.187 1.515l25.069 2.526c8.449.872 16.219 1.752 18.827 2.34 5.618 1.265 9.035 11.109 15.619 6.005 6.583-5.103-3.118-10.852-3.592-15.622l-.131-1.577c-.183-3.552.961-5.195 10.295-11.63 10.606-7.312 20.66-11.392 25.198-15.19 4.537-3.8 15.512-15.873 18.766-16.373 3.254-.5 11.837 3.446 13.4-3.195l2.072-9.053c2.73-11.556 7.372-28.892 11.959-30.45 4.12-1.4 9.008-.295 14.66 3.316Z"/>
    <path fill="#4779C9" d="m212.185 103.868-2.38 4.94c-6.033 12.798-9.554 22.58-10.562 29.346l-.33 2.485c-1.199 10.128-.496 17.332-9.342 17.975-9.554.695-11.186-1.497-17.847 4.884-6.661 6.38-10.864 9.536-14.825 11.316-3.962 1.78-14.348 4.721-20.155 7.343-3.87 1.748 2.002 13.873 17.62 36.374-17.252 2.103-37.714 2.27-61.387.503l-4.993-.603c-21.813-2.81-34.81-6.794-38.958-7.56l-.425-.072a8.914 8.914 0 0 1-1.805-.449 19.823 19.823 0 0 1-1.73-1.052c-.703-.671-1.101-1.561-1.191-2.661-.594-8.936 3.039-13.968 10.898-15.096l2.883-.39c-1.208.762-.24 1.55 2.914 2.367 7.992 2.072 37.75 2.853 43.368 4.119 5.618 1.265 9.035 11.109 15.619 6.006 6.583-5.104-3.118-10.852-3.592-15.623l-.13-1.577c-.183-3.552.96-5.195 10.294-11.63 10.606-7.311 20.66-11.392 25.198-15.19 4.538-3.8 15.512-15.873 18.766-16.373 3.254-.5 11.838 3.446 13.4-3.195l2.072-9.053c2.73-11.556 7.372-28.892 11.959-30.45 4.121-1.4 9.008-.295 14.66 3.316Z"/>
    <path fill="#3269C0" d="M119.557 203.643c4.66-3.612 1.162-7.547-1.449-11.23 7.878 1.668 17.837 12.506 22.45 20.898 1.196 2.174 3.163 4.261 4.878 6.113-15.26 1.212-32.746 1.082-52.459-.39l-4.993-.603-3.053-.408c-19.455-2.701-31.324-6.232-35.58-7.089l.141.269c-2.544-4.639-1.92-8.453 1.874-11.444 5.543-4.37 12.335-.494 27.267 2.135l15.344 2.58c9.189 1.48 15.883 2.242 15.465.461l-.056-.164c-.688-1.58-.515-3.397-1.763-5.023l-.207-.255.756.633c3.495 3.05 6.606 7.221 11.385 3.517Z"/>
    <path fill="#2457A7" d="M140.559 213.31c1.195 2.175 3.162 4.262 4.877 6.114-15.26 1.212-32.746 1.082-52.459-.39l-4.993-.603-3.053-.408c-19.455-2.701-31.324-6.232-35.58-7.089l.141.269c-.86-1.567-1.357-3.04-1.493-4.42 3.084.355 7.1.901 11.016 1.671l1.463.3c8.48 1.809 47.007 5.87 52.45 6.106l1.155.028c5.671.038 15.025-1.211 15.374-4.213.214-1.832-3.24-7.833-10.361-18.002 7.701 2.297 17.04 12.591 21.463 20.638Z"/>
    <path fill="#000" d="M184.612 134.932c.055-.005-8.765-7.758-8.17-9.394.593-1.636-4.772 3.856-4.656 4.697.116.841 9.36 9.818 11.29 10.189 1.93.37 1.482-5.486 1.536-5.492Z"/>
    <path fill="#23376A" d="M141.64 222.182c-9.575-16.056-17.427-25.982-23.555-29.778-9.192-5.695-10.85-7.211-3.366-12.696 7.483-5.486 28.36-19.712 29.05-18.583.69 1.129 2.817 20.773 5.445 27.337 1.753 4.376 7.377 14.969 16.874 31.777l-24.447 1.943Z"/>
    <path fill="#4779C9" d="M143.18 221.162c-9.576-16.056-17.428-25.982-23.556-29.779-9.192-5.694-10.85-7.21-3.366-12.696 7.484-5.485 28.36-19.71 29.05-18.582.692 1.129 2.817 20.773 5.446 27.337 1.752 4.376 7.377 14.968 16.874 31.777l-24.447 1.943Z"/>
    <path fill="#3B6FC0" d="M142.679 167.602c1.374.06 2.712.14 4.015.239l.541 3.457c.957 5.98 2.172 12.78 3.519 16.144l.328.787c2.061 4.785 7.577 15.115 16.546 30.99l-24.447 1.943c-9.577-16.056-17.429-25.982-23.557-29.779l-1.853-1.159c-7.336-4.65-8.41-6.356-2.032-11.152l1.838-1.342.737-.529-3.568 5.016a81.716 81.716 0 0 1-1.368 1.836c-2.137 2.763 3.588 3.691 11.616 8.36 8.028 4.668 5.82 7.956 13.054 6.327 4.822-1.086 6.365-11.465 4.631-31.138Z"/>
    <path fill="#3769B8" d="M145.309 160.105c.673 1.1 2.708 19.778 5.244 26.807l.2.53c1.753 4.376 7.378 14.968 16.875 31.777l-24.447 1.943c-4.234-7.098-8.13-12.997-11.69-17.7 4.41 3.346 7.6 5.012 9.575 5.006l1.034-.02c5.067-.17 13.218-1.377 12.467-2.19-.785-.852-9.945-18.128-10.66-26.298l-.038-.581c-.301-7.9-5.483-7.311-10.698-4.667-5.215 2.645-10.79 8.602-15.689 9.027-1.666.145-2.997-.79-3.993-2.807.575-.543 1.28-1.124 2.117-1.758l1.613-1.185c8.16-5.9 27.426-18.968 28.09-17.884Z"/>
    <path fill="#23376A" d="M267.451 146.381c-.187-1.963-.18-5.046-1.62-6.41-1.44-1.366-37.694-19.388-44.178-22.694-6.485-3.305-25.8-10.286-28.145-10.38-2.344-.093-5.959 7.871-7.855 13.005-1.896 5.133-4.728 8.045 9.52 18.237 14.248 10.192 34.484 24.184 35.68 24.562 1.195.377 11.277 1.313 36.166-9.908.766-.768.62-4.449.432-6.412Z"/>
    <path fill="#3769B8" d="M267.989 144.921c-.188-1.963-.18-5.046-1.62-6.411-1.44-1.365-37.694-19.387-44.179-22.693-6.484-3.306-25.8-10.286-28.144-10.38-2.345-.094-5.959 7.871-7.855 13.005-1.896 5.133-4.728 8.045 9.52 18.237 14.248 10.192 34.484 24.184 35.68 24.561 1.195.378 11.277 1.314 36.165-9.907.766-.768.62-4.449.433-6.412Z"/>
    <path fill="#3E71C2" d="M195.168 130.835c3.522 3.214 33.077 22.88 36.523 23.499 3.446.62 24.996-3.774 24.429-9.688-.568-5.914-16.531-14.794-27.166-19.41-10.635-4.618-23.463-13.998-28.497-12.477-5.033 1.52-6.42 4.912-8.076 7.424-1.656 2.512-.736 7.439 2.787 10.652Z"/>
    <path fill="#1A4892" d="M198.188 126.861c-.745 2.078-3.214 2.22-4.935.9-1.722-1.321-.819-4.961 2.054-5.52 2.872-.56 3.626 2.542 2.881 4.62Zm4.744-9.233c-2.025 1.743-3.494 1.854-5.215.534-1.721-1.32.048-5.805 2.92-6.365 2.872-.56 4.32 4.089 2.295 5.831Z"/>
    <path fill="#23376A" d="M220.612 213.19c8.514-21.599 13.078-32.85 13.691-33.752.92-1.354 37.428-15.236 38.113-15.278.684-.042 3.245 4.954 3.287 9.185.041 4.23 1.912 11.756 2.353 15.925.441 4.17.907 17.817-.991 21.53-4.472 1.66-8.215 2.498-11.231 2.51l-45.222-.12Z"/>
    <path fill="#3B6FC0" d="M222.825 213.31c7.766-21.405 11.956-32.559 12.57-33.461.919-1.355 36.336-15.647 37.02-15.69.685-.041 3.246 4.955 3.288 9.186.041 4.23 1.912 11.756 2.353 15.925.441 4.17.907 17.817-.991 21.53-4.472 1.66-8.215 2.498-11.231 2.51h-43.009Z"/>
    <path fill="#4779C9" d="M262.638 168.944c-.22 13.245-2.389 21.154-6.507 23.729-6.178 3.861-25.158 11.39-25.18 8.485-.023-2.905 9.006-21.127 11.593-23.436 1.726-1.538 8.423-4.464 20.094-8.778Z"/>
    <path fill="#3769B8" d="M272.416 164.16c.654-.04 3.026 4.529 3.267 8.629l.02.556c.041 4.23 1.912 11.756 2.353 15.925l.105 1.173c.396 5.117.65 16.94-1.096 20.356-4.472 1.661-8.215 2.499-11.231 2.512h-43.009l2.092-5.755 1.458.912 2.902-.314c24.7-2.758 37.654-6.418 38.861-10.981l.289-1.134c1.86-7.587 4.235-22.554-.289-23.906-3.174-.948-13.671 1.467-31.49 7.246l.303-.462 1.406-.678c8.695-4.072 33.487-14.044 34.059-14.08Z"/>
    <path fill="#262327" d="M270.407 157.572c-21.161 8.48-38.068 14.388-50.718 17.724-18.977 5.004-34.052 13.453-31.516-11.136-11.037 6.706-18.802 17.576-11.273 27.22 7.53 9.645 29.225-.683 57.384-12.147 18.773-7.644 31.483-12.668 38.132-15.073l-2.009-6.588ZM120.855 182.58c-2.33 1.938-3.899 1.41-7.041-1.327-3.142-2.737-3.89-3.053-3.15-4.186.74-1.133 4.166-5.46 4.964-4.88.798.58 7.557 8.454 5.227 10.393Z"/>
    <path fill="#262327" d="M133.209 177.936c-1.66 1.66-4.092 2.17-6.425 0s-10.144-4.095-10.154-4.459c-.01-.363 3.435-3.356 4.711-3.43 1.276-.075 13.527 6.228 11.868 7.889ZM140.42 172.133c-1.997 1.792-4.47 2.153-7.057.814-2.586-1.338-8.499-3.018-8.367-3.82.132-.802 5.097-5.385 5.577-4.967.48.418 11.844 6.182 9.847 7.973Z"/>
    <path fill="#494B55" d="M141.14 160.041c-.22-2.001.05-3.441.805-4.32 6.836-5.206 10.728-7.885 11.675-8.035 1.42-.226 4.461.146 4.413.581-.048.435-1.761.587-3.466 1.308-1.704.72-6.253 8.605-5.52 11.102.732 2.497-7.58 2.367-7.908-.636Z"/>
    <path fill="#262327" d="M139.71 157.512c-1.699.52-3.59 2.525-5.133 3.923-1.543 1.399-1.582 2.064-1.214 2.007.368-.058 7.56-.727 9.857.691 2.297 1.418 7.9 6.206 10.402 4.811 2.502-1.395-.395-7.29-3.653-8.84-3.259-1.548-8.559-3.112-10.258-2.592ZM164.66 160.105c-1.872 2.447-6.09.258-9.558-2.035-2.312-1.529-3.723-2.688-4.233-3.478 2.15-3.835 3.791-5.627 4.925-5.378 1.7.375 10.738 8.444 8.866 10.89ZM175.72 153.908c-1.488 1.467-6.836-1.204-8.627-2.71-1.79-1.504-10.163-3.133-10.194-4.149-.03-1.015 4.86-5.645 6.164-5.39 1.304.256 8.982 3.487 11.084 5.959 2.101 2.472 3.062 4.822 1.574 6.29Z"/>
    <path fill="#262327" d="M192.734 149.191c-1.367 2.153-5.764.766-10.214-2.066-4.45-2.833-10.43-5.311-13.75-5.509-3.321-.197-4.45 1.031-4.492 0-.04-1.03 5.001-7.86 6.61-7.357 1.61.504 13.183 4.968 17.303 7.632 4.12 2.664 5.91 5.147 4.543 7.3ZM197.374 125.69c.412-2.584-2.099-5.029-7.784-6.227-5.685-1.198-9.568.424-11.387 1.571-1.82 1.147-6.742 5.627-7.175 7.219-.29 1.06.17 2.589 1.378 4.585 2.896-3.548 5.677-5.616 8.344-6.206 4-.886 7.323-1.263 10.438-.007 3.114 1.257 5.775 1.647 6.186-.936Z"/>
    <path fill="#23376A" d="m277.093 209.128 2.783 24.364a4 4 0 0 1-3.814 4.45c-148.148 5.931-226.969.005-236.462-17.777-.416-1.174-.416-2.824 0-4.95 1.768-7.826 3.323-11.323 4.667-10.491 2.016 1.247 38.06 16.582 100.147 10.42 41.39-4.108 85.617-6.114 132.679-6.016Z"/>
    <path fill="#E2E6EC" d="m277.065 210.8 2.773 22.661a4 4 0 0 1-3.81 4.483c-148.126 5.928-226.935.002-236.428-17.779-.416-1.174-.416-2.824 0-4.95 1.749-6.712 3.296-9.652 4.64-8.82 2.015 1.247 38.06 16.582 100.146 10.42 41.39-4.108 85.617-6.114 132.679-6.016Z"/>
    <path fill="#DEE2EA" d="m44.07 206.31.583.304c4.524 2.215 39.414 15.819 97.84 10.383l1.893-.182a1126.43 1126.43 0 0 1 19.595-1.77l6.397 9.33c4.272 6.274 7.79 11.537 10.554 15.79l-5.173.002c-83.715-.113-129.1-6.78-136.16-20.002-.415-1.174-.415-2.824 0-4.95l.434-1.6c1.5-5.322 2.847-7.757 4.037-7.304Z"/>
    <path fill="#DADEE5" d="m41.437 209.366 2.249.904c17.706 6.949 36.793 10.79 57.26 11.523l2.565.075c21.411.493 37.575 6.516 48.493 18.067-14.834-.27-28.208-.794-40.127-1.567l-6.825-.81c-21.483-2.6-38.05-5.122-49.698-7.562-8.461-2.729-13.712-6.005-15.754-9.83-.416-1.175-.416-2.825 0-4.951l.474-1.746c.47-1.651.924-3.02 1.363-4.103Z"/>
    <path fill="#DFE5ED" d="m41.437 209.366 2.249.904c13.637 5.352 28.094 8.86 43.37 10.525 5.001 2.26 9.277 4.618 12.828 7.073 4.94 3.413 7.815 6.78 8.626 10.1l-3.458-.41-6.51-.804c-18.348-2.317-32.744-4.57-43.188-6.758-8.461-2.729-13.712-6.005-15.754-9.83-.416-1.175-.416-2.825 0-4.951l.474-1.746c.47-1.651.924-3.02 1.363-4.103Z"/>
    <path fill="#E2E6EC" d="m41.437 209.366 2.249.904a161.074 161.074 0 0 0 12.32 4.266c-.44 3.754 2.935 8.28 10.122 13.576l.88.64c2.191 1.565 3.306 2.902 3.567 4.03l-3.744-.625a318.557 318.557 0 0 1-11.477-2.16c-8.461-2.73-13.712-6.006-15.754-9.832-.416-1.174-.416-2.824 0-4.95l.474-1.746c.47-1.651.924-3.02 1.363-4.103Z"/>
    <path fill="#D7DBE1" d="m277.065 210.8 2.421 19.787a6.667 6.667 0 0 1-6.356 7.472l-7.282.278-3.599.131-1.537-.591c-4.355-1.754-6.308-3.28-3.004-3.617l.389-.033c11.715-.785 10.038-8.779 9.504-13.982-.356-3.469-7.411-4.988-21.165-4.558l7.65-.49c12.55-.833 19.478-1.462 20.788-1.886 1.04-.338-1.41-1.172-7.352-2.502 3.163-.013 6.346-.016 9.543-.01Z"/>
    <path fill="#A4ABB6" d="m41.8 208.528-.12-.06c13.327 6.634 32.173 10.746 56.531 12.32 10.804.7 20.666.697 31.68.099l6.177-.386 6.92-.527 19.554-1.686c17.064-1.445 31.024-2.3 47.9-2.745l35.924-.853 11.856-.213c8.586-.132 15.012-.173 19.282-.122l.155 1.34-5.996-.025c-11.793.039-32.19.44-61.186 1.206-14.74.39-27.253 1.09-41.567 2.227l-23.238 1.986c-6.199.522-11.031.875-15.708 1.13-11.065.6-20.98.602-31.839-.1-23.352-1.51-41.707-5.344-55.071-11.514l-1.768-.856c.173-.45.345-.858.513-1.22Z"/>
    <path fill="#525E9F" d="M39.756 214.618c4.245 4.4 11.464 8.446 18.693 10.4 8.18 2.213 29.093 8.525 91.715 10.052 37.369.912 84.523.175 121.644-2.803 2.468-.198 5.187-.864 8.158-1.998l-.496.184.368 3.008a4 4 0 0 1-3.81 4.483c-148.126 5.928-226.935.002-236.428-17.779-.416-1.174-.416-2.824 0-4.95l.099-.376Z"/>
    <path fill="#343E76" d="m87.992 234.124 2.985.337c17.92 1.91 52.53 3.861 87.466 3.616l9.608-.116c34.705-.546 75.194-2.303 79.55-2.658 4.282-.349 8.07-.754 11.367-1.216a6.66 6.66 0 0 1-5.838 3.972l-8.41.32c-136.115 5.007-210.771-.497-223.97-16.511 10.418 5.655 26.163 9.74 47.242 12.256Z"/>
    <path fill="#262327" d="M200.339 111.335c-3.58-1.773-10.877-3.936-15.841-1.398-4.965 2.538-5.423 5.45-4.86 9.105.962.25 1.681.25 2.159 0 2.124-2.726 4.396-3.953 6.816-3.682 3.63.406 11.067 3.705 13.024 2.236 1.958-1.468 2.28-4.489-1.298-6.261Z"/>
    <path fill="#0B316E" d="m212.993 126.359 5.905 4.03 2.482-1.008 1.025 2.112c1.318-1.36 2.04-2.063 2.166-2.112.127-.05 1.032.827 2.715 2.627 3.292-1.628 6.445-1.41 9.458.652s4.206 4.768 3.578 8.117l3.193 1.461-1.226 2.113 2.41.568-.389 2.964c3.168 2.224 4.7 3.35 4.593 3.376-.438.11-4.157-.773-4.482-1.017-.324-.244-2.354.595-2.707.485-.235-.073-.949-.234-2.141-.485l-1.107.485-1.651-1.168-1.175 1.168-3.557-1.772-1.877-.564-7.381-4.83-.693-1.402-1.04-1.718v-.838l-1.511-1.332v-1.102l-.494-1.249.494-.988-1.033-.91-.541-1.222-1.305-1.307-3.71-5.134Z"/>
  </g>
</svg>
