<svg xmlns="http://www.w3.org/2000/svg" viewBox="0 0 96 96">
  <defs>
    <path id="a" d="M0 0h96v96H0z"/>
  </defs>
  <g fill="none" fill-rule="evenodd">
    <path fill="#EEEFF2" d="M78.057 32.995c1.113 0 1.598.775 1.274 3.16l-.059.39a192.536 192.536 0 0 0-.772 5.26l1.865 6.994c.466 1.717 1.53 6.702 1.292 7.816-.159.742-.787 1.175-1.883 1.298l-5.765 1.023-14.557 3.376-14.642 4.21-9.466-1.87-10.788 1.552c-1.537.212-2.387.317-2.551.317l-.667-.025c-.868-.043-2.491-.144-4.869-.3l-1.544-2.483-3.793-3.164v-.898c.385-1.765 1.238-2.832 2.558-3.2 1.98-.553 10.351-1.802 13.7-2.87l.977-.318c1.693-.565 2.85-1.027 3.467-1.388.002-.582.078-.874.226-.874.222 0 1.567-.412 1.567-.412l.28.173 2.138-1.045c.093-.312.214-.533.363-.662.224-.194.933-.319 1.222-.256.193.041.503-.08.93-.363V48l2.79-1.198h.587l1.888-1.268.306-.526 1.699-.812h.514l.821-.686.582-.77 1.797-.935.214.23.656-.53c.356-.617.734-.925 1.136-.925.402 0 .629-.08.68-.239 1.972-2.595 3.92-4.465 5.844-5.609l.593-.382c.634-.393.986-.493 1.668.004l.195.15c1.02.83 3.265 2.231 4.18 3.707.915 1.476 1.329 3.837-.908 7.031.642.512 3.65 1.576 4.974 1.126 1.25-.424 2.43-1.57 3.009-4.101l.096-.462c.537-2.855 1.335-3.422 2.605-3.422.846 0 1.796.462 2.848 1.384-.377-1.616-.565-2.897-.565-3.843l.007-.534c.038-1.24.255-2.395 1.28-2.395Zm.187 1.022c-.468-.225-.72 1.367-.683 2.362l.023.457c.064 1.102.229 2.81.434 2.883.204.072.296-1.536.41-2.581l.114-.905c.096-.912.098-2.026-.298-2.216Z"/>
    <path fill="#E4E6EB" d="M55.561 37.293c1.912-1.065 4.115-1.582 6.612-1.552.955.722 1.987 1.583 2.537 2.47.915 1.476 1.329 3.837-.908 7.031-.36.259-.765.501-1.202.736l-1.488-.917c-2.464-1.534-3.955-2.546-4.473-3.038-.615-.585-2.637-.464-6.065.361a9.61 9.61 0 0 1 1.078-1.809l-.102.005c.402 0 .629-.08.68-.239a32.949 32.949 0 0 1 1.516-1.857 14.205 14.205 0 0 1 1.815-1.191Z"/>
    <path fill="#D1D3DC" d="M59.331 37.293c1.032-.084 4.125 1.894 4.559 2.862.29.646-.14 2.355-1.29 5.128-1.69-.475-3.035-1.124-4.038-1.948-1.316-1.08-3.752-1.364-4.96-1.475l-.437-.04c-.926-.085-1.749.208-.193-1.665 1.556-1.872 5.328-2.779 6.36-2.862Z"/>
    <path fill="#BEC1CA" d="M58.391 39.018c1.696-.324 4.321 1.14 4.915 1.953.395.542.125 2.15-.812 4.825l-1.384-.96c-2.445-1.682-3.935-2.62-4.47-2.813-.63-.228-1.938-.295-3.924-.202 2.653-1.653 4.545-2.587 5.675-2.803Z"/>
    <path fill="#A9AEBC" d="M58.307 40.728c1.695-.324 3.046.137 3.64.95.395.542.695 1.29-.307 3.359-3.1-1.925-4.766-2.93-5-3.014-.63-.228.536-1.08 1.667-1.295Z"/>
    <path fill="#E7E8EC" d="M73.614 40.155c.336-.296 1.999.383 4.99 2.037l1.761 6.607c.466 1.717 1.53 6.702 1.292 7.816-.159.742-.787 1.175-1.883 1.298l-5.765 1.023-3.77.876c-4.124-.709-6.348-5.007-4.651-5.843 1.738-.856 5.99 2.01 7.34 2.095 1.35.086 2.94-1.476 2.376-2.533-.564-1.057-1.134-2.332-1.012-3.574.121-1.243-1.153-3.343-2.436-4.404-.232-.193.272-3.46-.089-3.215l.114-.533c.106-.565.223-1.04.351-1.44l.52-.017c.462-.028.749-.093.862-.193ZM55.468 42.31l-.1-.092c-.31-.335 1.985.898 6.887 3.702l1.05.602.663-1.167c.794.484 3.048 1.254 4.391 1.102l-.652.878c-.755 1.004-1.487 1.905-2.12 2.423-2.26 1.854-5.468-.442-6.713-1.758s-2.264-4.747-3.406-5.69Z"/>
    <path fill="#DCDEE4" d="M74.977 41.404c.378-.363 2.311.73 3.886 1.756l1.502 5.639c.466 1.717 1.53 6.702 1.292 7.816-.159.742-.787 1.175-1.883 1.298-3.855 1.346-6.271 1.702-7.247 1.071-1.465-.947 3.514-2.603 4.435-3.49.922-.886-1.335-1.902-.709-4.238.626-2.336-1.859-4.576-2.19-5.508-.33-.933.183-3.644.914-4.344Z"/>
    <path fill="#CED1D9" d="M75.934 42.22c.371-.438 2.488.923 3.053 1.397l1.378 5.182c.466 1.717 1.53 6.702 1.292 7.816a1.45 1.45 0 0 1-.155.414l-4.8 1.203c-2.125.52-3.242.762-3.349.728-.274-.086 4.081-2.613 4.764-3.215.683-.602.23-4.961 0-6.288s-.887-2.384-2.183-3.148c-1.297-.764-.416-3.599 0-4.089Z"/>
    <path fill="#D1D4DE" d="m42.027 65.609-6.633-1.596-8.922 1.596-7.279.762-1.824-.116-1.5-1.026-.944-1.516-3.72-3.102-.074-.152-.246-1.093c.386-1.766 1.485-2.547 2.805-2.916l.112-.029c-.381.445-.238.844.431 1.195 1.764.927 8.78 1.402 11.15 1.472l1.225.02c1.154.037 2.071.195 2.577.752l.138.18c.548.83 3.292 1.783 4.07 1.1.717-.63.11-1.646.012-2.657l-.012-.252c0-1.09-.632-1.961.51-3.142.76-.787 3.468 2.72 8.124 10.52Z"/>
    <path fill="#C6CADA" d="M14.72 60.336c2.109.318 4.234 2.236 5.225 2.377l.304.023c2.082.097 12.24-.022 13.447.999.224.19.24.379.093.565l-7.317 1.309-7.279.762-1.414-.091-.553-.123-1.357-.928-.944-1.516-2.95-2.46a21.382 21.382 0 0 1-.73-2.93c.1-.198.213-.38.34-.546l.31.41c.634.825 1.628 1.968 2.824 2.149Z"/>
    <path fill="#B8BFC5" d="m58.391 48.737 1.322-2.132 4.177 3.585-1.29 2.118z"/>
    <path fill="#A4AAAD" d="M38.239 64.032c-2.33-3.41-4.285-5.467-5.863-6.172-2.367-1.057-4.629-1.862-4.629-2.307 0-.296.87-.842 2.611-1.637l7.88-4.858c.056-.583.163-.936.321-1.058.238-.183 2.463-1.216 2.79-1.198.22.012.458.06.716.147 4.043-2.288 6.373-3.431 6.99-3.43.926 0 3.006.628 5.257 2.078 2.251 1.45 13.01 9.956 14.482 11.248-1.176 1.05-3.87 2.759-8.082 5.125-.41-1.032-1.656-1.289-3.735-.77-3.119.779-5.949 2.654-8.72 3.222-1.847.379-5.187.249-10.018-.39Z"/>
    <path fill="#79828B" d="M37.859 64.346c-2.219-3.921-3.922-6.317-5.111-7.188-1.783-1.306-4.546-2.294-4.546-2.739 0-.296.482-.696 1.445-1.2l8.212-3.848c.056-.583.163-.936.32-1.058.238-.183 2.463-1.216 2.791-1.198.22.012.457.061.715.147 4.044-2.288 6.374-3.431 6.99-3.43.926 0 3.006.628 5.258 2.078 2.25 1.45 13.01 9.956 14.481 11.248-1.176 1.05-3.87 2.759-8.081 5.125-.411-1.032-1.656-1.288-3.736-.77-3.118.78-5.948 2.655-8.72 3.223-1.847.378-5.186.248-10.018-.39Z"/>
    <path fill="#E5E8E9" d="M38.239 64.032c-2.219-3.92-3.923-6.316-5.111-7.187-1.784-1.306-4.546-2.294-4.546-2.739 0-.296.481-.697 1.444-1.2l8.213-3.848c.055-.583.162-.936.32-1.058.238-.183 2.463-1.216 2.79-1.198.22.012.458.06.716.147 4.043-2.288 6.373-3.431 6.99-3.43.926 0 3.006.628 5.257 2.078 2.251 1.45 13.01 9.956 14.482 11.248-1.176 1.05-3.87 2.759-8.082 5.125-.41-1.032-1.656-1.289-3.735-.77-3.119.779-5.949 2.654-8.72 3.222-1.847.379-5.187.249-10.018-.39Z"/>
    <path fill="#DBDFE1" d="m54.235 45.55.56.373c3.002 2.1 12.614 9.706 13.999 10.922-1.051.939-3.316 2.404-6.793 4.394l-1.432.459c-.513-.802-1.712-.967-3.592-.498-3.119.779-5.949 2.654-8.72 3.222-1.847.379-5.187.249-10.018-.39l-.678-1.176c-1.43-2.442-2.624-4.183-3.582-5.224 1.31-2.699 6.895-3.34 9.716-4.014 3.14-.75 7.644-4.175 6.159-4.832l-.152-.052c-1.157-.302.353-1.363 4.533-3.184Z"/>
    <path fill="#CFD4D7" d="m67.187 55.519.164.298c.338.622.585 1.155.74 1.597-1.396 1.058-3.856 2.577-7.379 4.556-.41-1.032-1.656-1.289-3.735-.77-3.119.779-5.949 2.654-8.72 3.222-1.847.379-5.187.249-10.018-.39 2.03-.428 3.028-1.105 2.99-2.036-.071-1.728-3.444-4.345-2.887-5.273.557-.927 11.697 5.507 13.757 3.953l.65-.511c1.617-1.304 4.861-4.098 9.732-8.383l3.83 3.031.876.706Z"/>
    <path fill="#989EAA" d="M60.193 34.7c1.019.828 3.265 2.23 4.18 3.706.915 1.476 1.28 3.642-.957 6.836.053.042.121.087.204.136l-.051.066-.331.384-1.991-.85c1.2-1.493 1.864-2.678 1.99-3.556.19-1.318-1.8-3.586-2.75-4.624-.674-.739-1.927-1.517-2.665-1.93l-.085.059.593-.382c.633-.394.986-.493 1.668.004l.195.15Z"/>
    <path fill="#E4E6E8" d="m60.335 34.354.195.15c1.02.83 3.265 2.231 4.18 3.707.915 1.476 1.329 3.837-.908 7.031.053.042.122.088.204.136l-.05.066-.332.384-1.99-.85c1.2-1.492 1.864-2.678 1.99-3.556.19-1.318-1.85-3.78-2.799-4.819-.675-.738-1.928-1.517-2.665-1.93l-.086.06.593-.383c.634-.393.986-.493 1.668.004Z"/>
    <path fill="#F1F1F1" d="m60.335 34.354.195.15c1.02.83 3.265 2.231 4.18 3.707.915 1.476 1.329 3.837-.908 7.031.053.042.122.088.204.136l-.05.066-.224.257-.604-.086-.25-.105c.454-.613.895-1.414 1.323-2.405l.221-.529c.769-1.91-.32-3.706-.532-4.167-.213-.46-3.714-3.567-4.088-3.821-.247-.167-.813-.18-1.24-.171l.105-.067c.634-.393.986-.493 1.668.004Z"/>
    <path fill="#989EAA" d="M78.097 33.429c1.114 0 1.6.775 1.274 3.16l-.058.39a192.57 192.57 0 0 0-.77 5.249l-.153.087c-.334.167-.594.1-.778-.2-.356-.581-.15-.962-.878-1.393l-.456-.26c-.626-.338-1.295-.612-1.65-.393-.444.275-.932 2.058-1.467 3.883-.535 1.826-1.59 3.604-3.245 4.216-1.656.613-5.212.58-8.19-1.531l-2.372-1.695c-1.708-1.209-2.992-2.039-4.088-2.288l-.483-.102c-1.206-.23-1.856-.088-4.237.966l-.678.31c-2.723 1.284-6.732 3.544-7.329 3.825-.43.203-.588.044-.473-.476l.074-.05 4.608-2.653c.788-.464 1.285-.769 1.492-.914l.058-.042c.519-.4 3.817-2.315 5.654-2.41 1.734-.09 3.423.035 5.77 1.788l.42.326c1.36 1.092 2.6 1.902 3.72 2.43l-.019.024c.641.512 3.65 1.576 4.974 1.126 1.25-.424 2.429-1.57 3.008-4.101l.096-.462c.537-2.855 1.336-3.422 2.605-3.422.847 0 1.796.462 2.848 1.384-.376-1.616-.564-2.897-.564-3.843l.007-.534c.038-1.24.254-2.395 1.28-2.395Zm-.495 3.384.022.457c.065 1.102.23 2.81.434 2.883.205.072.297-1.536.41-2.581l.114-.905c.096-.912.099-2.026-.297-2.216-.468-.224-.72 1.367-.683 2.362Z"/>
    <path fill="#E1E3E8" d="M78.057 32.995c1.113 0 1.598.775 1.274 3.16l-.059.39a192.57 192.57 0 0 0-.77 5.249l-.152.087c-.335.167-.594.1-.779-.2-.356-.582-.149-.962-.877-1.393l-.456-.26c-.627-.338-1.296-.612-1.651-.393-.444.275-.932 2.058-1.467 3.883-.535 1.826-1.59 3.604-3.245 4.216-1.655.613-5.212.58-8.19-1.531l-2.372-1.695c-1.708-1.209-2.991-2.039-4.088-2.288l-.482-.102c-1.206-.23-1.857-.088-4.238.966l-.678.31c-2.723 1.284-6.732 3.544-7.329 3.825-.43.203-.587.044-.473-.476l.074-.05 4.608-2.653c.788-.464 1.286-.769 1.492-.914l.058-.042c.52-.4 3.818-2.315 5.654-2.41 1.734-.09 3.424.035 5.77 1.788l.421.326c.901.724 2.135 1.542 3.7 2.454.642.512 3.65 1.576 4.974 1.126 1.25-.424 2.43-1.57 3.009-4.101l.096-.462c.537-2.855 1.335-3.422 2.605-3.422.846 0 1.796.462 2.848 1.384-.377-1.616-.565-2.897-.565-3.843l.007-.534c.038-1.24.255-2.395 1.28-2.395Zm-.496 3.384.023.457c.064 1.102.229 2.81.434 2.883.204.072.296-1.536.41-2.581l.114-.905c.096-.912.098-2.026-.298-2.216-.468-.225-.72 1.367-.683 2.362Z"/>
    <path fill="#F3F5FA" d="M74.486 38.383c.828 0 1.755.442 2.78 1.326l-.017.027-.132.123c-1.071-.987-2.575-1.204-3.345-.873-.77.332-1.513 3.289-1.83 4.711-.317 1.422-1.299 2.972-4.137 3.281-2.709.295-5.848-1.775-6.952-2.647l-.958-.78c-1.06-.845-2.57-1.948-3.829-2.352-.99-.317-2.715-.176-5.176.424 1.041-.484 2.183-.906 3.02-.949 1.735-.09 3.425.035 5.771 1.788l.421.326c.901.724 2.135 1.542 3.7 2.454.642.512 3.65 1.576 4.974 1.126 1.25-.424 2.43-1.57 3.009-4.101l.096-.462c.537-2.855 1.335-3.422 2.605-3.422Zm3.57-5.388c1.114 0 1.6.775 1.275 3.16l-.192 1.253.064-2.241.002-.192c.003-1.07-.655-1.473-1.129-1.546-.473-.073-.803.565-.959 1.389-.104.549.006 1.999.328 4.348a.69.69 0 0 1-.133.492l.022.11c-.377-1.617-.565-2.898-.565-3.844l.007-.534c.038-1.24.255-2.395 1.28-2.395Z"/>
    <path fill="#B7BCC7" fill-rule="nonzero" d="m38.37 48.556.436.39c1.234 1.139 1.797 1.862 1.742 2.317l-.024.1c-.128.351-.948.79-2.597 1.52l-1.675.713-1.814.752c-.52.242-3.598-.824-4.83-1.517l.509-.187a24 24 0 0 0 .232-.09c1.216.542 3.582 1.368 3.835 1.25l3.234-1.353.843-.378.737-.354c.58-.288.94-.5.962-.56.056-.155-.712-1.027-2.21-2.354.155-.012.362-.095.62-.249Zm11.57-4.728c.33.072 1.008.332 1.671.633l.283.131c.384.183.712.358.942.504.432.276.607.453.394.753-.332.469-7.727 3.735-8.295 3.431l-3.97-2.314.385-.164h.533l3.335 1.95c.215.114 5.428-2.158 7.05-2.977l.284-.151-.418-.24-.498-.25-.538-.244-.518-.216a5.95 5.95 0 0 0-.767-.26c-.422-.092-1.919-.095-4.427-.004l.444-.214h.514l.519-.433 1.255-.02c.94-.004 1.543.024 1.822.085Z"/>
    <path fill="#878793" d="M63.294 57.181c.431-1.022-11.456-7.322-13.392-7.515-1.935-.193-10.303 3.162-11.279 4.185-.975 1.022-1.345 2.252.594 3.825 1.94 1.574 8.448 5.38 9.977 5.391 1.529.012 13.67-4.864 14.1-5.886Z"/>
    <path fill="#ADADAE" d="M62.588 57.107c.427-.852-10.854-6.715-12.79-6.908-1.934-.193-9.802 3.041-10.746 3.902-.944.86-1.179 1.774.76 3.347 1.94 1.574 8.015 5.101 9.544 5.113 1.529.012 12.805-4.603 13.232-5.454Z"/>
    <path fill="#838890" d="M65.167 54.1c7.072-1.875 10.66-2.738 10.764-2.589.104.15-3.022 1.474-9.377 3.975L65.167 54.1ZM50.471 57.757c3.09.094 6.477-.68 10.162-2.323 1.267.796 2.076 1.433 1.955 1.673-.427.851-11.703 5.466-13.232 5.454-.798-.006-2.835-.97-4.876-2.115a4.415 4.415 0 0 1-.156-1.222c.005-3.82 3.686-7.79 5.024-8.109 1.338-.32-3.537 6.5 1.123 6.642Z"/>
    <path fill="#DDDFE3" d="M61.973 56.352c.133.103.246.2.34.287l-12.714 5.9a1.556 1.556 0 0 1-.243.022 2.264 2.264 0 0 1-.545-.092l13.162-6.117Zm-14.645 5.553 13.834-6.13.312.211-13.732 6.1-.414-.18Zm-1.228-.59 13.843-6.305.413.251-13.796 6.283-.46-.23Zm-1.233-.654 14.125-6.205.34.195-14.034 6.244-.431-.234Zm-1.172-.663L57.87 53.83l.445.245-14.189 6.17-.43-.247Zm-1.046-.626 14.076-6.153.442.234-14.192 6.118-.326-.199Zm-1.1-.694 14.052-6.038.465.237-14.11 6.063-.407-.262Zm-.85-.57 13.913-5.96.393.194-13.917 6.031-.388-.266Zm-1.012-.763 13.7-5.78.491.23-13.834 5.834-.357-.284Zm-.748-.718 13.367-5.55.41.182-13.487 5.673a5.34 5.34 0 0 1-.29-.305Zm12.048-6.087c.168.063.349.133.539.21l-12.942 5.394a1.94 1.94 0 0 1-.168-.36l12.57-5.244Zm-1.275-.345.087.004c.151.015.36.065.616.144l-12.063 4.865c.024-.177.088-.344.184-.506l11.176-4.507Z"/>
    <path fill="#DDDFE3" fill-rule="nonzero" d="m38.342 55.373 11.771 7.054c-.23.06-.425.1-.574.12l-11.073-6.633a1.388 1.388 0 0 1-.124-.54Zm.292-.819 12.93 7.431-.426.14-12.667-7.302c.044-.092.099-.181.163-.269Zm.977-.823 13.25 7.799-.487.175-13.15-7.736.24-.154a7.68 7.68 0 0 1 .147-.084Zm.929-.48 13.642 7.783-.464.177-13.513-7.795.335-.164Zm1.143-.524 13.785 7.803-.478.19-13.761-7.79.454-.203Zm1.185-.502 13.771 7.828-.372.153-13.862-7.79.463-.191Zm1.159-.46 13.86 7.762-.465.198-13.88-7.772.485-.188Zm1.036-.386 13.81 7.718-.45.198-13.769-7.767.409-.149Zm1.286-.441 13.765 7.593-.447.207-13.836-7.628.518-.172Zm1.153-.35 13.663 7.43-.43.215-13.671-7.519.438-.127Zm1.476-.339 13.2 7.203a7.95 7.95 0 0 1-.397.237l-13.42-7.32c.221-.05.428-.09.617-.12Zm.724-.053.097.003c1.84.183 12.138 5.498 12.77 6.749l.029.092-12.896-6.844Z"/>
    <path fill="#64737D" d="m34.291 52.921.644-.338.165.516-.611.312zM38.073 51.243l.643-.337.165.516-.611.311zM46.327 47.658l.643-.337.165.516-.611.311zM50.101 45.902l.644-.337.165.516-.611.311zM54.91 44.078c.391-.075.735-.33.78-.56.044-.23-.181-.676-.35-.688-.17-.012-1.114.19-1.367.688-.253.5.545.634.936.56Z"/>
    <path fill="#C8CFD2" d="M31.863 51.135c.151-.261 1.881-.91 2.02-.488.091.28.03.983-.187 2.108a1.832 1.832 0 0 1-.46.242c-.172.05-.918-.5-1.023-.689-.104-.189-.5-.91-.35-1.173Zm3.745-1.632c.15-.262 1.871-1.086 2.01-.664.091.28.032 1.042-.178 2.283a1.832 1.832 0 0 1-.46.242c-.171.05-.918-.5-1.022-.688-.104-.19-.501-.911-.35-1.173Zm4.07-2.02c.15-.263 1.871-1.086 2.01-.664.091.28.032 1.042-.178 2.283a1.832 1.832 0 0 1-.46.242c-.171.05-.918-.5-1.022-.689-.044-.08-1.58.176-1.618-.344-.045-.605 1.18-.677 1.268-.829Zm4.017-1.907c.079-.56 2.086-1.69 2.224-1.269.092.281-.038 1.244-.391 2.889a1.832 1.832 0 0 1-.46.242c-.172.05-.918-.5-1.022-.689-.105-.189-.429-.611-.35-1.173Zm3.772-2.527c.262-.679 1.951-1.538 2.089-1.116.092.28-.031 1.412-.37 3.395a1.832 1.832 0 0 1-.46.242c-.172.05-.918-.5-1.023-.688-.104-.19-.498-1.154-.236-1.833Zm3.752-2.546c.45-.005.786-.005 1.009 0 .334.008 1.69.545 2.09.912.398.366 1.089 1.239 1.202 1.523.075.19.075.348 0 .477a2.11 2.11 0 0 0-.537-.113c-.184-.015-.184.198 0 .64-.635-.017-1-.099-1.097-.245-.146-.22-2.177-1.757-2.38-1.975-.137-.145-.635-.145-1.495 0Z"/>
    <path fill="#ECF1F3" d="M33.882 50.647c.041.125.052.335.031.628-.256-.287-1.133-.361-1.718-.365.533-.279 1.581-.588 1.687-.263Zm3.677-1.884-.075.031c-.438.201-1.074.618-1.91 1.25l.067-.053c-.065-.195-.095-.38-.033-.488.14-.242 1.616-.962 1.95-.74Zm4.128-1.944c.02.058.032.137.038.237a4.614 4.614 0 0 0-1.656.678c-.533.082-1.118.374-1.641.635a.104.104 0 0 1-.018-.058c-.045-.605 1.18-.677 1.268-.829.15-.262 1.871-1.085 2.01-.663Zm4.231-2.514-.435.308c-.545.404-1.045.822-1.5 1.257l-.247.246a1.297 1.297 0 0 1-.04-.54c.077-.56 2.077-1.685 2.222-1.271Zm3.594-2.437-.327.2a8.108 8.108 0 0 0-1.806 1.675 1.716 1.716 0 0 1 .088-.694c.246-.636 1.745-1.43 2.045-1.181Zm1.707-1.365h1.009c.094.002.27.046.481.117-.942-.113-1.837.555-2.544.95l1.054-1.067Z"/>
    <path fill="#E0E7EC" d="M37.477 63.256c4.616 1.233 7.689 1.723 9.217 1.468 2.292-.381 8.301-2.65 9.45-3.162 1.148-.511 2.912-.863 3.66-.568 2.867-.35 13.999-2.482 15.766-3.055 1.768-.573 5.514-1.667 6.121-1.563.608.103 2.341 2.933 2.601 3.608.261.675 1.138 1.624.761 2.096-.251.315-.798.688-1.64 1.118l-29.306 4.3c-1.482 2.116-2.615 3.103-3.399 2.96-1.175-.213-10.953-5.08-11.23-5.104-.136-.011-1.453-.45-2.1-1.19-.16-.183-.127-.485.1-.908Z"/>
    <path fill="#A1AAB2" d="M59.331 61.366c-5.658 2.7-8.644 4.216-8.958 4.546-.47.496-.459 1.117-.362 1.523.065.27.396 1.09.993 2.458l-.094.008-.858-2.026c-5.925-2.404-8.902-3.464-8.93-3.18-.05.533 8.443 5.595 8.579 5.593.68-.009 3.066-.112 3.103-.14 5.887-4.523 7.367-7.409 7.31-7.587-.059-.181-.32-.58-.783-1.195Z"/>
    <path fill="#D5DFE7" d="m79.517 63.77-6.164-4.807 2.71.563c2.24.45 3.674.69 4.302.72.742.034 2.048-.06 3.917-.281l.01.02c.261.674 1.138 1.623.761 2.095-.251.315-.798.688-1.64 1.118l-3.896.571Z"/>
    <path fill="#B4BDC5" d="m79.207 63.485-5.854-4.522 1.225-.305c2.17.65 5.294 1.984 5.885 2.391.59.407.612 1.095.804 1.845l-2.06.59Z"/>
    <path fill="#A5AEB5" d="M59.91 61.544c-1.105-.302-2.02-.302-2.743 0l-1.68.69c-2.221.9-6.687 2.367-8.014 2.625-1.796.349-4.302-.017-6.142-.496-1.073-.28-2.801-.622-3.92-.96l.325.01c4.525 1.14 7.447 1.552 8.975 1.297 2.093-.349 7.273-2.271 9.03-2.979l.403-.169c1.148-.511 2.912-.863 3.66-.568l.557-.075.331-.05.017.026-.799.65Z"/>
    <path fill="#FFF" d="M36.86 63.201c3.977 1.072 6.73 1.645 8.26 1.717 1.53.073 3.121-.185 4.771-.773-1.784 1.119-3.849 1.443-6.196.972-2.347-.47-4.303-.864-5.87-1.181l-.964-.735ZM81.691 56.376c.572.097 2.141 2.61 2.54 3.468l.061.14c.102.263.297.567.475.869l-.046.042-1.998-2.61c-.616-.788-.96-1.204-1.032-1.247-.13-.078-2.64.489-7.53 1.7l-1.493-.04.103-.09 1.57-.35c.447-.104.809-.195 1.061-.268l1.5-.466c1.874-.565 4.31-1.23 4.79-1.148Z"/>
    <path fill="#DBE1E4" d="M35.408 62.63c.753-.125 2.774.634 4.07 1.191.843.363 4.36 1.739 10.551 4.128l.845 2.041c-.54.14-1.5.21-2.881.21-1.67 0-4.31-.102-7.924-.307-4.024.45-7.181.63-9.472.54-2.29-.09-5.803-.532-10.54-1.326H18.63c-.486-.084-.738-.144-.756-.179-.986-1.887-.827-2.942-.87-3.2-.068-.4-.182-.96.612-1.094.794-.134 6.883-.117 8.425 0 1.542.117 8.613-1.88 9.366-2.005Zm33.348-6.574.038.002c.485.097 11.25 5.046 11.57 5.278.215.155.463.712.747 1.672-17.01 3.223-25.87 4.924-26.578 5.102l-.035.01c-.524.168-.308 1.689-.391 1.773-.056.056-1.04.056-2.95 0l-.703-1.78.017.007c-.387-.86-.413-1.486-.077-1.88l.077-.08c.622-.58 5.928-3.064 9.334-5.166 3.405-2.102 8.504-5.033 8.989-4.936Z"/>
    <path fill="#F8FAFC" d="m38.835 63.554 2.293.935c1.565.619 4.123 1.614 7.674 2.986l.9.369-10.096-3.469c-2.478-.839-3.822-1.275-4.032-1.308-.613-.096-8.356 1.93-9.576 1.88l-.88-.023c-2.261-.042-7.365-.06-7.59.18-.175.188-.014 1.175.484 2.96a18.924 18.924 0 0 1-.948-1.475c-.062-.456-.04-.743-.06-.862l-.035-.23c-.043-.36-.001-.754.648-.863.794-.134 6.883-.117 8.425 0 1.542.117 8.613-1.88 9.366-2.005.638-.105 2.182.423 3.427.925Z"/>
    <path fill="#FFF" d="M68.794 56.058c.485.097 11.25 5.046 11.57 5.278.123.088.256.307.4.657l.034.092c-.3-.314-.754-.616-1.36-.905l-.381-.171c-1.201-.511-9.866-4.024-10.182-4.176-.306-.148-7.257 3.462-9.307 4.638l-.194.112c-1.05.619-3.108 1.63-6.174 3.033l2.8-1.471c1.316-.703 2.667-1.448 3.805-2.151l1.88-1.142c3.146-1.881 6.707-3.875 7.109-3.794Z"/>
    <path fill="#A1AAB2" d="M17.996 68.343c.846.326 1.724.207 2.634-.358 1.366-.847 3.638-1.557 4.571-1.879.933-.321 4.801 1.938 5.59 1.74.79-.198 2.737-1.694 3.42-2.372.681-.678 2.036-.748 3.647.053 1.075.535 3.896 1.905 8.465 4.11-5.412-1.422-8.464-1.973-9.157-1.652-1.04.481-5.345 1.805-6.374 1.748-1.03-.056-4.147-1.303-5.59-1.39-1.445-.087-2.098.224-4.13.574-2.033.349-2.206.1-2.457.032-.167-.046-.374-.248-.62-.606Z"/>
    <path fill="#D3D9DF" d="M18.012 68.5c.846.327 1.724.207 2.634-.357 1.366-.847 3.638-1.558 4.571-1.879.934-.321 4.801 1.938 5.59 1.74.79-.198 2.738-1.694 3.42-2.372.681-.678 2.036-.748 3.647.053 1.075.535 3.694 1.797 7.857 3.788-5.006-1.208-7.856-1.651-8.549-1.33-1.039.481-5.345 1.805-6.374 1.748-1.03-.057-4.146-1.303-5.59-1.39-1.445-.087-2.098.224-4.13.573-2.033.35-2.206.102-2.457.033-.167-.046-.373-.248-.619-.606Z"/>
    <path fill="#7A98BD" d="M86 68.133c-.206.57-.376.904-.51 1-2.39 1.717-4.285 2.128-5.476 2.338-3.62.636-7.905.529-12.213.529-6.611 0-13.113.022-13.694 0-.581-.022-3.23-.636-3.81-.621-.386.01-1.066.01-2.04 0l-.526.621h-8.78c-.366-.566-.735-.838-1.108-.816-.373.022-.666.294-.878.816h-8.982c-.474 0-1.303-1.06-1.94-1.091-.638-.032-.518.623-.73.667-.212.043-6.016-.749-9.618-2.31-3.603-1.562-5.413-2.898-5.638-4.877-.225-1.98.355-5.319.52-5.434.11-.077.294-.163.555-.256-.354.54.14 1.14 1.485 1.796 2.017.984 3.639 2.109 4.373 4.451.49 1.562.894 2.78 1.215 3.656l1.327.328c3.295-1.025 5.285-1.48 5.968-1.366 1.024.172 3.978 1.83 5.48 1.701 1.502-.129 5.323-1.93 6.714-1.826 1.392.105 8.613 2.252 9.46 2.315.848.062 5.062.203 5.606.183.544-.02 1.357-.173 1.347-.672-.01-.498-.725-1.537.378-1.89s9.7-2.158 14.175-2.7c4.475-.544 12.987-1.998 13.992-2.114 1.005-.115 1.952-.303 2.047-.192.096.11 1.075.873 1.298 2.02.15.764.15 2.012.003 3.744Z"/>
    <path fill="#89A5C6" d="M11.132 58.699c-.327.5.07 1.048 1.19 1.645l.295.15c2.017.985 3.639 2.11 4.373 4.452l.538 1.682c.166.508.32.963.46 1.365-.25.282-.594.306-1.031.07-3.205-1.126-5.522-2.698-6.953-4.716.004-1.93.435-4.295.573-4.392.11-.077.294-.163.555-.256Z"/>
    <path fill="#A1B6D0" d="M11.132 58.699c-.327.5.07 1.048 1.19 1.645l.295.15c2.017.985 3.639 2.11 4.373 4.452l.322 1.004c-.939-.351-2.32-1.147-4.144-2.386-1.512-1.028-2.487-2.066-2.927-3.115l.128-.75c.084-.431.162-.712.208-.744.11-.077.294-.163.555-.256Z"/>
    <path fill="#58789E" d="m51.515 69.92 1.806.536-.079 1.417-1.847-.348c-.492-.088-.907-.151-1.098-.146l-.95.007c-.31 0-.672-.003-1.09-.007l-.526.621-.305-.001 2.296-2.134 1.793.054Z"/>
    <path fill="#9EB0C6" d="M37.694 67.44c1.392.104 8.613 2.251 9.46 2.314l1.086.055c.686.028 1.56.06 2.36.084.046.086.04.15-.026.185-.664.364-6.11.946-10.415.92l-11.67-.246c-3.524-.08-5.728-.13-6.489-.25-.966-.152-2.464-.644-2.704-1.385l-.063-.262.299.075 1.05-.32c2.671-.799 4.31-1.147 4.918-1.046 1.024.172 3.978 1.83 5.48 1.701 1.502-.129 5.323-1.93 6.714-1.826Z"/>
    <path fill="#CFD8DA" d="m84.366 62.351.307.001.026.017c.096.11 1.075.873 1.298 2.02.095.486.13 1.167.105 2.043-.732.616-2.965 1.238-6.702 1.868-7.558 1.273-23.598 1.337-24.695 1.049a1.175 1.175 0 0 1-.675-.454c-.153-.532-.418-1.24.455-1.52 1.103-.353 9.7-2.158 14.175-2.7 4.475-.544 12.987-1.998 13.992-2.114.629-.072 1.234-.173 1.623-.21Z"/>
    <path fill="#AFBDD3" d="m86.056 67.396-.335.208c-1.826 1.064-4.208 1.827-7.148 2.289-3.43.538-8.088.894-13.973 1.066-6.608.122-11.128-.23-13.56-1.054l1.485.033c.105.001.185 0 .235-.001.544-.02 1.357-.173 1.347-.672a1.21 1.21 0 0 0-.048-.272c.246-.061.506-.121.774-.181l31.275-2.669c-.005.378-.023.795-.052 1.253Z"/>
    <path fill="#C7D0DD" d="M79.076 68.063c-11.559 1.41-18.622 2.081-21.188 2.015-2.07-.053-3.727-.104-4.969-.151.531-.042 1.197-.21 1.188-.662a1.21 1.21 0 0 0-.048-.272c.246-.061.506-.121.774-.181l.392-.035Z"/>
    <path fill="#4A616F" d="M78.648 63.978c.085.488.272.457 0 1.376-.272.92.09 1.685.378 2.21-.911.284-9.252.696-25.021 1.238-.154-.517-.344-1.163.48-1.427 1.103-.353 9.7-2.158 14.175-2.7 3.073-.374 8.05-1.177 11.193-1.68-.852.38-1.253.708-1.205.983Z" opacity=".5"/>
    <path fill="#A2B0B9" d="M83.057 67.498c-1.231.348-15.84 1.751-18.54 1.848-2.698.096-7.105.339-8.862.264-.76-.032-1.25-.177-1.55-.363l.002.018c-.005-.247-.184-.628-.228-.991.214-.168.63-.294 1.249-.379-.464.339-.314.527.448.566 1.144.057 10.939-.574 15.886-.963 2.297-.18 4.881-.488 7.483-.723.322.657 6.46-.502 6.768-.667.575-.307-1.426 1.043-2.656 1.39Z"/>
    <path fill="#D7DEE8" d="M76.424 63.948c-.68-.065-1.586.134-3.797.365-2.21.23-7.805 1.167-10.204 1.64-2.4.473.076.402 1.724.14 1.648-.263 8.869-1.24 10.77-1.46 1.9-.218 2.187-.62 1.507-.685Z"/>
    <path fill="#5B6D7A" d="M78.648 65.354a2.456 2.456 0 0 0-.06.953l-19.02 1.741c-3.18.072-3.412-.112-.694-.55 2.718-.438 9.452-1.393 20.202-2.864l-.287.038c-.006.152-.045.358-.141.682Z"/>
    <path fill="#9BACB9" d="m84.66 62.352.04.017.329.318c.335.344.82.938.968 1.702.09.46.126 1.096.108 1.907l-1.7.148c.761-.218.782-.46.797-.631.047-.564.05-1.057.007-1.481-.033-.33-.252-1.005-.801-1.793-.042-.06-1.87.235-4.927.585-.093.01-.16.002-.199-.025l4.987-.748.392.001Z"/>
    <path fill="#F4F4F4" d="m37.874 65.685 1.838.897c.708.343 1.572.76 2.593 1.25l-4.002-1.712c-1.168-.484-1.816-.726-1.944-.727l-.39-.007c-.439 0-.996.043-1.397.382-.536.452-3.206 2.283-3.618 2.295a1.344 1.344 0 0 1-.278-.051l.132-.008c.79-.198 2.737-1.694 3.418-2.372.682-.678 2.037-.748 3.648.053Zm-10.722 1.027 2.127.882-2.18-.682c-.79-.238-1.442-.411-1.637-.39-.448.046-2.715.727-4.249 1.304 1.36-.706 3.191-1.282 4.004-1.562.345-.119 1.092.115 1.935.448Z"/>
    <path fill="#979797" fill-rule="nonzero" d="m60.072 47.877 2.852 2.388-.642.766-2.852-2.387z"/>
  </g>
</svg>
