<svg xmlns="http://www.w3.org/2000/svg" viewBox="0 0 96 96">
  <defs>
    <path id="a" d="M0 0h96v96H0z"/>
  </defs>
  <g fill="none" fill-rule="evenodd">
    <path fill="#343232" d="M75.546 29.257c.29.642.143 2.125.12 2.855l-.027 1.058c-.013.318-.037.577-.093.708-.114.26-.276.958-.472 1.252l-.158.23c-.093.145-.153.282-.118.475l.045.156c.15.393.155.939 0 1.151.312.028.58.256.822.601.162.231.36.676.594 1.335-1.106.608-2.236.889-3.39.843-1.153-.046-2.699-.41-4.637-1.092l-.019-.863c-.017-1.613.087-2.559.314-2.836.395-.486 2.14-1.529 2.688-1.787.547-.258 1.467-.592 1.84-.49.092-.486.103-1.286 0-1.908-.103-.622.372-1.667.865-2.04s1.336-.29 1.626.352Zm-.42.994c-.004-.75-.835-.776-1.14-.509-.268.234-.289.865-.266 1.32l.012.182c.023.3.005.863-.055 1.688.458.237.72.436.786.597.1.242.287.57.41.483.084-.058.138-.538.167-.954l.065-1.654c.012-.397.022-.82.02-1.153Z"/>
    <path fill="#4D4C4C" d="m72.918 32.835.068.081-.737.485c-1.494.998-2.32 1.649-2.48 1.953-.184.35-.314.937-.391 1.76-.506-.567-.847-1.085-1.024-1.554.048-.204.105-.347.173-.43.395-.486 2.14-1.529 2.688-1.787.488-.23 1.275-.521 1.703-.508Z"/>
    <path fill="#1B1818" d="M75.546 29.257c.29.642.143 2.125.12 2.855l-.027 1.058-.022.35c-.01.103-.023.193-.041.265l-.03.093c-.114.26-.276.958-.472 1.252l-.158.23c-.093.145-.153.282-.118.475l.045.156c.14.368.154.868.028 1.106l-.17.04c-.048.01-.083.01-.1.001-.092-.05-.468-.926-.382-1.33.086-.405.588-1.45.383-1.978l-.037-.088c.098.18.22.332.309.27.083-.058.137-.538.166-.954l.065-1.654c.012-.397.022-.82.02-1.153-.003-.75-.834-.776-1.14-.509-.267.234-.288.865-.265 1.32l.012.182c.023.3.005.863-.055 1.688l.067.036-.697-.003c-.232-.004-.845.067-1.546.457l-.5.3c-.75.476-1.76 1.212-2.078 1.632-.398.524.167 1.799.743 2.18.534.353 3.11.695 4.065.626l.19-.024c.49-.097 1.084.28 1.781 1.127l.032.078a6.256 6.256 0 0 1-2.865.58c-1.153-.046-2.699-.41-4.637-1.092l-.019-.863c-.017-1.613.087-2.559.314-2.836.395-.486 2.14-1.529 2.688-1.787.547-.258 1.467-.592 1.84-.49.092-.486.103-1.286 0-1.908-.103-.622.372-1.667.865-2.04s1.336-.29 1.626.352Z"/>
    <path fill="#E7E6ED" d="M62.092 22.46c.874.407.516 1.81-.275 3.054l-.154.231c-.596.864-1.317 2.046-2.163 3.547-.04.068-.007.148.1.239l.093.07c.269.182 1.563 1.077 1.736 1.2.172.124.532.612.569 1.223.028.129 1.57 1.135 1.861 1.633.194.331.4 1.128.615 2.39l3.634 2.208c.281.159.54.29.774.395l.59.243c.604.243 1.634.628 2.416.616l1.281-.03c.812-.027 1.632-.071 1.91-.148.436-.12 1.506-.792 1.937-.88.43-.086.936.301 1.01.68.156.294.525 1.576.824 2.664l.444 1.677c.246.98.552 2.289.681 2.735l.033.107c.119.34.434 1.139.481 1.413l.018.195c.057.837.159 3.951-.018 5.272-.131.984-.576 2.402-1.333 4.254l-7.268-.455-20.871 6.895-3.303-.405c-5.478-.648-8.429-.859-8.853-.631l-.16.13c-.55.394-2.543 1.325-5.974 2.79l-5.973-1.489-8.692 2.04-1.023-.557c-3.262-1.81-5.064-3.147-5.406-4.013-.377-.952-.543-1.873-.498-2.763a9.154 9.154 0 0 1 3.378-2.8c2.028-.987 10.383-2.53 12.607-2.996.627-.286 1.3-.612 2.019-.976l.245-.485.446-.084c.322-.07.521-.14.598-.21l.031-.043c.067-.169 1.053-.836 1.579-1.045.35-.14 1.01-.298 1.977-.476l1.173-.784c1.316-.862 2.197-1.37 2.644-1.525.568-.198 1.518-.41 2.85-.64.507-.832 1.037-1.39 1.59-1.674l1.939-1.014c.301-.152.558-.273.718-.33.32-.115.748-.177 1.285-.188l1.118-1.93c.18-.301.298-.49.354-.568.204-.278 1.126-.356 1.25-.483.126-.127.426-.958.472-1.23.032-.181.34-.534.925-1.057-.59.004-.898-.062-.925-.197-.04-.202.155-.808.487-.924l1.382-.47.334-.684-.334.235c-.07-.064-.078-.193-.022-.385.055-.192.33-.669.823-1.432.596-.871.971-1.376 1.125-1.515.346-.313 1.586-.891 1.707-1.056.121-.165.902-.895 1.416-1.422.342-.352.882-.652 1.62-.901l.397-.796h.394c.195-.398.307-.824.336-1.278l.06-.79c.1-1.168.315-3.094.686-3.663.482-.74 1.345-1.144 2.273-.713Zm-.308 1.651c.306-1.12-.361-1.416-.989-1.053-.579.334-.843 2.081-.937 3.045l-.02.223c-.07.886-.433 2.146-.416 2.187.013.033.439-.702.708-1.242l.15-.32c.212-.494 1.198-1.719 1.504-2.84Z"/>
    <path fill="#DFDEE7" d="M56.603 34.121c-.922-.413-.53 1.207.716 1.803 1.246.596 4.66 2.251 3.614 2.898-1.047.647-3.804 1.284-3.912 2.391-.109 1.107-.022 3.161-1.433 3.491-1.41.33-7.307 2.949-9.04 4.56-1.733 1.612-6.447 6.088-7.724 7.509-1.277 1.42-6.03 1.662-7.962 1.517-1.933-.146 2.079 4.896 5.952 5.188 3.873.292 21.293-5.94 23.861-7.418 2.569-1.478 17.572-10.089 18.386-11.816.815-1.728-.89-2.223-2.011-2.182-1.122.042-3.58 1.198-2.293.013.462-.425 3.652-2.044 3.313-2.173-.605-.23-5.395 1.247-6.785 1.073-2.167-.272-5.575-2.587-6.713-3.208-1.14-.622-7.047-3.232-7.969-3.646Z"/>
    <path fill="#C6C6CC" d="M56.002 33.488c-.04-.458 2.142.027 4.34 1.231l.87.488c1.869 1.075 3.701 2.276 6.602 3.901 3.346 1.875 4.301 1.594 5.587 1.463 1.287-.13 4.202-.94 4.501-1.24l.144-.147-.02-.053c.059.11.148.363.253.692l-.444.26c-.25.142-.547.303-.886.485l-.355.187c-5.441 1.6-5.088 4.295-2.022 3.486 4.082-1.73 4.724-1.58 4.079-.95l-.155.669c-.916.942-2.793 2.97-3.095 3.504-.347.615-11.627 4.083-15.98 3.979-2.745-.066-7.278 3.6-13.6 10.997l-.642.755-1.398-.146c-2.624-2.158-3.239-4.81-1.845-7.952 2.321-5.234 9.473-8.433 12.5-9.195 3.026-.762 6.022.541 7.316-.455 1.293-.997-6.377-3.148-7.618-5.262-.828-1.41-.772-2.433.166-3.07 2.44 1.54 4.34 2.49 5.705 2.854l.903.216c2.096.543 10.498 3.91 8.375 1.743-1.692-.731-5.645-4.276-8.724-5.465l-.34-.126c-3.156-1.116-4.177-2.39-4.217-2.849Z"/>
    <path fill="#838289" d="m78.743 42.948 1.115 2.818c-.207.111-.481.403-.823.877-.273.38-.55.84-.83 1.381l-.213.422-4.957-2.333 1.065-.65c.509-.315.981-.612 1.417-.893.635-.41 1.538-.875 2.708-1.395l.518-.227Z"/>
    <path fill="#4D4A4B" d="m59.63 29.554.063.047c.269.182 1.563 1.077 1.736 1.2.172.124.532.612.569 1.223.028.129 1.57 1.135 1.861 1.633.191.327.393 1.105.606 2.334l-1.226-.702c-.828-.464-1.687-.93-1.852-.99l-3.178-1.424c-.14-.045-1.394-.518-2.327-.561-.708-.033-1.641.45-2.24.838l.427-.618.607-.34c.12-.073.207-.132.234-.17.121-.165.902-.895 1.416-1.422.342-.352.882-.652 1.62-.901l.397-.796.301.002c.452.393.781.608.987.647Z"/>
    <path fill="#0A0606" d="M54.932 32.19c.344-.164 1.087-.53 1.68-.747 1.673-.61 3.706-.66 4.029-.593.447.094 1.027.342 1.073.673.031.22.08.38.147.481-.354.106-.47.253-.347.444.184.286 1.013 1.16 1.072 1.427.04.179.117.672.231 1.479-1.428-1.056-2.648-1.792-3.658-2.21-.735-.305-1.927-.639-2.937-.723-1.076-.089-1.93.073-1.29-.232Z"/>
    <path fill="#2B2829" d="M55.454 31.807c1.153-.409 1.862-.73 2.125-.965.264-.234.666-.596 1.206-1.085-.156.59-.353.95-.593 1.085-.358.202.155.237.593 0 .438-.237 1.525-.395 1.74-.372.216.024-.666-.546-.992-.713-.217-.11-.411-.167-.582-.17-.126-.143-.182-.24-.166-.29.023-.074-.225-.312-.34-.207-.113.105-.127.51-.253.667-.125.159-.316.279-.613.333-.296.054-.942.342-1.244.752a7.948 7.948 0 0 1-.881.965Z"/>
    <path fill="#0A0606" d="M57.825 32.359c.754.266 3.857 1.924 4.776 2.486l1.868 1.165.005.037 3.634 2.208c.281.159.54.29.774.395l.59.243c.604.243 1.634.628 2.416.616l1.281-.03c.812-.027 1.632-.071 1.91-.148.436-.12 1.506-.792 1.937-.88.326-.065.694.14.886.409-.02.13-.053.211-.097.248-.122.1-3.565 1.235-4.992 1.326-1.426.091-3.143-.497-4.816-1.5l-6.528-3.979-2.109-1.173c-.826-.45-1.78-.879-2.352-1.022-.572-.143-1.56-.207-2.22.04-.906.34-1.524.926-2.182 1.982l-1.153 1.402a1.617 1.617 0 0 1-.147.203l-.029.025c-.096.094-.148.025-.156-.207-.008-.232.31-.769.957-1.61l.522-.749c.3-.418.5-.674.603-.766.272-.247 1.098-.657 1.497-.9l-.058.011c.562-.142 2.429-.098 3.183.168Z"/>
    <path fill="#4C4A4A" d="m66.966 37.601.07.002 1.072.652c.281.159.54.29.774.395l.59.243c.604.243 1.634.628 2.416.616l1.281-.03c.812-.027 1.632-.071 1.91-.148.436-.12 1.506-.792 1.937-.88.297-.06.63.107.831.34-.133.14-.434.25-.73.343l-.965.297c-.876.259-2.261.624-3.166.611a8.017 8.017 0 0 1-4.228-1.241l-1.09-.7a7.916 7.916 0 0 1-.702-.5Z"/>
    <path fill="#8F8F8F" d="M57.825 32.359c.754.266 3.857 1.924 4.776 2.486l1.868 1.165.005.037 3.634 2.208c.281.159.54.29.774.395l.59.243c.604.243 1.634.628 2.416.616l1.281-.03.706-.029c.34-.017.65-.038.882-.065l-1.183.184c-.751.109-1.281.165-1.59.168l-.513-.017c-.62-.037-1.58-.214-3.814-1.524l-3.394-2.026-3.34-2.04c-.807-.488-2.717-1.596-3.688-1.765-1.122-.196-2.187-.171-2.908.143-.402.175-.873.48-1.415.917l.172-.218c.049-.057.088-.1.119-.127.233-.211.874-.543 1.303-.787l.186-.111.155-.028c.72-.094 2.3-.035 2.978.205Z"/>
    <path fill="#202020" d="M73.613 46.45c.701-.61 1.455-1.247 2.261-1.91 1.21-.996 2.896-1.842 3.235-1.926.338-.084.587.675.66 1.051.072.376.421 1.597.398 1.72-.024.125-.126.396-.398.486-.273.09-1.745 1.113-2.08 1.482a7.562 7.562 0 0 0-.555.677l-3.521-1.58Z"/>
    <path fill="#7A7A7A" d="m76.89 47.464 2.968-1.91-2.589 1.91z"/>
    <path fill="#8F8F8F" d="M74.055 46.472c.078-.03 2.038-2.292 4.98-3.613-1.087.675-3.434 2.216-4.634 3.718-.288.186-.424-.074-.346-.105Z"/>
    <path fill="#732525" d="m79.466 43.512.353.378.205.812-.296-.32.099.363-.323.205-.346-.298.146.445-.319.215-.429-.364.152.553-.325.203-.501-.442.063.716-.323.175-.46-.363.167.708-.314.206-.627-.462.071 1.008a.2.2 0 0 1-.11.192l-.076.021a.2.2 0 0 1-.192-.109l-.021-.077-.1-1.44.32-.174.534.395-.17-.733.318-.202.544.429-.063-.75.332-.167.367.323-.144-.528.322-.206.384.326-.15-.455.321-.214.393.337-.142-.517.34-.19Z"/>
    <path fill="#D0D0D0" fill-rule="nonzero" d="M41.854 48.99a.2.2 0 0 1 .043.28l-2.657 3.62c-.35.477-2.573 3.128-3.378 4.015l-.141.152c-1.168 1.233-1.717 2.129-1.316 2.504.451.423 1.326 1.399 2.63 2.935a.2.2 0 1 1-.304.259l-1.153-1.339c-.673-.77-1.156-1.29-1.447-1.563-.636-.596-.149-1.495 1.05-2.803l.25-.268c.59-.623 2.82-3.271 3.394-4.008l2.75-3.741a.2.2 0 0 1 .28-.043Z"/>
    <path fill="#970808" d="M51.455 36.496c.107.015.156.078.146.19-.032.384-.76 1.37-.89 1.48l-.382.284c-.585.006-.894-.06-.92-.195-.04-.202.154-.808.486-.924l1.382-.47.178-.365Zm10.637-14.035c.874.406.516 1.81-.275 3.053l-.154.231c-.596.864-1.317 2.046-2.163 3.547-.04.068-.007.148.1.239l.093.07c-.2-.05-.48-.21-.838-.478l-.28-.219.162.001c.195-.398.307-.824.336-1.278l.06-.79.06-.638c.116-1.135.317-2.55.626-3.025.482-.74 1.345-1.144 2.273-.713Zm-1.297.597c-.579.334-.843 2.081-.937 3.045l-.02.223c-.07.886-.433 2.146-.416 2.187.013.033.439-.702.708-1.242l.15-.32c.212-.494 1.198-1.719 1.504-2.84.306-1.12-.361-1.416-.989-1.053Z"/>
    <path fill="#7A7276" d="m52.552 37.722.221-.36c.527-.804 1.24-1.332 1.832-.619l.127.172c.718 1.086 2.316 1.962 3.872 2.932 1.556.971 9.828 2.85 11.438 3.788 1.073.625 2.127 1.524 2.667 2.56l-1.915.128c-1.1.006-2.154.15-3.078.132-.263-.25-.96-.535-2.225-.97l-3.492-1.174c-2.174-.743-4.807-1.668-5.786-2.096-.925-.404-2.064-1.247-3.418-2.528-.034 2.96-.512 4.816-1.518 5.867-1.509 1.577-4.631 2.38-5.005 2.476l-1.69.419c-.04.009-.071.015-.088.017-.15.023-2.123 1.16-2.627 1.556l-.256.234c-.901.878-3.403 3.588-4.024 3.763-.7.196-1.982-.023-3.237-.153-1.256-.13-5.885-.03-6.757-.088-.409-.027-.438-.282-.085-.763l.927-.446c.23-.113.464-.23.704-.351l.245-.485.446-.084c.322-.07.521-.14.598-.21l.031-.043c.067-.169 1.053-.836 1.579-1.045.171-.068.416-.14.734-.218l1.975 1.204 5.648-2.87 7.124-2.697 2.992-2.495.506-1.567c.69-2.087 1.201-3.416 1.535-3.986Z"/>
    <path fill="#C9C4C8" d="m52.552 37.722.221-.36c.527-.804 1.118-1.324 1.71-.61l.126.171c.718 1.086 2.515 2.243 4.002 3.098 1.487.856 9.87 2.856 11.48 3.793 1.072.625 1.879 1.455 2.419 2.491l-1.716.018c-1.1.006-2.111 0-3.035-.018-.264-.25-.96-.535-2.226-.97l-3.491-1.174c-2.175-.743-4.808-1.668-5.787-2.096-.924-.404-2.063-1.247-3.417-2.529-.035 2.96-.555 4.967-1.56 6.018-1.51 1.577-4.632 2.38-5.006 2.476l-1.69.419c-.04.009-.071.015-.088.017-.15.023-2.123 1.16-2.627 1.556l-.256.234c-.901.878-3.403 3.588-4.024 3.763-.7.196-1.982-.023-3.237-.153-1.256-.13-5.885-.03-6.757-.088-.409-.027-.438-.282-.085-.763l.927-.446c.23-.113.464-.23.704-.351l.245-.485.446-.084c.322-.07.521-.14.598-.21l.031-.043c.067-.169 1.053-.836 1.579-1.045.171-.068.416-.14.734-.218l1.975 1.204 5.648-2.87 7.124-2.697 2.992-2.495.506-1.567c.69-2.087 1.201-3.416 1.535-3.986Z"/>
    <path fill="#5A5758" d="m33.043 50.301 1.704 1.036 5.648-2.87 7.124-2.697 2.992-2.495.506-1.567c.312-.946.588-1.736.828-2.37l.036-.008.92 1.29c-.138 2.372-.646 4.016-1.524 4.934-1.509 1.577-4.631 2.38-5.005 2.476l-1.778.436c-.15.023-2.123 1.16-2.627 1.556l-.256.234-.608.612c-1.118 1.143-2.916 2.682-3.427 2.826-.622.174-1.722.16-2.837.032-1.194-.03-2.157-.047-2.888-.049-.327-.1-.683-.087-.884-.2-1.212-.676.55-1.518 1.054-1.967l.068-.067c.086-.097.404-.478.954-1.142Z"/>
    <path fill="#514E4E" d="M54.178 33.408c.57-.02.885.493.87.787-.016.294-.465 1.566-.649 1.899l-.334.506c-.438.675-1.132 1.904-1.196 3.47-.088 2.136-.484 3.99-1.85 5.484-1.365 1.494-4.414 2.097-5.612 2.47-1.197.373-2.86 1.315-3.434 1.68l-.316.22c-1.05.752-3.894 2.909-4.843 3.27-1.076.41-4.688.281-5.056.192-.327-.078-.21-.767-.198-1.046l-.002-.083c-.028-.18.118-.878 0-.86-.118.017-1.94.786-2.08.86-.066.035-.146-.044-.24-.235l.146-.289.446-.084c.322-.07.521-.14.598-.21l.031-.043c.067-.169 1.053-.836 1.579-1.045.35-.14 1.01-.298 1.977-.476l1.173-.784.737-.475c.914-.576 1.55-.926 1.907-1.05.568-.198 1.518-.41 2.85-.64.507-.832 1.037-1.39 1.59-1.674l1.939-1.014.412-.2c.122-.057.226-.101.306-.13.32-.115.748-.177 1.285-.188l1.118-1.93.313-.508.041-.06c.204-.278 1.126-.356 1.25-.483.126-.127.426-.958.472-1.23l.21-.274.433-.521.282-.262h-.06l.4-.48c.295-.366.608-.964.938-1.795.23-.513.466-.918.705-1.216l.277-.33c.44-.507 1.13-1.206 1.585-1.223Z"/>
    <path fill="#2F2F2F" d="M51.058 38.12c.36.121.186 3.014-.27 4.33-.457 1.315-3.251 2.865-5.103 3.777-1.85.912-4.267 1.624-5.907 2.724-1.641 1.1-4.918 2.386-5.438 2.477-.347.061-.74-.068-1.18-.386-.442-.14-.686-.25-.733-.33-.072-.118 1.73-.637 2.178-.653.299-.011.889.03 1.77.125.393-.174.602-.375.627-.602l.04-.536a.52.52 0 0 1 .074-.236c.102-.144 1.257-1.153 1.708-1.305.301-.1.936-.2 1.904-.296v.296c-.959.013-1.546.102-1.763.266l-.658.5c-.4.317-.812.682-.813.855 0 .287.184.388.738.124l1.898-.978c.785-.41 1.52-.798 1.597-.836.155-.075.056-.78 0-1.13-.055-.352.536-.824.694-.878.159-.053-.228.343-.278.5-.049.157.095.449.278.377.184-.072.937-.777 1.067-1.05.13-.272.306-.51.78-.684.473-.174 1.644.105 1.875.242.23.137.103.351 0 .319l-.31-.117c-.315-.114-.787-.261-1.062-.202-.41.088-.819.33-.995.615l-.221.364c-.118.21-.199.402-.097.435.163.053 1.98-.74 2.386-.871l.363-.1c.51-.13 1.237-.299 1.312-.443.095-.186-.53-.128-.68-.242-.149-.115-.387-.779-.21-.601.176.177.565.365.575.162l.03-.316c.037-.25.116-.513.285-.373.224.186.67-.042.673.164l-.02.1c-.133.369.345.546.704.263.319-.253.093-.27-.148-.451l-.464-.41c-.222-.212-.42-.467-.36-.76.094-.47.399-.389.724-.36.326.03.425-.096 0-.254l-.33-.128c-.32-.14-.55-.309-.127-.501.502-.228.418-.119.616-.031l.089.03c.316.086 1.062.422 1.01.527l-.06.168c-.025.054-.065.094-.143.085l-.091-.028c-.246-.109-.462-.027-.463.133 0 .159.488.423.463.686l-.017.235c-.014.107-.05.158-.19.08l-.096-.064c-.329-.24-.625-.274-.531 0 .093.274.414.457.531.413l.155-.073c.208-.116.54-.365.656-.817l.47-1.722c.095-.353.174-.661.204-.825l.037-.434c.017-.314.013-.67-.163-.535-.252.192-.825.872-1.056.874a.285.285 0 0 1-.23-.12l.046-.18.21-.273.433-.521.282-.262h-.06l.065-.078c.288-.182.566-.304.72-.253Z"/>
    <path fill="#222327" d="M54.178 33.408c.57-.02.885.493.87.787-.016.294-.465 1.566-.649 1.899l-.334.506c-.438.675-1.132 1.904-1.196 3.47-.088 2.136-.484 3.99-1.85 5.484-1.365 1.494-4.414 2.097-5.612 2.47-1.197.373-2.86 1.315-3.434 1.68l-.316.22-2.267 1.645c-1.025.73-2.07 1.432-2.576 1.625-1.076.41-4.688.281-5.056.192-.323-.077-.91-.37-.896-.655.009-.19.33-.521.964-.994.638-.582 1.357-.773 1.807-.957l.218-.076c.883-.248 4.53-2.04 5.823-2.583l.225-.09c.961-.365 4.49-2.02 6.238-2.667l.306-.109c1.602-.543 3.787-2.1 3.83-3.164l.05-1.295c.049-.998.143-2.164.382-2.883l-.033.059c.296-.366.609-.964.94-1.795.23-.513.465-.918.704-1.216l.277-.33c.44-.507 1.13-1.206 1.585-1.223Z"/>
    <path fill="#CAC6CC" d="M15.749 57.794c.668.296 3.655.25 6.898-.271l.488-.082c3.426-.597 6.645-.815 9.37 1.252 1.816 1.378 3.252 2.701 4.309 3.969L33.63 65.23l-1.215.463-5.662-1.41-8.692 2.04-1.023-.557-.982-.556c-2.643-1.53-4.118-2.682-4.424-3.457-.377-.952-.543-1.873-.498-2.763a9.142 9.142 0 0 1 3.131-2.675c.617.822 1.11 1.314 1.483 1.479Z"/>
    <path fill="#1D1A21" d="m51.881 63.441 7.48-2.253 6.05-12.77c-6.899-3.085-12.935-2.792-18.108.88-5.173 3.672-8 8.535-8.479 14.59l13.057-.447Z"/>
    <path fill="#722323" fill-rule="nonzero" d="m61.493 49.46-.328-.106-.129-.572-.35.465-.345-.043-.319-.752-.4.61-.344-.017-.33-.623-.34.625-.354-.007-.314-.636-.329.64-.343.02-.438-.644-.242.606-.356.03-.404-.65-.318.635-.344.024-.416-.607-.211.564-.35.045-.423-.591-.217.709-.336.08-.525-.551-.164.645-.336.091-.436-.442-.08.71-.321.135-.703-.537-.122.8-.344.106-.452-.482-.13.772-.313.13-.465-.336.001.787-.32.16-.483-.367.015.673-.294.18-.591-.315v.82l-.284.181-.45-.209.002.602-.248.194-.604-.148.128.707-.256.227-.612-.192.263.735-.249.258-.602-.195.201.632-.19.26h-.657l.286.665-.176.28-.698.027.458.795-.173.3-.811-.001.369.634-.173.3h-.516l.355.722-.18.289-.723-.001.493.745-.167.31-.418-.001.48.63-.16.321-.904-.001.343.468a.2.2 0 0 1 .01.221l-.053.059a.2.2 0 0 1-.22.01l-.06-.053-.575-.785.16-.319.895-.001-.477-.627.159-.321.446-.002-.49-.743.166-.31.774-.001-.354-.722.18-.288h.488l-.368-.633.173-.3.811-.001-.45-.782.167-.3.737-.028-.29-.676.183-.28h.685l-.234-.738.252-.251.584.185-.26-.727.248-.258.676.211-.123-.685.244-.23.655.159.002-.659.284-.181.448.208v-.837l.294-.177.584.31-.015-.743.32-.163.489.368.001-.77.317-.162.52.374.144-.853.343-.104.445.475.113-.727.32-.128.687.525.092-.771.341-.117.479.486.166-.65.338-.09.538.564.238-.769.354-.057.438.614.214-.568.352-.043.442.641.327-.65.348-.016.385.616.236-.585.35-.038.46.677.358-.692.357.004.315.64.335-.61.353.002.344.652.423-.638.351.032.328.778.404-.533.355.077.147.66.58-.514.332.145.018.753.514-.356.31.122.154.724.738-.299a.2.2 0 0 1 .217.044l.044.066a.2.2 0 0 1-.043.217l-.067.044-.957.39-.272-.143-.144-.667-.571.399-.314-.16-.017-.695-.509.456Z"/>
    <path fill="#696372" d="M49.324 51.641c3.797-2.654 8.649-2.798 14.556-.431l-4.519 9.978 4.186-9.74c-5.685-2.337-10.496-2.118-14.433.658-1.833 1.292-3.303 2.826-4.409 4.603a15.491 15.491 0 0 1 4.62-5.068Z"/>
    <path fill="#9C98A2" d="M64.918 48.447c-3.45-1.482-6.67-2.13-9.66-1.944-2.99.186-5.893 1.355-8.71 3.507 3.398-2.315 6.608-3.424 9.631-3.33 3.023.096 5.936.761 8.74 1.997v-.23Z"/>
    <path fill="#4D1414" d="m51.881 63.441 7.48-2.253 4.217-9.267c-5.585-2.414-10.276-2.294-14.073.36-3.796 2.655-6.187 6.49-7.171 11.508l9.547-.348Z"/>
    <path fill="#230E0E" d="M33.111 64.254c1.153-.857 1.88-1.395 2.182-1.614.453-.328 2.675-1.732 3.922-1.612 1.248.121 10.265 1.107 10.718 1.105.406-.092 1.02-.26 1.84-.502.315-.479.678-.797 1.091-.954.413-.157 2.093-.615 5.039-1.373 2.694-5.15 4.67-8.302 5.932-9.459-.607 1.75-2.297 5.374-5.07 10.874l-7.897 3.564c-8.263-1.081-12.45-1.618-12.563-1.612-.112.007-1.693.802-4.742 2.386l-.452-.803Z"/>
    <path fill="#120F10" d="M80.447 57.064c.12-.216.475-1.179.581-2.292.07-.742.07-2.23 0-4.464l-.264-.145.085-.23.18-.095c-.05-1.424-.138-2.17-.265-2.239-.19-.103-3.07-.642-3.708-.862-.638-.22-5.876-1.44-7.953-1.134-2.077.306-2.934.197-6.177 5.438-2.163 3.495-3.913 6.759-5.252 9.793L72.5 57.37c5.217-.06 7.866-.162 7.946-.306Z"/>
    <path fill="#282527" d="m81.057 51.182-.001.104.019.954c.017 1.186.001 2.03-.047 2.532a8.079 8.079 0 0 1-.168 1.032.628.628 0 0 1-.271.092l-.287-.001c-1.452-.06-7.064-.686-8.33-.533l-.543.08c-1.651.267-4.75.917-5.334.458-.656-.517 3.476-4.787 5.023-5.614 1.383-.74 8.156.56 9.939.896Zm-7.177-4.605 2.359.516c1.202.27 2.761.624 4.678 1.063l.044.422c.02.24.037.527.052.858l.335.1c-2.947-.899-5.595-1.59-7.947-2.072l-1.036-.204c-2.407-.449-3.497-.438-4.782.004l-.528.2c-1.727.704.484-.845 1.3-1.159.814-.314 3.638-.122 5.525.272Z"/>
    <path fill="#312D30" d="M81.081 50.421a357.436 357.436 0 0 0-3.947-.884c-1.884-.411-5.89-1.146-6.87-1.03-.98.117-1.637.22-2.857 1.221-.813.668-2.429 3.03-4.846 7.083 2.79-4.9 4.583-7.538 5.379-7.913 1.194-.563 2.142-.937 4.033-.657 1.26.187 4.297.794 9.108 1.82v.36Z"/>
    <path fill="#000" d="m81.023 49.839-.174.094-.064.17-6.32-1.245c-1.766-.332-3.77-.645-4.855-.405-1.381.306-2.679.918-4.59 4.112-1.275 2.129-2.328 4.015-3.16 5.66l7.838-2.344c1.149-.335 1.808-.517 1.976-.545l.032-.004c.326-.011 8.153.781 8.462.777.234-.003.645-.935.903-2.131-.009.324-.023.588-.043.794-.106 1.113-.46 2.076-.58 2.292-.063.112-1.671.198-4.825.26l-1.209-.12a176.93 176.93 0 0 1-2.81-.314l-10.671 2.502.918-1.755c1.847-3.5 3.108-5.717 3.783-6.65l.452-.61c.952-1.246 1.78-1.987 3.578-2.323 1.366-.254 5.152.34 11.359 1.785ZM13.775 61.297c.769-1.033 1.887-1.622 3.353-1.768 2.2-.22 4.866-.512 6.988-.694 2.121-.181 4.437-.089 7.374 2.098 1.958 1.458 3.11 2.575 3.455 3.35-.79.625-1.5 1.032-2.13 1.221-.942.284-4.494-1.755-6.08-.964-1.586.79-6.006 2.054-7.705 1.731-1.132-.215-2.884-1.873-5.255-4.974Z"/>
    <path fill="#DDDBE3" d="M84.583 62.879c-.124-.845-.373-1.538-.746-2.08-.373-.543-.734-.907-1.084-1.092-2.502.325-4.901.589-7.197.79-3.443.301-9.688.891-13.114 1.1-3.427.21-9.166.304-10.044.304-.879 0-1.808.6-2.368.6-.56 0-10.396-1.208-11.106-1.208-.71 0-2.357.641-3.996 1.772-1.64 1.13-2.461 1.487-5.244.258s-3.747-.473-5.566.25c-1.82.725-3.235 1.499-4.271 1.499-.692 0-1.287-.216-1.785-.647-.12 1.073-.12 1.743 0 2.008.18.397 1.142 2.427 2.275 2.427.756 0 4.674-.17 11.754-.512l34.115-2.168c11.541-1.36 17.49-2.135 17.844-2.323.355-.189.533-.515.533-.978Z"/>
    <path fill="#3D3939" d="m33.111 67.847-3.38.614-9.064.393c-.143.004-.253.006-.33.006-1.133 0-2.096-2.03-2.275-2.427-.12-.265-.12-.935 0-2.008.498.431 1.093.647 1.785.647.942 0 2.197-.64 3.784-1.3l1.547-.64c1.163-.478 2.166-.742 4.081.013l.425.178c1.475.652 2.399.857 3.185.739l.242 3.785Z"/>
    <path fill="#1E1E21" d="m29.26 63.145.424.178c1.437.635 2.35.847 3.125.747.006.334.066 1.54.056 1.75-1.333-.785-4.266-1.167-5.318-1.29-1.051-.122-5.26.8-6.406 1.237-.535.204-.705 1.461-.48 2.31.088.331-1.699-.666-1.694-.23l-.952-2.968.047-.454c.498.431 1.093.647 1.785.647.942 0 2.197-.64 3.784-1.3l1.547-.64.492-.19c.976-.343 1.948-.444 3.59.203Z"/>
    <path fill="#EBEBEB" d="m38.924 61.293.258.015c1.722.14 10.326 1.193 10.848 1.193.49 0 1.263-.46 2.037-.574l.157-.012-.106.372c-1.171.323-1.993.478-2.465.464l-.514-.045c-1.944-.203-8.29-1.02-9.04-1.067-.848-.053-2.052.003-3.334.755l-1.769 1.06c-.733.433-1.423.815-1.937.996-.77.272-1.948-.266-2.69-.625l-.866-.417c-.618-.291-1.63-.567-2.385-.554-.755.013-.415-.227-5.955 1.962-.13-.018 4.92-1.951 4.925-2.002.854-.23 1.775-.224 3.196.341l.4.168c2.505 1.106 3.42.928 4.774.057l.47-.315c1.64-1.13 3.287-1.772 3.996-1.772Z"/>
    <path fill="#696671" d="M62.902 64.757c.003-.005.004.271.216.022.611-.715 1.967-2.539 2.31-2.625.952-.24 2.702-.487 5.162-.736 3.425-.346 9.767-.89 8.597-1.13-1.17-.239-6.566-.166-8.529-.205-1.963-.038-4.944.026-5.74.568-.795.54-2.05 4.171-2.016 4.106Z"/>
    <path fill="#090507" d="M85.635 66.37a3.532 3.532 0 0 0-.246-.78c.075-.414.024-1.545-.806-2.711-.618.076-6.594.817-9.69 1.069-3.096.252-11.82.863-12.012.863-.128 0-2.71.26-7.744.779l-.243.162c-6.68.678-11.163 1.108-13.449 1.289-3.429.271-14.27.795-15.187.795-.917 0-3.34.077-4.083.469-.743.39-1.836.14-2.327-.165-.327-.203-.923-1.173-1.786-2.91.079 1.888.535 3.043 1.37 3.465 1.251.634 9.11 1.556 9.11 1.556l1.596.892h26.956l24.804-.892c2.024-1.64 3.188-2.617 3.49-2.931.303-.315.386-.632.247-.95Z"/>
    <path fill="#282527" d="m76.05 63.844-2.28 6.108-7.77.19 3.237-5.771 5.656-.423a83.41 83.41 0 0 0 1.157-.104Z"/>
    <path fill="#39373E" d="m81.03 63.305-2.006 6.001-5.255.646 2.285-6.108c1.52-.145 3.378-.353 4.975-.539Z"/>
    <path fill="#EBEBEB" d="M59.919 65.613c-4.675.453-15.22 1.408-18.065 1.547l3.927-.355c1.447-.137 3.146-.303 5.098-.498l3.957-.398.243-.162 7.744-.779c.174 0 7.4-.505 11.04-.786l.722-.058c-2.034.487-9.282.976-11.824 1.2l-2.842.29Z"/>
    <path fill="#524C4D" d="M85.33 64.541c.082.375.094.691.076.907l-.011.112a4.104 4.104 0 0 1-.944.613l-.268.112c-1.423.536-6.164 1.742-11.035 2.052-2.914.186-6.973.228-10.556.232l-7.332-.004c-3.376.037-10.96.248-9.906.29l13.592.23-18.498.123h-1.302c-3.47-.02-10.197-.254-11.223-.348l8.566-.271 1.748-.047c4.776-.145 19.68-.805 26.354-1.058l2.64-.101c5.835-.261 13.386-.968 15.595-1.296 1.336-.2 2.152-.66 2.449-1.383l.055-.163Z"/>
    <path fill="#BDB4B5" d="M85.307 64.44c.126.515.121.932.082 1.15l.008-.039c-.977.846-2.959 1.337-5.462 1.782 1.723-.322 3.48-1.24 4.184-1.56.402-.183.77-.574 1.103-1.173l.085-.16Z"/>
    <path fill="#D8D8DB" d="M86 67c-.217 1.235-.746 2.243-1.585 3.026C83.155 71.199 80.187 72 77.498 72H32.495c-.077-.156-.172-.234-.285-.234h-1.908V72c-4.425-.176-7.411-.43-8.958-.765-2.32-.502-2.425-.486-2.61-1.21a1.419 1.419 0 0 0-.307-.262c-.463.215-1.154.06-2.074-.462C14.975 68.516 10 65.118 10 62c0-2.079.273-3.246.82-3.502.348-.113.628.027.84.421.32.591 3.42 2.38 4.35 2.922.931.542 2.109 1.926 2.417 3.933.307 2.006 1.533 2.73 1.995 2.887.462.158 7.163.887 7.896.887.49 0 1.01.306 1.565.916l3.393.168c.835-.58 1.325-.87 1.47-.87h10.447c.13 0 .406.235.827.702h3.68c.397-.61.671-.916.822-.916.225 0 19.7-.11 23.514-.425 3.813-.314 5.554-.462 8.315-1.234 2.762-.772 2.872-1.414 3.284-1.52.275-.07.397.14.365.631Z"/>
    <path fill="#B0B0B7" d="M84.415 70.026C83.155 71.199 80.187 72 77.498 72H32.495c-.077-.156-.172-.234-.285-.234h-1.908V72l-1.422-.062c-3.649-.171-6.161-.406-7.536-.703l-1.244-.272c-1.127-.26-1.222-.375-1.366-.937a1.419 1.419 0 0 0-.307-.263c-.463.215-1.154.06-2.074-.462l-.346-.207a17.782 17.782 0 0 1-.438-.28l1.738.534c.254.081.42.138.498.17.328.135.253-.655.565-.852.312-.197.76 1.064.835 1.534.066.417.684.344.989.384l.097.022c.24.087.488-.043.554-.406.066-.364-.264-.813 0-.784.264.03.94 1.207 1.09 1.319.15.112.955.111 1.088.067.133-.044-.097-.837 0-1.003.096-.166.703.476.983.936.28.46 1.078.29 1.192.408.115.119-.21-.74 0-.943.211-.203 1.17.93 1.304 1.035.136.104 2.369.295 2.982.285.614-.01.54-.213.654-.377.114-.163 1.702-.133 2.287 0 .584.134.626.398.773.44l.205.013c.859.03 4.082.024 4.142-.224.068-.281.257-.463.616-.49.36-.027.58.654.663.7.084.047 2.09.012 2.555 0 .464-.012 1.094-.126 1.282-.347l.137-.165c.142-.162.32-.304.757-.354.582-.067.237.75.17.804-.067.055 2.588.16 2.97-.066.381-.226.661-.42.984-.31.322.108.588.276.814.31l.316.015c.53.005 1.505-.04 1.734-.234.294-.25.987-.471 1.338-.433.351.038.216.532.423.591.181.052.966-.062 1.364-.368l.144-.143c.305-.413 1.158-.423 1.607-.276.45.146-.914.774-.371.789.543.015 1.142-.438 1.531-.79.39-.35.956-.176 1.095.016.138.192-.774.888-.19.81.51-.067 1.062-.377 1.316-.56l.09-.069c.187-.158.46-.367.882-.393.424-.026.246.555 0 .986-.245.43.383.255.964 0 .58-.255 1.05-.887 1.633-.79.583.098.032.948.598.79.565-.158 1.002-.736 1.606-.79.603-.053.78.556.838.915.058.359.703.122 1.264-.125.56-.247.427-.78 1.221-.79.795-.008.526.369.472.63-.054.26.654.27 1.34.16.687-.11.959-.548 1.294-.679.25-.089.581-.178.776-.095.105.045.164.146.215.266l.106.256c.017.161.613.413 1.186.377.574-.036 1.205-.42 1.519-.804.314-.383.83-.35 1.076-.307.246.042-.02.78-.223.986-.204.206 1.128.17 1.419 0 .29-.17.633-1.158 1.195-1.195.563-.038.43.343.596.682.166.34.706.272 1.068.261.33-.01 1.463-.69 1.807-1.076l.078-.106c.124-.232.371-.414.74-.545-.103.756-.015 1.087.266.993.997-.38 1.979-1.215 2.947-2.506a5.054 5.054 0 0 1-1.358 2.123Z"/>
    <path fill="#5D5D69" d="M82.13 69.802c-.065.414-.81 1.387-.527 1.341l.137-.033c.343-.094 1.189-.377 2.538-.848l-.29.103C82.567 71.351 79.92 72 77.499 72H32.495c-.077-.156-.172-.234-.285-.234h-1.908V72l-1.422-.062c-3.649-.171-6.161-.406-7.536-.703l-1.243-.272c-1.046-.24-1.204-.357-1.336-.821l.281.199 1.222.333.705.184c.319.087.515.15.588.186l.03.02c.043.05-.094-.192-.412-.723-.126.034-.22.034-.282 0-.063-.034-.092-.143-.089-.328h.37l.059.059c.076.094.22.302.431.625l.135.207 1.722.301-.232-.629v-.314l.844 1.048 1.578.177.087-.177-.521-.734h.434l.612.911 3.81.25.096-.594 1.792.102c.323.025.485.047.485.065l.018.104.09.366 5.112-.01.036-.627h.709l.078.593 2.79-.032c.547-.01.862-.02.944-.031.144-.055.268-.196.37-.423l.073-.186h.749l-.556.141-.112.467h3.99l.481-.608h.72l-.5.08-.3.528 2.507-.034c.145 0 .245.002.3.005.33.02.647-.522.815-.739.097-.126.408-.142.933-.047l.237.047-.98.24-.408.528 1.374.009c.562-.001.938-.01 1.127-.026.472-.04.803-.54 1.193-.98.06.168-.76.939-.628.997.133.058 1.05.122 1.608.076.558-.045 1.213-.84 1.383-1.172.014.257-.15.583-.49.978l-.185.204h1.268c.991 0 1.687-.893 1.87-1.182.006.248-.217.65-.667 1.204.656.032 1.183.03 1.58-.007.595-.054 1.385-.593 1.666-1.099-.012.174-.185.535-.52 1.084.06.027.396.032 1.006.015.916-.024 1.786-.735 2.054-1.099-.015.207-.238.573-.667 1.1l1.857.016c.452 0 .738-.005.856-.017.357-.033.972-.743 1.216-.993-.07.353-.308.68-.717.978l2.422.026c.47-.001.733-.01.789-.026.18-.054.519-.46.837-1.084.035.225-.043.586-.235 1.084l1.561.03c.996.013 1.598.003 1.806-.03.45-.073.92-.737 1.101-.978.024.356-.43.982-.25.978l.426-.011c.575-.021 1.543-.08 1.829-.26.392-.247.718-.91.891-1.146l-.05.213c-.102.369-.317 1.067-.356 1.101-.05.044 1.522-.008 2.476-.168s1.417-.86 2.094-1.685Z"/>
    <path fill="#EFEFEF" d="M45.193 69.763c.103 0 .299.148.587.444l-.019.226-.511-.392c-.232-.17-.376-.26-.432-.268l-1.724.009c-2.748.029-7.841.102-8.149.119-.244.013-.617.222-1.12.628l-.222.186.162-.415c.54-.358.866-.537.98-.537h10.448Zm40.782-3.182-.073.054c-.815.562-3.077 1.413-6.112 2.072-3.41.741-10.252.842-12.452.853l-15.976.08c-.383.006-.61.012-.636.018-.126.027-.348.243-.666.65l-.167.218.3-.736c.142-.161.252-.242.329-.242l11.611-.11c4.815-.065 9.728-.161 11.675-.297l2.292-.193c2.486-.223 4.042-.441 6.251-1.059 2.762-.772 2.872-1.414 3.284-1.52.177-.045.29.026.34.212Zm-74.314-7.662c.319.591 3.418 2.38 4.35 2.922.864.504 1.94 1.733 2.337 3.512l.079.42c.307 2.007 1.533 2.73 1.995 2.888.462.158 7.163.887 7.896.887.361 0 .74.167 1.138.5l-1.19-.39c-.41-.148-3.872-.355-6.12-.561l-.344-.033c-2.219-.217-2.14-.413-2.663-.947-.522-.534-1.42-2.705-1.769-3.517-.348-.812-1.077-1.743-1.6-2.052l-.284-.156c-.857-.457-2.967-1.514-4.29-2.441-.45-.316-.704-.666-.76-1.049.11-.201.237-.335.384-.404.348-.113.628.027.84.421Z"/>
    <path fill="#36343A" d="M82.753 59.707c.114-.485.17-.814.17-.987 0-.26-.724-1.832-.886-1.832-.162 0-2.897-.237-4.644-.41-1.747-.174-4.366-.723-5.53-.548-1.165.176-16.92 4.533-18.12 4.805-1.2.272-1.918 1.025-1.559 1.732.36.706 2.401 3.138 2.71 3.285.309.146 7.642-.513 7.854-.71.213-.197 2.012-3.057 2.532-3.347.52-.29 2.535-.47 5.006-.7 1.647-.152 5.803-.582 12.467-1.288Z"/>
    <path fill="#242328" d="M72.58 55.898c1.027.027 2.492.276 3.773.452l-3.236 4.365-4.483.436 3.945-5.253Z"/>
    <path fill="#131315" d="m73.075 60.72 3.14-4.389.804.106 4.042.375c.541.046.919.076.976.076.162 0 .886 1.572.886 1.832 0 .173-.056.502-.17.987l-9.678 1.012Z"/>
    <path fill="#19191C" d="M82.87 58.496c.034.102.053.181.053.224 0 .173-.056.502-.17.987-.113.484-6.563 1.106-9.216 1.228-2.114-.019-7.287.272-8.257.76-.5.292-2.32 3.15-2.532 3.347-.212.197-7.545.856-7.854.71-.259-.123-1.737-1.854-2.42-2.826.047-.096.145-.18.327-.232l.257-.061c1.105-.238 4.815-.877 6.931-1.126l.32-.036c1.924-.204 5.163-.717 7.956-1.069l1.95-.224c3.527-.374 12.06-1.19 12.33-1.261.126-.034.225-.142.295-.325l.03-.096Z"/>
    <path fill="#ACA9B4" d="M71.863 55.93a4.43 4.43 0 0 1 .786-.03 6.712 6.712 0 0 0-.572.115l-6.221 1.64c-.552.141-1.043.266-1.42.358l-1.594.393c-1.482.377-3.286.865-4.33 1.196l-1.266.412c-1.48.469-3.638 1.124-4.183 1.37-.33.15-.691.532-.972.784-.048-.56.515-1.101 1.402-1.367l1.286-.333c3.79-1.005 16.061-4.383 17.084-4.538Zm6.229.675-1.235-.188.536.06c1.747.174 4.482.41 4.644.41.022 0 .054.03.094.08a1.41 1.41 0 0 1-.475.066l-.398-.03a81.774 81.774 0 0 1-3.166-.398Z"/>
    <path fill="#5D5B62" d="m82.58 57.938-.098-.354.185.4c.145.33.256.634.256.736 0 .136-.034.367-.104.693l-.3.048c-.305.043-.744.09-1.317.144l-2.75.245c-2.228.217-5.428.564-7.935.81l-2.917.275c-2.007.213-1.915.367-2.298.561-.441.224-2.387 3.15-2.536 3.193l-.823.08c-1.925.165-6.562.518-6.726.461-.205-.07-2.445-2.266-2.742-2.643-.298-.377 0-.644-.035-.495-.035.148 2.694 2.864 2.88 2.893l.165-.006c1.072-.073 6.876-.67 7.002-.719.136-.052.727-1.168 1.583-2.251.785-.993 1.7-1.26 2.213-1.353l.33-.045c1.274-.132 7.599-.657 9.348-.904l2.572-.39c1.983-.317 4.125-.693 4.15-.82.012-.071-.021-.258-.102-.559Z"/>
    <path fill="#6E6E6E" d="M53.255 33.951c.447-.152.74-.194.877-.128.205.1.24.751.135 1.036-.105.285-.599 1.02-.851 1.132a2.596 2.596 0 0 1-.583.173c.303.049.525.039.664-.03.21-.104.788-.557 1.017-1.275.228-.718.033-1.143-.142-1.285-.174-.142-.506-.083-.647 0-.094.055-.251.18-.47.377Z"/>
    <path fill="#181616" d="M52.297 35.791c-.002.3.061.48.19.54.194.092.83-.1 1.062-.21.155-.075.348-.249.579-.52-.245.349-.44.575-.584.677a2.224 2.224 0 0 1-.808.341c-.265.047-.608-.084-.64-.298-.022-.143.045-.32.2-.53Z"/>
    <path fill="#1C1C1C" d="M53.695 34.66a1.408 1.408 0 0 0-.985-.141c-.534.106-1.243 1.26-1.237 1.993.371-.609 1.322-.72 1.452-.693.13.027.704-.362.619-.542-.057-.12-.182-.203-.376-.249.145-.076.27-.108.376-.098.105.011.155-.079.15-.27Z"/>
    <path fill="#000" fill-rule="nonzero" d="m57.817 41.656.139-.182.348.107.013.228.146.045-.068-.917-.155-.047-.569.722.146.044Zm1.348.413.035-.115-.484-.148.076-.248.436.133.035-.114-.436-.134.07-.227.464.142.035-.115-.6-.183-.251.819.62.19Zm.265.08.102-.333.216.066c.047.014.08.034.098.062.018.027.022.063.013.11l-.02.104a.213.213 0 0 0 .003.117l.148.046a.207.207 0 0 1-.013-.136l.026-.136c.015-.083-.011-.143-.079-.181l.001-.002a.19.19 0 0 0 .128-.04.202.202 0 0 0 .07-.103.227.227 0 0 0-.023-.203.338.338 0 0 0-.185-.118l-.37-.113-.251.819.136.042Zm1.041.337c.128.038.24.029.338-.029a.453.453 0 0 0 .198-.272.457.457 0 0 0-.012-.337.402.402 0 0 0-.263-.214.395.395 0 0 0-.339.03.457.457 0 0 0-.196.273.456.456 0 0 0 .01.335.403.403 0 0 0 .264.214Zm.037-.119a.259.259 0 0 1-.175-.146.352.352 0 0 1 0-.242.353.353 0 0 1 .136-.202.258.258 0 0 1 .227-.025c.086.027.144.073.174.143a.363.363 0 0 1 0 .248.353.353 0 0 1-.138.204.261.261 0 0 1-.224.02Zm.806.376a.443.443 0 0 0 .266.012.214.214 0 0 0 .14-.147c.024-.076.006-.146-.054-.21a1.38 1.38 0 0 0-.193-.147 1.238 1.238 0 0 1-.127-.094c-.033-.033-.043-.067-.033-.102a.091.091 0 0 1 .078-.069.272.272 0 0 1 .126.015c.061.019.105.043.128.075a.187.187 0 0 1 .03.129l.136.041c.02-.092.006-.169-.04-.229a.401.401 0 0 0-.211-.13.398.398 0 0 0-.24-.008.202.202 0 0 0-.146.143.189.189 0 0 0 .046.194c.02.021.077.064.17.127.084.056.132.09.145.104.044.04.06.083.047.127-.01.035-.037.055-.079.065a.314.314 0 0 1-.153-.014.277.277 0 0 1-.141-.082c-.028-.038-.037-.09-.027-.154l-.135-.041c-.026.106-.011.193.044.263.045.056.12.1.223.132Zm.592.164.096-.315.207.063c.203.062.33.008.382-.16.051-.168-.025-.283-.225-.344l-.346-.105-.25.819.136.042Zm.692.211.139-.182.348.106.013.23.146.044-.068-.917-.155-.047-.569.722.146.044Zm1.087.35c.09.027.174.026.254-.005a.377.377 0 0 0 .2-.185l-.134-.04a.264.264 0 0 1-.126.114.252.252 0 0 1-.16-.003c-.09-.027-.15-.077-.175-.145a.377.377 0 0 1 .008-.24.369.369 0 0 1 .128-.203c.063-.046.137-.055.224-.028a.262.262 0 0 1 .133.08.2.2 0 0 1 .042.143l.133.04a.315.315 0 0 0-.05-.23.394.394 0 0 0-.22-.15c-.132-.04-.247-.03-.343.036a.477.477 0 0 0-.183.27.477.477 0 0 0-.002.323c.042.105.132.18.27.223Zm1.115.323.035-.114-.484-.148.076-.248.436.133.035-.115-.436-.133.07-.227.464.142.035-.115-.6-.184-.251.82.62.19Zm.742.227.509-.622.033-.108-.563-.172-.038.121.426.13-.512.607.145.044Zm.978.3.037-.119-.411-.125c.031-.036.097-.068.2-.098.098-.029.17-.054.212-.079a.294.294 0 0 0 .141-.169.237.237 0 0 0-.022-.201.305.305 0 0 0-.179-.13.293.293 0 0 0-.244.023.327.327 0 0 0-.15.197l.137.041a.259.259 0 0 1 .087-.132c.036-.027.08-.032.13-.017.049.015.082.036.1.066.016.028.019.066.005.11a.201.201 0 0 1-.094.113.8.8 0 0 1-.143.057 1.178 1.178 0 0 0-.237.092.327.327 0 0 0-.15.193l.581.177Zm.405.14c.097.03.185.013.264-.05a.563.563 0 0 0 .17-.282.563.563 0 0 0 .017-.33.271.271 0 0 0-.19-.189.269.269 0 0 0-.265.05.563.563 0 0 0-.17.283.563.563 0 0 0-.017.33c.03.095.093.159.19.189Zm.035-.113c-.067-.02-.102-.071-.107-.152a.628.628 0 0 1 .034-.212.619.619 0 0 1 .09-.194c.05-.065.107-.087.174-.066.065.02.1.07.106.151a.619.619 0 0 1-.034.212.628.628 0 0 1-.09.195c-.05.063-.108.086-.173.066Z"/>
    <path fill="#464545" fill-rule="nonzero" d="M56.298 64.336c.164-.008.278-.063.34-.162.062-.1.087-.254.076-.461a1.145 1.145 0 0 0-.044-.265.515.515 0 0 0-.048-.116.394.394 0 0 0-.075-.092.334.334 0 0 0-.12-.068.492.492 0 0 0-.183-.019c-.153.008-.265.057-.335.148s-.1.245-.088.462c.004.089.016.17.034.242a.523.523 0 0 0 .071.17c.04.057.088.1.147.127.058.028.133.039.225.034Zm1.02-.053c.164-.009.277-.063.339-.163s.088-.253.077-.46a1.145 1.145 0 0 0-.045-.266.515.515 0 0 0-.047-.115.394.394 0 0 0-.076-.092.334.334 0 0 0-.12-.068.492.492 0 0 0-.182-.02c-.153.009-.265.058-.336.149-.07.09-.1.245-.088.462.005.088.016.169.035.241a.523.523 0 0 0 .07.17c.04.057.089.1.147.127.058.028.134.04.226.035Zm1.019-.054c.164-.008.277-.062.34-.162.062-.1.087-.254.076-.461a1.145 1.145 0 0 0-.044-.265.515.515 0 0 0-.048-.116.394.394 0 0 0-.075-.092.334.334 0 0 0-.12-.068.492.492 0 0 0-.183-.019c-.153.008-.265.058-.335.148-.07.091-.1.245-.089.463.005.088.017.168.035.24a.523.523 0 0 0 .07.17c.04.058.09.1.147.128.059.028.134.04.226.034Zm2.481-.15-.014-.258-.474.025a1.146 1.146 0 0 1 .187-.173.82.82 0 0 0 .202-.22.376.376 0 0 0 .048-.203.32.32 0 0 0-.06-.175.307.307 0 0 0-.147-.11.653.653 0 0 0-.251-.025.587.587 0 0 0-.239.053c-.057.03-.1.07-.129.122a.523.523 0 0 0-.054.213l.305.01c.006-.065.02-.11.043-.138a.127.127 0 0 1 .093-.043.126.126 0 0 1 .137.12.182.182 0 0 1-.032.104.903.903 0 0 1-.163.167 1.31 1.31 0 0 0-.283.309.615.615 0 0 0-.08.27l.911-.047Zm.585-.01a.531.531 0 0 0 .244-.063.342.342 0 0 0 .137-.149.395.395 0 0 0 .04-.194.29.29 0 0 0-.038-.135.243.243 0 0 0-.09-.088.337.337 0 0 0-.098-.033.335.335 0 0 0 .111-.112.267.267 0 0 0-.075-.341c-.066-.052-.17-.075-.313-.067a.473.473 0 0 0-.285.092.38.38 0 0 0-.126.227l.29.039c.005-.058.018-.098.04-.122a.118.118 0 0 1 .085-.038.108.108 0 0 1 .084.027c.02.02.032.047.034.081a.129.129 0 0 1-.035.097.136.136 0 0 1-.098.045c-.01 0-.022 0-.04-.002l-.003.228a.37.37 0 0 1 .097-.024.136.136 0 0 1 .109.038.179.179 0 0 1 .046.121.184.184 0 0 1-.035.127.13.13 0 0 1-.099.053.131.131 0 0 1-.098-.032c-.026-.024-.047-.067-.062-.13l-.302.057c.024.07.055.128.095.173.04.046.089.079.147.1.059.022.138.03.238.025Z"/>
    <path fill="#872C2C" fill-rule="nonzero" d="M33.166 51.067c-.67-.04-1.251.624-1.16 1.127.09.492.986.468 1.352.095.175-.178.32-.422.355-.635.054-.33-.15-.563-.547-.587Zm-.023.4c.167.01.19.035.175.123-.02.12-.124.295-.246.419-.176.18-.658.193-.672.113-.045-.249.332-.68.743-.655Z"/>
    <path fill="#A94242" fill-rule="nonzero" d="m37.432 49.572.248.547-3.255 1.493-.177.089-.307-.516.43-.211c.531-.25 1.54-.712 3.061-1.402Zm5.54-2.8.305.516-3.253 1.922-.305-.517 3.253-1.921Zm5.936-2.271.239.55-3.342 1.451-.24-.55 3.343-1.451Zm2.485-5.757.593.087-.422 2.744c-.038.231-.072.421-.101.57l-.05.24-.585-.138.078-.389c.104-.572.267-1.614.487-3.114Z"/>
    <path fill="#524C4D" d="m29.203 69.445 5.263.098-1.218.887c-2.054-.075-3.13-.11-3.227-.105-.097.004-.37-.29-.818-.88Zm20.859.11-.507.711-3.276.047-.715-.65 4.498-.107Z"/>
  </g>
</svg>
