<svg xmlns="http://www.w3.org/2000/svg" viewBox="0 0 96 96">
  <defs>
    <path id="a" d="M0 0h96v96H0z"/>
  </defs>
  <g fill="none" fill-rule="evenodd">
    <path fill="#C3C3CB" d="m29.233 51.393.277-.443c6.878-2.786 10.524-4.307 10.937-4.563.412-.256 1.427-.816 3.043-1.68 3.638-2.03 5.596-3.043 5.872-3.043.415 0 .736.657 1.337 0 .602-.658 10.827-9.78 11.623-10.384.796-.604 1.932-.72 1.932 0s1.762 3.498 1.762 4.59c0 1.09-.58 4.64-1.17 5.217-.395.385-2.24.739-5.537 1.062l-10.766 3.78-17.526 6.437H29.51l-.277-.973Z"/>
    <path fill="#A3A3B1" d="M66.016 35.87c0 1.09-.58 4.64-1.17 5.217-.395.385-2.24.739-5.537 1.062l-4.712 1.654c4.737-4.943 7.377-7.753 7.92-8.43.621-.773 1.213-2.061 1.774-3.864.252.954 1.725 3.363 1.725 4.36Z"/>
    <path fill="#F34747" d="M64.254 31.28c0 .72 1.762 3.498 1.762 4.59 0 1.09-.58 4.64-1.17 5.217-.176.171-.64.336-1.39.495.144-1.876.288-3.11.43-3.703.215-.903-.493-3.4-.665-4.402-.141-.83-.852-1.556-1.094-2.042.09-.072.154-.125.195-.155.796-.604 1.932-.72 1.932 0Z"/>
    <path fill="#828289" d="M31.97 51.251c-.363-.608-.544-.982-.544-1.12 0-.209.276-.827.761-.827.324 0 .503.05.538.147l.55 1.288 1.552-.609c.434-1.407.768-2.196 1-2.366.234-.17.896-.237 1.988-.199L37.34 48l.607.91 2.276-1.146c.787-1.383 1.317-2.203 1.591-2.458.274-.255.947-.41 2.019-.463v.296l-1.628 1.586-1.16 1.61-9.076 3.456v-.54Z"/>
    <path fill="#2F2F2F" d="M61.071 30.028c.684 0 .755 1.972.755 1.972s-2.944 2.676-3.208 2.898c-.264.222-2.724 2.426-3.004 2.728-.28.301-4.718 4.038-4.915 4.038-.196 0-.443-.092-.443-.092s.073-.292.175-.383c.463-.416 3.526-3.089 9.187-8.018v-1.404c0-.635.77-1.74 1.453-1.74Zm-.027.754c-.374 0-.806.735-.806 1.04 0 .204-.035.49-.105.859l1.108-.859c.118-.693.052-1.04-.197-1.04Z"/>
    <path fill="#828289" d="M53.66 38.018c.07-.186-.034-.186-.316 0-.423.28-.494.533-.37.69.125.158 2.875 2.102 3.114 2.102.158 0 .355-.097.59-.29l-.83-.833c-.94-.54-1.523-.906-1.749-1.1-.225-.193-.372-.382-.44-.569Z"/>
    <path fill="#828289" d="M54.555 40.298c-.203-1.04-.497-1.824-.88-2.35.08-.616.91-1.376 1.424-1.085.39.45.633 3.495.515 4.326-.39-.314-.742-.61-1.059-.891Z"/>
    <path fill="#4B4B55" d="M9.451 61.045c-.045-2.762 2.805-4.899 8.551-6.411 5.746-1.512 9.582-2.74 11.508-3.684.48.666 1.466.666 2.959 0s4.778-2.057 9.856-4.17c-.029-.934.08-1.485.326-1.652 2.086-1.417 3.708-3.188 4.837-3.554.846-.274 1.527.348 1.527.348s1.62 1.527 2.035 1.177c.276-.234 1.411-1.313 3.405-3.236 1.552 1.694 2.494 2.38 2.826 2.059.333-.322-.183-1.127-1.547-2.416l3.008-2.813c1.345.68 2.253 1.222 2.724 1.628.706.61 5.363 2.779 7.71 2.779 2.349 0 6.325-1.27 6.838-4.407.512-3.138 1.725-3.253 2.338-2.917.408.223 1.013.818 1.814 1.786 1.162.014 1.743.392 1.743 1.131 0 1.11.942 5.358.942 6.406 0 1.047 1.506 3.888 1.506 5.233 0 1.345 1.065 8.84 0 9.727-1.065.886-9.527 4.903-30.471 6.343-20.944 1.44-38.253.697-40.652.348-1.598-.232-2.86-1.467-3.783-3.705Z"/>
    <path fill="#32323A" d="m28.354 65.254.163-.08c4.557-2.259 17.057-9.152 37.499-20.68l16.64-2.982c.114.697.195 1.28.195 1.587 0 1.047 1.506 3.888 1.506 5.233 0 1.345 1.065 8.84 0 9.727-1.065.886-9.527 4.903-30.471 6.343-9.65.663-18.529.863-25.532.852Z"/>
    <path fill="#DB3838" d="M78.352 33.776c.232.127.527.374.886.74-.433.252-.732.518-.898.801-.311.529-.93 5.219-1.352 5.872-.421.653-4.876 3.128-6.498 2.64-1.08-.326-4.514-2.394-10.298-6.203l.343.046c.403.245.713.462.93.649.707.61 5.364 2.779 7.712 2.779s6.324-1.27 6.837-4.407c.512-3.138 1.725-3.253 2.338-2.917Z"/>
    <path fill="#B9BAC8" d="m13.672 56.136-.261.83c-1.769 1.248-2.747 2.256-2.937 3.025-.189.77-.257 1.448-.205 2.036l-.56-.403a11.573 11.573 0 0 1-.258-.579c-.031-1.946 1.375-3.583 4.22-4.909Z"/>
    <path fill="#312E3A" d="M48.573 42.11c5.508 6.48 8.092 9.898 7.753 10.256-.34.357-5.24-1.344-14.7-5.105l6.947-5.15Zm.417 4.004-1.884 1.147 4.039 1.276-2.155-2.423Z"/>
    <path fill="#A3A1AC" d="M48.543 41.574c5.508 6.479 8.092 9.897 7.753 10.255-.34.358-5.24-1.344-14.7-5.104l6.947-5.151Zm.418 4.003-1.884 1.148L51.115 48l-2.154-2.423Z"/>
    <path fill="#C8C5D2" d="m48.848 43.34 4.811 6.595-2.99-2.076.446.141-2.154-2.423-1.617.985 1.504-3.222Z"/>
    <path fill="#8B8798" d="m47.24 46.624-.163.1 3.944 1.245 5.174 3.901c-.806.118-5.672-1.597-14.6-5.145.838-.013 2.718-.046 5.645-.1Z"/>
    <path fill="#191A1B" d="M82.934 43.059c-.114-1.301-1.36-4.917-1.36-5.864 0-.948-.55-2.666-1.972-1.333s-3.438 5.088-4.673 5.712c-1.235.624-2.803 3.082-8.913-.648-6.111-3.731-7.274-4.233-7.274-4.233l-3.008 2.804c1.669 1.146 2.184 1.954 1.547 2.425-.637.47-1.742-.112-3.316-1.748l-2.976 3.345c4.317 6.472 8.633 10.019 12.949 10.64 3.361.545 6.192-.858 10.865-3.466 3.115-1.74 5.86-3.33 8.237-4.772a31.6 31.6 0 0 0-.106-2.862Z"/>
    <path fill="#2B2D34" d="M82.934 43.059c-.114-1.301-1.36-4.917-1.36-5.864 0-.948-.55-2.666-1.972-1.333s-3.438 5.088-4.673 5.712c-1.235.624-2.803 3.082-8.913-.648-6.111-3.731-7.274-4.233-7.274-4.233l-3.008 2.804c1.669 1.146 2.184 1.954 1.547 2.425-.637.47-1.742-.112-3.316-1.748l-2.85 2.686c4.317 6.472 8.633 10.018 12.949 10.64 3.361.545 6.192-.858 10.865-3.467 3.115-1.739 5.861-3.33 8.237-4.772a50.644 50.644 0 0 1-.232-2.202Z"/>
    <path fill="#3A3B3F" d="M79.602 35.862c1.422-1.333 1.972.385 1.972 1.333 0 .947 1.246 4.563 1.36 5.864.075.867.153 1.601.232 2.202a240.526 240.526 0 0 1-5.901 3.457l-.002-9.83c.815-1.156 1.647-2.378 2.34-3.026Z"/>
    <path fill="#B2B0B9" d="M11.978 62.701c-.522-2.92.451-4.38 2.918-4.38 2.468 0 5.734.208 9.801.624 4.888-2.848 7.507-4.272 7.857-4.272.525 0 4.333 3.649 4.333 3.649s8.595-5.956 9.393-5.956c.797 0 7.888 9.456 7.888 9.896 0 .44-.01 1.984-1.907 2.488-1.264.336-14.115.504-38.552.504l-1.731-2.553Z"/>
    <path fill="#A09EA7" d="M54.168 62.262c0 .44-.01 1.984-1.907 2.488-1.264.336-14.115.504-38.552.504l-1.731-2.553c-.194-1.08-.182-1.961.035-2.642.645-.171 1.615-.118 2.909.16 3.756.809 16.259 1.111 21.81.545 3.565-.363 8.15-1.583 13.757-3.659 1.885 2.433 3.679 4.936 3.679 5.157Z"/>
    <path fill="#050505" d="M45.386 54.971c-.366 0-3.123 3.571-2.844 3.946.28.374 3.978-1.832 4.257-2.091.278-.26-1.047-1.855-1.413-1.855ZM31.024 56.604c-.366 0-3.123 3.571-2.844 3.945.28.375 3.978-1.831 4.257-2.09.278-.26-1.047-1.855-1.413-1.855Z"/>
    <path fill="#2C2E37" d="m23.098 58.81 3.219-2.206-7.045-.288-2.861 1.969z"/>
    <path fill="#CB5153" d="m18.803 56.04-.358.654 7.624.289.552-.667z"/>
    <path fill="#191515" d="m52.183 52.756 2.641 3.097-3.222 2.562-2.506-3.17z"/>
    <path fill="#B91417" d="m52.394 51.876-.658.88 3.088 3.56.79-.474z"/>
    <path fill="#7E7E7E" d="m55.045 43.02-1.891-.849.52 2.338 1.371-1.489ZM59.604 38.727l-1.972-.331.702 1.804 1.27-1.473Z"/>
    <path fill="#D8D8D8" d="m65.893 44.597.345-.265v-.491l-.345-.218h-.365l-.136.352v.357l.136.265L65.291 46l-.217-.069-.148-.155h-.242l-.21.155-.08.262.12.303-.475.765-.39.739-.473.204.863.157V48l.645-.995.149.78-.126.215-1.058.974-.834.827h-.278v.204l-.544.107-.167.228.3.255.901-.147.149-.235 1.898-1.375.318-.066.846.32 1.493.709.16.204.304.443.934-.797-.259-.2h-.496l-1.713-.945-.869-.613v-1.28l.101-.837z"/>
    <path fill="#828289" d="M49.92 43.34s1.441.566 1.441.283c0-.189-.332-.872-.996-2.05-1.214-.017-1.822.078-1.822.283 0 .31 1.378 1.484 1.378 1.484ZM60.401 37.626c.294-.574.347-1.108.16-1.603-.282-.741-1.221-1.957-1.221-2.277 0-.32.08-.463.37-.463.193 0 .292-.027.295-.082-.439-.193-.8-.241-1.086-.145-.428.145-.85.713-.763 1.391.087.678 1.116 1.847 1.184 2.1.045.168.067.374.067.62l.994.459Z"/>
    <path fill="#FFF" d="M85.176 56.544c.252.469.415 1.133.488 1.995.073.86.073 2.117 0 3.768.112.1-.051.322-.488.67l-.092.052c-.858.41-6.428 1.775-16.709 4.096l-1.538.347-9.172-4.105-21.235 4.105H18.441L11.1 62.008c4.055 1.297 14.545 1.697 31.47 1.201 1-.029 3.28.946 4.314.902a20.632 20.632 0 0 0 2.95-.347l.67-.14a42.932 42.932 0 0 0 1.723-.407l1.948-.494.684-.155.736-.144.388-.063 1.926-.254c6.826-.938 15.915-2.792 27.268-5.563Z"/>
    <path fill="#E7E7E7" d="M85.129 56.965c.252.468.415 1.133.488 1.994.073.862.073 2.118 0 3.77.112.098-.05.32-.488.668-.437.347-6.55 1.846-18.339 4.496l-9.172-4.105-21.235 4.105H18.395l-7.343-5.464c4.055 1.297 14.545 1.697 31.47 1.201 1-.03 3.28.946 4.315.902 3.857-.165 6.555-1.443 9.489-1.804 6.976-.858 16.577-2.779 28.803-5.763Z"/>
    <path fill="#D3D2D7" d="M85.129 56.965c.252.468.415 1.133.488 1.994.073.862.073 2.118 0 3.77.112.098-.05.32-.488.668-.437.347-6.55 1.846-18.339 4.496l-9.172-4.105-6.443 1.245c-.254-.35-.493-.68-.716-.985 2.118-.451 3.941-1.083 5.867-1.32 6.976-.858 16.577-2.779 28.803-5.763Z"/>
    <path fill="#BCBBC4" d="m61.257 62.591.094.018 6.411 2.363a.3.3 0 0 1-.11.582l-.094-.018-6.411-2.363a.3.3 0 0 1 .11-.582Zm2.038-.494.095.018 6.411 2.363a.3.3 0 0 1-.11.582l-.094-.018-6.412-2.363a.3.3 0 0 1 .11-.582Zm2.791-.164.095.018 6.411 2.363a.3.3 0 0 1-.11.582l-.094-.018-6.411-2.363a.3.3 0 0 1 .11-.582Zm2.47-.408.094.018 6.411 2.363a.3.3 0 0 1-.11.582l-.094-.018-6.412-2.363a.3.3 0 0 1 .11-.582Zm2.035-.396.094.018 6.411 2.363a.3.3 0 0 1-.11.582l-.094-.018-6.411-2.363a.3.3 0 0 1 .11-.582Zm2.341-.555.094.018 6.412 2.363a.3.3 0 0 1-.11.582l-.095-.018-6.41-2.363a.3.3 0 0 1 .109-.582Zm2.076-.532.095.018 6.411 2.363a.3.3 0 0 1-.11.582l-.094-.017-6.411-2.363a.3.3 0 0 1 .11-.583Zm1.947-.527.094.017 6.412 2.363a.3.3 0 0 1-.11.582l-.095-.017-6.411-2.363a.3.3 0 0 1 .11-.582Zm1.776-.343.095.018 6.411 2.363a.3.3 0 0 1-.11.582l-.094-.018-6.412-2.363a.3.3 0 0 1 .11-.582Zm.972-.864.095.018 5.874 2.164c0 .202-.001.415-.005.638l-6.074-2.238a.3.3 0 0 1 .11-.582Z"/>
    <path fill="#B2B1B1" d="m14.119 63.1.873.9 4.677 1.552 7.898-1.947h4.021l2.97 2.22 4.778-2.22 7.804.944 8.474-1.192c-.554-1.17.2-1.34 2.26-.51.512.207 3.547 1.26 9.103 3.159 3.562-.353 6.383-.708 8.463-1.063 2.08-.356 5.416-1.054 10.01-2.095 1.052.434-.045 1.068-3.29 1.902-3.246.834-8.48 1.826-15.705 2.977l-28.36-2.257-3.712 2.423-4.989-2.776-9.822 2.61c-3.465-1.967-5.198-3.027-5.198-3.178 0-.151-.085-.634-.255-1.449Z"/>
    <path fill="#868290" d="M86.038 63.555A57.7 57.7 0 0 1 86 65.006C85.97 65.825 83.48 72 74.776 72H62.012c-1.518 0-4.672-.788-5.852-2.505-1.18-1.718-2.418-.605-3.048.475-.63 1.08-1.604 2.03-2.775 2.03H24.3c-2.875 0-14.516-.758-15.362-10.855.157-.277.38-.485 1.252 0 .873.485 2.748 1.058 3.091 1.058.344 0 .895 1.377 1.352 1.786.456.409 4.537 2.438 4.96 2.438.422 0 9.51-4.224 10.469-4.224.96 0 3.826 4.224 4.334 4.224.509 0 9.428-6.744 9.901-6.744.473 0 3.16 3.438 3.703 3.872.543.434 3.363-.47 3.363-.47s-1.564-1.578-1.026-2.49c.539-.912 16.027 5.832 16.346 5.832.319 0 5.624-.502 11.138-1.665 3.676-.775 6.275-1.453 7.796-2.034l.42.827Z"/>
    <path fill="#565264" d="M85.671 66.016C84.757 68.006 81.776 72 74.776 72H62.012c-1.017 0-2.769-.354-4.169-1.104l1.286-.619c-.965-1.564-1.337-2.453-1.116-2.668.331-.321 6.37 2.986 7.427 2.889 1.058-.097 13.862-1.678 14.93-2.166.653-.299 2.42-1.07 5.301-2.316Zm-33.865 5.466c-.439.32-.933.518-1.469.518H24.3c-2.732 0-13.38-.685-15.158-9.418l3.68.93c3.152 4.324 5.142 6.63 5.971 6.919.829.288 4.317-.678 10.466-2.898l4.886 2.965 9.76-4.831c2.314 3.153 4.134 5.012 5.462 5.576.659.28 1.663.233 2.44.24Z"/>
    <path fill="#5B5864" d="M44.314 60.169c.473 0 3.16 3.437 3.703 3.871.543.434 3.363-.47 3.363-.47l-.236-.26c-.415-.487-1.193-1.546-.79-2.23.539-.911 16.027 5.833 16.346 5.833l.924-.079c1.726-.174 5.604-.645 9.681-1.476l.533-.11c3.676-.776 6.275-1.453 7.796-2.034l.42.826-.016.826a45.572 45.572 0 0 1-6.984 2.403c-3.727.941-12.694 1.88-13.576 1.88-.883 0-8.516-3.483-9.074-2.822-.558.662 1.36 3.587 1.36 3.905 0 .112-.565-.191-1.165-.065a3.559 3.559 0 0 1-.393-.405l-.165-.218c-1.127-1.64-2.305-.7-2.958.328l-.09.147c-.116.2-.244.395-.383.58-1.02-.018-2.303.304-3.21-.367-1.093-.809-5.354-6.046-5.354-6.046L34.1 69.544l-4.545-3.217-3.387 1.161c-2.73.922-6.209 2.056-6.785 2.056-.578 0-2.037-1.61-4.374-4.829l.466.268c1.338.738 3.81 1.93 4.134 1.93.423 0 9.51-4.225 10.47-4.225.96 0 3.826 4.225 4.334 4.225.508 0 9.428-6.744 9.901-6.744Z"/>
    <path fill="#DCDDE2" d="M44.297 59.683c.473 0 3.16 3.438 3.703 3.872.543.434 3.363-.47 3.363-.47s-1.564-1.578-1.026-2.49c.539-.912 16.027 5.832 16.346 5.832.319 0 5.624-.502 11.138-1.665 3.676-.775 6.275-1.453 7.796-2.034l.42.827c-.002.255-.008.532-.017.832a46.285 46.285 0 0 1-6.983 2.396c-3.727.942-12.694 1.881-13.576 1.881-.883 0-8.515-3.484-9.074-2.822-.558.661 1.349 3.93 1.349 4.247 0 .086-.542.058-1.083.065a3.424 3.424 0 0 1-.585-.644c-1.18-1.718-2.326-.62-2.956.46-.116.2-.245.395-.384.581-1.02-.02-2.439-.134-3.345-.805-1.093-.808-5.354-6.046-5.354-6.046l-9.946 5.358-4.544-3.216s-9.202 3.216-10.173 3.216c-.578 0-2.036-1.609-4.374-4.828 1.118.672 4.234 2.197 4.6 2.197.423 0 9.51-4.224 10.47-4.224.96 0 3.826 4.224 4.334 4.224.509 0 9.428-6.744 9.901-6.744Z"/>
    <path fill="#F4F5F7" d="M44.297 59.683c.456 0 2.977 3.205 3.64 3.816l.063.056-3.792-2.762s-9.775 6.238-9.978 6.238c-.204 0-4.355-3.931-4.355-3.931l-10.276 3.931-4.59-2.776a99.892 99.892 0 0 1-.016-.024c1.12.673 4.233 2.196 4.6 2.196.422 0 9.51-4.224 10.469-4.224.96 0 3.826 4.224 4.334 4.224.509 0 9.428-6.744 9.901-6.744Zm22.386 6.744c.319 0 5.624-.502 11.138-1.665 3.676-.775 6.275-1.453 7.796-2.034l.13.254c-1.571.708-3.416 1.297-5.533 1.768-2.25.5-6.724 1.208-13.424 2.123a263.507 263.507 0 0 0-6.12-2.324c-2.633-.971-6.19-2.1-10.67-3.385l.242.07c-.038-.228-.017-.448.095-.639.539-.912 16.027 5.832 16.346 5.832Z"/>
    <path fill="#C5C6CF" d="m51.31 63.101 4.665 6.148c-1.123-1.356-2.265-.303-2.863.721a6.31 6.31 0 0 1-.171.278l-5.317-7.04.026-.003c.152.165.273.288.35.35.5.398 2.918-.332 3.31-.454Z"/>
    <path fill="#CED0D6" d="M51.31 63.101 53.507 66h-3.776l-2.108-2.791.026-.003c.152.165.273.288.35.35.5.398 2.918-.332 3.31-.454Z"/>
    <path fill="#1C1C1C" d="M73.016 54.243c1.585-4.927 2.648-7.412 3.19-7.454.812-.064 5.657-2.294 5.657-2.294l.983-1.875c1.323 3.788 1.984 5.874 1.984 6.256v1.334a33.63 33.63 0 0 1-4.035 1.666c-1.435.49-4.027 1.279-7.779 2.367Z"/>
    <path fill="#414141" d="m83.66 46.613.675 3.499s-2.523.979-3.059.979c-.357 0-.63-1.03-.819-3.091l.82-.65Z"/>
    <path fill="#3F3F3F" d="m82.366 43.534.8 2.356-2.252.723-.457-1.447.058-.063c.78-.347 1.348-.608 1.348-.608l.503-.96Z"/>
    <path fill="#0F0F0F" d="M65.528 57.956c.298-.502 9.187-1.802 12.482-2.704 3.295-.9 6.038-2.396 6.038-2.886 0-.49 1.501-3.236 1.501-3.236s-.811-1.102-1.5-1.722c-.69-.62-1-2.964.781-4.399.045-1.093-.767-7.33-1.373-8.67-.606-1.34-1.581-3.26-2.311-2.8-.487.308-.79 1.586-.907 3.835l-.282.294c-.203-2.864.107-4.42.93-4.67 1.234-.375 3.046 2.551 3.494 4.376.3 1.216.622 3.76.967 7.635-.943 1.546-1.266 2.59-.967 3.13.45.811 2.23 2.67 2.23 2.99 0 .322-1.78 3.014-1.78 4.487 0 .982.308 2.758.926 5.33L85.348 60l-11.071 2.262c-6.032-2.536-8.948-3.971-8.75-4.306Z"/>
    <path fill="#585858" d="M82.538 54.096c-1.18.463-6.996 2.445-9.96 2.87-2.965.424-5.98 1.14-5.788 1.14.193 0 7.282 3.432 7.488 3.432.133 0 3.661-.479 10.584-1.438l-10.585 2.162c-6.032-2.536-8.948-3.971-8.75-4.306.3-.502 9.188-1.802 12.483-2.704 2.814-.77 5.225-1.972 5.87-2.612-.243.715-.69 1.2-1.342 1.456Z"/>
    <path fill="#7F7F7F" d="M86.61 49.13c0 .32-1.78 3.013-1.78 4.486 0 .982.31 2.758.927 5.33l-.26.67c-1.436.346-2.198.45-2.288.313-.148-.228-.86-3.664-.813-4.259.047-.595 1.308-.782 1.663-1.574.237-.528 1.088-2.183 2.552-4.966Z"/>
    <path fill="#ADADAD" d="M82.676 55.241c-.28.284-.42.567-.42.848 0 .422.867 3.636.91 3.738.043.102.518.22.518.16 0-.038-.336-1.62-1.008-4.746Z"/>
    <path fill="#B2B0B9" fill-rule="nonzero" d="m52.508 55.15.063.597-2.305.243.983-2.025.54.262-.511 1.053z"/>
    <path fill="#B2B0B9" fill-rule="nonzero" d="m53.15 56.073.063.597-2.238.237.462-1.322.566.198-.149.427z"/>
    <path fill="#161616" d="m55.771 44.142-1.11.955.936.938.98-.947zM60.49 39.95l-1.109.955.936.937.98-.946z"/>
  </g>
</svg>
