<svg xmlns="http://www.w3.org/2000/svg" viewBox="0 0 96 96">
  <defs>
    <path id="a" d="M0 0h96v96H0z"/>
  </defs>
  <g fill="none" fill-rule="evenodd">
    <path fill="#414344" d="M62.757 41.322c.44-2.368.816-5.14.829-6.076.012-.936.15-5.15-.217-5.408s-.613-.18-.786 0c-.174.18-.795.861-.85.971-.054.11.028.217-.286.411-.314.194-2.276 2.186-2.787 2.798-.511.611-1.59 2.089-1.836 2.439-.247.35-.966.989-1.546 1.574-.58.586-.92.947-1.109.972-.19.024-.397.101-.709.494-.312.393-.797 1.034-.991 1.562-.195.527-.805.938-1.261 1.202-.457.263-2.251 2.093-2.676 2.336-.424.244-3.603 1.426-4.12 1.744-.515.317-.974.333-1.486.413-.511.079-2.208.817-2.764 1.246-.555.43-1.157.728-1.768.77-.61.042-2.773 1.288-3.115 1.61-.162.154-.794.457-1.378.757-.644.33-1.245.658-1.45.8-.392.27-.554.47-1.128.625-.573.155-1.934 1.245-.958 1.36.977.114 17.175 2.064 23.295-1.686 6.12-3.75 8.658-8.545 9.097-10.914Z"/>
    <path fill="#313334" d="M62.583 29.838c.173-.18.42-.258.786 0 .232.163.262 1.904.25 3.4l-.033 2.008c-.013.936-.389 3.708-.829 6.076-.319 1.72-1.745 4.72-4.846 7.67-3.85.499-7.656-2.296-6.552-4.238 1.149-2.02 3.823-5.216 4.714-6.41.891-1.194 4.131-3.047 4.548-3.94.317-.677.477-2.138.574-2.978l.192-.162.06-.044c.314-.194.232-.3.286-.41.055-.11.676-.793.85-.972Z"/>
    <path fill="#2C2A2A" d="M63.619 32.244v.995l-.033 2.007c-.013.936-.389 3.708-.829 6.076-.143.77-.507 1.797-1.145 2.96-1.495 1.405-3.392 2.45-5.711 2.513-3.487.095-4.257-1.385-3.923-3.031 1.03-1.55 2.528-3.415 3.48-4.625l1.24-.9a97.88 97.88 0 0 1 2.145-1.488c.882-.594 1.786-.237 2.568-1.034.615-.626 1.666-2.315 2.208-3.473Z"/>
    <path fill="#515353" d="M62.662 29.768c.167-.125.393-.151.707.07.232.163.262 1.901.25 3.397l-.168.155c-.11.106-.21.239-.238.513l-.03.227c-.123.792-.506 2.48-.506 2.056l.015-.223c.114-1.136.191-4.792.169-5.633-.01-.36-.112-.499-.236-.531l.037-.031Z"/>
    <path fill="#452427" d="M62.34 30.171c.138.657.199 1.462.181 2.414-.026 1.428-.212 3.983-.317 4.617-.105.633-1.012.965-1.007.792.005-.174.317-2.057.355-2.73.038-.672.268-3.09.271-3.676.003-.39.015-.698.036-.921l.48-.496Z"/>
    <path fill="#E8E8EA" d="M59.129 34.006c.376-.589.59-.936.643-1.043.078-.16-.137-1.373 0-2.013.136-.64.25-2.391-.256-2.679-.506-.287-2.605.774-3.031 1.582-.426.808-1.996 3.904-2.113 4.902-.117.999.275 1.743.43 1.97.156.228.59 1.175.187 1.512-.402.336-.74.005-1.192.159-.451.154-.931.415-1.262.965-.332.55-.498.6-.313.897.185.296.047.877-.233 1.166-.28.29-.384.473-.824.45-.44-.021-.68-.22-1.108-.131-.429.088-1.268.686-1.409.942-.14.256.25.994.129 1.226-.122.23-.514.486-.777.456-.263-.029-.748-.555-1.095-.592-.348-.038-.707-.011-1.365.286-.66.298-.856 1.078-.935 1.455-.08.377-.435.552-.644.63-.21.078-.307.147-1.13-.25-.822-.398-1.625-.09-1.992.25-.368.34-.655 1.423-.925 1.67-.27.248-.895.52-1.13.51-.237-.01-1.045-.527-1.77-.368-.726.158-1.145.601-1.489 1.22-.344.617-.447.859-.612 1.053-.166.195-.513.214-.643.179s-.626-.442-1.067-.49c-.44-.048-.383-.256-.967 0s-1.16 1.061-1.145 1.358c.016.297.178 1.051-.163 1.382-.341.33-1.023.465-1.2.722-.178.257.015.51 0 .49-.015-.02 1.198-.638 1.26-.894.062-.256.451-.446.465-.627.015-.18-.087-1.148 0-1.318.088-.17.535-.859 1.03-.878.495-.02 1.027.344 1.317.546.29.2.372.256.47.257.099.002.674-.176.764-.321.09-.145.286-.68.362-.861.076-.182.73-1.13 1.1-1.327.37-.196.938-.292 1.185-.123.247.17.679.468.859.442.18-.026 1.1-.275 1.364-.547.264-.271.384-.737.554-1.074.17-.338.53-1.133 1.104-1.18.573-.046.989.08 1.27.382.28.303.463.426.72.377.256-.049.928-.363.954-.43.027-.067.11-.43.264-.523.155-.093.163-.199.156-.372-.006-.174.11-.424.334-.71.224-.285.407-.478.446-.485.04-.007.814-.258 1.116-.145.302.113.584.403.694.457.11.054.621.153.695.174.074.02.405-.15.437-.174.032-.024.247-.698.323-.934.077-.236.397-1.097.66-1.345.262-.249.501-.416.684-.414.182.002.771.28.85.276.079-.003.466.074.742-.276.276-.35.698-.987.76-1.097.064-.109-.227-.362-.252-.47-.024-.109.305-.946.55-1.187.247-.24 1.144-.157 1.369-.128.225.03 1.022-.46 1.098-.774.077-.315-.111-1.952-.207-2.114-.096-.161-.376-.27-.423-.425-.046-.153.175-1.385.423-2.042.248-.656 1.203-1.582 1.26-1.81.057-.228 1.223-2.307 1.425-2.52.202-.213.977-.555 1.158.053.18.61.28 1.748.25 2.215-.03.467-.226 2.142-.312 2.306-.057.109-.016.167.123.174Z"/>
    <path fill="#B2B2BB" d="M59.882 29.402a6.938 6.938 0 0 1-.11 1.548c-.137.64.078 1.853 0 2.013l-.156.27-.388.617.127-1.887c.01-.104.017-.188.025-.25.02-.175.081-.468.155-.797l.347-1.514Z"/>
    <path fill="#3D3D3E" d="M32.774 52.346c-.065-.32.029-1.565.524-1.6.494-.034.912.243 1.023.32.074.051.233.225.475.52.249-.758.416-1.304.503-1.64.13-.501.584-1.014.721-1.075.137-.06.5-.59.863-.609.362-.019.843-.023 1.182.205.338.229 1.4.985 1.716 1.254.315.27 1.622.098 1.768-.392.147-.49-.342-1.867-.354-2.391-.012-.525.836-.76 1.441-.51.606.25 1.463.758 1.904 1.12.44.36 1.722.108 1.886-.318.163-.425-1.088-1.534-1.306-1.611-.219-.077-.108-.309-.015-.624.092-.316.622-.746.999-.728.377.019 2.228.444 3.085.908.857.464 1.12.112.967-1.206-.154-1.319-.213-2.06.162-2.058.374.002 1.772.667 2.073.856.301.19 1.805-.744 1.81-1.455.005-.71-.05-1.394.111-2.93.162-1.535.611-2.426.66-2.593.047-.168.616-.409.874-.37.173.026.489.194.95.502-.307.031-.514.173-.623.426-.163.379-.76 4.098-.786 5.564-.026 1.466-8.741 6.43-9.877 7.14-1.136.708-9.848 4.439-10.86 4.63-1.013.191-1.811-1.015-1.876-1.335Z"/>
    <path fill="#262629" d="M41.851 47.029c.52.243 1.462 1.061 2.825 2.456l-.887.418c-2.157.993-5.693 2.503-7.706 3.281l.098-1.202c.005-.083.008-.16.01-.23l-.006-.187c-.077-.93.405-2.05.594-2.515.188-.465.838-.607 1.012-.574l-.269.108c-.284.124-.58.315-.592.725.173.243 2.112 1.818 2.725 2.242.455.315 1.016-.788 1.296-1.796.294-.084.54-.23.598-.426.128-.428-.227-1.53-.328-2.152.088-.23.268-.317.63-.148Zm14.894-11.114a1.32 1.32 0 0 0-.192.065.607.607 0 0 0-.222.135l-.062.067-.05.072-.046.093c-.163.379-.76 4.098-.786 5.564-.02 1.182-5.688 4.637-8.48 6.304.189-.4.223-.718.102-.957l-.184-.39c-.373-.832-.74-1.905-.475-1.881.308.027 1.365.657 1.65.833.168.104.856-.144 1.368-.555.663.295.897-.022.813-1.047l-.1-.929c-.02-.205-.033-.39-.04-.551.038-.062.083-.1.132-.108.21-.038 1.754.277 2.367.817l.142.153c.463.633 1.934-1.136 2.343-2.759.41-1.623.763-3.884.933-4.333.169-.449.507-.57.571-.61.043-.025.115-.02.216.017Z"/>
    <path fill="#E1E3E8" d="M10.742 61.724c-.01-.288-.199-1.88 2.179-2.665 2.377-.786 5.84-1.69 8.329-2.256 2.49-.567 8.558-3.434 9.24-3.654.692-.04 1.715-.255 6.772-2.222 5.057-1.968 9.058-4.047 9.882-4.488.824-.44 3.858-2.976 4.208-3.17.35-.194 8.5-5.82 9.509-5.688 1.009.132 6.16 3.558 8.255 4.006 2.096.449 3.95.003 6.44-1.804 2.491-1.806 5.07-3.176 6.513-3.274 1.442-.098 2.377-.283 2.137 0-.24.283-.502.781-1.534 1.863-1.032 1.081-2.216 3.54-2.174 5.783.042 2.242.955 11.285.932 12.048-.023.762-24.913 7.954-26.811 8.307-1.899.353-38.1.515-40.49 0-2.391-.516-3.378-2.498-3.387-2.786Z"/>
    <path fill="#D7DAE1" d="M60.86 37.58c1.01.133 6.16 3.559 8.256 4.007.22.047.436.084.651.111L54.453 55.002l-6.787-8.9c1.028-.727 2.853-2.225 3.491-2.698l3.24-2.153c2.544-1.669 5.845-3.751 6.464-3.67Z"/>
    <path fill="#CFD4D9" d="m74.217 40.66.256-.155.164 1.02c.824 5.457 1.342 13.5 1.288 15.064-.027.769-1.152 1.679-2.778 2.575l-2.386.732a640.43 640.43 0 0 1-10.706 3.147c-1.755-.666-4.429-2.506-4.642-7.111-.26-5.586 1.901-6.46 4.12-8.775 1.128-1.177 4.488-3.935 7.675-6.309.744.36 1.412.633 1.908.74 1.703.364 3.246.138 5.101-.929Z"/>
    <path fill="#C4CACF" d="M75.925 56.59c-.027.768-1.152 1.678-2.778 2.574l-2.386.732-4.461 1.336c-2.226.658-4.391 1.284-6.245 1.81a6.882 6.882 0 0 1-3.826-3.557c.86-.609 1.839-1.21 2.891-1.786l1.936-1.022c3.616-1.929 10.823-5.997 14.321-8.932l.187 2.159c.255 3.158.39 5.848.36 6.685Z"/>
    <path fill="#E9EBEF" d="M39.735 58.211c-3.85 2.776-10.943 4.948-21.28 6.518l-1.681-.046c-1.386-.047-2.323-.104-2.645-.173-2.391-.516-3.378-2.498-3.387-2.786l-.006-.292c.018-.573.26-1.737 2.185-2.373 2.377-.786 5.84-1.69 8.329-2.256 2.49-.567 8.558-3.434 9.24-3.654l.315-.03c.736-.103 2.098-.496 6.457-2.192l1.067-.423c4.546-1.833 8.05-3.656 8.815-4.065.435-.233 1.487-1.05 2.435-1.798-2.965 6.454-6.247 10.977-9.844 13.57Z"/>
    <path fill="#EFF0F2" d="M36.303 56.83c-2.18 1.323-8.565 4.099-9.746 4.217l-.862.057c-2.712.152-10.701.481-14.961.297l.002.031.02-.24c.084-.616.48-1.577 2.165-2.133 2.377-.786 5.84-1.69 8.329-2.256 2.49-.567 8.558-3.434 9.24-3.654l.315-.03.41-.076c.839-.186 2.385-.692 6.047-2.116l1.067-.423c1.212-.488 2.349-.976 3.38-1.437l-.52.914c-1.764 3.06-3.773 6.173-4.886 6.849Z"/>
    <path fill="#F5F6F7" d="M32.07 56.13c-3.301 2.215-10.342 4.245-21.122 6.089-.139-.24-.204-.422-.206-.495l-.006-.292.02-.24c.084-.616.48-1.577 2.165-2.133 2.377-.786 5.84-1.69 8.329-2.256 2.49-.567 8.558-3.434 9.24-3.654l.315-.03.408-.076c.83-.184 2.36-.682 5.966-2.084-1.34 1.899-3.029 3.775-5.108 5.17Z"/>
    <path fill="#CBCDD2" d="m84.206 36.509-.47.632c-.225.295-.548.69-1.064 1.23-1.032 1.082-2.216 3.542-2.174 5.784l.02.535c.14 2.876.933 10.8.912 11.513-.023.762-24.913 7.954-26.811 8.307l-.307.035c-1.766.145-9.375.252-17.514.284l-9.518-1.8c.348-.202 5.751-.808 8.022-1.115 2.271-.306 2.429-.429 2.602-.345.802.387 2.476.87 2.813.86 1.267-.857 2.147-1.554 2.4-1.911.758-1.074.728-1.95-2.225-2.735-2.953-.785-4.871-.746-6.878-1.194-2.006-.447-4.684-1.786-4.362-2.427.322-.64 22.411-8.881 23.187-8.27.776.61 4.963 6.76 5.336 7.316.294.372 1.51-.662 2.686 0 1.175.662 1.853 1.313 1.472 2.978-.38 1.665-1.343 3.57-.952 3.522l.351-.087c1.635-.446 8.234-2.469 9.334-3.032.818-.418 1.72-1.545 2.705-3.38l-.363-4.983c-.221-2.898-.372-4.514-.451-4.846-.176-.735-1.537-.11-2.162-.117-.625-.008-2.468-.643-2.739-.63l-6.882.655c-1.462.146-2.605.266-2.714.296-.213.059-.73.466-1.554 1.224l-3.51-2.895 1.7-1.118c2.414-1.568 5.201-3.288 5.765-3.214 1.009.132 6.16 3.558 8.255 4.006 1.965.42 3.717.055 5.98-1.48l.46-.324c2.491-1.806 5.07-3.176 6.513-3.274l1.62-.138c.439-.03.645-.013.517.138Z"/>
    <path fill="#ABAFB9" d="m84.206 36.509-.47.632-.261.33c-.2.245-.46.54-.803.9-1.032 1.082-2.216 3.542-2.174 5.784l.02.535.062 1.029c.185 2.71.628 7.367.79 9.46-.417.551-.85 1.116-1.3 1.691-3.995 1.52-15.834 5.013-21.898 6.703L46.891 47.508l1.276-.424c2.59-.847 4.456-1.362 4.672-1.192.776.61 4.963 6.76 5.336 7.316.294.372 1.51-.662 2.686 0 1.175.662 1.853 1.313 1.472 2.978-.38 1.665-1.343 3.57-.952 3.522l.351-.087.87-.248c2.393-.7 7.508-2.294 8.464-2.784.818-.418 1.72-1.545 2.705-3.38l-.363-4.983-.292-3.525c-.069-.724-.122-1.165-.159-1.321-.176-.735-1.537-.11-2.162-.117-.625-.008-2.468-.643-2.739-.63l-8.854.858c-.42.046-.692.08-.742.093-.213.059-.73.466-1.554 1.224l-3.51-2.895 1.7-1.118 1.05-.675c2.115-1.348 4.232-2.602 4.715-2.54 1.009.133 6.16 3.559 8.255 4.007 1.965.42 3.717.055 5.98-1.48l.46-.324c2.491-1.806 5.07-3.176 6.513-3.274l1.62-.138.284-.013c.237 0 .33.038.233.151Z"/>
    <path fill="#747372" d="M60.86 37.58c.921.121 5.962 3.634 8.312 4.475-6.9.703-12.132 1.278-15.698 1.725-.35.044-1.214-.012-2.594-.167l.345-.26 3.173-2.102c2.543-1.669 5.844-3.751 6.463-3.67Z"/>
    <path fill="#75090E" d="M71.733 42.42c.08 1.007.377 6.035.479 7.874.067 1.226.132 3.618.194 7.178l1.45-2.47-1.644-12.9c-.305-.13-.465-.025-.479.318Z"/>
    <path fill="#CC2622" d="m84.206 36.509-.47.632c-.225.295-.548.69-1.064 1.23-1.032 1.082-2.216 3.542-2.174 5.784l.02.535c.14 2.876.933 10.8.912 11.513-.009.302-3.925 1.614-8.767 3.11l-.314-9.518-.083-1.57c-.093-1.533-.25-3.733-.471-6.6 1.027-.21 2.09-.697 3.3-1.518l.462-.324c2.49-1.806 5.07-3.176 6.512-3.274l1.62-.138c.439-.03.645-.013.517.138Zm-26.301 5.71-1.182 3.841c-.346 1.077-.705 2.937-1.077 5.58L49.759 44.5l1.284-1.009c.1-.076.181-.136.24-.176l3.742-2.473c1.411-.918 2.96-1.894 4.122-2.537l-.422 1.287c-.256.804-.543 1.727-.82 2.629Z"/>
    <path fill="#BC1E1B" d="m80.498 44.155.02.535.06 1.002c.23 3.387.87 9.87.852 10.51-.009.303-3.925 1.615-8.767 3.111l-.203-6.135c1.23-1.522 1.753-3.159 1.567-4.91-.204-1.916-.998-2.894-1.992-3.475l-.24-3.167c1.027-.212 2.09-.698 3.3-1.519l.511-.358c.156.264 1.315.362 2.188-.12 1.79-.99 3.858-2.048 4.924-1.306l-.046.049c-1.032 1.081-2.216 3.54-2.174 5.783Z"/>
    <path fill="#850A0F" d="m80.498 44.155.02.535.06 1.002c.23 3.387.87 9.87.852 10.51-.007.242-6.197 1.867-9.673 2.977-.06-.806-.006-1.434.165-1.884.538-1.418 1.72-3.252 2.019-4.314.664-2.351.7-4.03.658-6.278-.048-2.583 1.23-3.356 2.135-3.803.808-.4 2.182-.786 4.125-1.16-.234.784-.376 1.614-.36 2.415Zm-21.351-5.851-.422 1.287-.82 2.629-.313 1.023-3.387.522c-1.247.198-2.72.436-4.42.714l1.258-.989.24-.176 3.742-2.473 1.231-.792a59.452 59.452 0 0 1 2.89-1.745Z"/>
    <path fill="#C99593" d="m84.183 36.545-.447.596-.261.33c-.2.245-.46.54-.803.9-1.03 1.081-2.214 3.537-2.174 5.778l-.266.205c-.35.254-.654.407-.664.18l-.01-.296c-.011-.531.02-1.447.406-2.661.471-1.484 2.046-3.173 2.879-3.998a6.824 6.824 0 0 1 1.34-1.034Z"/>
    <path fill="#A67371" d="m80.498 44.15-.266.204c-.35.254-.654.407-.664.18l-.01-.296.002-.41c.013-.388.06-.889.196-1.487l.078-.309 1.35-1.21c-.42 1.03-.706 2.206-.686 3.327Z"/>
    <path fill="#8A5452" d="m80.498 44.15-.266.204c-.35.254-.654.407-.664.18l-.01-.296.002-.41.022-.375.02-.21 1.081-.823a7.487 7.487 0 0 0-.185 1.73Z"/>
    <path fill="#FAFAFA" d="m19.474 58.603 3.121.709c3.211.755 6.064 1.662 8.74 4.22.428.41.85.844 1.264 1.303l-8.888-.03c-5.034-.045-8.858-.14-9.582-.295-2.391-.516-3.378-2.498-3.387-2.786l-.006-.292c.018-.573.26-1.737 2.185-2.373a80.523 80.523 0 0 1 4.37-1.276c.397.3 1.126.574 2.183.82Z"/>
    <path fill="#F0F1F3" d="M13.969 60.003c1.684.336 5.162.26 10.433-.228 2.492.7 4.77 1.69 6.932 3.756.357.341.709.7 1.056 1.074-.21.076-.453.151-.724.227l-7.955-.028-4.248-.055c-2.846-.053-4.833-.131-5.334-.24-2.391-.515-3.378-2.497-3.387-2.785l-.006-.292c.017-.557.247-1.674 2.03-2.32-.203.352.059.663 1.203.891Z"/>
    <path fill="#E8E9EC" d="M12.562 60.825c1.363.649 7.906.91 15.642.428a14.165 14.165 0 0 1 3.13 2.278c.357.341.709.7 1.056 1.074-.21.076-.453.151-.724.227l-7.955-.028-4.248-.055-3.035-.079c-1.195-.043-2.004-.097-2.3-.16-2.39-.516-3.377-2.498-3.386-2.786l-.006-.292c.01-.34.1-.89.576-1.413l.213-.208c.137.4.426.723 1.037 1.014Z"/>
    <path fill="#191719" d="M51.903 44.203c.22-.23 4.552-3.317 6.183-4.367 1.631-1.05 2.374-2.01 4.205-.78 1.831 1.23 5.867 3.426 7.459 3.61 1.592.183 3.153-.103 4.342-.926 1.189-.823 3.038-2.82 5.077-3.633 2.039-.814 3.613-1.14 4.305-1.003.69.139 1.25-.892 1.346-1.109.096-.216-.415-.5-1.115-.48-.7.02-2.537.136-4.847.99-2.31.854-3.81 2.524-4.426 3.017-.616.493-2.165 1.51-2.829 1.623-.663.113-2.151.405-4.845-1.236-2.694-1.64-3.782-2.363-4.467-2.698-.685-.335-1.686-.7-3.144 0-1.46.7-5.907 4.01-6.91 4.701-1.005.692-1.32.978-1.357 1.15-.036.17.803 1.371 1.023 1.14Z"/>
    <path fill="#444" d="M81.345 36.784c1.644-.394 2.57-.282 3.084-.17-.245.297-.581.565-.955.49-.692-.138-2.266.19-4.305 1.003-2.04.813-3.888 2.81-5.077 3.633-1.19.823-2.75 1.11-4.342.926-1.592-.184-5.628-2.38-7.459-3.61-1.734-1.166-2.492-.365-3.954.615l-.976.644c-1.924 1.298-5.265 3.686-5.458 3.888-.131.137-.482-.233-.736-.592.495-.418 3.315-2.264 5.364-3.747l1.106-.798c1.321-.944 2.091-1.401 3.015-1.389.84.012 1.796.535 2.5.96l1.447.868c1.383.818 4.053 2.344 5.292 2.458l.615.05c1.188.074 2.204-.093 4.416-1.716l1.32-.988c2.173-1.601 3.145-2.054 5.103-2.525Z"/>
    <path fill="#3F3C3F" d="M83.705 35.515c.7-.02 1.211.264 1.115.48-.05.112-.224.443-.476.717.178-.375.27-.625.276-.753.01-.223-.653-.207-1.596-.157-.943.05-2.817.517-4.655 1.33-1.839.813-3.324 2.294-4.803 3.35-1.48 1.058-2.701 1.111-3.782.919-.982-.175-1.832-.545-3.155-1.343l-2.105-1.3c-1.176-.714-2.368-1.396-3.111-1.656-.967-.338-1.88.118-3.317 1.084l-.703.48c-1.105.765-3.24 2.322-6.403 4.67-.075-.13-.119-.233-.11-.275.033-.155.297-.406 1.099-.97l.681-.478c1.483-1.06 5.181-3.776 6.487-4.402 1.346-.646 2.303-.385 2.98-.077l.164.077c.685.335 1.773 1.058 4.467 2.698s4.182 1.35 4.845 1.236c.597-.101 1.912-.936 2.618-1.461l.21-.162c.617-.493 2.117-2.163 4.427-3.017 2.31-.854 4.147-.97 4.847-.99Z"/>
    <path fill="#9499A3" d="M64.65 52.727c2.217.112 4.53-1.682 4.531-4.304 0-2.622-2.185-4.5-4.394-4.5s-4.642 1.593-4.506 4.44c.136 2.845 2.15 4.251 4.368 4.364Z"/>
    <path fill="#D4D6DA" d="M64.68 52.52c2.209 0 4.273-1.646 4.321-4.147.048-2.501-2.185-4.5-4.394-4.5s-4.225 1.654-4.211 4.233c.014 2.58 2.075 4.414 4.284 4.414Z"/>
    <path fill="#CBCED6" d="M68.645 46.612c.237.54.368 1.135.356 1.76-.048 2.502-2.112 4.148-4.321 4.148-1.134 0-2.229-.483-3.028-1.302 1.012.161 2.237.186 3.497-.236 2.102-.704 3.058-2.879 3.443-4.184l.053-.186Z"/>
    <path fill="#D7DADC" d="M64.607 43.873c.957 0 1.918.375 2.697 1.003-1.42 1.424-2.647 2.335-3.683 2.735-.818.317-1.883.647-3.195.992a4.31 4.31 0 0 1-.03-.497c-.014-2.58 2.002-4.233 4.211-4.233Z"/>
    <path fill="#151414" d="M65.274 45.695c.101-.047.23-.167.253-.302.023-.134-.134-.305-.253-.317-.12-.012-.338.117-.341.31-.003.19.143.24.14.309-.004.068 0 .383-.054.52-.052.138-.117.202-.129.31-.012.109-.027.302-.078.326-.051.024-.204-.148-.264-.175-.06-.027-.263.009-.325.096-.062.088-.06.243 0 .3.06.058.15.111.05.158a.45.45 0 0 0-.215.217c-.05.098-.092.248-.208.389-.116.14-.17.256-.226.385-.056.128-.256.25-.29.266-.035.014-.067.13 0 .116.066-.013.444.006.425-.055a.472.472 0 0 1 .047-.276c.039-.06.342-.349.368-.436.027-.088.132-.045.175.043.043.089.126.223.063.266-.063.043-.056.22-.104.303-.047.081-.355.32-.458.452-.103.133-.423.272-.636.452-.213.18-.324.345-.4.387-.076.042-.11.032-.173.108a.476.476 0 0 1-.293.145c-.124.02-.244.084-.16.192a.256.256 0 0 0 .247.107c.065-.008.358-.065.38-.107.02-.042.258-.272.363-.307.106-.035.765-.493.809-.525.043-.033.6-.327.712-.396.112-.069.467.106.628.162.162.055.442.018.594.139.151.12.736.423.85.498.112.075.148.303.23.3.083-.004.563-.365.583-.437.02-.071-.053-.093-.134-.052-.081.042-.161.021-.235 0-.074-.021-.158-.026-.214-.042-.055-.017-.436-.382-.662-.534-.226-.151-.362-.177-.475-.26-.113-.085-.378-.2-.414-.243-.037-.043-.206-.217-.227-.287-.021-.071.018-.18.01-.411-.009-.232-.184-.442-.16-.56.023-.116.082-.71.138-.796.057-.085.051-.508.063-.738Z"/>
    <path fill="#989CA3" d="M48.498 63.532c-.625-1.704-1.756-4.187-3.185-5.118-1.428-.932-6.262-1.652-8.377-1.766-2.114-.113-5.294-.626-6.307-1.272-1.013-.646-1.637-1.752-1.004-1.99.634-.239 3.078-.968 4.25-1.657 1.172-.689 4.112-2.13 5.643-2.59 1.531-.461 3.1-1.522 4.281-1.812 1.182-.291 2.946-1.318 3.847-1.933.9-.614 3.533-2.732 3.72-2.69.187.04 2.92 4.511 3.013 4.66.094.149 1.366.105 1.444.27.08.165-.367.86-.212 1.053.156.193 1.263.515 1.274.599.011.084-.637.864-.514 1.091.123.227 3.035 5.835 3.32 7.406.189 1.047.145 2.36-.133 3.937-6.956 2.344-10.643 2.948-11.06 1.812Z"/>
    <path fill="#EAEBED" d="M48.725 62.903c-.625-1.703-1.967-3.998-3.32-4.833-1.354-.836-6.35-1.547-8.464-1.66-2.115-.114-5.358-.659-6.371-1.305-1.014-.645-1.578-1.48-.945-1.72.634-.238 3.078-.967 4.25-1.656 1.172-.689 4.112-2.13 5.643-2.59 1.531-.461 3.1-1.522 4.281-1.812 1.182-.291 2.946-1.318 3.847-1.933.9-.614 3.533-2.732 3.72-2.69.187.04 2.81 4.474 2.903 4.623.094.148 1.344.007 1.423.172.079.166-.472.911-.316 1.104.156.193 1.366.464 1.378.548.011.084-.741.916-.618 1.143.123.227 3.27 5.918 3.554 7.489.19 1.047.146 2.36-.132 3.937-6.805 1.924-10.416 2.319-10.833 1.183Z"/>
    <path fill="#E0E1E4" d="M59.69 57.783c.19 1.047.146 2.36-.132 3.937l-1.277.353c-5.98 1.616-9.166 1.892-9.556.83-.625-1.703-1.967-3.998-3.32-4.833-1.283-.792-5.834-1.472-8.107-1.638l-.357-.023a22.72 22.72 0 0 1-.992-.076l1.102-.135c4.834-.623 12.596-2.05 19.689-4.789l.61 1.153c.962 1.84 2.17 4.275 2.34 5.22Z"/>
    <path fill="#DADBDD" d="M51.366 42.703c.187.042 2.81 4.475 2.903 4.624.094.148 1.344.007 1.423.172.079.166-.472.911-.316 1.104.156.193 1.366.464 1.378.548.011.084-.741.916-.618 1.143l.97 1.802c.988 1.87 2.398 4.66 2.584 5.687.19 1.047.146 2.36-.132 3.937l-1.277.353c-5.98 1.616-9.166 1.892-9.556.83-.625-1.703-1.967-3.998-3.32-4.833-1.283-.792-5.834-1.472-8.107-1.638l-.357-.023a24.784 24.784 0 0 1-1.574-.14c-.644-.477.806-1.125 1.595-1.227.992-.127 5.055.36 7.016.647 1.96.287 2.575 1.112 3.212 1.177.637.064 7.917-1.746 8.893-2.106.91-.337.576-1.675.252-2.3l-2.989-4.984a9.3 9.3 0 0 0-.171-.271c-.292-.43-.388 2.113-1.268 2.361-.88.248-2.66-1.6-2.897-1.566-.236.033-1.403 2.614-2.525 2.96-1.122.345-2.646-.912-2.817-1.037-.172-.124-.291.384-1.101 1.718-.757 1.245-2.639 1.353-3.516 1.194l-.172-.037c-.775-.206-.875-.03-1.917.903s-2.584 1.192-3.87 1.059c-1.284-.134-2.608-.52-2.263-.624l.287-.074c.734-.183 2.499.345 3.89-.426 1.391-.771 1.064-1.859 2.426-2.298 1.363-.44 2.505.735 3.219.343.714-.391 1.208-2.299 2.539-2.894 1.33-.594 2.118.771 3.223.407 1.105-.365 2.053-1.683 2.118-2.554.08-1.066 1.048-2.07 1.178-2.482l.772-.885c.47-.345.82-.584.885-.57Z"/>
    <path fill="#E2E4E6" d="m52.37 46.136.559 1.383-.188.686c-.17.594-.411 1.242-.834 1.361-.88.248-2.66-1.6-2.897-1.566-.236.033-1.403 2.614-2.525 2.96-1.122.345-2.646-.912-2.817-1.037-.172-.124-.291.384-1.101 1.718-.757 1.245-2.639 1.353-3.516 1.194l-.172-.037c-.775-.206-.875-.03-1.917.903s-2.584 1.192-3.87 1.059c-1.284-.134-2.608-.52-2.263-.624l.287-.074c.734-.183 2.499.345 3.89-.426 1.391-.771 1.064-1.859 2.426-2.298 1.363-.44 2.505.735 3.219.343.714-.391 1.208-2.299 2.539-2.894 1.33-.594 2.118.771 3.223.407 1.02-.337 1.906-1.486 2.088-2.346l.03-.208c.08-1.066 1.048-2.07 1.178-2.482l.1-.115c1.322.433 2.176 1.13 2.56 2.093Z"/>
    <path fill="#AEAEAE" d="M33.772 51.788c.67.64 1.108 1.129 1.314 1.465.221.361.034.667-.563.917a2.515 2.515 0 0 1-1.502-.35c-.394-.233-.662-.68-.803-1.338l.72-.293c.231-.1.45-.2.645-.3l.189-.101Zm7.161-3.214c-.021.267-.028.59-.02.971.293.91.293 1.62 0 2.127-.438.761-1.347.406-1.401.148l-.055-.273a2.262 2.262 0 0 1 .055-1.04c.11-.364.229-1.029.206-1.438.322-.11.596-.214.822-.312l.393-.183Zm5.31-2.318.213-.12.144 2.784c.012.318.014.527.008.625-.028.447-.634.554-.905.52-.27-.033-.644-.584-.71-.9-.04-.19-.005-.964.106-2.322.384-.177.775-.38 1.144-.587Zm4.02-2.82c.058.606.172 1.15.342 1.631l.171.502c.26.794.505 1.72.308 1.988-.24.326-.827.225-1.168-.021-.341-.246-.835-1.266-1.03-1.816-.119-.334-.202-.738-.284-1.029l1.66-1.256Z"/>
    <path fill="#979797" fill-rule="nonzero" d="m49.118 48.474-.013.033c-.672 1.484-1.43 2.374-2.3 2.657-.796.258-1.74.042-2.835-.624l-.366-.236-.028.074c-.537 1.226-1.149 2.053-1.85 2.474l-.238.125c-.791.364-1.83.347-3.117-.033l-.137-.046-.072.193c-.177.404-.673.884-1.055 1.177-.256.195-.822.494-1.7.897 1.142.151 2.195.196 3.314.313l1.671.163c3.533.318 5.2.973 6.624 2.187.601.511 1.505 1.758 2.735 3.76l.29.476-.514.31-.518-.844c-1.079-1.73-1.88-2.818-2.382-3.246-1.248-1.063-2.694-1.664-5.705-1.988l-.584-.058c-2.227-.2-4.5-.47-6.82-.808a8.885 8.885 0 0 1-1.734-.391c-.756-.262-1.34-.395-1.302-.66.039-.264 3.002.684 4.633.286 1.63-.399 2.41-1.53 2.56-1.976l.061-.23.07-.333.321.11c1.36.466 2.396.524 3.11.196.648-.297 1.252-1.064 1.795-2.31l.304-.749.314.23c1.246.912 2.237 1.228 2.97.99.68-.22 1.337-1 1.946-2.351l.165-.383.164-.398.317.291c1.406 1.295 2.42 1.79 2.985 1.56.488-.2.64-1.041.36-2.57l-.072-.365c-.308-.94-.356-1.334-.143-1.182.212.153.815 1.052 1.806 2.696 1.396 2.196 2.412 3.89 3.051 5.087.72 1.347 1.286 3.023 1.7 5.025l.148.767-.59.106c-.413-2.288-1.01-4.16-1.787-5.616l-.379-.689c-.624-1.107-1.498-2.546-2.622-4.316l-.389-.609.005.053c.065 1.062-.153 1.761-.69 2.083l-.171.085c-.747.304-1.74-.092-3.011-1.142l-.295-.251Z"/>
    <path fill="#4D4F50" d="M47.089 55.679c.157-.14.399-.126.54.031l.03.035a.407.407 0 0 1-.588.563l-.085-.111a.415.415 0 0 1 .06-.474Zm1.999-.504c.158-.14.399-.126.54.032l.03.034a.407.407 0 0 1-.588.563l-.085-.11a.415.415 0 0 1 .06-.474Zm2.123-.569a.382.382 0 0 1 .437.097l.03.035a.407.407 0 0 1-.588.563l-.085-.111a.415.415 0 0 1 .06-.474l.029-.03Zm2.016-.433c.157-.14.399-.127.54.03l.03.036a.407.407 0 0 1-.588.563l-.086-.112a.415.415 0 0 1 .06-.473Zm-7.199-.103a.382.382 0 0 1 .437.097l.03.035a.407.407 0 0 1-.588.563l-.085-.111a.415.415 0 0 1 .06-.474l.029-.03Zm9.36-.54a.382.382 0 0 1 .436.096l.03.035a.407.407 0 0 1-.588.563l-.085-.111a.415.415 0 0 1 .06-.474l.029-.03Zm-7.329.056c.158-.14.4-.126.54.031l.03.035a.407.407 0 0 1-.588.563l-.085-.111a.415.415 0 0 1 .06-.474Zm2.124-.57a.382.382 0 0 1 .436.098l.03.035a.407.407 0 0 1-.587.562l-.086-.11a.415.415 0 0 1 .06-.474l.029-.031Zm2.015-.433c.157-.14.399-.126.54.032l.03.034a.407.407 0 0 1-.588.563l-.085-.111a.415.415 0 0 1 .06-.474Zm1.963-.57c.157-.14.399-.126.539.032l.031.034a.407.407 0 0 1-.588.563l-.086-.111a.415.415 0 0 1 .06-.474Z"/>
    <path fill="#4B4C4E" d="m46.422 52.632-.004.003a.262.262 0 0 0 .002.375l.002.002a.27.27 0 0 0 .379-.002.265.265 0 0 0 .001-.375l-.001-.001a.269.269 0 0 0-.38-.002ZM48.473 52.098l-.004.004a.262.262 0 0 0 .002.374l.002.003a.27.27 0 0 0 .379-.003.265.265 0 0 0 .001-.374l-.001-.002a.269.269 0 0 0-.38-.002ZM50.529 51.688l-.004.004a.262.262 0 0 0 .002.375l.002.002a.27.27 0 0 0 .379-.002.265.265 0 0 0 .001-.375l-.001-.002a.269.269 0 0 0-.379-.002ZM43.954 55.005l-.004.003a.262.262 0 0 0 .002.375l.002.002a.27.27 0 0 0 .379-.002.265.265 0 0 0 .001-.375l-.001-.001a.269.269 0 0 0-.38-.002ZM44.177 53.744l-.003.003a.262.262 0 0 0 .001.375l.002.002a.27.27 0 0 0 .38-.002.265.265 0 0 0 0-.375v-.001a.269.269 0 0 0-.38-.002ZM44.552 52.447l-.004.004a.262.262 0 0 0 .002.374l.002.003a.27.27 0 0 0 .379-.003.265.265 0 0 0 .001-.374l-.001-.002a.269.269 0 0 0-.38-.002ZM42.51 54.719l-.004.003a.262.262 0 0 0 .002.375l.002.002a.27.27 0 0 0 .379-.002.265.265 0 0 0 .001-.375l-.001-.001a.269.269 0 0 0-.38-.002ZM41.097 54.499l-.004.004a.262.262 0 0 0 .002.374l.002.002a.27.27 0 0 0 .379-.002.265.265 0 0 0 .001-.374l-.001-.002a.269.269 0 0 0-.379-.002ZM39.584 54.322l-.003.004a.262.262 0 0 0 .001.374l.002.002a.27.27 0 0 0 .38-.002.265.265 0 0 0 0-.374v-.002a.269.269 0 0 0-.38-.002ZM38.07 54.064l-.004.004a.262.262 0 0 0 .001.374l.003.002a.27.27 0 0 0 .378-.002.265.265 0 0 0 .002-.374l-.002-.002a.269.269 0 0 0-.378-.002ZM42.837 53.448l-.003.003a.262.262 0 0 0 .001.375l.002.002a.27.27 0 0 0 .38-.002.265.265 0 0 0 0-.375v-.001a.269.269 0 0 0-.38-.002ZM43.227 52.173l-.003.004a.262.262 0 0 0 .001.375l.002.002a.27.27 0 0 0 .38-.002.265.265 0 0 0 0-.375v-.002a.269.269 0 0 0-.38-.002Z"/>
    <path fill="#891723" d="M61.68 41.177c.46-.786.145-1.396-.291-1.655-.437-.26-1.074-.31-1.605.412-.53.722-.098 1.382.19 1.628.288.247 1.245.401 1.706-.385Z"/>
    <path fill="#9E444D" d="M59.679 40.097c-.016.276.001.528.052.757.09.404.434.712.912.69.318-.013.647-.203.988-.57a.978.978 0 0 1-.197.375c-.106.134-.376.33-.711.412-.32.016-.611-.08-.749-.199-.194-.166-.455-.522-.44-.958a4.71 4.71 0 0 0 .121-.454l.056-.108-.032.055Z"/>
    <path fill="#E0A0A0" d="M61.727 40.136a.775.775 0 0 0-.464-.698c-.291-.141-.636-.113-1.033.084.345-.104.64-.104.884 0 .245.103.45.308.613.614Z"/>
    <path fill="#48484A" d="M33.55 50.507c.058.042.273.193.646.452-.292.186-.44.302-.445.35-.008.073.38.802.718 1.168.338.367.525.631.617.776.091.144-.011.607-.156.742-.144.136-.463.166-.648.122-.185-.044-.772-.237-.944-.348-.172-.112-1.015-.894-1.12-1.482-.105-.588.187-1.135.31-1.328.122-.192.5-.325.675-.365.176-.04.26-.15.346-.087Zm8.82-4.475c.468.246.618.551.768.638.15.088-.373-.196-.545-.193-.172.002-.388.189-.513.529s-.634.936-.67 1.448c-.034.512-.047 1.45-.133 1.81-.086.36-.354.951-.402 1.098-.048.147-.242.492-.592.554-.35.063-.63-.221-.707-.416-.078-.194-.118-.778.072-1.653s.378-1.52.61-2.108c.233-.587.634-1.449.936-1.61.302-.16.708-.343 1.176-.097Zm4.238-1.974c.158.005.476.08.582.174.072.063.175.173.312.331-.273-.096-.466-.095-.58.004-.17.148-.299.897-.314 1.525-.015.628.077 1.64.09 2.012.013.37.003.544 0 .702-.003.159-.139.415-.158.561-.02.147-.146.51-.437.609-.291.098-.526-.116-.652-.304-.163-.108-.323-.139-.402-.71-.08-.572-.21-1.087-.132-1.832.08-.746.246-1.618.262-1.868.017-.25.563-.926.75-1.03.188-.103.521-.18.679-.174Zm3.944-2.185c.094.021.204.075.328.16-.147.016-.236.038-.267.068-.045.045-.23.504-.4.872-.17.367-.18.576-.13.74.049.163.853 1.99.957 2.208.104.22.162.448.173.707.011.259 0 .532-.046.658-.046.127-.407.407-.554.417-.146.01-.648-.224-.946-.74-.298-.516-.914-1.953-.963-2.162-.05-.21-.054-.413.071-.744.126-.33.357-.982.509-1.324.152-.342.639-.778.799-.86.16-.083.328-.033.469 0Zm6.62-6.034.042.012c.078.047 1.227 1.24 1.48 1.52.25.282 1.829 1.678 1.888 1.976.06.298.391.487.527.64.136.151.23.605.073.845-.158.24-.481.292-.67.24-.187-.052-.623-.253-.979-.617-.356-.365-1.735-1.646-1.912-1.782-.117-.09-.647-.564-1.59-1.422-.018-.084-.018-.262 0-.533.029-.408.27-.678.495-.75.224-.072.61-.165.688-.117Z"/>
    <path fill="#232324" d="m32.205 51.858.023-.174.201.449c.193.405.436.843.624.986.356.27 1.422.453 1.452.134.013-.143-.024-.43-.112-.864l.076.088c.338.367.525.631.617.776.091.144-.011.607-.156.742-.144.136-.463.166-.648.122-.185-.044-.772-.237-.944-.348-.172-.112-1.015-.894-1.12-1.482a1.523 1.523 0 0 1-.013-.429Zm9.072-1.594a3.455 3.455 0 0 1-.109.35l-.293.748c-.048.147-.242.492-.592.554-.35.063-.63-.221-.707-.416-.06-.151-.098-.54-.022-1.118v.098c0 .337.067.57.34.25.273-.318.616-.088.877-.242.16-.094.387-.55.591-1.063l-.033.48c-.014.145-.03.27-.052.36Zm3.622-2.455-.002-.127.114.464c.108.404.201.624.279.66.204.097.42.319.705.18.229-.11.417-.246.599-.76l.095-.308.009.186.007.362c0 .145-.005.245-.007.34-.003.119-.08.293-.126.434l-.032.127c-.02.147-.146.51-.437.609-.291.098-.526-.116-.652-.304l-.12-.076c-.099-.068-.188-.166-.25-.444l-.146-.944a5.29 5.29 0 0 1-.036-.4Zm4.044-4.202c-.038.568-.034.918.01 1.051l.173.44c.26.619.72 1.628.9 1.701l.276.13c.201.086.42.128.564-.13.146-.263.179-.595.178-.868.1.21.158.438.17.697.01.259-.002.532-.047.658-.046.127-.407.407-.554.417-.146.01-.648-.224-.946-.74-.298-.516-.914-1.953-.963-2.162-.05-.21-.054-.413.071-.744l.168-.45Zm7.089-6.89.1.068c.513.364.939.704 1.278 1.021l.563.552c.72.677 1.789 1.52 2.006 1.385.141-.088.186-.546.076-1.048l.258.275c.114.127.2.235.242.311l.027.066c.06.298.391.487.527.64.136.151.23.605.073.845-.158.24-.481.292-.67.24-.187-.052-.623-.253-.979-.617l-.614-.594c-.33-.31-.709-.662-.975-.903l-.98-.862c-.245-.22-.555-.502-.932-.845-.02-.084-.02-.262 0-.533Z"/>
    <path fill="#1F191A" d="M70.036 58.729c.815-.757 3.151-2.993 3.763-4.734.611-1.74 1.095-3.484 1.059-5.567-.036-2.083.02-2.815.53-3.114.51-.298 4.501-1.695 5.414-1.978.913-.283 1.359-.509 1.27.277-.088.786-.178 3.637-.168 5.542.006 1.27.167 3.038.482 5.305-1.848 2.689-2.937 4.072-3.268 4.15-.496.115-9.897.875-9.082.119Z"/>
    <path fill="#282324" d="M81.904 49.155c.006 1.189.147 2.813.423 4.875-2.077 1.952-3.146 2.247-3.206.889l-.108-2.573c-.096-2.688-.141-5.943.26-6.398.466-.528 1.883-1.356 2.767-1.894l-.041.721a93.91 93.91 0 0 0-.095 4.38Z"/>
    <path fill="#D3D3D7" d="M77.805 46.238c2.716-.01 4.133-.01 4.25 0 .174.015.217.555.25 2.445.032 1.89.106 2.455-.097 2.5-.202.043-2.676.037-3.193.06-.344.017-.62.035-.828.056-.189-1.497-.301-2.557-.336-3.18-.035-.624-.05-1.251-.046-1.88Z"/>
    <path fill="#E0E0E2" d="M82.054 46.238c.163.014.212.485.244 2.084l.047 2.223c0 .442-.029.614-.137.637l-.164.014c-.373.018-1.262.024-1.997.03l-.269-4.994 2.276.006Z"/>
    <path fill="#ECE7E9" d="M82.054 46.238c.163.014.212.485.244 2.084l.047 2.223c0 .442-.029.614-.137.637l-.266.018c-.137.005-.318.009-.522.012l.042-4.98.592.006Z"/>
    <path fill="#383335" d="M80.646 49.658c.012 0 .026.036.04.108l.014.084h.12v.239l1.518.003.003.157-2.726.09-.635.029-.027-.639c-.001-.025 1.667-.072 1.693-.071Zm-.036-1.26.129-.022 1.56-.006.007.572-1.227.044c-.094.012-.16-.207-.156-.221l-.015-.006-.142.006v.221h-.12c-.019.001-.03-.194-.036-.587Zm1.31-1.241c.1-.001.212.004.338.015l.025.542c-.13.033-.298.05-.5.055h-1.137c-.087.001-.138-.04-.152-.125l-.003-.098.155-.04.023-.336 1.25-.013Z"/>
    <path fill="#62555A" d="m82.299 48.37.007.572-.768.024-.033-.594.794-.002Zm-.858-1.213h.479c.1-.001.212.004.338.015l.025.542c-.13.033-.298.05-.5.055l-.31-.002-.032-.61Z"/>
    <path fill="#888F9A" d="m77.805 46.238.221.004.08 2.13c.027.62.112 1.449.255 2.487l.058.42-.232.02-.163-1.351a34.51 34.51 0 0 1-.173-1.83c-.035-.623-.05-1.25-.046-1.88Z"/>
    <path fill="#2C2425" d="M79.736 47.188c-.075.039-.108.082-.1.131.012.074.043.094.047.12.003.018-.013.131-.047.341h-.127v.17l-.21.469-.067.061h.14l.137-.284.047.078-.038.19-.406.47-.094.08c-.054.037-.054.061 0 .072.054.01.111.01.172 0 .091-.123.17-.217.234-.282a1.15 1.15 0 0 1 .212-.17h.096l.264.135.18.166.078.078.168-.14-.077-.027h-.09a3.19 3.19 0 0 0-.18-.212c-.043-.041-.25-.226-.282-.262-.02-.024-.02-.13 0-.318a2.725 2.725 0 0 1-.023-.386c.003-.094.003-.17 0-.229a.429.429 0 0 0 .043-.16c.001-.047-.024-.077-.077-.09Z"/>
    <path fill="#C12F37" d="M86 62c.06-2.027-.243-4.077-.324-4.21-.055-.09-.156-.157-.305-.203-.177-1.046-.585-1.959-1.226-2.738-.96-1.17-1.52-1.215-1.877-1.192.1.184.056.257 0 .32s-3.476 3.462-3.684 3.524c-.207.063-1.482-.677-2.057-.956-.574-.278-1.687-.762-2.97-.316-1.284.447-7.786 2.943-9.468 3.465-1.683.521-3.39 1.106-3.693 1.227-.304.12-.825.504-1.35 1.192-.524.688-2.93 4.832-2.869 5.345.062.513.211 2.614.466 2.859.254.245 1.799 1.046 2.317 1.27.518.225 3.044.407 5.04.407s10.577.226 14.796-1.233c4.22-1.458 5.508-2.992 5.993-3.87.484-.88 1.151-2.864 1.211-4.891Z"/>
    <path fill="#AF272E" d="M82.443 53.655c.36.018.886.2 1.702 1.194.64.779 1.05 1.692 1.226 2.738.149.046.25.113.305.202.019.031.05.165.085.378-.561.134-1.151.249-1.242.273-.179.048-14.606 2.469-17.138 2.779-2.531.31-.042-.73 1.103-1.208 1.145-.479 5.82-2.425 6.723-2.423.903.002 3.321 1.148 3.995 1.055.675-.093 4.645-.978 4.925-1.42.28-.442-.224-1.494-.665-1.852-.441-.358-1.568-.17-1.918 0-.35.17.859-1.08 1.013-1.277.09-.114.048-.26-.125-.44Z"/>
    <path fill="#D03746" d="M80.696 55.532c-.084.527-1.368 1.869-1.708 2.251-.33.37-1.12.19-2.29-.433l-.3-.165c-1.13-.64-1.83-.582-2.583-.355l-12.679 4.2c-.413.157-.63.572-.17.496l2.438-.35c1.48-.2 3.298-.429 4.498-.524l.24-.012c.955.006-8.362 1.56-8.336 1.41.027-.155.322-.313.515-.438s.164-.506.38-.662c.101-.072.582-.245 1.14-.434l1.78-.587c.155-.051.52-.183 1.03-.37l8.552-3.203c.142-.052.261-.095.354-.127 1.283-.446 2.396.038 2.97.316l1.279.663c.37.184.684.322.778.293.05-.015.29-.227.626-.54l1.486-1.43Z"/>
    <path fill="#772428" d="M85.367 57.569c.153.064.254.131.309.22.032.053.099.405.164.937-.124-.152-.267-.277-.422-.286-.466-.027-8.135 1.351-10.652 1.913l-.456.107c-1.84.466-9.11.885-8.226.724l3.99-.845c.46-.08 1.937-.25 2.337-.323 1.894-.348 5.104-.963 7.265-1.404l3.497-.738c.756-.142 1.182-.234 1.636-.313.222-.04.366-.058.431-.058.059.001.1.023.127.066Z"/>
    <path fill="#8D414C" d="m84.519 59.93-.764 6.574-3.293.692c-5.45 1.126-9.27 1.803-11.46 2.033l-.858.084c-3.794.34-8.458.414-8.997.185-.581-.248-.792-1.27 0-2.994.528-1.148 1.002-1.898 1.423-2.249L84.52 59.93Z"/>
    <path fill="#863642" d="m71.43 62.29.303.084-5.443 6.3-.724.825-1.806.083c-2.335.084-4.277.06-4.613-.084-.581-.248-.792-1.27 0-2.994.528-1.148 1.002-1.898 1.423-2.249l10.86-1.965Z"/>
    <path fill="#97535D" d="m84.519 59.93-.764 6.574-3.293.692-2.342.476c-4.218.843-4.938 1.142-6.799 1.338 2.468-3.26 4.055-5.753 4.762-7.48l8.436-1.6Z"/>
    <path fill="#AB2F37" d="M85.373 57.588c.148.045.249.113.303.201.081.134.384 2.184.324 4.211-.042 1.414-.379 2.807-.743 3.819l-.005-.575-.03-.737c-.027-.464.058-3.648.018-3.802-.022-.088-1.33.176-2.661.469l-3.065.704c-1.744.424-6.08 1.48-9.614 1.82l-1.447.126c-3.67.345-6.746.935-7.019.973-.296.042-1.091 2.154-1.29 2.864-.185.659.046 1.08 1.046 1.112l.244.001c1.206-.03-.533 1.032-1.546 1.01-.822-.017-2.64-.982-3.666-1.882l-.045-.444c-.061-.513 2.345-4.657 2.87-5.345L59 62.17c.406-.083.868-.161 1.395-.235l5.025-.724c2.99-.44 6.232-.935 8.236-1.283l.515-.091c2.671-.484 9.295-1.869 11.128-2.234l.073-.016Z"/>
    <path fill="#9E242F" d="m63.307 61.516 2.213 2.643-1.564.223c-1.42.215-2.375.395-2.522.415-.165.023-.958 2.594-1.244 3.302l-2.97-1.739 1.331-3.493c.106-.17.202-.322.284-.448l.168-.25.423-.08.628-.103 3.253-.47Z"/>
    <path fill="#9A1F33" d="m60.19 68.1-2.97-1.74 1.331-3.493.63.785c.475.604 1.062 1.37 1.761 2.295l-.685 1.979a6.732 6.732 0 0 1-.067.173Z"/>
    <path fill="#834" d="M59.533 67.338c.303-.127.615-.339.936-.636l-.16.44a9.532 9.532 0 0 0-.165.519c-.185.659.046 1.08 1.046 1.112l.244.001c1.206-.03-.533 1.032-1.546 1.01-.822-.017-2.64-.982-3.666-1.882l-.045-.444c-.029-.24.486-1.282 1.095-2.39l.447.614c.92 1.226 1.525 1.778 1.814 1.656Z"/>
    <path fill="#B43844" d="M85.373 57.588c.148.045.249.113.303.201.081.134.384 2.184.324 4.211-.042 1.414-.379 2.807-.743 3.819l-.005-.575-.03-.737c-.027-.464.058-3.648.018-3.802-.022-.088-1.33.176-2.661.469l-3.065.704-1.98.47c-2.11.486-5.081 1.105-7.634 1.35l-.326.028-1.928-2.845 2.236-.341c1.445-.224 2.767-.436 3.775-.611l.515-.091c2.671-.484 9.295-1.869 11.128-2.234l.073-.016Z"/>
    <path fill="#BB484E" d="M85.373 57.588c.148.045.249.113.303.201.081.134.384 2.184.324 4.211-.042 1.414-.379 2.807-.743 3.819l-.005-.575-.03-.737c-.027-.464.058-3.648.018-3.802-.022-.088-1.33.176-2.661.469l-3.065.704-1.98.47-1 .225-2.678-2.68.316-.055c2.671-.484 9.295-1.869 11.128-2.234l.073-.016Z"/>
    <path fill="#C06063" d="M85.373 57.588c.148.045.249.113.303.201.081.134.384 2.184.324 4.211-.042 1.414-.379 2.807-.743 3.819l-.005-.575-.03-.737c-.027-.464.058-3.648.018-3.802-.019-.074-.945.1-2.03.332l-2.44-2.507 4.603-.942Z"/>
    <path fill="#C59A9F" d="M60.45 67.191c.075.19.27 1.876.391 1.875.12-.001.844-.344.838-.43-.006-.087-.328-.463-.489-.803-.16-.34-.924-.814 0-2.018.924-1.203.768-1.275 1.143-1.343.376-.068 1.763-.493 1.685-.156-.078.337-.513.883-.488 1.497.025.613.072 1.473.208 1.608.136.134 1.138.03.993-.32-.144-.351-.44-1.297.189-2.039.629-.74 1.946-.7 1.997-.485.05.216-.419.44-.675.836-.255.396-.648.832-.436.864.212.033 1.064-.008 1.11-.118.048-.11 1.273-1.438 1.315-1.69.043-.25-.253-.765-.081-.817.171-.052 1.862-.36 1.658-.13-.205.231-.89 1.148-.93 1.796-.041.649.432 2.02.722 2.296.29.275 1.279-.265 1.048-.512-.232-.247-.868-.93-.747-1.688.122-.757.847-1.453 1.43-1.574.585-.122 1.305-.174 2.002.717.697.892 1.313 1.777 1.679 2.087.366.31.901.767 1.37.757.47-.01 1.317-.454 2.026-.993.708-.54.94-.759.79-1.015-.15-.255-.225-.499-.299-.35-.073.148-.508.987-1.048 1.13-.54.144-1.209.375-2.202-.477-.994-.851-1.949-2.43-2.14-2.522-.191-.092-.68-.289-.176-.37.503-.08 1.458-.283 1.43-.158-.026.126.345 1.123.542 1.173.207-.265.65-.88 1.259-1.051.61-.172 1.448.055 1.605.152.155-.173.61-.992.52-.993-.09-.002.17-.197.509-.25.339-.052.272.352.36.762.09.409.152 1.444.649 2.118.496.674 1.176 1.245 1.736 1.35.56.103 1.262.132 1.303 0 .041-.133-.17-1.103-.211-1.071-.042.032-1.019-.017-1.092-.082-.073-.065-.628-.432-.843-.935-.215-.504-.599-1.73-.572-1.781.027-.05.41-.2.557-.31.146-.113.051-.403.481-.543s3.098-.852 3.327-.882c.229-.03.492.037.476.377-.017.34.102 2.417 0 2.822-.102.405-.24 1.443-.35 1.54-.11.099-.997 1.687-1.52 2.039-.523.352-1.414.396-2.173 0-.76-.396-1.06-1.12-1.499-.823-.438.297-2.332 1.407-3.444 1.552-1.112.146-2.137-.75-3.26-.73-1.122.023-3.113 1.457-4.44 1.554-1.325.097-3.08-.714-3.763-.804-.684-.09-1.199.827-2.587 1.236-1.387.409-2.007.996-2.409.39-.401-.606.45-2.454.526-2.265Z"/>
    <path fill="#985A62" d="M60.505 67.194c.075.19.271 1.876.391 1.875.12-.001.844-.344.838-.43-.006-.087-.328-.463-.489-.803-.16-.34-.924-.814 0-2.017.925-1.204.769-1.276 1.144-1.344.375-.067 1.779-.49 1.701-.153-.078.337-.513.883-.488 1.497.025.613.073 1.473.209 1.608.136.134 1.137.03.993-.32-.145-.351-.44-1.298.188-2.039.63-.74 1.946-.7 1.997-.485.05.215-.418.44-.674.836-.256.396-.649.831-.437.864.212.033 1.064-.008 1.111-.118.047-.11 1.272-1.438 1.315-1.69.042-.251-.254-.765-.082-.817.171-.052 1.875-.36 1.67-.13-.204.23-.889 1.146-.93 1.795-.04.649.432 2.02.722 2.295.29.276 1.28-.264 1.048-.511-.231-.248-.867-.93-.746-1.688.121-.758.846-1.453 1.43-1.575.584-.121 1.325-.153 2.022.739.696.891 1.312 1.776 1.678 2.086.366.31.902.768 1.371.758.47-.01 1.317-.454 2.026-.993.708-.54.94-.76.79-1.015-.15-.256-.226-.5-.299-.35-.073.148-.508.986-1.048 1.13-.54.143-1.21.375-2.203-.477-.993-.851-1.948-2.43-2.14-2.523-.19-.092-.679-.288-.175-.369.503-.08 1.458-.283 1.43-.158-.027.125.345 1.122.541 1.172.207-.265.65-.88 1.26-1.05.609-.172 1.448.054 1.605.152.155-.174.61-.992.52-.993-.09-.002.17-.198.509-.25.339-.052.272.352.36.761.089.41.152 1.445.648 2.119.497.674 1.176 1.245 1.737 1.349.56.104 1.262.133 1.303 0 .04-.133-.17-1.103-.212-1.07-.041.031-1.018-.017-1.091-.082-.073-.065-.629-.432-.843-.936-.215-.504-.599-1.73-.572-1.78.027-.051.41-.2.556-.311.147-.112.052-.403.482-.542.43-.14 3.097-.853 3.326-.883.23-.03.493.038.476.378-.016.339.102 2.417 0 2.821-.102.405-.239 1.443-.349 1.541-.11.098-.997 1.686-1.52 2.039-.523.352-1.414.396-2.174 0-.759-.397-1.06-1.121-1.498-.824-.439.298-2.333 1.407-3.445 1.553-1.111.145-2.136-.751-3.258-.73-1.123.022-3.134 1.435-4.46 1.533-1.326.097-3.093-.713-3.777-.803-.684-.09-1.216.824-2.603 1.233-1.388.409-2.196 1.016-2.598.41-.401-.605.64-2.474.714-2.285Z"/>
    <path fill="#A26A70" d="m85.473 60.706.003.337c.017.702.08 2.153-.003 2.484l-.111.558c-.079.435-.164.918-.238.983-.11.098-.997 1.686-1.52 2.039-.523.352-1.414.396-2.174 0-.759-.397-1.06-1.121-1.498-.824l-.282.18c-.422.256-1.144.66-1.859.966l-.526-.233c.396-.18.844-.456 1.248-.762l.402-.317c.39-.322.504-.5.388-.698l-.158-.292c-.056-.1-.1-.144-.141-.059-.073.149-.508.987-1.048 1.13l-.282.075c-.49.116-1.093.159-1.92-.55-.994-.852-1.95-2.432-2.14-2.524-.068-.032-.172-.078-.257-.126l-.115-.175a.225.225 0 0 1 .104-.05l1.006-.174c.298-.045.53-.065.516-.002-.027.125.345 1.122.541 1.172l.234-.294c.24-.286.59-.634 1.025-.757.61-.171 1.449.055 1.606.153.155-.174.61-.992.52-.993-.09-.002.17-.198.509-.25.296-.045.282.258.333.609l.027.152c.089.41.152 1.445.648 2.119.497.674 1.176 1.245 1.737 1.349l.386.057c.453.052.885.046.917-.057.04-.133-.17-1.103-.212-1.07-.041.031-1.018-.017-1.091-.082l-.242-.192c-.2-.168-.467-.429-.601-.744l-.13-.335c-.211-.576-.464-1.404-.442-1.445.027-.051.41-.2.556-.311.147-.112.052-.403.482-.542l.807-.231c.948-.26 2.356-.63 2.52-.652.228-.03.492.038.475.378Z"/>
    <path fill="#A7757B" d="m85.473 60.706.003.337c.015.632.068 1.87.018 2.353l-.236 1.238c-.046.223-.092.397-.134.434-.11.098-.997 1.686-1.52 2.039-.523.352-1.414.396-2.174 0-.759-.397-1.06-1.121-1.498-.824l-.282.18-.51.296c-.393.218-.873.466-1.349.67l-.526-.233c.396-.18.844-.456 1.248-.762l.402-.317c.39-.322.504-.5.388-.698l-.158-.292c-.056-.1-.1-.144-.141-.059-.073.149-.508.987-1.048 1.13l-.282.075c-.368.087-.799.133-1.341-.15.557-.055 1.152-.47 1.779-1.522a3.48 3.48 0 0 0 .493-2.173l.117-.232c.067-.14.103-.243.072-.243-.09-.002.17-.198.509-.25.296-.045.282.258.333.609l.027.152c.089.41.152 1.445.648 2.119.497.674 1.176 1.245 1.737 1.349l.386.057.374.03c.293.01.52-.013.543-.087.04-.133-.17-1.103-.212-1.07-.041.031-1.018-.017-1.091-.082l-.242-.192c-.2-.168-.467-.429-.601-.744l-.13-.335-.214-.621c-.135-.42-.243-.797-.228-.824.027-.051.41-.2.556-.311.147-.112.052-.403.482-.542l.807-.231 2.342-.614c.088-.02.15-.034.177-.038.23-.03.493.038.476.378Z"/>
    <path fill="#B48B94" d="m85.473 60.706.003.337c.015.632.068 1.87.018 2.353l-.236 1.238c-.046.223-.092.397-.134.434-.11.098-.997 1.686-1.52 2.039-.523.352-1.414.396-2.174 0-.759-.397-1.06-1.121-1.498-.824l-.282.18-.435.253c-.165.094-.348.193-.541.293a1.107 1.107 0 0 1 .027-.725l.214-.167c.371-.307.492-.482.403-.67L79.83 65c.175-.156.342-.314.46-.452l.02.035c.497.674 1.176 1.245 1.737 1.349l.386.057.374.03c.293.01.52-.013.543-.087.04-.133-.17-1.103-.212-1.07-.041.031-1.018-.017-1.091-.082l-.242-.192c-.2-.168-.467-.429-.601-.744l-.13-.335-.214-.621c-.135-.42-.243-.797-.228-.824.027-.051.41-.2.556-.311.147-.112.052-.403.482-.542l.807-.231 2.342-.614c.088-.02.15-.034.177-.038.23-.03.493.038.476.378Z"/>
    <path fill="#BF9DA4" d="m85.473 60.706.003.337.038 1.563c.003.322-.001.61-.02.79l-.236 1.238-.055.239c-.027.101-.053.173-.079.195-.11.098-.997 1.686-1.52 2.039-.523.352-1.414.396-2.174 0-.759-.397-1.06-1.121-1.498-.824l-.282.18-.435.253c-.165.094-.348.193-.541.293a1.107 1.107 0 0 1 .027-.725l.214-.167c.371-.307.492-.482.403-.67L79.83 65c.136-.122.267-.244.374-.357l.18.028-.074-.088c.497.674 1.176 1.245 1.737 1.349l.386.057.374.03c.293.01.52-.013.543-.087.04-.133-.17-1.103-.212-1.07l-.067.008c.38-.647.41-2.389.462-2.965.058-.65-.801-.915-1.207-.686-.057.032-.102-.04-.099-.166l.25-.073 2.342-.614c.088-.02.15-.034.177-.038.23-.03.493.038.476.378Z"/>
    <path fill="#BDAFB6" d="m85.489 61.513.025 1.093-.002.448a4.457 4.457 0 0 1-.018.342l-.236 1.238-.055.239c-.027.101-.053.173-.079.195-.11.098-.997 1.686-1.52 2.039-.523.352-1.414.396-2.174 0-.759-.397-1.06-1.121-1.498-.824l-.282.18-.463.27c.335-.603.717-1.095.888-1.25.231-.21.497-.281.778-.282.39.382.82.661 1.195.731l.386.057.374.03c.293.01.52-.013.543-.087.012-.04.001-.158-.02-.302.275-.01.524-.117.79-.443.472-.578 1.083-2.186 1.368-3.674Z"/>
    <path fill="#CD8A90" d="M59.693 68.87c.846-2.522 1.334-3.886 1.465-4.09.196-.307 4.09-.766 8.104-1.256 4.014-.49 9.186-1.56 11.31-2.094 2.126-.534 4.486-1.155 4.476-1.096-.002.012.413.072.3.12-.177.078-.925.262-2.242.553-2.82.703-4.56 1.119-5.22 1.247-.991.192-2.839.61-4.872.981-2.033.373-7.052.93-7.823 1.067-.515.091-1.806.267-3.873.527-.703 1.985-1.1 3.09-1.193 3.316a3.308 3.308 0 0 1-.432.726Z"/>
    <path fill="#C2C1CD" d="M85.017 65.029c.008.248-.135.8 0 .562.134-.239.198-.767.227-.562.018.124-.015.549-.076 1.023-.13.339-.26.622-.38.838l-.139.233c-.58.901-1.985 2.302-5.853 3.638-3.346 1.157-9.436 1.254-12.808 1.245L64 71.994c-1.996 0-4.522-.182-5.04-.407l-.416-.195c-.668-.327-1.698-.879-1.901-1.075-.255-.245-.404-2.346-.466-2.859-.02-.173.239-.757.611-1.483l.384.575c.451.665.897 1.278 1.13 1.505.574.559.936.728 1.708.816.695.079 1.25-.033 2.02-.64l.265-.22c.913-.8 1.563-1.022 2.49-1.044.927-.022 1.578.174 1.993.42.415.245.775.465 1.294.477.519.012 1.244-.1 2.103-.604l.661-.392c.676-.395 1.382-.767 2.018-.818a2.614 2.614 0 0 1 1.728.432l.7.476c.05.03.082.048.098.052l-.53-.63a2.749 2.749 0 0 1-.157-.201c-.062-.101.588.627.908.788.32.16.67.326.898.318l.197-.011c.282-.03.73-.137 1.233-.589.565-.509 1.072-.827 1.294-1.02l.077-.074c.156-.18.711-.381 1.116-.206.203.088.578.314.933.54l1.016.66c.22.124.497.213.854.032.476-.242 1.196-.87 1.399-1.232l.147-.243c.138-.21.246-.3.252-.113Z"/>
    <path fill="#CBC8D5" d="M85.017 65.029c.008.248-.135.8 0 .562.134-.239.198-.767.227-.562.017.114-.01.485-.063.914a5.109 5.109 0 0 1-2.626 1.738c-3.193.903-17.37 1.564-19.544 1.415l-.716-.055c-.539-.05-.936-.118-1.231-.255.301-.1.61-.275.966-.555l.265-.22c.913-.8 1.563-1.022 2.49-1.044.927-.022 1.578.174 1.993.42.415.245.775.465 1.294.477.519.012 1.244-.1 2.103-.604l.661-.392c.676-.395 1.382-.767 2.018-.818a2.614 2.614 0 0 1 1.728.432l.7.476.098.052-.53-.63-.157-.201c-.062-.101.588.627.908.788.32.16.67.326.898.318l.197-.011c.282-.03.73-.137 1.233-.589.565-.509 1.072-.827 1.294-1.02l.077-.074c.156-.18.711-.381 1.116-.206.203.088.578.314.933.54l1.016.66c.22.124.497.213.854.032.476-.242 1.196-.87 1.399-1.232l.147-.243c.138-.21.246-.3.252-.113Z"/>
    <path fill="#AEAFBE" d="M58.862 69.239c1.808.667 5.5.65 8.043.586l2.984-.09c2.881-.103 7.809-.339 9.803-.76 1.253-.263 3.126-.777 4.142-.897-.859.8-2.356 1.757-5.038 2.683-3.346 1.157-9.436 1.254-12.808 1.245L64 71.994c-1.996 0-4.522-.182-5.04-.407l-.416-.195-.745-.38c-.518-.276-1.02-.564-1.156-.695-.255-.245-.404-2.346-.466-2.859-.008-.067.026-.196.093-.371.725.91 1.631 1.797 2.592 2.152Z"/>
    <path fill="#7C83A1" d="M58.79 69.827c1.495.503 6.14.65 9.93.686l1.56.01 1.25-.007c3.055-.04 6.95-.235 8.934-.396-.498.214-1.052.428-1.668.641-3.346 1.157-9.436 1.254-12.808 1.245L64 71.994c-1.996 0-4.522-.182-5.04-.407l-.416-.195-.745-.38-.432-.236c-.343-.192-.627-.366-.724-.459-.184-.177-.313-1.324-.394-2.14.93.845 1.776 1.393 2.54 1.65Z"/>
    <path fill="#636B92" d="M56.25 68.177c.332.303.655.567.966.794a3.347 3.347 0 0 0 1.794 1.49c1.99.711 15.558.637 16.41.947a.45.45 0 0 1 .144.079c-3.229.476-7.122.526-9.576.52L64 71.993c-1.996 0-4.522-.182-5.04-.407l-.416-.195-.745-.38-.432-.236-.375-.217c-.166-.101-.291-.186-.35-.242-.183-.177-.312-1.324-.393-2.14Z"/>
    <path fill="#515670" d="M56.25 68.177c.232.211.46.404.681.578.037.616.125 1.1.263 1.446.087.218.186.433.297.646l-.5-.288-.214-.138a1.125 1.125 0 0 1-.134-.104c-.184-.177-.313-1.324-.394-2.14Z"/>
    <path fill="#EC7672" d="M73.944 56.302c-.183-.003-3.213 1.16-6.246 2.241-3.527 1.257-6.221 2.13-6.36 2.232-.274.2 1.311-.174 5.724-1.687 4.414-1.513 7.254-2.78 6.882-2.786Z"/>
    <path fill="#E5E6E8" d="M11.072 60.47c-.53.206-.815.336-.856.39-.06.081-.21.87-.21 1.939 0 1.068.382 2.846 2.97 4.645 2.586 1.799 7.98 3.593 10.55 4.01 2.571.418 4.031.553 6.474.553h15.759c1.62 0 3.488-.61 3.737-.907.166-.197.194-.428.083-.693.948-.418 1.586-.755 1.914-1.01.491-.381 1.349-1.143 1.56-1.435.213-.291 4.972-11.293 4.71-11.373-.262-.08-2.14.084-3.718.326-1.58.243-4.243.672-4.487.838-.245.165-1.696 2.62-2.897 3.394-1.201.774-3.59 1.851-5.89 1.482-2.301-.37-2.727-.944-2.978-.926-.252.019-5.166.84-9.299.86-4.132.019-7.88.116-11.508-.189-3.63-.305-5.552-1.136-5.874-1.319-.215-.122-.229-.317-.04-.585Z"/>
    <path fill="#DBDBDC" d="M53.304 57.028c.928 2.037-.588 6.238-1.964 7.618-1.88 1.887-8.897 1.335-9.317 1.166-.326-.132.828-.508 2.086-.828l1.07-.254c1.549-.338.463-.854-1.44-1.044-1.607-.16-3.557-.738-4.99-1.567l.423.147c.397.125.915.253 1.599.363 2.3.369 4.689-.708 5.89-1.482 1.201-.774 2.652-3.229 2.897-3.394.147-.1 1.177-.296 2.318-.49l1.428-.235Z"/>
    <path fill="#B7BBC4" d="m54.935 63.647.114-.188-1.212 2.795c-.43.976-.733 1.64-.783 1.708-.212.292-1.07 1.054-1.561 1.436-.328.254-.966.59-1.914 1.01.11.264.083.495-.083.692-.232.277-1.875.827-3.41.899l-.327.008H30c-2.443 0-3.903-.135-6.473-.552-2.57-.418-7.965-2.212-10.552-4.011-.145-.1-.282-.201-.413-.302.273-.504 1.165-.59 1.788-.294 1.478.702 4.93 1.75 7.318 2.023 2.388.273 11.696-.117 13.8 0 2.106.117 5.166.567 6.555.676 1.39.109 4.802.028 5.466.083.664.055 2.21-.435 3.747-1.516 1.301-.915 2.721-2.883 3.7-4.467Z"/>
    <path fill="#7D7F91" d="m52.753 67.787.73-.738-.407.875a.377.377 0 0 1-.022.038c-.212.292-1.07 1.054-1.561 1.436-.328.254-.966.59-1.914 1.01.11.264.083.495-.083.692-.232.277-1.875.827-3.41.899l-.327.008H30c-2.443 0-3.903-.135-6.473-.552-1.678-.273-4.56-1.132-7.078-2.197l1.445.412c.645.181 1.269.344 1.763.429l1.169.184c2.05.307 5.439.749 7.158.833l1.29.025c2.732.024 9.134.036 11.457 0l1.997-.06c2.285-.081 5.667-.21 5.838-.21.215 0 .721-.422.73-.54.007-.078-.088-.158-.286-.24.791-.26 1.533-.604 2.224-1.032.39-.24.896-.665 1.52-1.272Z"/>
    <path fill="#DDDEE0" d="M13.085 61.742c.954.246 2.251.494 3.9.632 2.164.182 6.564.428 8.869.425 1.434 2.063 5.358 2.209 7.664 2.385 2.306.175 7.304.397 9.178.19l-2.207.416c.734-.074-5.63 1.312-7.89 1.637-2.392.343-11.192.624-13.739 0l-.774-.197c-2.32-.617-5.206-1.744-5.022-5.212l.02-.276Z"/>
    <path fill="#D9DADD" d="M14.35 62.023c.748.14 1.626.266 2.636.351 1.576.133 3.174.19 4.817.21l.464.478c.726.736 1.62 1.52 3.033 2.006 3.072 1.056 9.179.918 10.731 1.302 1.553.384-3.904.941-7.323 1.057-3.418.115-8.77-.416-11.295-1.663a5.806 5.806 0 0 1-2.976-3.44l-.087-.301Z"/>
    <path fill="#D2D4D7" d="M54.545 62.06c-1.065 2.463-2.849 4.702-4.83 5.367-1.98.664-5.73 1.063-8.057.553l-1.676-.355c-1.392-.278-2.248-.39-2.085-.177l.254.388c.253.364.7.852 1.703 1.197 1.268.437 2.884.525 4.294.52l.59-.006c1.531-.03 4.51.765 1.256.884-2.366.086-5.555-.023-8.4-.169l-2.995-.17c-3.333-.207-10.245-.244-12.931-.545-2.687-.301-5.519-1.414-7.094-1.844-.735-.2-.284.242 1.354 1.33-1.136-.504-2.172-1.046-2.953-1.59-2.587-1.798-2.97-3.576-2.97-4.644l.017-.605c.04-.751.145-1.27.194-1.334.04-.054.326-.184.856-.39-.189.268-.175.463.04.585l.163.082c.258.119.752.314 1.488.52-.436 1.077-.497 1.954-.183 2.63.534 1.151 2.88 2.91 5.192 3.416 2.311.505 7.421.657 12.385 0l1.479-.202a95.315 95.315 0 0 0 6.327-1.093l3.205-.678c2.684-.587 6.252-1.428 7.858-1.664l.294-.04c1.597-.182-1.16-.34-1.668-.97-.508-.628-.94-.926-1.658-.69l-.86.293c-.66.213-1.471.424-2.314.398-.52-.017-1.249-.167-2.188-.45l.139.022c2.3.369 4.689-.708 5.89-1.482 1.201-.774 2.652-3.229 2.897-3.394.244-.166 2.908-.595 4.487-.838 1.184-.182 2.537-.32 3.25-.343-.638.874-1.791 3.273-2.75 5.489Z"/>
    <path fill="#DBDCDF" d="M10.941 60.787v.03c.006.098.063.177.17.238l.164.082.326.138c.201.078.458.17.773.267a.239.239 0 0 1 .019.2c-.215.658-.538 2.335.662 3.583 1.2 1.248 2.828 2.254 5.874 2.852 3.046.597 12.498-.063 15.001-.112l.372.002c2.326.068 4 1.176-.935 1.461-5.194.3-10.482.153-13.733-.576l-1.09-.254c-2.242-.541-3.693-1.017-4.407-1.272l-.277-.101c-.638-.24.25.486 0 .472-.197-.011-1.867-1.162-2.934-2.297-.767-1.067-.92-2.026-.92-2.701l.016-.605c.04-.751.145-1.27.194-1.334.024-.032.135-.092.333-.178l.392.105Z"/>
    <path fill="#DBDDDF" d="M54.545 62.06c-1.065 2.463-2.6 4.507-4.606 5.5-2.007.993-3.543 1.303-5.85 1.356-1.264.028-2.13.062-2.944.401-1.427-.308-2.494-1.021-2.824-1.312a1.98 1.98 0 0 1-.493-.633c.13-.037.282-.052.455-.045.66.028 1.822.147 3.152.22 2.779.152 6.558-.605 8.934-2.137 2.476-1.598 4.27-4.259 5.492-6.228a72.89 72.89 0 0 0-1.316 2.879Z"/>
    <path fill="#EDEDEE" d="M21.651 68.21c.633-.11 8.274-.453 9.365-.614 1.092-.162 5.895-.902 6-.905.103-.003-.716.53-6.077 1.173-5.362.644-9.92.455-9.288.346Z"/>
    <path fill="#7A859D" d="M12.487 61.993c-.079 1.188.023 2.021.304 2.5.422.719 1.209 1.524 2.643 2.211 1.434.687 3.11 1.321 5.327 1.384 2.217.062 6.581-.095 9.257-.453 2.675-.357 6.774-1.053 6.942-1.025.168.027.408.168.617.5.208.333 1.465 1.586 2.724 1.974 1.26.387 2.676.425 3.86.415 1.186-.01 2.692.018 3.328.131a71.27 71.27 0 0 0-3.431-.024c-1.627.028-2.724-.05-3.77-.394-1.044-.343-1.862-.947-2.17-1.273-.307-.327-.907-1.182-1.012-1.205-.105-.024-.408-.002-1.369.17-.96.171-3.765.687-5.717.921-1.952.234-6.376.39-7.532.4-1.155.01-2.93-.045-4.477-.4-1.547-.354-3.395-1.383-3.95-1.789-.556-.405-1.443-1.256-1.597-2.279-.102-.682-.095-1.27.023-1.764Z"/>
    <path fill="#F5F5F5" d="m53.448 57.008 1.24-.185c1.408-.19 2.848-.303 3.075-.234.07.021-.211.803-.666 1.948-.019-1.09-.203-1.6-.552-1.535l-6.666 1.196c-.138.035-.841 1.162-2.155 2.483-1.313 1.321-2.726 2.042-5.04 2.334-1.542.196-3.248-.103-5.117-.895-3.409.49-6.553.774-9.433.849l-2.015.035c-3.912.04-8.267-.085-10.377-.417l-1.856-.294c-1.345-.226-2.245-.445-3.153-.941-.286-.156-.452-.312-.532-.464l.015-.028c.04-.054.326-.184.856-.39-.189.268-.175.463.04.585l.145.073c.579.271 2.463.972 5.729 1.246 3.629.305 7.376.208 11.508.188l.896-.015c3.915-.117 8.17-.827 8.403-.844.251-.018.677.557 2.978.926 2.3.369 4.689-.708 5.89-1.482 1.201-.774 2.652-3.229 2.897-3.394.216-.146 2.315-.498 3.89-.745Z"/>
    <path fill="#CBCDD2" d="M25.79 66.03c-.014-.157.037-.27.276-.302.24-.033 1.125-.143 1.211-.135.086.007.094.186.067.219-.027.032-.472.643-.587.758-.115.116-.12.174.062.14.182-.032.379-.061.413-.055.035.006.137.306.006.343-.131.037-1.117.192-1.318.226-.202.034-.199-.286-.093-.344.025-.014.21-.045.29-.124.255-.254.533-.716.542-.726.012-.013-.562.088-.679.089-.116.001-.175.067-.19-.09ZM29.534 65.347c.166.083.145.424.156.77.01.348-.017.623-.16.658-.142.035-1.202.156-1.393.17-.19.013-.368-.126-.364-.4.005-.275 0-.487.019-.656.019-.17.135-.394.32-.425.184-.03 1.256-.199 1.422-.117Zm-.206.387c-.03-.035-1.066.091-1.12.106-.056.014-.013.69.012.699.025.008 1.089-.122 1.101-.14.013-.016.036-.63.007-.665ZM31.756 65.105c.166.083.145.424.156.77.011.348-.016.623-.16.658-.142.035-1.202.156-1.393.17-.19.013-.368-.126-.363-.4.005-.275 0-.487.018-.656.02-.17.135-.394.32-.425.185-.03 1.256-.199 1.422-.117Zm-.206.387c-.03-.035-1.065.091-1.12.106-.055.014-.012.69.012.699.025.008 1.09-.123 1.102-.14.012-.016.035-.63.006-.665ZM32.235 66.377c-.054.002-.116-.556-.111-.791.004-.235.05-.52.38-.55.33-.029.698-.063.811-.068.114-.005.833-.139 1.039.038.206.178.252.99.257 1.052.006.062-.288.07-.325.077-.038.008-.117-.672-.126-.775-.01-.102-.603-.002-.6.046.002.048.1.805.062.825-.038.02-.293.039-.339.025-.046-.014-.092-.792-.132-.847-.04-.056-.564-.022-.615.062-.052.084.074.87.025.878-.05.008-.271.027-.326.028Z"/>
    <path fill="#1D1E1F" d="M62.116 55.918c.13-.636-.346-1.661-1.062-2.045-.716-.384-2.155-.554-2.718.412-.563.966-2.64 6.09-3.287 7.776-.647 1.686-1.031 2.995-1.307 3.758-.277.762-.594 1.571-.786 1.914-.19.343-.417.686-.406.734.01.048.784.464 1.007.627.222.164.537.415.628.453.091.037.827.19 1.059.238.231.048.863.267.932.247.07-.02.255-.165.367-.305.112-.14 1.017-1.786 1.725-3.752.708-1.967 1.737-4.92 1.963-5.525.225-.605 1.081-2.228 1.26-2.68.178-.454.494-1.216.625-1.852Z"/>
    <path fill="#292A2B" d="M58.336 54.285c.563-.966 2.002-.796 2.718-.412.716.384 1.192 1.41 1.062 2.045-.109.53-.346 1.147-.526 1.6l-.1.251c-.16.408-.87 1.763-1.174 2.471l-.268.717c-.352.987-1.046 2.967-1.609 4.54l-2.671-5.256 1.024-2.5c.647-1.552 1.272-2.99 1.544-3.456Z"/>
    <path fill="#393A3B" d="M61.054 53.873c.716.384 1.192 1.41 1.062 2.045a8.516 8.516 0 0 1-.383 1.234l-.242.617-.13.291c-.168.36-.442.904-.683 1.403l-2.034-3.034c-.308-.455-.572-.84-.792-1.156l.228-.488c.103-.216.19-.387.256-.5.563-.966 2.002-.796 2.718-.412Z"/>
    <path fill="#FF9A9A" d="M70.24 60.638c-.2-.046 8.52-1.614 11.19-2.207 2.671-.593 3.891-.865 4.068-.75.177.115.255.773.296 1.24-.2-.856-.191-1.094-.369-1.145-.177-.051-3.603.674-4.729.9-1.125.227-10.257 2.009-10.456 1.962Z"/>
  </g>
</svg>
