<svg xmlns="http://www.w3.org/2000/svg" viewBox="0 0 96 96">
  <defs>
    <path id="a" d="M0 0h96v96H0z"/>
  </defs>
  <g fill="none" fill-rule="evenodd">
    <path fill="#E5DAD9" d="M78.192 38.577c-1.134-1.225-1.632-2.098-1.494-2.618.207-.78 4.052-4.303 4.05-4.946 0-.643-3.227 1.38-4.055 2.068-.829.687-.952.476-1.29.986-.339.51-.343.632-.343 1.413 0 .782.175 2.074.343 2.074.111 0 1.04.341 2.789 1.023Z"/>
    <path fill="#D7CDCC" d="M11.16 60.397c.037-1.876 1.179-3.183 3.427-3.921 3.372-1.108 10.057-2.631 13.264-3.922 3.208-1.292 12.587-6.021 15.634-7.918 3.046-1.897 5.875-3.724 6.942-4.153 1.067-.428 2.059-1.872 3.519-3.07 1.46-1.199 4.808-3.153 6.256-5.951 1.448-2.798 2.538-6.951 3.838-5.755.867.798 1.345 2.153 1.435 4.065a560.778 560.778 0 0 0 4.98 3.315c1.069.694 4.6 3.751 5.012 3.751.412 0 1.462-.167 2.725 1.74 1.262 1.905 1.9 2.44 1.9 3.404.67 1.045.52 2.871 1.213 3.754.694.883 1.164 2.07 1.164 2.99 0 .919 1.209 1.853 1.209 2.566 0 .713.393 4.682.393 5.672 0 .99-.071 2.793-.836 3.113-.766.32-43.36 7.052-57.905 5.81-9.697-.828-14.42-2.658-14.17-5.49Z"/>
    <path fill="#D1C2C1" d="M65.952 33.08c1.21.428 10.333 7.32 11.423 7.148.644-.102 1.078-.481 1.559-.575.77 1.086 1.158 1.577 1.158 2.329.67 1.045.52 2.871 1.213 3.754.694.883 1.164 2.07 1.164 2.99 0 .919 1.209 1.853 1.209 2.566 0 .713.393 4.682.393 5.672 0 .99-.071 2.793-.836 3.113-.564.236-23.836 3.953-41.865 5.396l-13.995.268-1.741-.807c-.18.298-.366.608-.557.93l.253.023c-9.697-.828-14.42-2.658-14.17-5.49.037-1.876 1.179-3.183 3.427-3.921.214-.07.442-.143.68-.216-.125.868-.013 1.742 1.42 1.782 3.16.09 10.308 1.285 26.614-5.062 1.404-1.545 4.64-7.82 7.855-8.103 3.459-.304 9.55 1.075 10.668-3.303 1.12-4.377 2.917-8.92 4.128-8.493Z"/>
    <path fill="#C2ACA9" d="M77.375 40.228c.644-.102 1.078-.481 1.559-.575.77 1.086 1.158 1.577 1.158 2.329.67 1.045.52 2.871 1.213 3.754.694.883 1.164 2.07 1.164 2.99 0 .919 1.209 1.853 1.209 2.566 0 .713.393 4.682.393 5.672 0 .99-.071 2.793-.836 3.113-.259.108-5.286.947-12.392 1.964a481.525 481.525 0 0 0 5.021-10.868c1.767-3.951 1.166-8.224-1.803-12.819l.11.174c1.57 1.02 2.839 1.757 3.204 1.7Z"/>
    <path fill="#8A726C" d="M43.188 49.976a8.418 8.418 0 0 0-1.686-1.645c-.662-.491-1.518-.788-2.568-.89.357-.27.668-.48.933-.632.398-.228.638-.264 1.169-.233.53.03 2.258 1.253 3.332 2.33-.512.64-.906.997-1.18 1.07ZM44.636 43.874c1.407.123 2.344.287 2.811.491.467.204.896-.045 1.287-.748-1.057-.588-1.914-.882-2.57-.882-.656 0-1.165.38-1.528 1.139ZM57.655 42.138c-2.677-1.167-4.65-1.75-5.918-1.75-1.268 0-1.79.036-1.565.108l-.883.707c2.036.196 3.698.587 4.986 1.171 1.289.585 2.415.506 3.38-.236Z"/>
    <path fill="#B1A19C" d="M43.352 49.645A8.418 8.418 0 0 0 41.665 48c-.661-.491-1.517-.788-2.568-.89.358-.27.669-.48.934-.632.397-.227.638-.264 1.168-.233.53.03 2.259 1.253 3.332 2.33-.512.64-.905.997-1.18 1.07ZM44.8 43.543c1.407.124 2.344.287 2.81.491.468.204.897-.045 1.287-.748-1.057-.588-1.914-.882-2.57-.882-.656 0-1.165.38-1.528 1.139ZM57.818 41.807c-2.677-1.167-4.65-1.75-5.918-1.75-1.268 0-1.79.036-1.565.108l-.882.707c2.035.197 3.697.587 4.985 1.171 1.29.585 2.416.506 3.38-.236Z"/>
    <path fill="#C1A8A0" d="M63.958 29.43c.225 0 .912.207 1.726.482l4.77 3.175c1.07.694 4.6 3.751 5.013 3.751l.257-.003c.511.005 1.416.154 2.468 1.742l.371.55c-.607.254-1.922.371-2.514-.32l-.132-.19c-.581-1.044-6.75-4.814-8.367-6.014-1.618-1.2-2.943-.273-2.943.564 0 .836-4.865 9.698-5.522 10.119-.658.421-9.372.87-10.071.87-.699 0-5.27 7.259-6.128 7.732-.658.363-9.525.17-13.633.06l.944-.43c.498-.23 1.034-.484 1.595-.753l9.873-.002c.946 0 5.946-7.477 6.646-8.067.7-.59 7.915-1.527 9.126-1.527 1.13 0 1.205-1.213 2.026-2.689l.188-.32c1.003-1.617 3.754-8.73 4.307-8.73Z"/>
    <path fill="#C5B8AF" d="M59.624 40.057c1.212-5.486 2.193-9.029 2.943-10.628 1.126-2.398 3.05-3.78 3.352-3.09.201.461.014 1.218-.563 2.27l.119 1.163c1.052-1.346 1.578-2.353 1.578-3.02 0-1.002-.564-1.504-1.697-1.504S61.879 27.599 60.602 32a495.725 495.725 0 0 1-2.784 9.243l1.806-1.186Z"/>
    <path fill="#8A726C" d="M38.31 47.959c.326-.338.597-.545.813-.62.216-.075.56-.2 1.033-.374l-.514.43a18.2 18.2 0 0 0-1.506 4.864l-.111.75c-.007.381-.092.672-.255.873-.164.201-.365.232-.602.093-.357-.217-.467-.691-.467-1.43 0-.69.48-2.098 1.44-4.225l.168-.361Zm-2.944 5.284c.03.258-.115.388-.435.388s-.635-.13-.945-.388l-1.837-2.19 1.293-.63 1.924 2.82Zm-4.563 0c-.185.022-.303-.135-.353-.472l.31-1.055 1.096-.521c-.517 1.343-.868 2.025-1.053 2.048ZM45.756 50.664c-.052.257-.191.387-.417.388-.227 0-.456-.126-.688-.382-.795-2.756-.901-4.773-.319-6.05.583-1.277 1.432-1.858 2.548-1.744-1.242 1.384-1.786 2.903-1.632 4.556.155 1.653.324 2.73.508 3.232ZM49.782 40.698c-.667.614-.986 1.503-1.213 3.676.084.259.435 1.208.88 1.006.297-.135.391-.47.283-1.006.183-1.57.729-2.913 1.638-4.03-.303-.148-.921-.26-1.588.354ZM63.725 39.092l-1.077-1.16c-2.881-1.19-4.803-1.784-5.766-1.784-.963 0-1.6.27-1.911.808l.467.664c1.091-.148 2.103-.044 3.036.312 1.4.534 4.263 1.554 4.432 1.554.113 0 .386-.131.819-.394Z"/>
    <path fill="#8A726C" d="m60.819 44.7.162-1c-2.909-3.848-4.613-5.993-5.114-6.436-.5-.443-.474-.781.081-1.014-.72.023-1.203.368-1.446 1.033-.364.997.968 1.956 1.365 2.452.264.331 1.644 1.894 4.138 4.687l.814.277ZM65.983 33.527s-.64-.008-.827.39c-.187.397.046 2.07-.315 3.9-.24 1.22-.524 2.197-.85 2.931v.462l-.88 2.125.614.364.822-2.255.609-.412c.894-1.58 1.341-2.987 1.341-4.223 0-1.314-.023-2.363-.173-2.893-.062-.217-.34-.39-.34-.39Z"/>
    <path fill="#BDAAA5" d="M38.277 47.513c.327-.338.598-.545.814-.62.216-.075.56-.2 1.034-.374l-.515.43a18.2 18.2 0 0 0-1.506 4.864l-.111.75c-.006.381-.091.672-.255.873-.164.202-.364.233-.602.093-.357-.217-.467-.691-.467-1.43 0-.69.48-2.098 1.44-4.224l.168-.362Zm-2.942 5.284c.03.259-.115.388-.435.388s-.635-.13-.946-.388l-1.836-2.189 1.293-.63 1.924 2.819Zm-4.564 0c-.185.022-.303-.135-.352-.472l.31-1.055 1.096-.52c-.518 1.342-.869 2.025-1.054 2.047ZM45.724 50.218c-.052.258-.19.387-.417.388-.226.001-.456-.126-.687-.382-.796-2.756-.902-4.773-.32-6.05.584-1.276 1.433-1.858 2.548-1.744-1.242 1.384-1.786 2.903-1.631 4.556.154 1.653.324 2.73.507 3.232ZM49.75 40.252c-.667.615-.986 1.503-1.212 3.676.083.259.434 1.208.88 1.006.296-.135.39-.47.282-1.006.183-1.57.73-2.913 1.638-4.03-.302-.147-.92-.26-1.588.354ZM63.693 38.646l-1.077-1.16c-2.881-1.19-4.803-1.784-5.766-1.784-.963 0-1.6.27-1.91.808l.466.664c1.091-.148 2.103-.044 3.036.312 1.4.534 4.263 1.554 4.433 1.554.113 0 .385-.131.818-.394Z"/>
    <path fill="#BDAAA5" d="m60.787 44.253.163-1c-2.91-3.847-4.614-5.992-5.115-6.435-.5-.443-.473-.781.081-1.014-.72.024-1.203.368-1.445 1.033-.365.997.968 1.956 1.364 2.452.265.331 1.644 1.894 4.138 4.687l.814.277ZM65.952 33.08s-.641-.007-.828.39c-.187.398.047 2.071-.314 3.901-.24 1.22-.524 2.197-.85 2.932v.461l-.881 2.125.614.364.822-2.255.609-.412c.894-1.58 1.341-2.987 1.341-4.223 0-1.314-.022-2.363-.173-2.892-.062-.218-.34-.39-.34-.39Z"/>
    <path fill="#D56B55" d="m27.192 61.112 1.539.438-1.54 1.076-1.171-.322 1.172-1.192Zm3.93-.243 1.405.588-1.234 1.08-1.234-.49 1.064-1.178Zm2.633-3.013 1.22.758-.945.993-.947-.652.672-1.099Zm3.05-.57 1.2.445-.516 1-1.205-.41.522-1.034Zm4.676-2.85-.382.932-1.365.23.524-1.163h1.223Zm11.877-3.628.652.689-.979.372-.402-.696.729-.365Zm-4.46-1.465.552.955-.912.706-.538-.706.897-.955Zm3.422-.44.711 1.055-.711.593-.684-1.12.684-.529Zm-.164-3.135.875 1.104-.697.576-.871-1.146.693-.534Zm12.435-.56 1.004.56-.2 1.354-1.306-.514.502-1.4Zm2.04-1.76 1.511.805-.552.912-1.32-.488.361-1.229Zm2.974-3.47 1.018.079v1.607h-1.018l-.615-.9.615-.786Zm3.342-2.424 1.114.8v1.432l-1.114-.746v-1.486Zm-5.323-.183.417.183.333.79-.53.326-.964-.327v-.789l.744-.183Zm2.999-1.669.561.4v.643l-.92.276-.458-.918.458-.4h.359Z"/>
    <path fill="#C95138" d="M40.607 60.338c.373-.354 1.107-.44 2.2-.261l-1.468 2.979-1.291.46h-1.119c.746-1.765 1.305-2.824 1.678-3.178Zm-5.631 0 .983.85-1.939 1.868-1.275-.52 2.23-2.198Zm5.072-1.06-1.684 2.82-1.423-.23 1.203-2.426 1.904-.163Zm5.618-.547-.347 1.607-1.604.365.592-1.694 1.359-.278Zm-1.538-2.715c-.256.87-.463 1.304-.621 1.304-.158 0-.692.073-1.602.22l.508-1.284 1.715-.24Zm6.247-2.809.481 2.81-2.131.992.172-3.476 1.478-.326Zm-3.274 1.247.899.222v1.34l-1.469.762-.329-1 .9-1.324Zm7.292-2.355 1.013 1.434.43 1.413-.897.422-1.581-2.422 1.035-.847Zm-1.987 1.108.625.902-1.223.576c-.35-.649-.526-1.033-.526-1.152 0-.12.374-.228 1.124-.326Zm7.738-2.21 1.68 1.342-1.3 1.395-1.73-1.635 1.35-1.101Zm-5.205-1.991 1.82 2.333-1.353.513-1.396-2.126.93-.72Zm2.879 0 1.498 1.423-1.278.744c-.852-.893-1.278-1.403-1.278-1.528s.352-.338 1.058-.639Zm7.749-.693 1.12 1-.214 1.238-1.401-.825.495-1.413Zm-5.12.14 1.189.923c-.185.532-.345.797-.482.797-.136 0-.608-.265-1.414-.797l.707-.924Zm10.176-6.023 1.915.39 2.304.664v1.681c-1.043-.192-1.617-.288-1.722-.288-.104 0-.75-.19-1.936-.57l-.561-.5V42.43Zm5.241-1.187c.61.109 1.046.233 1.308.37.109.345.229.91.36 1.694l-1.479-.402-.189-1.662Zm-2.064-.718 1.256.296.206 1.881c-.85-.247-1.276-.397-1.276-.449 0-.052-.062-.628-.186-1.728Z"/>
    <path fill="#B7351A" d="m45.035 61.402-.504 1.654-1.724.29-.41-.29.822-1.187 1.816-.467ZM48 59.732l.311.985L48 63.056h-2.31l.658-2.187L48 59.73Zm3.282 1.074-.236 1.82-.569.243h-1.331l.39-1 1.746-1.063Zm3.44-1.364.462.544-.245 2.111-2.783.44.454-2.199 2.113-.896Zm1.697-3.664 1.69 1.953 1.63 2.957-3.089 1.41-.601-2.38-1.11-3.194 1.48-.746Zm-5.563 1.537.607.694-.181 2.068-1.86.792c-.163-.315-.254-.49-.273-.524l-.003-.007v-2.133l1.71-.89Zm7.812-3.782 1.871 1.575 1.896 2.901-1.896 1.433c-1.11-1.418-1.666-2.229-1.666-2.433 0-.195-.642-.98-1.925-2.355l-.188-.2 1.908-.921Zm13.089-1.662 4.97 1.863 3.44 1.882 2.46 1.7v1.622l-3.256-1.929-4.05-2.235-4.137-1.04.573-1.863Zm-7.863 2.583 1.882 1.162 1.277 1.393-2.28 1.722-2.338-2.953 1.459-1.324Zm-10.536.654.652 1.67-1.676.537-.412-1.537 1.436-.67Zm16.07-7.943 3.593 1.368 3.672 1.377 3.855 1.429 2.36 1.32.912.952c.051.55.103 1.13.157 1.742.043.49.042.98-.003 1.47l-.041.367-1.307-1.574-.905-.842-2.57-1.241-4.753-2.066-5.408-2.461.439-1.84Zm-.964 6.368 1.98 1.183-1.98 1.3-1.411-1.3 1.411-1.183Zm-6.029-3.807 2.508 1.272 2.414 1.647-1.13 1.371-2.534-1.917-1.869-1.373.611-1Zm5.469 0 2.719 1.79-.679 1.691-2.587-1.868.547-1.613Zm9.427-2.748 2.501.729 2.294 1.299.862.804c.313.309.528.652.645 1.03.118.377.158.854.121 1.43-.619-.535-.995-.803-1.128-.803-.126 0-.928-.417-2.405-1.25l-.227-.127-2.822-1.364.159-1.748Zm1.54-2.101 1.47.43 1.396.679c.304.415.502.816.595 1.202.093.386.155.832.187 1.34L81.75 48l-1.41-.835-1.208-.557-.263-1.731Zm-7.136.43 4.13 1.183-.187 1.823-3.943-1.328v-1.678Zm4.13-1.5 2.327.714v1.644l-2.058-.858-.27-1.5Zm3.248-1.377.692.272.817.52c.135.154.254.385.357.694.103.309.107.677.012 1.105l-1.186-.714-.692-.498v-1.38Zm-1.233-.609.677.432.313 1-.313.544-.365-.49-.312-1.486Zm.015-2.035c.854.075 1.348.14 1.48.192.086.034.49.328.709.924.16.438.17.789.026 1.05l-1.24-.545-.975-1.621Z"/>
    <path fill="#967261" d="m83.808 61.737 1.046 1.611-.523.75c1.024.623 1.536 1.634 1.536 3.033 0 2.1-4.054 4.869-9.518 4.869H45.46c-.604 0-1.164-.45-2.041-.45s-.885.45-1.693.45H30.24l-2.465-1.93c-.842 1.974-2.707 2.468-5.595 1.48-4.332-1.48-9.472-5.368-10.644-6.602-1.172-1.235-.33-6.37.06-6.37.388 0-.538 1.616 1.643 2.587 2.182.97 8.336 2.361 17.736 2.361h11.333c9.519-1.383 14.87-2.316 16.051-2.798 1.774-.723 13.262-8.093 14.539-8.093 1.277 0 6.395 3.012 8.012 4.282 1.618 1.269 2.544 1.323 2.544.936 0-.26.155-1.208.466-2.849.275 2.955.412 4.646.412 5.073 0 .427-.174.98-.523 1.66Z"/>
    <path fill="#E9E2CB" d="m83.808 61.737 1.046 1.611-.523.75c1.024.623 1.536 1.634 1.536 3.033 0 2.1-4.054 4.869-9.518 4.869H45.46c-.604 0-1.164-.45-2.041-.45s-.885.45-1.693.45H30.24l-2.465-1.93c-.842 1.974-2.707 2.468-5.595 1.48-4.332-1.48-9.472-5.368-10.644-6.602-1.172-1.235-.575-6.251.015-6.417.59-.166-.453 2.236 1.73 3.206 2.18.971 8.335 2.362 17.735 2.362h11.333c9.518-1.384 14.869-2.316 16.051-2.798 1.774-.724 13.262-8.094 14.539-8.094 1.277 0 6.395 3.013 8.012 4.282 1.618 1.27 2.543 1.324 2.543.936 0-.259.142-1.399.426-3.42.275 2.954.412 4.645.412 5.072 0 .427-.174.98-.523 1.66Z"/>
    <path fill="#F7EFDA" d="m11.963 60.806.117.056c.272.325.654.633 1.2.875 2.18.971 8.335 2.362 17.735 2.362h8.267c-13.365 1.278-20.843 1.871-22.435 1.779-2.962-1.82-4.59-3.511-4.884-5.072Z"/>
    <path fill="#8C7140" d="m84.637 63.657-.306.442c.842.511 1.338 1.285 1.488 2.321l-.27.153c-1.661.873-6.84 2.585-15.556 2.688l-.827.005H46.531l4.431-2.247c1.105-.55 1.839-.902 2.2-1.056 1.085-.462 8.881-.608 17.375-.966 5.19-.22 9.815-.653 13.874-1.3l.226-.04Z"/>
    <path fill="#B09462" d="m82.053 67.373-.063.048c-.195.126-.459.36-.888.631-2.651.618-6.353 1.153-11.109 1.209l-.827.005H46.531l2.255-1.141 7.252.064c10.893.063 17.447-.075 19.66-.413l1.272-.186c3.269-.456 5.48-.578 5.083-.217Z"/>
    <path fill="#F1F1E4" d="M74.274 66.255c-5.26.404-11.624.604-19.09.599-1.737-.036-2.45-.167-2.137-.393.313-.225 1.025-.33 2.137-.311 9.698-.018 17.862-.403 24.49-1.153 3.012-.538 2.492.65-5.4 1.258Z"/>
    <path fill="#B6A369" d="m84.637 63.657-.306.442c.842.511 1.338 1.285 1.488 2.321l-.27.153c-.789.415-2.37 1.018-4.744 1.548.453-.374.848-.951 1.185-1.73.478-1.109-.184-1.864-.748-2.247a91.482 91.482 0 0 0 3.169-.447l.226-.04Z"/>
    <path fill="#B5A475" d="M84.331 60.077c0 .427-.174.98-.523 1.66l.245.377-39.925 2.883c23.14-2.08 35.548-3.237 37.225-3.47l.048-.006c1.475-.217 2.452-.698 2.93-1.444Z"/>
    <path fill="#F0E7D4" d="M72.938 53.207c1.277 0 6.395 3.013 8.012 4.282 1.618 1.27 2.543 1.324 2.543.936 0-.259.147-1.417.44-3.474.117.69.188 1.177.213 1.464.183 2.13.185 3.307.185 3.662 0 .331-.105.738-.314 1.222-.184.234-.369.367-.556.398-.556.094-22.618 1.541-66.186 4.343 7.438-.745 13.813-1.392 19.124-1.941h5.949c9.518-1.384 14.869-2.316 16.051-2.798 1.774-.724 13.262-8.094 14.539-8.094Z"/>
    <path fill="#C5B790" d="M11.08 64.084a388.945 388.945 0 0 0 7.199 4.13c2.186 1.216 4.615 1.813 7.286 1.793.772-.943 1.375-1.448 1.81-1.514 1.663-.255 3.498 1.514 3.918 1.514h9.575c.905 0 2.193-1.514 2.92-1.514.88 0 1.885 1.514 2.313 1.514.783 0 25.908.072 32.274-.741 3.367-.43 5.843-1.415 7.426-2.954a4.8 4.8 0 0 1 .066.82c0 2.099-4.054 4.868-9.518 4.868H45.46c-.604 0-1.164-.45-2.041-.45s-.885.45-1.693.45H30.24l-2.465-1.93c-.842 1.974-2.707 2.468-5.595 1.48-4.332-1.48-9.472-5.368-10.644-6.602-.19-.2-.34-.499-.453-.857Z"/>
    <path fill="#D5C898" d="M72.97 55.368c2.61.866 4.315 2.134 5.116 3.803.289.602.076 2.332-1.777 2.876-2.186.644-9.01 1.133-20.474 1.468 12.02-2.027 18.218-3.475 18.596-4.344.377-.87-.11-2.137-1.46-3.803Z"/>
    <path fill="#92703E" d="M72.97 55.368c2.793 1.94 3.927 3.51 3.403 4.709-.513 1.174-7.221 2.297-20.125 3.369l-.413.07c12.02-2.028 18.218-3.476 18.596-4.345.36-.83-.067-2.023-1.282-3.578l-.179-.225Z"/>
  </g>
</svg>
