<svg xmlns="http://www.w3.org/2000/svg" viewBox="0 0 96 96">
  <defs>
    <path id="a" d="M0 0h96v96H0z"/>
  </defs>
  <g fill="none" fill-rule="evenodd">
    <path fill="#D4D0E8" d="m53.808 18.887.227.056c.683.215 1.654.946 1.338 3.119l-.112.826c-.143 1.154-.174 1.925-.094 2.313.083-1.501.317-2.252.702-2.252.577 0 1.14.056 1.297.225l.905 1.16c.683.86 1.65 2.019 2.552 2.842l1.695 1.465c1.216 1.061 2.52 2.248 3.354 3.192l.711.847.74.848c1.246 1.399 2.819 3.057 3.21 3.36.356.276.287.814-.208 1.615 1.483.461 2.627.364 3.431-.291 1.207-.983 3.168-3.093 4.366-3.705.798-.409 2.308-.986 4.53-1.73.039-1.418.304-2.222.797-2.412.74-.285 2.07-.006 2.07 1.035 0 1.04-1.469 2.988-1.77 4.238-.3 1.25-.3 3.39-.3 3.676l-.029.153-.58 2.229c-.452 1.822-.958 4.245-.753 5.627.348 2.352 1.362 6.004 1.362 7.733v3.688l-24.982 4.833-25.388 1.542-11.322-.286-8.915-2.328-1.679-1.466-.466-.688c.313-1.904 1.699-3.043 3.226-3.353l1.958-.406 1.974-.43c3.625-.808 8.748-2.06 12.755-3.495 3.975-1.423 8.437-3.404 13.385-5.945-.183-.458-.114-.79.206-.999l.663-.446c.189-.125.334-.212.401-.212.089 0 .222.028.4.083.252-.585.47-.878.654-.878h.793l1.991-1.149-.41-.312.703-1.173.445-1.126c-.414-.216-.66-.418-.738-.608-.078-.19.597-1.465 2.023-3.826.161-.292.364-.438.61-.438s.6.098 1.06.295l1.212-1.746.664.32.449-.412-.163-3.003-.144-2.251a21.092 21.092 0 0 0-.127-1.365l-.015-.084c-.14-.688-1.753-4.945-1.962-5.918-.208-.973.635-2.705 1.298-2.587ZM83.79 30.67c-.563 0-.762 2.616-.762 3.249 0 .632-.513 1.746-.714 2.977-.134.82-.229 1.67-.285 2.547.183-.062.312-.093.389-.093.051 0 .107.014.167.041l.093.052v-1.008c0-.515.35-3.001.644-3.613.294-.612.884-1.663 1.226-2.244.342-.581-.195-1.908-.758-1.908ZM54.61 19.988c-.147-.496-1.037-.462-1.322 0-.264.426.05 2.432.322 3.25l.259.672c.205.563.5 1.454.888 2.675l-.207-1.941a10.45 10.45 0 0 1-.054-.787l.014-.33c.052-.905.226-3.115.1-3.54Z"/>
    <path fill="#E1DCF5" d="m53.808 34.187.664.32.17-.154c.068 5.963-1.125 10.334-3.579 13.113-4.683 5.307-18.083 10.501-24.832 11.71-3.97.71-8.576.604-13.817-.317l-1.229-.23c.617-.88 1.548-1.43 2.538-1.63l1.958-.407 1.974-.43 1.925-.44c3.377-.79 7.491-1.86 10.83-3.055 3.975-1.423 8.437-3.404 13.385-5.945-.183-.458-.114-.79.206-.999l.663-.446c.189-.125.334-.212.401-.212.089 0 .222.028.4.083.252-.585.47-.878.654-.878h.793l1.991-1.149-.41-.312.703-1.173.445-1.126c-.414-.216-.66-.418-.738-.608-.078-.19.597-1.465 2.023-3.826.161-.292.364-.438.61-.438s.6.098 1.06.295l1.212-1.746Z"/>
    <path fill="#B7AEC3" d="M30.116 57.921c-.239-3.176-.208-4.938.093-5.286.3-.347.561-.529.78-.545l.093 5.831h-.966Z"/>
    <path fill="#C6C2DB" d="m53.808 18.887.227.056c.683.215 1.654.946 1.338 3.119l-.112.826c-.143 1.154-.174 1.925-.094 2.313.083-1.501.317-2.252.702-2.252.577 0 1.14.056 1.297.225l.905 1.16c.683.86 1.65 2.019 2.552 2.842l1.695 1.465c1.216 1.061 2.52 2.248 3.354 3.192l.711.847.74.848.775.857c1.053 1.15 2.122 2.26 2.435 2.503.356.276.287.814-.208 1.615.585.182.654 8.293 2.833 7.232 1.186-.577 3.458-1.853 6.37-8.847.279-.67 1.536-2.503 2.7-2.503.73 0-.374 3.143-.374 6.178 0 1.737-.737 3.582-.705 3.773l-9.878 11.263-12.155 7.85-.649.128-25.388 1.542-11.322-.286-8.869-2.315A7.92 7.92 0 0 1 11 60.537c5.024 1.48 11.462 2.368 19.316 2.66 11.78.44 16.57-1.816 17.998-3.808 1.366-1.906 7.555-7.673 6.204-12.427l-.14-1.227c-.249-2.4-.384-6.221-.404-11.466l.498.238.449-.412-.163-3.003-.144-2.251-.09-1.061a6.663 6.663 0 0 0-.037-.304l-.015-.084c-.14-.688-1.753-4.945-1.962-5.918-.208-.973.635-2.705 1.298-2.587Zm-.52 1.1c-.264.427.05 2.433.322 3.251l.259.672.376 1.09c.148.447.318.975.512 1.585l-.207-1.941-.052-.69a2.557 2.557 0 0 1-.002-.097l.014-.33c.052-.905.226-3.115.1-3.54-.147-.495-1.037-.46-1.322 0Z"/>
    <path fill="#CEC9E4" d="M61.36 32.03c2.496.673 3.776 1.745 2.518 2.115l-.17.042c-1.533.323-4.526 1.998-5.687 3.358-.774.905-2.12.358-4.038-1.64l.002-.017c3.18-3.037 5.642-4.325 7.375-3.858Z"/>
    <path fill="#D6D3E7" d="m53.808 18.887.227.056c.683.215 1.654.946 1.338 3.119l-.112.826c-.143 1.154-.174 1.925-.094 2.313.083-1.501.317-2.252.702-2.252.577 0 1.14.056 1.297.225l.905 1.16c.683.86 1.65 2.019 2.552 2.842l.767.664-.907-.345c-1.871-.69-3.131-.993-3.78-.91-.84.106-1.55.673-2.134 1.7l-.045-.505-.037-.304-.015-.084c-.14-.688-1.753-4.945-1.962-5.918-.208-.973.635-2.705 1.298-2.587Zm-.52 1.1c-.264.427.05 2.433.322 3.251l.259.672.376 1.09.512 1.585-.207-1.941-.052-.69-.002-.097.014-.33c.052-.905.226-3.115.1-3.54-.147-.495-1.037-.46-1.322 0Z"/>
    <path fill="#B6B0D0" d="m49.116 43.017-.462.519.142.257c2.422 2.243 4.01 3.803 4.766 4.68 1.132 1.316 3.661 5.882 4.489 7.29.552.937 1.075 3.069 1.57 6.394l13.027-14.465c-1.455-3.029-2.517-4.751-3.186-5.167-.412-.257-1.582.157-3.142-1.149-1.276-1.068-2.423-2.543-3.768-3.37-1.01-.623-2.598-1.06-3.505-1.237-1.868-.363-3.226-.744-4.074-1.143l-5.857 7.39Z"/>
    <path fill="#9B92C1" d="m49.116 43.017-.462.519.142.257c2.542 1.903 4.36 3.354 5.452 4.353 1.638 1.498 4.134 3.895 5.884 6.2 1.167 1.536 1.974 3.144 2.422 4.821L73.593 47.63a58.203 58.203 0 0 1-1.965-1.738c-1.602-1.528-2.237-2.706-2.736-3.07-1.339-.975-3.223-1.691-5.317-2.837-1.758-.963-3.774-2.415-4.643-2.744-1.786-.677-3.106-1.215-3.96-1.615l-5.856 7.39Z"/>
    <path fill="#89879F" d="M23.597 61.803c0-.713 2.226-1.505 4.348-2.576 2.122-1.072 5.95-3.234 6.47-3.234.52 0 8.434-1.601 9.773-2.078 1.338-.477 7.543-2.83 8.424-2.037.881.794-1.959 3.278-4.084 5.73-2.125 2.453-2.385 3.324-3.763 3.693-1.378.368-8.09 1.457-12.166 1.457-4.076 0-9.002-.242-9.002-.955Z"/>
    <path fill="#CAC9D8" d="M23.562 61.346c0-.713 2.225-1.505 4.347-2.577 2.122-1.071 5.95-3.234 6.47-3.234.52 0 8.434-1.6 9.773-2.078 1.338-.477 7.543-2.83 8.424-2.036.882.794-1.959 3.277-4.084 5.73-2.125 2.452-2.385 3.323-3.763 3.692-1.378.369-8.09 1.458-12.166 1.458-4.076 0-9.001-.242-9.001-.955Z"/>
    <path fill="#DFDFDF" fill-rule="nonzero" d="m51.484 52.254-.676.15c-.596.136-1.383.33-2.226.59l-1.11.354-1.175.402-1.81.65c-1.286.457-9.352 2.135-10.108 2.135l-1.847.937-3.906 2.055-2.978 1.463.357.045.615.06c1.585.135 3.732.206 5.943.206 3.307 0 9.921-.893 11.908-1.424.343-.092.56-.213.81-.447l.196-.212c.437-.501 1.38-1.67 1.96-2.369l.638-.738 2.113-2.289c.47-.514.809-.909 1.066-1.245l.147-.198.083-.125Z"/>
    <path fill="#8E8CAE" d="M46.068 64.298c4.86-6.19 7.632-9.45 8.318-9.78 1.029-.495 1.868-.39 2.373.047.505.437.722 1.554-.057 2.64-.52.725-2.55 3.159-6.095 7.303l-4.539-.21Z"/>
    <path fill="#D8D9DD" d="M46.13 64.454c4.859-6.19 7.631-9.45 8.317-9.78 1.03-.496 1.628-.437 2.133 0 .504.436.778 1.39 0 2.477-.52.724-2.551 3.158-6.095 7.303h-4.356Z"/>
    <path fill="#8E8CAE" d="m57.38 53.81 12.04-14.728 1.212.906L57.986 53.81c-.634.728-1.02 1.03-1.158.904-.137-.124.047-.426.553-.904Z"/>
    <path fill="#B6B6CD" d="M55.869 22.949c.577 0 1.14.056 1.297.225l.905 1.16c.683.86 1.65 2.019 2.552 2.842l1.695 1.465c1.216 1.061 2.52 2.248 3.354 3.192l.711.847.74.848c1.246 1.399 2.819 3.057 3.21 3.36.332.257.294.744-.115 1.459l-.093.156L57.38 53.81l-.547-.214 12.208-15.798v-.24c-2.48-2.334-4.212-4.045-5.197-5.134-1.478-1.632-3.356-3.689-4.464-4.538-1.109-.85-2.042-2.156-2.547-2.91-.324-.482-.823-.88-1.498-1.195.12-.554.299-.832.533-.832Z"/>
    <path fill="#C6C6DB" d="M55.869 22.949c.577 0 1.14.056 1.297.225l.905 1.16c.683.86 1.65 2.019 2.552 2.842l.767.664-.907-.345c-.903-.333-1.664-.576-2.283-.728a16.533 16.533 0 0 1-1.366-1.79c-.324-.483-.823-.881-1.497-1.195a2.69 2.69 0 0 1 .124-.427l.074-.156.047-.076.065-.075.068-.054.06-.03a.258.258 0 0 1 .094-.015Z"/>
    <path fill="#A3A3C1" d="m82.456 32.677.627.291c-.038.41-.055.765-.055.95 0 .173-.038.381-.098.617l.169-.01c-1.063.06-1.896.234-2.499.525-.904.436-3.662 2.093-4.603 3.173-.94 1.08-2.912 1.849-3.683 2.013-.514.11-.928.144-1.243.103l-13.05 13.853-.314-.175 12.622-13.78-1.248-.51 1.117-1.346a5.51 5.51 0 0 1-.073.122c1.483.461 2.627.364 3.431-.291 1.207-.983 3.168-3.093 4.366-3.705.798-.409 2.308-.986 4.53-1.73l.004-.1Z"/>
    <path fill="#5A3485" d="M46.494 45.327c0 .067.137.14.412.219v.335l-1.09.605-.376-.42v.596c-.391.264-.555.492-.49.684.096.289.383.314.867.157l.391-.135c.303-.109.534-.2.602-.2.096 0 .738 1.59.627 1.67l-.332.164c-.674.317-2.138.967-2.301.967-.208 0-.474-.806-.663-1.255-.145-.346-.339-1.515-.42-2.2a.614.614 0 0 1 .288-.395l.662-.446c.19-.126.335-.212.401-.212.09 0 .223.028.4.083.253-.585.471-.878.654-.878l.749-.003.03.314c-.274.166-.411.283-.411.35Z"/>
    <path fill="#825EAB" d="M46.898 44.581c-.274.166-.412.283-.412.35s.138.14.412.219v.336l-1.089.604-.377-.42v.596c-.39.264-.554.493-.49.685.096.288.384.313.867.156l.392-.134c.302-.11.533-.2.602-.2.095 0 .737 1.589.627 1.668l-.333.166c-.673.317-2.138.966-2.3.966-.209 0-.475-.806-.663-1.255-.145-.346-.34-1.514-.42-2.2a.614.614 0 0 1 .287-.395l.663-.446c.189-.125.334-.212.401-.212.089 0 .222.028.4.083.252-.585.47-.878.654-.878l.748-.002.031.313Z"/>
    <path fill="#C18F08" d="M73.645 47.321c-4.492-3.377-7.889-5.858-10.19-7.445-2.301-1.586-5.105-3.405-8.41-5.456l-.374.236-.863-.469c-2.49 3.548-3.919 5.737-4.288 6.567-.369.83-.711 1.516-1.028 2.055 3.73 2.627 5.79 4.063 6.179 4.309.583.369 3.648 2.568 4.324 2.832.45.175.814.175 1.091 0l6.003 4.535 7.556-7.164Z"/>
    <path fill="#CE9C17" fill-rule="nonzero" d="m73.453 48.692-10.391-7.768-4.263 6.474 8.824 7.203z"/>
    <path fill="#AA7F0D" fill-rule="nonzero" d="m63.262 42.072 8.976 6.71-4.674 4.738-7.7-6.286z"/>
    <path fill="#422268" d="M56.26 63.198c10.865-10.44 16.825-16.142 17.88-17.108 1.58-1.448 6.356-5.854 7.123-6.25.766-.397 1.415-.626 1.415-.397 0 .23-.118 1.172-.57 2.557-.452 1.385-1.003 3.49-.845 5.262.157 1.773.97 4.61 1.193 6.113.148 1.003.222 2.87.222 5.603l-16.267 2.488-10.151 1.732Z"/>
    <path fill="#D49D12" d="M75.244 50.268c.142-.33.283 1.147 1.143 1.147.86 0 4.026-6.86 4.184-6.86.157 0-2.047 6.324-2.429 7.103-.381.78-1.346 2.592-2.296 1.31-.95-1.284-.745-2.37-.602-2.7Z"/>
    <path fill="#C7C2CD" d="M36.166 58.237c-3.978.466-5.236.937-5.988 1.152-.751.215-.189 1.148.286 1.148.474 0 5.346-.52 6.736-.693 1.39-.173 4.032-.454 4.3-.455.269-.002 1.02-.13 1.02-.868 0-.737-2.377-.75-6.354-.284Z"/>
    <path fill="#C59C22" d="m30.937 59.748-.621-4.363c0-.521.103-.781.31-.781.207 0 3.367-1.052 9.479-3.154l1.191 7.325-10.36.973Z"/>
    <path fill="#A98015" d="m40.237 52.268.022.134-.042.206c-.613 2.909-1.373 4.68-2.28 5.313-1.415.99-4.005 1.01-5.033.866-1.018-.142-2.194-.902-2.577-3.68l.012-.094-.023.009c1.152-.394 4.459-1.312 9.92-2.754Z"/>
    <path fill="#B19D6C" d="M40.192 51.259c.114 1.105.147 1.828.097 2.168-.074.51-1.616 1.56-3.432 2.172-1.815.613-4.25 1.084-5.193.844-.944-.24-1.414-.64-1.455-1.325-.027-.456 3.3-1.743 9.983-3.86Z"/>
    <path fill="#F2C545" d="M30.316 51.52c-.266.457-.268 3.65 0 3.865.267.214 1.469.677 3.66.214 2.19-.463 5.924-1.977 6.14-2.667.144-.46.144-1.36 0-2.7v-.659l-.242-.268v-.587l.415-.225c-.19-.286-.409-.43-.658-.43-.249 0-1.057.24-2.424.719l-.054-.187c.182-.13.228-.306.137-.532-.137-.337-.484-.467-1.056-.355-.572.112-3.066.815-3.574 1.232-.508.418-.591.838-.431 1.025a.891.891 0 0 0 .39.267v.168c-1.359.441-2.126.814-2.303 1.12Z"/>
    <path fill="#B28400" d="M37.18 47.883a.62.62 0 0 1 .11.18c.091.226.045.403-.137.532l.054.187.195-.068c-.388.222-.61.352-.674.393-.09.057-.162.013-.218-.132l-3.606 1.39h-.287l.001-.133a.885.885 0 0 1-.305-.18l-.084-.087a.345.345 0 0 1-.073-.248Z"/>
    <path fill="#9B6E01" d="m33.72 54.192 3.623-1.228.05-.75-.945-3.071c-1.48.457-2.617.816-3.415 1.078-.797.262-1.155.393-1.074.395-.065.23-.05.377.046.443.096.065.367.075.815.03l.9 3.103Z"/>
    <path fill="#FDCB37" d="m33.835 53.427 3.622-1.227-.936-3.198-3.617 1.256z"/>
    <path fill="#F3BE2C" d="M36.234 47.708c.572-.112.919.018 1.056.355a.471.471 0 0 1 .03.314l-.664.118-4.306 1.588a.931.931 0 0 1-.121-.118c-.16-.187-.077-.607.431-1.025.508-.417 3.002-1.12 3.574-1.232Z"/>
    <path fill="#FFDE83" d="m37.093 47.804-4.929 1.846c.036-.203.188-.456.496-.71.508-.417 3.002-1.12 3.574-1.232.39-.076.674-.04.86.096Z"/>
    <path fill="#EDBE2A" d="m53.326 33.943 11.813 7.58.516 1.697c-.623 2.374-1.396 3.967-2.318 4.78-1.383 1.22-2.71 1.573-2.944 1.573-.234 0-1.182.556-2.52 0-.892-.37-4.183-2.682-9.873-6.932l5.326-8.698Z"/>
    <path fill="#DCAD16" d="m57.546 36.65 7.593 4.873.516 1.697c-.623 2.374-1.396 3.967-2.318 4.78-1.29 1.138-2.533 1.522-2.883 1.568l-.061.005c-.234 0-1.182.556-2.52 0l-.25-.121c-.588-.312-1.694-1.044-3.319-2.195 1.815-3.031 2.895-6.567 3.242-10.607Z"/>
    <path fill="#968860" d="m64.33 41.004.81.52.515 1.696c-.623 2.374-1.396 3.967-2.318 4.78-1.29 1.138-2.533 1.522-2.883 1.568l-.061.005c-.234 0-1.182.556-2.52 0-.07-.029-.155-.07-.255-.124l.604-.158c.361-.105.638-.207.833-.307l1.301-.633c.796-.404 1.718-.926 2.193-1.43.813-.866 1.726-2.944 1.78-3.486l.018-.313c.01-.256.011-.609.006-1.057l-.023-1.061Z"/>
    <path fill="#C7970B" d="m64.493 45.426-11.752-8.187-2.063 3.438 11.419 8.061z"/>
    <path fill="#F4BE20" d="m64.329 45.22-11.588-7.981-1.799 3.084 11.108 7.961z"/>
    <path fill="#EAB313" d="m60.269 42.424 4.06 2.796-2.28 3.064-2.718-1.948.938-3.912Z"/>
    <path fill="#BE900C" d="M56.95 40.189c1.519 1.114 1.237 2.347.757 4.147-.48 1.8-1.524 3.608-2.636 3.11-1.113-.497-3.198-3.335-4.342-6.146-.232.502-.634.989-1.204 1.461l-1.151-.732 2.024-3.308c1.537.078 5.16.447 6.551 1.468Z"/>
    <path fill="#FFCD2E" d="M55.774 43.887c1.471-1.616 2.207-2.488 2.207-2.616 0-.191-.361-.9-.915-1.249-.369-.232-1.745-1.16-4.13-2.783l-1.994 3.084 4.832 3.564Z"/>
    <path fill="#F7C527" d="m53.91 38.327.042-.397 3.114 2.092c.554.348.915 1.058.915 1.25 0 .093-.395.587-1.187 1.48l-1.02 1.135-2.85-2.102c.502-1.03.831-2.183.986-3.458Z"/>
    <path fill="#DAAE22" d="M57.146 40.076c.508.363.835 1.013.835 1.195 0 .128-.736 1-2.207 2.616l-.352-.26c.976-1.503 1.524-2.378 1.644-2.623.081-.165.11-.436.089-.812Z"/>
    <path fill="#EDBC1F" d="m52.936 37.239-2.154 3.16c-.089.33-.24.497-.456.497-.323 0-1.261-.745-1.423-.994-.162-.248 2.022-4.276 2.527-4.276.506 0 1.448.588 1.601.85.102.174.07.428-.095.763Z"/>
    <path fill="#DDAA07" d="M52.705 36.484c.1-.001.288.11.383.268-.009.137-.06.3-.152.487l-2.154 3.16c-.089.33-.24.497-.456.497-.323 0-1.261-.745-1.423-.994-.013-.02-.011-.063.004-.126l-.013-.01c.738.364 1.135.545 1.191.544.057-.001.816-1.24 2.278-3.719a.653.653 0 0 1 .342-.107Z"/>
    <path fill="#B78D18" d="m52.16 36.52-2.21 3.434-.956-.443c.026-.066.057-.14.09-.218l.661.311 1.821-3.085-.617-.46c.045-.06.09-.113.131-.161.243.12.604.328 1.08.621Z"/>
    <path fill="#534494" d="M86 66c0 .732-.228 1.372-.683 1.92C83.088 70.603 80.707 72 78 72h-8.777c-1.603 0-7.415-.814-13.61-.814-6.193 0-8.596.814-10.507.814H29.88c-4.325 0-11.526-2.01-14.816-3.834C11.774 66.342 10 63.913 10 62c0-1.275.248-1.934.745-1.977.233-.067.516.094.848.485.497.587 6.72 3.854 16.855 4.06 10.134.206 20.093-.873 29.417-1.955 3.799-.435 7.52-1.875 14.272-2.59 6.753-.714 10.813-1.59 10.813-1.59s.412-.44.832 0c.28.292.608.777.985 1.456-.221 1.137-.332 1.841-.332 2.111 0 .405.505 2.614.882 3.119.252.336.48.63.683.881Z"/>
    <path fill="#40327C" d="m84.727 59.818.04.07-.131.695c-.134.735-.2 1.207-.2 1.417 0 .371.423 2.259.784 2.96l.098.16v1.317l-4.74 4.373h-11.11l-5.14-.865-5.57.243c-6.751.265-11.084-.393-12.412-.605-2.49-.4-4.974-2.331-4.76-2.992.213-.66 5.287 1.59 11.387 1.651l.802-.003c6.451-.1 18.891-2.975 21.698-3.231 2.806-.257-4.841 3.118-6.592 3.968l-1.826.202c-1.33.554 7.376.537 10.795.544 3.419.008 5.421-3.908 5.492-4.319.068-.396-4.41.596-3.318-1.321l.14-.217c.978-1.387-1.791-2.165-8.306-2.333l-1.226-.024 14.095-1.69Z"/>
    <path fill="#403082" d="m11.453 60.355.14.153c.313.37 2.901 1.805 7.31 2.866-.237.67.307 1.465 1.631 2.384 1.57 1.09 6.222 2.7 13.957 4.83l.812.222-3.889 1.188L29.88 72c-4.325 0-11.526-2.01-14.816-3.834C11.774 66.342 10 63.913 10 62c0-1.275.248-1.934.745-1.977.2-.058.436.053.708.332Z"/>
    <path fill="#6D5BAD" d="M62.011 63.803c7.458-.984 15.414-1.315 14.667 0-.747 1.316-8.458 2.198-13.404 3.65-4.947 1.45-11.864 1.53-15.25 1.07-3.388-.461-9.114-2.004-5.504-2.704 3.61-.7 12.034-1.031 19.491-2.016Z"/>
    <path fill="#59459E" d="M76.678 63.803c-.747 1.316-7.274 2.443-13.997 4.029-2.217.522-5.401 1.021-8.485 1.046-3.084.024-4.765-.004-6.055-.18-1.363-.185-3.99-.9-5.821-1.514-.637-.295-1.011-.59-.924-.85.705.047 1.824.178 3.356.393 4.64.432 8.792-.23 11.62-.4l.728-.033c3.188-.106 9.501.063 10.748-.21l1.166-.264c1.265-.302 2.67-.7 2.778-1.05.25-.811-8.08-.393-13.018-.582l1.628-.184 3.105-.389c6.984-.833 13.868-1.04 13.17.188Z"/>
    <path fill="#594C88" d="M53.231 67.08a28.017 28.017 0 0 1-2.01 1.859c-.196-.01-.388-.017-.576-.027a61.633 61.633 0 0 1 2.586-1.832Z"/>
    <path fill="#47348E" d="M83.782 58.432c.252.264.543.683.873 1.26-.58.358-1.239.639-1.977.845-1.55.432-11.474 1.521-15.956 2.33-4.482.808-16.532 2.38-22.659 2.79-6.126.41-21.28.052-26.418-1.203-4.695-1.148-6.39-2.25-6.646-4.422.175.059.374.217.594.476.497.587 6.72 3.854 16.855 4.06 10.134.206 20.093-.873 29.417-1.955 3.799-.435 7.52-1.875 14.272-2.59 6.753-.714 10.813-1.59 10.813-1.59s.412-.44.832 0Z"/>
    <path fill="#5D4AA2" d="m63.52 61.507-1.968 2.165c-1.998.283-4.259.583-6.54.863l1.898-1.811.955-.11c1.793-.206 3.569-.635 5.654-1.107Z"/>
    <path fill="#6C5BAF" d="M82.328 58.559c.41.893.66 1.513.746 1.859-.13.041-.261.081-.396.119-1.55.432-11.474 1.521-15.956 2.33-1.235.222-3.044.503-5.145.801l2.08-2.192c2.302-.518 4.985-1.083 8.48-1.453 5.195-.55 8.796-1.195 10.181-1.463Z"/>
    <path fill="#5F4BAA" d="M82.328 58.559c.41.893.66 1.513.746 1.859-.13.041-.261.081-.396.119-.214.06-.59.132-1.088.214l-.771-1.917c.64-.111 1.143-.205 1.5-.274l.009-.001Z"/>
    <path fill="#7063B1" d="M16.809 63.683c.86.034 2.314.078 4.184.136 2.162.402 4.66.692 7.455.749 2.917.059 5.82.012 8.696-.111 3.392.174 6.828.388 9.998.65.441.452-10.196.758-17.394.603-3.141-.149-6.199-.374-8.639-.674-4.218-.62-7.016-1.463-4.3-1.353Z"/>
    <path fill="#9FA4B3" d="M10.508 60.1c-.27.926-.432 2.66.402 3.472 2.055 2 7.423 4.22 12.055 5.406s17.324.806 23.766.806c6.442 0 18.304-.806 25.089-1.352 6.785-.545 10.838-2.107 11.502-2.945.372-.47.745-1.6 1.12-3.392.054.572.52 2.55.875 3.024.252.336.48.63.683.881 0 .732-.228 1.372-.683 1.92C83.088 70.603 80.707 72 78 72h-8.777c-1.603 0-7.415-.814-13.61-.814-6.193 0-8.596.814-10.507.814H29.88c-4.325 0-11.526-2.01-14.816-3.834C11.774 66.342 10 63.913 10 62c0-1.05.168-1.682.505-1.897Z"/>
    <path fill="#8088A0" d="M50.244 69.722c-.678.569-1.429 1.294-2.252 2.175l.22-.233-.498.068c.24-.49.867-1.153 1.878-1.99l.652-.02Z"/>
    <path fill="#83869D" d="M11.915 65.815c4.138 2.04 7.795 3.551 10.972 4.534 2.398.742 5.186.994 10.108 1.039 5.643.051 13.272.042 15.345-.39 3.88-.807 10.446-.657 14.764-.244 4.317.413 16.237-.286 17.716-1.032 1.432-.722 5.062-3.24 5.18-3.724V66c0 .732-.228 1.372-.683 1.92C83.088 70.603 80.707 72 78 72h-8.777c-1.603 0-7.415-.814-13.61-.814-6.193 0-8.596.814-10.507.814H29.88c-4.325 0-11.526-2.01-14.816-3.834-1.273-.706-2.32-1.503-3.124-2.325Z"/>
  </g>
</svg>
