<svg xmlns="http://www.w3.org/2000/svg" viewBox="0 0 96 96">
  <defs>
    <path id="a" d="M0 0h96v96H0z"/>
  </defs>
  <g fill="none" fill-rule="evenodd">
    <path fill="#0C0C0E" d="M66.387 35.993c-.189-1.578-.514-2.793-.977-3.643-.695-1.275-3.527-3.79-4.69-4.3-.776-.339-1.179-.221-1.209.354-.274-.122-.502-.046-.684.226-.274.408-.698 1.381-.698 1.92-.239.11-.633 1.133-.654 1.206-.02.074-.922 1.567-.922 1.567s-1.229-.514-1.774 0c-.545.515.17 1.746.17 2.208 0 .462-1.112 2.261-1.312 2.261-.2 0-1.647-.07-1.647.655 0 .724.714 1.285.714 1.514 0 .23-1.182 1.59-1.399 1.59-.217 0-1.199-.317-1.424-.317-.225 0-.766.755-.495 1.366.27.61-.11.744-.372.971-.263.227-1.535 1.316-1.693 1.316-.158 0-1.176-.382-1.489 0-.313.382-.293.873-.578 1.04-.284.166-2.34 1.1-2.538 1.1-.197 0-.811-.308-1.267 0-.456.308-.591.777-.591.973 0 .13-.797.527-2.391 1.19h-.759c-.559 0-1.234.594-1.39.916-.157.321-2.085.802-2.473.802-.388 0-.785-.38-1.29-.19-.504.19-.646.509-1.166.509-.52 0-.292-.488-1.584 0-1.293.488-1.771 1.135-2.207 1.135-.437 0-1.026-.333-1.593 0-.567.334-.849.652-1.373.885-.525.233-.776.606 0 1.161.775.556 5.682 1.986 13.441 1.536 7.76-.45 9.96-1.203 12.295-3.979 2.336-2.776 3.228-3.342 6.185-2.776 2.958.566 6.12-.023 6-2.162-.12-2.138-3.158-7.433-1.834-8.04 1.325-.608 3.172-.507 4.296-.59.75-.056 1.206-.857 1.372-2.404Z"/>
    <path fill="#2B2B30" d="M58.827 28.63c.137-.206.302-.3.492-.28.88.19 2.352 1.597 3.514 2.475.838.633 1.533 1.663 2.084 3.09-1.37 1.875-2.836 3.046-4.397 3.513l-1.618.473c-1.635.461-2.88.73-2.78.319.133-.54 1.215-3.342 1.748-3.857.49-.472.483-2.377.365-3.08l-.034-.16c-.053-.18-.058-.581-.006-1.025.13-.525.425-1.159.632-1.468Z"/>
    <path fill="#4C4C4C" d="M61.87 34.363c-1.73-1.026-2.847-1.672-3.349-1.94-.752-.4-1.003-.528-1.156-.44-.153.087 2.32 2.099 2.813 2.38.493.281.984.45 1.208.405.15-.03.31-.165.484-.405Z"/>
    <path fill="#373636" d="M57.326 32.25c-.059.341.023.654.248.938.336.427 2.491 1.793 2.506 1.898.01.07.063.209.158.414-.532-.157-.924-.34-1.175-.552-.375-.318-1.553-1.435-1.705-1.68-.151-.247.154.514.42.802.267.288 1.875 1.805 2.302 1.916.428.11 1.481-.64.535-1.211-.947-.57-2.55-1.854-2.837-2.038a1.33 1.33 0 0 1-.452-.487Z"/>
    <path fill="#9C9C9C" d="M59.32 28.35c.879.19 2.351 1.597 3.513 2.475.545.411 1.028.99 1.451 1.735l.003.052c-.03.13-.665-.366-1.278-.888l-1.873-1.644c-.443-.382-.89-.76-1.213-1.017l-.86-.662a.43.43 0 0 1 .256-.051Z"/>
    <path fill="#3C3C3C" d="M55.724 39.84c-.536-.635-1.006-1.066-1.41-1.293-.604-.34-.748-.227-.937 0-.19.228.739 1.01 1.14 1.385.403.375 1.258 1.62 1.058 1.814-.2.195-2.896 2.527-3.42 2.522-.525-.005-.806-.721-1.196-.951a3.174 3.174 0 0 1-.573-.406c-.197.48-.358.757-.48.832.316.384 1.637 1.566 1.614 1.678-.023.111-3.48 2.124-3.67 2.124-.192 0-1.525-1.364-1.543-1.44-.018-.075-.166-.322-.296-.194-.13.127-.638.312-.493.611.145.3 1.183 1.396 1.275 1.541.092.145-3.024 1.702-3.307 1.692-.282-.009-.51-.11-.646-.371-.137-.262-.754-1.176-.862-1.321-.11-.145-.586.135-.625.432-.04.296.534.889.625 1.26.06.248.15.491.267.73-2.226 1-3.477 1.495-3.752 1.484-.413-.016-.586.1-.736-.47-.149-.57-.552-.66-.547-1.015.005-.355-.184-.35-.387 0-.202.351-.662.123-.496.446.111.215.406.767.883 1.656-2.12.497-3.344.739-3.67.724-.489-.022-.686-.832-.733-1.097-.048-.265-.027-.49-.276-.483-.249.008-.658.169-.796.24a1.399 1.399 0 0 0-.318.243c.283.055.389.18.318.373-.072.194-.178.492-.318.895-.506.587-.506.92 0 1 .758.12 6.559-.674 9.098-1.536 2.538-.862 10.482-5.129 12.698-6.533 2.216-1.404 4.02-4.017 3.479-4.914-.36-.598-.683-1.15-.968-1.658Z"/>
    <path fill="#434345" d="M55.415 33.809c-.055.359.148 1.698 0 2.231l-.164.608c-.185.65-.476 1.477-.891 1.578-.57.14-1.074-.176-1.122.218-.049.394.402.82.461 1.24.059.42-.273 1.315-.751 1.763-.479.448-1.64.82-1.884.499-.244-.322-.796-.55-.767-.244.029.306.638.795 0 1.568l-.44.526c-.198.223-.282.264-.7.559-.628.442-1.321 1.149-1.523 1.166-.202.016-1.085-.485-1.083-.324.002.138-.025.523-.244.909l-.126.191c-.335.442-.265.706-.744.885-.478.18-1.946 1.091-2.61.818-.665-.273-.707-.938-1.056-.268-.348.67-.267 1.114-.784 1.274-.517.16-2.444 1.077-2.942 1.036-.498-.04-.765-.443-.977 0-.213.444-.3.517-.74.888-.442.37-2.34.584-2.788.557-.449-.028-.239-.451-.749-.233s-.734.56-1.374.813c-.64.252-3.232.282-3.444.313-.213.032-.232.681-.511.547-.28-.135-.993-.421-1.398-.304-.11.032-.287.05-.532.057.134-.102.288-.21.473-.318.567-.333 1.156 0 1.593 0 .436 0 .914-.647 2.207-1.135 1.292-.488 1.064 0 1.584 0s.662-.319 1.166-.51c.505-.19.902.191 1.29.191s2.316-.48 2.473-.802c.139-.286.687-.788 1.2-.896l.19-.02h.759l.976-.417c.943-.415 1.415-.673 1.415-.773 0-.196.135-.665.591-.973.456-.308 1.07 0 1.267 0 .197 0 2.254-.934 2.538-1.1.285-.167.265-.658.578-1.04.313-.382 1.331 0 1.49 0 .071 0 .373-.225.706-.492l.986-.824c.263-.227.642-.36.372-.971-.271-.61.27-1.366.495-1.366.225 0 1.207.318 1.424.318.217 0 1.399-1.361 1.399-1.59 0-.23-.714-.791-.714-1.515 0-.725 1.447-.655 1.647-.655.2 0 1.311-1.799 1.311-2.261 0-.462-.714-1.693-.169-2.208.415-.391 1.227-.186 1.59-.066l.184.066c-.721.085-1.1.246-1.138.486Z"/>
    <path fill="#29292C" d="M61.954 33.2c.545-.074 2.143.105 5.773.686 3.63.58 6.064 2.214 7.195 2.963l.547.37c.887.616 1.692 1.276 2.975 2.618l.58.622c1.18 1.295 1.845 2.237 1.84 2.52.178-.026.353-.566.396-1.158l.016-.548c.025-.62.161-1.347 1.108-1.843 1.118-.586 1.89.005 2.432.702.505.65-.015 3.275-.306 4.265l-.059.186c-.27.791-.819 2.966-1.015 3.64-.196.675.433 1.367.057 1.532-.376.166-2.822-.256-5.49-1.09-2.67-.834-12.57.74-20.56 3.386-7.992 2.647-12.588 3.633-20.356 3.98-7.77.345-12.462-1.344-12.947-1.742-.451-.369.35-1.045.933-1.415l.373-.22c.541-.306 1.118-.578.618-.03-.578.631.638.766 1.423.79.785.022.355-.291.627-.418s1.873-.27 2.316-.212c.442.059.487.185.8.212.312.026.288-.358.686-.465.398-.106.547.113.917 0 .37-.112.402.462.543.465.141.003 2.504-.452 2.795-.465.291-.012.233-.359.378-.48.145-.12 1.298-.616 1.456-.433.159.183.435.04.974 0 .538-.04 2.093-.967 2.284-1.053.19-.086.292-.406.376-.563.084-.157 1.03-.62 1.475-.714.445-.094.336.223.713.216.377-.008 1.748-1.227 2.095-1.504.346-.277.295-.375.663-.768.368-.393.538-.083.737 0 .199.084.479-.269.916-.554l.31-.185c.643-.37 1.823-1 1.937-1.192.136-.232.204-.608.638-.88.435-.272.457-.038.646 0 .189.037.626-.3.974-.725.231-.283.337-.522.316-.716l.447-.544c.4-.488.654-.81.764-.966.146-.208.332-.366.557-.475.168-.767.373-1.448.614-2.042a6.99 6.99 0 0 1 1.138-1.864c-.17-.131.218-.812.424-1.137.206-.325.711-.933 1.307-1.322s3.1-1.354 3.644-1.43Zm21.314 6.518-.144.005c-.747.086-1.222.772-1.366 1.665l-.03.249c-.092 1.012-.358 1.646-.512 1.734a2.354 2.354 0 0 0-.426.355c.235.238.475.595.72 1.073.32.626.828 1.812 1.038 2.524l.07.272c.119.571.343.52.402.288l.063-.44c.08-.47.235-1.205.34-1.558l.317-1.03c.166-.559.376-1.32.61-2.332.41-1.771-.315-2.772-1.082-2.805Z"/>
    <path fill="#0A0A0A" d="M33.114 54.462c.108-.808.752-1.82 1.042-1.397.175.256.191 1.256.049 3-.463-.005-.91-.02-1.341-.042.077-.607.203-1.214.25-1.561Zm5.399-2.786.389-.052 2.24 4.14-1.372.111-.708.049c-.347-.664-.683-1.463-.743-2.133-.082-.917.032-1.724.194-2.115ZM56.52 37.774c1.308-1.059 4.535.524 5.611.908 1.077.384 2.738 3.147 4.256 5.949 1.079 1.993-.423 4.136-2.369 5.57a79.74 79.74 0 0 0-6.576 1.85c-4.562 1.511-8.017 2.481-11.588 3.1l-.556-.41c-.682-.514-1.43-1.13-1.694-1.676-.505-1.042-.475-2.021.008-3.606a.433.433 0 0 0 .215.045c.068-.002.169-.042.29-.11l.302.502c1.064 1.714 3.06 4.46 3.294 4.566.296.134 2.425-1.277 1.193-3.33-.733-1.221-1.093-2.604-1.079-4.148.106-.084.227-.182.363-.274l1.71 1.498c1.152 1.032 1.785 1.665 1.9 1.899l.017.05c.045.262.946-.183 2.703-1.335l-1.091-1.096c-1.55-1.58-2.412-2.584-2.585-3.013l-.013-.04c.074-.088.168-.175.292-.252.435-.272.457-.038.646 0 .189.037.625-.3.972-.723.188.1.391.235.61.41l.222.19c2.018 1.802 6.602 5.146 9.175 5.859 2.5.692-.183-4.812-1.504-6.166l-.113-.109c-1.271-1.132-5.92-5.05-4.611-6.108Z"/>
    <path fill="#302E2E" d="M67.727 33.886c3.63.58 6.064 2.214 7.195 2.963l.547.37.526.38c.702.527 1.423 1.164 2.45 2.238l.58.622.507.571c.861.998 1.336 1.71 1.333 1.95.177-.027.352-.567.395-1.159l.016-.548c.025-.62.161-1.347 1.108-1.843 1.118-.586 1.89.005 2.432.702.472.607.05 2.934-.246 4.046l-.119.405c-.27.791-.819 2.966-1.015 3.64-.196.675.433 1.367.057 1.532-.376.166-2.822-.256-5.49-1.09-.583-.182-1.51-.25-2.685-.216l-1.213-.727c-2.207-1.352-3.89-2.54-4.205-2.875-.998-1.06-10.546-4.013-11.412-5.998-.496-1.139-1.287-1.912-1.621-2.671l.136-.226c.206-.325.711-.933 1.307-1.322s3.1-1.354 3.644-1.43c.545-.074 2.143.105 5.773.686Zm15.541 5.832-.144.005c-.747.086-1.222.772-1.366 1.665l-.03.249c-.092 1.012-.358 1.646-.512 1.734a2.354 2.354 0 0 0-.426.355c.235.238.475.595.72 1.073.32.626.828 1.812 1.038 2.524l.07.272c.119.571.343.52.402.288l.063-.44.124-.65c.072-.347.153-.696.216-.908l.317-1.03.236-.834c.114-.423.24-.92.374-1.498.41-1.771-.315-2.772-1.082-2.805Z"/>
    <path fill="#2B5D3C" d="M67.727 33.886c3.63.58 6.064 2.214 7.195 2.963l.547.37.526.38c.702.527 1.423 1.164 2.45 2.238l.58.622.506.57c.782.906 1.246 1.576 1.322 1.872a.36.36 0 0 1-.063.158c-.159.202-.323.228-.456.165l-.126-.098c-.576-.487-2.896-2.63-3.605-3.408-.713-.783-2.003-1.64-3.439-2.444l-1.65-.894c-1.125-.596-2.163-1.073-3.427-1.288l-.748-.116c-1.76-.254-4.292-.51-5.028-.52-.848-.012-1.524.112-2.495.472-.85.314-1.562.732-1.96 1.087l-.15.148c-.317.349-1.269 1.154-1.583 1.525.181-.266.344-.468.456-.599-.17-.131.218-.812.424-1.137.206-.325.711-.933 1.307-1.322s3.1-1.354 3.644-1.43c.545-.074 2.143.105 5.773.686Z"/>
    <path fill="#53996A" d="M67.727 33.886c3.63.58 6.064 2.214 7.195 2.963l.547.37.526.38c.702.527 1.423 1.164 2.45 2.238l.58.622.506.57.474.568c.495.618.789 1.074.848 1.304a.36.36 0 0 1-.063.158l-.513-.591-.868-.973c-.98-1.075-1.842-1.944-2.588-2.606-1.62-1.436-3.563-2.54-6.555-3.841-2.993-1.301-6.419-1.32-8.217-1.359-1.42-.03-3.025.675-3.773.965l.034-.024c.596-.389 3.1-1.354 3.644-1.43.545-.074 2.143.105 5.773.686Z"/>
    <path fill="#525155" d="M60.16 38.253a166.72 166.72 0 0 1-3.295-1.368c-.904-.395-1.415-.769-1.613-.982-.198-.212-.718-.201-.734.16-.017.363-.461 1.588 0 1.947.46.36 4.02 1.834 5.024 2.128 1.004.294 4.228 6.045 3.693 7.075-.536 1.03-1.133.466-1.593.176-.459-.289-7.059-5.245-7.5-5.604-.443-.36-1.563-1.581-1.505-1.647.059-.067-.238-.082-.51.176-.27.259-.975.81-.998 1.014-.023.205.444 1.09 1.343 1.78.599.461 3.45 2.677 8.552 6.647-3.006.158-5.014-.06-6.024-.653-1.515-.89-5.905-5.531-5.986-5.53-.054 0 .029-.155.25-.464-.311.086-.571.176-.781.27-.315.14-1.31 1.055-1.251 1.253.04.13 1.786 2.14 5.24 6.028-1.25 1.974-2.223 2.73-2.917 2.268-1.04-.694-4.456-6.1-4.59-6.436-.134-.337-.18-.582 0-.706-.605-.173-1.861.427-2.055.706-.194.28.138 1.06.94 2.33.535.848 1.868 2.755 4 5.72-2.472.716-3.805.974-4 .774-.292-.3-2.265-4.176-2.54-4.656-.277-.48-.853-1.715-.8-2.107.036-.26.034-.454-.006-.58-.256-.066-.47-.066-.64 0-.257.1-1.32.414-1.461.58-.141.167-.122.716 0 1.203.122.488 2.864 6.012 2.906 6.321.042.31-3.878.14-4.326 0-.449-.14-.884-2.48-.936-3.49-.052-1.01-.311-1.632-.2-1.927.075-.198.141-.377.2-.537-.247-.008-.62.065-1.122.22-.752.234-1.183.256-1.08.566.103.31.337 4.498.445 4.93.073.289-1.178.213-3.75-.227a304.474 304.474 0 0 1 0-3.423c.004-.185.095-.402.272-.649-.153-.1-.44-.1-.863 0-.634.152-.74.091-1.345.357-.606.266-.391.305-.34.514.034.14.034 1.207 0 3.201.848.647 1.829 1 2.94 1.057 1.667.087 11.75 2.143 19.093-1.794s14.628-4.256 14.62-5.772c-.009-1.516-.664-4.86-1.682-6.949-.679-1.392-1.704-2.692-3.075-3.9Z"/>
    <path fill="#D5D5DE" d="M25.655 52.563c-.047-.001-.356.037-.88.277-.525.24-1.698.925-2.279 1.104-.581.179-5.481 1.125-7.785 1.658-2.303.534-3.428 2.682-3.615 3.364-.186.683 2.115 4.022 2.966 4.774.85.752 1.574.975 3.52.785 1.946-.19 7.589.022 11.09 1.114 3.502 1.092 7.778 2.94 11.131 1.683 3.354-1.257 6.459-4.107 8.71-4.03 2.252.078 6.528 2.896 9.553 2.839 3.025-.058 10.15-6.412 12.605-5.977 2.456.434 10.17 3.514 11.318 3.586 1.147.072 2.695-.097 2.905-.646.21-.55.319-5.315.07-7.327-.248-2.013-.413-3.923-.416-4.157-.003-.235-.394-1.89-.637-2.261-.243-.371-.51-.462-.579-.188-.07.275-1.25-.169-2.92-1.533-1.672-1.364-5.877-5.111-7.455-6.305-1.578-1.194-5.491-3.287-8.796-3.756-3.304-.47-4.421.322-4.927 1.278-.506.957.707 2.494 1.039 3.301.332.807 2.188 4.57 1.052 5.683-1.136 1.113-2.965.933-4.144.724-1.18-.208-3.471-.69-4.667-.267-1.196.424-1.918 2.23-2.966 3.324-1.048 1.093-2.9 3.369-9.561 3.573-6.662.204-9.24.229-11.863-.212-2.623-.441-3.056-.846-3.03-1.167.025-.32 1.297-.446 1.07-.51-.228-.064-1.356.328-1.07 0 .285-.327.608-.73.56-.73Z"/>
    <path fill="#C8C8D4" d="M59.234 38.845c.506-.956 1.623-1.747 4.927-1.278 3.305.47 7.218 2.562 8.796 3.756 1.578 1.194 5.783 4.941 7.455 6.305 1.106.903 1.997 1.403 2.493 1.558 1.055 5.38.96 11.547.056 14.558a8.825 8.825 0 0 1-.972-.004c-1.147-.072-8.862-3.152-11.318-3.586-1.487-.264-4.688 1.963-7.652 3.774l-2.962-.541c-9.643-1.816-18.667-4.046-18.246-4.502.864-.933 5.768-1.442 11.006-2.809 5.238-1.366 10.386-4.989 10.314-8.03-.042-1.8-.68-2.993-1.91-3.579a20.818 20.818 0 0 0-.462-1.197l-.486-1.124c-.332-.807-1.545-2.344-1.04-3.3Z"/>
    <path fill="#C4C4CE" d="M18.037 61.802c3.866.556 7.512.73 11.46 1.587 1.709.371 4.685 1.103 6.385 2.154.422.261.447.862.074 1.802l-.983.159c-2.144-.408-4.343-1.254-6.3-1.865-3.343-1.043-8.636-1.283-10.803-1.138l-.288.024c-1.946.19-2.67-.033-3.52-.785-.851-.752-3.152-4.091-2.966-4.774.074-.27.296-.773.682-1.313 1.883 2.437 3.968 3.819 6.259 4.149Z"/>
    <path fill="#AFAFBC" d="M72.005 41.719c-.835-.852.134-.678 2.153.687l.145.004 1.252 1.061c1.766 1.511 3.81 3.302 4.857 4.157 1.67 1.364 2.85 1.808 2.92 1.533.07-.274.336-.183.579.188.219.333.557 1.708.625 2.15l.08.998c.05.556.124 1.32.218 2.159l.13 1.11c.249 2.013.14 6.778-.07 7.328-.21.549-1.758.718-2.905.646-1.147-.072-8.862-3.152-11.318-3.586-1.27-.225-3.79 1.367-6.346 2.964a81.072 81.072 0 0 0-4.39-.346l-.782-.03c-5.788-.16-21.3 4.3-27.073 2.634 2.6-3.197 5.194-5.923 7.59-7.003 3.372-1.52 6.723-1.414 10.993.361 2 .832 4.338.79 6.064-.27 1.958-1.203 3.672-3.408 7.82-5.124 4.15-1.717 7.806.11 10.267 1.448 2.46 1.337 4.195 2.805 5.353 3.74.37-1.077.075-3.221-.175-5.498-.357-3.245-4.343-7.593-7.987-11.311Z"/>
    <path fill="#9E9EAB" d="m84.536 51.5.08.997.164 1.665.054.494.13 1.11c.229 1.854.155 6.04-.022 7.121-1.636-.665-3.254-2.283-2.466-3.125.801-.858.758-4.565.679-7.25-.038-1.299.286-1.986 1.177-1.925l.106.429c.046.2.08.371.098.483Z"/>
    <path fill="#E0E0E9" d="M59.234 38.845c.506-.956 1.623-1.747 4.927-1.278 3.305.47 7.218 2.562 8.796 3.756l.42.328c.232.185.495.401.78.639a2.918 2.918 0 0 1-.678-.15l-.257-.095c-4.4-1.778-10.083-2.7-11.4-2.063-1.318.638.634 3.292 1.353 6.728.718 3.437-1.593 4.344-5.905 4.027-4.312-.316-5.8 2.43-8.105 4.334-2.235 1.845-9.392 3.071-15.718 3.682l-.606.056c-6.388.57-17.275.243-18.948-1.528-.378-.4-.455-.83-.231-1.29.316-.167.667-.3 1.05-.389l1.018-.227c2.49-.54 6.26-1.275 6.766-1.431.581-.18 1.754-.863 2.279-1.104.524-.24.833-.278.88-.277.047.002-.276.404-.562.731-.285.328.843-.064 1.07 0 .228.064-1.044.19-1.07.51-.025.32.408.726 3.031 1.167l.563.087c2.45.35 5.114.315 11.3.125 6.662-.204 8.513-2.48 9.561-3.573 1.048-1.094 1.77-2.9 2.966-3.324.87-.308 2.32-.137 3.499.06l1.168.207c1.18.209 3.008.39 4.144-.724 1.136-1.114-.72-4.876-1.052-5.683-.332-.807-1.545-2.344-1.04-3.3Z"/>
    <path fill="#E5E5EF" d="m51.447 49.093-.025.067c-1.549 4.183-5.587 7.137-12.115 8.863-1.923.3-3.93.544-5.86.73l-.606.056c-6.388.57-17.275.243-18.948-1.528-.378-.4-.455-.83-.231-1.29.316-.167.667-.3 1.05-.389l1.018-.227c2.49-.54 6.26-1.275 6.766-1.431.581-.18 1.754-.863 2.279-1.104.524-.24.833-.278.88-.277.047.002-.276.404-.562.731-.285.328.843-.064 1.07 0 .228.064-1.044.19-1.07.51-.025.32.408.726 3.031 1.167l.563.087.57.074c2.31.269 5.02.226 10.73.051 6.662-.204 8.513-2.48 9.561-3.573.699-.73 1.253-1.775 1.899-2.517Z"/>
    <path fill="#4F4F4F" d="m84.4 51.203.064-.071.06.3c.015.083.023.145.024.178l.048.662c.066.776.198 2.11.368 3.495.087.704.13 1.746.14 2.826l-.332 1.267v.664l-.808-.89v-.28l.53-.074.153-1.273c.054-.419.096-.697.125-.836.078-.375-.1-2.19-.279-3.115-.178-.925-.435-1.68-.31-2.318.042-.212.114-.39.218-.535Z"/>
    <path fill="#BCBCC6" d="M59.234 38.845c.506-.956 1.623-1.747 4.927-1.278 3.305.47 7.218 2.562 8.796 3.756 1.578 1.194 5.783 4.941 7.455 6.305 1.67 1.364 2.85 1.808 2.92 1.533.07-.274.336-.183.579.188.08.123.178.389.272.697-.385.15-.83.184-1.331.103-1.072-.174-5.235-3.241-7.539-5.356l-.29-.27c-2.224-2.113-6.213-4.769-9.01-5.514-2.796-.746-4.675-.825-5.335-.359-.608.43-.504 1.392.032 2.413l.143.256c.657 1.113 1.965 4.203 1.815 5.247-.15 1.044-.267 1.82-.836 2.135l-.254.155c-.145.104-.135.154-.07.205l9.116 6.97-.372.246-9.202-7.11c-.571.343-1.394.457-2.467.343l-.71-.087c-1.666-.222-4.042-.601-4.971-.046-1.073.64-2.628 3.48-4.39 4.477-1.76.998-5.4 1.914-7.212 1.96l.172.237c.37.535 1.22 1.852 2.546 3.951l-.355.214-2.81-4.401c-2.873.302-5.586.407-8.14.315-3.646-.131-6.631-.73-7.67-1.153l-.807-.364c-.615-.309-.916-.702.539-1.773l.211-.09c.396-.16.628-.188.669-.187.047.002-.276.404-.562.731-.285.328.843-.064 1.07 0 .228.064-1.044.19-1.07.51-.025.32.408.726 3.031 1.167l.563.087c2.45.35 5.114.315 11.3.125 6.662-.204 8.513-2.48 9.561-3.573 1.048-1.094 1.77-2.9 2.966-3.324.87-.308 2.32-.137 3.499.06l1.168.207c1.18.209 3.008.39 4.144-.724 1.136-1.114-.72-4.876-1.052-5.683-.332-.807-1.545-2.344-1.04-3.3Z"/>
    <path fill="#D1D1DB" d="M82.96 63.68c-.626-1.805-1.546-3.337-2.762-4.598-1.824-1.892-8.074-6.405-12.68-6.145-4.606.26-9.045 4.514-10.25 5.347-1.203.833-3.518 1.94-7.255.316-3.736-1.623-7.752-1.615-11.179.372-3.426 1.987-6.229 6.194-6.584 6.699-.236.336-.514.787-.833 1.353 4.094 1.162 6.905 1.402 8.43.72 2.29-1.023 6.922-3.785 9.481-3.085 2.56.7 8.937 2.061 13.84 0 4.905-2.06 7.126-3.812 10.454-2.5 2.219.876 5.331 1.382 9.337 1.52Z"/>
    <path fill="#C2C2CA" d="m70.13 56.047.681.021c4.43.231 8.374 2.56 11.832 6.986l.165.214.138.379-.123.028c-3.659-.135-6.565-.58-8.717-1.335l-.484-.18c-3.328-1.313-5.55.439-10.453 2.5-4.904 2.06-11.282.7-13.841 0-2.56-.701-7.191 2.061-9.48 3.084-.223.1-.474.18-.751.24l-2.523-.15c-.859-.055-1.736-.113-2.63-.176a36.15 36.15 0 0 1-1.83-.442l.41-.369c1.066-.925 2.884-2.304 5.455-4.136 4.907-3.499 8.372-2.601 10.53-2.187 2.157.415 5.858 2.57 8.799.985 2.842-1.532 6.34-5.524 12.822-5.462Z"/>
    <path fill="#B7B7C1" d="M67.518 52.937c4.606-.26 10.856 4.253 12.68 6.145 1.216 1.26 2.136 2.793 2.761 4.597l-.773-.031.138.317c-.796-1.893-1.683-3.337-2.66-4.333-1.468-1.493-3.987-3.214-6.098-4.234-2.112-1.02-4.475-1.948-7.107-1.533-2.631.415-6.683 3.653-8.59 5.135-1.82 1.414-4.169 1.79-7.591.603l-.496-.18c-3.694-1.402-5.976-1.428-8.546-.63-2.57.796-4.707 2.556-6.537 4.976l-.663.893c-.818 1.128-1.374 2.001-1.667 2.621-.307-.08-.626-.166-.952-.26.255-.452.484-.83.687-1.136l.61-.876c.992-1.38 3.353-4.434 6.12-6.04 3.27-1.896 7.079-1.989 10.668-.582l.511.211c3.737 1.624 6.052.517 7.256-.316 1.204-.833 5.643-5.086 10.249-5.347Z"/>
    <path fill="#DEDEDE" d="M67.518 52.937c4.606-.26 10.856 4.253 12.68 6.145.464.48.885 1.001 1.262 1.561-.63-.788-1.096-1.311-1.396-1.57-2.097-1.814-3.726-2.98-5.062-3.677-3.6-1.875-5.68-2.496-8.211-2.2-2.53.297-6.31 2.621-8.561 4.544-2.252 1.922-4.265 1.824-5.413 1.724-1.147-.1-2.289-.545-4.24-1.268-1.33-.493-4.003-.97-6.828-.28-2.826.688-4.94 2.567-7.08 4.798l-1.13 1.196c1.209-1.535 3.127-3.681 5.295-4.938 3.27-1.897 7.079-1.99 10.668-.583l.511.211c3.737 1.624 6.052.517 7.256-.316 1.204-.833 5.643-5.086 10.249-5.347Z"/>
    <path fill="#343234" d="M16.575 63.741c2.904-.267 5.886-.774 10.903.169 5.017.942 7.154 2.051 10.204 2.058 3.05.007 6.75-4.524 10.318-4.493 3.567.032 7.176 2.832 9.889 2.74 2.713-.09 7.91-4.49 10.92-5.156 3.01-.664 5.976.707 9.186 1.904 3.21 1.196 4.506 1.508 5.902 1.498 1.396-.01 1.923.767 1.691 1.571-.231.805-.5 1.723-.48 2.32.018.595.896 2.014.896 2.648 0 .634-.83 1.516-3.56 2.24-2.73.725-7.608.76-10.444.76-2.836 0-9.515-.352-12.258-.352-2.743 0-5.275.352-13.742.352H32.059c-2.784 0-7.207-.437-12.81-2.29-.178-.25-.59-.072-.896-.162a1.934 1.934 0 0 1-.652-.37c-.027.144-.365.085-1.013-.178-.972-.394-1.16-.31-1.204-.507-.043-.198.146-.451-.571-.495-.718-.043-.827-.151-1.303-.384C13.134 67.382 10 65.797 10 62c0-3.797 1.083-3.61 1.276-3.567.193.042 1.099 1.618 1.42 2.301.242.516 1.3 2.344 1.894 2.919.228.221 1.27.154 1.985.088Z"/>
    <path fill="#262226" d="m77.995 60.963 1.455.527c1.898.662 2.973.912 3.983.962l.464.009c1.396-.01 1.923.767 1.691 1.571l-.2.707c-.161.596-.294 1.187-.28 1.612.018.596.896 2.015.896 2.649 0 .418-.36.944-1.389 1.462-.787.12-1.766.045-2.938-.221l-2.944-.704c-2.729-.628-5.495-1.03-10.445-.284l-1.287.2c-5.38.862-5.44 1.214-9.844 1.2-4.73-.014-6.928-.834-11.332-.676-4.405.158-12.56 1.143-15.528.963-2.968-.181-11.576-2.351-13.005-3.314-1.43-.963-2.959-3.021-3.23-3.879-.022-.07.063-.212.25-.413.1.13.193.237.278.319.228.221 1.27.154 1.985.088l2.223-.219c2.299-.211 4.917-.32 8.68.388 5.017.942 7.154 2.051 10.204 2.058 3.05.007 6.75-4.524 10.318-4.493 3.567.032 7.176 2.832 9.889 2.74 2.713-.09 7.91-4.49 10.92-5.156 3.01-.664 5.976.707 9.186 1.904Z"/>
    <path fill="#2A6537" d="M36.501 70.822h2.354l-.176.236a.745.745 0 0 0-.117.217 4.602 4.602 0 0 0-.008.727l-2.401-.003c-.023-.249-.038-.49-.044-.724.011-.465.222-.448.392-.453Zm9.285-.415c.075.032.04.563-.1 1.591l-3.875.004.038-.536c.008-.171.01-.314.003-.366l-.02-.156c-.01-.138.02-.282.255-.325l.249-.03c.842-.079 3.336-.231 3.45-.182Zm-18.598.212c.605.147 1.35.252 2.236.314l1.85.137.375.03h.17v.898h-.15a34.528 34.528 0 0 1-4.464-.373l-.017-.113a7.114 7.114 0 0 1 0-.893Zm24.206-.36-.006 1.685-2.279.039a16.133 16.133 0 0 1 .012-1.576c.355-.076 1.112-.125 2.273-.148Zm19.211-1.51-.272 3.226-1.83-.055c-.432-.014-.877-.03-1.33-.047l-.14-3.123h3.572Zm6.392.631 3.824.502c.15.019.154.576.013 1.674-1.301.2-2.821.31-4.308.37l.204-.941c.04-.163.07-.273.094-.328l.02-.038c.058-.066.11-.48.153-1.239Zm-21.613.766 1.546.113v1.476l-1.545.073-.001-1.662Zm7.032 1.418.002.139-1.477-.04c-.3-.006-.581-.011-.836-.013l-.374-.002-.054-1.609.706-.07c1.077-.119 1.66-.24 1.748-.363.12-.167.238 1.077.285 1.958Zm-41.83-2.67 1.482.556c.534.197 1.022.361 1.11.328.125-.047.258-.079.4-.095l.023 1.257a49.334 49.334 0 0 1-3.31-.897l.015-.265.01-.567c.01-.284.051-.385.27-.317Zm-2.638-1.15-.078.53c-.077.554-.1.875-.072.965l.03.036-.127-.097c-.024.126-.286.096-.785-.09l-.662-.252c-.247-.087-.416-.132-.53-.168l-.025.226.085-.635c.094-.666.167-1.07.22-1.214.07-.185.717.048 1.944.699Z"/>
    <path fill="#1C4727" d="M27.188 70.619c.484.118 1.058.208 1.722.271l2.739.21h.17v.501c-1.636-.04-3.317-.254-4.645-.48l.014-.502Zm11.667.203-.176.236-.098.163a.265.265 0 0 0-.019.054l-.01.115-1.648.082-.788.033-.007-.23c.011-.465.222-.448.392-.453h2.354Zm6.931-.415c.047.02.051.235.013.643l-3.942.185-.005-.135-.02-.156c-.01-.138.02-.282.255-.325l.249-.03.95-.073c1.053-.073 2.417-.145 2.5-.11Zm9.598-.26 1.546.112.003.874-1.547-.034-.002-.953Zm6.972.574-1.871.211-.78.083-.028-.976.706-.07.644-.08c.667-.092 1.035-.187 1.104-.283.084-.117.167.458.225 1.115Zm-10.962-.462-.004.74c-.766-.015-1.54-.024-2.292-.023.004-.21.011-.399.023-.57.355-.075 1.112-.124 2.273-.147Zm25.603-.879 3.824.502c.118.015.145.365.083 1.05l-2.84-.327c-.373-.04-.767-.083-1.172-.125l.037-.245c.024-.204.047-.49.068-.855Zm-56.41-.486 1.481.556c.534.197 1.022.361 1.11.328.125-.047.258-.079.4-.095l.014.656-1.255-.298a88.295 88.295 0 0 1-2.03-.511l.008-.319c.01-.284.052-.385.271-.317Zm50.018-.144-.105 1.228-.085-.001c-.736-.002-1.94.092-3.315.226l-.068-1.453h3.573Zm-52.657-1.006-.078.53-.052.407c-.58-.286-1.22-.677-1.916-1.172l.055-.29c.017-.077.033-.135.048-.174.068-.185.716.048 1.943.699Z"/>
    <path fill="#111" d="M36.21 68.753a3.188 3.188 0 0 0-.016.416l.016 1.672c-.003.403.004.85.014 1.16l-.52.001c.106-.445.146-1.039.131-1.265l-.1-1.358a14.85 14.85 0 0 0-.047-.508c-.028-.208.562-.325.522-.118Zm2.893-.32c.099.323.156 1.302.113 2.428-.016.43-.046.81-.092 1.14h-.448c.082-.551.113-1.334.097-1.6-.027-.414-.22-1.709-.288-1.845-.067-.136.519-.447.618-.123Zm2.728-.227c.09.247.339 1.582.268 2.697a14.48 14.48 0 0 1-.11 1.098h-.48c.124-.51.172-1.119.141-1.825l-.036-.616c-.08-.998-.23-1.302-.477-1.354.577-.132.605-.248.694 0Zm3.954-.923.068.192c.132.412.403 1.431.362 2.633l-.05 1.4c-.003.188-.003.352.003.494L45.503 72c.194-.552.288-1.182.282-1.891-.008-1.01-.152-1.861-.432-2.553l.227-.178c.123-.09.192-.12.205-.094Zm-13.961 1.472c.15.28.29 1.331.291 2.086.001.395-.048.826-.07 1.16l-.373.002v-2.082a1.94 1.94 0 0 0-.004-.095c-.024-.276-.185-.732-.433-.955-.247-.224.438-.395.589-.116Zm18.424-1.252-.049.052c-.354.248-.929 1.949-.95 2.621-.014.44.005 1.244.065 1.806l-.467.007c-.054-.527-.106-1.303-.066-1.881.057-.805.419-2.3.284-2.553-.124-.232 1.25-.247 1.183-.052Zm20.524-1.42v3.073c-.013.646-.148 2.117-.203 2.825l-.512-.013.151-1.06c.103-.786.193-1.61.175-1.752-.029-.233-.18-.552-.17-.721l.026-.082c.101-.12.016-1.99-.12-2.236-.135-.245.65-.068.653-.033Zm-18.249 1.401-.065.071c-.379.304-.828 1.59-.854 2.387-.021.636.016 1.487.15 1.996l-.602.011-.034-.708a9.246 9.246 0 0 1-.005-1.133l.052-.475c.11-.868.33-2.036.439-2.235.12-.218 1.056-.159.92.086Zm24.61-.633.03 1.349c.006.454.001 1.023-.03 1.742l-.035.636c-.046.666-.106 1.078-.133 1.329l-.442.026c.075-.474.088-1.327.147-1.916l.042-.317c.12-.668-.008-2.799 0-2.998.009-.2.425-.36.422.15Zm-8.592-.829-.068.062c-.469.358-1.234 2.193-1.255 3.616-.013.918.047 1.697.159 2.182l-.471-.018-.064-.927a23.932 23.932 0 0 1-.049-1.11c0-.512.279-3.005.425-3.327.137-.3 1.52-.715 1.323-.478Zm-12.79 1.934.107.116c.06.072.11.167.067.281-.07.19-.44 1.87-.438 2.508 0 .308.046.654.112.94l-.336.012-.09-.648c-.071-.585-.12-1.246-.01-1.705l.116-.43c.19-.627.424-1.132.472-1.074Zm.824.166h.468l.12.806c.065.496.105.913.118 1.248.015.375-.004.89-.057 1.543l-.456.024a6.117 6.117 0 0 0 .15-1.567 9.86 9.86 0 0 0-.343-2.054Zm5.63-.968.076.372c.12.652.334 1.95.32 2.416l-.01.573c-.001.316 0 .713.004 1.19l-.464-.01c.084-.58.123-1.461.074-1.869l-.059-.427c-.113-.753-.326-1.913-.458-2.116-.162-.248.468-.299.517-.13Zm-1.895.59c-.166.258-.343 2.043-.389 2.564-.027.307.01.896.075 1.344l-.365-.003c-.121-.522-.23-1.262-.164-1.823l.094-.744c.094-.668.216-1.29.36-1.338l.226-.086c.153-.058.274-.086.163.086Zm-31.94.378c-.034.186-.43.329-.625.63-.196.302-.51 1.412-.557 1.867-.024.238.013.647.092 1.017l-.474-.071a3.129 3.129 0 0 1-.078-.828c.032-.806.338-1.887.633-2.181.295-.294 1.042-.62 1.008-.434Zm52.644.955c.104.008-.015.983 0 1.542.008.335.035.67.107.9l-.6.092.048-.478c.055-.608.101-1.333.109-1.514.013-.303.232-.55.336-.542Zm-56.535-1.522c-.302.468-.503.907-.605 1.316-.12.485-.155 1.494-.154 2.097l-.421-.1.011-.73c.007-.194.021-.401.051-.607.105-.721.29-1.452.513-1.787.15-.223.35-.286.605-.189Zm-2.616-1.274c.356.051-.191.374-.546.68-.355.306-.79.942-.852 1.563-.047.468-.068 1.1.001 1.575l-.412-.13c-.034-.197-.079-.427-.091-.643-.033-.57.164-1.687.502-2.043.337-.356 1.042-1.054 1.398-1.002Zm-3.117 2.875c.457.194.788.439.908.686l-.405-.132c-.178-.25-.59-.072-.896-.162l-.11-.04.084-.174c.084-.146.209-.267.419-.178Zm.36-3.37c-.504.517-.813 1.055-.926 1.612-.158.777-.23 1.541-.125 2.026a2.836 2.836 0 0 1-.323-.222 4.774 4.774 0 0 1 .09-1.647c.147-.6.378-1.19.695-1.769h.588Zm-1.902-.577c-.573.754-.928 1.445-1.064 2.074-.108.502-.182.984-.221 1.446l-.248-.077c-.123-.042-.168-.075-.187-.16-.026-.12.034-.262-.08-.364.09-.17.176-.39.275-.663l.217-.614c.336-.947.723-1.751.932-1.832.14-.054.264.01.376.19Z"/>
    <path fill="#9B9B9B" d="M11.276 58.433c.163.036.837 1.17 1.235 1.931l.185.37c.2.426.958 1.75 1.55 2.52 1.058 1.682 3.929 3.193 5.556 3.834 1.157.456 3.619 1.119 7.386 1.989l-.523-.053c-1.15-.144-2.927-.522-5.33-1.135-4.204-1.071-6.217-3.016-7.276-4.169-1.058-1.153-2.1-3.389-2.638-4.262-.241-.39-.534-.605-.879-.643.3-.464.634-.404.734-.382Z"/>
    <path fill="#111113" d="M19.262 63.481c2.189-.18 4.704-.231 8.216.429 5.017.942 7.154 2.051 10.204 2.058 3.05.007 6.75-4.524 10.318-4.493 3.567.032 7.176 2.832 9.889 2.74 2.713-.09 7.91-4.49 10.92-5.156 3.01-.664 5.976.707 9.186 1.904l1.455.527c1.898.662 2.973.912 3.983.962l.464.009c1.396-.01 1.923.767 1.691 1.571l-.2.707c-.161.596-.294 1.187-.28 1.612.018.596.896 2.015.896 2.649 0 .222-.101.474-.35.739-.663.117-1.12.459-1.439.34l-.581-.245c-1.246-.545-3.989-1.759-7.53-2.584-4.288-1-7.527-.513-13.103.836-5.577 1.35-8.593.69-11.598.378-2.732-.284-6.243-.037-9.005.281l-1.62.197c-3.092.362-8.578.83-13.436.11-5.321-.79-8.938-2.435-9.952-3.048-.508-.306-1.153-.76-1.938-1.36l-.862-.991c.203.197 1.049.166 1.736.11l2.936-.282Z"/>
    <path fill="#201F24" d="m16.326 63.763 2.936-.282c2.189-.18 4.704-.231 8.216.429 5.017.942 7.154 2.051 10.204 2.058 3.05.007 6.75-4.524 10.318-4.493 3.567.032 7.176 2.832 9.889 2.74 2.713-.09 7.91-4.49 10.92-5.156 3.01-.664 5.976.707 9.186 1.904l1.455.527c1.898.662 2.973.912 3.983.962l.464.009c1.396-.01 1.923.767 1.691 1.571l-.2.707c-.161.596-.294 1.187-.28 1.612.018.596.896 2.015.896 2.649 0 .222-.101.474-.35.739-.663.117-1.152.117-1.47-.001l-.582-.246c-1.246-.545-3.989-1.759-7.53-2.584-4.288-1-7.527-.513-13.103.836-5.577 1.35-8.593.69-11.598.378-2.732-.284-6.243-.037-9.005.282l-1.62.196c-3.092.362-8.578.831-13.436.11-5.321-.79-8.938-2.435-9.952-3.048-.508-.306-1.153-.76-1.938-1.36l-.83-.65c.203.198 1.049.167 1.736.111Z"/>
    <path fill="#343437" d="m75.28 61.908.69.152c3.02.697 6.215 1.738 5.448 2.206-.825.504-.866 1.752-.001 2.734.864.981 2.334 1.828 2.81 2.01.408.157 1.173.215 1.765-.11l.012.1c0 .222-.101.474-.35.739-.663.117-1.152.117-1.47-.001l-.582-.246-1.12-.482c-1.461-.613-3.702-1.471-6.41-2.102-4.288-1-7.527-.513-13.103.836-5.577 1.35-8.593.69-11.598.378-2.732-.284-6.243-.037-9.005.282l-1.62.196-1.053.116c-3.187.331-8.036.64-12.383-.006-4.641-.689-7.986-2.028-9.438-2.766-1.049-.925-.863-1.4.558-1.427 2.453-.045 7.367.345 10.9 1.184l1.948.453c3.21.723 6.829 1.392 8.178.846 1.633-.662 5.387-3.08 8.21-3.153 2.822-.073 7.994 1.561 9.858 1.78 1.865.218 5.33-1.783 9.294-3.044 3.964-1.261 5.269-1.342 8.461-.675Z"/>
    <path fill="#5F5E62" d="M48 61.475c3.064.027 6.158 2.096 8.69 2.622a9.634 9.634 0 0 1-1.199-.252l-.845-.245c-2.136-.64-5.295-1.669-6.791-1.46-1.71.24-3.42 1.013-5.279 2.04l-.506.296c-1.688 1.033-3.444 2.44-6.723 1.72-3.607-.79-6.406-1.745-9.528-2.204l-1.92-.293c-.659-.105-1.338-.216-2.036-.333 1.585-.006 3.402.128 5.615.544 5.017.942 7.154 2.051 10.204 2.058 3.05.007 6.75-4.524 10.318-4.493Zm27.257-1.543.691.253c-2.027-.373-5.092-.76-6.532-.518-1.913.32-3.862 1.444-6.761 3.06-1.56.87-2.922 1.29-4.167 1.406 2.821-.598 7.519-4.455 10.32-5.074 2.138-.472 4.253.083 6.45.873Z"/>
    <path fill="#878587" d="M63.022 34.605c-1.335-.015-2.224.09-2.394.41-.17.318.787.05 2.418.08 1.63.031 4.651.525 5.776.747 1.124.22 1.586-.059-.228-.479-1.815-.42-4.237-.743-5.572-.758Z"/>
    <path fill="#3C3C3C" d="M59.792 35.31c.616.361.812.732.587 1.112-.336.57-1.052.393-1.225.317-.173-.075-.772-.811-1.204-1.15-.431-.339-1.01-.547-1.564-.657-.553-.11-.498.155-.878-.157s-.213-1.04.09-1.08c.302-.038.331.11.685.3.353.19 1.007.219 1.667.368.66.15 1.862 1.281 1.932 1.4.29.27.26.118-.09-.454Z"/>
  </g>
</svg>
