<svg xmlns="http://www.w3.org/2000/svg" viewBox="0 0 96 96">
  <defs>
    <path id="a" d="M0 0h96v96H0z"/>
  </defs>
  <g fill="none" fill-rule="evenodd">
    <path fill="#B0B0B0" d="M73.047 18.133c1.432-.746 2.737 1.76 2.737 2.591 0 .832-1.83 3.49-2.389 4.297-.559.808 1.653 9.78 1.653 10.797 0 .678.6 2.673 1.8 5.983.8 3.791.8 5.826 0 6.104-1.2.417-4.419 4.453-5.463 3.989-.695-.31-7.296-2.676-19.8-7.1.483-.665.918-1.825 1.303-3.48.579-2.48 0-10.664 0-11.967 0-1.304-.294-2.417 1.566-2.417s4.382.514 6.313.514c1.932 0 10.141-2.437 11.662-2.931-1.827-3.081-.815-5.635.618-6.38Zm.664 1.255c-.36-.117-.62 1.354-.778 4.413.87-1.712 1.386-2.738 1.546-3.079.24-.51-.229-1.159-.768-1.334Z"/>
    <path fill="#9C9C9C" d="M66.62 26.198c-.515 1.77-.545 5.472-.277 10.109.344 5.946-.239 10.104-4.88 9.65-4.641-.455-4.733-15.55-4.902-16.907-.094-.753-.648-1.457-1.66-2.11l-.447-.01c1.86 0 4.382.514 6.313.514.942 0 3.378-.58 5.803-1.231Z"/>
    <path fill="#9D9B9B" d="M75.048 35.818c0 .678.6 2.673 1.8 5.983.8 3.791.8 5.826 0 6.104-1.2.417-4.419 4.453-5.463 3.989-.695-.31-7.296-2.676-19.8-7.1.483-.665.918-1.825 1.303-3.48.446-1.911.205-7.209.07-10.135 1.701 3.894 2.947 6.618 3.736 8.171 1.364 2.683 6.57 5.134 9.008 5.077 2.437-.057 4.803-2.767 5.942-5.25.661-1.441 1.49-4.187 2.486-8.237.45 2.263.918 4.41.918 4.878Z"/>
    <path fill="#C0BDB9" d="M57.093 27.13c1.041.12 2.111.255 3.077.3.6 9.535 1.108 14.958 1.525 16.269.306.962 1.073 2.796 2.3 5.5a4798.6 4798.6 0 0 0-3.674-1.308l-1.447-3.564-7.173.297c.293-.46.567-1.106.823-1.941 1.27-.166 3.26-.435 5.973-.809Z"/>
    <path fill="#EDEBD4" d="m76.848 46.65-10.83 4.64c-3.244-.118-5.364-.696-6.36-1.734-1.493-1.556-4.125-7.163-4.125-7.885 0-.722-.592-4.068-1.519-4.819-.927-.75-2.484-1.383-2.484-1.383v4.502c0 .7-3.297 6.93-4.026 7.48-.73.549-7.648 3.433-9.81 4.443-2.16 1.01-6.67 1.954-7.392 2.283-.721.33-5.813 1.695-7.133 1.695-1.32 0-6.12.326-4.528 2.4 1.06 1.384 2.257 2.524 3.589 3.42l44.42-2.58 11.795-9.024-1.597-3.439Z"/>
    <path fill="#BEBB95" d="m51.53 37.738.847.426.838 1.865-1.401 2.847.563 1.148 4.942 1.833c.783 1.51 1.674 3.006 2.34 3.7.995 1.037 3.115 1.615 6.359 1.733l1.776-.762 3.314 2.976c-2.978 1.842-5.187 2.743-6.628 2.704l-.163-.009c-2.154-.174-4.969-1.323-7.648-3.253-1.127-.813-2.714-2.34-6.295-4.205-.545-.284-1.55-.683-3.014-1.197.062-.037.11-.068.144-.094.729-.55 4.026-6.78 4.026-7.48v-2.232Z"/>
    <path fill="#C4BFA6" d="M50.241 42.876v-1.561c.476-1.058.635-1.806.476-2.245-.238-.66-1.223-4.219-1.223-5.644 0-1.426.708-2.768 1.223-2.768.515 0 3.577-.466 2.847 5.652a41.473 41.473 0 0 1-1.583-.84c.029-2.502-.103-3.468-.396-2.899-.44.855-.206 5.082.396 6.499.402.944.402 1.692 0 2.245l-1.74 1.56Z"/>
    <path fill="#8D8C95" d="m79.743 48.9-3.144-8.1c-2.29 2.504-3.251 6.367-2.882 11.588l4.857-.09 1.169-3.398Z"/>
    <path fill="#DBD6CE" d="m79.743 48.9-2.83-7.585c-2.29 2.504-3.251 6.367-2.882 11.589l4.543-.606 1.169-3.398Z"/>
    <path fill="#4A3216" d="M74.584 61.148c-8.642-3.764-13.796-5.796-15.463-6.096-2.5-.449-16.173-3.158-17.283-3.158-1.11 0-9.873 4.217-10.986 4.627-.814 1.011-7.404 3.843-13.164 1.359-1.159-.21 0 1.924 3.478 6.403l26.338.369 21.26-.866 5.82-2.638Z"/>
    <path fill="#EDEBD4" d="M30.393 59.798c-.538-.133-2.108.379-2.518.377-.41-.001-.637.59-.617.809.02.22 1.032.59 1.999.429.967-.162 1.253-.26 1.383-.475.13-.215.29-1.008-.247-1.14Z"/>
    <path fill="#776248" d="M41.838 51.894c1.11 0 14.782 2.709 17.283 3.158.727.131 2.118.591 4.172 1.381l-2.526 1.447-18.045-2.828L31.688 59.5l-3.664.778-8.58.66-2.163-2.929c.054-.125.19-.169.407-.13 5.76 2.485 12.35-.347 13.164-1.358 1.113-.41 9.876-4.627 10.986-4.627Z"/>
    <path fill="#968E9E" d="M59.556 57.427c-.253-.22.653-.772 2.719-1.658 2.066-.887 7.717-3.49 16.953-7.81l-5.593 13.734-14.079-4.266Z"/>
    <path fill="#EFEAE4" d="M59.7 57.88c-.254-.22.652-.773 2.718-1.659s7.717-3.49 16.953-7.81l-5.736 13.282L59.7 57.88Z"/>
    <path fill="#D0C4B6" d="m71.8 51.941 2.047.694 3.018 1.578-2.298 5.322a101.83 101.83 0 0 0-2.437-.81l-.152-.048c-1.078-.332-4.1-1.252-9.066-2.757l.117.035c1.618-.712 4.542-2.05 8.772-4.014Z"/>
    <path fill="#9F9AA4" d="M47.515 61.558c.485 0 11.488-4.1 12.317-4.1.552 0 5.33 1.226 14.33 3.678-1.482 2.913-3.799 4.37-6.95 4.37-4.726 0-20.182-3.948-19.697-3.948Z"/>
    <path fill="#E8E3DD" d="M47.515 61.558c.485 0 11.356-3.678 12.185-3.678.552 0 5.33 1.226 14.331 3.678-1.395 2.632-3.668 3.948-6.819 3.948-4.726 0-20.182-3.948-19.697-3.948Z"/>
    <path fill="#9F9AA4" fill-rule="nonzero" d="m58.996 59.008-4.451 1.41a1.3 1.3 0 0 0-.468 2.214l.563.496c3.592 2.398 6.558 3.663 8.943 3.811 2.277.142 5.25-.995 8.937-3.398l1.157-.774-13.36-3.78a2.3 2.3 0 0 0-1.321.02Zm1.157.556 12.109 3.426-.653.422c-3.316 2.08-5.984 3.053-7.99 2.928-2.259-.14-5.135-1.367-8.614-3.686l-.53-.472a.7.7 0 0 1 .25-1.192l4.452-1.41a1.7 1.7 0 0 1 .976-.016Z"/>
    <path fill="#9E835C" d="m85.513 64.355 1.87 1.653S85.56 72 75.745 72c-.793-1.067-1.256-1.751-1.389-2.052H71.19L70.269 72h-8.376l-2.438-2.281-.81-.605h-11.03L46.113 72H37.85l-.638-1.345L36.497 72h-7.78l-.944-2.281h-1.038l-1.318 1.616c-4.623-.628-9.525-2.822-14.706-6.582.397-.354.694-.677.894-.967 6.475 3.562 13.548 5.137 21.219 4.725 11.507-.618 21.782-1.303 22.13-1.303.23 0 7.384.116 21.46.346 2.555-.203 4.376-.495 5.462-.877 1.087-.382 2.299-1.156 3.637-2.322Z" opacity=".942"/>
    <path fill="#C9BDAA" d="M78.903 48s.787-.366 1.225.34c.439.706 2.913 6.546 2.913 6.546l1.072.315 3.27 7.679c-2.3 3.638-4.883 5.833-7.75 6.585-4.3 1.126-19.343.816-19.343.816l-.835-.562h-.79l-.46-.254h-.868l-.126.254h-1.038l-.28-.254h-.942l-.193.254h-1.174l-.171-.254-.788.093-.39.16h-1.222l-.12-.16h-.785l-.287.267h-1.04l-.27-.106h-.594l-.34.353c-4.397.14-7.887.209-10.472.209-3.877 0-16.088-.449-25.244-6.3-.199-.05-.46-5.361 0-5.84.46-.478 2.668-2.255 4.21-2.597 1.54-.343 7.302-.32 7.759 0 .457.32-3.897.992-3.897 1.536 0 .545.8 5.8 2.062 5.8 1.262 0 6.9-.364 8.736-.364.614-.006 1.02-.37 1.22-1.094-1.302-1.71-1.302-2.803 0-3.28 1.954-.716 7.616-2.598 8.271-2.598.655 0 2.035 4.259 2.672 5.069.636.81 3.75.414 4.683.414.934 0 3.31-.699 4.658.395 1.35 1.094 13.928 4.025 17.268 2.56 3.339-1.466 6.261-8.224 7.83-11.71 1.57-3.484 1.57-4.272 1.57-4.272Z"/>
    <path fill="#DCD1C1" d="M80.128 48.34c.439.706 2.913 6.546 2.913 6.546l.226.067c-2.094 4.544-3.872 7.488-5.333 8.833-2.506 2.305-13.142 1.896-21.373.746-8.231-1.15-5.892.808-15.863 1.95-9.972 1.142-19.514-1.037-21.224-1.558-1.32-.402-5.224-4.457-7.4-6.987.725-.648 2.625-2.088 3.996-2.393 1.541-.343 7.303-.32 7.76 0 .457.32-3.897.992-3.897 1.536 0 .545.8 5.8 2.062 5.8 1.262 0 6.9-.364 8.736-.364.614-.006 1.02-.37 1.22-1.094-1.302-1.71-1.302-2.803 0-3.28 1.954-.716 7.616-2.598 8.271-2.598.655 0 2.035 4.259 2.672 5.069.636.81 3.75.414 4.683.414.934 0 3.31-.699 4.658.395 1.35 1.094 13.928 4.025 17.268 2.56 3.339-1.466 6.261-8.224 7.83-11.71 1.57-3.484 1.57-4.272 1.57-4.272s.787-.366 1.225.34Z"/>
    <path fill="#E2DACD" d="M23.83 55.544c.457.32-3.897.992-3.897 1.536 0 .545.8 5.8 2.062 5.8l.502-.01c1.85-.06 6.582-.354 8.234-.354.614-.006 1.02-.37 1.22-1.094-1.302-1.71-1.302-2.803 0-3.28l1.927-.675c2.456-.836 5.847-1.923 6.344-1.923.655 0 2.035 4.259 2.672 5.069.596.759 3.37.459 4.484.419l.2-.005c.777 0 2.555-.485 3.907-.015l-1.86.337c-17.915 3.169-25.022 2.136-27.869 1.557-1.79-.363-4.904-1.89-9.345-4.581l-.337-.387c.722-.646 2.624-2.089 3.996-2.394 1.541-.343 7.303-.32 7.76 0Z"/>
    <path fill="#D2C7B6" d="m12.074 57.938.009-.008-.182-.144c2.07 1.713 5.234 3.275 9.49 4.686.131.177.267.304.41.366-1.846-.122-5.753-1.808-8.271-3.264l-.765-.848a63.514 63.514 0 0 1-.69-.788Z"/>
    <path fill="#BEB3A1" d="m78 60.703-4.065-1.424 2.426-4.316 3.36 2.002z"/>
    <path fill="#BEB3A0" d="m11.757 58.37.757.822.94.988c3.059 3.16 5.337 4.971 6.814 5.429 3.938 1.22 9.63 1.945 17.854 1.827 6.255-.09 10.59-1.91 13.03-5.449l.263-.4.34.212c-2.466 3.932-7.016 5.941-13.628 6.036-8.263.12-13.997-.612-17.978-1.844-1.632-.506-4.103-2.505-7.437-6.007l-1.04-1.115c.022-.202.05-.372.085-.5Zm75.575 4.51c.255.018.246.269-.03.752-9.047 4.687-18.323 1.593-18.95 1.02 6.21 2.127 12.536 1.537 18.98-1.772Z"/>
    <path fill="#F5EEE2" d="m79.779 48.002-.002.117a7.26 7.26 0 0 1-.49 2.333c-.635 1.653-4.64 10.291-6.177 11.832-1.537 1.541-3.09 3.782-10.041 2.368-6.952-1.414-11.47-3.5-12.538-3.343-1.068.157-7.382.571-7.977.055-.595-.517-1.992-5.324-2.473-5.259-.48.065-8.428 2.605-8.393 3.008.036.402.9 2.05.694 2.543-.137.33-.644.633-1.522.91-6.016.3-9.113.403-9.29.31-.266-.141-2.218-5.05-2.447-5.939-.143-.556-2.049-.569-5.718-.038.834-.583 1.844-1.173 2.665-1.355 1.541-.343 7.303-.32 7.76 0 .457.32-3.897.992-3.897 1.536 0 .545.8 5.8 2.062 5.8 1.262 0 6.9-.364 8.736-.364.614-.006 1.02-.37 1.22-1.094-1.302-1.71-1.302-2.803 0-3.28 1.954-.716 7.616-2.598 8.271-2.598.655 0 2.035 4.259 2.672 5.069.636.81 3.75.414 4.683.414.934 0 3.31-.699 4.658.395 1.35 1.094 13.928 4.025 17.268 2.56 3.339-1.466 6.261-8.224 7.83-11.71 1.57-3.484 1.57-4.272 1.57-4.272s.462-.215.876.002Zm3.262 6.884.972.285c-.559.627-1.229 1.09-1.885 1.451.255-.55.503-1.26.744-2.13l.169.394Z"/>
    <path fill="#E4D7C3" d="M77.022 55.423A88.232 88.232 0 0 1 74.87 59.6l-1.008-.344c.812-1.354 1.549-2.816 2.185-4.164l.974.332Z"/>
    <path fill="#EDE4D5" d="m80.136 56.287-.393-.807-2.294-2.576c-11.887-5.241-19.236-8.427-22.047-9.557-4.216-1.696-5.49-2.032-5.49-2.032h-.418l-2.428 5.334c4.888 1.723 8.208 2.975 9.962 3.755 2.63 1.17 16.904 7.03 18.11 7.869a25.69 25.69 0 0 0 2.31 1.444l.566.938 2.122-4.368Z"/>
    <path fill="#B59C7E" d="m79.61 55.329.133.15.393.808-2.122 4.368-.54-.896 2.135-4.43Z"/>
    <path fill="#C9BA9E" d="m78.367 53.936 1.244 1.395-2.107 4.479-.055-.093a24.235 24.235 0 0 1-1.714-1.04l2.632-4.741Z"/>
    <path fill="#DFD3BE" d="m76 52.265 1.449.639 1.001 1.125-2.584 4.735a28.825 28.825 0 0 1-.249-.165l-.479-.326c-.264-.184-1.155-.609-2.413-1.172Z"/>
    <path fill="#E5DCC7" d="M65.218 47.538c2.992 1.303 6.588 2.88 10.787 4.73l-3.194 4.871c-.957-.43-2.136-.942-3.418-1.493Z"/>
    <path fill="#E5DEC6" d="M49.915 41.316c.04.01.624.17 2.194.752l4.449 8.132c-1.847-.788-5.01-1.971-9.492-3.55l2.428-5.335Z"/>
    <path fill="#F5F5E6" d="m39.687 58.273-1.077-2.091-.822-3.278v-1.43h-.707l-4.881 1.43-.512.76v1.21l1.032 3.862 1.059 1.539z"/>
    <path fill="#BAA67E" d="m38.516 55.81.094.372 1.077 2.09-5.908 2.003-1.06-1.539-.125-.47 5.922-2.457Z"/>
    <path fill="#D9D0B8" d="m37.86 53.19.687 2.745-5.952 2.335-.765-2.868 6.03-2.212Z"/>
    <path fill="#897874" fill-rule="nonzero" d="M41.054 61.134a.3.3 0 0 1-.094.338l-.083.047-5.631 2.092a.3.3 0 0 1-.293-.515l.084-.047 5.631-2.092a.3.3 0 0 1 .386.177Zm41.571-3.16.094.023a.3.3 0 0 1 .18.3l-.023.094-1.714 4.011a.3.3 0 0 1-.575-.143l.023-.093 1.715-4.011a.3.3 0 0 1 .3-.181Zm-42.263 1.035a.3.3 0 0 1-.093.338l-.084.047-5.758 2.125a.3.3 0 0 1-.291-.515l.084-.047 5.757-2.126a.3.3 0 0 1 .385.178Zm40.955-2.776.093.026a.3.3 0 0 1 .172.306l-.026.093-1.913 4.123a.3.3 0 0 1-.57-.16l.026-.092 1.912-4.124a.3.3 0 0 1 .306-.172Z"/>
    <path fill="#A69894" fill-rule="nonzero" d="M57.014 62.926c.1.023.181.106.241.251-2.646 3.41-5.731 5.374-9.255 5.89-.189.556-.33.891-.423 1.005l-.524.104.45-1.442c4.09-.786 7.26-2.722 9.51-5.808Zm1.329.608.729.181c.447 2.608.37 4.225-.017 5.73l-.13.248c-.149.02-.256.022-.324.008a.465.465 0 0 1-.18-.117c.423-1.314.415-3.148.048-5.583l-.126-.467Z"/>
    <path fill="#262327" d="M62.385 31.741c-.013 1.17.19 1.78.611 1.833.42.053 3.125-1.362 8.112-4.245-4.417 3.816-7.066 5.863-7.948 6.14-1.322.417-1.926-.877-1.805-1.498.081-.414.424-1.157 1.03-2.23Z"/>
    <path fill="#CFCFCF" d="M44.532 54.218c1.047.282 11.051 1.715 10.446 2.198-.605.483-8.381-.884-10.53-1.178-2.15-.293-.962-1.302.084-1.02ZM28.656 59.295c-1.704.085-7.015 1.024-6.304 1.14.71.118 5.2-.292 5.762-.389.563-.096 2.246-.837.542-.751Z"/>
  </g>
</svg>
