<svg xmlns="http://www.w3.org/2000/svg" viewBox="0 0 96 96">
  <defs>
    <path id="a" d="M0 0h96v96H0z"/>
  </defs>
  <g fill="none" fill-rule="evenodd">
    <path fill="#F3F5F7" d="M24.83 52.53s.914-.854 1.146-.854c.156 0 .294-.18.415-.54h.758s.814-.887 1.125-.887c.208 0 .451.057.73.17.619-.567 1.045-.851 1.277-.851.35 0 1.607-.41 1.607-.41h.537l1.616-.615a3.903 3.903 0 0 1 1.915-1.2c1.143-.322 2.095-.346 2.827-.334a16 16 0 0 0 1.303-.611c.772-.733 1.523-1.197 2.253-1.393.73-.196 1.592-.196 2.586 0a11.812 11.812 0 0 1 2.567-1.85c.986-.536 1.87-.703 2.653-.504.397-.681.717-1.119.961-1.312.245-.194.826-.703 1.745-1.527h-.357l.952-1.406h.402v-1.2c0-.49 1.002-1.614 1.002-1.614h.669s1.101-2.254 1.355-2.835c.254-.58.829-2.31.829-3.251 0-.628.118-1.135.355-1.522.527-.723.866-1.197 1.017-1.422.227-.337.912-1.054 1.339-1.054.427 0 2.094.196 3.813 3.998 1.146 2.535 1.804 4.911 1.976 7.13 3.717 1.738 5.84 2.703 6.369 2.892.793.284 3.612 1.592 3.86 1.592.248 0 2.527-2.255 2.906-2.255s1.108 1.134 1.108 1.319c0 .185-.26.21 0 .502.258.292.525.695.496 1.384.567-.087.824.082.87.203.047.12-.058.63.111.794.17.165.736 1.893.56 3.094-.177 1.201-.328 1.171 0 1.616.326.446.81 1.047.882 1.791.292.449 1.22 2.667 1.455 3.38.235.713.638 4.423.575 5.538-.064 1.116-.697 2.326-1.575 3.13-.878.805-4.334.681-6.782.3-2.448-.383-10.596-.354-14.088.756-3.492 1.11-14.008 2.855-19.75 3.387-5.74.531-22.335-1.16-25.125-1.53-1.86-.247-3.798-.866-5.814-1.857l-1.599-2.88c.259-1.417.582-2.378.972-2.882.584-.756 2.082-1.85 3.676-2.193 1.594-.343 4.955-1.094 5.882-1.346.928-.251 3.637-.841 3.637-.841Z"/>
    <path fill="#E7E9EB" d="M14.78 57.448c.953 1.104 6.574 2.438 11.429 2.705l6.837.39 5.12 1.872c-6.313 1.02-11.886.934-16.72-.26-7.051-1.741-10.402-1.63-10.354-4.122.164-.495.345-.867.542-1.123.533-.69 1.828-1.662 3.262-2.087-.626 1.117-.665 1.991-.116 2.625Z"/>
    <path fill="#D6D9E1" d="M13.17 58.428c.767 1.335 7.133 2.572 10.777 3.006l.378.044c2.355.263 6.923.524 13.707.783 4.981 1.633 10.703 1.321 17.165-.935l5.436-1.998c6.827-2.491 9.745-3.361 11.808-3.202 2.321.18 6.172 1.153 8.047 1.862l.828.336c1.497.602 2.78.906 3.59-.876.148-.326.282-.657.402-.992l.07 1.023c.022.417.03.77.017 1.007-.064 1.116-.697 2.326-1.575 3.13-.785.72-3.635.697-5.98.41l-.802-.11c-2.448-.383-10.596-.354-14.088.756-3.492 1.11-14.008 2.855-19.75 3.387-5.74.531-22.335-1.16-25.125-1.53-1.86-.247-3.798-.866-5.814-1.857l-1.599-2.88c.259-1.417.582-2.378.972-2.882.296-.383.827-.853 1.485-1.268-.66 1.163-.376 2.04.052 2.786Z"/>
    <path fill="#D2D5DB" d="M69.35 56.466c-2.914 2.06-6.698 5.323-9.073 6.36-.917.401-2.013.811-3.224 1.195-3.745.71-8.29 1.412-11.836 1.825-4.251-.068-5.925-.507-8.466-1.193l-.555-.155c-1.71-.488-4.6-1.404-8.665-2.749l2.237.137c2.24.125 4.994.25 8.264.375 4.981 1.633 10.703 1.321 17.165-.935l5.436-1.998 2.048-.74c2.776-.991 4.793-1.653 6.348-2.041l.32-.081Zm15.958-.01.07 1.023.021.542c.004.163.003.306-.002.423-.919 1.606-1.721 2.345-2.41 2.219-1.052-.194-2.367-1.708-3.395-2.986l.621.21.275.1.828.337.465.178c1.297.465 2.4.54 3.125-1.054.148-.326.282-.657.402-.992Z"/>
    <path fill="#B0B0B0" d="M25.582 55.071c-.068-.38 1.081-1.338 2.9-2.241s9.857-3.378 13.51-4.83c3.654-1.452 10.892-5.527 12.875-7.233 1.983-1.706 3.46-5.385 4.79-4.286 1.33 1.1 3.671 4.626 4.96 6.652 1.288 2.025 3.306 5.138 5.112 4.867 1.807-.271 6.256-4.653 7.275-4.867 1.02-.215 4.333 3.867 5.04 4.867.706 1 2.185 4.178 2.336 5.624.15 1.446-.531 3.862-.85 4.07-.318.207-9.002-3.52-10.62-3.559-1.616-.04-11.02 4.137-17.135 6.159-6.115 2.022-11.831 2.833-16.54 1.388-4.71-1.446-13.585-6.231-13.653-6.61Z"/>
    <path fill="#959595" d="M82.044 48c.706 1 2.185 4.178 2.336 5.624.15 1.446-.531 3.862-.85 4.07-.318.207-9.002-3.52-10.62-3.559a2.722 2.722 0 0 0-.614.086c.024-.683.086-1.336.145-1.91.166-1.633 2.776-3.8 7.83-6.5l.514.596c.573.68 1.04 1.284 1.259 1.593Z"/>
    <path fill="#9C9C9C" d="m60.696 37.565.116.135c.755.915 1.608 2.113 2.378 3.254a25.516 25.516 0 0 1-.46 2.547c-1.312 5.791-7.14 13.75-12.42 18.277-4.041.823-7.802.909-11.076-.096-2.002-.615-4.759-1.834-7.27-3.061 6.165-1.832 11.068-3.88 14.71-6.145 6.73-4.185 10.65-8.073 11.743-11.266 1.035-3.026 1.682-3.795 2.28-3.645Z"/>
    <path fill="#707070" d="M59.657 36.481c1.08.894 2.829 3.39 4.137 5.38l1.388 2.15c1.27 1.933 2.987 4.223 4.547 3.989 1.646-.247 5.482-3.903 6.925-4.716.323-.041.697 0 1.09.103 1.093.706 2.79 2.674 3.735 3.87-.368 1.703-3.685 2.6-5.199 4.417-1.681 2.018 1.773 2.873 2.607 4.06.116.166.166.298.157.399l-2.226-.83c-1.748-.636-3.31-1.153-3.907-1.168-1.617-.04-11.02 4.137-17.136 6.159-4.723 1.562-9.209 2.401-13.176 2.036-1.762-.63 2.254-2.687 4.896-4.665l.25-.192c3.495-2.705 8.862-7.446 11.166-11.298 1.536-2.569 1.458-5.551-.233-8.948.023-.429.112-.736.268-.922.245-.061.48-.014.711.176Z"/>
    <path fill="#969696" fill-rule="nonzero" d="m55.912 39.86.246.06 1.816 2.426 2.299 1.188 1.991 1.06c.408.221.794.433 1.157.635l.946.536.498.298.92.583c1.138.74 2.658 1.782 4.562 3.13l-1.035-1.771c.14.017.28.016.417-.005l.04-.012 1.368 2.35 2.757 1.98 3.168 2.308 2.118 1.56-1.376-.518-1.072-.788-3.769-2.74-1.337-.962 1.758 3.024a3.608 3.608 0 0 0-.34-.057l-.158-.01-2.052-3.522-2.13-1.503-1.373-.95c-1.278-.873-2.268-1.518-2.97-1.935l-1.053-.6-1.028-.568-1.14-.613c-.798-.425-1.67-.88-2.618-1.368l5.898 7.877 6.176 3.78-.467.162-5.121-3.156 2.964 3.953-.39.149-3.502-4.676-6.546-4.034 3.814 6.704 4.016 2.866-.444.174-3.102-2.212 1.593 2.802-.374.146-1.995-3.502-7.822-5.584 2.22 5.814 4.956 4.29-.423.16-4.233-3.662 1.748 4.577-.376.133-2.008-5.262-5.414-4.684 3.9 11.077-.388.11-4.124-11.717-2.948-2.55.262-.303 2.42 2.095-1-2.844.098-.245.642-.323-.34-.243.39-.215.354.254 2.248-1.128.276.107 1.482 3.881 7.61 5.434-3.746-6.586-5.622-3.463.306-.185 4.974 3.046-2.6-4.578.327-.234 2.979 5.244 6.306 3.862-5.785-7.726-3.191-1.612.347-.282a7.87 7.87 0 0 0 .774-.78l.271-.127Zm18.719 4.915 1.483 3.026 7.891 4.34c.066.19.125.376.176.553l-7.763-4.269 4.039 8.245-.548-.208-4.101-8.373-3.18-1.745.349-.265 2.527 1.388-1.192-2.438.319-.254Zm-25.713.676-.672.339 1.176 3.341 5.38 4.656-2.168-5.682-3.716-2.654Zm2.268-1.137-1.864.935 3.054 2.18-1.19-3.115Zm4.748-4.024-1.056.497 2.29 1.15-1.234-1.647Zm1.572-2.716 5.408 2.974.49.725-6.144-3.38.246-.319Z"/>
    <path fill="#E1E3E7" d="M64.227 29.506c1.03 2.28 1.667 4.433 1.91 6.458l.066.672c-.14 1.918-.339 3.53-.598 4.833-.388 1.955-3.91-4.675-5.527-4.833-1.619-.158-2.474 1.22-5.207 3.63-2.734 2.409-13.105 7.953-17.148 9.223l-2.504.8c-3.221 1.045-6.442 2.152-7.507 2.618l-.15.068c-1.095.523-1.992.294-2.59 0-.154-.075-.253-.212-.298-.41l.155-.035.402-.356c.221-.188.483-.394.645-.468l.1-.03c.156 0 .294-.18.415-.54h.758l.222-.23c.264-.263.696-.657.903-.657.208 0 .451.057.73.17.619-.567 1.045-.851 1.277-.851.35 0 1.607-.41 1.607-.41h.537l1.616-.615a3.903 3.903 0 0 1 1.915-1.2c1.143-.322 2.095-.346 2.827-.334a16 16 0 0 0 1.303-.611c.772-.733 1.523-1.197 2.253-1.393.73-.196 1.592-.196 2.586 0a11.812 11.812 0 0 1 2.567-1.85c.986-.536 1.87-.703 2.653-.504.397-.681.717-1.119.961-1.312l.357-.299c.313-.27.775-.678 1.388-1.228h-.357l.952-1.406h.402v-1.2c0-.49 1.002-1.614 1.002-1.614h.669l1.294-2.698.061-.137c.229-.522.717-1.975.812-2.947l.017-.304c0-.628.118-1.135.355-1.522l1.017-1.422c.227-.337.912-1.054 1.339-1.054l.186.012c.612.076 2.1.606 3.627 3.986Z"/>
    <path fill="#A4908F" d="m58.128 27.883.116-.164.097.049c.394.205.778.425 1.139.66.859.556 1.462 1.108 1.706 1.643l.075.2.02.08c.07.323.01.667-.166 1.03-.285.584-.852 1.192-1.678 1.873l-.41.33-2.372 1.774-2.809 2.053.002-.205.006-.05 3.488-2.554 1.335-1.002.435-.34.198-.16c.805-.665 1.356-1.255 1.626-1.807.126-.26.185-.503.173-.731l-.031-.202-.009-.033c-.155-.537-.77-1.13-1.698-1.732a12.999 12.999 0 0 0-.738-.443l-.505-.27Z"/>
    <path fill="#B5B8C0" d="M63.55 28.8c.885.896 2.826 5.816 2.335 8.086-.467 2.16.002 3.314-2.088 3.578l-1.22-1.538c-.923-1.155-1.86-2.228-2.5-2.29-.604-.06-1.102.096-1.631.44-.294-.696-.265-1.362.276-1.84l1.001-.886c1.201-1.088 1.889-1.897 2.329-3.587l.356-1.379c.283-1.012.49-1.243 1.142-.583Z"/>
    <path fill="#A09D9F" d="M58.665 28.666c.344.23 1.9 1.507 1.705 2.206-.195.7-2.9 3.053-3.617 3.637l-.111.084c-.252.17-.596.443-1.035.822l1.206-2.52.061-.138c.229-.522.717-1.975.812-2.947l.017-.304c0-.458.063-.852.189-1.182.355.122.612.235.773.342Z"/>
    <path fill="#936969" d="m57.612 30.314.158.147-.06.605c-.069.719-.091 1.09-.067 1.11.022.02.072-.27.273-.79.049-.126.082-.36.101-.704l.237.212h.333l-.333.735.333.24-1.16 1.375v-.68h-.36l.08-.533c.17-.506.357-1.146.465-1.717Z"/>
    <path fill="#3B1117" d="m60.414 25.508.186.012.171.03c.689.154 2.055.858 3.456 3.956 1.03 2.28 1.667 4.433 1.91 6.458l.066.672-.086 1.052c-.015.17-.03.337-.047.502-1.244-.183-1.828-.507-1.757-.976.128-.836-.152-4.052-1.148-6.244-.996-2.193-2.787-4.01-3.075-4.26-.144-.127-.495-.158-1.052-.094l.037-.053c.227-.338.912-1.055 1.339-1.055Z"/>
    <path fill="#7C343E" d="m60.414 25.508.186.012.171.03c.636.142 1.849.753 3.133 3.282.389 1.663.464 3.196.231 4.603-.024.148-.06.281-.107.399-.189-.975-.47-2-.863-2.864-.996-2.193-2.787-4.01-3.075-4.26-.144-.127-.495-.158-1.052-.094l.037-.053c.227-.338.912-1.055 1.339-1.055Z"/>
    <path fill="#934F4F" d="M63.74 29.977c.982 2.11 1.523 4.525 1.625 7.244a.2.2 0 0 1-.4.015c-.1-2.668-.63-5.03-1.588-7.09-1.179-2.53-2.455-3.71-3.967-3.988.107-.112.228-.227.353-.328 1.527.387 2.817 1.66 3.976 4.147Z"/>
    <path fill="#3B1117" d="M60.394 33.435c.251.031.406.064.463.1.551.338 1.31.865 2.275 1.581.508.307.885.528 1.129.664l.66.336 1.282.52 4.53 2.094c.779.354 1.327.594 1.644.723l.195.075c.793.284 3.612 1.592 3.86 1.592.248 0 2.527-2.255 2.906-2.255s1.108 1.134 1.108 1.319c0 .185-.26.21 0 .502.258.292.525.695.496 1.384l.072-.008-.064.116c-.324.588-.97 1.055-1.455.894l-.665-.228c-.546-.175-1.264-.35-1.95-.262-1.028.133-3.52 4.309-5.177 4.548l-.809.11c-1.476.177-3.108.147-4.268-1.596l-1.105-1.705c-1.881-2.944-4.896-7.77-5.127-8.051-.192-.232-1.6.463-4.227 2.085-.647.38-1.084.855-1.311 1.424-.34.854-2.223 3.642-4.076 4.81-1.799 1.135-13.891 6.155-16.191 6.81l-.64.162c-2.04.537-6.414 1.987-6.455 1.58-.03-.304.862-1.52 1.528-2.357l-.017.017c.618-.567 1.044-.851 1.276-.851.236 0 .886-.186 1.283-.308l.324-.101c-.7.287-1.123.574-1.268.86l-.305.578c-.18.348-.336.699-.274.84.066.15.514-.073 1.342-.668l-.763-.64c.47-.503.823-.774 1.057-.814.35-.058 1.742.883 1.947 1.04.137.106 1.69-.399 4.66-1.514-.641-.68-1.244-1.03-1.81-1.047.516-.991 1.939-1.02 3.313 0 1.874-.175 4.154-.996 4.141-1.216-.012-.22-1.227-1.118-2.224-1.274.105-.083.22-.152.342-.21l.293-.089c.265-.071.547-.116.847-.136.96-.001 2.011.358 2.613.775 1.03-.102.755-1.238 1.019-1.436.176-.133.79-.034 1.841.296.685-.417.937-.659.758-.725-.24-.088-.434-.502-1.13-.618L48 43.133c-.188-.008-.256-.054-.23-.12l-.278.142c.986-.536 1.87-.703 2.653-.504l.106-.177c.178.022.355.057.529.108 1.042-.42 1.74-1.579 2.106-2.251l.663-1.206c.612-1.097 1.587-2.828 1.77-3.068l.193-.26c.154-.193.312-.322.641-.31.307.013.76.093 1.357.24l.39-.684h-.39c-.166-.725-.166-1.082 0-1.072.166.01.535.098 1.107.266.309-.309.585-.518.83-.629.245-.11.56-.168.947-.173Z"/>
    <path fill="#7E4D54" d="M80.446 40.184c0 .127-.123.178-.115.293l-1.33.878 1.001-.806a.961.961 0 0 0 .09-.085c.091-.111-.012-.526-.19-.796l-.094-.121c-.19-.201-.273-.415-.235-.582.386.283.873 1.068.873 1.219Z"/>
    <path fill="#6F4247" d="M60.394 33.435c.251.031.406.064.463.1.551.338 1.31.865 2.275 1.581l1.129.664.66.336 1.282.52 4.53 2.094 1.494.66.872.348c.863.36 2.267.993 2.95 1.26l-.74.847c-.942 1.064-1.702 1.859-2.282 2.386-1.11 1.01-2.177 1.401-2.616 1.455-.438.054-1.102-.22-1.382-.6-.28-.38.756.38 1.44.312.683-.068 1.817-.836 2.632-1.636l.376-.38c.791-.82 1.767-1.946 1.823-2.162.056-.218-.895-.462-2.065-.887l-.553-.21c-.352-.14-.76-.293-1.196-.452l-3.933-1.39c-1.416-.507-2.068-.528-2.033-.227l.146.942c.125.898.21 2.02-.3 1.468-.768-.828-3.195-5.263-3.543-5.856-.243-.412-1.096-.9-1.625-1.167l.196-.006Z"/>
    <path fill="#D1B0B4" d="M79.338 38.865c.08 0 .175.05.276.132a.432.432 0 0 0-.19.017c-.281.088-.801.51-1.559 1.269l-.54.555-.21.21-.547.006c.56-.373 2.43-2.189 2.77-2.189Z"/>
    <path fill="#6B2727" d="M80.409 40.635c.306.804.364 1.317.174 1.54-.284.333-.797.49-1.16.355-.361-.134-1.004-.742-1.25-.966-.246-.223-1.281-.828-1.986-.396-.704.431-1.323 1.693-2.318 2.59-.995.895-2.774 2.364-3.692 2.377-.918.013-2.026-1.022-2.596-1.626-.57-.604-3.13-4.454-3.45-5.012-.32-.557-1.55-2.83-1.82-3.482-.271-.653-.792-1.999-1.075-2.158-.189-.106-.584-.202-1.185-.29C58.3 35.25 57.231 36.06 56.845 36c-.579-.093-.683-.37-.867.016-.185.385-.046.591-.203.957-.104.245-.324.695-.66 1.35a87.353 87.353 0 0 0-1.655 1.53c-.301.296-.21.531-.377.699-.167.167-.652.56-.965.617-.314.056-.355.047-.36.542-.005.495-2.26 2.074-2.556 1.9-.296-.175-.598-.362-1.004-.265-.407.097-1.062.522-1.228.985-.166.463-1.24 1.98-2.045 2.097-.805.116-1.24-.342-1.448-.498-.208-.156-.818-.523-1.01-.395-.192.128-1 .873-1.262 1.221-.174.233-.673.741-1.495 1.525-1.018.318-1.671.379-1.96.184-.435-.293-.484-.779-.827-.81-.342-.033-1.708.907-2.044 1.477-.335.57-2.977 1.868-3.205 1.677-.227-.192-.793-.752-.94-.795a.98.98 0 0 0 .143-.446c-.516.5-.82.97-.913 1.41-.058.421-.12.732-.189.93.313-.505.474-.75.482-.731.012.028.195-.95.274-1.033.14.117.52.44 1.143.97 1.721-.623 2.642-.99 2.762-1.1.18-.165 2.257-2.1 2.357-2.096.1.003.862.859 1.077.89.216.033 2.11-.152 2.547-.527.207-.177.366-.662.633-.968.296-.338.69-.496.702-.653.022-.3.653-.946.715-.928.062.017 1.492.859 1.985.928.493.069 1.857-.622 2.062-1.02.206-.398.612-1.12.846-1.309.235-.189.893-.615.936-.72.236.077.662.22 1.279.427 1.399-1.09 2.247-1.777 2.543-2.062.444-.427 5.378-4.68 6.31-5.51.93-.829 1.823-.95 2.32.243.497 1.193 4.265 7.555 5.039 8.359.774.803 2.778 3.569 4.17 2.85.477-.247 1.72-.49 2.707-1.275 1.887-1.502 3.804-3.82 4.421-3.75.94.107 2.18 1.331 2.709 1.145.529-.185 1.392-1.383 1.39-1.623-.002-.24-.131-1.308-.237-1.482-.07-.116-.25-.215-.538-.297Z"/>
    <path fill="#3C414C" d="M60.139 33.253c.788.157 1.099 1.325 1.722 2.773l.16.375c.662 1.566 2.433 4.65 3.285 5.95l.168.25c.762 1.103 2.672 3.63 3.486 3.886.814.257 1.65.33 3.401-.915 1.75-1.245 3.133-3.185 3.409-3.512.276-.327 1.144-.768 1.717-.306l.619.522.657.565c.136.114.242.196.298.227.18.097 1.007.148 1.497-.373l.248-.322v.023c.566-.086.823.083.87.203.046.12-.058.63.11.794.17.165.736 1.894.56 3.095l-.084.505c-.117.629-.176.725.012 1.009l.377.521c.264.381.525.84.577 1.371.267.41 1.063 2.294 1.378 3.162l.022.501.002.182c.002.58.265 2.83-.164 3.949-.428 1.119-1.825 1.475-4.787.466l-1.273-.28-1.038-.44c-2.593-.838-5.777-1.321-8.537-.532-3.68 1.052-13.629 5.772-20.123 6.214-6.495.443-13.438-.379-18.47-3.278-5.033-2.9-7.535-3.24-8.17-4.475a8.997 8.997 0 0 1-.622-1.57l.585-.15c1.14-.282 2.661-.787 2.661-.787l.018-.018.343.466.833-.575.318-.234c.212-.168 7.042-2.273 8.994-2.93l1.536-.552 2.231-.845c2.256-.87 4.895-1.928 6.31-2.596l.765-.371.847-.427c2.34-1.2 5.214-2.835 5.96-3.569.87-.856 3.08-3.513 3.83-4.597l.138-.207c.565-.903 2.47-3.317 3.324-3.148Zm-1.389 5.333c-.302.278-.854 1.083-1.655 2.415l-2.549 2.386c-.545.504-.933.855-1.164 1.055l-.102.087c-.362.302-1.624.944-3.111 1.673l-3.345 1.63c-2.52 1.243-8.948 3.433-9.878 3.743L31.3 53.301c-.935.291-1.679.532-1.92.635a4.6 4.6 0 0 0-1.697 1.216c.527.289.89.608 1.414.874l1.193.595 3.256 1.696c1.717.88 3.646 1.823 5.006 2.327 2.661.984 7.403 1.19 10.078.765 2.674-.425 9.817-2.972 12.872-4.132l.75-.295.795-.329c3.156-1.329 7.491-3.388 8.426-3.497.954-.11 3.223.787 4.891 1.488l1.513.635 3.921 1.56c.642.247 1.102.419 1.188.438.268.06.86-1.867.764-3.356-.096-1.49-1.28-3.785-2.154-5.152-.873-1.368-3.344-3.832-4.22-3.978-.78-.13-2.657 1.77-3.846 3.078l-.41.457c-1.112 1.258-1.943 1.986-4.238 1.928-2.294-.059-3.545-2.724-4.317-4.093l-.456-.78-.722-1.183c-.784-1.27-1.711-2.744-2.427-3.958-1.144-1.94-1.755-2.07-2.209-1.654Z"/>
    <path fill="#ECEEF2" d="M60.139 33.253c.788.157 1.236.999 1.858 2.447l.16.374c.662 1.566 2.433 4.65 3.286 5.951l.168.25c.762 1.103 2.671 3.63 3.485 3.886.814.256 1.652.33 3.402-.915 1.75-1.245 3.133-3.185 3.408-3.512.276-.327 1.145-.768 1.718-.306l.618.522.658.565c.135.113.242.196.298.226.18.097 1.007.149 1.497-.373l.248-.321-.001.023c.567-.087.824.082.87.203.047.12-.058.63.111.794.17.165.736 1.893.56 3.094l-.085.506c-.116.629-.176.725.012 1.008l.378.522c.264.38.525.84.577 1.371.267.41 1.063 2.293 1.378 3.161l.021.502.003.182c.002.58.355 3.237-.073 4.356-.429 1.119-1.825 1.476-4.788.466l-1.408-.486-1.012-.337c-2.592-.837-5.667-1.218-8.428-.43-3.68 1.053-13.629 5.773-20.123 6.216-6.495.442-13.61-.283-18.643-3.183-5.032-2.9-8.005-3.796-8.64-5.031a8.997 8.997 0 0 1-.622-1.57l.585-.151a160.53 160.53 0 0 1 3.214-.733l.018-.018.343.466.832-.576.319-.234c.211-.168 7.042-2.272 8.994-2.93l1.536-.552 2.231-.845c2.256-.869 4.895-1.927 6.309-2.595l.766-.371.847-.428c2.34-1.2 5.213-2.835 5.96-3.568.87-.856 3.08-3.513 3.83-4.597l.138-.208c.565-.902 2.333-2.99 3.187-2.82Zm-1.525 4.992c-.303.277-.854 1.082-1.655 2.414l-2.549 2.386c-.545.504-.933.856-1.164 1.055l-.102.087c-.362.302-1.624.944-3.112 1.673l-3.344 1.63c-2.52 1.243-8.948 3.433-9.878 3.743l-5.647 1.727c-.935.29-1.679.53-1.921.634-.515.22-1.044.644-1.587 1.275.527.288 1.053.565 1.578.83l1.193.596 3.256 1.695c1.717.88 3.645 1.824 5.006 2.327 2.66.984 7.403 1.19 10.077.765 2.675-.424 9.818-2.971 12.873-4.131l.75-.296.794-.328c3.157-1.33 7.492-3.388 8.427-3.497.954-.111 3.223.787 4.89 1.487l1.514.635 3.92 1.56c.642.248 1.103.42 1.188.439.269.06.86-1.868.764-3.357-.095-1.49-1.28-3.784-2.153-5.152-.873-1.367-3.344-3.831-4.22-3.978-.78-.13-2.657 1.771-3.846 3.079l-.41.457c-1.112 1.258-1.943 1.986-4.238 1.927-2.295-.058-3.546-2.724-4.318-4.093l-.455-.779-.722-1.183c-.784-1.27-1.712-2.745-2.427-3.958-1.144-1.941-2.028-2.086-2.482-1.67Z"/>
    <path fill="#D2D5DC" d="m80.943 42.047-.001.023c.567-.087.824.082.87.203.047.12-.058.63.111.794.17.165.736 1.893.56 3.094l-.085.506-.097.52a.584.584 0 0 0 .11.488l.162.234c-.199.048-.34-.005-.422-.158l-1.97-3.565c-.249-.446-.49-.877-.705-1.256l-.07-.136c.326.038.908-.021 1.289-.426l.248-.321Z"/>
    <path fill="#D8DBDE" d="m30.356 56.496 3.256 1.696 1.167.59c1.379.687 2.78 1.345 3.839 1.737 2.66.984 7.403 1.19 10.077.765 2.675-.425 9.818-2.972 12.873-4.132l.75-.296.794-.328 2.95-1.283c2.447-1.081 4.815-2.137 5.477-2.214.31-.036.761.035 1.285.171-.43.119-.734.23-1.07.42-1.899 1.081 4.115 2.014 7.192 3.826.66.389.668.671.22.89l-.713-.246-1.012-.338c-2.592-.837-5.622-1.56-8.383-.771-3.221.92-11.244 4.652-17.55 5.865l-1.233.137c-3.859.4-7.253.48-8.74-.103-2.19-.86-5.5-2.537-9.79-5.436l-1.39-.95Zm51.751-7.77c.4.448.844.83 1.5 1.304.352.728.89 2.022 1.136 2.7l.021.5.003.183c.002.524.29 2.74.03 3.989-.325.334-.642.552-.885.6-.572.11-.527-.3-.543-1.023.287-.194.791-1.956.703-3.34-.096-1.49-1.28-3.784-2.153-5.152l.188.239Z"/>
    <path fill="#F4F4F4" d="M23.932 55.745c3.432 1.954 11.085 5.131 15.352 6.209 4.566 1.153 11.275.315 17.668-2.08l1.095-.42 1.175-.467 3.486-1.42 1.158-.464c5.126-2.03 6.432-2.204 8.564-2.053l.432.034c1.96.169 3.616.51 5.509 1.275l2.726 1.166.413.17c.83.35 1.707.55 2.272.258.794-.41 1.364-1.356 1.286-3.658.087.645.173 1.426.236 2.155-.119 1.38-.474 2.229-1.104 2.627-.674.426-1.716.35-2.675-.001l-.415-.168c-.432-.187-2.255-.975-3.031-1.289-1.807-.73-3.369-1.046-5.22-1.206l-.37-.028c-1.99-.132-3.267.016-8.365 2.057l-5.052 2.048-1.139.445-.547.208c-6.567 2.461-13.473 3.323-18.264 2.113-4.358-1.1-12.009-4.381-15.534-6.376-1.752-.992-2.525-2.081-2.492-3.484l1.017-.248c.028 1.035.479 1.834 1.819 2.597Z"/>
    <path fill="#DEE1E4" d="M24.015 56.078c3.451 1.953 11.086 5.131 15.352 6.209 4.567 1.153 11.275.315 17.668-2.08l1.095-.42 1.175-.467 3.486-1.42 1.159-.464c5.125-2.03 6.432-2.203 8.563-2.053l.432.034c1.96.169 3.616.51 5.509 1.275l2.726 1.166.413.17c.83.35 1.707.55 2.273.258.793-.41 1.021-1.934.943-4.236.086.645.432 1.671.495 2.4-.119 1.38-.474 2.229-1.104 2.627-.674.426-1.716.35-2.675-.001l-.415-.168c-.432-.187-2.255-.975-3.031-1.289-1.807-.73-3.369-1.046-5.22-1.206l-.37-.028c-1.99-.132-3.267.016-8.365 2.057l-5.052 2.048-1.139.445-.547.208c-6.567 2.461-13.473 3.323-18.264 2.113-4.358-1.1-12.009-4.381-15.534-6.376-1.752-.992-2.525-2.081-2.492-3.484l.747-.189c-.007 1.092.693 2.034 2.172 2.871Z"/>
    <path fill="#CCD1D4" d="M84.826 53.973c.086.645.415 1.748.478 2.477-.119 1.38-.474 2.229-1.104 2.627-.674.426-1.716.35-2.675-.001l-.415-.168-2.795-1.192a33.336 33.336 0 0 0-.236-.097c-1.807-.73-3.369-1.046-5.22-1.206l-.37-.028c-1.99-.132-3.267.016-8.365 2.057l-5.052 2.048-1.413.55-.273.103c-6.567 2.461-13.473 3.323-18.264 2.113-2.138-.54-5.07-1.605-7.917-2.785l2.518.33c.524.065 1.024.127 1.5.184l1.286.445c1.044.35 2.017.644 2.858.857 4.567 1.153 11.275.315 17.668-2.08l1.095-.42 1.175-.467 3.486-1.42 1.159-.464c5.125-2.03 6.432-2.203 8.563-2.053l.432.034c1.96.169 3.616.51 5.509 1.275l2.726 1.166.413.17c.83.35 1.707.55 2.273.258.793-.41 1.038-2.011.96-4.313Z"/>
    <path fill="#A77B55" d="m82.514 45.784-.022.024c-.08.09-.15.133-.21.13-.274-.012-.62-1.242-.687-1.434-.055-.16-.007-.354.124-.42l.088-.024c.094-.005.227-.104.397-.296.17.544.33 1.328.31 2.02Z"/>
    <path fill="#523C3C" d="m82.354 47.59.434.607c.264.38.525.84.577 1.371-.155-.002-.251-.03-.286-.076l-.151-.226c-.24-.38-.65-1.081-.674-1.266-.01-.08.023-.217.1-.41Z"/>
    <path fill="#2D0002" d="M84.906 65.016c.702 1.001.8 1.845.29 2.532-.764 1.03-5.487 2.11-8.93 2.588-3.442.48-26.062.405-27.01.489-.948.083-1.912.331-3.21 0-1.296-.332-1.817-.843-3.653-.842-1.836.002-7.546.418-12.565-.195-5.02-.613-10.914-2.112-12.571-2.547-1.658-.435-3.312-2.208-3.445-2.388.913.241 11.74 2.611 18.025 2.664 6.284.053 13.125-.274 19.42-.795 6.297-.52 27.091-1.583 29.213-1.591a100.57 100.57 0 0 1 4.436.085Z"/>
    <path fill="#774346" d="m17.263 65.394 1.586.306 2.063.506c.478.117.961.233 1.42.336 2.261.508 7.307.98 10.397 1.152l.555.029c1.888.088 6.582-.05 9.881-.166l3.52-.128c.27-.001-4.022.7-8.43.933l-.911.041c-4.706.175-8.271-.133-8.83-.278-.372-.096-.659.084-.859.541.215.011.922-.017 2.12-.085 1.798-.102 4.995.337 7.188.652 2.192.315 5.536.073 6.667-.118 1.13-.192 2.008.108 3.054.118l9.213-.548c.69-.037 1.322-.068 1.854-.09l2.244-.062c4.264-.092 12.913-.228 17.547-.568l.498-.039c5.288-.434 6.347-.988 6.866-1.225.241-.11.411-.344.51-.7.187.581.113 1.098-.22 1.547-.764 1.03-5.487 2.11-8.93 2.588-3.442.48-26.062.405-27.01.489-.948.083-1.912.331-3.21 0-1.296-.332-1.817-.843-3.653-.842l-1.106.025c-2.47.08-7.212.299-11.46-.22l-1.127-.15c-4.742-.68-5.926-1.014-7.897-1.405-1.292-.256-4.974-1.615-5.565-2.065 1.019.404 2.292.84 3.07 1.035l.547.132c1.539.355 4.196.88 4.626.805.487-.086-2.462-.874-3.53-1.125-1.068-.252-2.537-.998-2.799-1.343-.041-.055 0-.079.111-.078Z"/>
    <path fill="#DDDCE7" d="M84.906 62.721c.624 1.161.925 1.813.903 1.956-.033.214-.221.665-.742.735-.52.07-5.636.476-10.517.59-4.88.114-13.538.403-19.56.813-6.021.409-9.806.789-11.126 1.01-1.32.221-9.554.6-15.89-.116-4.224-.477-8.869-1.37-13.935-2.682l-.97-1.517c7.186 1.528 12.048 2.412 14.586 2.651 3.807.359 14.16.24 16.566.078 2.405-.16 9.066-1.263 13.732-1.562 4.666-.299 18.928-1.12 20.954-1.167 1.351-.031 3.35-.294 5.999-.789Z"/>
    <path fill="#C8C8D4" d="m84.906 62.721.438.837c.326.642.481 1.015.465 1.12-.033.213-.221.664-.742.734l-.24.026c-.19-.615-.603-.906-1.242-.875l-7.084.189-2.772.095c-2.828.077-7.85.137-15.07.18l5.059-.7 12.228-.683c1.294-.067 2.29-.113 2.807-.13l.154-.004c1.351-.031 3.35-.294 5.999-.789Z"/>
    <path fill="#C8C9D1" d="M58.172 64.667c-.837.74-1.703 1.226-2.599 1.456-1.387.356-4.213.713-7.252.858l-1.553.058c-3.6.112-10.094.194-12.228-.262-.433-.093-.13-.22.913-.383l3.45-.014c2.383-.025 4.413-.08 5.318-.14 2.405-.162 9.066-1.264 13.732-1.563l.22-.01Z"/>
    <path fill="#9797A3" d="m84.906 62.721.333.631c.295.57.476.961.542 1.171l-.21-.27c-.39-.469-.727-.665-1.011-.59l-.41.087c-.456.077-1.241.153-3.025.242l-5.022.214c-4.069.196-7.833.496-9.824.62l-1.88.12c-3.067.21-8.557.64-11.048.918l-2.106.228c-3.235.343-7.862.797-10.008.872l-3.198.062a86.289 86.289 0 0 1-12.064-.703c-4.884-.622-9.147-1.497-12.787-2.624l-.119-.189 3.271.684c5.154 1.058 8.82 1.703 11 1.936l.315.031c3.807.359 14.16.24 16.566.078 2.204-.147 7.985-1.086 12.527-1.471l1.205-.09c4.2-.27 16.172-.962 20.001-1.132l.953-.036c1.351-.031 3.35-.294 5.999-.789Z"/>
    <path fill="#D2D2DB" d="M85.401 57.45c.01.054.604.27.6.55-.006.28-.081 2.67-.3 3.291-.22.621-.688 1.602-1.12 1.809-.433.207-2.924.63-7.939.901-5.015.272-16.126.982-19.232 1.153-3.105.171-9.492 1.017-11.068 1.217-1.577.2-5.31.444-10.341.444-5.03 0-8.452-.345-14.091-1.27-3.76-.618-6.633-1.268-8.619-1.95l-.78-1.463c4.523 1.14 8.578 1.978 12.163 2.514 5.379.805 16.12.906 19.928.508 3.809-.397 8.753-1.426 13.955-2.921 5.2-1.496 9.546-3.699 12.627-3.389 3.082.31 4.84 1.708 6.86 2.265 2.018.557 5.658 1.225 6.652-.693.994-1.918.695-3.02.705-2.966Z"/>
    <path fill="#EDEDF1" d="M71.184 58.844c2.115.213 3.606.938 4.987 1.552l-1.08-.249c-2.398-.538-3.926-.782-4.586-.735l-.738.06c-1.2.113-2.995.388-5.44 1.38l-.575.243c-3.328 1.446-9.17 2.865-11.078 3.233l-1.353.239c-2.648.437-7.42 1.102-10.297 1.145l-1.781.017c-3.735.015-9.375-.082-13.651-.623-3.248-.411-7.535-1.266-12.86-2.563l-.22-.41c4.522 1.139 8.577 1.977 12.162 2.513 5.379.805 16.12.906 19.928.508 3.809-.397 8.753-1.426 13.955-2.921 5.2-1.496 9.546-3.699 12.627-3.389ZM86 58l-.041 1.04c-.043.817-.123 1.87-.258 2.251-.22.621-.688 1.602-1.12 1.809-.173.082-.673.2-1.53.327.384-.21 1.31-.376 1.635-.687.75-.719 1.282-2.625 1.124-4.071-.061-.56-.144-.932-.248-1.116.176.1.442.259.438.447Z"/>
    <path fill="#C8C9D1" d="m67.59 59.28-1.177.5c-1.301.562-2.363 1.066-3.185 1.511-1.763.955-4.258 2.66-5.708 3.693a2 2 0 0 1-.335.184l-1.077.08c-1.742.145-3.96.399-5.876.632l-3.89.491c-1.199.152-3.644.33-6.958.406l-3.882-.127c-1.18-.052-1.975-.114-1.957-.197.062-.283 9.05-.324 11.116-.522l.355-.038c.67-.083.246-.126-.528-.15l-3.117-.045c-.916-.031-1.906-.122-1.653-.327l1.177-.02c1.516-.037 2.806-.103 3.707-.197 3.809-.397 8.753-1.426 13.955-2.921 3.42-.984 6.469-2.273 9.033-2.952Z"/>
    <path fill="#9A9DAB" d="m53.966 63.931-.859.2c-1.093.247-5.77 1.319-13.018 1.397-4.745.05-4.59-.04-5.941-.083-1.352-.044-5.948-.32-7.243-.562 5.14.476 11.663.509 12.694.499 1.03-.01 4.542-.18 5.003-.228 3.809-.397 8.753-1.426 13.955-2.921 2.455-.706 4.72-1.57 6.751-2.253-1.783 1.08-8.745 3.325-11.342 3.951Z"/>
    <path fill="#C8C9D1" d="M85.401 57.45c.007.036.268.141.443.29-.062 1.342-.46 3.327-1.329 4.249-1.134 1.205-3.229 1.344-5.176.767-1.948-.577-4.034-1.996-4.866-2.356-.552-.24-1.858-1.062-3.184-1.544l-.105-.012c3.082.31 4.84 1.708 6.86 2.265 2.018.557 5.658 1.225 6.652-.693.994-1.918.695-3.02.705-2.966Z"/>
    <path fill="#9A9DAB" d="m85.401 57.45.024.02.018.338c.019.655-.021 2.024-.624 2.868-.804 1.126-1.64 1.469-3.052 1.437-1.414-.032-2.854-.26-4.688-1.093-1.178-.534-2.228-1.117-3.028-1.516 1.505.542 2.695 1.247 3.992 1.605l.56.146c2.072.508 5.186.912 6.093-.84.994-1.917.695-3.018.705-2.965Z"/>
    <path fill="#4C2C34" d="M85.423 67.389c-.776 1.418-1.867 2.445-3.274 3.082-2.11.956-6.045 1.63-10.097 1.579-4.052-.05-15.061 0-18.006 0H34.021c-1.796 0-7.35-.862-12.681-1.998-5.33-1.135-6.416-2.013-8.637-3.237C10.984 65.55 10 62.918 10 62c0-.918.089-2.6.297-2.627.208-.028 1.16.48 1.717 1.55.556 1.07 1.71 3.99 2.925 4.791 1.214.803 4.304 2.302 11.246 3.291 6.941.99 16.582.616 17.01.64.429.023 3.04 1.24 4.312 1.11 1.272-.13 3.714-.284 6.54-.284s12.018-.035 14.044-.035c2.025 0 9.783-.194 12.967-1.256 2.123-.708 3.578-1.305 4.366-1.791Z"/>
    <path fill="#684E5B" d="m11.093 64.653 3.695.952.15.11.422.26c1.449.836 4.577 2.14 10.824 3.03l1.009.132c6.83.823 15.593.486 16.001.508.429.023 3.04 1.24 4.312 1.11l.153-.014-1.058 1.308-12.58.001c-1.727 0-6.93-.797-12.065-1.868l-.616-.13c-5.33-1.135-6.416-2.013-8.637-3.237-.707-.52-1.29-1.271-1.731-2.04l.12-.122Z"/>
    <path fill="#140204" d="M83.319 69.475c.005.115.004.225-.006.331a7.072 7.072 0 0 1-1.164.665c-2.11.956-6.045 1.63-10.097 1.579l-3.579-.02c-4.758-.01-11.507.017-14.094.02h-7.84c-6.254.083-10.12.109-11.602.076-3.215-.072-7.764-.78-13.646-2.128 7.29 1.078 11.27 1.628 11.936 1.648 3.267.102 13.302-.003 13.46-.055a2.68 2.68 0 0 0 .436-.21c.16-.213.452-.32.877-.32h20.218l-.392.53 2.385-.057c3.021-.088 5.41-.233 7.168-.435 2.197-.253 4.177-.794 5.94-1.624Z"/>
    <path fill="#907981" d="M10.849 63.799c.364.265.68.441.948.53l.78.215c.396.102.925.235 1.589.399.253.33.51.6.772.771.232.154.534.333.918.53l-1.73-.277c-.88-.148-1.8-.312-2.058-.388-.517-.153-1.19-1.125-1.22-1.386a1.26 1.26 0 0 1 0-.394Z"/>
    <path fill="#CDD3D5" d="M10.296 59.373c.208-.028 1.16.48 1.717 1.55.442.851 1.262 2.87 2.19 4.066l.22.038-.847-.163c-1.309-.273-2.105-.558-2.388-.855l-.242-.237c-.198-.19-.462-.437-.737-.72-.14-.436-.21-.806-.21-1.052l.012-.671c.031-.892.121-1.934.285-1.956Z"/>
    <path fill="#B7C1C5" d="m11.678 61.15.116.465c.122.53.26 1.252.417 2.167a9.45 9.45 0 0 1-.944.3l-.08-.073-.24-.237-.534-.514a15.718 15.718 0 0 1-.204-.205c-.14-.437-.21-.807-.21-1.053l.012-.671.032-.631c.027-.417.068-.808.124-1.056.608.321 1.363.97 1.511 1.507Z"/>
    <path fill="#C5B4B1" d="m10.849 63.029 2.58.761c.169.3.344.59.524.854l.246.339-.623-.119-.724-.165c-.883-.223-1.438-.453-1.664-.69l-.194-.187-.145-.793Z"/>
    <path fill="#EBEBEB" d="M10.22 61.713c.308-.027.753.799 1.041 1.68l.075.24c.244.837.99 2.412 2.072 3.582l-.35-.203c-.735-.744-1.348-1.736-1.622-2.409l-.27-.706c-.303-.829-.595-1.713-.69-1.766a2.196 2.196 0 0 0-.48-.16l.006-.32a.35.35 0 0 0 .218.062Z"/>
    <path fill="#5D2828" d="M10.223 61.822c.172.079.601.857.701 1.242l.13.436c.14.435.36 1.012.607 1.436l1.109 1.912-.067-.033C10.984 65.55 10 62.918 10 62v-.112c.083-.074.158-.096.224-.066Z"/>
    <path fill="#1D0706" d="M85.517 67.007c-.65.612-1.19 1.03-1.621 1.253-.648.334-.686.322-.93.793-.243.472-.871 1.305-.817 1.418.055.113 1.412-.303 1.884-.598.472-.294 1.416-1.33 1.554-1.873.07-.273.125-.676.064-.913-.014-.053-.058-.08-.134-.08Z"/>
    <path fill="#E00E1A" d="m85.51 66.738-.016.028c-.304.449-.594.768-.872.957-.5.34-2.517 1.042-2.702.813-.124-.152-.516-.503-1.178-1.052.245-.524.44-.844.587-.961l.069-.042c.152-.057.038-.233-.34-.528l3.371-.383c.33-.041.582-.076.76-.104.248.462.356.885.322 1.272Z"/>
    <path fill="#F68288" d="M85.189 65.466c.248.462.356.885.322 1.272l-.017.028a5.83 5.83 0 0 1-.268.367c-.626.283-1.468.603-2.526.955l.211-1.081c.034-.176-.288-.56-.966-1.152l2.484-.285.612-.082.148-.022Z"/>
    <path fill="#CA5E5F" d="m85.51 66.738-.016.028c-.304.449-.594.768-.872.957-.5.34-2.517 1.042-2.702.813-.112-.138-.445-.438-.998-.902 2.84-.367 3.578-.747 3.984-.933.242-.11.413-.346.51-.704.084.261.115.508.095.741Z"/>
    <path fill="#F3C2C5" d="m85.151 65.472.052.028.118.238c.153.358.217.69.19 1l-.017.028c-.304.449-.594.768-.872.957-.41.279-1.843.802-2.446.854l.586-.26c.61-.277 1.35-.643 1.372-.827.046-.383-1.724.008-1.513-.105l1.556-.391c.128-.042.437-.537.339-.76-.22-.5-1.177-.518-1.067-.546.238-.06 1.055-.117 1.636-.207l.066-.01Z"/>
    <path fill="#4F2224" d="m84.327 65.715.873-.225-.011-.024c.12.223.206.437.26.642-.21.132-.901.432-1.27.498-.409.074.486-.243.88-.51.396-.267-.785-.036-1.25-.1-.215-.028-.042-.122.518-.28Z"/>
    <path fill="#E72E37" d="m47.375 67.835.045.002c.144.013.052.33-.212.4s.072.202.212.276c.141.074-.048.57-.13.63-.082.06.14.38 0 .638-.14.257-1.062.59-1.294.478-.231-.112-.094-.193.212-.203.305-.01.372-.348.223-.44-.15-.094-.396-.5-.435-.697-.038-.197.185-.24.435-.253.25-.012.169-.161.192-.335.022-.174-.522-.197-.512-.314.01-.116 1.166-.193 1.31-.18Zm5.448-.559c-.02-.003.085.267 0 .326-.084.06-.265.042-.866.12-.601.08-.079.464.211.366.29-.097.528-.216.747.004.218.22-.138 1.08-.346 1.383-.208.304-.98.629-1.248.575-.267-.054.01-.469 0-.766-.009-.297-.226-.24-.362-.694-.135-.455.233-.494.477-.502.244-.008.047-.349-.212-.365-.26-.017-.296-.2-.171-.303.126-.104 1.79-.14 1.77-.144Zm3.42-.357c.329-.06 2.021-.04 2.135 0 .115.04-.311.424-.02.705.293.28.398.653.227 1.071-.17.418-.555.514-.63.78-.075.267-.912.353-1.303.281-.39-.071-.527-.336-.768-.702-.24-.366-.228-1.241-.235-1.331a7.559 7.559 0 0 0-.133-.633c.231.174.354.385.368.633.022.371.072 1.056.358 1.331.286.275.817.32.41 0s-.61-1.012-.495-1.211c.115-.2.26-.488 0-.6-.261-.113-.244-.264.085-.324Zm13.363-.378c-.004.073-.264.14-.224.274.04.133.367.544.302 1.23-.066.686-.467 1.07-.822 1.284-.355.213-.854.517-1.26.402-.405-.114-.557-.452-.416-.402.142.05.631.042.416-.092-.214-.135-.434-.35-.233-.312.2.039.34-.233 0-.344-.34-.11-.7-.69-.35-1.151.35-.462-.215-.607-.271-.695-.057-.089.408-.136 1.398-.194.991-.058 1.465-.073 1.46 0Zm2.938-.146c.119-.256 2.885-.226 2.97-.131.055.063.002.19-.159.38.356.187.474.62.353 1.302-.18 1.022-.706 1.817-1.556 1.784-.85-.033-1.315-.576-1.608-1.238-.294-.663.114-1.505.329-1.677.215-.172-.449-.164-.33-.42Zm-11.187.42c.038-.103 2.382-.126 2.567-.109.186.017-.459.316-.264.372.195.056.565.85.455 1.259-.11.409-.455.742-.747.967-.292.224-1.06.221-1.29.035-.23-.187-.574-.596-.72-1.006-.147-.41.23-.782.357-.99.127-.206-.396-.426-.358-.528ZM41.763 68.33c.233-.097.547-.086.542 0-.005.086-.003.265-.125.335-.123.07.006.227.125.242.119.015.177.152.116.295-.06.142-.576.258-.687.173-.112-.084-.096-.38.029-.468.125-.087.195-.253 0-.242-.196.01-.233-.239 0-.335Zm-4.175.18c.135-.045.228.007.279.155-.355.212-.394.33-.12.35.276.02.336.123.18.307-.204.086-.338.094-.4.023-.095-.106.03-.3.027-.32-.003-.02-.03-.153.008-.175.037-.022-.176-.273.026-.34Z"/>
    <path fill="#E36C65" d="m46.111 69.202.264.02.31.011c.155-.007.353-.017.587-.03.006.117.132.368.018.578-.14.257-1.062.59-1.294.478-.231-.112-.094-.193.212-.203.305-.01.372-.348.223-.44-.094-.059-.225-.24-.32-.414Zm6.458.273c-.208.304-.98.629-1.248.575-.267-.054.01-.469 0-.766-.005-.167-.076-.222-.161-.319.556-.034 1.13-.07 1.705-.104a2.945 2.945 0 0 1-.296.614Zm6.016-.78c-.17.418-.555.514-.63.78-.075.267-.912.353-1.303.281-.39-.071-.527-.336-.768-.702a1.156 1.156 0 0 1-.14-.359c.098-.007.193-.012.287-.017.05.153.118.286.211.376.286.275.817.32.41 0a1.332 1.332 0 0 1-.323-.391 109.126 109.126 0 0 1 2.298-.097.8.8 0 0 1-.042.13Zm10.277.634c-.355.213-.854.517-1.26.402-.405-.114-.557-.452-.416-.402.142.05.631.042.416-.092-.214-.135-.434-.35-.233-.312.2.039.34-.233 0-.344a.665.665 0 0 1-.283-.2c.842-.02 1.698-.043 2.55-.067-.129.521-.469.831-.774 1.015Zm6.82-1.249.026-.134c-.18 1.022-.706 1.817-1.556 1.784-.85-.033-1.315-.576-1.608-1.238a1.173 1.173 0 0 1-.082-.27c1.139-.042 2.228-.089 3.22-.142Zm-11.606.37.04-.113c-.11.409-.456.742-.748.967-.292.224-1.06.221-1.29.035a2.693 2.693 0 0 1-.649-.836l2.647-.054Z"/>
    <path fill="#1D0509" d="M48.385 48.249c.347.23-1.174 2.644-1.214 3.599-.04.955.472 3.572 4.917 2.787 4.444-.785 11.2-1.842 17.18-3.917 5.98-2.075 8.032-3.524 8.157-3.379.124.145.61.087.02.808-.59.721-3.867 2.44-7.501 4.377-3.634 1.937-17.642 7.268-19.814 7.736-2.173.469-6.463.738-7.547-2.01-.462-1.171-.519-3.556.85-5.402 1.83-2.468 4.606-4.83 4.952-4.599Z"/>
    <path fill="#360B12" d="M48.385 48.249c.26.138-1.474 2.766-1.514 3.721-.04.955.602 3.727 5.047 2.942 4.445-.786 11.37-2.119 17.35-4.194 5.98-2.075 8.032-3.524 8.157-3.379.124.145.585-.113-.006.608-.59.722-3.76 2.434-7.393 4.371-3.634 1.937-17.862 7.286-20.035 7.754-2.172.47-6.14.72-7.225-2.029-.461-1.17-.53-3.304.838-5.15 1.83-2.468 4.632-4.723 4.781-4.644Z"/>
    <path fill="#7A3A3C" d="M48.385 48.249c.26.138-1.474 2.766-1.514 3.721-.04.955.602 3.727 5.047 2.942l2.243-.408c.532-.1 1.086-.205 1.657-.317-2.514 1.03-4.64 1.515-6.378 1.455-3.822-.13-3.652-1.446-4.515-.118-.831 1.28-.832 3.605 1.355 4.783-1.519-.177-2.932-.788-3.514-2.264-.461-1.17-.53-3.304.838-5.15 1.83-2.468 4.632-4.723 4.781-4.644Z"/>
    <path fill="#B87F42" d="M46.04 51.739c-.23-.236-1.771.775-2.457 2.452-.686 1.676-.529 4.696 1.949 5.302 2.478.605 5.13-.275 8.512-1.417 3.383-1.143 16.873-6.797 16.858-6.954-.017-.156-6.8 1.8-8.393 2.24-1.594.442-9.658 2.338-12.143 2.39-2.486.052-4.065-1.34-4.193-2.462-.127-1.122.098-1.315-.132-1.551Z"/>
    <path fill="#7F4D19" d="m70.876 51.114.026.008c.015.153-12.895 5.568-16.623 6.873l-.235.08c-3.383 1.143-6.034 2.023-8.512 1.418-1.846-.451-2.404-2.242-2.285-3.82l.056-.104c1.023 2.81 3.275 3.813 6.754 3.01l.723-.18c3.294-.875 7.57-2.625 12.93-5.332l6.123-1.729c.405-.103.72-.176.9-.208l.143-.016Z"/>
    <path fill="#D9AC63" d="M43.583 54.19c.686-1.676 2.227-2.687 2.458-2.451.23.236.005.43.132 1.551.128 1.122 1.707 2.514 4.193 2.462 2.485-.052 10.549-1.948 12.143-2.39l1.243-.349c-3.02 1.112-10.812 2.93-12.448 3.151l-.152.018c-1.323.117-3.48.106-4.591-1.095-1.112-1.202-.88-2.486-.99-2.694-1.482.89-2.214 2.513-2.196 4.87-.269-1.045-.137-2.229.208-3.072Z"/>
    <path fill="#3C3833" d="M81.976 55.785c.724-.195 1.127-.886.978-2.134-.149-1.247-1.218-1.954-1.993-1.703-.776.251-1.197 1.077-1.005 2.231.193 1.154 1.297 1.801 2.02 1.606Z"/>
    <path fill="#D1AD73" d="M81.979 55.705c.747-.172 1.124-.806.975-2.054C82.805 52.404 81.775 51.75 81 52c-.775.251-1.169 1.105-.934 2.193s1.166 1.685 1.913 1.512Z"/>
    <path fill="#F4DCB4" d="m80.026 53.97.167.306c.363.635.727 1.017 1.09 1.145.604.212 1.107.04 1.38-.126a1.18 1.18 0 0 1-.684.41c-.747.173-1.678-.424-1.913-1.512a3.136 3.136 0 0 1-.04-.224Z"/>
    <path fill="#593813" d="M81.987 55.329c.615-.117.928-.708.786-1.708-.142-1-1.086-1.518-1.713-1.233-.627.286-.904.9-.678 1.767.226.868.99 1.29 1.605 1.174Z"/>
    <path fill="#E0D0C9" d="m82.404 54.428-.47.09c-.06.165-.06.24 0 .224.09-.024.615-.187.713-.224.066-.025.07-.298.012-.818h-1.084l-.02-.116c.73-.04 1.099-.111 1.104-.211.005-.1-.08-.28-.255-.543h-1.093l-.045.255.894.11-.85.178v.557h.425v-.101h.566v.245h-1.152l-.135-1.073h-.524v.606h.246l.127.732 1.49-.1.051.189Z"/>
    <path fill="#90484E" d="M28.274 50.249c.132 0 .28.023.44.069-.571.383-.837 1.918-.828 2.186.011.295-.548.565-.886.593-.339.028-.564-.227-.727-.784-.07-.243-.06-.566.034-.97.03-.06.058-.13.084-.207h.758l.222-.23c.264-.263.696-.657.903-.657Zm9.45-3.215.442-.023-.287.049c-.438.088-2.855 2.25-3.097 2.577-.241.328-.77 1.364-.91 1.477-.14.113-.509.047-.621 0-.113-.048-.284-.616-.164-1.065.082-.305.534-1 .903-1.488l.051-.018c.301-.342.644-.621 1.03-.837l.362-.173c.166-.077.34-.139.523-.19a8.841 8.841 0 0 1 1.767-.309Zm6.145-2.166-.074.027c-1.942.737-3.189 2.891-3.407 3.51l-.03.097c-.104.492-.574.673-.738.62-.164-.054-.458-.443-.461-.842-.003-.398.411-.99.812-1.621.137-.215.38-.47.628-.708.593-.48 1.173-.794 1.74-.946a4.853 4.853 0 0 1 1.53-.137Zm5.706-2.297-.03.015c-.537.236-1.574.9-1.91 1.161-.36.28-.832.967-1.046 1.617l-.075.275c-.151.721-.637 1.024-.922 1.02-.284-.005-.575-.607-.635-1.02-.032-.212.125-.594.34-.973l-.372.339a11.812 11.812 0 0 1 2.567-1.85c.754-.41 1.448-.604 2.083-.584Zm3.09-2.591.204-.046c.153-.028.264-.035.192.033l-.181.185c-.345.36-1.02 1.106-1.063 1.388-.053.353.02 1.24 0 1.743-.02.503-.209.733-.523.754-.315.02-.745-.349-.872-.67a2.744 2.744 0 0 1-.162-.917l-.115.201c.34-.584.624-.989.852-1.214l.586-.5c.27-.235.63-.554 1.081-.957Zm2.797-4.388c-.003.042-.026.077-.074.098-.228.1-.178.96-.02 1.539.157.578.014 1.195 0 1.675-.015.48-.621.596-.978.593-.247-.002-.45-.698-.544-1.271l.002-1.02c0-.49 1.002-1.614 1.002-1.614h.612Z"/>
    <path fill="#EFCFA0" d="M58.158 34.085c-.287.03-.441.07-.461.12-.1.246-.143.464-.13.653.025.367.602 2.904.617 3.332.014.427.181 1.39.095 1.514-.085.124-.564.789-.791.789-.228 0-1.253-.276-1.88-.375-.628-.098-2.269-.409-2.526-.414-.257-.005-.654.092-.605 0 .048-.091.648-1.107.75-1.148.1-.042.721-.072 1.097-.063.376.01 2.164.23 2.23.196.065-.035.159-.138.062-.993-.097-.854-.046-2.283-.063-2.476a.627.627 0 0 1 .168-.49c.122-.135.67-.7.767-.756.064-.036.287 0 .67.11Z"/>
    <path fill="#A5965F" d="m53.743 38.502-.674.895.81.159 3.087.567.461-.083.497-.484.339.17-.212.282c-.181.225-.421.485-.563.485-.202 0-1.035-.218-1.658-.336l-2.277-.39c-.228-.037-.4-.061-.47-.063-.258-.005-.655.092-.606 0l.3-.502c.183-.3.393-.623.45-.646l.135-.026c.098-.011.234-.021.381-.028Z"/>
    <path fill="#462C10" d="m56.57 35.005.669-.67.09 1.285.557.994.074.285.17.894c.021.121.037.224.046.3l.036.446c.048.465.134 1.07.067 1.165l-.04.054-.162-.076-.418.441-.33-.047.513-.679-.66-3.926-.627.428.001-.612-.003-.067a.65.65 0 0 1 .017-.215Z"/>
    <path fill="#603F2E" d="M54.324 38.493c.342.009 1.846.191 2.17.199l.049.057.158-.126c.048-.034.143-.057.285-.07l.23-.013c.153-.004.284 0 .264.013-.032.018-.43-.032-.494.07-.063.103.078.303.175.353.098.05.48.06.484-.062.04.099.023.417-.073.583-.097.167-.157.287-.351.322l-.176.04c-.154.032-.325.032-.502-.19-.166-.207-.188-.459-.068-.755l-2.018-.29-.301.125-.287.318-.285.14c-.07.083-.094.13-.07.144l.365.102c.064.02.108.036.097.044-.034.025-.868-.04-.836-.1l.426-.528.312-.374c.157-.004.316-.005.446-.002Z"/>
    <path fill="#251A1A" d="M59.098 35.587c.036-.259-.2-.39-.524-.339-.324.051-.365.3-.355.435.01.135.05.445.364.4.314-.046.479-.237.515-.496Z"/>
    <path fill="#D8D8D8" d="M39.442 70.214h.539v.156c-.296.337-.427.51-.394.516.034.007.252.007.657 0l-.01.255.593-.42v-.18h-.752l.159-.327h.986l.288.326-.484.601h.196v-.119h.945c-.35-.306-.528-.467-.53-.482a4.894 4.894 0 0 1-.007-.318h.218l.778.664v.32H39.02l-.279-.236.702-.756Z"/>
    <path fill="#E2DDDF" d="M39.442 70.214h.539v.156c-.296.337-.427.51-.394.516.034.007.252.007.657 0l-.01.255.593-.42v-.18h-.752l.159-.327h.986l.288.326-.484.601h.196v-.119h.945c-.35-.306-.528-.467-.53-.482a4.894 4.894 0 0 1-.007-.318h.218l.778.664v.32H39.02l-.279-.236.702-.756Z"/>
    <path fill="#502022" d="M80.742 67.484c1.284-.253 2.143-.406 2.58-.46.437-.055 1.023-.186 1.759-.395-.746.325-1.365.537-1.858.635-.393.077-1.106.17-1.575.368a1.65 1.65 0 0 0-.402.278l-.324-.276-.18-.15Z"/>
    <path fill="#1D0706" d="M83.847 68.33c-.176.117-2.203.978-4.004 1.428-1.801.45-5.793.85-10.794.927-5 .078-15.658 0-16.478 0-.82 0-4.509.043-4.86.107-.351.065-2.06-.161-3.387-.736-1.042-.44-2.718-.327-3.642-.3-.924.028-6.47.076-10.256-.19-3.786-.265-5.951-.679-10.213-1.62-4.262-.942-5.643-2.19-6.154-2.877-.34-.459-.828-1.43-1.465-2.914.993 1.792 1.603 2.802 1.829 3.028.218.219.826.971 2.965 1.728 1.094.387 3.016.942 4.238 1.169 3.424.635 5.482 1.033 9.207 1.292 3.726.259 8.612.209 10.044.195 1.433-.014 2.474.047 3.734.489 1.261.441 2.472.592 3.61.515 1.137-.077 4.661-.107 6.392-.107 1.73 0 15.702-.052 16.239-.052.536 0 4.45-.08 7.186-.566 2.736-.485 5.587-1.429 7.136-2.422l-.535.504c-.411.191-.675.326-.792.403Z"/>
    <path fill="#DADDE2" d="M61.765 36.258c1.915 5.072 3.335 8.495 4.258 10.27 1.386 2.66 2.56 2.979 3.197 3.051.636.073 2.099.075 3.56-1.579.973-1.103 2.064-3.11 3.27-6.025-2.191 2.674-3.81 4.15-4.858 4.426-1.57.414-2.416.38-3.742-1.033-.884-.942-2.779-3.979-5.685-9.11Z"/>
    <path fill="#6F4247" d="M77.634 41.264c1.332-1.049 2.065-1.616 2.199-1.7.038.046.09.098.156.156-1.129.848-1.85 1.413-2.163 1.695-.01 0-.073-.05-.192-.15Z"/>
    <path fill="#FFEAC6" d="M80.212 52.69c.48-.423.96-.595 1.44-.516.481.08.865.373 1.152.882-.292-.55-.608-.886-.947-1.01-.51-.187-.909-.076-1.18.096-.18.115-.335.298-.465.549Z"/>
  </g>
</svg>
