<svg xmlns="http://www.w3.org/2000/svg" viewBox="0 0 96 96">
  <defs>
    <path id="a" d="M0 0h96v96H0z"/>
  </defs>
  <g fill="none" fill-rule="evenodd">
    <path fill="#EFECEC" d="M26.992 55.824c-.414 0-1.778.446-2.754.446-.975 0-2.41.004-5.393.859-2.984.855-6.175 1.736-7.067 2.337-.891.6-1.351 1.723-1.343 2.785.009 1.062.857 2.665 1.092 3.2.234.535.57.74 1.094.85.524.112 24.618 1.102 34.849.536 10.23-.566 6.167-3.466 4.718-4.586-1.45-1.12 9.293-4.796 9.285-8.375-.009-3.579-6.15-7.095-7.943-7.131-1.792-.037-21.244 7.48-22.87 8.076-1.628.596-3.254 1.003-3.668 1.003Z"/>
    <path fill="#E0DADB" d="M53.53 46.744c1.793.037 7.934 3.553 7.943 7.132.008 3.58-10.734 7.255-9.285 8.375l.718.565c1.558 1.296 3.287 3.445-4.91 3.99l-.526.031c-10.231.566-34.325-.424-34.849-.536-.524-.11-.86-.315-1.094-.85l-.452-.98c-.074-.17-.15-.349-.223-.533-.057-2.121.462-3.388 1.557-3.803 2.24-.849 10.134-.848 14.68-1.206l.491-.042c4.445-.4 8.694-.3 10.228-.256 1.472.042 1.284-.908-1.316-1.043-2.6-.135-3.371-.585-4.667-1.258-.41-.213-.533-.858-.844-1.628l7.613-2.879c6.18-2.313 13.843-5.1 14.936-5.079Z"/>
    <path fill="#D2CDCE" d="M53.53 46.744c1.793.037 7.934 3.553 7.944 7.132.007 3.58-10.735 7.255-9.286 8.375l.718.565c1.558 1.296 3.287 3.445-4.91 3.99l-.526.031c-9.511.526-31.005-.293-34.402-.5-1.182-3.203-1.021-4.692.805-4.908 1.706-.202 6.472.062 10.66.08 4.187.018 5.816.102 8.97.101 3.152 0 5.166-.51 6.438-1.14 1.816-.9.376-3.637-.095-3.573-.471.064-2.435.257-3.74.466-1.304.21-3.621-.14-4.646-.886-.359-.262.887-1.503 2.88-3.05l7.594-2.845c5.323-1.962 10.695-3.856 11.596-3.838Z"/>
    <path fill="#C5BBBD" d="M41.827 55.17c1.213-.069 5.524 2.584 5.555 3.92.031 1.337 1.927 7.206-.692 7.675l-.742.115-.25.035-1.167.035c-10.412.266-28.381-.425-31.463-.613-.159-.431-.294-.831-.403-1.201.163-.709 1.087-1.285 4.01-1.325l1.29.003c6.235.05 19.57.361 21.446-.102 1.969-.486 1.922-2.567 3.006-3.08 1.084-.512.616-1.185-.408-1.634-1.023-.448-1.395-2.268-1.485-2.346-.09-.079-.378-.06-.594-.029-.526.077-1.638.301-2.685.522l-.66.086c-.632.074-1.163.109-1.424.056-.919-.187 5.454-2.05 6.666-2.118Z"/>
    <path fill="#A79D98" d="M53.53 46.744c1.793.037 7.934 3.553 7.943 7.132.008 3.58-10.734 7.255-9.285 8.375l.718.565c1.558 1.296 3.287 3.445-4.91 3.99l-.526.031c-10.231.566-34.325-.424-34.849-.536-.524-.11-.86-.315-1.094-.85l-.363-.782a12.922 12.922 0 0 1-.455-1.118l-.037-.596a11.29 11.29 0 0 1-.02-.66c.012-.817.29-1.152.384-.38l.017.184c.07 1.001.794 2.849.897 2.952.094.094 2.781-.044 4.948-.015l6.926.177c3.212.065 6.83.112 9.062.064l.427-.011c3.94-.12 9.772-.65 9.602-1.045l-.13-.445c-.23-.884-.394-2.065.13-2.398l1.317-.788c.815-.494 1.666-1.051 1.665-1.282 0-.383-2.392-.098-3.594-.662-1.201-.563-.944-2.564-1.776-2.415-.831.148-4.842 1.12-5.524 1.137-.681.019-1.382-.062-1.69.174-.308.237.67.654.939.783.267.128.542.843.203 1.381-.338.54-1.623 1.46-2.638 1.43-1.014-.032-1.936-.16-2.053-.702-.078-.362.008-.737.256-1.126l-.878-.292c-.363-.127-1.2-1.316-1.454-1.474-.255-.157-1.667-.846-2.137-1.007-.392-.134-.693-.078-.953-.247l-.037-.032c.829-.067 1.813-.356 2.28-.42l.15-.012c.355 0 1.601-.3 2.975-.76l.693-.243c1.627-.597 21.079-8.113 22.871-8.077Z"/>
    <path fill="#A3857C" d="M55.342 54.145c.706.312 2.154-.274 2.233-1.099.079-.824-1.84-2.35-2.493-2.635-.655-.286-1.276-.266-.984.915.292 1.18.538 2.507 1.244 2.819Z"/>
    <path fill="#967D73" d="M54.945 51.183c.737.536 1.84 1.239 1.832 1.675-.007.436-.455.698-1.097.435-.642-.264-.877-2.537-1.293-2.773-.417-.237-1.695-.674-1.705.124-.01.799 2.164 3.885 2.4 4.166.235.282 2.365.168 2.67-.41.305-.578 1.386-1.516.282-2.384-1.103-.868-3.826-1.368-3.089-.833Z"/>
    <path fill="#C1BCBB" d="M48.15 58.064c.29-.079 1.578-.51 2.748-1.018.23-.1-.085-.653.443-.873.528-.22.678.359.843.265.156-.09.155-.063.271-.148.071-.048-.057-.383.178-.616.235-.234.447-.241.488-.34.281-.685-.55-1.57-.77-1.9-.255-.383-1.749-1.063-2.58-.814-.831.25-2.604.96-2.073 1.424.532.463 1.231.824 1.216 1.96-.016 1.135-1.299 2.205-.764 2.06Z"/>
    <path fill="#65656E" d="M68.05 44.703c-2.558.117-4.973 1.016-3.838 3.272.757 1.503 1.866 3.35 3.327 5.542l12.8-3.235c.044-.134.064-.213.06-.236-.354-1.911-.626-3.09-.777-3.879-.153-.804-.48-2.145-.978-4.022-1.65 1.123-3.197 1.828-4.643 2.115-2.17.43-3.392.325-5.95.443Z"/>
    <path fill="#737378" d="M77.652 44.933c-.223.367-.713.763-1.876 1.12-1.164.358-5.071.18-6.7.784-1.628.605-2.1 1.413-1.808 1.99.29.576 5.49-1.138 6.974-1.706 1.485-.569 2.111-.792 2.684-.664.572.128 1.28.925 1.24.38-.039-.545-.29-2.27-.514-1.904Z"/>
    <path fill="#504F51" d="m78.644 42.145.278 1.062c.258.998.454 1.802.588 2.413l.618 3.019c.084.42.174.886.27 1.407l-.003.042-.056.194-12.8 3.235a79.75 79.75 0 0 1-1.677-2.615c.29-.52.695-.963.802-.87.176.152.89.082 1.11 0l4.341-1.78c1.812-.738 3.593-1.45 4.004-1.57.62-.179.964-.021 1.233.19l.84.718c.329.274.674.554.774.617.15.094-.755-2.29-.939-3.53l-.025-.205c-.098-1.156-.78-.585-1.185-.272-.406.312-5.137 1.623-8.15 1.925-2.336.235-3.168 2.399-3.486 3.632a35.726 35.726 0 0 1-.969-1.782c-1.135-2.256 1.28-3.155 3.839-3.272 2.558-.118 3.78-.013 5.95-.443 1.446-.287 2.994-.992 4.643-2.115Z"/>
    <path fill="#DDC4B3" d="M46.36 65.985c-1.946-1.107-3.272-2.88-3.338-3.788-.066-.907.36-1.844 1.242-2.158.882-.313 9.312-3.553 10.742-4.294 1.43-.741 3.07-1.65 3.205-2.62.134-.972-1.224-1.748-2.408-2.307-1.184-.56-2.802-1.56-3.631-1.875-.83-.315 2.767-5.166 3.635-6.344.869-1.18 1.375-1.95 4.389-1.758 3.013.193 5.75 1.257 7.39 1.475 1.638.217 4.185.463 4.614-.686.429-1.15 1.17-2.938 2.07-4.083.9-1.144 1.562-1.318 2.133-1.343.57-.024.847.08.887.228.04.147.146.295.098.395-.049.1-.281.346-.318.538-.036.193.56 2.065.825 2.757.265.693 1.105 1.99 1.183 2.194.078.204.251.734.072.799-.18.064-.5-.02-.691.16-.192.18-.78 1.432-1.914 2.13-1.135.697-6.537.478-7.767.504-1.23.026-2.676.522-2.995 1.755-.32 1.233 1.712 2.817 2.753 3.76 1.041.941 5.176 6.197 4.916 6.929-.26.732-11.135 4.934-15.047 5.88-3.912.947-10.099 2.859-12.045 1.752Z"/>
    <path fill="#D39056" d="M46.675 65.87c-1.947-1.107-3.087-2.673-3.153-3.58-.066-.907.337-1.678 1.22-1.991.883-.314 9.279-3.466 10.709-4.207 1.43-.741 3.039-1.914 3.173-2.886.135-.971-1.024-1.858-2.208-2.416-1.184-.56-3.215-1.642-4.045-1.957-.83-.315 2.568-5.056 3.436-6.234.869-1.18 1.375-1.95 4.389-1.758 3.013.193 5.75 1.257 7.39 1.475 1.638.217 4.185.463 4.614-.686.429-1.15 1.17-2.938 2.07-4.083.9-1.144 1.562-1.318 2.133-1.343.57-.024.847.08.887.228.04.147.146.295.098.395-.049.1-.281.346-.318.538-.036.193.56 2.065.825 2.757.265.693 1.105 1.99 1.183 2.194.078.204.196.494.017.558-.18.064-.5-.02-.691.16-.192.18-.78 1.433-1.914 2.13-1.135.697-6.537.478-7.767.504-1.23.026-2.676.522-2.995 1.755-.32 1.233 1.524 2.873 2.565 3.815 1.041.942 5.231 6.439 4.971 7.17-.26.732-10.947 4.88-14.86 5.826-3.911.946-9.783 2.743-11.73 1.636Z"/>
    <path fill="#CB8A52" d="M45.544 61.965c-.5 1.308 1.328 2.32 2 3.137.353.43 1.04.858 1.712 1.087-1.1.08-2.01.006-2.581-.319-1.947-1.107-3.087-2.673-3.153-3.58-.066-.907.337-1.678 1.22-1.991l3.086-1.155c.897-.34 1.896-.722 2.872-1.1-2.635 1.418-4.832 3.074-5.156 3.92Zm26.488-5.97-.146-.595c.303 1.197.57 2.346.798 3.448-2.232 1.258-10.246 4.322-13.88 5.284l-.4.102c-2.195.53-5.008 1.33-7.398 1.733l.39-.417c1.607-1.762 5.609-6.492 7.388-7.73 1.387-.966 5.67-1.765 12.851-2.398.14.195.271.387.397.574Zm-11.95-15.16-.108.067c-2.055 1.308-1.444 2.633-.98 3.689.547 1.25-.523 3.536 2.194 5.876l.262.273c1.971 1.873-1.855 3.76-5.58 5.125 1.31-.74 2.633-1.782 2.754-2.659.125-.902-.865-1.73-1.955-2.292l-.97-.473c-1.166-.579-2.649-1.35-3.328-1.608-.768-.292 2.088-4.378 3.204-5.917l.482-.654c.733-.972 1.404-1.578 4.025-1.428Z"/>
    <path fill="#C5814D" d="M62.615 50.656c2.451 1.933 2.882 4.194-.36 6.127-2.007 1.198-7.875 2.382-17.604 3.555l4.226-1.593c2.498-.955 5.372-2.079 6.395-2.565l.179-.088c1.43-.741 3.039-1.914 3.173-2.886.125-.902-.865-1.73-1.955-2.292l-.97-.473c-1.166-.579-2.649-1.35-3.328-1.608-.383-.146 1.266-2.848 2.023-4.098 1.189 1.626 2.377 2.752 3.566 3.379 1.782.94 3.512 1.641 4.655 2.542ZM58.34 42.85l.547.216c2.198.93 5.427 2.944 4.953 3.73-.423.697-6.216-1.777-9.177-2.599l.897-1.262.552-.748a22.47 22.47 0 0 1 2.228.663Z"/>
    <path fill="#DFA76D" d="M75.995 36.26c.298 1.494.44 2.587.425 3.278l-.1 1.374c-.135 1.533-.448 3.515-1.643 3.992-1.535.613-4.134.13-6.277.11-2.144-.02-4.181.313-5.538-.324-1.357-.638-2.453-1.35-3.586-1.861-.592-.267-1.859-.19-3.803.23l.587-.801c.742-.983 1.424-1.59 4.136-1.417 3.013.193 5.75 1.257 7.39 1.475l.88.104c1.548.156 3.377.167 3.734-.79.429-1.15 1.17-2.938 2.07-4.083.674-.858 1.216-1.17 1.685-1.284l.04-.004Z"/>
    <path fill="#F4C782" d="M74.897 36.864c.606.164.947.482.915 1-.198 3.312-.91 4.784-2.731 6.012-1.721 1.16-4.512.32-7.29.026l-.49-.046c-2.937-.234-5.4-1.565-6.348-1.628-.575-.038-1.586.188-3.033.677l-.447.154.587-.801.248-.313c.67-.795 1.477-1.258 3.888-1.104 3.013.193 5.75 1.257 7.39 1.475l.88.104.59.05c1.392.094 2.832-.002 3.144-.84.429-1.15 1.17-2.938 2.07-4.083.15-.19.293-.354.43-.495l.197-.188Z"/>
    <path fill="#9F4C0B" d="M77.29 36.432c.04.147.146.295.098.395-.037.075-.176.232-.26.387l-.06.287-.51.383c-.567.44-.963.98-1.248 1.907-.33 1.077-1.006 2.16-2.436 2.972-1.43.813-3.066.93-5.623.47-.954-.2-2.051-.419-3.291-.655-1.86-.355-2.929-.51-3.92-.602-1.39-.127-2.296.142-3.24.433-.228.07-.48-.197-.61-.316l.251-.297c.649-.704 1.5-1.1 3.755-.955 3.013.193 5.75 1.257 7.39 1.475l.88.104c1.548.156 3.377.167 3.734-.79.429-1.15 1.17-2.938 2.07-4.083.9-1.144 1.562-1.318 2.133-1.343.57-.024.847.08.887.228Z"/>
    <path fill="#FBD47F" d="M77.29 36.432c.04.147.146.295.098.395-.037.075-.176.232-.26.387l-.058.151-.51.382c-.566.44-1.025.892-1.308 1.728-.363 1.076-1.052 2.435-2.624 3.176-1.475.695-2.845.859-5.402.4l-2.896-.565c-1.86-.355-3.406-.62-4.398-.71-1.388-.128-2.25.12-3.194.412-.229.07-.417.024-.548-.095l.251-.297c.649-.704 1.5-1.1 3.755-.955 3.013.193 5.75 1.257 7.39 1.475l.88.104c1.548.156 3.377.167 3.734-.79.429-1.15 1.17-2.938 2.07-4.083.9-1.144 1.562-1.318 2.133-1.343.57-.024.847.08.887.228Z"/>
    <path fill="#F4AA5A" d="M77.29 36.432c.04.147.146.295.098.395-.037.075-.176.232-.26.387l-.058.151-.51.382c-.566.44-1.025.892-1.308 1.728-.363 1.076-1.052 2.435-2.624 3.176-1.475.695-2.845.859-5.402.4l-2.896-.565-1.19-.222c-1.33-.242-2.436-.418-3.208-.489-1.388-.127-2.25.121-3.194.413a.68.68 0 0 1-.24.032c.48-.345 1.297-.813 2.403-.825 1.633-.018 4.844.51 7.069 1.058l.494.127c2.216.589 4.15.52 5.347.195 1.196-.325 2.406-1.687 2.777-2.385.371-.7.248-1.885 1.226-2.702.762-.635 1.114-1.124 1.1-1.463.231.038.35.114.376.207Z"/>
    <path fill="#B57337" fill-rule="nonzero" d="m68.945 53.807-2.687-3.58c-.506-.685-.793-1.104-.933-1.369-.637-1.205-.3-2.758 1.166-3.323.809-.31 2.003-.442 3.878-.483l3.145-.034.177-.004c1.888-.05 3.117-.615 3.783-1.59l.144-.232c.445-.797.84-1.15 1.237-.952a.2.2 0 0 1-.102.38l-.077-.022c-.11-.055-.365.173-.709.789-.7 1.25-2.1 1.97-4.266 2.027l-2.799.028c-2.132.028-3.446.15-4.268.467-1.213.467-1.491 1.749-.955 2.762.125.237.395.632.866 1.271l2.507 3.337 1.132 1.553c1.576 2.213 1.188 4.703-.03 5.797-.698.628-16.996 5.339-18.732 5.41-1.16.048-2.59.046-4.427-.065l-1.69-1.693c-.586-.596-.954-.985-1.106-1.169-.613-.74-.404-2.166.75-2.543l1.17-.41c2.83-1.027 8.92-3.367 10.113-3.94 1.901-.914 3.048-1.903 3.134-2.862.123-1.364-.227-1.994-1.918-2.824l-1.22-.584c-1.2-.56-2.707-1.235-4.519-2.023-1.207-.525-.477-.507 2.192.053 1.586.705 2.869 1.367 3.854 1.836 1.963.935 2.671 1.913 2.4 3.597-.184 1.146-1.213 2.557-3.323 3.467l-.872-.1c-2.216.956-9.375 3.678-10.887 4.17-.856.28-1.015 1.365-.566 1.908l.255.285c.42.455 1.238 1.296 2.38 2.49l1.385.033c1.098.017 2.058.008 2.879-.025 1.651-.069 17.866-4.755 18.481-5.309 1.071-.962 1.425-3.226-.029-5.267l-.263-.368c-.206-.284-.421-.58-.65-.889Z"/>
    <path fill="#A66327" fill-rule="nonzero" d="M53.901 47.98c1.586.704 2.869 1.366 3.854 1.835 1.963.935 2.671 1.913 2.4 3.597-.184 1.146-1.213 2.557-3.323 3.467l-.872-.1-1.018.423c-.31.127-.467.177-.834.323-.046.027.1.898-.428.988-.528.09-.564-.58-.632-.561-.116.053-.215.09-.43.174-.066.036.21.758-.35.97-.562.214-.69-.573-.847-.512-1.143.442-2.12.818-3.181 1.216-1.446.381-2.817.777-3.91 1.15.16-.166.368-.298.62-.38l1.17-.412 3.45-1.288c2.774-1.055 5.85-2.262 6.662-2.652 1.901-.913 3.048-1.902 3.134-2.861.123-1.364-.227-1.994-1.918-2.824l-1.22-.584-.958-.442c-.676-.309-1.43-.646-2.259-1.011l-1.302-.57c-1.207-.525-.477-.507 2.192.053Z"/>
    <path fill="#DCA453" d="m51.618 56.527.078.018c.274.097.592 1.205.656 1.672.063.467.003.63-.227.666-.23.037-.329-.313-.33-.57-.001-.259-.256-.945-.323-1.088-.068-.142-.181-.193-.185-.347-.004-.155.135-.43.409-.333Zm1.47-.608.078.018c.274.097.592 1.206.656 1.672.064.467.004.63-.226.667-.23.037-.33-.314-.33-.572-.002-.258-.257-.943-.324-1.086-.067-.143-.18-.194-.185-.348-.004-.154.135-.43.41-.333Z"/>
    <path fill="#D19743" d="m51.587 56.525.109.02c.134.047.278.335.397.672l-.492.343-.097-.259a1.665 1.665 0 0 0-.032-.076c-.068-.142-.181-.193-.185-.347-.003-.11.067-.283.207-.337l.093-.016Zm1.462-.702.11.018c.11.04.23.258.336.536-.17.085-.347.181-.53.287l-.023-.046c-.067-.143-.2-.25-.204-.404-.003-.11.073-.302.217-.368l.094-.023Z"/>
    <path fill="#8A532D" d="M54.659 55.602c.34.257.77.393 1.267.315.497-.078 1.444-.458 2.09-.967.645-.509.79-.749 1.022-1.118.233-.37.144-1.778-.33-2.254-.473-.476.015.247-.07.994-.084.746-.835 1.92-1.575 2.325-.74.407-2.744.448-2.404.705Z"/>
    <path fill="#C28D59" d="M55.19 55.854c.31.08 1.238-.143 2.003-.564.765-.421 1.627-1.24 1.79-1.573.163-.333.257-1.8-.568-2.454-.824-.654-3.984-2.045-4.57-2.253-.39-.14-.678-.24-.866-.301.964 1.333 1.513 2.062 1.648 2.184.202.183.887.565 1.44.887.552.322 1.418.596 1.406 1.07-.013.475-.222.573-.436.735-.215.162-.946.588-1.304.569-.357-.02-.68-.366-.88-.813-.2-.447-.296-1.154-.702-1.63a5.223 5.223 0 0 1-.596-.818l-1.311-2.45-3.14 1.808c1.056.841 1.745 1.337 2.067 1.487.484.226.787.3.956.453.17.151.861.636.88.828.017.192.006.413.086.55.08.136.684 1.006 1.058 1.54.373.533.73.666 1.04.745Z"/>
    <path fill="#BD7E59" d="m49.104 50.251 3.14-1.807 1.31 2.449.073.122c-1.187-.268-2.016-.337-2.486-.204-.341.096-.477.318-.408.667a24.176 24.176 0 0 1-1.335-.994l-.294-.233Zm3.875-1.542.867.3c.274.098 1.114.456 2.014.875-.5.332-.747.584-.743.755.004.18.06.409.169.687l-.328-.2a2.672 2.672 0 0 1-.331-.233l-.102-.112c-.228-.27-.743-.96-1.546-2.072Z"/>
    <path fill="#E1AE86" d="M51.519 51.636c-.416-.335-.516-.577-.16-.426.357.151 1.43 1.185 1.575 1.353.145.169.467.849.755 1.382l.094.184c.238.494.73 1.293 1.388 1.449.658.155 1.436-.178 1.975-.5.54-.322 1.592-1.003 1.8-1.836.09-.364.092-.916-.121-1.466.372.714.286 1.68.158 1.94-.163.333-1.025 1.153-1.79 1.574-.765.42-1.694.643-2.002.564-.31-.079-.667-.212-1.04-.745l-1.058-1.54a.626.626 0 0 1-.067-.254l-.02-.296c-.018-.192-.71-.677-.879-.828a1.17 1.17 0 0 0-.322-.183l-.158-.231a.826.826 0 0 0-.128-.14Z"/>
    <path fill="#925728" d="M54.418 52.134c.198.413.296.814.443 1.14.2.448.544.747.901.766.313.017.846-.214 1.135-.404l.103-.071c.214-.162.43-.458.473-.714.012-.073-.018-.142-.053-.207.138.159.201.36.16.512-.096.366-.425.67-1.212.996-.787.327-1.158-.007-1.457-.462-.12-.182-.208-.443-.283-.72l-.21-.836Zm-1.961.318-.33-.261c-.17-.152-.472-.227-.956-.453-.258-.12-.75-.461-1.478-1.024l-.59-.463.551-.312 1.204 1.139c.115.122.886.601 1.19.872.125.11.269.29.409.502Z"/>
    <path fill="#E5B389" d="M59.235 33.023c-.157-.21-.626-.332-1.127-.195-.5.137-4.013 2.745-4.481 2.967a1.314 1.314 0 0 0-.282.218c-.223-.024-.46.083-.711.322-.377.36-2.938 2.112-3.43 2.6-.494.488-2.272 1.846-2.416 1.982-.143.137-3.291 2.488-4.044 3.184-.753.697-.97 1.085-1.282 1.368-.311.283-1.18.83-1.484 1.055-.305.225-1.135.186-1.385.41-.25.224-.575.32-1.009.54-.433.22-1.97 1.246-2.47 1.621-.501.375-1.477 1.266-2.259 1.854-.782.587-.972.546-1.657 1.148-.684.602-1.405 1.328-1.585 1.557-.18.23-.868.598-1.309.918-.441.32-.69.737-1.284.857-.595.12-1.082.52-.398.862.685.343 5.325.806 6.704.74 1.38-.066 3.16-.74 4.327-.878 1.167-.138 3.23-.553 4.43-.908 1.2-.356 4.515-1.907 6.233-2.858 1.718-.951 3.545-2.205 3.752-2.41.138-.136.208-.677.212-1.623 1.17.383 1.806.556 1.909.519.155-.056 4.231-2.69 4.575-2.975.343-.284.66-.95-.116-2.196-.775-1.245-1.881-4.902-1.404-6.573.478-1.67 1.856-2.886 1.986-3.094.13-.208.163-.803.005-1.012Z"/>
    <path fill="#F7BF7E" d="M59.235 33.023c-.157-.21-.626-.332-1.127-.195-.5.137-4.013 2.745-4.481 2.967a1.314 1.314 0 0 0-.282.218c-.223-.024-.46.083-.711.322-.377.36-2.938 2.112-3.43 2.6-.494.488-2.272 1.846-2.416 1.982-.143.137-3.291 2.488-4.044 3.184-.753.697-.97 1.085-1.282 1.368-.311.283-1.18.83-1.484 1.055-.305.225-1.135.186-1.385.41-.25.224-.575.32-1.009.54-.433.22-1.97 1.246-2.47 1.621-.501.375-1.477 1.266-2.259 1.854-.782.587-.972.546-1.657 1.148-.684.602-1.405 1.328-1.585 1.557-.18.23-.868.598-1.309.918-.441.32-.69.737-1.284.857-.595.12-1.188.288-.503.63.684.343 5.398.785 6.777.719 1.38-.066 3.16-.74 4.327-.878 1.167-.138 3.23-.553 4.43-.909 1.2-.355 4.515-1.906 6.233-2.857 1.718-.952 3.427-2.137 3.634-2.342.138-.136.208-.677.212-1.623 1.208.397 1.865.577 1.968.54.155-.056 4.065-2.702 4.409-2.986.343-.284.487-.89-.288-2.136-.776-1.245-1.625-4.726-1.147-6.397.477-1.67 2.003-3.204 2.133-3.412.13-.208.188-.546.03-.755Z"/>
    <path fill="#EBA059" d="M57.07 37.198c-.444 1.569.273 4.719 1.003 6.131l.146.258c.775 1.246.631 1.852.288 2.136l-.219.162c-.906.65-4.051 2.773-4.19 2.824-.103.037-.76-.143-1.968-.54-.004.946-.074 1.487-.212 1.623l-.145.12c-.49.377-1.985 1.39-3.489 2.222-1.718.951-5.034 2.502-6.233 2.857-1.2.356-3.263.771-4.43.909-1.168.138-2.947.812-4.327.878-.78.037-2.628-.088-4.21-.266.312-.316.447-.867.95-.937l.258-.021c2.12-.055 3.262-2.826 5.108-3.624 1.846-.798 3.037-1.604 3.613-2.31.577-.708.676-1.405 1.817-2.645l2.55-1.304c1.792-.93 2.989-1.592 3.59-1.985 1.28-.833 3.833-3.94 4.617-3.632.785.308 1.804.432 2.378-.25.233-.278.807-.771 1.548-1.371l1.557-1.235Z"/>
    <path fill="#DE944D" d="m58.073 43.33.146.257c.775 1.246.631 1.852.288 2.136l-.219.162-1.944 1.34c-1.078.73-2.166 1.455-2.246 1.484-.103.037-.76-.143-1.968-.54-.004.946-.074 1.487-.212 1.623l-.145.12-.294.217a36.821 36.821 0 0 1-2.849 1.81l-.346.195c-1.718.951-5.034 2.502-6.233 2.857-1.2.356-3.263.771-4.43.909-1.168.138-2.947.812-4.327.878-.78.037-2.628-.088-4.21-.266.312-.316.748-.55 1.252-.621l.257-.021a3.91 3.91 0 0 0 .994-.16l2.074-.207c.68-.073 1.18-.133 1.5-.181 1.544-.233 8.73-3.591 10.56-5.142 1.829-1.55-.568-2.52.414-3.5.982-.978 4.654-1.592 5.696-2.208l.521-.326a107.133 107.133 0 0 0 4.87-3.381c.217 1.001.533 1.948.85 2.564Z"/>
    <path fill="#A55F33" d="M35.08 50.187c.073.217.055.552-.053 1.005l-.076.286c-.234.81-.449 1.902-.619 2.346l-.055.123c-.178.321-.25.691-.235.868.015.176-.241.912-.33 1.175-.06.175-.146.39-.258.643l.142-.579c.046-.173.09-.326.134-.46l.064-.184c.09-.243.107-.31.087-.377l-.087-.218c-.077-.242-.162-.356-.198-.239l-.043.287c-.06.352-.184.92-.218.787l-.03-.185a17.957 17.957 0 0 1-.07-.81c-.049-.378-.049-.614 0-.708l.411-.672c.285-.485.622-1.122.678-1.556l.163-1.32.593-.212Z"/>
    <path fill="#BE804A" d="M41.473 46.744c.944-.073 1.736.607 3.178 1.23 1.334.577 3.862 2.48 4.858 3.448-.394.238-.81.482-1.225.712-1.604.888-4.599 2.298-5.966 2.77l-.267.087c-.056.017-.114.034-.174.05-1.004.042-1.663-.072-1.984-.34-.541-.452-1.822-2.734-2.422-3.438-.6-.704-2.27-1.852-2.285-1.852l1.14-.57.27-.132 1.562 1.308c1.106.917 2.402 2.598 2.702 2.89.3.294 1.713-.714 2.173-1.204.425-.453-.119-1.267-.796-2.164l-.171-.226c-.668-.874-1.108-1.343-1.71-1.667l-.235-.115c-.731-.327.408-.713 1.352-.787Z"/>
    <path fill="#2E2B2B" d="M29.967 53.341c.316.213.795.42.725.505-.071.087-.168.21-.258.282-.09.07-.89.022-1.35 0l-.098-.004c.279-.178.53-.345.627-.47.056-.07.164-.19.307-.338a.214.214 0 0 1 .047.025Zm12.803-3.468c.302.003.903.23 1.164.363.261.132.22.238.132.415-.088.178-.375.108-.473.08-.097-.026-.698-.227-.823-.242-.125-.015-.355.084-.329.12.026.037.205.087.33.214.124.126-.147.406-.252.437-.104.032-.703-.251-.992-.366-.288-.114-.395.05-.212.095.184.045.202.289.212.36.01.073-.163.345-.31.297A75.023 75.023 0 0 0 40 51.299c-.083-.023-.138.082.082.134.22.052.087.293.04.413-.047.12-.803-.086-.957-.14-.135-.049-.23-.038-.243.126v.161c-.01.223-.107.467-.204.469-.108.001-1.072-.158-1.336-.23-.263-.07-.082-.54.095-.527.176.014 1.143.106 1.241.14.098.035-.002-.117-.087-.197-.085-.08-.098-.229.004-.385.103-.157.704-.122.91-.053.207.069.23.074.239-.144.008-.217.293-.353.474-.334.182.018.67.207.778.204.109-.004.176-.172.14-.327-.037-.154.188-.41.29-.373.1.036.652.208.791.253.14.045.275-.058.33-.078.053-.02-.15-.077-.145-.229.005-.152.027-.312.33-.309Zm2.513-.163c.107.093-.008.508-.17.506-.163-.003-1.232-.177-1.419-.364-.186-.186-.03-.424.146-.453.175-.028 1.337.217 1.443.31Zm1.254-.6c.106.093-.01.508-.172.506-.162-.002-1.23-.177-1.417-.363-.187-.187-.03-.425.145-.454.175-.028 1.337.218 1.444.311Zm1.032-.623c.143.106.069.522-.15.502-.219-.02-1.096-.245-1.282-.432-.187-.186-.03-.424.145-.453.176-.028 1.144.277 1.287.383Zm1.071-.62c.144.106.069.523-.15.502-.218-.02-1.076-.229-1.262-.415-.187-.186-.03-.425.145-.453.175-.029 1.124.26 1.267.366Zm1.123-.661c.144.106.07.522-.15.502-.218-.02-1.076-.23-1.262-.416-.186-.186-.03-.425.145-.453.176-.028 1.124.26 1.267.367Z"/>
    <path fill="#FFD895" d="M58.108 32.828c.5-.137.97-.015 1.127.195.158.209.1.547-.03.755l-.12.151c-.398.468-1.6 1.813-2.013 3.261-.448 1.566.27 4.724 1 6.139l.147.258c.404.65.558 1.125.565 1.472a4.03 4.03 0 0 1-.797 1.042l-.16.109.02-.035c.221-.302-.03-1.008-.26-1.902-.231-.893-1.576-3.806-1.397-6.145.18-2.34 1.32-3.502 1.9-4.025.582-.522.357-.815.284-1.048-.022-.071-.192-.121-.418-.158l.034-.02.118-.049Z"/>
    <path fill="#FFCA6F" d="m58.073 43.329.146.258c.404.65.558 1.125.565 1.472a4.03 4.03 0 0 1-.797 1.042l-.16.109.02-.035c.221-.302-.03-1.008-.26-1.902l-.116-.372c-.3-.882-.97-2.545-1.21-4.202.177-.556.423-1.101.683-1.62-.083 1.67.518 4.068 1.129 5.25Z"/>
    <path fill="#F0EEEB" d="M53.965 36.526c-.006.275-.783.91-1.126 1.232-.343.322-1.142 1.212-1.112 1.662.029.45.76 2.526.73 2.968-.03.442-.712 1.084-1.092 1.372-.38.288-1.175.787-1.531.793l-1.996-.087a5.587 5.587 0 0 0-.696.006c-.39.052-3.317 2.05-5.058 2.755l-1.179.432a34.497 34.497 0 0 0-3.077 1.348l-1.37.74c-.663.357-1.372.715-1.866.853-.616.173-1.838.644-2.578.904l.285-.173c.154-.096.33-.213.556-.382.782-.588 1.758-1.48 2.258-1.854l.408-.291c.663-.462 1.717-1.153 2.063-1.33l.574-.268c.166-.08.31-.16.435-.272.25-.224 1.08-.185 1.385-.41.305-.224 1.173-.772 1.484-1.055.311-.283.529-.671 1.282-1.368l.332-.288c1.083-.903 3.585-2.774 3.712-2.896l1.68-1.345c.155-.127.3-.249.427-.358l.308-.279c.458-.453 2.7-1.997 3.318-2.502l.113-.098c.251-.24.488-.346.71-.322l.079-.074c.363.268.544.463.542.587Z"/>
    <path fill="#E9E8E5" d="M53.965 36.526c-.006.275-.783.91-1.126 1.232-.343.322-1.142 1.212-1.112 1.662.029.45.76 2.526.73 2.968-.03.442-.712 1.084-1.092 1.372-.38.288-1.175.787-1.531.793l-1.996-.087a5.587 5.587 0 0 0-.696.006c-.39.052-3.317 2.05-5.058 2.755l-1.179.432a34.497 34.497 0 0 0-3.077 1.348l-1.37.74c-.663.357-1.372.715-1.866.853-.257.072-.62.197-1.01.336.201-.227.421-.436.66-.627 1.107-.888 3.06-1.87 4.363-2.223l.37-.086c1.183-.224 3.31-1.598 4.326-2.57l.214-.216c.799-.863 4.053-3.653 5.755-5.02l1.675-1.316c.576-.46 1.574-1.273 2.996-2.44a.197.197 0 0 1 .024.088Z"/>
    <path fill="#CDCDCD" d="m51.733 39.478-.006-.058c.029.45.76 2.526.73 2.968-.03.442-.712 1.084-1.092 1.372-.38.288-1.175.787-1.531.793l-1.996-.087a5.587 5.587 0 0 0-.696.006c-.39.052-3.317 2.05-5.058 2.755l-1.179.432a34.497 34.497 0 0 0-3.077 1.348l-1.37.74c-.149.08-.3.16-.45.238l-.193-.302a1.988 1.988 0 0 0-.091-.123l-.141-.152.514-.28c.292-.008.628.008.825.004.356-.008 1.305-.681 1.949-1.11l.104-.022c1.092-.207 2.986-1.392 4.071-2.338l.24-.084.23-.092c.836-.364 2.324-1.556 3.173-2.177.467-.34.791-1.128 1.026-1.833l.869-.723.185.416c.1.204.21.389.335.503.424.388.745-.197 1.064-.505l.095-.083c.182-.137.672-.672 1.47-1.606Z"/>
    <path fill="#91908F" d="M35.78 49.085c.214-.062.195.03.819.177.158.038.308.1.446.17l-.609.324-.288-.203a.42.42 0 0 0-.044-.024 6.969 6.969 0 0 0-.777-.267c.16-.076.31-.135.453-.177Zm4.35-2.667a.714.714 0 0 1 .331.02c.213.062.852.417 1.4.683l.223.106-.832.304-.36-.26c-.36-.253-.703-.467-.84-.434l-.297.099c-.525.19-1.455.571-1.528.603-.074.032-.02-.208.057-.4l-.126.067c.166-.08.31-.16.435-.272.25-.224 1.08-.185 1.385-.41l.151-.106Zm10.726-8.753c.099.02.162.048.175.069.038.064-.308.271-.667.544l-1.205.988a8.391 8.391 0 0 1-.528.406c-.287.19.56 1.92.839 2.596l.053.136c.11.301.558 1.195.892 1.952-.228.115-.44.195-.581.197l-2.195-.092c.543-.102 1.563-.134 1.728-.193.181-.064-.07-.42-.211-.797l-.052-.162c-.076-.288-.53-1.21-1.362-2.766-.698.706-1.094 1.032-1.188.979-.045-.025-.024-.203.025-.437l1.89-1.513.426-.358.308-.279c.132-.13.413-.352.76-.613l.893-.657Z"/>
    <path fill="#242424" d="M26.323 56.009c.248-.31.202-.655.063-.831-.138-.176-.733-.351-1.363-.14-.63.213-.808.628-.761.928.047.3.449.428.76.436.313.008 1.054-.083 1.301-.393Z"/>
    <path fill="#F4F1ED" d="M24.998 55.499c-.258.233-.282.408-.08.566.204.157 1.171.458 1.566.636.394.177 1.749.446 2.331.38.583-.067 3.851-1.9 4.712-2.633.86-.732 1.044-2.333 1.22-2.944.177-.612.195-.985.292-1.256.098-.271.249-.389.343-.555a.75.75 0 0 1 .249-.266c.596.079 1.015.176 1.259.291.365.173.877.64 1.677 1.646.8 1.006 1.108 1.384 1.716 1.895.608.511 1.268 1.005 3.49-.062 2.223-1.067 2.882-1.737 2.948-2.303.044-.377.07-.634.077-.772.68.837 1.448 1.496 2.306 1.978 1.285.722 1.841.955 2.64 1.097.8.142 1.269.077 1.35 0 .081-.077-.587-.712-.81-.9-.225-.187-.777-.394-1.028-.511-.252-.118-.969-.387-2.235-1.33-1.267-.943-3.133-2.747-3.784-3.323-.65-.576-2.155-1.828-2.89-2.033-.733-.206-1.354-.249-1.563.454-.206-.081-.675-.115-.82.19-.144.305-.077.671.555.956.63.284 1.631 1.142 2.251 1.507.62.364 2.344 1.392 2.656 1.565.312.174.37.604.212.729s-4.023 1.892-4.271 1.96c-.248.069-.392.029-.943-.611-.55-.64-1.314-1.761-2.043-2.405-.73-.644-.902-.906-1.316-1.104-.414-.198-.336-.205-.72-.134-.383.07-.778-.169-1.184.066-.406.234-1.05.65-1.203 1.85-.153 1.198-.383 2.53-.889 3.126-.505.597-4.59 2.51-4.888 2.585-.299.075-1.429-.048-1.697-.188-.269-.14-.498-.323-.775-.331-.277-.008-.452-.05-.71.184Z"/>
    <path fill="#D4D4D4" d="M41.26 45.826c1.979 1.202 3.201 1.966 3.667 2.294.7.491-1.365-1.289-2.198-1.714-.556-.284-1.045-.477-1.469-.58Z"/>
    <path fill="#D8CFCC" d="M34.454 52.724c-.175.63-.445 1.313-.927 1.724-.861.733-4.13 2.566-4.712 2.633-.582.066-1.937-.203-2.331-.38-.253-.114-.74-.278-1.11-.423l.227.005.09.005c.311.021 1.04.236 1.584.256.49.017.443-.226.25-.34l-.07-.034c-.244-.091.373-.202 1.027-.22.6-.015 2.361-.881 3.17-1.35l.196-.118c.562-.351 1.044-.572 1.382-.857l.185-.18c.334-.382-.051.64.167.338l.212-.264c.137-.164.312-.368.479-.57l.181-.225Zm10.65-3.178.484.146c.559.178.78.306.775.6l-.011.119c-.05.283-.06.826-.047 1.22-.413.419-1.186.92-2.531 1.566-2.223 1.067-2.883.573-3.49.062-.539-.453-.843-.8-1.46-1.573.115.05.215.111.301.184l.119.116c.448.514 1.368.946 1.447.67.041-.146.019-.335 0-.512.341.357.474.373.676.318.248-.069 4.113-1.836 4.27-1.961.158-.125.101-.555-.21-.729l-.411-.238a.235.235 0 0 1 .088.012Zm1.617 0c.873.93 1.51 1.502 1.91 1.717.6.322 1.384.168 2.326.637.218.109.387.09.51-.017.274.113.643.27.816.414l.202.18c.282.262.672.66.61.72-.082.077-.551.142-1.35 0-.8-.142-1.356-.375-2.641-1.097a7.855 7.855 0 0 1-1.959-1.574l-.285-.332-.14-.648Z"/>
    <path fill="#E8E6E4" d="M54.664 52.789c.257-.334.39-.647.402-.938.017-.437.106-.862-.456-1.644-.56-.783-1.644-2.088-2-2.747-.354-.66-1.943-4.063-2.4-5-.457-.938-1.214-2.365-1.273-2.88-.04-.343-.001-.535.115-.577-.112-.384-.298-.58-.559-.589-.39-.013-.736.294-.769.498-.032.205-.018.612.303 1.535.32.924 1.59 3.522 2.234 5.125.643 1.602 1.695 3.159 2.35 3.974.655.815 1.315 1.882 1.532 2.17.145.191.319.549.521 1.073Z"/>
    <path fill="#727272" d="M48.493 38.414c.26.01.447.205.559.589a.14.14 0 0 0-.06.043l-.094-.105a.74.74 0 0 0-.267-.148c-.402-.13-.744.267-.87.727-.058-.309-.055-.491-.037-.608.033-.204.378-.511.77-.498Z"/>
    <path fill="#DBD0D0" d="M52.98 48.935c.392.417 1.03.923 1.247.757l.383.515c.562.782.473 1.207.456 1.644-.011.291-.145.604-.402.938a6.308 6.308 0 0 0-.43-.938l-.863-1.272a20.686 20.686 0 0 0-.564-.782l-.196-.251c-.26-.324-.584-.766-.92-1.281.497.303.928.286 1.288.67Z"/>
    <path fill="#343434" d="M50.78 37.967c.249-.163.62-.428.254-.472-.367-.043-.615-.133-.847-.378-.232-.244-.807-.516-1.605-.257-.798.26-1.048.958-1.191 1.495-.144.536-.806 1.267-1.028 1.612-.221.344-.052.686.166.56.218-.127 1.05-1.222 1.195-1.615.145-.392.525-1.248.907-1.417.381-.168 1.254.186 1.206.472-.048.285-.016.813.074.674.09-.139.62-.51.87-.674Z"/>
    <path fill="#CA875C" d="M32.956 60.422c-1.078.37-2.252.257-2.64.19-.386-.068-.83-.741-.599-1.557.231-.815 1.127-1.456 1.744-1.64.617-.183 1.587-.332 2.162.075.575.406 1.03 1.03 1.021 1.496-.008.466-.61 1.065-1.688 1.436Z"/>
    <path fill="#E89953" d="M32.848 60.057c-1.078.37-2.273.25-2.66.182-.387-.067-.701-.368-.47-1.184.23-.815 1.126-1.456 1.743-1.64.617-.183 1.587-.332 2.162.075.575.406.84.637.831 1.103-.008.466-.528 1.094-1.606 1.464Z"/>
    <path fill="#F6AD75" d="M33.282 57.953c.1-.09.242.007.355.056.113.05.523.455.457.665-.066.21-.446.38-.736.416-.29.035-.896-.114-1.06 0-.165.114-.749.246-1.039.444-.29.199-.58.042-.958 0-.284-.03-.205.404-.1.709-.4-.071-.714-.372-.484-1.188.024-.084.055-.167.092-.247l.064-.017.115-.02c.27-.028 1.186.223 1.475.247.288.023 1.018-.325 1.193-.398.175-.074.526-.576.626-.667Z"/>
    <path fill="#A55E34" d="m33.623 57.49.157.107c.031.22-.108.508.017.791.119.267-.217.604-.635.505-.417-.099-.573-.152-.814-.008-.241.145-.71.278-.874.293-.117.068-.189.14-.217.215-.066.178-.265.213-.526.18-.262-.033-.33-.267-.334-.412-.004-.145-.059-.077-.402-.153-.116-.026-.224.07-.316.213l.038-.166c.231-.815 1.127-1.456 1.744-1.64.617-.183 1.587-.332 2.162.075Z"/>
    <path fill="#BD7E45" d="M48.369 56.283c.008.323-.308.932-1.097 1.427-.789.495-1.964.844-2.893.676-.93-.168-.914-1.505-.76-2.042.152-.537.767-1.359 1.674-1.678.908-.319 1.694-.285 2.313.156.62.44.754 1.138.763 1.46Z"/>
    <path fill="#DD9457" d="M48.325 55.995c.008.322-.311.903-1.061 1.318-.75.416-2.103.881-3.032.713-.929-.168-.767-1.145-.614-1.682.153-.537.768-1.359 1.675-1.678.908-.319 1.694-.285 2.313.156.62.44.71.85.719 1.173Z"/>
    <path fill="#B66A34" d="M47.606 54.822c.153.108.274.215.37.32-.658-.144-.696.145-.519.378.196.258.709.914-.378 1.025-.207.021-.582.258-.979.437-.206.093-.573.268-1.1.524-.487.183-.585-.126-.98-.415-.246-.18-.423.106-.323.64-.307-.37-.19-.996-.079-1.387.153-.537.768-1.359 1.675-1.678.908-.319 1.694-.285 2.313.156Z"/>
    <path fill="#8E4B1B" d="m46.657 54.467.18.064.14.076c.297.23.153.82.32.926.168.106.332.36.369.613.036.254-.618.306-.792.237l-.378-.188c-.209-.1-.437-.185-.542-.103-.183.144-.61.553-.654.804-.042.252-.198.554-.523.61-.324.054-.76-.567-.822-.711a1.743 1.743 0 0 1-.018-.99l.078-.195a2.857 2.857 0 0 1 1.278-.944c.493-.173.95-.242 1.364-.199Z"/>
    <path fill="#BB6C2F" d="M28.985 55.134c-.41.105-.946.293-.906.483.04.19.873 1.853 1.227 2.281.354.428.707.75 1.231.852.525.102 1.297.199 1.872-.183.574-.383.91-1.208.917-1.773.005-.565-.117-2.348-.165-2.63-.047-.28-.178-.793 0-.96-.112-.19-.248-.217-.398-.164-.15.054-1.325.927-1.672 1.088-.347.16-1.696.901-2.106 1.006Z"/>
    <path fill="#E4984E" d="M28.985 55.134c-.41.105-.946.293-.906.483.04.19.862 1.685 1.216 2.113.354.428.703.757 1.227.859.524.102 1.297.199 1.871-.184.575-.382.911-1.208.917-1.772.006-.565-.101-2.187-.149-2.468-.047-.281-.178-.794 0-.96-.112-.19-.248-.218-.398-.165-.15.054-1.325.927-1.672 1.088-.347.16-1.696.901-2.106 1.006Z"/>
    <path fill="#EDA354" d="m32.417 53.258.201 2.092c.02.24.033.433.04.578l.005.129c.015.622-.015 1.565-.676 1.986-.66.42-1.336.213-2.029-.392-.419-.366-.884-1.162-1.395-2.387a4.18 4.18 0 0 1 .422-.13c.137-.035.378-.14.652-.272l1.454-.734c.246-.114.908-.586 1.326-.87Z"/>
    <path fill="#9D603C" d="M30.722 57.42c-.18.114-.274.543-.209.727.066.184.564.326.713.1.148-.228.126-.58-.038-.768-.164-.188-.285-.173-.466-.06ZM31.91 57.178c-.043.21.2.575.378.655.178.081.627-.179.567-.443-.06-.265-.33-.494-.578-.506-.25-.012-.323.085-.367.294Z"/>
    <path fill="#FAB66C" d="m32.417 53.258.094.996-3.029 2.826c-.287-.431-.594-1.037-.919-1.816a4.18 4.18 0 0 1 .422-.13c.137-.035.378-.14.652-.272l1.454-.734c.246-.114.908-.586 1.326-.87Z"/>
    <path fill="#FEC772" d="M30.836 57.55c-.08.016-.186.287-.221.714-.036.426-.002.965.025 1.045.026.08.372.12.442-.003.07-.122.067-1.467.06-1.615-.007-.15-.227-.158-.306-.141ZM32.4 57.074c-.177-.076-.364.002-.353.156.01.155.722 1.098.774 1.208.052.109.287.319.52.227.232-.091.284-.22.153-.334-.132-.115-.73-.936-.885-1.1-.156-.165-.03-.082-.208-.157Z"/>
    <path fill="#DF944C" d="M46.04 56.453c.688-.3.926-1.702.803-2.691-.124-.99-.773-3.072-.889-3.235-.116-.164-.01-.514-.233-.51-.224.004-3.027 1.5-3.517 1.773-.49.272-.846.346-1.035.59-.188.245.309 1.252.665 1.77.356.52 1.11 1.537 1.94 1.942.829.405 1.576.662 2.265.36Z"/>
    <path fill="#D68A45" d="M45.105 50.282c.122.167.215.316.278.448.334.69.844 2.347.906 3.56.062 1.211-.58 1.784-1.213 1.756-.632-.029-1.605-.64-2.483-1.786a5.988 5.988 0 0 1-1.036-2.157l.405-.187 1.804-.96c.394-.205.8-.413 1.139-.581l.2-.093Z"/>
    <path fill="#874823" d="M44.49 55.127c-.18.115-.212.514-.147.698.066.184.562.32.656.081.094-.24.11-.556-.054-.744-.164-.188-.273-.149-.454-.035ZM45.53 54.749c-.025.212.213.443.439.49.226.047.544-.303.417-.527-.127-.224-.274-.3-.524-.291-.25.01-.307.115-.332.328Z"/>
    <path fill="#E9A35B" d="M45.105 50.282c.122.167.215.316.278.448l.137.312.072.187-3.347 2.521a6.002 6.002 0 0 1-.688-1.647l.405-.187 1.804-.96 1.139-.581.2-.093Z"/>
    <path fill="#F5C190" d="m45.303 50.58-2.514 1.136a24.96 24.96 0 0 1-.705.3c-.249.1-.317.079-.204-.062l.082-.038 1.804-.96 1.139-.581.2-.093c.078.107.144.207.198.299Z"/>
    <path fill="#AF6934" d="m46.222 51.409-.143-.58.202.62c.224.73.488 1.718.562 2.313.123.989-.115 2.39-.804 2.69-.689.302-1.436.045-2.265-.36-.83-.405-1.584-1.423-1.94-1.942-.31-.452-.728-1.275-.705-1.64.361.852 1.196 2.082 1.822 2.64.677.602 1.36.996 1.887 1.108.526.112.918-.072 1.272-.41.353-.337.41-.974.467-2.017.028-.506-.09-1.313-.355-2.422Z"/>
    <path fill="#E9AD61" d="M44.705 55.205c-.157-.019-.32.065-.302.62.017.555-.042 1.458.302 1.462.343.003.262-.472.27-.621.007-.15-.005-1.063-.017-1.207-.012-.143-.096-.235-.253-.254ZM46.103 54.577c-.224-.068-.461-.003-.466.185-.005.188.227.25.52.503.292.252.6.704.632.817.03.112.527.208.642.053.115-.155-.296-.523-.477-.727-.181-.203-.627-.763-.85-.831Z"/>
    <path fill="#E1DEDD" d="M54.812 65c.054-.365.803-1.676 1.173-2.543.37-.868 3.306-5.59 3.947-6.41.64-.82.915-1.076 1.377-1.25.462-.172 1.828-.679 1.996-1.038.168-.36.485-1.307.942-1.66.457-.352 6.32-2.854 7.359-3.295 1.038-.441 4.061-1.755 4.518-1.911.457-.157.841-.09 1.352.347.51.435 1.846 1.943 2.025 2.116.178.174.872.096.898.16.017.041.266 1.131.747 3.27l-4.064 2.499-12.835 6.672c-6.326 2.273-9.47 3.287-9.435 3.043Z"/>
    <path fill="#C1B9B9" d="M54.812 65c.054-.365.926-1.47 1.296-2.339.37-.867 3.306-5.59 3.947-6.41.64-.82.915-1.076 1.377-1.248.462-.173 1.828-.68 1.996-1.04.168-.359.485-1.306.942-1.659.457-.352 6.32-2.854 7.359-3.295 1.038-.441 3.967-1.733 4.424-1.89.457-.157.84-.089 1.352.347.51.436 1.846 1.943 2.025 2.117.178.174.843-.13.869-.068.017.042.266 1.132.747 3.27l-4.064 2.5-12.835 6.672c-6.326 2.273-9.47 3.287-9.435 3.043Z"/>
    <path fill="#CCC8C8" d="M79.53 49.583c.178.174.843-.13.869-.068l.747 3.27-3.672 2.258.694-3.633c.177-.932.115-2.094-.187-3.485l.765.81c.377.409.702.768.784.848Z"/>
    <path fill="#2C2F28" d="M79.97 32.242c.665.02 1.608.477 1.756 1.78.148 1.304-.216 2.443-.914 3.188-.698.744-2.188 1.351-2.337 1.553-.148.201.321 1.523.49 1.973.17.45-.08.957.124 1.245.204.288 1.206.294 2.478 1.094 1.273.8 1.643 1.86 1.609 2.773-.035.913-1.181 2.15-1.868 3.021-.687.872-.272 1.597 0 2.341.272.744.302 1.187 0 1.43-.303.242-.375.076-.422 0-.046-.077-.243-1.098-.306-1.529-.063-.431-.184-1.109-.181-1.31.003-.202.038-.338.109-.634.071-.296.784-1.266 1.163-1.632.38-.367.938-1.346.952-2.321.013-.975-1.118-1.572-1.597-1.905-.48-.333-1.775-.596-2.18-.856-.405-.26-.752-1.402-.854-1.785-.102-.383-.602-1.687-.705-2.015-.104-.328-.278-.98-.27-1.226.009-.245.313-.793.44-1.063.129-.27-.124-1.094.12-2.342.242-1.247 1.73-1.801 2.394-1.78Zm.027.52c-.646-.018-1.47.56-1.81 1.259-.34.699-.155 1.73-.028 2.265.127.535-.193.908-.267 1.201-.074.294.07.788.208.768.138-.02.542-.255.992-.505a6.345 6.345 0 0 0 1.612-1.303c.554-.62.644-1.623.561-2.29-.083-.667-.622-1.376-1.268-1.395Z"/>
    <path fill="#A7A19F" d="m77.675 47.999.65.655c.785.77 1.42 1.173 2.098 1.227l.065.002.14.609c-.084 0-.168-.006-.253-.013-.76-.06-1.428-.437-2.183-1.124l-.52-.505-.224-.23c-.64-.66-.757-.702-1.377-.532l-.464.156-.618.232c-1.299.5-3.424 1.373-5.06 2.111l-1.664.773-2.591 1.264a1.586 1.586 0 0 0-.058.032c-.14.084-1.078 1.531-1.36 1.891-.298.381-.735.708-1.278.992a7.47 7.47 0 0 1-.628.292l-.468.177-.438.146-.024.015-.087.076-.122.14c-.259.32-.715.997-1.484 2.215l-.688 1.097a54.575 54.575 0 0 0-1.91 3.317c.12-.013 4.472-1.593 6.223-2.178.614-.205.528-.792-.064-.799-.592-.007-1.023-.173-1.068-.549-.092-.759.18-1.563 1.223-2.147.327-.183 1.841-.813 2.22-2.066.377-1.254.738-1.871 1.318-2.186 1.138-.62 5.605-3.092 8.702-3.985.79-.228 1.114-.14 1.721.37 1.051.886-.893 4.147.268 3.912 1.237-.25 2.675-.906 3.174-1.019.365-.083.525.683.477 2.298-16.62 6.53-24.968 9.873-25.042 10.028l-.509.15-.214.059a.28.28 0 0 1 .027-.143 52.858 52.858 0 0 1 2.944-5.379l1.226-1.944.349-.53c.529-.792.814-1.132 1.04-1.267l.121-.056.547-.187c.313-.115.61-.243.888-.388.474-.249.846-.527 1.083-.83l.817-1.172c.294-.411.58-.788.708-.865l.317-.167 1.427-.7a152.19 152.19 0 0 1 1.944-.92l1.448-.652 1.206-.519c1.899-.803 3.802-1.548 4.262-1.674.776-.212 1.12-.131 1.763.49Z"/>
    <path fill="#E2E2E2" d="M10.848 60.48c-.114-.087-.85.428-.848 2.52.002 2.092.892 3.005 1.408 3.751.516.746 2.738 2.668 4.804 3.34 2.066.672 3.184.783 3.528.914.345.13 1.141.41 1.418.35.276-.06.767.165 1.062.307.294.142 1.045.056 1.181.117.137.061.44.243 1.133.243h4.205c.434 0 .477-.446.45-.819-.028-.373-.249-1.045-.626-1.308-.376-.264-8.082-.79-10.212-1.34-2.13-.55-4.52-1.27-5.292-1.91-.772-.64-1.092-1.21-1.342-1.703-.25-.493-.639-1.303-.658-2.128-.02-.825-.097-2.245-.21-2.333Z"/>
    <path fill="#B6B6B7" d="M10.926 60.762c.07.474.118 1.431.133 2.052.016.707.305 1.403.544 1.898l.114.23c.25.493.57 1.063 1.342 1.704.773.64 3.162 1.359 5.292 1.909s9.836 1.076 10.212 1.34c.377.263.598.935.625 1.308.025.332-.006.72-.318.803l-.131.016h-4.205c-.692 0-.996-.182-1.133-.243-.136-.06-.887.025-1.181-.117-.245-.119-.628-.295-.908-.315l-.154.008c-.237.052-.856-.146-1.245-.287l-.173-.063c-.344-.131-1.462-.242-3.528-.914-.671-.219-1.36-.57-2-.969.267.086.533.162.785.216l.91.202c.554.135.459.163.675.328.295.225.746.058 1.394.151.647.093.374.364.891.543.444.152.728.047.902.094l.077.038c.16.127.39-.088.684-.31.294-.223.688.472 1.053.609.364.136.31-.54.705-.23.396.31.834.25 1.09-.07.257-.32.9.466 1.405.69.505.225.394-.11.594-.503.2-.392.437.31.833.504.396.194.413.068.502-.208.09-.276.443.23.788.518.346.286 1.237.204 1.347-.49.111-.694-.084-.972-.702-1.05-.617-.08-4.04-.392-6.084-.605-2.045-.212-4.252-.562-6.358-1.283-1.105-.378-2.07-.776-2.732-1.257a3.057 3.057 0 0 1-.936-1.11c-.106-.241-.275-.767-.661-1.488-.356-.666-.624-2.747-.514-3.469l.033-.148.033-.032Z"/>
    <path fill="#727272" d="M29.188 71.203c.025.332-.006.72-.318.803l-.131.016h-4.205c-.692 0-.996-.182-1.133-.243-.136-.06-.887.025-1.181-.117a4.238 4.238 0 0 0-.669-.27c.118-.019.208-.038.31-.036l.166.022c.235.055.712.069 1.016.105l.19.032c.241.063.68.061.793.106.114.045.61-.016.83.077.22.093.718.03.797-.121.078-.151.91.283.879.22-.03-.06.034-.168.211-.167.178 0 .696.207.968.222l.357-.005c.291-.021.629-.07.73-.138.098-.068.23-.276.397-.626l-.015.039.008.081Z"/>
    <path fill="#DFDFDF" d="M85.995 64c0-1.178-.546-1.951-.733-2.121-.186-.17-.073-.91.228-1.35.301-.442.086-1.053-.352-1.574-.439-.52-6.404-2.975-6.964-2.845-.56.13-12.639 4.242-13.957 4.697-1.318.456-4.818 1.747-5.569 2.001-.75.254-3.182.9-3.711 1.007-.53.107-9.127 1.34-9.827 1.373-.7.033-13.13.54-18.61.448-5.481-.093-14.192-.551-14.523-.448-.332.104.061 1.193 1.057 1.823.996.629 3.421 1.746 7.913 2.29 4.491.544 7.483.712 7.72.828.239.117.494.573.465.908-.028.335-.143.604 0 .634.144.03.75.056.945-.085.196-.14.498.223 1.352.292.853.069 1.604.144 2.58.144S44.741 72 46 72c1.26 0 2.408-.575 3.205-1.295.797-.72 1.447-.914 1.83-.85.384.065.379.696.707.725.328.03.533.046.568.242.034.197.425.895 1.124 1.011.699.116 2.276.167 4.562.167H72.16c2.884 0 3.807-1.008 4.17-1.178.364-.17.922.369 1.145.264.224-.104.651-.442 1.057-.264.406.179 1.021.097 1.16-.117.137-.214.51-.208.499-.125-.012.083.6.252.954-.197.352-.448.448-.646.76-.527s.607-.229.68-.555c.073-.326.365.114.52 0 .104-.076.276-.264.515-.566.816-.696 1.377-1.308 1.682-1.838.458-.794.692-1.719.692-2.897Z"/>
    <path fill="#E2E2E2" d="M78.174 56.11c.56-.13 6.525 2.325 6.964 2.845l.127.163c-1.129.299-4.327 2.025-5.167 1.832-.97-.224-.825-.91-1.132-1.145-.308-.235-1.089-.217-2.523.27-.553.087-2.015-.557-4.388-1.931l5.875-1.961c.125-.04.208-.064.244-.073Z"/>
    <path fill="#9C9C9C" d="m30.57 70.55.438.012.312.018c.13.01.215.026.226.081.028.13.328.588.698.723l.266.088.498.15c.483.137 1.111.296 1.701.398l-.7.002c-.976 0-1.727-.075-2.58-.144-.759-.062-1.082-.355-1.282-.321l-.07.03c-.196.14-.801.114-.945.084-.108-.022-.069-.181-.031-.402.232.035.458-.008.677-.128.376-.208.427-.608.792-.59Z"/>
    <path fill="#404040" d="m31.583 71.198.198.19c.205.19.514.437.966.53l.348.08c-.577-.026-1.099-.074-1.666-.12-.759-.062-1.082-.355-1.282-.321l-.07.03c-.196.14-.801.114-.945.084-.082-.017-.08-.113-.056-.256l.371.019c.134.003.263-.003.35-.035.233-.087.482-.348.828-.37.346-.023.78.01.958.17Z"/>
    <path fill="#D4D4D4" d="M84.108 65.514c-1.513 1.105-3.726 2.064-4.816 3.023-1.043.918.635 1.05 2.377.746l.237-.044c.484-.095.972-.163 1.464-.203-.112.131-.2.22-.263.265-.156.114-.448-.326-.521 0-.073.326-.368.674-.68.555-.312-.12-.408.08-.76.527-.318.404-.846.308-.94.224l-.014-.027c.01-.07-.263-.086-.428.046l-.072.079c-.138.214-.753.296-1.159.117-.406-.178-.833.16-1.057.264-.223.105-.781-.433-1.144-.264-.345.161-1.192 1.074-3.732 1.17l-.439.008h-14.68c-2.008-.008-3.402-.06-4.047-.167-.621-.103-.999-.666-1.1-.928l-.024-.083c-.035-.196-.24-.212-.568-.242-.328-.03-.323-.66-.706-.724-.341-.057-.892.089-1.57.628l-.26.221a5.237 5.237 0 0 1-.796.591c.566-.914 1.02-1.46 1.363-1.64.637-.333 2.039.037 2.888.005l.803-.058c1.403-.116 3.904-.349 4.72-.174.948.203 3.441.384 5.212.25l.394-.037c1.773-.199 11.723-1.775 12.132-1.687.41.089-.678 2.268.075 2.242.754-.026 2.034-2.19 2.389-2.768.04-.064 1.34-1.311-.076-.892-1.407.416-7.716 1.27-1.99-.965 5.728-2.236 6.544-2.658 7.623-3.166l.223-.107c1.278-.634 1.454 2.11-.058 3.215Z"/>
    <path fill="#B0B0B0" d="M81.705 69.821c-.175.03-.295.226-.56.562-.317.404-.845.308-.939.224l-.014-.027c.01-.07-.263-.086-.428.046l-.072.079c-.138.214-.753.296-1.159.117-.406-.178-.833.16-1.057.264-.223.105-.781-.433-1.144-.264l-.145.086c-.423.279-1.345 1-3.587 1.084l-.439.008h-14.68c-2.008-.008-3.402-.06-4.047-.167-.621-.103-.999-.666-1.1-.928l-.024-.083c-.035-.196-.24-.212-.568-.242-.159-.014-.24-.17-.324-.333l1.883-.15c1.455-.106 2.54-.16 3.254-.164 1.547-.007 5.326.366 6.497.337 1.172-.03 2.071.469 2.363.493.293.024.854-.674 1.524-.262.629.387-.048 1.008.84.595l.2-.097c1.184-.595 1.33.002 1.499 0 .168-.003.754-.08.892-.416.138-.337-.057-.518.368-.082.425.437 1.296.865 1.505.498.21-.368.085-1.182.788-.73.703.453.983.858 1.31.856.328-.002.144-.093.183-.542.039-.45.53-.84.902-.65a.85.85 0 0 0 .327.083c.031.118.107.186.244.181.236-.008.522-.224.816-.536.268.032.706.264 1.04.403.472.195.843-.6 1.336 0 .492.599.843.26 1.224-.428.203-.368.634-.306 1.292.185Z"/>
    <path fill="#828282" d="M51.94 69.933c.31.353 3.858.425 4.535.593.676.168.722.739.983.585.262-.154.108-.534.86-.348l.872.211c.34.078.61.13.788.137l.234-.006c.67-.032 2.453-.157 3.535-.03l.254.036c1.19.214 4.627.023 5.572.314.349.108.41.33.262.577l-12.354-.003c-2.008-.007-3.402-.059-4.047-.166-.621-.103-.999-.666-1.1-.928l-.024-.083c-.035-.196-.24-.212-.568-.242-.328-.03-.323-.66-.706-.724-.341-.057-.892.089-1.57.628l-.26.221a5.142 5.142 0 0 1-.269.226c.405-.628 1-1.252 1.217-1.308.297-.076 1.477-.043 1.787.31Z"/>
    <path fill="#404040" d="m76.256 70.865-.389.255c-.524.33-1.474.804-3.267.872l-.439.008h-14.68c-2.008-.008-3.402-.06-4.047-.167a1.377 1.377 0 0 1-.753-.412c.397.024.896.003 1.257-.117.631-.21 1.797-.374 2.405-.197l.755.237c.364.104.665.15.718-.04.089-.315.228-.446.856-.197l.535.214c.356.137.706.245 1.048.24l.254-.027c.59-.119.613.254 1.2.094l.36-.104c.381-.12.608-.241.514-.417-.12-.226.602.237.772.215.145-.018.178-.174.33-.085l.087.067c.232.212.775.21.629 0-.114-.163-.001-.096.365.022l.376.109c.612.157-.001.203.914.195l1.772-.018c.389-.008.654-.028.786-.078l1.054-.427c.423-.1.677-.1.76 0l.27.354c.134.165.266.293.289.167l.037-.386c.021-.126.066-.218.178-.185l.097.05c.335.229 1.064.21 1.37.22.305.01.283.262.587.108.267-.135.46-.43.776-.375l.144.047c.406.19 1.312.125 1.554-.113.133-.13.271-.167.526-.129Z"/>
    <path fill="#EDEDED" d="M47.275 68.958c1.982.012 1.956.655 1.902.975-.02.118-.144.767.053.748l-.025.024C48.408 71.425 47.26 72 46 72l-11.99.022c-.542 0-1.014-.023-1.472-.056l-.13-.448a.987.987 0 0 0-.027-.073l-.233-.455c-.13-.266-.265-.6-.284-.933-.03-.51.541-.658 2.144-.816l.752-.069c2.18-.192 10.534-.226 12.515-.214Zm-1.195-3.88c-2.003.394-5.415.73-9.54 1.055l-1.07.072c-6.305.363-16.469-.059-18.512-.05-2.07.008-1.793.734-.302 1.22 1.49.488 2.828.74 4.718 1.05l.838.127c2.225.323 5.84.894 6.196 1.04.353.145.324.303.434.678a.599.599 0 0 0-.174-.14c-.238-.117-3.23-.285-7.721-.829-4.492-.544-6.917-1.661-7.913-2.29-.996-.63-1.389-1.72-1.057-1.823.322-.1 8.577.33 14.071.44l1.24.017c5.798.038 17.153-.426 17.822-.457l.97-.11Zm10.475-1.669c-.094.488-.228.835-.403 1.041-.473.559-1.724.787-2.187.885-.464.098.428-.616.453-1.099.006-.101-.248-.181-.658-.238l1.177-.183.883-.214.735-.192Z"/>
    <path fill="#E7E7E7" d="M15.44 66.168h.713l.304.005c-1.51.117-1.16.759.199 1.203 1.49.487 2.828.74 4.718 1.048l3.878.592c1.556.248 2.943.488 3.156.576.35.144.324.3.431.67-.212-.217-.411-.395-.563-.455-.523-.205-11.259-1.354-12.94-2.213-1.682-.858-1.125-1.395.103-1.426Z"/>
    <path fill="#C8C8C8" d="M85.19 61.326c-.038.253-.019.47.072.553.187.17.733.943.733 2.121 0 .206-.007.404-.022.595-.155-.47-.464-.417-1.508.211-1.179.71-3.656 1.656-4.51 1.969-.568.208-.864.556-1.118.96l-.783 1.318c-.343.56-.73 1.126-1.031 1.202-.382.095-.582-.25-.565-.688l.016-.167c.08-.512-.12-1.07-.316-1.296-.123-.142-.852-.044-1.843.152l-1.992.428c-1.764.392-5.29.91-6.935 1.045l-.92.053c-1.685.081-4.624.192-5.127.316l-.7.156c-.692.147-1.53.308-1.318.225l.2-.064c.944-.273.749-.574 1.57-.717.82-.143 4.779-.337 6.926-.54l.612-.069c2.388-.3 7.155-1.185 8.192-1.449l.122-.033c.762-.232 1.467-.204 1.861.327.394.531.057 1.88.377 1.466.32-.414 1.397-2.448 1.783-2.85.385-.4 5.677-2.03 6.009-2.747.332-.716-.273-1.358-.31-1.66-.017-.126.071-.283.213-.461l.312-.356Z"/>
    <path fill="#E7E7E7" d="m84.457 58.608.022-.07.36.2c.15.09.254.163.299.217.438.52.653 1.132.352 1.573-.301.442-.414 1.18-.228 1.35.138.126.472.58.637 1.285l-.192.234-.077.109c-.22.355-.815.767-1.451 1.169-.591.372-3.14 1.352-4.123 1.7l-.197.068c-.776.262-.948.447-1.427 1.244-.479.796-.794 1.56-1.3 2.059-.505.499-.518-.13-.415-.374.104-.245-.04-.926-.283-1.33-.227-.377-.67-.359-2.259-.003l-.358.081c-1.882.433-5.655 1-7.266 1.182l-.575.052c-1.85.137-5.11.16-3.661.018l2.966-.286c1.587-.163 3.363-.373 4.654-.631l.979-.199c1.805-.372 3.622-.787 4.643-1.148l.743-.283c1.736-.64 7.009-2.625 8.021-3.19 1.132-.631.542-1.278.09-1.049l-1.154.46c-1.502.687-5.159 2.298-7.999 3.297-3.485 1.226-8.784 2.085-8.99 1.7-.206-.387 7.762-2.528 9.505-3.176l.46-.178c2.207-.88 7.775-3.372 8.202-3.868.46-.536.1-1.527.023-2.044a.588.588 0 0 1 0-.169Z"/>
    <path fill="#ECECEC" d="m63.355 61.112-.231.214-2.317 1.017c-1.484.64-2.495 1.049-3.034 1.226-1.03.337-1.989.42-2.73.516l-4.6.713c-1.823.275-3.707.545-4.526.612l-1.146.07c-1.775.115-5.044.347-8.594.423l-1.902.027c-4.952.048-13.587-.012-17.407-.277l-.89-.067c-1.787-.143-2.687-.284-3.254-.408l3.377.114c2.714.104 6.295.25 9.252.32l1.935.033c5.798.038 17.153-.426 17.822-.457l.477-.049c1.973-.235 8.877-1.228 9.35-1.324.53-.106 2.96-.753 3.711-1.007l4.707-1.696Zm14.819-5.002c.56-.13 6.525 2.325 6.964 2.845.438.52.653 1.132.352 1.573a1.985 1.985 0 0 0-.317 1.076c-.092-.097-.137-.19-.096-.278.16-.332.011-.918-.191-1.297-.149-.278-1.332.313-1.997.677l-.447.253c-.116.071-.304-.105-1.092-.93-.788-.824-2.319-1.823-2.427-1.902-.108-.078-.923.211-3.373 1.448l-.561.266c-2.83 1.283-9.522 3.6-10.619 3.939l-.098.03c-.745.21-1.004.287-1.148-.001-.13-.26-.113-.643.312-1.3l.157-.228c.272-.378.532-.888.78-1.529L76.348 56.7c1.012-.337 1.701-.56 1.825-.59Z"/>
    <path fill="#F89C31" d="M32.505 70.092c-.438.344-.048 1.435.006 1.491.055.057.689.439.815.439h9.218c2.003 0 4.093-.155 5.19-.439 1.098-.284 1.273-.75 1.213-1.408-.06-.658-.245-.67-.8-.712-.557-.042-3.901-.028-8.095.125-4.194.154-7.108.159-7.547.504Z"/>
    <path fill="#FFAF59" d="M32.962 70.082c-.364.108-.504.415-.475.714.03.298 2.462.166 3.391.091.93-.075 4.904-.312 7.572-.293 2.668.02 4.744.096 5.05-.157.307-.253.308-.828-.252-.844-.56-.016-6.102.03-8.163.106-2.061.077-6.76.274-7.123.383Z"/>
    <path fill="#E37D2A" d="M46.683 70.763c.306.137.108.626.438.588.33-.038.49-.415.879-.343.223.041.466.09.593.193-.186.153-.462.28-.858.382-1.006.26-2.846.412-4.69.436l-9.72.003c-.125 0-.76-.382-.814-.439-.028-.03-.033-.309-.007-.614l.057.082c.122.152.388.41.797.776-.204-.585-.204-.808 0-.67.308.205.604.73.85.622.246-.107.535-.616.775-.519.239.098.85.486 1.08.433.23-.053.874-.769 1.13-.639l.388.208c.261.128.577.239.855.144.444-.15 1.326-.665 1.457-.472.13.194.074.355 0 .472-.074.117.665-.145.83-.25.144-.092.208-.426.49-.372l.133.048c.354.18.967.084 1.036.25l-.002.074c-.09.268.821-.039.93.104.109.144.441.352.707.146.267-.206.849-.535 1.124-.472.275.064.423.41.557.34.135-.07.678-.648.985-.511Z"/>
    <path fill="#552A08" d="M46.053 71.49c.116.044.251.088.404.115l.242.026.278-.01c.235-.016.57-.054 1.005-.112l-.247.074c-1.006.26-2.846.412-4.69.436l-9.72.003c-.074 0-.328-.135-.534-.256.221.043.437.053.51.008l.057.053-.035-.102c-.029-.139.324-.03.465-.005l.05.004c.022-.004.087.01.167.027.07.04.135.055.197.03.108.009.208 0 .252-.057.11-.14.463.08.707.108.245.028 1.98-.001 2.511 0 .531.001.656-.055 1.145-.201.49-.147.376.094.564.093.188 0 .714-.134.901-.217.15-.066.444-.014.681.063l.165.06c.246.105.472.165 1.04.094.568-.07.618-.252 1.08-.217.396.03.535.126.637.13l.05-.006c.111-.037.678-.026.911-.124.182-.076.643-.174.752-.142.072.022.224.064.455.126Z"/>
    <path fill="#D5D4D4" d="M17.286 67.28c1.01-.058 12.764.94 12.553 1.085-.21.145-3.233.06-6.69-.182-3.457-.244-6.874-.847-5.863-.904Z"/>
    <path fill="#EDEDED" d="M17.261 67.402c1.645.165 2.841.278 3.59.339 3.858.312 6.795.5 8.767.657-.335.043-.83.054-1.488.03-.986-.034-2.594-.077-4.98-.245l-.714-.056c-2.372-.2-4.58-.541-5.175-.725Z"/>
    <path fill="#F1F1F1" d="M32.531 69.051c.043-.09.207-.8 2.561-.956 2.355-.157 9.198-.255 10.047-.132.848.124-6.853.286-7.871.336-1.019.049-2.915.11-3.337.217-.421.109-1.442.625-1.4.535Z"/>
    <path fill="#D0D0D0" d="M48.8 68.253c-.258-.486-.802-.975-1.762-.903-.64.048-1.056-.065-1.249-.34-.09.417.052.703.426.859.562.234 1.151-.219 1.683 0 .531.218 1.159.87.902.384ZM51.807 68.761c.18-.504 1.033-.642 1.938-1.041.906-.4 1.522-.804 1.64-1.333.116-.53.41.065.088.638-.321.573-.966.784-1.648 1.03-.682.244-1.312.305-2.018.706ZM56.199 68.167c.605-.28 5.163-1.607 5.433-1.618.27-.01 1.237-.022.34.29-.896.312-6.378 1.608-5.773 1.328Z"/>
    <path fill="#C3C0C0" d="M64.57 65.644c-.141-.116-.583-.065.945-.854 1.527-.789 6.696-3.078 6.354-2.802-.342.276-3.868 1.84-4.586 2.221-.717.381-2.571 1.552-2.713 1.435Z"/>
    <path fill="#EEE" d="M77.734 59.492c-.525.1-4.616 1.947-4.866 2.137-.25.19 2.834-1.124 3.483-1.395.648-.271 1.826-.557 2.243-.448.418.11.617.272.372.448-.246.176-1.328.578-1.62.708-.293.13-.396.227-.59.687-.195.46-.31.887-.914 1.248-.606.36-4.023 1.694-5.161 2.159-1.139.464 4.834-1.633 5.54-2.08.706-.447.836-1.303 1.039-1.519.202-.216 1.992-.84 2.23-1.39.237-.551-1.232-.654-1.756-.555Z"/>
    <path fill="#D0D0D0" d="M64.13 67.245c-.828.116-2.022.601-1.785.773.238.171 3.683-.595 5.199-.913 1.516-.318 7.606-1.903 9.633-2.826 2.027-.923-2.764.772-4.354 1.262-1.589.49-5.985 1.521-6.644 1.58-.66.059-1.222.009-2.05.124Z"/>
    <path fill="#D2CFCF" d="M69.803 67.984c-2.149.5-6.606.95-6.182 1.038.425.087 5.01-.157 8.578-.975 3.567-.818 7.655-2.693 6.979-2.712-.677-.02-3.964 1.26-5.575 1.683-1.61.422-1.652.467-3.8.966Z"/>
    <path fill="#F98436" d="M64.235 63.623c-.58.162-1.41.175-.909-.597.502-.772.89-1.57 1.003-2.07.114-.499.249-1.06-.616-1.117-.864-.055-1.584.06-1.207-1.215.377-1.275 1.27-1.169 1.793-1.474.525-.305 1.372-.905 1.603-1.93.23-1.024.413-1.586 1.549-2.206 1.135-.62 6.297-3.13 7.708-3.67 1.41-.54 2.125-.102 2.339.375.213.478.155 1.415-.27 2.55-.424 1.136-.275 1.663.633 1.342.907-.321 2.344-1.06 2.979-1.16.635-.1 1.2-.338 1.391.22.191.56.191 1.695.857 2.831.666 1.136 1.09 1.46 1.498 2.128.408.667.692 1.207.554 1.506-.139.298-2.338 1.332-2.53 1.444-.192.112-.473-.121-.942-.642-.47-.52-2.012-1.939-2.416-2.132-.405-.193-.914.043-1.347.319-.433.276-3.653 1.802-5.538 2.57-1.886.77-4.642 1.743-5.442 2.022-.8.28-2.11.744-2.69.906Z"/>
    <path fill="#FC8D40" d="M77.498 49.72c.192.43.164 1.231-.153 2.215l-.117.335c-.424 1.135-.275 1.662.633 1.34.907-.32 2.344-1.06 2.979-1.16l.545-.101c.396-.07.713-.068.846.323.191.558.191 1.694.857 2.83.666 1.136 1.09 1.46 1.498 2.128.408.667.692 1.207.554 1.506-.139.298-2.338 1.332-2.53 1.444-.096.056-.214.025-.367-.084l-.028-.022c-1.424-2.127-2.507-3.357-3.25-3.69-1.351-.605-9.832 3.188-11.042 3.267-1.211.08 6.58-5.243 7.891-7.262.713-1.098.395-2.205-.952-3.322l.297-.123c1.41-.54 2.125-.102 2.339.375Z"/>
    <path fill="#FF9850" d="M82.231 52.672c.191.558.191 1.694.857 2.83.666 1.136 1.09 1.46 1.498 2.128.408.667.692 1.207.554 1.506-.088.189-1.005.674-1.713 1.032-1.48-1.89-2.546-3.147-3.197-3.771-1.178-1.13-2.772-1.896-2.983-2.114-.188-.195-.213-.404-.07-.637.14.086.365.078.684-.035.907-.321 2.344-1.06 2.979-1.16l.545-.102c.396-.07.713-.068.846.323Z"/>
    <path fill="#F6AF71" d="m77.375 49.52.083.115c-.316-.081-.91.05-1.59.304l-.333.136c-1.606.685-7.142 3.269-7.867 3.766-.79.542-.93 1.007-1.357 2.261-.427 1.254-1.244 1.417-2.127 1.858-.883.442-.964.715-1.042 1.016-.078.302-.288-.021-.096-.639.191-.617 1.425-1.065 1.916-1.525.086-.08.176-.213.27-.383.298-.31.557-.71.67-1.209.052-.233.102-.442.162-.633.123-.275.248-.537.373-.765.213-.285.525-.54 1.014-.808l.808-.42c1.864-.943 5.711-2.795 6.9-3.25 1.209-.463 1.907-.208 2.216.176Zm4.467 2.804.009.107a.432.432 0 0 1-.247.358l-.376.17a21.6 21.6 0 0 1-2.905 1.009c-1.04.27-1.13-.003-1.056-.284.14.04.336.018.594-.073.907-.321 2.344-1.06 2.979-1.16.381-.06.737-.17 1.002-.127Z"/>
    <path fill="#FFA160" d="M77.4 55.203c1.556-.602 2.516-.494 4.515.197.57.198.937.2 1.16.078l.013.024c.666 1.136 1.09 1.46 1.498 2.128.294.481.524.896.578 1.202a2.255 2.255 0 0 1-.855.313c-.754.098-2.335-2.145-3.276-2.532-.942-.387-2.21-.571-2.77-.355l-9.008 3.46-2.8 1.081c-1.352.478 9.389-4.995 10.945-5.596Z"/>
    <path fill="#FF9A54" d="m75.72 57.235-9.265 3.564c-1.161.411 6.602-3.57 9.8-5.082l-2.145 1.148c-1.96 1.085-2.56 1.62 1.61.37Z"/>
    <path fill="#B76C3F" d="M78.04 57.853c.62-.364.95-.463 1.376-.148.425.316 2.935 2.798 3.09 2.804.103.004 1.045-.5 2.827-1.51l-.18.105a.344.344 0 0 1-.013.032c-.139.298-2.338 1.332-2.53 1.444-.192.112-.473-.121-.942-.642-.47-.52-2.012-1.939-2.416-2.132-.405-.193-.914.043-1.347.319-.433.276-3.653 1.802-5.538 2.57-1.886.77-4.642 1.743-5.442 2.022-.8.28-2.11.744-2.69.906-.58.162-1.41.175-.909-.597.502-.772.89-1.57 1.003-2.07.077-.338.164-.705-.057-.924.355.156.554.446.471.927-.142.817-.766 1.578-1.15 2.12-.384.543-.015.538.808.298.823-.24 5.537-1.972 7.91-2.868 2.375-.896 5.109-2.293 5.73-2.656Zm-1.623-8.756-.034.012c-.867.313-2.426.984-5.071 2.177-3.306 1.49-4.25 1.916-4.77 2.688-.521.772-.401 1.674-.915 2.355-.514.682-1.483 1.13-2.151 1.384-.669.253-1.056 1.174-1.054 1.566l.001.071.003.053c-.045-.174-.026-.422.08-.779.377-1.275 1.27-1.169 1.793-1.474.525-.305 1.372-.905 1.603-1.93.23-1.024.413-1.586 1.549-2.206 1.135-.62 6.297-3.13 7.708-3.67.505-.194.922-.262 1.258-.247Z"/>
    <path fill="#DB7136" d="M68.552 54.564c.175-.063.23.448.228.91-.003.46.2 1.047.63 1 .43-.048.616-.11 2.176-1.445 1.56-1.336 4.146-3.534 4.29-3.604.146-.07.271.238 0 .562-.27.324-3.34 4.065-4.127 4.92-.787.856-1.714 1.85-2.295 1.975-.581.126-1.473-.147-1.527-1.397-.055-1.25.45-2.858.625-2.921Z"/>
    <path fill="#FE9243" d="M68.552 54.564c.175-.063.23.448.228.91-.003.46.2 1.047.63 1 .43-.048.616-.11 2.176-1.445 1.56-1.336 4.146-3.534 4.29-3.604.146-.07.23.123-.042.446-.27.324-3.349 3.827-4.136 4.683-.787.856-1.707 1.86-2.288 1.985-.581.126-1.328-.043-1.393-1.242-.066-1.2.36-2.67.535-2.733Z"/>
    <path fill="#FEBB76" d="m76.012 51.513-4.833 4.159c-.48.404-.771.641-.876.713-.47.324-.863.408-1.212.185-.156-.1-.248-.344-.274-.733.077.353.272.672.593.636l.153-.02c.295-.054.568-.203 1.5-.98l3.69-3.134c.617-.518 1.066-.886 1.124-.914.076-.037.135-.001.135.088Z"/>
    <path fill="#FFB669" d="M78.985 54.883c-.799-.01-3.873 1.459-4.278 1.812-.405.354 3.113-1.284 4.259-1.38 1.145-.098 3.278.526 2.54.142-.737-.383-1.723-.563-2.521-.574Z"/>
    <path fill="#E6E6E6" d="M45.954 67.187c-.239-.331.392-.602 1.894-.811 2.251-.314 6.582-.476 6.964-.462.382.014.59.308.64.267.049-.04-.028-.51-.543-.569-.514-.059-4.96.159-7.146.457-1.458.199-2.116.512-1.974.941l.165.177Z"/>
  </g>
</svg>
