<svg xmlns="http://www.w3.org/2000/svg" viewBox="0 0 96 96">
  <defs>
    <path id="a" d="M0 0h96v96H0z"/>
  </defs>
  <g fill="none" fill-rule="evenodd">
    <path fill="#F4F4F4" d="M60.229 35.552c0 .34-.483.583-.751 1.206a152.35 152.35 0 0 0-1.578 3.941c-.518 1.35-2.442 2.77-6.171 4.43-3.729 1.662-13.842 5.942-15.525 6.833-1.684.89-2.343.89-3.374.89-1.03 0-1.685-.014-1.842-.179-.157-.165-.149-.433 0-.711.149-.278 1.008-1.195 1.34-1.195h.794c2.53-2.039 3.994-3.22 4.39-3.544.593-.486 2.444-1.804 3.762-2.517 1.318-.713 3.653-1.81 4.277-2.167.624-.357 1.877-1.515 2.449-2.072.572-.557 3.75-1.901 4.553-2.635.802-.734 4.694-2.517 5.347-3.06.654-.544.832-.792 1.301-.792.47 0 .781.17.905.43.123.262.123.801.123 1.142Z"/>
    <path fill="#D0CDCD" d="M40.295 47.368c.332.41-1.384 1.836-1.782 1.558-.355-.249-.8-.79-.905-1.778l.412-.317c.283-.21.632-.46 1.012-.72l.639-.429c-.05.464.353 1.35.624 1.686Zm3.731-4.02.827.57c.675.475 1.279.987 1.05 1.425-.321.612-1.46.181-1.9-.264l-.417-.435c-.26-.257-.473-.393-.577-.084-.156.463-.042 1.953-.468 2.03-.421.074-.071-1.684-.578-2.25L44 43.327l.025.021Zm7.24-2.917c-.203.539-2.664 3.635-3.304 3.34-.64-.295-.645-1.22-.626-2.142.004-.19-.056-.316-.161-.39l.654-.607c.062-.059.12-.114.171-.165.162-.158.535-.38 1.004-.633l.443.03c.916.071 1.95.22 1.818.567Zm2.37-3.312.366.221c.705.446 1.12.823 1.246 1.13.242.593-1.143 1.278-1.575.616-.342-.522-.64-.94-1.38-1.053l.142-.103.118-.098c.2-.184.595-.434 1.084-.713Z"/>
    <path fill="#4F4F4F" d="M59.201 33.98c.47 0 .781.17.905.43.123.262.123.801.123 1.142 0 .34-.483.583-.751 1.206l-.55 1.337c-.33.819-.726 1.817-1.028 2.604-.492 1.282-2.254 2.628-5.625 4.183l-2.63 1.162c-4.516 1.966-12.013 5.162-13.441 5.918-1.554.822-2.236.886-3.142.89l-.862-.003c-.667-.01-1.09-.047-1.212-.176-.157-.165-.149-.433 0-.711.149-.278 1.008-1.195 1.34-1.195l.637.003c.114.097.207.17.26.17.157 0 .551-.227.938-.509l.192-.145c.413-.323 2.527-1.633 4.27-2.574l1.95-1.031c.965-.504 1.75-.893 2.573-1.204 1.236-.468 2.636-.924 3.376-1.307l.44-.24c.705-.4 1.54-.933 1.688-1.09.18-.19.436-1.117 1.26-1.525.823-.408 4.224-.263 4.764-1.118.54-.855 3.165-3.963 3.391-4.318.194-.304.056-.603.012-1.046l-.012-.205.408-.346c.253-.205.433-.302.726-.302Z"/>
    <path fill="#1D1D1D" d="M59.102 33.984h.14c.224.59.332.974.325 1.155-.013.314-.458 1.114-1.136 2.51-.396.816-.789 1.862-1.178 3.14l-.167.562h-.294l.315-1.092c.151-.505.294-.947.428-1.327.336-.949 1.711-3.403 1.852-3.793.11-.305-.208-.727-.378-1.143l.093-.012Z"/>
    <path fill="#DCDCDC" d="M14.946 59.68c.679-.846 2.162-1.159 4.53-2.226 2.368-1.067 10.309-3.975 11.025-4.307.715-.332 16.997-7.455 18.572-8.343 1.575-.888 7.773-5.284 12.433-.352 4.66 4.932 6.028 5.792 6.028 7.786 0 1.994-1.022 5.375-5.14 6.168-4.12.794-19.818 2.078-24.863 2.922-5.045.843-15.126 4.558-18.855 3.079-3.73-1.48-4.409-3.88-3.73-4.726Z"/>
    <path fill="#EBEBEB" d="M36.459 55.159c.83.657-6.027 3.554-7.545 4.086-1.518.53-4.726.635-5.998.352-1.048-.233-5.528.691-8.091.283a.926.926 0 0 1 .12-.2c.631-.785 1.955-1.112 4.037-2.008l.494-.218c1.955-.881 7.709-3.017 10.059-3.922l2.083.375c2.85.536 4.464.953 4.841 1.252Z"/>
    <path fill="#C7C7C7" d="m61.506 44.452 1.262 1.322c3.65 3.787 4.766 4.663 4.766 6.464 0 1.994-1.022 5.375-5.14 6.168l-.651.115c-2.043.332-5.745.734-9.717 1.149-1.845-.476-3.47-1-4.69-1.503l-1.115-.467c-4.93-2.105-6.121-3.219-6.78-5.34-.27-.873 1.71-2.915 4.705-5.266l3.516-1.601a44.68 44.68 0 0 0 1.159-.556l.252-.133c1.575-.888 7.773-5.284 12.433-.352Z"/>
    <path fill="#B8B8B8" d="M67.534 52.238c0 1.994-1.022 5.375-5.14 6.168l-.651.115-.841.127c-2.132.305-5.4.659-8.876 1.022-1.845-.476-3.47-1-4.69-1.503l-.403-.169c-.016-.31.086-.615.325-.906 1.72-2.09 11.143-6.132 18.55-8.163 1.273 1.39 1.726 2.162 1.726 3.309Z"/>
    <path fill="#D0D0D0" d="M58.927 43.21c-.301 1.885-.446 5.175-3.592 6.366-4.295 1.626-5.055.407-6.847-.031-1.792-.439-3.306 2.494-3.715 4.026-.41 1.531-2.402 1.508-3.65.489-1.192-.975-.06-4.068 1.698-5.629l.83-.681c.308-.258.678-.573 1.094-.929l2.917-1.328 1.159-.556.252-.133c.977-.55 4.261-1.082 9.854-1.594Z"/>
    <path fill="#D8D8D8" d="M56.715 45.781c-.209 1.29-1.774 3.244-3.572 3.764-1.198.346-2.287.346-3.267 0 1.162-1.801 2.095-2.914 2.8-3.338 1.056-.637 4.248-1.715 4.04-.426Z"/>
    <path fill="#434343" d="M77.063 35.469c.575-.496 1.732-.47 2.254.328.52.8.16 2.815.142 4.004-.018 1.189-.029 3.379.316 4.55l.121.45c.45 1.765 1.47 6.566 1.565 8.364.069 1.324.066 3.07-.009 5.239l-1.32.229c-5.536.938-8.657 1.192-9.364.76-1.141-.696 1.491-9.866-.354-10.42-1.743-.522-4.659-2.189-7.768-4.638l-.551-.44c-3.313-2.69-5.511-3.343-6.519-3.66-1.007-.317-5.522 1.934-5.854 1.823-.331-.11-.494-.475-.515-.747-.021-.271.3-.271.816-.493.517-.222 1.789-1.452 2.526-1.865.737-.414 2.049-.877 4.071-.816 2.022.06 4.53 2.126 7.584 4.618 3.054 2.492 5.773 3.525 7.494 3.249 1.626-.261 2.363-2.482 2.482-4.11l.015-.282c.05-1.64.494-2.493 1.075-2.66.58-.166 1.2.443 1.415.6l.223.17c.1.07.19.108.308.079.197-.049-.061-.433-.53-1.664-.47-1.231-.198-2.173.377-2.668Zm.168.49c-.59.673.195 2.217.39 2.781l.453 1.282c.164.488.3.954.288 1.143-.023.378.218 1.116.31 1.087.093-.029.128-1.786.172-2.503.045-.717.333-2.39.14-3.24-.192-.852-1.162-1.223-1.753-.55Z"/>
    <path fill="#EEE" d="M55.74 39.249c1.458.03 2.746.376 3.864 1.04 1.676.995 2.324 1.754 4.091 3.201 1.767 1.448 4.658 3.05 6.362 3.36 1.135.208 2.48-.007 4.035-.642-.295 1.5-1.591 2.02-3.888 1.557-3.445-.695-8.975-3.94-10.417-5.614-.961-1.116-2.31-2.083-4.048-2.902Z"/>
    <path fill="#8E8989" d="M56.028 39.377c1.97.237 4.063 1.402 5.068 2.359 1.006.956 3.529 3.065 5.242 3.956s3.104 1.441 3.46 1.441c.357 0 1.604 6.901 0 9.73-1.603 2.827-7.682 4.345-11.958 4.345s-11.827-.264-16.828 1.533l-.554.2c-4.785 1.745-9.09 3.61-9.09 2.29 0-1.37 7.62-9.289 7.62-10.032 0-.717-2.522-.857-3.72-.866h-4.506c-1.35 0 .381-.652 3.873-1.657s9.871-5.319 11.253-6.72c1.383-1.403 3.376-3.954 4.644-4.814 1.269-.86 3.526-2.001 5.496-1.765Zm7.976 12.031c-.23-.094-2.18.824-4.941 2.051-2.762 1.227-4.342 1.83-4.31 2.065.032.235 3.145.393 5.407.17s4.364-1.138 4.613-2.087c.25-.949-.538-2.105-.769-2.199Zm-20.058.019c-.573-.013-1.097.205-1.571.651-.712.67-.052.983.41 1.229.308.164.694.232 1.158.205l.003-2.085Zm11.537-4.702-.309.01c-1.861.098-2.645 1.36-3.32 2.348-.675.988-2.967 1.27-2.967 1.541 0 .272 1.06.581 1.857.592.797.01 2.882-.507 3.973-.824 1.091-.318 6.036-1.555 6.176-1.717.14-.16-.43-.624-1.29-1.053-.86-.43-2.567-.984-4.429-.887Z"/>
    <path fill="#E9E9EC" d="M56.14 39.213c1.97.236 4.063 1.401 5.068 2.358 1.005.956 3.528 3.065 5.242 3.956 1.713.891 3.103 1.442 3.46 1.442.356 0 1.603 6.9 0 9.728-1.603 2.828-7.682 4.346-11.958 4.346s-11.827-.263-16.828 1.533c-5.001 1.797-9.555 3.967-9.555 2.596 0-1.37 7.62-9.29 7.62-10.033 0-.717-2.605-.954-3.81-.97h-4.506c-1.35 0 .382-.653 3.873-1.658 3.492-1.005 9.872-5.318 11.254-6.72 1.382-1.403 3.375-3.954 4.644-4.813 1.268-.86 3.526-2.002 5.496-1.765Zm7.97 11.937c-.232-.094-2.234.848-4.995 2.075-2.761 1.228-4.76 2.015-4.76 2.335 0 .32 3.428.514 5.874.32 2.446-.192 4.483-1.147 4.726-2.252.243-1.105-.615-2.384-.846-2.478Zm-20.052.112c-.63-.023-1.224.237-1.783.778-.84.813.046 1.136.578 1.411.355.183.757.242 1.205.175v-2.364Zm15.657-3.805c-.86-.429-2.728-.954-4.59-.856-1.862.097-2.698 1.399-3.373 2.387-.676.989-3.108 1.318-3.108 1.59s.873.78 2.012.78c1.14 0 2.984-.463 4.076-.78 1.09-.317 6.26-1.59 6.45-1.816.191-.226-.607-.876-1.467-1.305Z"/>
    <path fill="#CECED4" d="M56.14 39.213c1.83.22 3.764 1.24 4.836 2.15l.749.681c1.193 1.06 3.256 2.72 4.725 3.483 1.713.891 3.103 1.442 3.46 1.442.356 0 1.603 6.9 0 9.728-.617 1.089-1.897 1.983-3.482 2.671-.787-.716-1.094-2.053-.667-3.823l.103-.386c1.068-3.669-1.183-5.251-4.821-9.02-2.036-2.108-6.24-3.119-12.61-3.032l.598-.65c.59-.627 1.15-1.166 1.613-1.48 1.268-.859 3.526-2 5.496-1.764Z"/>
    <path fill="#D5D5D9" d="M56.14 39.213c1.277.153 2.606.697 3.657 1.32 1.128 1.262 1.782 2.613 2.739 3.472 1.598 1.435 3.02 3.943 3.8 5.655.78 1.712 2.542 5.836-4.206 7.668-7.074.963-11.435.413-13.083-1.65-2.544-3.185-3.283-6.165-6.242-4.367l-.294.189c-2.138 1.452-4.185 2.17-6.143 2.153l1.944-1.796c.947-.87 1.859-1.7 2.735-2.487l.885-.561c1.877-1.216 3.458-2.4 4.068-3.019.803-.815 1.813-2.017 2.766-3.05l1.175-.926c.941-.728 1.79-1.35 2.545-1.865 1.128-.508 2.445-.881 3.654-.736Zm2.17 14.367c-2.336 1.025-3.956 1.692-3.956 1.98 0 .32 3.43.514 5.875.32 2.446-.192 4.483-1.147 4.726-2.252.243-1.105-.615-2.384-.846-2.478-.11-.045-.616.143-1.413.484l-4.385 1.946Zm-2.756-6.99-.429.011c-1.862.097-2.698 1.399-3.373 2.387-.676.989-3.108 1.318-3.108 1.59s.873.78 2.012.78c.997 0 2.534-.354 3.634-.655l1.057-.293c1.74-.463 5.67-1.451 5.836-1.648.19-.226-.608-.876-1.468-1.305-.728-.363-2.178-.794-3.734-.86l-.427-.008Z"/>
    <path fill="#CCCDCF" d="M58.338 43.72c1.36 1.07 2.742 2.962 6.376 4.642l.562.25c4.057 1.74 3.836 4.951 3.572 6.035-.263 1.084-5.214 4.977-11.504 4.006l-1.257-.201c-5.463-.91-8.293-1.889-9.023-3.672-.757-1.848-.445-5.312 1.169-4.615l.184.095c.124.074.263.132.415.176-.12.049-.188.096-.188.142 0 .272.873.78 2.012.78.997 0 2.534-.354 3.634-.655l1.057-.293c1.74-.463 5.67-1.451 5.836-1.648.19-.226-.608-.876-1.468-1.305-.728-.363-2.178-.794-3.734-.86l-.143-.001c-.533-.38-1.286-.77-2.239-1.134l-.493-.18c-3.156-1.106 3.804-2.685 5.232-1.561Zm4.358 7.914-4.385 1.946c-2.337 1.025-3.957 1.692-3.957 1.98 0 .32 3.43.514 5.875.32 2.446-.192 4.483-1.147 4.726-2.252.243-1.105-.615-2.384-.846-2.478-.11-.045-.616.143-1.413.484Z"/>
    <path fill="#377C81" d="M46.96 47.741c-.511.255-2.108 2.504-2.461 4.096-.354 1.592.402 4.485 2.694 4.814 2.29.328 6.122-1.352 8.383-2.25 2.262-.899 11.026-4.64 11.435-4.835.409-.195 1.124-2.286.324-2.027-.8.259-11.908 3.495-13.798 3.955-1.89.46-4.242.705-5.021-.47-.78-1.177-.801-2.51-.801-3.024 0-.514-.245-.514-.756-.259Z"/>
    <path fill="#9DCFD3" d="M46.96 47.741c-.511.255-1.994 2.317-2.347 3.909-.353 1.592.403 4.485 2.694 4.814 2.291.328 6.122-1.352 8.384-2.25 2.261-.899 11.025-4.64 11.434-4.835.41-.195 1.01-2.1.21-1.84-.8.259-11.908 3.495-13.798 3.955-1.89.46-4.242.705-5.021-.47-.78-1.177-.801-2.51-.801-3.024 0-.514-.245-.514-.756-.259Z"/>
    <path fill="#89C7CA" d="M67.335 47.539c.8-.26.2 1.645-.21 1.84l-7.4 3.16c-1.09.459-2.111.887-2.91 1.217l-2.24.907c-1.401.563-3.108 1.226-4.667 1.584.35-.358.656-.763.942-1.206.705-1.094-.353-1.787-2.953-2.628-1.02-.33-2.112-.881-3.052-1.509.547-1.428 1.68-2.946 2.114-3.163.511-.255.756-.255.756.259l.005.32c.023.634.146 1.723.796 2.703.78 1.176 3.13.931 5.02.471l.73-.19c3.096-.834 12.342-3.53 13.07-3.765Z"/>
    <path fill="#7DBCBF" d="m67.125 49.379-7.4 3.16-2.91 1.217-2.24.907c-.648.26-1.36.542-2.094.805l.889-.448c3.668-1.786 11.464-5.03 11.492-5.435.038-.542-8.438 1.734-10.164 1.603l4.316-1.22c3.676-1.054 7.843-2.274 8.321-2.43.8-.258.2 1.646-.21 1.841Z"/>
    <path fill="#5FABAC" d="m47.715 48 .005.32c.023.634.146 1.723.796 2.703.478.721 1.546.908 2.737.839-.362.22-.89.33-1.619.278-2.206-.154-3.747-.746-4.764-1.297l-.025.061c.547-1.428 1.68-2.946 2.114-3.163.511-.255.756-.255.756.259Z"/>
    <path fill="#81C2C3" d="m47.715 48 .005.32.036.492c.06.548.21 1.246.583 1.92-.514.14-1.08.134-1.628.067-.576-.07-1.113-.275-1.512-.58.577-1.074 1.428-2.312 1.76-2.478.511-.255.756-.255.756.259Z"/>
    <path fill="#CEF4F6" d="m67.64 47.586-5.446 1.643c-4.463 1.33-7.462 2.166-8.996 2.508-2.265.506-3.333.25-3.917-.112 1.077.45 2.802.223 4.256-.13l.73-.19 3.607-1.01c3.898-1.112 8.932-2.585 9.461-2.756.143-.047.242-.023.304.047Z"/>
    <path fill="#B4B5B9" d="M31.67 53.919c.647.259 1.206.389 1.677.39.706 0 4.176-.16 4.67-.374.493-.214 3.287-1.922 4.03-2.577.743-.656 1.232-1.162 2.01-1.148.78.014 3.196-.123 3.967.455.77.579 1.655-1.05 1.938-1.422.283-.371 1.685-2.097 2.111-2.43.426-.332 1.485-1.151 2.336-1.057.851.094 2.286.546 3.353.918 1.068.371 1.893 1.055 2.443.332.55-.723.78-1.684.081-2.716-.699-1.031-4.367-1.178-7.143-.521-2.775.657-9.682 4.965-12.256 6.223s-6.63 3.517-8.135 3.459c-1.003-.039-1.364.117-1.083.468Z"/>
    <path fill="#7E7F83" d="m53.769 44.164 1.223.098c2.243.151 5.246.26 5.237.629-.012.443-.625 1.228-2.368 1.018l-1.122-.15c-1.357-.194-2.593-.398-2.97-.293-.433.12-1.483 1.064-2.016 1.6l-.158.162c-.45.478-2.373 2.19-3.947 2.327l-.919.084c-1.187.116-2.192.245-2.725.397-.592.17-1.391.707-1.758 1.037l-.116.113c-.28.303-3.638 2.474-4.142 2.647l-.25.066c-.324.074-.855.17-1.412.263l-.718.05a47.46 47.46 0 0 1-2.261.096c-.471 0-1.03-.13-1.678-.39-.281-.35.08-.506 1.083-.467 1.43.055 5.162-1.981 7.739-3.263l.396-.196c1.573-.769 4.763-2.676 7.64-4.193l1.37-.53c1.885-.71 3.326-1.16 3.872-1.105Z"/>
    <path fill="#EBEEF0" d="M30.688 52.457c-.989.682-1.375 1.081-1.16 1.196.324.172 2.937.439 4.929.404 1.992-.036 2.913-.18 3.364-.404.45-.224 3.415-1.823 4.407-2.843s1.892-1.062 2.719-1.043c.827.02 3.642.304 5.064-1.12 1.421-1.426 2.96-3.339 3.727-3.411.767-.073 3.799.506 4.633.65.834.143 2.805.438 2.294-1.648-.511-2.086-2.447-3.964-4.172-4.57-1.725-.607-3.711-.047-4.418.314-.706.361-2.248 1.331-2.978 2.502-.73 1.171-1.838 2.158-2.406 2.459-.567.3-1.666.725-2.633.942-.967.217-3.16.653-4.48 1.944-1.32 1.29-2.44 2.296-3.21 2.776-.772.48-2.415 1-3.497 1.405-.721.27-1.449.42-2.183.447Z"/>
    <path fill="#D9DCDE" d="M60.533 45.08c.233-.845-.767-3.58-3.542-5.004-2.776-1.424-6.412.443-7.11 2.086-.697 1.644.312 1.84 1.305 2.664.992.824 1.573.319 2.35.206.776-.112 2.79.133 4.255.415 1.465.282 2.51.479 2.742-.367Z"/>
    <path fill="#AAB0B4" d="M37.447 51.997c-.165.286-.81-.004-1.243-.035-.433-.031-1.167.107-1.292 0-.07-.06-.497-.134-1.282-.226l.758-.272c.766-.279 1.524-.576 1.98-.859.342-.213.752-.53 1.219-.929-.169.808-.014 2.103-.14 2.321Zm4.817-4.31c.228.489.2 1.144 0 1.286-.199.143-1.75-.14-2.126-.745l-.361-.58c.638-.553 1.44-.934 2.203-1.204-.01.464.16.973.284 1.242Zm6.221-1.065c-.073.262-.235.426-.485.492-.095.086-.407-.014-.936-.3-.527-.285-1.134-.708-1.822-1.27.58-.197 1.11-.422 1.449-.601a3.27 3.27 0 0 0 .412-.27c.868.858 1.433 1.767 1.382 1.949Z"/>
    <path fill="#E2E2E2" d="M79.317 35.797c.52.8.16 2.815.142 4.004-.018 1.189-.029 3.379.316 4.55l.121.45.207.854c.498 2.138 1.276 5.952 1.358 7.51.069 1.324.066 3.07-.009 5.239l-.578.099.08-1.407c.092-2.043.058-3.555-.103-4.534l-.454-2.682c-.373-2.15-.833-4.669-1.028-5.268l-.174-.437c-.341-.896-.99-2.837-1.148-3.093-.015-.514-.118-1.019-.831-1.281.197-.049-.061-.433-.53-1.664-.47-1.231-.198-2.173.377-2.668.575-.496 1.732-.47 2.254.328Zm-2.086.162c-.59.673.195 2.217.39 2.781l.453 1.282c.164.488.3.954.288 1.143-.023.378.218 1.116.31 1.087.093-.029.128-1.786.172-2.503.045-.717.333-2.39.14-3.24-.192-.852-1.162-1.223-1.753-.55Z"/>
    <path fill="#AEAEAE" d="m77.514 38.458.108.282.452 1.282c.136.407.254.798.282 1.026l.006.117c-.006.093.005.21.025.33l-.343-.456-.006-.128c-.036-.452-.188-.877-.822-1.11.197-.049-.061-.433-.53-1.664a3.368 3.368 0 0 1-.24-1.172c.23.522.76 1.137 1.068 1.493Z"/>
    <path fill="#D3D2D2" d="M21.383 59.597c.829.471 1.893 1.453 3.908 1.258 2.015-.194 7.983-2.043 11.506-3.676 3.524-1.634 7.015-2.59 10.96-1.788 3.947.8 8.477 1.565 11.554 1.56 3.077-.006 7.173-1.222 7.881-2.62.708-1.398.452-2.739 0-3.743-.452-1.005-1.182-2.737-.442-3.6.74-.861 1.714-.486 2.03-.399.317.088 1.927.737 3.497.262 1.57-.475 2.85-1.259 3.133-2.936.284-1.678.282-3.158.322-3.71.04-.55.425-.826.714-.785.29.042.793.697 1.01.973.215.276.58.615.698.783.119.167.394.504.407.595.013.09.708 1.713.55 2-.159.288-.072.632.026 1.216.097.584.546 2.646 0 3.418-.547.773-2.35.443-3.405.257-1.055-.185-2.38-.116-2.62.664-.24.78-.018 1.734.378 2.684.395.95.644 2.391.289 3.38-.355.99 2.337 1.173 2.667.742.33-.431.012-1.33-.503-1.8-.515-.472-.31-1.52 1.072-1.752 1.381-.233 2.65.057 3.116.637.466.58.839 2.13-.407 3.289-1.245 1.159-8.913 4.52-15.06 4.918-6.148.398-9.154.205-16.664.707-7.51.5-16.938 4.646-18.53 4.618-1.592-.029-9.23-.107-11.38-3.394-2.15-3.286 2.464-4.229 3.293-3.758Z"/>
    <path fill="#D9D8D8" d="M75.56 42.85c-.016 1.308-.153 2.404-.413 3.29-.796 2.705-3.836 2.805-5.452 1.965L69.51 48c-.813-.496-1.837-.472-3.074.071-.013-.417.07-.797.315-1.082.626-.73 1.42-.573 1.841-.455l.19.055c.316.088 1.926.737 3.496.262s2.85-1.259 3.133-2.936c.048-.28.087-.554.12-.82l.03-.245Z"/>
    <path fill="#E1E0E0" d="M48.258 57.896a69.382 69.382 0 0 1 5.373 3.237l-4.08.902-1.017.06-.534.036c-4.07.271-8.702 1.613-12.346 2.78-3.95.756-7.189 1.302-9.719 1.638-2.845-.301-6.469-1.09-7.845-3.194-2.15-3.286 2.464-4.229 3.293-3.758.829.471 1.893 1.453 3.908 1.258 1.927-.185 7.471-1.885 11.034-3.462l.472-.214c2.624-1.217 5.23-2.057 8.018-2.076l.48.51c.7.717 1.646 1.565 2.963 2.283Z"/>
    <path fill="#D9DADB" d="m44.815 55.103.48.51c.7.717 1.646 1.565 2.963 2.283a71.633 71.633 0 0 1 3.952 2.314c-.44.207-.85.331-1.145.347l-.824.038c-2.238.084-6.913.097-8.776-1.35-1.15-.894-2.64-1.613-4.47-2.156l-.198.09c2.624-1.217 5.23-2.057 8.018-2.076Z"/>
    <path fill="#EAEAEA" d="M47.758 55.39c3.17.644 6.718 1.264 9.586 1.48a39.447 39.447 0 0 1-5.301-.481l-.433-.068c-2.175-.35-5.634-1.07-8.467-.852-2.834.22-5.422 1.525-9.131 2.982-3.71 1.457-7.545 2.386-8.235 2.477l-.384.045c-.705.067-1.715.062-2.851-.538l-.467-.276a2.327 2.327 0 0 0-.163-.086l-.911.164c-.69.131-1.061.226-1.113.283-.093.103.145.46.448.722l.133.106c.362.261-.931-.02-1.082-.42-.128-.34-.8-.719-.223-1.127.893-.352 1.877-.398 2.219-.204.829.471 1.893 1.453 3.908 1.258 1.927-.185 7.471-1.885 11.034-3.462l.472-.214c3.524-1.634 7.015-2.59 10.96-1.788Zm20.126-2.593c.006 1.99-1.426 3.14-5.01 3.712 2.053-.476 3.869-1.29 4.318-2.178.708-1.398.452-2.739 0-3.743-.26-.578-.611-1.396-.723-2.151.227 1.078 1.408 2.53 1.415 4.36Zm8.562-13.377c.181.026.446.292.671.555l.404.495-.442-.423c-.253-.23-.498-.416-.633-.402-.317.033-.525.203-.572.726l-.073 1.142a20.52 20.52 0 0 1-.326 2.585c-.321 1.587-1.685 2.794-3.592 3.006-1.908.213-3.178-.529-3.757-.516-.58.013-1.415.155-1.67 1.27l-.022.183c-.008-.405.077-.774.316-1.052.626-.73 1.42-.573 1.841-.455l.19.055c.316.088 1.926.737 3.496.262s2.85-1.259 3.133-2.936c.284-1.678.282-3.158.322-3.71.04-.55.425-.826.714-.785Z"/>
    <path fill="#4B4B4B" d="M23.947 66.327c.61-1.254 1.066-2.006 1.368-2.255.452-.373 4.186-1.556 7.47-2.6 3.284-1.045 6.61-2.584 8.339-3.163 1.728-.579 4.939-.617 7.742.326 1.87.63 3.295 1.148 4.277 1.557-5.618 2.459-10.076 4.091-13.375 4.898-3.298.807-8.572 1.22-15.821 1.237Z"/>
    <path fill="#4A4747" d="M16.608 58.413c.187-.08.542-.15.48.008-.1.25-.802.486-.616.584.372.199 3.881-.097 6.228-.707 2.348-.61 2.656-.935 3.254-.917.598.018.918.481.559.917-.36.435-2.843 1.258-3.813 1.487-.97.229-2.454.538-2.788.594-.335.055.032.65.557.969.526.319 2.839 1.34 3.754 2.137.916.798 1.816 2.053 1.94 2.53.124.475-4.725.473-6.251.443-1.527-.029-7.792-.607-8.348-1.13-.557-.522-1.035-1.84-.92-2.6.114-.757 1.545-2.007 3.218-2.943 1.674-.937 2.56-1.293 2.746-1.372Z"/>
    <path fill="#5B5959" d="M25.954 57.381c.598.018.918.481.559.917-.335.406-2.521 1.15-3.6 1.433l-.213.054c-.97.229-2.454.538-2.788.594-.335.055.032.65.557.969.402.244 1.847.897 2.915 1.548-4.296-.064-7.542-.388-9.74-.971-.826-.22-1.337-.544-1.534-.974a13.19 13.19 0 0 1 1.752-1.166l.67-.367c1.243-.666 1.916-.937 2.076-1.005.187-.08.542-.15.48.008-.1.25-.802.486-.616.584.354.19 3.554-.07 5.886-.622l.342-.085c2.348-.61 2.656-.935 3.254-.917Z"/>
    <path fill="#3B3939" d="M86 66.955v.242c0 .125-.508 1.572-1.415 2.43-.907.856-2.722 1.513-4.562 1.858-1.84.345-6.627.515-8.015.515H61.802c-1.417 0-1.314-.66-1.468-.918-.155-.258-1.052-.3-1.156.163-.105.462-.073.755-1.178.755s-.793-.78-1.12-.994c-.327-.215-.946-.18-1.12.08-.175.258-.171.83-.732.852-.562.021-.898-.286-1.132-.875-.235-.589-.563-.446-1.12-.67-.557-.223-.995-.527-1.17-.947-.773.149-1.727.452-1.996.668-.27.217-.56 1.326-1.536 1.371-.976.045-1.182-.875-1.75-.877-.568-.002-.737.098-.966.352-.23.254-.41 1.03-1.618 1.04-1.08.01-1.575-.261-1.783-.63-.209-.37-.375-.471-.401-.543-.248-.688-.447-1.136-.83-1.016-.383.121-.775.97-.905 1.33-.13.358-.152.864-1.821.866h-5.98c-.364 0-.748-.156-.99-.625-.063-.12-.477-.144-.518-.306-.107-.424-.39-.716-.7-.614-.278.09-.216.425-.441.648-.153.151-.576-.132-.793.143-.216.274-.65.42-.805.421-.23.002-2.685.018-2.95-.477-.266-.494-.59-.736-.876-.59-.286.148-.526.565-1.042.512-.516-.054-1.513-.243-2.105-.511-.592-.268-1.198-.4-1.412-1.087-.106-.34-.522-.666-.953-.744-.44-.08-.728.388-.879.462-.093.045-.452-.106-.586-.03-.296.165-.568.273-.69.237-.177-.053-1.502-.404-1.567-.724-.065-.32-.31-.613-.589-.667-.279-.054-.307.216-.834 0-.351-.145-.47-.352-.355-.621-.637-.36-1.157-.68-1.56-.965-.604-.426-1.37-1.22-1.37-2.469 0-1.25.57-2.018.79-2.236.22-.217.466-.16.496.02.03.178-.07 1.705 0 2.216.071.511.218.619.51.751.293.133 2.587.619 5.338.71 2.75.092 10.535-.061 12.469-.267 1.934-.206 5.762-.75 10.427-2.538 4.665-1.789 7.857-2.893 11.033-2.94.765.017 2.261.057 4.79.02 2.53-.036 7.739-.082 10.7-1.1 2.961-1.02 5.74-3.134 6.484-3.503.744-.37 2.141-.716 3.107-.329.966.388 6.598 7.32 7.362 8.763.764 1.443 1.974 2.548 2.176 2.779.134.154.239.357.313.609Z"/>
    <path fill="#4B4B4B" d="m86.005 67.146-.005.051c0 .096-.298.966-.844 1.753-2.108 1.074-5.895 1.845-10.16 1.889l-1.39-.008c-4.234-.07-5.649-.416-2.107-.615l1.249-.056c5.16-.186 10.59-.846 13.257-3.014Z"/>
    <path fill="#CDCCD1" d="M11.506 64.761c-.202.04-.172.822.102 1.256.275.434.71.854 2.47 1.514 1.76.66 2.384.83 2.73 1.084.231.169.47.383.717.644.517-.39.89-.493 1.12-.305.23.187.493.413.789.677-.184-.366-.07-.526.344-.478.621.07 2.463.508 4.506.788 2.042.28 4.061.528 4.326.7.265.171.513.493.66.506.147.013.358-.144.43-.342.072-.199.081-.326.334-.31.253.014.402.591.507.652.106.061.3.067.366-.036.067-.102.01-.406.997-.392.988.013 7.3-.106 7.481-.079.182.028.318.249.287.351-.03.102.29.155.433-.186.143-.342.63-.58.866-.527.235.052.508.444.543.527.023.054.124.054.302 0 .013-.16.144-.301.394-.421.375-.181 3.057-.23 4.559-.307 1.501-.077 3.989-.584 4.522-.818.355-.156.972-.37 1.852-.644.004-2.263.343-3.55 1.02-3.864 1.015-.47 14.612-1.704 17.897-2.02 3.284-.317 10.28-3.007 10.323-3.587.043-.58-.017-1.795-.21-2.01-.192-.214-3.394-1.545-4.834-2.108-1.44-.562-2.503-.593-4.183.288-1.68.88-5.065 3.44-8.365 4.052-3.3.612-6.638.584-9.863.535-3.226-.05-6.438-.132-9.643.96-3.204 1.09-8.65 3.415-11.642 3.89-2.992.476-10.923 1.1-15.485.894-4.562-.205-5.544-.488-5.943-.587-.4-.099-.507-.337-.71-.297Z"/>
    <path fill="#D8D8DA" d="M73.156 55.314c1.68-.88 2.743-.85 4.183-.288l1.131.453c.712.29 1.52.628 2.198.924-.393.64-1.01 1.473-2.572 1.873l-.86.206c-3.371.78-12.739 2.735-14.361 2.895-1.797.176-7.782.283-9.513 1.279-1.731.996-2.888 3.113-2.8 4.925.087 1.812-2.973 1.535-4.693 1.514-1.547-.019-4.066.197-6.024.511l-.63.108c-1.88.346-5.43.435-7.179.219l-.346-.051c-1.578-.279-2.282-.168-3.67-.005-1.388.164-6.269-.841-5.944-2.094.325-1.253 6.728-.827 11.516-2.02 2.072-.517 5.029-1.808 8.87-3.872l1.205-.451a67.506 67.506 0 0 1 1.618-.58c2.958-1.007 5.923-1.014 8.898-.97l.745.01c3.225.05 6.562.078 9.863-.534 3.3-.612 6.684-3.171 8.365-4.052Z"/>
    <path fill="#E1E1E1" d="M11.455 65.67c.277.343.55.61.82.8.685.48 3.863 1.555 5.25 1.968 1.387.413 8.84 1.523 11.879 1.734 3.039.21 11.064-.372 14.654-.734 3.068-.309 7.067-1.615 9.157-2.363-.048.448-.07.962-.072 1.54l-.69.22c-.417.137-.748.255-.994.354l-.168.07c-.498.219-2.698.675-4.21.797l-3.014.136c-.905.044-1.67.101-1.857.192-.25.12-.381.26-.394.42-.178.055-.279.055-.302 0-.035-.082-.308-.474-.543-.526-.202-.046-.59.123-.785.387l-.081.14c-.125.298-.386.295-.429.221l-.004-.035c.031-.102-.105-.323-.287-.35l-2.107.015c-1.61.021-3.73.055-4.808.062h-.566c-.987-.013-.93.29-.997.393-.067.103-.26.097-.366.036-.105-.061-.254-.638-.507-.653-.253-.015-.262.112-.334.31-.072.199-.283.356-.43.343-.147-.013-.395-.335-.66-.507-.132-.085-.703-.19-1.497-.309l-2.83-.39c-2.042-.28-3.884-.717-4.505-.788-.413-.048-.528.112-.344.478l-.548-.477a16.98 16.98 0 0 0-.24-.2c-.23-.188-.604-.086-1.121.305a5.378 5.378 0 0 0-.717-.644c-.346-.254-.97-.425-2.73-1.084l-.636-.252c-1.238-.52-1.596-.885-1.834-1.262l-.082-.156-.07-.192Zm61.7-10.356c1.552-.813 2.576-.85 3.858-.408l.865.334c1.576.63 4.124 1.704 4.295 1.895.056.062.1.206.134.394l-1.901-.49a80.074 80.074 0 0 0-3.391-.792c-2.162-.442-3.97.347-7.507 2.88-3.537 2.534-13.04 1.936-16.952 1.953-3.912.016-10.234 4.668-20.56 5.163-7.531.361-13.417-.16-16.953-.787l1.145.083c.569.037 1.221.072 1.97.106 4.562.205 12.493-.418 15.485-.894 2.992-.475 8.438-2.8 11.642-3.89 2.958-1.008 5.923-1.015 8.898-.972l.745.012c3.225.049 6.562.077 9.863-.535 3.3-.612 6.684-3.171 8.365-4.052Z"/>
    <path fill="#FBFBFB" d="M11.537 65.884c.255.303.62.64 1.106.902l.414.205c1.287.595 3.883 1.534 4.397 1.471l.07-.024c.286-.23 1.632.498 1.863.531l8.867 1.35c.424.056.758.219 1.005.487.299-.387.601-.598.908-.634.307-.035.464.26.47.885.07-.286.261-.445.572-.477l.445-.026c1.533-.072 6.36-.223 7.456-.134l.135.015c.847.136.82-.17 1.386-.263.567-.092 1.572.02 1.91 0l3.187-.296c1.715-.167 3.573-.358 4.051-.438.61-.101 1.216-.3 1.816-.595l.146.238-.45.178c-.498.219-2.698.675-4.21.797l-3.014.136c-.905.044-1.67.101-1.857.192-.25.12-.381.26-.394.42-.178.055-.279.055-.302 0-.035-.082-.308-.474-.543-.526-.202-.046-.59.123-.785.387l-.081.14c-.125.298-.386.295-.429.221l-.004-.035c.031-.102-.105-.323-.287-.35l-2.107.015c-1.61.021-3.73.055-4.808.062h-.566c-.987-.013-.93.29-.997.393-.067.103-.26.097-.366.036-.105-.061-.254-.638-.507-.653-.253-.015-.262.112-.334.31-.072.199-.283.356-.43.343-.147-.013-.395-.335-.66-.507-.132-.085-.703-.19-1.497-.309l-2.83-.39c-2.042-.28-3.884-.717-4.505-.788-.413-.048-.528.112-.344.478l-.548-.477a16.98 16.98 0 0 0-.24-.2c-.23-.188-.604-.086-1.121.305a5.378 5.378 0 0 0-.717-.644c-.346-.254-.97-.425-2.73-1.084l-.636-.252c-1.047-.44-1.465-.77-1.713-1.088l-.12-.174-.072-.133Zm61.619-10.57c1.55-.813 2.575-.85 3.857-.408l.865.334c1.576.63 4.124 1.704 4.295 1.895l.039.058a6.668 6.668 0 0 1-.702-.237l-1.326-.565c-1.408-.588-3.539-1.399-4.734-1.354-1.747.066-5.142 2.594-8.29 3.837-3.148 1.242-8.616 1.272-12.427 1.25-3.587-.02-7.155.477-9.203 1.177l-1.494.561c-2.543.942-7.168 2.545-9.506 3.073l-.598.127c-2.637.524-5.917.722-12.518.9-3.324.09-5.947-.13-7.87-.66l.688.079c.784.08 1.872.164 3.4.24l.526.024c4.562.205 12.493-.418 15.485-.894 2.992-.475 8.438-2.8 11.642-3.89 2.958-1.008 5.923-1.015 8.898-.972l.745.012c3.225.049 6.562.077 9.863-.535 3.3-.612 6.684-3.171 8.365-4.052Z"/>
    <path fill="#ECE9E9" d="M18.666 67.954c.082.365.372.845.725 1.28-.05.05-.055.136-.018.252a.474.474 0 0 1-.09.01l-.442-.38a16.697 16.697 0 0 0-.196-.162c-.201-.164-.512-.107-.933.172l-.14.098-.092-.094c-.454-.476-.586-.804-.394-.983.2-.188.727-.252 1.58-.193Z"/>
    <path fill="#C6C8CB" d="M28.277 67.71c1.256-.426 3.139-.565 3.647-.356.508.21-1.872.592-1.98 1.145-.106.552 1.515.66 2.028.66.512 0-.806.49-1.099.784-.144.145-.181.558-.113 1.238a.32.32 0 0 1-.219-.034c-.105-.061-.254-.638-.507-.653-.253-.015-.262.112-.334.31-.072.199-.283.356-.43.343a.3.3 0 0 1-.137-.067 2.979 2.979 0 0 1 .057-.865l.074-.272c.307-.942-.888-.663-1.95-.808-1.063-.145-.293-.999.963-1.425Z"/>
    <path fill="#B1B1B6" d="m31.91 69.157.062.002c.512 0-.806.49-1.099.784-.144.145-.181.558-.113 1.238a.32.32 0 0 1-.219-.034c-.055-.032-.123-.208-.211-.368.037-.093.066-.207.085-.34.114-.82 1.072-1.165 1.496-1.282Zm-4.358-.561c.518.189 2.136.335 2.108.519l-.159.936c-.062.429-.102.868-.03 1.006l.012.02a.347.347 0 0 1-.213.07.3.3 0 0 1-.137-.067 2.979 2.979 0 0 1 .057-.865l.074-.272c.307-.942-.888-.663-1.95-.808-1.063-.145-.293-.999.963-1.425.297-.1.629-.185.97-.253l-.566.26c-1.022.488-1.398.78-1.129.879Z"/>
    <path fill="#E3E3E7" d="m26.876 68.601-.064-.034c.505.345 3.037.217 2.877.656-.081.225-.253.587-.513 1.087l.014-.095.074-.272c.307-.942-.888-.663-1.95-.808-.485-.066-.589-.28-.438-.534Zm5.048-1.247c.487.2-1.673.56-1.953 1.074-.227-.133-.32-.36.124-.644l.168-.097c.283-.148.328-.287.229-.403.642-.05 1.191-.029 1.432.07Z"/>
    <path fill="#C6C8CB" d="M41.86 65.559c.83-.101-1.081.972-2.143 1.638-.825.518-.118.82.63 1.042l.619.174c.838.242 2.312.4 2.073.793-.24.394-.695.937-1.113 1.203-.103.065-.167.204-.194.416-.127.033-.199.025-.218-.02-.035-.083-.308-.475-.543-.527-.202-.046-.59.123-.785.387l-.081.14c-.064.152-.163.226-.25.252l.012-.303c.033-.504 1.196-1.071.498-1.662-.698-.59-1.929-.374-2.64-.42-.71-.046-1.888-.53-1.09-1.475.798-.946 4.394-1.537 5.225-1.638Z"/>
    <path fill="#B1B1B6" d="M38.363 66.312c-.994.925-1.35 1.466-1.07 1.623.436.245 1.94.22 2.598.213.105 0 .208.014.308.04l.12.042c.464.175.813.607.805.917-.008.266-.316.657-.925 1.172l-.09-.025.194-.23c.256-.312.456-.638.062-.972-.698-.59-1.929-.374-2.64-.42-.71-.046-1.888-.53-1.09-1.475.266-.315.843-.591 1.525-.823l.203-.062Z"/>
    <path fill="#E3E3E7" d="m41.34 66.195-1.202.74c.015-.225.13-.428.346-.608.562-.47.32-.669-.393-.4l-1.57.65c-.627.267-1.23.554-1.499.813-.484.467-.209.735.135.837.344.102 1.19.169 1.901.255.711.087 1.42.289 1.747.6.194.185-.072.636-.798 1.353.29-.418.913-.873.358-1.343-.698-.59-1.929-.374-2.64-.42-.71-.046-1.888-.53-1.09-1.475.798-.946 4.394-1.537 5.225-1.638.457-.056.084.244-.52.636Z"/>
    <path fill="#D9D9D9" d="M83.188 60.745c.178-.077.367-.37.314-.48-.052-.11-.279-.966-.577-1.23-.298-.263-.533-.403-.69-.379-.157.024-4.056 1.015-6.264 1.337-2.209.323-9.103 1.274-10.778 1.425-1.676.152-7.16.708-8.585.794-1.425.087-3.683.757-4.6 2.124-.918 1.368-.9 3.64-.786 4.22.115.578.19.619.39.6.202-.02 1.25-.392 1.434-.39.184.003 1.04.07 2.648.089 1.609.02 6.613.25 12.456.242 5.842-.008 11.045-.079 13.36-.542 2.316-.463 4.49-1.32 4.49-1.689 0-.37.026-1.306-.663-1.567-.085-.052.01-.265 0-.513-.01-.249 0-1.716-.789-2.574-.788-.857-1.246-1.122-1.36-1.2-.114-.079-.179-.19 0-.267Z"/>
    <path fill="#88B9AE" d="M77.433 65.692a29.46 29.46 0 0 0 2.845-.157c1.24-.124 4.45-.983 4.027-.465-.333.409-.054.961-.284 1.315-.062.095-.264.169-.401.23-.649.287-2.498.758-4.44.86-1.942.104-6.459.3-6.838.255-.38-.045 2.085-1.88 2.938-1.957.853-.078 1.25-.066 2.153-.081Z"/>
    <path fill="#BAC7C7" d="M83.404 60.557a.7.7 0 0 1-.14.143l-.076.045c-.179.077-.114.188 0 .266l.195.132c.223.16.614.47 1.165 1.07.789.857.78 2.324.79 2.573.01.248-.086.46 0 .513a.86.86 0 0 1 .173.089c-.258.67-1.358 1.006-2 1.173-.712.185.003-1.317.467-1.744.464-.426.103-1.782-.188-2.312-.292-.53-.696-1.092-1.394-1.128-.348-.019-.84.054-1.356.153l-1.495.308c-.587.113-1.255.272-2.003.476l-.424.062c-.244.03-.411.04-.501.03-.204-.024.29-.195 1.137-.432l.49-.128c1.06-.264 2.863-.661 3.266-.757l.438-.114 1.456-.418Z"/>
    <path fill="#49918D" d="M78.555 61.698c-.516.336-.825.681-.926 1.034-.152.53.334.402.165.696-.169.295-.675.866-.467 1.712.139.564.41 1.188.813 1.873-2.82.516-5.281.781-7.387.796-3.158.022-8.632.204-11.386.166a395.518 395.518 0 0 1-6.539-.153c-.127-.968-.022-1.707.315-2.217.506-.766.726-1.517 4.889-1.946 4.163-.43 15.702-1.214 17.452-1.547 1.167-.223 2.19-.36 3.07-.414Z"/>
    <path fill="#4B8482" d="M76.51 63.68c-.272.84-6.227 1.431-10.107 1.752l-3.73.3c-2.1.178-3.32.312-4.642.48-1.027.13-1.709.695-2.046 1.694l-2.328-.06-.829-.024c-.127-.968-.022-1.707.315-2.217l.16-.25c.27-.413.59-.811 1.644-1.146 1.138-.24 2.664-.468 4.332-.67l1.417-.125c2.529-.216 5.81-.469 8.659-.702l1.621-.044c3.726-.07 5.812.154 5.534 1.011Z"/>
    <path fill="#659E98" d="M55.45 65.117c-.142.17-.963.26-1.27.66-.214.279-.128 1.017.1 1.183.552.404 6.416-.052 8.792-.14 2.376-.087 13.032-.357 13.623-.493.394-.09.676-.261.847-.51.38.645.564 1.105.554 1.38-.016.412-3.394.276-6.734.267-3.34-.01-7.473.297-10.055.152s-6.83-.004-7.307-.152c-.476-.148-.44-1.21-.18-1.647.26-.439 1.873-.988 1.63-.7Z"/>
    <path fill="#9ED1CE" d="M52.943 68.796c-.078-.49.068-.965.205-1.362.17.075.376.12.615.136l8.988.16 4.385.01c3.71-.007 8.833-.065 12.207-.314 3.374-.248 5.372-.957 5.994-2.127.689.261.663 1.198.663 1.567 0 .37-2.174 1.226-4.49 1.69-2.026.404-6.262.509-11.204.534l-3.489.005c-5.04-.023-9.272-.206-10.922-.237l-1.267-.025-1.685-.037Z"/>
    <path fill="#70C3BF" d="M85.672 66.577c-.114.22-2.547 1.307-4.614 1.675-2.066.367-11.619.469-14.028.438l-12.06-.254c-.847-.014-1.414-.018-1.525-.008-.283.026-.45.136-.505.33l.003.038c-.068-.428.034-.843.153-1.206a.52.52 0 0 0 .191.166c.218.119.628.16 1.41.182l8.716.175c1.734.025 3.63.041 5.559.035l1.784-.016c4.622-.067 9.556-.329 11.191-.618 1.726-.306 3.213-1.254 3.58-1.678l.061-.083c.217-.367.198.604.084.824Z"/>
    <path fill="#D1ECEB" d="M85.337 65.3c.689.26.663 1.197.663 1.566 0 .37-2.174 1.226-4.49 1.69-2.026.404-6.262.509-11.204.534l-3.489.005-2.547-.025c-3.887-.057-7.012-.186-8.375-.212l-2.952-.062-.008-.08.74-.022c.793-.01 2.029.003 3.706.036l4.63.105c7.865.145 17.355-.035 18.83-.326 1.588-.314 3.64-1 4.245-1.275.605-.276.803-.595.757-1.131-.04-.477-.276-.5-.488-.343l-.077.067c-.952.8-2.736 1.506-5.035 1.743l-1.073.082c-3.305.2-11.063.352-18.256.254l-1.867-.033c-2.517-.059-4.259-.16-5.225-.302l8.929.16 4.385.01 1.958-.009c3.41-.024 7.438-.098 10.25-.306 3.373-.248 5.371-.957 5.993-2.127Z"/>
    <path fill="#7FC0BD" d="M82.235 58.656c.157-.024.392.116.69.38.298.263.525 1.12.577 1.23.044.091-.08.31-.226.425l-.144.084a2.501 2.501 0 0 1-.451.16l-.322.081c-1.453.355-5.76 1.308-9.045 1.68l-12.12 1.264c-1.394.138-2.522.241-3.12.276l-.98.046c-1.4.078-2.577.24-3.08.727-.593.575-.843 1.738-.87 2.335-.017.36-.077.837-.18 1.43-.297.058-1.17.364-1.351.381-.201.02-.276-.02-.391-.6-.115-.579-.132-2.851.786-4.219.852-1.27 2.859-1.938 4.282-2.096l1.783-.145 7.12-.677c1.447-.13 6.786-.858 9.638-1.261l1.14-.164c2.208-.322 6.107-1.313 6.264-1.337Z"/>
    <path fill="#96CAC7" d="M82.235 58.656c.157-.024.392.116.69.38.15.131.28.411.38.672l.204.582c-1.393-.192-4.074-.223-5.988.013-2.467.304-6.74 1.765-12.415 2.353-5.428.562-10.452.378-12.464.994.994-.83 2.508-1.283 3.648-1.41l1.783-.145 7.12-.677c1.24-.112 5.34-.662 8.282-1.071l2.496-.354.61-.098c2.248-.39 5.51-1.217 5.654-1.239Z"/>
    <path fill="#589E9B" d="M82.235 58.656a.418.418 0 0 1 .238.053c-.766.363-1.764.659-2.99.888l-.777.135c-2.08.341-5.902.852-8.628 1.177l-8.418.937c-2.673.308-5.188.61-5.725.693-1.038.161-3.323.911-4.033 2.278-.71 1.368-.671 3.033-.581 3.657.042.294.124.523.246.687l.046-.006c-.201.02-.276-.02-.391-.6-.115-.579-.132-2.851.786-4.219.852-1.27 2.859-1.938 4.282-2.096l1.783-.145 7.12-.677c1.24-.112 5.34-.662 8.282-1.071l2.496-.354.61-.098c2.248-.39 5.51-1.217 5.654-1.239Z"/>
    <path fill="#F4F2F2" d="M55.069 65.047c.039-.24.592-.365 1.596-.444 1.004-.078 5.838-.508 7.99-.697 2.153-.188 11.3-.992 10.434-.646-.867.347-6.737 1.041-10.666 1.31-3.928.268-7.143.198-8.045.326-.901.128-1.349.391-1.31.15Z"/>
    <path fill="#94A59F" d="M83.453 61.539c.112.095.796.816 1.038 1.518.243.701.254 1.256.185 1.473-.07.217.392.51.453.02.06-.488-.127-1.422-.453-1.972-.326-.551-.838-.989-1.093-1.139-.255-.15-.243.005-.13.1Z"/>
    <path fill="#A1A1A4" d="M72.267 57.106c.167-.138-.109.836.273 1.162.382.326 4.235-.851 4.511-.824.277.026.106.307-.512.571-.619.264-3.734 1.835-4.642 1.275-.908-.559.203-2.047.37-2.184Z"/>
    <path fill="#CECFD3" d="M72.267 57.106c.167-.138-.096.67.286.997.382.326 4.21-.734 4.487-.707.277.026.13.19-.488.454-.619.264-3.734 1.834-4.642 1.275-.908-.56.19-1.882.357-2.02Z"/>
    <path fill="#EBEBEB" d="M72.553 58.103c.382.326 4.21-.734 4.487-.707.071.006.114.022.129.047l-.382.106-1.978.495c-.935.221-1.979.418-2.297.256-.29-.146-.392-.456-.307-.928l.063-.267.037-.014c.083.034-.095.718.248 1.012Z"/>
    <path fill="#B1B1B6" d="M47.405 61.133c.669 0 1.216.187 1.642.565.426.377.649.864.667 1.462.902-.881 1.493-1.219 1.773-1.014.419.308-.436 1.718-1.195 2.246-.76.527-2.138 1.284-2.292 2.357-.154 1.073 1.03 1.568 1.714 1.708.683.14-.943.73-2.132.622-1.19-.108-2.144-.981-1.51-2.138.632-1.157 2.47-2.909 2.572-3.62.068-.474-.345-1.204-1.239-2.188Z"/>
    <path fill="#B1B1B6" d="M47.445 67.655c.18.202.365.367.555.493.238.16.712.152 1.188.153.187.074.37.124.526.156.296.06.158.206-.19.343l-.561-.025a8.52 8.52 0 0 1-.963-.097c-.288-.058-.473-.4-.555-1.023Z"/>
    <path fill="#E3E3E7" d="M47.162 68.617c.452.17.999.324 1.485.412-.349.054-.725.08-1.065.05-1.097-.1-1.994-.85-1.63-1.874.204.557.648 1.199 1.21 1.412ZM48 61.355c.572.338 1.367 1.111 1.435 1.772l-.003.194c-.09.646.701.231 1.056-.09l.306-.313c.3-.3.67-.615.801-.44-.054.544-.708 1.5-1.303 1.914l-.657.44c-.715.485-1.52 1.112-1.635 1.917-.118.823.552 1.306 1.178 1.55l-.544-.017c-.401-.018-.674-.046-.82-.084-.417-.11-.773-1.534-.11-2.195.664-.662 1.138-1.795 1.119-2.382-.02-.558-.566-1.725-1.046-2.062l-.322-.37c.07-.04.26-.003.545.166Z"/>
    <path fill="#D1CFD6" d="M23.765 67.258c-.877.17-2.18.691-1.905.985.276.293 1.65.881 1.74.807.088-.074-.887-.713-.806-.893.081-.18 1.848-1.069.97-.899Z"/>
    <path fill="#E3E3E7" d="M22.243 68.152c.058.087.482.387 1.273.897-.313-.059-1.412-.547-1.656-.806-.171-.183.27-.455.839-.674-.359.306-.51.5-.456.583Z"/>
    <path fill="#AFB2B2" d="M59.392 45.238c.376-.303.734-.418.211-1.283-.523-.866-2.033-2.706-2.415-3.156-.383-.45-1.281-1.084-2.334-.995-1.052.089-1.495.208-2.25.603-.754.395-1.812 1.118-2.08 1.745-.266.627.346 1.448 1.285 1.663.94.215 3.719.996 4.386 1.142.668.146 2.82.584 3.197.281Z"/>
    <path fill="#E9E9E9" d="M59.465 44.975c.376-.303.734-.418.211-1.283-.523-.866-2.033-2.706-2.415-3.156-.382-.45-1.28-1.084-2.333-.995-1.053.088-1.496.208-2.25.603-.755.395-1.813 1.118-2.08 1.745-.267.627.345 1.447 1.285 1.663.94.215 3.718.996 4.385 1.142.668.145 2.82.584 3.197.28Z"/>
    <path fill="#CDD2D2" d="M54.928 39.54c1.052-.088 1.95.546 2.333.996l.68.826c.524.65 1.193 1.504 1.585 2.094l.22.357c.01.179-.032.313-.142.386-.78.518-3.226.109-5.195-.47-1.97-.58-3.27-1.31-3.344-1.578-.028-.103-.053-.446-.036-.844.448-.453 1.123-.888 1.649-1.163.754-.395 1.197-.515 2.25-.603Z"/>
    <path fill="#D5DADA" d="M59.296 44.301c.098-.175-.777-1.255-1.031-1.591-.254-.336-1.271-1.536-1.779-1.836-.507-.3-1.225-.462-1.558-.446-.334.016-.389.988-.092 1.422.296.435 3.125 1.895 3.534 2.187.408.292.827.439.926.264Z"/>
    <path fill="#DEE2E2" d="M58.45 43.03c-.586-.34-1.628-.716-2.546-1.046-.919-.33-2.398-1.544-1.55-1.553.849-.009 1.462-.023 2.019.324.556.348 2.662 2.615 2.076 2.275Z"/>
    <path fill="#B6BCBC" d="M54.41 42.709c-.465.405-.907.594-1.325.567-.627-.04-2.005-.386-1.918-.84.086-.453.99-1.254 1.633-1.55.642-.295 3.058-.261 2.73.27-.218.354-.592.872-1.12 1.553Z"/>
    <path fill="#979797" fill-rule="nonzero" d="M53.812 40.439c-1.632.548-2.797 1.267-2.745 1.875.023.27.556.547 1.563.899.392.137.847.281 1.358.431L55 43.93l1.62.428c1.189.312 2.474.397 2.738.104.292-.323-1.695-2.905-2.546-3.52-.985-.71-1.793-.909-3-.503Zm2.883.666c.746.538 2.675 3.046 2.515 3.224-.172.19-1.236.136-2.26-.097l-1.355-.349-1.058-.289a48.695 48.695 0 0 1-.493-.142c-.508-.149-.96-.292-1.348-.428-.888-.31-1.418-.586-1.43-.727-.04-.464 1.08-1.154 2.61-1.669 1.138-.382 1.882-.2 2.819.477Z"/>
    <path fill="#AFB2B3" d="m50.1 43.641 1.802 1.41-.311.381-1.819-1.428z"/>
    <path fill="#D0CBCB" d="m45.841 46.589-.29.276.78 1.002.246-.352z"/>
    <path fill="#D8D8D8" d="m41.5 49.897-.977-.842-.248.303.969.871z"/>
    <path fill="#757575" d="M33.909 53.816c.324-.192 1.51-.915 1.338-1.341-.173-.426-1.18-1.23-1.362-1.215-.182.015-1.01.66-1.32.75-.311.09-.174-.31-.6 0-.425.31-.884.642-.977.663-.093.02-.017-.338-.3-.216-.228.098-1.322.755-1.731 1.1-.097.082.016.237-.009.259-.128.11 1.016.562 2.064.509.51-.026 1.135-.027 1.677-.12.573-.099 1.053-.291 1.22-.39Z"/>
    <path fill="#EDECEE" d="M33.885 53.55c.324-.19 1.507-.73 1.335-1.157-.173-.426-1.154-1.148-1.335-1.133-.182.015-1.01.66-1.32.75-.311.09-.174-.31-.6 0-.425.31-.884.642-.977.663-.093.02-.017-.338-.3-.216-.283.122-1.636.983-1.764 1.094-.128.11 1.016.562 2.064.509.51-.026 1.135-.027 1.677-.12.573-.099 1.053-.291 1.22-.39Z"/>
    <path fill="#E5E7EA" d="M33.885 51.26c.181-.015 1.162.707 1.335 1.133.04.099.007.203-.071.309-1.017.49-2.621 1.02-3.31.9-.453-.08-1.01-.363-1.672-.849l.315-.188c.09-.051.161-.089.206-.108.283-.122.207.237.3.216.093-.02.552-.352.977-.663.426-.31.289.09.6 0 .31-.09 1.138-.735 1.32-.75Z"/>
    <path fill="#F0EEEE" d="M32.195 51.95c-.215-.127-.195-.468.12-.69.313-.222.912-.604 1.128-.618.215-.014 1.725-.307 2.154-.267.429.04.719.108 1.044.101.325-.006 1.475-1.057 1.5-1.313.026-.257-.204-1.366-.302-1.827-.098-.46-.114-1.222.303-1.492.416-.27 1.193-.245 1.5-.013.308.232 1.097 1.033 1.384 1.192.287.158 1.518-.822 1.525-1.18.006-.357-.582-1.516-.622-1.773-.04-.258.014-.705.185-.776.172-.071.401-.278 1.056-.247.654.031 2.561 1.747 3.403 1.752.842.005 1.398-.582 1.359-.897-.04-.314-.42-.954-.412-1.596.007-.643-.021-1.577.483-2.075.504-.498 1.314-.659 1.564-.586.25.073.594-.16 1.373-.049.778.112 1.339.855 2.013.92.675.066 1.453-.751 1.401-1.1-.051-.349-.633-1.05-.858-1.21-.224-.161-.496-.442-.816-.459-.32-.017-.12-.51.256-.712.375-.202 1.062-.09 1.418.444.356.535 1.022 1.535.872 2.053-.15.519-.71 1.434-1.195 1.757-.486.323-1.095.642-2.387-.19-.861-.555-1.815-.698-2.863-.429-.09.15-.135.532-.137 1.146-.003.92.718 2.624 0 3.263-.718.64-1.82.959-2.454.738-.635-.22-1.9-1.135-2.343-1.342a2.833 2.833 0 0 1-.807-.567c.288.74.43 1.178.428 1.315-.004.205.233 1.475-.454 1.913-.688.44-1.38.883-1.89.864-.51-.019-1.778-1.122-1.936-1.19a1.166 1.166 0 0 0-.395-.08c.17.658.253 1.257.25 1.797-.004.81-.047 1.685-.904 2.321-.856.636-1.41.709-2.096.71-.687 0-1.446.08-1.722 0-.276-.082-.827.028-1.18.195-.352.167-.732.326-.946.198Z"/>
    <path fill="#C9CDD3" d="m39.04 48.374.003.153c-.004.81-.047 1.685-.904 2.321-.76.566-1.283.686-1.872.706l-.744.015c-.516.019-.995.05-1.202-.012-.276-.08-.827.03-1.18.196-.352.167-.732.326-.946.198a.283.283 0 0 1-.13-.167c.616-.382 1.463-.639 2.541-.77l.477-.05c2.472-.208 3.044-.734 3.462-1.16.25-.253.424-.883.495-1.43Zm-1.03-2.235c-.128.34.034 1.156.164 1.88l.126.66c.067.395.077.693-.126.866a2.528 2.528 0 0 1-.696.393l.278-.263c.215-.217.376-.418.386-.512.025-.257-.205-1.366-.303-1.827-.098-.46-.114-1.222.303-1.492.092-.06.202-.106.321-.138-.215.125-.395.28-.452.433Zm5.452-.983.03.39c.033.465.038 1.261-.478 1.59l-.514.323c-.509.31-.994.555-1.376.541-.51-.019-1.778-1.122-1.936-1.19a1.166 1.166 0 0 0-.395-.08l.095.415-.063-.194c-.09-.316-.068-.57.428-.318l.689.391c.731.39 1.231.504 1.767.204l.386-.233c.61-.395 1.305-.964 1.304-1.364a7.205 7.205 0 0 0-.102-1.032l.11.337c.028.093.046.166.055.22Zm-.872-.077c.196.504.252.982-.125 1.15a.372.372 0 0 1-.152.019c.14-.159.236-.305.238-.404.006-.358-.582-1.517-.622-1.774-.04-.258.014-.705.185-.776l.136-.07c-.258.482.183 1.453.34 1.855Zm6.054-3.263c-.003.92.718 2.624 0 3.263-.718.64-1.82.959-2.454.738-.564-.196-1.626-.94-2.167-1.248l-.176-.094a2.815 2.815 0 0 1-.748-.51c-.095-.228-.125-.408-.095-.548.114.361 1.753 1.376 2.407 1.625.654.249 1.195.428 1.815.135.619-.293 1.479-.932 1.514-1.276.036-.344-.256-1.364-.142-2.257.017-.138.039-.27.064-.398l-.015.36c-.002.067-.003.137-.003.21Zm-.894.174.218.772c.162.58.268 1.083.078 1.319a.753.753 0 0 1-.273.204c.116-.137.172-.276.159-.383-.04-.314-.42-.954-.412-1.596l.01-.594c.014-.316.05-.647.149-.94-.063.373-.06.732.07 1.218Zm7.476-2.458c-.15.519-.71 1.434-1.195 1.757l-.217.135c-.457.256-1.062.388-2.17-.325-.85-.548-1.792-.694-2.825-.438.064-.188.14-.363.228-.523.552-.117 1.057-.117 1.515 0 .686.175 1.834.975 2.516.869.682-.107 1.909-1.154 1.98-1.608.034-.225-.041-.631-.154-1.032.232.428.407.873.322 1.165Zm-2.38-2.028c.592.073 1.361.993 1.508 1.457a.972.972 0 0 1-.007.572.327.327 0 0 0 .007-.117c-.051-.349-.633-1.05-.858-1.21l-.292-.227a1.33 1.33 0 0 0-.338-.193l-.186-.039c-.179-.01-.195-.167-.11-.34.06.049.152.081.277.097Z"/>
    <path fill="#8DCDCC" d="M37.49 52.138c-.611-.858-.954-1.357-1.026-1.496-.108-.209 1.497-1.846 1.739-1.485.162.24.509.774 1.042 1.599l-1.754 1.382Z"/>
    <path fill="#DEE7EB" d="M37.355 49.545c.249.198.572.587.968 1.168l.331.506-.571.457-.359-.596-.153-.24a1.84 1.84 0 0 0-.799-.709c.095-.11.208-.23.329-.348l.254-.238Z"/>
    <path fill="#8DCDCC" d="M42.29 48.973c-.695-1.164-1.11-1.797-1.248-1.898-.207-.15 1.424-1.224 1.513-1.312.089-.088.706.654.942.966.158.209.345.529.56.96l-1.768 1.284Z"/>
    <path fill="#DEE7EB" d="m41.716 46.374.32-.235.244.276c.037.04.115.147.234.318l.937 1.396-.532.388-.26-.376a64.64 64.64 0 0 0-.823-1.114l-.357-.47.237-.183Z"/>
    <path fill="#8DCDCC" d="M48.074 47.365c-.625-.534-.994-1.028-1.109-1.482a8.196 8.196 0 0 1-.22-1.157c.628-.635.98-.953 1.055-.955.112-.003.423-.048.933.528.34.384.686.977 1.039 1.778a8.063 8.063 0 0 0-.898.557c-.192.145-.459.389-.8.73Z"/>
    <path fill="#DEE7EB" d="m47.281 44.196.126-.115.293.29.16.165c.243.254.692.938 1.346 2.053l-.08-.13-.252.175-.219.18a11.215 11.215 0 0 1-.499-.683l-.222-.344a9.491 9.491 0 0 0-1.048-1.343l.067.074.328-.322Z"/>
    <path fill="#8DCDCC" d="M54.347 42.867c-.844-1.302-1.355-2.034-1.534-2.194-.268-.24.247-.287.494-.442.247-.155.866-1.076.923-1.05.057.027.635.6 1.018 1.05.255.3.474.676.656 1.127l-1.557 1.51Z"/>
    <path fill="#DEE7EB" d="m53.477 40.077.28-.33.282.23c.136.109.458.578.967 1.407l.323.53-.445.438-.133-.208c-.203-.302-.575-.81-1.116-1.523l-.308-.407.075-.061.075-.076Z"/>
    <path fill="#EEE" d="M71.502 60.814c.246.002-1.097.312-3.63.572-4.161.427-10.586 1-11.826 1.172-1.994.277-3.317 1.087-3.943 2.013-.626.926-.854 2.608-.823 3.39-.118-.513.065-2.007.472-2.924.408-.916 1.602-2.074 3.777-2.493 1.228-.236 5.766-.69 9.77-1.1 3.092-.315 5.946-.631 6.203-.63Z"/>
  </g>
</svg>
