<svg xmlns="http://www.w3.org/2000/svg" viewBox="0 0 96 96">
  <defs>
    <path id="a" d="M0 0h96v96H0z"/>
  </defs>
  <g fill="none" fill-rule="evenodd">
    <path fill="#FBFAFA" d="M61.769 33.677c-.59-.384-1.63-1.046-2.286-.802-.438.162-.686.43-.742.802-.91.566-1.982 1.694-3.214 3.384-1.849 2.535-2.598 4.114-2.913 4.778-.315.665-.046.468-.977 1.034-.756.232-1.131.517-1.131.687 0 .17-.3.68-.55.918-.269-.195-1.664.64-1.664.64l-.292.423-1.074.608c.019-.174-.056-.26-.225-.26-.254 0-1.326.405-1.544.644-.218.239-.064.416-.164.436-.1.02-1.132.176-2.174.42-1.043.242-2.588.292-4.288 1.084-1.7.793-2.344.816-3.367 1.701-1.024.886-1.788 1.311-2.937 1.958-1.15.646-.476 2.387 2.25 2.448 2.725.06 15.488-.496 20.98-4.469 5.492-3.973 9.286-9.397 9.657-10.845.371-1.447 1.123-4.093-1.538-4.936-1.12-.375-1.219-.27-1.807-.653Z"/>
    <path fill="#F0E4E7" d="M64.119 34.549c2.007 1.014 1.339 3.378.995 4.717-.118.462-.585 1.33-1.345 2.426-2.633-.17-7.218-3.7-6.319-4.41 1.142-.9 3.416-.81 4.685-1.094.846-.188 1.185-.653 1.015-1.394a2.56 2.56 0 0 1 .839-.235l.13-.01Z"/>
    <path fill="#E3AAA5" d="M65.114 39.266c-.087.342-.366.905-.812 1.618-.955.342-1.837.492-2.453.314l.161.036a12.026 12.026 0 0 1-1.465-.725c-.656-.597-.93-1.479-.824-2.646l3.484-.363.294-.028c1.251-.115.94-1.41.853-1.987-.023-.147.236-.212.652-.21.875 1.165.387 2.912.11 3.991Z"/>
    <path fill="#CACAD0" d="M56.942 37.863c.83-.052-.704 5.17-.815 5.662-.11.492-5.252 3.267-6.204 3.321-.896.051.175-1.704.352-2.122l.062-.203c.08-.247.272-.752.62-1.203.231-.3.854-.407 1.869-.322a4.204 4.204 0 0 1-.143-1.306l.31-.622c.258-.497.625-1.16 1.154-1.99 1.3-1.14 2.031-1.167 2.795-1.215Z"/>
    <path fill="#DC5F48" d="M59.483 32.875c.525-.195 1.296.19 1.885.548l.4.254c.59.384.688.278 1.808.653 2.66.843 1.91 3.489 1.538 4.936a3.846 3.846 0 0 1-.307.74l-1.33-.676c.62-.886.952-1.48.992-1.782.062-.454-.368-1.686-.71-2.044-.341-.36-1.65-.815-1.91-.901-.26-.086-.86-.014-1.15 0-.29.014-1.588-.65-1.748-.79a.66.66 0 0 1-.183-.257c.09-.312.328-.537.715-.681Z"/>
    <path fill="#A42121" d="M59.166 33.653c.311.266 1.343.775 1.881.693.462-.07.53-.176.704-.157l.098.021c.26.077 2.265.635 2.503 1.275l.33.81c.193.481.363.985.31 1.359-.051.358-.295 1.05-.732 2.072l-.783-.396c.62-.886.952-1.48.992-1.782.062-.454-.368-1.686-.71-2.044-.341-.36-1.65-.815-1.91-.901-.26-.086-.86-.014-1.15 0-.29.014-1.588-.65-1.748-.79a.66.66 0 0 1-.183-.257.877.877 0 0 1 .193-.35c-.022.164.046.312.205.447Z"/>
    <path fill="#F6F6F7" d="M84.237 48.955c-.85-2.475-1.387-3.995-1.61-4.561-.333-.85-3.22-5.041-3.326-5.15.062-.256-1.918-1.551-2.84-1.913-.922-.36-2.48.21-3.772 1.45-1.291 1.24-3.312 2.662-6 1.445-2.689-1.217-5.018-3.359-6.223-3.518-1.204-.16-3.03-.043-4.006.623-.976.666-1.776 1.565-2.905 4.622.145.613.318.867.343 1.277.025.41.271.692 0 .716-.272.024-2.609 1.05-3.834 1.374-1.225.323-4.71 1.751-5.607 1.942-.897.191-5.316 2.09-6.305 2.305-.99.215-1.532.479-1.619 0-.087-.478-.972.167-1.37.607-.397.441-4.258 1.689-5.005 2.594-.746.904 1.29 1.56 2.82 1.816 1.53.256 15.507.151 18.845 0 2.225-.101 13.03-1.978 32.414-5.63Z"/>
    <path fill="#EBEBF1" d="m54.747 42.04.118.005c.874.136 4.031 3.85 5.36 7.841.913 2.742-1.074 3.545-3.574 4.046l-2.339.36c-1.065.154-1.84.248-2.322.282l-.167.01c-.942.043-2.732.082-4.85.11a20.15 20.15 0 0 1-1.631-.34l1.7-.52c2.117-.66 3.63-1.18 4.537-1.56 1.701-.715 2.085-1.996 1.998-3.079-.033-.423-.492-1.51-1.239-2.469-.174-.223-.594-.053-.765-.308-.197-.292-.38-.76-.552-1.402l.571-.209c.963-.36 1.934-.764 2.236-.846l.07-.015c.237-.02.078-.24.018-.569l-.018-.147c-.017-.272-.098-.476-.194-.76.35-.216.637-.35.865-.404l.178-.027Z"/>
    <path fill="#D5D5D9" d="M55.059 40.006c.143-.123 2.852 4.749 3.444 9.376.574 4.488-1.743 4.048-4.833 4.623l-.807.156c-2.307.396.811-.924 1.843-2.238.879-1.118.63-2.279.342-3.217l-.207-.658c-.3-1.012-1.585-2.444-1.969-4.004l.979-.089a.338.338 0 0 1 .047-.009c.237-.02.078-.24.018-.569l-.018-.147c-.018-.294-.112-.508-.217-.831.392-1.198 1.277-2.307 1.378-2.393Z"/>
    <path fill="#4D4D4D" d="m79.962 40.279.038-.04.787 1.164c.187.28.377.567.56.85l-.3.284-1.35-1.974c-.015-.013.073-.108.265-.284Z"/>
    <path fill="#F47C65" d="m60.159 36.673.307.035c.425.056.99.36 1.662.782l1.389.908c.952.627 2.03 1.31 3.172 1.828 2.566 1.162 4.524-.082 5.82-1.276l.18-.17c1.292-1.24 2.85-1.81 3.772-1.449.86.337 2.643 1.488 2.826 1.849l.014.064c-.164-.046-1.208-.85-1.96-1.198-.75-.349-1.802-.654-2.567-.101-.764.552-1.454 1.468-1.913 1.873-.46.404-2.108 1.404-3.056 1.515-.947.111-2.602.11-4.303-.661-1.7-.771-3.272-2.008-3.697-2.342-.426-.333-2.15-1.055-2.722-1.11l-.524-.05c-.459-.034-.959-.029-1.392.18-.608.293-1.448 1.064-1.695 1.608-.248.544-1.323 2.34-1.288 3.012.035.672 1.1 1.15.76 1.458-.342.308-.087 1.13-.434 1.199-.346.069-1.102.044-1.14-.056-.029-.078-.1-.314-.06-.432l.253-.09.49-.04c.16-.019.293-.044.315-.085.058-.105.217-.677.093-.908-.125-.23-.358-.31-.629-.503-.206-.146-.236-.489-.18-.822 1.08-2.848 1.861-3.713 2.808-4.36.572-.39 1.437-.592 2.297-.66l.741-.01c.24 0 .467.003.66.012Z"/>
    <path fill="#BE4B35" d="M57.663 37.194c-.17.03-.338.08-.496.156-.608.293-1.448 1.064-1.695 1.608-.248.544-1.323 2.34-1.288 3.012.035.672 1.1 1.15.76 1.458-.342.308-.087 1.13-.434 1.199-.346.069-1.102.044-1.14-.056-.029-.078-.1-.314-.06-.432l.253-.09.49-.04.21-.034c.055-.014.094-.03.105-.051.058-.105.217-.677.093-.908-.125-.23-.358-.31-.629-.503-.206-.146-.238-.343-.182-.677.339-.894.987-2.281 1.6-3.02.114-.137.353-.447.51-.583.316-.274.95-.62 1.903-1.039Z"/>
    <path fill="#BB4832" d="M57.227 37.16c.394-.2 1.437-.173 2.471-.038.906.117 1.668.523 2.216.86l.696.446c.794.52 2.116 1.399 2.59 1.705.591.383 2.417.918 3.751.96 1.335.042 1.73-.245 2.506-.618.423-.204 1.13-.708 2.124-1.513l.478-.394c-.473.47-.888.976-1.198 1.25-.46.404-2.108 1.404-3.056 1.515-.947.111-2.602.11-4.303-.661-1.7-.771-3.272-2.008-3.697-2.342-.426-.333-2.15-1.055-2.722-1.11l-.524-.05c-.459-.034-.959-.029-1.392.18-.608.293-1.448 1.064-1.695 1.608-.248.544-1.323 2.34-1.288 3.012a.89.89 0 0 0 .162.44c-.128.138-.51-.13-.551-.212-.017-.034.03-.18.1-.363l.358-.859c.093-.24 1.134-2.23 1.308-2.595.173-.364 1.273-1.02 1.666-1.22Z"/>
    <path fill="#E2E1E5" d="M83.902 48.645c-.51-2.423-.84-3.772-.986-4.047-.22-.411-1.907-1.113-2.476-1.774s-1.406-2.084-1.294-2.734c.075-.434.075-.74 0-.917-1.393-.85-2.18-1.288-2.364-1.317-.17.606-1.784 2.89-2.838 3.692-1.054.804-2.687 1.698-6.303.417-2.411-.853-5.58-2.29-9.507-4.311-.457 1.011.178 2.138 1.904 3.38 1.727 1.242 9.681 3.78 23.864 7.61Z"/>
    <path fill="#ECECEE" d="M76.782 37.856c.183.029.971.467 2.364 1.317.075.178.075.483 0 .917-.112.65.725 2.073 1.294 2.734.569.66 2.255 1.363 2.476 1.774.106.2.309.966.607 2.298a33.995 33.995 0 0 0-1.426-.961l-2.053-1.257c-1.175-.687-2.196-1.109-5.026-1.639-.978-.183-1.521-.553-1.63-1.11.205-.122.388-.252.556-.38 1.054-.804 2.668-3.087 2.838-3.693Z"/>
    <path fill="#D1D0D5" d="m78.84 38.99.306.183c.075.178.075.483 0 .917-.112.65.725 2.073 1.294 2.734.569.66 2.255 1.363 2.476 1.774.046.087.11.278.192.576-.271-.116-.464-.223-.579-.32l-.071-.07c-.198-.24-2.398-1.475-3.082-2.486-.626-.927-.658-1.99-.592-2.455l.02-.11c.04-.178.052-.425.036-.742Zm-2.058-1.134c.08.013.277.104.59.274l-.23.35c-.251.368-.672.962-1.261 1.781-1.28 1.781-2.759 2.722-4.935 2.888-2.098.16-7.82-2.177-8.313-2.462l-.033-.023c-.07-.096-1.34-.75-1.993-1.764l1.486.716c2.16 1.021 4.008 1.804 5.548 2.35 3.616 1.28 5.25.386 6.303-.418 1.054-.803 2.668-3.086 2.838-3.692Z"/>
    <path fill="#C1C0C5" d="M80.942 46.907c-.38-.846-1.214-1.374-2.5-1.583-1.928-.314-6.457-.979-9.602-2.175-3.145-1.196-7.046-3.617-7.622-4.066-.577-.45-2.903-2.012-3.227-2.041-.325-.03-2.15 1.055-2.645 2.04-.495.986-1.336 2.93-1.398 3.571-.063.642 1.069 2.826 1.398 4.254.329 1.428 1.121 4.04-1.084 5.545-2.204 1.506-10.067 2.63-11.209 2.953-1.141.323 1.009 1.233 5.926.628 4.916-.605 25.821-4.435 28.937-5.905 2.077-.98 3.086-2.054 3.026-3.22Z"/>
    <path fill="#E1E0E5" d="M50.631 54.457c.249-.034 4.009-.99 4.895-2.435.887-1.444.985-2.67.288-5.165-.698-2.495-1.217-3.543-1.283-4.166-.065-.623 1.06-3.184 1.596-3.762.536-.579 1.558-1.315 1.815-1.275.256.04 3.297 2.24 4.193 2.776.897.536 4.294 2.52 6.43 3.273 2.137.753 6.412 1.712 7.158 1.818.746.105 2.924.328 3.233.634.308.306 1.026 1.609-.773 3.227-1.055.95-10.499 3.232-17.943 4.438-5.248.85-9.712.651-9.609.637Z"/>
    <path fill="#D1D0D5" d="M57.865 37.76c.47-.002 2.892 1.634 3.237 2.012.97 1.064 2.493 3.5 7.689 6.167 4.31 2.213 9.251 1.95 10.487 1.862l-.047.152-.71.327c-1.956.872-6.558 2.74-12.133 4.398-2.06.427-4.174.822-6.148 1.142a54.028 54.028 0 0 1-7.22.654l.704-.29c.803-.338 1.512-.672 1.799-.934 1.3-1.188 1.32-3.594.663-5.468l-.521-1.443c-.355-1.216-.654-2.043-.857-2.637a16.518 16.518 0 0 1-.275-1.178c.042-.364.432-1.942 1.094-2.92.827-1.223 1.977-1.843 2.238-1.844Z"/>
    <path fill="#2C2C2C" d="M62.365 44.087c.433.185-.102 2.861 1.049 3.59 1.15.73 6.63-.071 9.328-.48 2.698-.408 6.167-.846 6.43-.755.264.091-1.995 1.591-3.363 1.913-1.368.32-7.093 1.93-8.924 2.43-1.83.5-6.43 1.625-7.848.556-1.417-1.07-.657-3.397.255-4.507.912-1.11 2.641-2.932 3.073-2.747Z"/>
    <path fill="#817C7C" d="M62.365 44.087c.433.185-.102 2.861 1.049 3.59.911.579 4.534.196 7.343-.19l3.38-.494c1.896-.268 3.84-.509 4.655-.555l-.032.032-6.066 1.02-2.128.365c-2.372.374-6.522.876-7.347.258-.862-.645-1.162-1.965-1.193-2.744l-.002-.216c.01-.322.002-.648-.025-.976.159-.089.285-.125.366-.09Z"/>
    <path fill="#EBEBEE" d="M82.993 50.28c.099-.709.543-1.178-1.174-1.635-1.716-.458-2.89-.718-6.31 0-3.418.717-15.11 4.043-19.623 4.461-4.513.418-16.18.87-18.879.884-1.8.009-3.377-.168-4.732-.532l-.585.222c-1.548-.312-1.79-.827-.723-1.546-2.757 1.038-5.376 2.187-7.419 2.382-2.042.195-7.468.784-8.133 1.536-.665.753 4.85 2.045 9.363 2.403 4.512.357 19.22.998 29.472-.867 10.251-1.865 28.645-6.6 28.743-7.308Z"/>
    <path fill="#CECED7" d="m72.47 53.489-.041.011c-5.892 1.505-13.054 3.156-18.18 4.088a66.257 66.257 0 0 1-5.192.713c-.294-.49-.333-1.18-.12-2.065l4.06-.739c3.439-.64 5.754-1.119 6.947-1.435l.488-.14c1.92-.58 6.766-2.3 14.54-5.157l.538-.12c1.959-.412 3.18-.502 4.19-.418 1.414.45 1.828 1.062 1.245 1.835-.442.584-3.983 1.936-8.474 3.427Z"/>
    <path fill="#C9C9D0" d="m75.51 48.645.586-.117-.177.165c-.594.51-2.167 1.574-4.719 3.193 1.182-1.431 1.296-1.846.504-1.631l-1.835.44c-3.363.865-8.26 2.162-12.27 2.782-4.009.62-7.876.608-13.72.878l-.893.042c-6.147.296-9.055.03-10.132-.259l-.108-.03c-.507-.156-.887-.304-1.139-.445l.083.017.593-.117c1.355.364 2.962.572 4.762.563l2.052-.009c4.31-.117 13.043-.539 16.85-.891 2.307-.214 6.337-1.034 10.254-2.066 3.917-1.033 7.522-2.057 9.309-2.515Z"/>
    <path fill="#BDBDC5" d="M77.37 48.318c.48.9.8 2.076.794 3.141a95.94 95.94 0 0 1-4.253 1.546l-1.482.495a359.48 359.48 0 0 1-9.05 2.185l-1.96.112 8.526-5.195 5.565-1.957c.534-.113 1.013-.2 1.449-.268l.41-.059Z"/>
    <path fill="#E8E7E9" d="M15.744 56.04c.043-.207-.051-.282-.284-.224-.419.083-2.494 1.146-3.225 2.585-.73 1.438-1.038 2.424-1.063 2.694-.024.27.723 2.025 4.67 2.904 3.945.879 7.264 1.1 7.392 1.528.128.428 1.101 3.154 2.83 3.34 1.151.126 8.118.02 20.898-.317l31.77-6.802c2.68-2.274 4.143-4.227 4.386-5.86.364-2.447 1.444-8.09-2.48-7.237-3.926.852-7.526 2.073-11.4 3.413-3.876 1.34-9.47 2.985-17.87 4.246-8.4 1.26-15.693 1.934-23.993 1.307-5.534-.418-9.411-.943-11.631-1.577Z"/>
    <path fill="#E4E2E8" d="M15.744 56.04c.043-.207-.051-.282-.284-.224-.419.083-2.494 1.146-3.225 2.585-.73 1.438-1.038 2.424-1.063 2.694-.024.27.723 2.025 4.67 2.904 3.945.879 7.264 1.1 7.392 1.528.128.428 1.101 3.154 2.83 3.34 1.151.126 8.118.02 20.898-.317l31.77-6.802c2.68-2.274 4.143-4.227 4.386-5.86.364-2.447 1.53-7.807-2.395-6.955-3.925.853-7.525 2.074-11.4 3.414-3.875 1.34-9.47 2.984-17.87 4.245-8.4 1.261-16.032 1.79-24.031 1.213-5.333-.385-9.226-.973-11.678-1.765Z"/>
    <path fill="#CFCDD2" d="M15.46 55.816c.233-.058.327.017.284.224 2.452.792 6.345 1.38 11.678 1.765 7.112.513 13.935.152 21.264-.82l.72.099c2.322.336 3.86.702 3.352.877l-.144.029c-1.825.269-18.202.987-25.385.437l-.404-.033c-7.213-.634-9.874-1.372-10.804-1.687a1.22 1.22 0 0 1-.8-.808l.134-.053.105-.03Z"/>
    <path fill="#D3D3D7" d="M80.723 48.933c3.925-.852 2.76 4.508 2.395 6.956-.229 1.536-1.537 3.356-3.926 5.461l-.46.398-27.372 5.858-4.74-10.365c1.585-.184 3.195-.403 4.833-.649 8.077-1.212 13.56-2.78 17.415-4.09l.455-.155c3.875-1.34 7.475-2.561 11.4-3.414Z"/>
    <path fill="#CBCBD1" d="M74.894 50.491c.205 1.176-2.876 3.74-3.292 5.866l-.043.35c-.153 3.129-7.91 8.259-8.105 6.003-.195-2.257 2.863-7.38 3.566-8.126.703-.746-9.965 2.146-11.433 2.396-1.294.22-1.198.721-.645 1.248l.244.212c.497.4 2.083 2.108 4.758 5.126-5.739-2.455-8.757-4.752-9.053-6.892l.562-.082c8.077-1.212 13.56-2.78 17.415-4.09l.455-.155c1.453-.503 2.867-.988 4.275-1.444l1.296-.412Z"/>
    <path fill="#BBBBC5" d="M74.233 50.701c-.28.332-.762.745-1.447 1.24l-1.672.412c-4.041 1.383-7.816 2.491-10.226 3.015-2.41.524-6.782 1.415-10.295 2.056-.456-.263-.741-.32-1.04-.559.629-.085 1.262-.177 1.9-.273 8.077-1.212 13.56-2.78 17.415-4.09l.455-.155c1.453-.503 2.867-.988 4.275-1.444l.635-.202Z"/>
    <path fill="#DAD8DF" d="M16.412 59.946c2.563.473 6.927.908 8.8 1.955 1.872 1.047 3.406 3.082 4.066 4.567.633 1.425-1.404 2.568-3.46 2.18l-.257-.056a3.14 3.14 0 0 0-.35-.062l-.04-.003c-1.17-.788-1.833-2.652-1.937-3-.128-.428-3.447-.65-7.393-1.528-3.946-.879-4.693-2.634-4.67-2.904l.038-.194c.102-.417.417-1.302 1.026-2.5.138-.272.326-.534.542-.783.295 1.426 2.21 2.065 3.635 2.328Z"/>
    <path fill="#CAC8CF" d="M12.536 60.3c.59.657 3.048 1.482 4.867 1.998 1.818.516 3.98 2.001 4.212 2.553.022.052-.03.108-.145.163l-2.492-.408a62.83 62.83 0 0 1-3.137-.607c-3.946-.879-4.693-2.634-4.67-2.904l.038-.194.093-.323c.144-.447.412-1.128.837-1.985-.024.817.108 1.386.397 1.708Z"/>
    <path fill="#E9E5F0" d="M60.225 64.346c-.73-1.234-1.399-2.165-2.004-2.796-.908-.945-7.775-7.066-8.982-8.262-1.207-1.197-3.997-3.597-4.94-4.278-.942-.682-2.179-1.568-4.533-.811-2.355.756-2.422 1.074-2.488 1.26-.067.186-.403 1.62-.156 3.956.246 2.336.748 4.137-.941 5.33-1.265.944-2.315.982-3.374 1.315-1.058.334-3.019 1.034-3.939 2.24-.92 1.204-.847 2.087-.792 2.768.056.682.64 1.83 2.941 2.298 2.303.469 11 .994 16.983.342 3.99-.434 8.064-1.555 12.225-3.362Z"/>
    <path fill="#E1DFE3" d="M46.616 50.909c.983.848 2.008 1.77 2.623 2.379 1.207 1.196 8.074 7.317 8.982 8.262.605.63 1.273 1.562 2.004 2.796-4.16 1.807-8.236 2.928-12.225 3.362-5.984.652-14.68.127-16.983-.342-2.302-.468-2.885-1.616-2.94-2.298-.056-.681-.129-1.564.791-2.769.624-.816 1.724-1.4 2.698-1.797 4.114.108 7.603-.765 10.467-2.618 3.053-1.974 4.581-4.363 4.586-7.166Z"/>
    <path fill="#DBD9E0" d="m48.378 52.831-.175-.518.814.758.563.545c1.816 1.716 7.798 7.056 8.64 7.934.606.63 1.274 1.562 2.005 2.796-4.16 1.807-8.236 2.928-12.225 3.362l-1.19.112c-5.89.473-13.639-.016-15.793-.454-2.166-.44-2.81-1.484-2.925-2.173l-.016-.125c-.055-.681-.128-1.564.792-2.769s2.88-1.905 3.94-2.239c1.058-.333 2.108-.371 3.373-1.314 1.364-.964 1.3-2.323 1.094-4.04l.616-.352c.348 1.632.454 2.778.317 3.437-.204.988-1.93 2.685-3.076 3.113l-1.42.514c-.833.31-1.692.677-2.342 1.16-1.04.775 4.86.318 8.644.593 3.784.276 6.92-1.338 8.582-3.317 1.008-1.2.935-3.54-.218-7.023Z"/>
    <path fill="#C3C0C8" d="M39.766 48.199c2.354-.757 3.59.129 4.533.81.817.591 3.022 2.473 4.38 3.743l1.128 1.078c2.042 1.907 7.604 6.876 8.414 7.72.605.63 1.273 1.562 2.004 2.796-4.16 1.807-8.236 2.928-12.225 3.362l-1.19.112c-5.89.473-13.639-.016-15.793-.454-2.166-.44-2.81-1.484-2.925-2.173l-.016-.125c-.055-.681-.128-1.564.792-2.769s2.88-1.905 3.94-2.239c1.058-.333 2.108-.371 3.373-1.314 1.69-1.194 1.187-2.995.94-5.331-.246-2.337.09-3.77.157-3.956l.04-.1c.105-.197.465-.524 2.448-1.16Zm2.385.643c-.467-.223-1.426.005-2.194.245l-.924.314c-.61.214-.987.323-1.167 1.034-.18.711.28 3.181.526 4.89.246 1.71-.626 3.099-1.057 3.934-.431.835-2.516 1.409-3.98 1.872-1.464.463-2.712 1.206-3.356 2.349-.644 1.143 1.1.083 3.135.086 2.034.002 7.623 1.76 8.636 1.94 1.013.178 1.149-.324 2.366-1.071 1.154-.709 5.675-.641 7.692-.719l.312-.014c1.816-.102 2.932-.294 3.354-1.369.282-.717-1.25-3.082-4.595-7.096l-.943-.714a59.472 59.472 0 0 1-2.49-1.991l-.252-.22c-1.198-1.056-4.362-3.136-5.063-3.47Z"/>
    <path fill="#D4462A" d="M39.766 48.199c2.354-.757 3.59.129 4.533.81.817.591 3.022 2.473 4.38 3.743l1.128 1.078c2.042 1.907 7.604 6.876 8.414 7.72.605.63 1.273 1.562 2.004 2.796l-.786.334-.51-.656c-1.551-1.97-2.74-3.322-3.564-4.059L54.16 58.87c-1.13-1.036-2.474-2.287-3.298-3.035l-.58-.517c-.71-.61-3.285-3.266-4.845-4.498l-1.797-1.348c-.698-.51-1.232-.837-1.676-.827-.722.015-2.095.145-3.155.65-1.06.504-1.16 1.24-1.048 2.727.112 1.487.54 3.174.447 4.214-.093 1.04-1.069 3.192-2.202 3.73-1.133.537-3.002.78-4.316 1.358-1.314.579-2.836 1.767-2.801 2.964.021.736-.215 1.142-.71 1.217a1.55 1.55 0 0 1-.103-.437l-.024-.358c-.028-.626.05-1.407.816-2.41.92-1.206 2.88-1.906 3.94-2.24 1.058-.333 2.108-.371 3.373-1.314 1.69-1.194 1.187-2.995.94-5.331-.246-2.337.09-3.77.157-3.956l.04-.1c.105-.197.465-.524 2.448-1.16Z"/>
    <path fill="#FA7D50" d="M34.903 59.854c1.392-.541 2.252-1.342 2.578-2.401.489-1.59-.054-3.46.053-3.34.107.12.4 1.904.351 2.311-.049.408-.166 1.132-.458 1.618-.293.486-1.059 1.28-1.684 1.538-.417.172-.697.263-.84.274ZM37.376 51.202c-.144.003.12-1.58.284-1.801.163-.22 1.42-.854 2.041-1.018.621-.164 2.074-.415 2.6-.184.527.23 2.1 1.152 3.184 2.009 1.083.857 3.668 3.196 3.438 3.121-.23-.074-3.182-2.787-3.845-3.267-.664-.48-2.364-1.531-2.776-1.701-.413-.17-1.991-.068-2.686.203-.694.27-1.652.745-1.809.938-.157.194-.286 1.697-.43 1.7Z"/>
    <path fill="#7F7F85" d="M62.659 63.621c1.43-3.15 2.913-5.725 4.447-7.724 2.301-2.997 7.189-7.46 9.932-9.006 2.743-1.547 3.728-1.332 4.475-.896.747.436 2.815 2.186 3.006 2.442.19.256.583 1.938.54 2.58-.044.643.377 3.145.38 3.567.002.28-.057.831-.175 1.652.245.272.367.542.364.809-.004.4-.057 1.25-.19 1.38-.132.128-.165.075-.174.455-.009.38.198 1.829 0 2.232-.198.403-.692 1.008-1.885 1.157-.796.1-7.703.55-20.72 1.352Z"/>
    <path fill="#DADADA" d="M63.229 63.48c1.086-2.96 2.396-5.375 3.93-7.244 2.3-2.803 7.739-7.8 10.482-9.347 2.743-1.547 3.286-1.14 4.033-.703.747.436 2.654 1.995 2.845 2.25.19.257.583 1.94.54 2.582-.044.642.377 3.144.38 3.566.002.28-.057.831-.175 1.652.245.272.367.542.364.809-.004.4-.057 1.25-.19 1.38-.132.128-.165.075-.174.455-.009.38.198 1.829 0 2.232-.198.403-.692 1.008-1.885 1.157-.796.1-7.513.503-20.15 1.21Z"/>
    <path fill="#D6D4D4" d="m81.493 46.08.029.13-1.24.871c-7.422 5.294-10.735 9.035-9.939 11.224 1.26 3.46 5.962.788 7.602 1.01 1.64.222 3.168 1.93 3.256 2.264.021.083-1.103.491-2.828 1.03l-14.148.815-.996.056c1.086-2.96 2.396-5.375 3.93-7.244 2.3-2.803 7.739-7.8 10.482-9.347 2.519-1.42 3.182-1.193 3.852-.809Z"/>
    <path fill="#CCCCD3" d="M81.674 46.186c.577.337 1.847 1.344 2.482 1.903l-.843-.395c-1.452-.666-2.381-1.018-2.791-1.055-.82-.076-4.413 2.191-6.022 3.573l-1.263 1.154c-1.76 1.625-4.471 4.184-5.723 5.853-.932 1.243-2.012 3.309-3.239 6.198l-1.046.063c1.086-2.96 2.396-5.375 3.93-7.244 2.3-2.803 7.739-7.8 10.482-9.347 2.743-1.547 3.286-1.14 4.033-.703Z"/>
    <path fill="#413E3E" d="m85.628 57.045-.022.514c-.02.288-.056.591-.11.756l-.511.114.199-1.722.248-.257c.132.2.198.398.196.595Z"/>
    <path fill="#C76050" d="m85.353 53.792-.031.092-.058.14a.21.21 0 0 1-.026.038c-.08.09-.188-.01-.323-.3l.16.594c.09.306.144.434.163.383.02-.052.1-.163.193-.284l.008.129-.013.307c-.024.31-.078.759-.162 1.345l.015.019a.65.65 0 0 1-.22.084c-.163.017-.346-.223-.467-.567-.066-.187-.078-.795-.036-1.823l.036-.748.323.406-.113-.767-.21-1.515.47-.098c.014.58.184 1.756.29 2.565Z"/>
    <path fill="#CC392A" d="M85.364 60.98c-.029.24-.365.4-1.01.48-.966.122-1.687.237-2.237.086-.55-.15-1.416-.9-2.126-1.204-.709-.304-3.164-.284-7.701.343-4.538.626-10.459 1.931-12.004 2.362-1.546.43-1.59.622-2.034.584-.445-.038-1.985.117-2.973.458-.658.227-1.22.408-1.686.542-6.942 1.555-10.65 2.243-11.121 2.063-.707-.27.1-.29-3.025-1.119-3.124-.828-6.198-1.662-8.007-1.684-1.81-.02-2.19-.12-2.618.116-.426.235-.595.028-.881.249-.287.22-2.465 1.873-2.678 2.061-.214.188.072.713.408 1.239.336.526.696 1.117 2.16 1.16.976.029 5.824-.175 14.544-.612l16.931-.787c3.94-.939 6.786-1.402 8.54-1.39 2.629.018 12.061-.401 14.443-.71 2.382-.31 3.402-1.255 3.53-1.532.128-.277-.057-1.94-.086-2.224-.02-.19-.143-.35-.369-.481Z"/>
    <path fill="#BF372A" d="m36.714 64.859 1.49.386 1.87.5c.474.131.828.238 1.097.327l-3.927.265c-.937.07-1.697.149-2.865.33l-1.58.252c-3.028.455-6.193.634-6.472-.237-.304-.947 1.89-2.044 3.068-2.247l.212-.017c.935-.033 4.085.168 7.107.44Z"/>
    <path fill="#9F1F09" d="M53.75 64.617c.205.03.721.16 1.12.435l.438.288c.803.519 2.311 1.466 2.412 1.5.118.038 2.46-.45 3.313-.582l.598-.087c.897-.143 2.532-.44 3.698-.56l.797-.072c1.553-.131 4.088-.298 5.502-.33l1.266-.029c2.213-.081 6.867-.366 8.299-.536l1.271-.17c1.204-.162 2.706-.41 3.393-.972l-.023.138a.27.27 0 0 1-.015.045c-.128.277-1.148 1.222-3.53 1.531-2.107.274-9.731.634-13.283.7l-1.16.01c-1.535-.01-3.906.344-7.114 1.061l-1.426.33-28.142 1.31c-1.808.071-2.919.101-3.333.089-1.238-.037-1.687-.465-2-.915l-.16-.245c-.336-.526-.622-1.05-.408-1.239l2.678-2.061c.222-.171.373-.085.628-.147l-.933.776-1.097.831c-.45.347-.858.687-.86.795-.003.216.208 1.426 1.199 1.621.99.196 5.526-.075 7.419-.224l1.793-.153c1.864-.17 4.01-.392 4.332-.506.437-.155 1.05-.738 1.521-.738l.191.007c.075.054.156.107.338.176.38.145 2.865-.274 7.454-1.258l3.648-.8.146-.019a.164.164 0 0 1 .03 0Z"/>
    <path fill="#FFB4A8" d="m30.175 63.923.387-.05.878.018c1.447.017 3.704.555 6.148 1.193l2.517.67c1.281.356 1.675.53 1.874.654.04.244-.706.553-1.299.738-.355.111-1.567.256-2.703.379l-2.43.256c-1.395.13-7.512.589-7.933.54-.247-.03-.638-.256-.904-.424l-.097-.063.177.066c.349.111.878.21 1.285.27l.454.057.206-.006c1.38-.083 8.821-.872 10.393-1.006l.253-.018c.689-.03 1.244-.294 1.329-.582.078-.268-1.328-.542-2.177-.773l-.185-.052c-.809-.241-4.788-1.14-6.658-1.495-1.87-.356-3.138.228-3.069.124l.08-.064c.179-.111.646-.31 1.474-.432Z"/>
    <path fill="#FF7962" d="m85.364 60.98.07.044-.045.145-.082.167c-.193.308-.6.454-.919.588-.318.133-1.738.281-1.9.25-.076-.015-.248-.138-.516-.368l-.367-.327-.496-.48c.376.245.732.471 1.008.547.55.15 1.27.036 2.237-.085.645-.08.981-.241 1.01-.481Z"/>
    <path fill="#D8D8D8" d="M86 68c-.043-.885-.07-1.467-.079-1.745a4.447 4.447 0 0 0-.057-.643c.136-1.313.155-2.023.057-2.132-.24.36-.542.654-2.057.917-1.514.264-4.509.656-9.837.872-5.327.216-9.215.643-12 1.11-1.858.31-3.494.572-4.91.787l5.486 3.445L62 72h6.017c1.84 0 12.112-.723 14.624-1.661C84.316 69.713 85.435 68.934 86 68Z"/>
    <path fill="#C7C7C7" d="M84.44 69.48c-.503.312-1.103.599-1.799.859-2.338.873-11.405 1.56-14.128 1.65l-.496.011h-5.81l.138-.532 8.105-.183c.095 0 .15-.01.28-.005l.105-.485.393-.017.038.5 1.838-.085c4.87-.3 8.584-.85 11.14-1.65l.197-.064Z"/>
    <path fill="#BABABA" d="m86.186 66.75-.242.06.011.244c-.73.206-1.626.434-2.683.686-1.231.293-3.333.516-6.306.667l3.065-.33.505-.05c.975-.092 2.858-.518 5.65-1.277Z"/>
    <path fill="#B5B5B5" d="m85.68 65.843.213-.025.02.267-.148.01-.137.015c-.528.078-5.58 1.146-6.857 1.42-1.277.272-2.715.7-3.99 1.389-1.274.689-2.529 1.236-3.146 1.375a4.988 4.988 0 0 1-.59.096l-2.256.14a631.04 631.04 0 0 1-6.265.265l.08-.184-5.486-3.445.812-.125 2.302 1.632c.182.124.307.206.375.246l1.752 1.072c.424.252.78.453.87.468l.324.003c1.259-.018 5.727-.2 6.726-.239 1.015-.04 2.524-.353 3.458-.852l.322-.196c.792-.556 2.727-1.241 4.027-1.607l.37-.1c1.204-.31 5.958-1.454 7.224-1.625Z"/>
    <path fill="#D9D8DD" d="M63.229 70.816c-5.014-3.268-8.138-5.268-9.371-6-1.85-1.098-3.522-2.394-6.088-2.02-2.565.375-3.54 1.605-4.297 2.492-.756.887-1.285 1.656-2.01 1.888-.725.232-9.721 1.272-11.427 1.477-1.706.205-3.432.408-4.329-.913-.897-1.321-1.192-2.537-2.065-2.965-.873-.428-6.867-1.22-9.1-2.163-2.234-.942-3.156-1.513-3.262-2.112-.104-.176-.834.492-.903.687-.068.195.137.878 0 .981-.137.103-.12 1.019-.163 1.206a5.09 5.09 0 0 1-.219.626v1.146c0 .341-.134 1.759 2.037 2.867 2.172 1.11 6.752 2.549 8.815 2.944C22.91 71.353 28.01 72 32 72h30.952c-.138-.163-.214-.3-.228-.41a1.23 1.23 0 0 1 .05-.434l.455-.34Z"/>
    <path fill="#D1D0D3" d="M41.209 68.84c-2.055 1.534-9.373 3.514-11.814 1.91-1.844-1.214-4.727-1.931-3.713-3.047l.025.037c.785 1.156 2.204 1.145 3.69.987l6.984-.835c2.454-.303 4.732-.604 5.082-.716.586-.187 1.044-.726 1.598-1.394-.206 1.27-.824 2.289-1.852 3.057Z"/>
    <path fill="#F1F1F1" d="m11.224 60.471.056.03c.106.598 1.028 1.169 3.262 2.111 2.233.943 8.227 1.735 9.1 2.163.873.428 1.168 1.644 2.065 2.965.785 1.156 2.204 1.145 3.69.987l6.984-.835c2.454-.303 4.732-.604 5.082-.716.483-.154.88-.548 1.314-1.056l.993-1.178c.728-.835 1.756-1.818 4-2.145 1.924-.281 3.346.378 4.717 1.188l2.338 1.423c.875.545 2.116 1.336 3.724 2.372l4.68 3.036-.456.34c-.024.094-.04.18-.048.255L57.428 72H32c-3.79 0-8.583-.584-10.821-.982l-.332-.06c-.632-.122-1.501-.341-2.464-.619.424-1.188.393-2.593-.144-2.871-.748-.387 1.246.012 1.542.272.297.26.949 1.696 1.186 1.748l.473.064c.805.097 2.327.25 2.436.202.143-.062.81-.812 1.212-.794l2.636.28c1.928.193 4.616.415 7.072.418l2.395-.019c3.482-.053 6.647-.192 7.053-.042.498.184 1.069.902 1.41.94l.783.012c3.017.014 13.689-.026 14.495-.011.619.011 1.248.082 1.888.211l-8.085-5.083a34.406 34.406 0 0 0-1.356-.815l-.34-.165c-1.073-.497-3.695-1.541-5.067-1.24-1.556.342-3.546 1.701-4.569 2.653l-.683.633c-.43.387-.676.55-1.063.63l-.425.064c-1.667.225-10.052 1.336-11.386 1.41-1.429.078-2.633.134-3.473-.298-.84-.432-1.271-1.548-1.503-2.115-.232-.566-1.861-1.408-3.463-1.781-1.6-.374-4.338-.736-6.47-1.521l-.772-.293c-1.737-.678-2.978-1.315-3.07-1.77-.03-.157-.014-.345.051-.567l.078-.02Z"/>
    <path fill="#000" d="m38.753 70.46 4.839-.237L44.709 72 32 72c-2.959 0-6.53-.356-9.019-.701l.657-.414c.711-.44 1.227-.726 1.55-.86.571-.24 5.093-.094 13.565.434Z"/>
    <path fill="#78757A" d="M11.342 62.49c.784.428 3.319 1.527 4.76 1.94 1.442.414 4.01.945 5.834 1.166.456.051.376.404 0 .402l-.213-.007c-.724-.036-2.824-.214-4.851-.78-2.297-.642-4.918-1.825-5.7-2.233a5.99 5.99 0 0 1-.88-.56.84.84 0 0 1 .05-.2l.035-.05c.06-.045.055-.201.035-.38.192.2.499.467.93.702Z"/>
    <path fill="#E1E1E1" fill-rule="nonzero" d="M10.484 61.719c.24.249.541.485.906.684.944.515 3.471 1.567 4.74 1.931 1.507.433 4.074.951 5.817 1.163.256.029.419.157.4.33-.013.13-.127.226-.287.259l-.127.012-.215-.007a23.722 23.722 0 0 1-4.873-.784c-1.897-.53-4.455-1.58-5.72-2.24a3.888 3.888 0 0 1-.698-.455l-.143-.132a.947.947 0 0 1 .062-.27l.031-.042c.064-.047.054-.22.031-.411l.076-.038Zm.042.315a.32.32 0 0 1-.03.152l-.062.073c-.015.032-.03.091-.08.08.268.205.556.39.864.55 1.253.655 3.798 1.7 5.68 2.225 1.423.398 3.026.644 4.303.743l.526.034.21.007c.13 0 .207-.049.211-.092.005-.04-.062-.092-.224-.11-1.754-.213-4.332-.734-5.85-1.17-1.282-.368-3.823-1.426-4.78-1.948l-.275-.164-.25-.176-.243-.204Z"/>
    <path fill="#C2B9C0" d="M10.476 64.026c.342.255 2.664 1.364 3.828 1.81 1.164.445 4.818 1.21 5.198 1.496.381.286.825.799.911 1.587.058.525.024.893-.102 1.105-.1-1.114-.236-1.753-.41-1.918-.262-.246-.885-.739-2.159-1.037-1.274-.298-2.27-.562-3.7-1.075-1.43-.513-3.262-1.484-3.703-1.756a1.167 1.167 0 0 1-.322-.292l.14-.38c.082.213.19.365.319.46Z"/>
    <path fill="#D7D2DB" d="M10.11 63.702c.19.266.349.441.475.526.448.3 3.104 1.49 3.749 1.77s3.1.933 4.207 1.208c1.108.276 1.432.795 1.607 1.215.126.305.073 1.058.02 1.506-.021.18.117.318.416.414.11.317.12.475.03.476-.286 0-1.109-.303-1.35-.235-2.294-.61-5.515-1.692-7.232-2.569-1.828-.933-2.022-2.086-2.037-2.63V64l.115-.298Z"/>
    <path fill="#3C3A3A" d="M20.328 68.919c.272.464.443.73.513.795.105.1 2.995.31 3.263.187.267-.125.278-.37.61-.588.331-.218.308-.108 1.349 0 1.04.107 7.338.556 8.59.588 1.25.031 8.173-.226 8.772-.187.6.04 1.016.15 1.505.677.489.528 1.113.337 1.597.337.483 0 14.851-.033 15.322 0 .264.018.631.116 1.102.293l-.178.135c-.017.068-.03.131-.04.19l-.009.003v.077a.785.785 0 0 0 0 .164c.014.11.09.247.228.41H43.29l.135-.87-.65-.157L42.443 72h-7.205l-.173-.87h-.413l-.134.87H32c-1.696 0-3.594-.117-5.374-.282l-.155-1.47-.69-.041-.106 1.417c-2.021-.21-3.801-.47-4.828-.667a12.443 12.443 0 0 1-.053-.01 1.41 1.41 0 0 1-.12-.556c-.006-.255-.31-.164-.346-.367-.023-.135-.023-.504 0-1.105Z"/>
    <path fill="#3C3A3A" d="M81.79 70.585c-3.317.788-11.508 1.373-13.575 1.413l-6.08.005.073-.269h5.962c1.661-.092 2.515-.154 2.562-.187.046-.032.09-.262.129-.687l.318-.023.04.572c.006.16.198.13.271.132l3.467-.183 1.535-.114c.78-.064 2.277-.247 4.49-.549l.808-.11Z"/>
    <path fill="#581011" d="M73.279 66.236c-.259-.16-1.901.017-3.354 0-1.452-.017-3.442.086-4.912.294-1.47.208-2.957.225-3.144.573-.186.348.069.657-.093.637-.16-.02-.251-.091-.2.273.05.365.5.546.828.576.33.03 3.255-.17 5.253-.19 2-.018 5.13.08 5.425 0 .296-.079.719-.695.715-1.177-.005-.482-.26-.826-.518-.986Z"/>
    <path fill="#762121" d="m71.59 66.361.196.002c.546.014 1.113-.029 1.198.775.086.804-.581 1.122-1.072 1.179-.491.056-2.178.002-2.558 0-.38-.003-1.894.023-2.66 0-.766-.024-3.877.097-4.021.09-.144-.007-.048-.045-.001-.174.047-.13 2.09-.186 2.245-.209.157-.022.019-.268-.035-.345-.054-.076-1.426-.192-1.933-.117-.506.075-.761-.294-.5-.445.261-.15 2.247-.388 2.79-.44.544-.05 1.021-.11 1.57-.129.548-.019.436.018.54.062.07.03.125.196.165.5v-.001L67.54 67c.058-.206.136-.326.233-.362l.05-.01c.208-.015.769-.087 1.529-.072.76.015.595.19.655.202.06.013.101.327.052.43-.049.104-2 .067-2.145.052-.145-.014-.433.114-.479.144-.045.03-.06.443.388.427.448-.015 2.067-.225 2.301-.307.235-.082.023-.694.073-.825.05-.13.109-.259.408-.263.3-.005.634-.067 1.18-.053Z"/>
    <path fill="#B96A63" d="M70.889 66.57c-.452.024-.657.148-.613.373.065.337.017.571 0 .65-.017.078.026.336.204.42.178.085 1.064.049 1.187-.006.124-.054.163-1.125-.108-1.283a1.283 1.283 0 0 0-.67-.154Z"/>
    <path fill="#E4D1CB" d="M65.416 66.81c-.065.01-.387.143-.456.42a.958.958 0 0 0 0 .51c.108.32.211.483.31.486.15.006 1.937.024 2.037 0 .1-.023.13-.195.144-.304.013-.11.135-.35 0-.452-.136-.103.17-.528-.048-.703-.219-.175-1.922.035-1.987.044ZM71.559 66.468c-.284.003-.883.018-.67.102.212.084.585.209.501.38-.084.171-.542.46-.501.79.04.33.914.31 1.254.273.34-.035.577-.378.585-.77.008-.392-.237-.519-.281-.655-.044-.136-.604-.123-.888-.12Z"/>
    <path fill="#AC7272" d="M61.736 67.617c.248 0 .385.277.745.255.36-.022 2.314-.11 2.48-.126.164-.018 2.738-.198 3.658-.278.92-.08 1.11-.053 1.936-.045.826.007.142.357-.541.43-.683.074-3.132-.026-3.545.019-.414.045-1.553.089-2.143.141-.59.053-1.797.321-2.137.236-.34-.084-.46-.21-.628-.377-.167-.167-.072-.255.175-.255Z"/>
    <path fill="#BDBCBC" d="M44.967 53.942c.144-.248.294-.839-.616-1.763-.91-.923-2.224-2.36-2.427-2.508-.203-.149-2.433.196-2.759.45-.326.253-.51.422-.358 1.333.15.91.827 2.533 1.242 2.754.416.222 3.731.297 4.144.197.412-.099.63-.215.774-.463Z"/>
    <path fill="#FDF9F9" d="M44.95 53.84c.144-.247.351-.675-.559-1.599-.91-.923-2.224-2.36-2.427-2.508-.203-.149-2.417.125-2.743.379-.326.253-.51.423-.359 1.334.151.91.84 2.47 1.256 2.69.415.222 3.645.267 4.057.168.413-.1.63-.215.775-.463Z"/>
    <path fill="#49434B" d="M44.491 53.35c.278-.262-.524-1.143-1.162-1.73-.638-.587-1.346-1.583-1.545-1.653-.2-.07-2.084.249-2.309.496-.224.247-.013 1.08.245 1.872s.544 1.332 1.23 1.354c.688.02 3.263-.077 3.541-.339Z"/>
    <path fill="#262424" d="M42.51 52.004c.24-.17.155-.688-.215-.668-.37.02-1.863.281-1.954.499-.092.218.115.562.392.617.277.055 1.539-.277 1.778-.448ZM43.35 52.993c.111-.373.046-.576-.194-.609-.362-.05-1.826.35-1.914.487-.088.136-.019.565.4.594.278.02.848-.138 1.709-.472ZM40.318 51.367c.385-.045 1.485-.339 1.516-.52.03-.18.202-.454-.378-.444-.58.01-1.42.219-1.503.409-.083.19-.02.6.365.555Z"/>
    <path fill="#707070" fill-rule="nonzero" d="M55.98 38.656c-.42.313-1.276 2.64-1.274 3.247 0 .233.092.544.189.785l.074.172c.04.083.088.175.177.335l.308.55.274.46c.176.298.29.503.359.648l.042.098c.341.872.601 1.375 1.02 1.541l.188.051c.595.111 1.062-.038 1.31-.717l.074-.23c.21-.737.644-1.563 1.082-1.952l.27-.223 1.155-.874c.251-.201.271-.255.35-.415.291-.597-.292-1.425-1.042-1.792l-.537-.278c-.639-.337-1.67-.883-2.134-1.14l-.24-.137c-.516-.31-1.185-.472-1.645-.129Z"/>
    <path fill="#CDCACA" fill-rule="nonzero" d="M56.008 38.736c-.42.313-1.236 2.539-1.234 3.146.001.234.054.462.151.702l.074.173c.04.083.088.174.177.334l.308.55.274.46c.176.299.29.503.359.649l.043.098c.34.872.6 1.374 1.019 1.54l.188.052c.595.11.959-.07 1.206-.75l.074-.228c.21-.738.614-1.46 1.052-1.85l.27-.223 1.155-.873c.251-.202.272-.256.35-.415.291-.597-.306-1.36-1.057-1.727l-.536-.278c-.639-.337-1.605-.86-2.07-1.118l-.24-.136c-.516-.311-1.102-.449-1.563-.106Z"/>
    <path fill="#353237" d="M61.024 41.881c.128-.261-.294-.798-.826-1.058a100.66 100.66 0 0 1-2.885-1.553c-.214-.13-.715-.35-1.006-.133-.292.218-1.034 2.315-1.033 2.743.002.428.267.83.506 1.27.239.438.695 1.133.845 1.516.15.383.504 1.223.807 1.277.303.055.519.135.734-.619.216-.754.648-1.594 1.202-2.085.553-.491 1.528-1.096 1.656-1.358Z"/>
    <path fill="#2A0F0F" d="m57.954 43.295.413.322a41.817 41.817 0 0 1-.632 1.165c-.02.02-.216-.304-.218-.377-.002-.048.144-.418.437-1.11Zm-.717-1.004c.034-.03.158.067.373.29l-.656 1.223c-.18-.125-.282-.21-.308-.256-.038-.068.54-1.212.591-1.257Zm1.717-1.093.478.447-.49.983-.226.126-.26-.243.498-1.313Zm-.84-.766.385.418c-.335.772-.505 1.143-.508 1.111-.004-.031-.163-.14-.477-.325l.6-1.204Z"/>
    <path fill="#BFBFBF" d="m33.134 51.281.531 1.171c.138.234.256.382.354.445.147.094.691.17.786.17.095 0 .813-.311.904-.422.06-.074.09-.213.088-.42-1.703-1.249-2.556-1.843-2.56-1.784-.005.06-.04.34-.103.84Z"/>
    <path fill="#5B5B5B" d="m33.702 48.842-2.332.849.19.433.391-.117c.165.36.273.61.323.752.076.211.277.516.391.52.076.003.232.003.469 0l.102-.62c.673-1.125.963-1.69.868-1.693-.094-.004-.228-.045-.402-.124Z"/>
    <path fill="#F2F2F2" d="M35.794 52.225c-.049-.198-.471-.855-.698-1.156-.15-.2-.374-.571-.67-1.112l-.29-.39-.096-.427-1.352.637-.315-.21c-.635.054-.936.115-.902.183.034.068.083.173.147.315l.487-.168c.217.49.37.766.46.827.09.06.283.06.58 0 .3.687.454 1.075.465 1.162.016.131.435.737.525.77.06.022.224.07.493.146a.661.661 0 0 0 .468 0c.212-.085.747-.378.698-.577Z"/>
    <path fill="#868686" d="m34.648 50.441.118-.484-.364-.817c.274-.17.396-.27.364-.298-.031-.028-.091-.188-.18-.481l-1.45.681c.293-.07.485-.097.575-.077.091.02.16.101.209.245l.728 1.231Z"/>
    <path fill="#BCBBBE" d="M45.499 49.14c-.125.082-.156.198-.093.347.095.224.26.495.573.4.313-.097.852-.288.995-.364.143-.077.073-.6-.042-.656-.077-.037-.555.054-1.433.273Z"/>
    <path fill="#B5B4B6" d="M49.208 48.14c-.125.082-.156.198-.093.347.095.224.26.495.573.4.313-.096.852-.287.995-.364.143-.076.073-.6-.042-.656-.077-.037-.555.054-1.433.273Z"/>
    <path fill="#979797" d="M52.424 46.966c-.125.083-.155.198-.092.348.094.224.26.495.573.399.313-.096.852-.287.995-.363.143-.077.073-.601-.042-.657-.077-.037-.555.055-1.434.273Z"/>
    <path fill="#EDEDED" d="M41.747 47.193c.166-.005.482.233.387.231-.096-.002-.07.057-.233.255s-.235 1.087-.31 1.628c-.074.541-.132 1.31-.11 1.424.024.113-.346.306-.58.34-.234.035-.745.09-.78-.078-.034-.17-.222-2.83 0-3.084.222-.255 1.46-.711 1.626-.716Zm5.172-1.332c.13-.012.28.105.45.348-.3-.076-.45-.046-.45.092 0 .206.105 2.238.15 2.344.043.106-.079.717-.15.756-.07.039-.963.216-1.096.29-.133.074-.248-.164-.376-.29-.103-.103-.106-1.408-.105-1.965v-.315c.003-.171.022-.482.105-.622.098-.164 1.278-.621 1.472-.638Zm2.858-1.195c.19-.047.387.352.412.612.025.26.426 2.114.465 2.311.04.198.104.782-.233.86-.337.08-.85.222-.973.162s-.488-.402-.517-.534c-.028-.132-.52-1.484-.591-1.788-.071-.304-.26-.554 0-.597.26-.044 1.247-.98 1.437-1.026Zm2.647-2.69c.055.193.135.562.326 1.396.191.835.352.963.494 1.587.142.624.682 1.733.521 2.037-.161.304-.193.356-.476.46-.283.102-.603.14-.767.117-.163-.024-.464-.743-.547-1.023-.083-.28-.21-1.344-.443-1.68-.232-.337-.886-1.27-.96-1.402-.074-.13.458-.536.615-.608.156-.071.048-.23.17-.349.123-.12 1.012-.728 1.067-.535Z"/>
    <path fill="#D8D8D8" d="M41.482 50.73c.023.114-.347.307-.581.341l-.25.03c-.237.018-.505.012-.53-.108l-.039-.417c.125.171.251.26.379.265.158.007.498-.088 1.017-.285v.137c0 .016.002.029.004.038Zm5.586-2.085c.044.106-.078.717-.149.756-.07.039-.963.216-1.096.29-.133.074-.248-.164-.376-.29-.033-.034-.057-.196-.072-.418l.277.22c.11.08.185.119.224.118l.21-.029c.245-.042.606-.122.65-.19l.323-.487.01.03Zm3.542-1.27.044.214.028.207c.018.251-.008.595-.261.654l-.486.115c-.22.049-.417.08-.487.046-.123-.06-.488-.402-.517-.534l-.027-.09-.102-.056c.402.227.702.316.901.268.199-.049.412-.138.641-.268l.266-.555Zm3.155-.379c-.161.304-.193.356-.476.46-.283.102-.603.14-.767.117-.097-.015-.241-.272-.36-.538l.26.12c.107.043.182.06.224.054.135-.021.643-.182.733-.297.055-.071.163-.464.26-.748l.104.347c.054.215.073.39.022.485Z"/>
    <path fill="#FFB8AB" d="m54.356 64.85 1.771-.415c1.894-.34 3.093-.576 3.598-.707.756-.197 4.68-1.35 7.432-1.77 2.753-.418 8.395-1.089 9.724-1.09 1.328-.001 3.353.089 3.138-.177-.215-.266-.783-.479-2.675-.39-1.892.089-7.258.858-8.498 1.065-1.24.207-5.025 1-6.368 1.372-1.343.373-3.112.82-3.27.884-.158.063-2.23.538-2.604.534-.374-.005-1.42.3-1.79.364-.368.064-.937.012-.782.157a.64.64 0 0 0 .324.174Z"/>
    <path fill="#5E5E5E" d="M58.053 34.471c.324.183.435.318.335.405-.15.13-.375.32-.49.441-.076.082-.3.346-.67.792l-.218-.309c.325-.546.502-.827.53-.845.03-.017.2-.178.513-.484ZM55.325 37.283c.127-.102.523.02.372.151-.15.13-.302.28-.416.402-.077.082-.269.34-.577.776-.085-.164-.085-.305 0-.422.379-.517.545-.847.621-.907Z"/>
    <path fill="#E3E3E4" d="M56.127 41.939c.14-.035.538-.29.37-.424-.169-.134-.258-.295-.803-.446-.545-.15-.877-.372-1.261-.553a1.3 1.3 0 0 1-.581-.51c.186.285.484.484.894.598.614.17.878 0 1.187.06.309.06.88.035.924 0 .044-.035.316-.204.232-.529-.084-.324-.434-.606-.903-.723-.47-.116-1.08-.16-1.412-.366-.331-.206-.378-.384-.588-.223-.21.16-.327.573-.487.699-.16.126-.302.036-.679.613-.376.577-.55.578-.22.934.33.357.392.708 1.34.976.948.268 1.61.294 1.793.31.182.016.306-.012.194-.157-.11-.146-.138-.225 0-.26Z"/>
    <path fill="#EDEDEF" d="M54.186 38.823c.168-.129.231-.041.42.104-.147.151-.266.317-.343.427-.092.13-.187.29-.285.48-.304.142-.493.27-.57.382-.112.17-.328.553-.27.89l.086.467c-.111-.106-.191-.217-.28-.331l-.144-.173c-.294-.317-.189-.352.103-.761l.117-.173c.377-.577.52-.487.68-.613.159-.126.276-.54.486-.7Z"/>
    <path fill="#9A9AA1" d="M54.774 40.689c.197.102.402.206.653.296l.267.084c.545.151.634.312.803.446.147.118-.14.327-.307.401l-.063.023c-.138.034-.11.113 0 .259.093.12.023.16-.109.161l-.276-.019a8.373 8.373 0 0 1-1.602-.295c-.715-.202-.926-.451-1.128-.714.189.163.424.318.705.464.534.278.992.25 1.557.25.565-.001.268-.07.397-.228s.313-.058.348-.223c.035-.165-.393-.292-.833-.528-.235-.126-.37-.237-.405-.333l-.007-.044Zm1.235-1.271-.125-.07.302.064c.47.117.819.4.903.723.084.325-.188.494-.232.529-.033.026-.37.047-.667.03l.083-.057.261-.205c.266-.22-.61-.18-1.053-.329l-.199-.076c-.152-.074-.028-.092.372-.045l.189.024c.684.095.692.05.712-.13.012-.111-.289-.31-.546-.458Z" opacity=".5"/>
    <path fill="#BEBEBE" d="M34.185 49.635c-.787.377-1.184.58-1.19.608a1.887 1.887 0 0 0 0 .282l1.339-.693-.149-.197Z"/>
  </g>
</svg>
