<svg xmlns="http://www.w3.org/2000/svg" viewBox="0 0 96 96">
  <defs>
    <path id="a" d="M0 0h96v96H0z"/>
  </defs>
  <g fill="none" fill-rule="evenodd">
    <path fill="#343A38" d="M60.073 43.358c1.423-2.288 2.308-3.808 2.655-4.56.521-1.129 1.09-3.293.78-3.635-.206-.228-.506-.32-.9-.277-.391-.185-.792-.185-1.202 0-.616.277-1.744 1.176-1.87 1.323-.083.098-.302.274-.657.527-.155-.1-.294-.1-.419 0-.124.1-.356.264-.695.493.056.224.056.337 0 .337-.084 0-.146-.232-.417 0-.272.23-1.727 1.326-1.882 1.326-.155 0-.316-.058-.6.122-.282.181-1.65.85-1.824 1.065-.174.215-.007.276-.161.438-.154.161-4.37 2.284-4.688 2.462-.318.178-5.598 2.625-6.934 3.12-1.336.496-8.57 3.965-9.244 4.374-.673.409-1.76.95-2.328 1.667-.569.717.498 1.525 2.167 1.657 1.67.133 13.672-1.778 18.615-4.178 3.295-1.6 6.496-3.687 9.604-6.26Z"/>
    <path fill="#EBF1EF" d="m47.476 45.14-3.513 1.726c-4.71 2.296-12.382 5.912-14.218 5.852l-.187-.009c-.057-.186-.02-.38.129-.569.324-.41.818-.762 1.308-1.065l1.02-.602c.649-.394 7.381-3.625 9.072-4.306l.84-.336c1.728-.726 5.23-2.345 6.088-2.762l1.504-.773c-.34 1.401-1.023 2.348-2.043 2.843Z"/>
    <path fill="#D1363B" d="M76.592 40.73c.104-.262.133-1.264 0-1.453-.134-.188-.28-4.027-.352-5.348-.071-1.321-.044-2.01-.608-2.06-.565-.05-.894.123-.89.557.003.435.348 4.017.37 5.328.023 1.31.445 2.118-.37 2.262-.815.145 1.025 1.493 1.316 1.321.292-.172.429-.346.534-.608Z"/>
    <path fill="#C1262B" d="m75.172 38.579 1.229-1.4.085 1.316c.03.363.059.63.088.738l.018.044c.133.189.104 1.19 0 1.452-.105.262-.242.436-.534.608-.291.172-2.131-1.176-1.316-1.32.627-.112.522-.615.43-1.438Z"/>
    <path fill="#9E161B" d="M76.037 39.277c.151-.005.35.033.597.113.082.326.049 1.112-.042 1.34-.105.261-.242.435-.534.607-.274.162-1.92-1.023-1.433-1.283l.117-.038c.305-.054.437-.2.481-.433.38-.199.652-.3.814-.306Z"/>
    <path fill="#DB4B50" d="m75.431 31.861.2.008c.377.034.49.35.545.95l.104 1.918.016.329-1.236 1.576-.315-4.123a2.371 2.371 0 0 1-.003-.093c-.003-.38.248-.56.69-.565Z"/>
    <path fill="#FA987B" d="M75.632 31.87c.506.045.536.604.589 1.673l-1.272 1.582-.198-2.502a4.152 4.152 0 0 1-.01-.197c-.002-.38.25-.56.69-.565l.2.008Z"/>
    <path fill="#FFBBA7" d="m75.431 31.861.2.008c.358.032.478.32.537.863-.33-.007-.784.194-1.361.603l-.065-.909c-.003-.38.248-.56.69-.565Z"/>
    <path fill="#464848" d="M62.336 34.788c.09.023.182.055.272.098.394-.043.694.049.9.277.31.342-.259 2.506-.78 3.635l-.182.37c-.43.832-1.254 2.23-2.473 4.19-2.762 2.288-5.599 4.19-8.51 5.71l-.846.427c-2.486-.1-3.528-1.877-1.33-3.22l.976-.608c3.411-2.152 8.219-5.475 9.947-6.993 1.162-1.021 1.835-2.288 2.018-3.801l.008-.085Z"/>
    <path fill="#1C1D1D" d="M62.394 34.804c.071.02.143.048.214.082.394-.043.694.049.9.277.31.342-.259 2.506-.78 3.635l-.182.37c-.43.832-1.254 2.23-2.473 4.19a53.76 53.76 0 0 1-2.392 1.871c-.345-.333-.567-1.112-.668-2.34l1.301-.968c.453-.347.793-.624 1.02-.83a13.292 13.292 0 0 0 1.907-2.188c.54-.792 1.191-3.268 1.273-3.67a.487.487 0 0 0-.082-.382l-.038-.047Z"/>
    <path fill="#888989" d="M63.508 35.163c.124.136.107.565.01 1.102l-.03.143a.145.145 0 0 1-.067-.064l-.022-.056c-.141-.508-.408.55-.702 1.388-.294.838-2.212 4.13-2.308 4.083-.095-.047.946-2.054 1.571-3.376.626-1.322.809-2.717.82-3.053a.934.934 0 0 0-.105-.447l-.067.003c.394-.043.694.049.9.277Z"/>
    <path fill="#D8D8D8" d="M59.536 36.717c-.011.096-.933.864-2.765 2.302l-.17-.304-.335.14-1.561 1.335c-.084.103-.116.174-.098.213.029.058.142.481-.122.713-.264.232-1.328.646-1.746.643-.352-.002-1.283-.21-1.572-.316l.953-.494.253-.136-.006.128c.008.055.037.09.117.071.274-.06.665-.247.805-.239.14.01.412.021.637-.125l.497-.303a.408.408 0 0 0 .062-.05c.067-.071-.016-.193.122-.346.14-.153.793-.601.905-.674.111-.072-.121-.097-.104-.321l.012-.065.046.003c.141 0 1.356-.905 1.78-1.243l.102-.083c.233-.199.311-.057.382-.013l.026.01-.221.091-1.04.82.214.183 1.219-1.032c.036-.034.284-.212.743-.532l.223-.107v-.261l.34-.252c.094-.073.169-.134.224-.185l.064.273a.597.597 0 0 1 .014.156Z"/>
    <path fill="#2E2E2E" d="M47.357 45.7c.224-.311-.104-1.517-.19-1.633-.087-.116-.141-.42-.102-.496.04-.077.596-.115.679-.13.082-.014.223-.351.256-.417.033-.067-.703-.012-1.07.118-.366.13-.987.522-1.09.768-.101.247.123.95.135 1.225.013.274-3.054 1.894-3.224 1.616-.17-.279-.075-.913 0-1.05.076-.138.763-.046 1.06-.128.298-.081 1.292-.61 1.588-.985.297-.373-.056-.335-.55-.312-.493.022-1.371.254-1.913.458-.542.204-1.33.796-1.435 1.046-.104.25-.009 1.276-.079 1.485-.07.209-2.604 1.274-3.02 1.46-.416.185-.384-.15-.39-.387-.006-.237.015-.71.302-.724.288-.014 1.502-.39 1.733-.493.23-.103.49-.176.588-.37.098-.195.495-.565.332-.61-.164-.046-1.107.138-1.656.356-.548.218-2.215.878-2.477 1.217-.262.339-.09 1.244 0 1.517.09.274-3.041 1.811-3.178 1.375-.137-.436-.01-.868.089-.944.098-.077.43-.021.818-.186.388-.165 1.07-.521 1.39-.844.32-.322.229-.44-.158-.294a76.17 76.17 0 0 0-1.925.81c-.285.125-1.435.704-1.47.838a10.513 10.513 0 0 0-.148 1.53c.004.486-1.055.142-.886.003.169-.14.483-.72.33-.797-.152-.077-1.011.238-1.404.521-.392.283-.67.72-.493.962.177.242 1.034.75 3.251.152 2.218-.6 14.083-6.345 14.307-6.656Z"/>
    <path fill="#222224" d="M74.097 39.555c-.112-.309-1.234-.645-2.245.706-1.012 1.352-1.386 2.405-2.086 3.546-.699 1.14-1.779 2.048-2.293 2.382-.514.334-.928.629-1.042 1.313-.113.685-.465 5.429.67 6.604 1.133 1.176 6.941.56 8.262.552 1.32-.008 4.442-.026 4.656-.328.214-.303.12-1.006.045-1.465-.076-.458-1.412-8.219-2.655-10.257-1.244-2.04-1.42-1.815-1.677-1.864-.257-.05-.548-.502-.64-.789-.091-.287-.686-.415-.995-.4Z"/>
    <path fill="#121214" d="M74.572 39.61c.24.063.467.177.52.345.092.287.383.74.64.789l.207.028c.216.06.553.333 1.47 1.836 1.072 1.757 2.212 7.767 2.555 9.685l.1.572c.076.459.169 1.162-.045 1.465-.214.302-3.335.32-4.656.328l-.806.033c-1.82.1-5.462.353-6.97-.277-.338-1.25-.454-3.772-.582-5.36-.104-1.28.544-1.977 1.943-2.09 2.426-.169 3.906-.717 4.44-1.645.721-1.253.924-2.754.9-3.872l-.015-.358c-.051-.76.016-1.222.232-1.429l.067-.05Z"/>
    <path fill="#46464A" d="M71.852 40.261c1.011-1.351 2.133-1.015 2.245-.706-.336.122-.574.315-.714.581l-.245.46c-.253.485-.605 1.182-.895 1.767l-.584 1.2c-.403.788-1.224 2.165-2.612 3.212-.904.683-1.75.826-2.535.427.17-.481.53-.733.96-1.013.515-.334 1.595-1.242 2.294-2.382.7-1.14 1.074-2.194 2.086-3.546Z"/>
    <path fill="#101011" d="M74.097 39.555c-.336.122-.574.315-.714.581l-.245.46-.895 1.767-.584 1.2c-.403.788-1.224 2.165-2.612 3.212-.718.543-1.399.744-2.042.605.182-.277.493-.592.701-.73.285-.189 1.175-.459 1.705-.95.471-.438 1.255-1.395 1.828-2.475l.204-.41c.578-1.242 1.138-2.056 1.62-2.63.258-.306.562-.513.91-.62l.117-.027.007.017Z"/>
    <path fill="#6B777A" d="M77.44 41.498c-.083-.203-.375-1.148-.968-1.122-.594.026-1.217 1.067-2.014 2.72-.796 1.655-.431 3.27.348 4.327.779 1.057 3.194 3.367 4.031 4.147.838.78 1.09 1.022 1.218.94.127-.083-.4-1.458-.525-2.18-.126-.723.528-.993.525-1.227-.003-.234-.078-1.23-.525-1.474-.447-.243-.89-.718-.693-.917.198-.199.79-.077.674-.58-.115-.503-.224-1.564-.78-1.815-.554-.25-.827-1.052-.904-1.442a11.922 11.922 0 0 0-.387-1.377Z"/>
    <path fill="#908C82" d="M79.524 46.29c-.036.32-.513.247-.687.422-.197.199.246.674.693.917.447.244.522 1.24.525 1.474.001.119-.167.247-.317.44l-.195-.556a6.841 6.841 0 0 0-.26-.616c-.256-.517-1.168-1.42-1.249-1.497-.06-.058.656-.369 1.316-.544l.174-.04Zm-2.656-4.833c.051-.224.292-.123.603.126.078.222.215.692.302 1.05l.054.242c.067.342.285.997.71 1.324l.195.118c.193.087.332.272.436.497l-.557-.076c-.737-.106-1.417-.235-1.568-.462-.196-.296-.302-2.26-.175-2.82Z"/>
    <path fill="#9CA2A3" d="M76.472 40.376c.462-.02.74.547.88.896l.121.317c-.462-.433-.753-.584-.874-.454-.214.23-.698 1.058-1.105 1.925-.373.794-.455 1.85-.844 2.064l-.114.037c-.49.055-.277 1.157.168 1.74.444.584 1.667 1.92 2.34 2.568l1.924 1.865c.13.122.239.22.315.284.384.317.514.24.438 0-.066-.209-.983-1.072-2.002-2.197l-.475-.537c-1.191-1.381-1.945-1.996-2.088-3.132a3.935 3.935 0 0 1 .166-1.754l.186-.518c.14-.408.888-1.823.973-1.91.084-.089.258-.249.382-.113-.144-.004-.329.262-.45.5l-.677 1.534c-.076.177-.14.336-.183.451l-.193.592c-.097.31-.188.712-.111 1.16.11.638.22.636.39.875l.067.103c.21.353 1.405 1.746 1.685 2.061l1.72 1.78c.224.236.384.412.406.456.065.133.184.297.266.34l.183.624c.088.312.139.544.089.576-.093.06-.252-.051-.654-.417l-1.05-.98c-1.055-1.003-2.886-2.795-3.545-3.69-.78-1.057-1.144-2.671-.348-4.325l.332-.67c.642-1.26 1.173-2.029 1.682-2.051Z"/>
    <path fill="#D0D4D9" d="M76.472 40.376c.2-.009.364.092.5.237l.071.02c-.333-.09-.568-.09-.705 0-.188.122-.935 1.323-1.336 2.197l-.1.229c-.361.875-.64.89-.725.886-.008 0-.015-.008-.02-.022a4.26 4.26 0 0 1 .301-.826l.332-.67c.642-1.26 1.173-2.029 1.682-2.051Z"/>
    <path fill="#F2F6F6" d="M10.588 63.201c-.079-1.494.064-2.442.428-2.843.546-.602 1.947-1.616 4.58-2.773s10.29-3.573 11.247-4.067c.957-.495 2.477-1.319 2.69-1.319.212 0 6.924-3.345 8.84-4.199 1.916-.854 3.247-1.227 4.36-1.693 1.114-.466 4.132-1.92 4.55-2.288.418-.367.836-.917 1.037-1.144.201-.226 3.45-1.768 4.41-1.935.96-.167 3.244.027 5.761 1.091s8.672 3.721 9.715 4.276c1.043.555 3.784 2.07 5.533 3.188 1.75 1.118 4.465 3.165 5.21 3.738.746.573 1.072.7 1.282.665.209-.036.217 1.747.113 2.64-.069.595-.159 1.15-.27 1.665-8.74.8-14.233 1.518-16.478 2.155-3.368.956-10.578 3.402-14.634 3.94-4.056.54-22.7 3.077-26.846 2.651-2.393-.245-6.263-1.117-10.272-2.81-.415-.175-.834-.487-1.256-.938Z"/>
    <path fill="#EBEDF2" d="M56.399 44.182c2.601-.096 5.265 2.031 6.509 3.244 1.244 1.212 2.908 2.53 2.152 4.482-.756 1.953-22.035 9.172-31.31 10.655-9.275 1.484-15.399-.581-15.05-2.084.34-1.463 9.643-5.2 14.025-7.292l.354-.17c4.211-2.052 20.171-8.72 23.32-8.835Z"/>
    <path fill="#E1E3E8" d="M25.473 61.51c-3.612-.823-5.144-1.297-4.596-1.423.822-.189 33.222-10.754 34.86-11.367 1.638-.612 3.077-1.822 5.65-.985 2.573.837 3.372 2.405 3.503 3.013.132.608-.54 1.067-2.58 1.805-1.362.492-13.64 3.478-36.837 8.957Z"/>
    <path fill="#C8CACF" d="M64.752 50.178c-1.043-.634-3.626-.749-5.916-.208-2.29.542 1.019-.945 1.469-1.377.45-.432.665-1.364-.344-1.086-1.01.278-13.65 4.567-14.786 5.13-1.135.564 1.662.214.961.783-.7.57-5.604 2.62-7.212 3.24-1.609.619 10.724-.988 14.384-1.573 2.754-.44 10.205-2.18 12.453-3.477.74-.426.034-.797-1.009-1.432Z"/>
    <path fill="#71707B" d="M64.648 50.237a8.414 8.414 0 0 0-4.148-.321c-1.422.239-3.529.795-6.32 1.667 3.163-1.602 4.908-2.542 5.234-2.821.488-.419-2.466.393-4.766 1.711-2.301 1.319-9.505 4.706-9.16 4.887.345.18 13.77-4.171 16.821-4.196 2.034-.017 2.813-.326 2.339-.927Z"/>
    <path fill="#A8D7E3" d="M58.87 42.679a.5.5 0 0 1-.24.665l-1.549.714-1.446.65c-.465.207-.914.402-1.345.587l-1.193.548c-1.328.598-2.177.93-2.547.997-.707.128-1.66.169-2.268.173L47.821 47c-1.576-.09-4.476.872-7.728 2.203l-3.106 1.318-3.568 1.522-1.164.476c-1.384.55-2.121.776-2.572.839-.731.102-1.532.088-2.296-.125l1.085-.563c.374-.01.744-.062 1.069-.108l.2-.04.309-.088c.775-.244 2.24-.837 4.45-1.778l4.916-2.09c3.658-1.537 6.406-2.471 8.311-2.478l.324.008a6.068 6.068 0 0 0 1.564-.11l.923-.23.354-.126c.263-.102.661-.268 1.376-.568l1-.42c1.438-.605 3.084-1.34 4.938-2.206a.5.5 0 0 1 .665.242Z"/>
    <path fill="#C0E6F0" d="m49.907 45.912-.136 1.03c-.533.05-1.086.068-1.489.07l-.461-.011c-1.576-.09-4.476.872-7.728 2.203l-3.106 1.318-3.568 1.522-1.164.476-.693.27c-.95.357-1.51.517-1.879.569l-.23.023 2.81-1.788 2.238-.937 4.915-2.09c3.658-1.537 6.406-2.471 8.311-2.478l.324.008a6.068 6.068 0 0 0 1.564-.11l.292-.075Z"/>
    <path fill="#C1CAD0" d="M16.348 58.678c2.512.706 6.47 1.442 8.652 2.44 1.456.664 2.966 2.432 4.532 5.303-.847.135-1.663.259-2.446.37l-.452.063-1.05.067c-1.511.086-2.724.105-3.468.028-2.393-.245-6.263-1.117-10.272-2.81-.415-.175-.834-.487-1.256-.938-.079-1.494.064-2.442.428-2.843l.245-.244c.67-.613 2.03-1.517 4.335-2.53l.406-.172c-.642.599-.527 1.02.346 1.266Z"/>
    <path fill="#B3BDC4" d="m18.667 62.376 2.353.016c1.968.021 2.893.06 3.82.138l.373.033c.4.038 1.044.134 1.93.289.54.615 1.086 1.371 1.638 2.269-1.083.114-2.446.116-4.087.008-6.393-.422-8.622-1.37-9.738-1.235-.717.087-1.289.51-2.015.69-.364-.142-.73-.29-1.097-.444-.415-.176-.834-.488-1.256-.939-.049-.919-.013-1.63.106-2.136l.322.124c1.209.431 4.147 1.172 7.651 1.187Z"/>
    <path fill="#D0DADB" d="M16.002 57.412c-.642.599-.527 1.02.346 1.266 2.512.706 6.47 1.442 8.652 2.44.202.091.404.204.608.338-.28.03-.596.045-.946.042l-2.23-.017c-3.257-.033-6.161-.138-9.379-.784-.817-.164-1.368-.4-1.653-.707l.191-.156c.748-.594 2.03-1.381 4.005-2.25l.406-.172Z"/>
    <path fill="#E2EAEB" d="M16.002 57.412c-.642.599-.527 1.02.346 1.266 2.273.639 5.729 1.302 7.983 2.161l-3.032-.274c-2.803-.263-4.916-.495-6.343-.693-1.187-.166-1.743-.554-1.886-1.024.673-.39 1.507-.815 2.526-1.263l.406-.173Z"/>
    <path fill="#E4E7E6" d="M60.606 44.276c-2.71 1.09-4.756 1.916-6.14 2.477-2.075.842-3.637 1.217-4.87 1.419-1.233.202-3.405-.095-4.212.086-.539.12-2.417.774-5.634 1.959l-.618 1.366c3.504-1.383 5.561-2.137 6.171-2.263.914-.188 1.93-.045 3.324-.065 1.394-.02 2.393-.35 4.628-1.075 1.49-.483 4.509-1.584 9.054-3.304l-1.703-.6Z"/>
    <path fill="#2D343D" fill-rule="nonzero" d="M50.734 49.967c-1.09.38-2.147.737-3.182 1.074l-1.341.428-1.002.307c-2.745.822-4.672 1.24-5.278 1.105-.435-.098-.546-.382-.425-1.003.03-.153.074-.314.131-.487l.14-.385.236-.581.019-.056c.092-.296.104-.417-.17-.623-.408-.306-1.59.564-2.438 1.395l-.87.905a9.05 9.05 0 0 0-.297.334c-1.102 1.333-1.414 2.72-.404 4.127 1.373 1.91 4.107 1.413 8.615-.56l1.142-.514c1.79-.821 5.018-2.351 7.762-3.688l1.793-.88c1.4-.694 2.583-1.295 3.485-1.775l1.002-.547c.186-.106.348-.2.484-.284.189-.117.332-.214.434-.296.315-.255.444-.424.215-.792-.31-.497-.983-.383-3.392.437l-6.66 2.36Zm-12.16 1.501-.049.217c-.213 1.09.117 1.932 1.188 2.171.886.198 3.014-.273 6.22-1.254l1.243-.389.686-.221c.694-.226 1.399-.462 2.115-.706l2.072-.72 4.467-1.597.598-.207-1.811.917-2.922 1.436c-2.978 1.445-6.362 3.042-7.814 3.694l-.994.433c-3.69 1.56-6.009 1.933-6.907.681-.69-.96-.483-1.883.362-2.906l.55-.6.222-.227c.086-.095.214-.22.365-.359l.409-.363Z"/>
    <path fill="#4E5359" fill-rule="nonzero" d="m36.554 52.046.87-.905.38-.355c.79-.7 1.708-1.303 2.058-1.04.235.176.26.29.204.506l-.053.173-.235.58-.14.386a4.039 4.039 0 0 0-.132.487c-.121.621-.01.905.425 1.003l.084.014a10.11 10.11 0 0 0-1.126.54c-.355-.348-.477-.866-.406-1.48l.042-.27.049-.217-.409.363-.266.255-.321.332-.55.6c-.845 1.022-1.053 1.944-.362 2.905.185.259.43.448.737.571a9.346 9.346 0 0 1-1.198.422 3.016 3.016 0 0 1-.352-.41c-1.01-1.405-.698-2.793.404-4.126l.297-.334Z"/>
    <path fill="#ACB4BB" fill-rule="nonzero" d="m36.554 52.046.87-.905.38-.355c.79-.7 1.708-1.303 2.058-1.04.235.176.26.29.204.506l-.053.173-.235.58-.14.376-1.121.355.008-.05.049-.218-.434.387-1.954.61.154-.182.214-.237Z"/>
    <path fill="#2B2C2E" d="M67 47.028c.121 2.453.054 4.257-.202 5.412-.385 1.731 2.495 5.96 3.753 6.34 1.258.381 8.96-.834 9.364-1.028.403-.194.465-1.23.473-2.16.003-.41-.803-.63-1.457-1.039-2.682-1.677-7.246-4.746-8.688-5.69A31.063 31.063 0 0 0 67 47.028Z"/>
    <path fill="#35373D" d="m69.951 49.394.336-.502 5.386 3.563a192.45 192.45 0 0 0 3.258 2.098c.654.41 1.46.63 1.457 1.04-.006.68-.04 1.418-.217 1.84a1.193 1.193 0 0 1-.615.115l-.21-.036c-.633-.163-4.2.043-4.461.032-.261-.012-1.094-1.21-1.896-2.184-.801-.974-1.685-1.49-3.22-2.667-.854-.654-.793-1.753.182-3.299Z"/>
    <path fill="#41444A" d="m71.795 49.889 3.878 2.566 1.72 1.12c.552.355 1.074.688 1.538.978.654.41 1.46.63 1.457 1.04-.005.566-.03 1.173-.14 1.604l-.063.192a.334.334 0 0 1-.193-.1c-.471-.453-3.822-.094-4.674-.615-.852-.522-2.965-2.17-3.504-3.733a4.623 4.623 0 0 1-.117-2.726l.098-.326Z"/>
    <path fill="#595B5F" d="M73.417 51.31c.134-.12.917.301 1.928.928l.328.217L77.7 53.77l2.274 1.532.413.27v.02c-.004.566-.03 1.173-.14 1.604l-.04.126a.67.67 0 0 1-.191-.18c-.253-.337-2.062-.41-3.952-1.135-1.89-.726-3.01-4.371-2.647-4.697Z"/>
    <path fill="#8E939A" d="m77.862 53.88 2.112 1.423.413.27v.02c-.004.566-.03 1.173-.14 1.604l-.025.072c-.187-.44-.353-.744-.496-.91-.265-.304-1.208-.853-1.848-2.052-.11-.205-.104-.343-.016-.426Z"/>
    <path fill="#CF6464" d="M66.29 47.052c-.762-.193-1.263-.043-1.503.45-.36.74-.292 3.295-.285 3.51.006.216 2.383 1.908 2.492 1.28.11-.629.285-4.134.237-4.598-.032-.308-.346-.523-.941-.642Z"/>
    <path fill="#AC4B4B" d="m67.223 47.671.008.023c.045.433-.105 3.515-.214 4.435l-.02.132-.036.03c-.356.213-1.127-.333-2.313-1.637.946-.036 1.15-.709 1.28-1.486.132-.777.46-.854.76-1.157.128-.13.307-.243.535-.34Z"/>
    <path fill="#923C3C" d="m67.239 47.908-.006.496c-.03 1.188-.154 3.4-.239 3.888-.024.137-.155.164-.347.12l-.096-.03-.155-.054a2.966 2.966 0 0 1-.104-.044c0-.348-.95-1.259-.828-1.365.687-.598.785-1.355.894-1.771.096-.371.39-.785.88-1.24Z"/>
    <path fill="#591E1E" d="m66.94 48.748.305-.615-.04 1.08a62.878 62.878 0 0 1-.16 2.64l-.357-.151-.857-.755c.415-.285.657-.57.724-.857.1-.428.287-1.16.386-1.342Z"/>
    <path fill="#300909" d="m67.245 48.593-.042 1.49c-.036.688-.059 1.343-.1 1.797l-.415-.178-.705-.623c.002-.056.009-.116.02-.18.326-.007.555-.03.685-.07.196-.058.287-.684.337-1.25.026-.284.113-.675.22-.986Z"/>
    <path fill="#D47474" d="M64.787 47.502c.24-.493.74-.643 1.503-.45.334.067.579.164.735.29-.75.453-1.2.866-1.353 1.24-.131.319-.144 1.19-.647 2-.16.257-.521.513-.523.43l-.009-.841c.005-.876.054-2.175.294-2.669Z"/>
    <path fill="#DB8989" d="M64.787 47.502c.24-.493.74-.643 1.503-.45.15.03.283.067.398.109-.63.396-.986.674-1.074.839-.163.304-.905 2.142-.98 2.582a.535.535 0 0 1-.136.248l-.005-.53c0-.87.042-2.28.294-2.798Z"/>
    <path fill="#F1CBCB" d="M64.787 47.502c.213-.438.633-.605 1.258-.502l.245.052c-.574.374-.956.688-1.148.942-.158.21-.283 1-.646 2.077l.012-.62c.026-.756.1-1.579.279-1.949Z"/>
    <path fill="#6E7589" d="m58.491 42.031 5.647 2.433c1.889.826 3.567 1.577 4.068 1.843l1.146.623a97 97 0 0 1 4.025 2.337l.362.228c1.094.699 2.564 1.76 3.696 2.599l1.514 1.14c.746.572 1.072.699 1.282.664.163-.028.2 1.154.16 2.055-.548-.103-1.178-.37-1.89-.802l-.431-.272c-1.51-.99-3.807-2.8-7.734-5.163l-.597-.458a72.226 72.226 0 0 0-3.654-2.002c-3.878-1.995-7.731-3.64-8.329-3.797-1.377-.493-3.925-.911-5.032-.967-.738-.037-1.78.283-3.126.96-.866.518-1.528.716-1.986.595-.062-.016-.1-.155-.136-.209l.217-.228c.262-.289.493-.584.627-.735.201-.226 3.45-1.768 4.41-1.935.96-.167 3.244.027 5.761 1.091Z"/>
    <path fill="#F5F4F7" d="m58.491 42.031 5.647 2.433c1.889.826 3.567 1.577 4.068 1.843l1.146.623a97 97 0 0 1 4.025 2.337l.362.228c1.094.699 2.564 1.76 3.696 2.599l1.514 1.14c.746.572 1.072.699 1.282.664.163-.028.204 1.055.165 1.956-.548-.103-1.178-.37-1.89-.802l-.431-.272c-1.51-.99-3.807-2.8-7.734-5.163l-.602-.359c-4.706-2.781-10.535-5.317-12.093-5.908-1.557-.59-3.805-.904-4.912-.96-.738-.037-1.78.283-3.126.96-.866.518-1.528.717-1.986.596a.245.245 0 0 1-.146-.108l.217-.228c.262-.289.493-.584.627-.735.201-.226 3.45-1.768 4.41-1.935.96-.167 3.244.027 5.761 1.091Z"/>
    <path fill="#6F6F6F" d="m49.766 42.105.032 1.107c.017 1.002-.008 1.56-.075 1.673-.142.24-.545.377-.74.344-.195-.033-.737-.49-.797-1.049-.042-.398-.091-.775.05-1.21l.084-.095c.084-.094.693-.415 1.446-.77Zm3.072.372c.175.246.5 1.028.222 1.205a.759.759 0 0 1-.618.092c-.255.126-.55.153-.885.081-.504-.107-.952-.748-1.218-1.04a1.033 1.033 0 0 1-.24-.866c.543-.248 1.126-.5 1.626-.691.408.23.961 1.005 1.113 1.22Z"/>
    <path fill="#E4E8E9" d="m64.493 45.713-1.105-.748c-2.375-1.652-1.167-1.197.492-.434l2.5 1.182c1.99.93 5.493 2.804 8.535 5.009l1.872 1.39c1.8 1.312 2.814 1.912 3.571 2.113.055.382.063 1.044.038 1.63-.548-.104-1.178-.372-1.89-.803l-.431-.272-.778-.53c-1.498-1.046-3.649-2.643-6.956-4.633l-.602-.359c-.659-.39-1.34-.774-2.028-1.149a41.042 41.042 0 0 0-3.218-2.396Z"/>
    <path fill="#E2E6E7" d="M19.74 65.571c-.092-.063-.073-.314.158-1.017.23-.703.561-1.315 2.066-2.35 1.505-1.033 3.153-1.541 5.423-2.13s15.616-4.769 20.089-6.132c4.473-1.363 9.523-3.05 11.715-3.51 2.193-.46 4.701-.86 7.099.474 2.397 1.335 5.377 3.303 6.202 4.177.825.874 2.4 3.185 2.448 3.468.048.283-12.208 1.391-14.33 2.07-2.12.68-8.633 2.781-14.225 3.506-5.593.726-22.977 1.843-24.713 1.84-1.736-.004-1.841-.332-1.933-.396Z"/>
    <path fill="#E4E8EB" d="m53.432 62.138-2.96.882c-1.26.372-2.444.716-3.553 1.034l-.534.073-1.34.158c-3.319.36-8.79.784-13.619 1.115l11.651-3.94c2.29-.782 4.233-1.453 5.83-2.014l2.845-1.014c3.638-1.325 4.199-.09 1.68 3.706Z"/>
    <path fill="#DCE2E3" d="M24.292 61.01c.752.162 1.418.496 2.288.941 1.566.801 2.804 2.748 4.158 3.502l-6.324.391c-1.402.078-2.391.123-2.742.122-1.388-.003-1.734-.213-1.863-.33l-.07-.065c-.081-.056-.075-.26.09-.8l.07-.217c.23-.703.56-1.315 2.065-2.35a10.426 10.426 0 0 1 1.905-1.026l.423-.169ZM66.29 50.905c2.397 1.335 5.377 3.303 6.202 4.177.825.874 2.4 3.185 2.448 3.468.048.283-12.208 1.391-14.33 2.07l-1.214.387c-2.816.886-8.247 2.501-13.011 3.12l-.925.11c-1.174.134-2.667.277-4.333.422l.835-.148.4-.078c1.675-.347 9.524-2.62 10.825-3.195 1.302-.574 4.897-3.337 6.35-6.413.816-1.725 1.045-3.257.687-4.596 1.927-.34 4.036-.454 6.066.676Z"/>
    <path fill="#D0D5D6" d="m62.557 50.473.207.004c1.545.086 3.487.896 5.668 2.32l1.182.786.72.502c.882.63 1.454 1.103 1.779 1.467l.18.217.24.313c.357.481.872 1.22 1.55 2.22l.272.404-.547.085-.33.046-.931-1.36-.5-.705a9.91 9.91 0 0 0-.531-.687c-.455-.51-1.557-1.336-3.521-2.618-2.075-1.354-3.897-2.115-5.275-2.191-1.023-.057-4.113.608-7.064 1.414l-1.581.45-14.133 4.424-3.245.987c-.492.145-.87.252-1.137.321l-1.05.256-.888.23c-3.728.988-9.4 2.763-10.764 3.56-1.235.722-1.945 1.714-2.154 3-.426-.049-.65-.128-.778-.199l-.02.127c.235-1.554 1.094-2.768 2.549-3.619 1.565-.915 8.143-2.942 11.856-3.874l1.062-.259.6-.166c.728-.208 1.834-.542 3.323-1.001l14.033-4.397.648-.196c3.262-.96 7.078-1.843 8.58-1.86Z"/>
    <path fill="#F3F3F3" d="M66.29 50.906c2.397 1.335 5.377 3.303 6.202 4.177.72.764 2.013 2.623 2.36 3.27l-.125.023-.799-1.092c-.892-1.206-1.474-1.941-1.745-2.204-.36-.348-1.429-1.08-2.452-1.75l-1.56-1c-1.209-.77-2.998-1.909-4.873-2.076-1.597-.142-3.99.382-5.678.79l-1.192.293c-1.513.365-15.086 4.773-16.404 5.163l-12.556 3.727-2.032.577c-2.148.577-3.417 1.365-4.413 2.279-.582.533-1.005 1.248-1.27 2.144l-.063.237c-.014-.137.044-.409.208-.91.23-.703.561-1.315 2.066-2.35 1.354-.93 2.825-1.434 4.76-1.955l1.11-.297c.624-.175 1.586-.46 2.765-.815l18.73-5.766c3.944-1.23 7.969-2.542 9.862-2.94l.837-.166c1.982-.367 4.164-.527 6.262.641Z"/>
    <path fill="#BCC2C4" d="M60.901 53.246c-.044-.138.503-1.28 1.804-1.29 1.301-.01 2.333 1.046 2.328 1.94-.006.892-.44 1.6-.522 1.616-.081.015-1.108-.543-1.127-.686-.02-.142.517-.752-.165-1.222s-1.15.325-1.282.277c-.132-.048-.992-.498-1.036-.635ZM64.854 55.66c-.077-.04 1.02-1.783 1.1-1.856.08-.074 1.264.667 1.201.779-.063.11-1.08 1.833-1.189 1.792-.109-.042-1.035-.675-1.112-.716ZM66.29 56.59c-.031-.011.434-.967 1.395-1.115.961-.149 1.695.538 1.684.563-.011.025-.62.982-.686.971-.067-.01-.433-.166-.694-.109-.26.058-.51.385-.578.365-.07-.021-1.09-.664-1.121-.675Z"/>
    <path fill="#080C0E" d="M18.94 69.537c.609.363 1.104.55 1.485.559.571.014 1.984-.057 2.046-.114.042-.039.042-.258 0-.659.806.026 1.237.156 1.292.388.083.347.932 1.969 1.306 2.015.375.047 5.841.223 6.655.2.814-.023 3.818.074 3.96.074.143 0 16.81-.094 18.352-.345 1.143-.154 9.739-.065 11.526 0 1.787.064 9.923-.029 12.447-.337 2.524-.308 3.602-.587 4.11-.887.338-.2.581-.44.728-.72.373-.099.598-.183.676-.254.117-.105.3-.744-.484-.8-.784-.057-19.809.283-21.872.237-1.307-.029-11.994.5-20.364.838-.593.024-1.23-.698-1.795-.676-.5.019-.932.782-1.404.8-3.367.121-5.961.186-6.743.126-2.767-.213-7.492-1.034-8.668-1.031-.784.002-1.869.197-3.253.586Z"/>
    <path fill="#222C30" d="m54.204 69.455.16-.027c1.64-.22 10.15-.212 25.529.027.039.526-.086.956-.376 1.289-.372.428-3.478.536-5.689.548l-19.35.087-2.473.068c-1.382.028-2.756.02-3.032-.157-.285-.182-.468-.634-.55-1.354l1.195-.04c2.09-.084 3.618-.231 4.586-.441Z"/>
    <path fill="#949CA0" d="M12.407 59.269c-.053-.181-1.318.17-1.885 1.091-.566.922-.526 1.776-.526 2.64 0 .864.628 2.2 1.896 3.318 1.268 1.118 2.344 1.59 2.45 1.569.105-.02.664-.13.745 0 .08.13-.037.497.164.624.202.127 3.255 1.59 3.475 1.613.22.023.412-.329.55-.325.137.005 1.066.24 1.487.194.42-.046 2.03-.379 2.165-.194.137.186.048.88.221 1.004.174.123.441-.018.546.097.104.116.216.762.367.827.151.065 4.427.27 4.56.279.131.008.088-.546.2-.566.111-.02 2.022-.077 2.125 0 .103.078.32.552.47.566.152.014 4.003 0 4.175 0 .172 0 .299-.698.402-.716.104-.019 1.646.023 1.876-.084.154-.072.19-.313.107-.722.665-.912 1.031-1.363 1.097-1.351.094.015 1.001.667.949.924-.089.434-1.198.561-1.085.57.455.037.964-.086 1.309-.073.448.017.673.163.71.163.135 0 .093.327.22.334.127.008 1.243-.055 1.338 0 .096.056.183.504.37.515.187.01 3.31 0 3.403 0 .094 0 .45-.571.589-.571.14 0 .699-.037.887 0 .188.037.376.124.401.056.025-.068-.148-.815 0-1.058.149-.243.207.372.242.633.035.26.383.53.44.53.059 0-.048-.252-.043-.439.005-.187 4.559-.17 4.716-.155.157.013.243.189.321.188h1.713c.211-.352.409-.545.592-.58.232-.071.099.045.009.203-.09.159-.17.833-.009.833h1.504c-.154-.365-.12-.642.102-.833.334-.286 2.35-.256 2.167-.106-.123.1-.173.413-.15.939h1.882c-.022-.473-.125-.786-.312-.939-.28-.23 2.742-.092 2.824-.097.081-.004-.301.403-.31.58-.01.177-.043.456.089.456h1.35c.058 0 .168-.706-.218-1.036.59-.054 2.974-.035 2.925 0-.048.036-.336.443-.335.73 0 .192.051.321.155.39h1.309c.27-.282.27-.655 0-1.12.502-.057 2.763-.098 2.732-.046-.03.051-.443.721-.096 1.166.261.002.7.002 1.314 0 .18-.494.126-.926-.159-1.297.171.014 1.016-.02 2.536-.103-.13.21-.196.434-.196.672 0 .356 0 .618.42.594.42-.025 3.311-.145 3.521-.353.21-.208.454-.994.355-1.095-.1-.101-.937-.096-.597-.286.34-.19 1.03-.415 2.218-.516 1.186-.101 2.509.057 2.302.383-.138.217-.388.356-.75.419.365-.004.652-.035.861-.093.314-.086 1.608-.98 1.97-1.728.364-.748.462-1.56.38-1.71-.056-.1-.213-.17-.472-.21-5.643.687-9.287 1.03-10.932 1.03-2.467 0-23.34 1.554-26.128 1.514-2.787-.04-22.347.433-24.345 0-1.999-.433-7.76-1.953-8.907-2.43-1.149-.476-3.756-2.16-3.906-2.44-.15-.282-.23-1.574-.217-2.055.013-.481.326-1.416.703-1.74.377-.326.724-.396.672-.577Z"/>
    <path fill="#7B8083" d="M37.985 70.527c.072.383.034.61-.115.679-.23.107-1.772.065-1.876.084-.103.018-.23.716-.402.716l-4.105.002c-.036 0-.06-.001-.07-.002-.15-.014-.367-.488-.47-.566-.103-.077-2.014-.02-2.125 0-.112.02-.069.574-.2.566l-3.567-.194c-.547-.035-.949-.066-.993-.085-.151-.065-.263-.711-.367-.827-.105-.115-.372.026-.546-.097-.032-.024-.056-.067-.073-.124l.337.028.36.037c.974.107 9.866.03 11.715 0l.66-.02c1.067-.052 1.405-.169 1.705-.195l.132-.002Zm2.855.145 1.128-.147c.62-.082 1.942-.102 3.964-.062l2.181.059.054.484a.14.14 0 0 1-.002.045c-.025.068-.213-.02-.401-.056-.188-.037-.748 0-.887 0-.14 0-.495.57-.589.57h-3.403c-.187-.01-.274-.458-.37-.514-.095-.055-1.21.008-1.338 0-.127-.007-.085-.333-.22-.334l-.117-.045Z"/>
    <path fill="#5B6267" d="M35.592 72.006h-4.175c-.114-.01-.265-.283-.376-.45l1.97-.01c1.074-.01 2.083-.027 2.87-.048l-.105.269c-.056.131-.117.239-.184.239Zm-11.824-.958-.22-.044c.794.198 1.6.35 2.418.455l.315.028c.518.034 1.413.055 2.479.065-.04.16-.041.46-.139.454l-3.566-.194-.873-.066a.673.673 0 0 1-.12-.02c-.117-.05-.21-.447-.294-.678Zm24.403-.055-.006.058c-.025.068-.213-.02-.401-.056-.188-.037-.748 0-.887 0-.14 0-.495.57-.589.57h-3.403c-.187-.01-.274-.458-.37-.514-.095-.055-1.21.008-1.338 0-.028-.001-.048-.02-.064-.046l4.243-.054c1.34-.01 2.526-.005 2.815.042Z"/>
    <path fill="#8B959C" d="M85.467 65.966c.26.04.416.11.472.21.082.15-.016.963-.38 1.711-.362.748-1.1 1.138-1.97 1.728-.87.59-3.427.693-3.945.697.062-.167-.021-.41-.066-.532l-.004-.009.003.038c-.003.221-.164.709-.324.93l-.053.064c-.21.208-3.1.328-3.52.353-.42.024-.42-.238-.42-.594 0-.238.065-.462.195-.672-1.52.083-2.365.117-2.536.103.285.37.338.803.16 1.297-.616.002-1.054.002-1.315 0-.347-.445.066-1.115.096-1.166.03-.052-2.23-.01-2.732.046.27.465.27.838 0 1.12h-1.31c-.103-.069-.154-.198-.154-.39 0-.287.287-.694.335-.73.049-.035-2.334-.054-2.925 0 .386.33.276 1.036.217 1.036h-1.35c-.13 0-.098-.279-.089-.456.01-.177.392-.584.31-.58-.08.005-3.103-.133-2.823.097.187.153.29.466.312.939H59.77c-.024-.526.026-.839.149-.939.183-.15-1.833-.18-2.167.106-.222.19-.256.468-.102.833h-1.504c-.162 0-.082-.674.009-.833.09-.158.223-.274-.009-.203-.183.035-.38.228-.592.58h-1.713c-.078.001-.164-.175-.321-.188-.157-.014-4.71-.032-4.716.155-.005.187.102.438.044.439-.058 0-.406-.27-.44-.53-.026-.189-.064-.563-.139-.664a456.7 456.7 0 0 1-.175-1.453c.123 0 .226 0 .313.002 2.788.04 23.661-1.514 26.128-1.514 1.645 0 5.289-.343 10.932-1.03Z"/>
    <path fill="#A0A8AE" d="M55.352 68.26c.912-.294 7.288-.37 12.528-.386l6.86.003c2.102 0 1.612.904.04 1.033l-.59.03c-.63.024-1.644.049-2.884.074l-16.156.255c-1.83.048-1.274-.534.202-1.01Z"/>
    <path fill="#79838A" d="M83.59 69.615c-.871.59-3.428.693-3.946.697.038-.102.022-.233-.007-.347l-.06-.187-.006.114c-.03.228-.159.6-.291.808l-.08.103c-.21.208-3.1.328-3.52.353-.42.024-.42-.238-.42-.594 0-.238.065-.462.195-.672l-1.548.078c-.559.025-.888.033-.988.025.285.37.338.803.16 1.297h-1.315c-.347-.445.066-1.115.096-1.166.03-.052-2.23-.01-2.732.046.232.398.265.73.1.993l-.1.127h-1.31c-.103-.069-.154-.198-.154-.39 0-.287.287-.694.335-.73.049-.035-2.334-.054-2.925 0 .343.293.294.883.238 1.01l-.02.026h-1.35c-.132 0-.099-.279-.09-.456.01-.177.392-.584.31-.58l-1.547-.036c-.73-.005-1.416.018-1.276.133.156.128.254.366.294.716l.018.223H59.77c-.024-.526.026-.839.149-.939.183-.15-1.833-.18-2.167.106-.185.159-.24.378-.163.658l.061.175h-1.504c-.162 0-.082-.674.009-.833l.107-.169c.03-.054.017-.075-.116-.034-.146.028-.302.157-.467.388l-.125.192h-1.713c-.078.001-.164-.175-.321-.188l-.875-.008c-1.364-.001-3.837.026-3.841.163-.005.187.102.438.044.439-.039 0-.205-.118-.322-.275-.146-.456-.136-.683.026-.681l3.358-.106 3.265-.134c1.73-.087 1.286-.322 5.073-.45l.952-.028c4.528-.111 12.766-.033 14.633-.112l.904-.057c1.772-.087 7.642-.108 8.937-1.693-.411 1.1-1.683 1.723-2.085 1.995Z"/>
    <path fill="#586167" d="m73.168 70.586.013.103c.008.189-.026.39-.103.6h-1.314c-.167-.214-.158-.482-.1-.706l1.504.003Zm-3.87-.01.028.141a.688.688 0 0 1-.099.446l-.1.127H67.82c-.104-.069-.155-.198-.155-.39 0-.102.036-.219.085-.33l1.549.006Zm-3.994-.012.01.021c.065.256.033.516-.002.596l-.02.025h-1.35c-.132 0-.099-.279-.09-.456a.468.468 0 0 1 .075-.185h1.377Zm-3.773-.012.026.065c.034.104.06.226.076.366l.018.223H59.77a3.058 3.058 0 0 1 .026-.668l1.735.014Zm-3.9-.026-.038.067a.69.69 0 0 0-.004.438l.061.175h-1.504c-.13 0-.104-.44-.04-.692l1.524.012Zm21.904-.444.036-.19c-.03.228-.159.6-.291.808l-.08.103c-.21.208-3.1.328-3.52.353-.41.024-.42-.224-.42-.566l2.835-.016c.156-.003.265-.006.321-.01.471-.034.844-.195 1.119-.482Zm-23.82.433-.036.043-.125.192h-1.713c-.078.001-.164-.175-.321-.188l-.875-.008c-1.364-.001-3.837.026-3.841.163-.005.187.102.438.044.439-.013 0-.04-.013-.075-.036-.216-.297-.167-.481.142-.556l.246-.023c.849-.042 3.612-.04 6.553-.026Z"/>
    <path fill="#6A7881" d="M55.532 68.157c.554.183.789.417.215.462l-.16.008c-1.288.023-1.394.4-2.338.533-.945.135-2.709.061-3.698.22-.685.112-1.078.274-1.318.284l-.075-.617.189-.206a.285.285 0 0 0 .03-.039c.022-.039.671-.176 1.538-.33l2.982-.156 2.635-.16Z"/>
    <path fill="#6E777C" d="M85.467 65.966a1.7 1.7 0 0 1 .178.036c-.073.435-.583.891-2.024 1.282-2.381.647-5.493.713-6.578.833l-.906.09c-.957.08-1.937.103-1.79-.18.196-.377 1.708-.527 2.281-.618l.28-.077c.375-.114 1.064-.343 1.906-.621l2.628-.275c1.204-.133 2.546-.29 4.025-.47Z"/>
    <path fill="#008BBF" d="M10.522 60.36c.567-.92 1.832-1.272 1.885-1.091.052.181-.295.251-.672.576-.377.325-.69 1.26-.703 1.74l.004.422c.022.585.097 1.415.213 1.633.133.248 2.178 1.588 3.446 2.228l.261.127-.602 1.89c-.11.021-1.045-.384-2.194-1.337l-.268-.23C10.624 65.2 9.997 63.864 9.997 63v-.576c.012-.671.085-1.347.525-2.064Z"/>
    <path fill="#616262" d="M14.018 63.932c-1.707-.432-2.642-.658-2.804-.678-.244-.03-.047.862.627 1.57.674.707 3.8 2.263 4.591 2.66.792.398 1.758.448 1.995.77.236.323 1.119 1.236 1.373 1.417.254.181.652.157 1.217.108.565-.05.964.058.92-.152-.042-.21-.23-.834-.208-.769.022.066.779.93.733 1.02-.046.09-.092.244.169.293.26.048.48-.073.649-.17.168-.096 3.673.162 6.688.14 3.015-.02 6.405-.151 6.907.009.502.16.624.694.74.822.116.128.352.05.39.009.038-.041.083-.375.234-.701.151-.326.715-1.086.852-1.04.137.046.78.705.83.778.048.074-.494.132-.83.262-.335.13-.53.348-.358.36.172.012 1.415-.034 1.558 0 .142.034.504.361.687.137.184-.224.677-.739 1.016-.871.338-.133 5.347-.437 5.552-.442.137-.004.654-.036 1.55-.096 4.29-4.478 6.348-6.888 6.173-7.23-.263-.511-2.25-.066-3.598.128-1.347.195-4.75.863-7.458 1.118-2.71.255-7.922.814-10.855 1.25-2.933.437-5.66.587-9.358.678-3.699.092-4.223.142-4.456-.176-.267-.006-1.558-.104-2.566-.355a63.876 63.876 0 0 1-2.96-.85Z"/>
    <path fill="#EEE" d="M14.06 64.027c-1.707-.431-2.642-.657-2.804-.678-.244-.03-.09.767.585 1.474.674.708 3.855 2.22 4.646 2.617.792.398 1.758.448 1.994.77.237.322 1.12 1.236 1.374 1.417.254.18.597.2 1.162.152.565-.05.964.058.92-.152-.042-.21-.23-.834-.208-.769.022.066.779.93.733 1.02-.046.09-.092.244.169.293.26.048.526-.196.694-.293.168-.097 3.673.162 6.688.14 3.015-.021 6.405-.151 6.907.008.502.16.624.695.74.823.116.128.307.172.345.132.038-.041.083-.375.234-.701.151-.326.715-1.086.852-1.04.137.046.78.705.83.778.048.074-.494.132-.83.262-.335.13-.53.348-.358.36.172.012 1.415-.034 1.558 0 .142.034.408.234.592.01s.677-.739 1.015-.871c.339-.133 5.347-.437 5.553-.442.137-.004.653-.036 1.55-.097 4.144-4.203 6.128-6.475 5.953-6.817-.262-.512-2.129-.218-3.477-.023-1.347.195-4.61.785-7.318 1.04-2.709.254-7.868.758-10.8 1.194a71.03 71.03 0 0 1-9.325.81c-3.698.09-4.222.142-4.456-.177-.267-.006-1.512-.143-2.52-.395a75.282 75.282 0 0 1-2.998-.845Z"/>
    <path fill="#E1E1E1" d="M24.43 65.739c2.887-.174 4.94-.327 6.158-.457 4.123-.44 7.149-1.097 7.811-1.196a15.1 15.1 0 0 1 1.118-.118l10.938 1.279c-.187 2.53-.707 3.872-1.558 4.028-.202.036-.664.128-.904.106-.177-.017-.125-.15-.324-.138-1.228.07-2.756.14-2.986.162-1.322.127-2.784.275-2.826.297-.24.12-1.032.956-1.141.985-.109.03-.3-.124-.408-.138-.157-.02-1.546.112-1.533.002.013-.11 1.247-.463 1.246-.517 0-.13-.854-.924-.894-.926-.33-.02-1.071 1.222-1.287 1.583-.168.282-.405-.649-.489-.717-.467-.384-9.907-.111-12.138-.313-2.23-.201-2.21.293-2.328.322-.118.03-1.041-1.494-1.11-1.657-.069-.164-.284-1.174-.632-.894-.349.28-1.094 1.78-1.454 1.673-.36-.108-.86-.859-1.058-1.04-.198-.182-2.13-.802-3.331-1.365-1.201-.562-3.38-2.047-3.554-2.283-.173-.236-.358-.71-.025-.654.333.056 3.852 1.08 4.496 1.174.644.094 3.014.631 3.302.744.288.113 1.278.211 2.283.17l2.627-.112Z"/>
    <path fill="#E7E6E6" d="m39.517 63.968 4.708.55 3.76 1.012a139.8 139.8 0 0 1 2.38.668c-.243 1.917-.73 2.942-1.468 3.077l-.336.06c-.2.032-.424.06-.568.046-.177-.017-.125-.15-.324-.138l-2.986.162-2.619.267a1.957 1.957 0 0 0-.207.03c-.24.12-1.032.956-1.141.985-.109.03-.3-.124-.408-.138-.157-.02-1.546.112-1.533.002.013-.11 1.247-.463 1.246-.517 0-.13-.854-.924-.894-.926-.33-.02-1.071 1.222-1.287 1.583-.168.282-.405-.649-.489-.717-.29-.238-4.017-.224-7.345-.226-1.74-.807-3.894-2.131-6.457-3.97l.88-.04 2.429-.154c1.46-.099 2.606-.19 3.434-.271l1.346-.15c3.582-.431 6.156-.986 6.761-1.077a15.1 15.1 0 0 1 1.118-.118Z"/>
    <path fill="#E9E9EB" d="M37.611 64.226c.226.108.452.22.679.337l.97.511c4.143 2.23 5.331 3.523 5.387 4.335l-2.583.263-.207.03c-.24.12-1.032.956-1.141.985-.109.03-.3-.124-.408-.138-.157-.02-1.546.112-1.533.002.013-.11 1.247-.463 1.246-.517 0-.13-.854-.924-.894-.926-.33-.02-1.071 1.222-1.287 1.583-.168.282-.405-.649-.489-.717-.155-.128-1.295-.183-2.832-.207l-3.255-1.828c-1.234-.7-2.618-1.49-4.15-2.37l2.113-.16c.4-.034.754-.066 1.065-.096l1.346-.15 1.198-.153c1.925-.261 3.478-.54 4.474-.726l.301-.058Z"/>
    <path fill="#EEE" d="M36.474 64.435c.107.109.212.222.315.34l.441.53c2.504 3.148-.453 2.435-2.504 1.858l-.16-.046c-.99-.28-2.473-.877-4.452-1.787l.178-.017 1.346-.15 1.198-.153a86.782 86.782 0 0 0 3.299-.513l.339-.062Z"/>
    <path fill="#E5E5E8" d="M52.331 62.278c1.176-.158 2.413-.264 2.623.145.103.202-.546 1.076-1.947 2.623l-1.103.355a253.621 253.621 0 0 0-4.001-.452l-2.104-.261c-1.605-.193-3.88-.437-6.823-.734l3.118-.317 2.065-.198c2.348-.22 5.11-.693 6.683-.942l1.49-.219Z"/>
    <path fill="#D7D7DC" d="M54.954 62.423c.043.083-.042.28-.255.592-.676.283-.812.844-1.64.946-2.664.327-7.81-.15-10.65-.354l1.75-.168c2.348-.22 5.11-.693 6.683-.942l1.49-.219.542-.067c.99-.112 1.902-.134 2.08.212Z"/>
    <path fill="#C6C6CE" d="m54.415 62.165-.132.161c-.31.358-.631.587-.962.687-.847.254-5.998.462-9.256.434l.094-.008c2.348-.22 5.11-.693 6.683-.942l1.49-.219.542-.067c.586-.066 1.146-.101 1.541-.046Z"/>
    <path fill="#ADADB4" d="m54.204 62.144-.159.146a1.31 1.31 0 0 1-.549.284l-.254.044c-1.279.193-6.194.71-8.009.707 2.073-.243 4.272-.616 5.609-.828l1.49-.219.542-.067c.488-.055.958-.089 1.33-.067Z"/>
    <path fill="#525858" d="M48.03 69.58c-.109-.258-.356-1.567-.225-1.789.13-.221 3.074-3.689 4.063-4.538.989-.85 1.401-1.182 2.186-1.614.784-.43 3.685-1.55 4.976-1.92 1.29-.37 4.203-.834 6.87-1.148 2.667-.314 6.525-.562 8.11-.649 1.585-.087 5.933-.316 6.14-.318.044-.001.84-.06.952.077.073.089-.231.247-.349.415-.07.1-.004.21.054.294.414.6.916 1.394 1.213 1.817.519.738 1.543 2.117 2.096 3.082.369.643.62 1.3.754 1.97.408.327.663.538.765.635.152.146-.854.685-2.418 1.117-1.564.433-5.25.518-5.606.597-.356.079-.562.257-1.01.183-.447-.073-.105-.218-.49-.258-.384-.04-1.372.008-1.696.258-.324.25-.589.528-3.153.528-2.565 0-14.998.236-15.473.202a8 8 0 0 0-1.046 0c-.736.048-1.468.147-2.196.295-1.093.223-1.938.244-2.554.267-.23.008-.522.14-.758.189-.394.082-.702.099-.824.126-.197.042-.274.439-.382.181Z"/>
    <path fill="#C7CECD" d="M48.03 69.58c-.109-.258-.356-1.567-.225-1.789.13-.221 3.22-3.63 4.21-4.48.989-.849 1.4-1.182 2.185-1.613.785-.431 3.686-1.55 4.976-1.92 1.29-.37 4.204-.835 6.87-1.149 2.667-.314 6.525-.561 8.11-.648 1.586-.087 5.787-.375 5.995-.377.043-.001.84-.06.951.077.073.089-.231.247-.349.415-.07.1-.004.21.054.294.414.6.916 1.394 1.213 1.817.519.738 1.543 2.117 2.096 3.082.369.643.62 1.3.754 1.97.408.327.663.538.765.635.152.146-.854.685-2.418 1.117-1.564.433-5.25.518-5.606.597-.356.079-.562.257-1.01.183-.447-.073-.105-.218-.49-.258-.384-.04-1.372.008-1.696.258-.324.25-.589.528-3.153.528-2.565 0-14.998.236-15.473.202a8 8 0 0 0-1.046 0c-.736.048-1.468.147-2.196.295-1.093.223-1.938.244-2.554.267-.23.008-.522.14-.758.189-.394.082-.702.099-.824.126-.197.042-.274.439-.382.181Z"/>
    <path fill="#B7BFBE" d="m84.792 64.928.078.332.612.5c.068.057.12.102.153.134-.08.098-.18.2-.292.308-.394.23-1.152.54-2.126.81-1.564.432-5.25.517-5.606.596-.356.079-.562.257-1.01.183-.447-.073-.105-.218-.49-.258-.384-.04-1.372.008-1.696.258l-.109.084c-.284.212-.71.419-2.66.442l-5.607.065c-4.271.064-9.5.154-10.188.14l-.062-.001a8 8 0 0 0-1.046 0 16.3 16.3 0 0 0-1.467.163l-.73.132c-1.092.223-1.937.244-2.553.267-.23.008-.522.14-.758.189-.394.082-.702.099-.824.126-.197.042-.274.439-.382.181-.108-.257-.355-1.566-.224-1.788l.08-.105c.259-.315 1.069-1.22 1.927-2.14-.468 1.118-.988 1.966-1.002 2.364-.02.568 4.041-.075 4.791-.496s1.006-1.751 2.708-1.738l1.955.076c5.043.232 17.591.908 19.11.734 1.307-.15 5.38-1.407 7.418-1.558Z"/>
    <path fill="#889392" d="M83.217 67.011c-1.564.433-5.25.518-5.606.597-.356.079-.562.257-1.01.183-.447-.073-.105-.218-.49-.258-.384-.04-1.372.008-1.696.258l-.109.084c-.265.198-.655.391-2.29.435l-15.95.214-.277-.003a8 8 0 0 0-1.046 0 16.3 16.3 0 0 0-1.467.163l-.73.132c-1.092.223-1.937.244-2.553.267-.23.008-.522.14-.758.189-.394.082-.702.099-.824.126-.197.042-.274.439-.382.181a2.205 2.205 0 0 1-.086-.299c.056-.237.191-.382.404-.439.64-.17 3.854.12 4.574-.268.54-.292 1.075-.381 1.73-.423l1.104-.054c2.952-.164 19.672-1.21 20.072-1.093.429.125.838.055 1.263.036.425-.02 1.9.147 3.48-.009l.982-.112c.868-.11 1.979-.272 3.333-.488-.414.185-.989.393-1.668.581Z"/>
    <path fill="#E4EAE9" d="M76.085 67.453c.104-.208-.08-1.235-.722-2.08-.64-.847-1.913-1.465-2.487-1.613-.574-.147-1.291-.197-.57-.385.72-.187.927-.267.934-.793.004-.316-.264-.192-.844-.143-.385.032-.518-.196-1.423-.164-.36.012-.701-.138-.935-.262-.233-.125.107.404.751.672.645.268.794.8.448.84-.346.042-13.598-.02-14.872 1.086-1.047.91 12.688 3.447 17.797 3.152.881-.215 1.904-.274 1.923-.31Z"/>
    <path fill="#AEB1AB" d="m81.793 59.872.12.179 1.142 1.612c.39.558.785 1.144 1.061 1.626.369.643.62 1.3.754 1.97l.603.493.09.077c-.633.271-3.957 1.06-5.153.943l-.568-.04c-1.21-.059-2.041.002-2.41-.318-.37-.32-.72-.94-1.182-1.51-.975-1.208-2.586-1.506-2.537-1.698.45-.599.799-.957 1.048-1.076l.18-.076c.53-.202 1.006-.642 0-.634l-.454.017c-1.075.064-2.65.3-2.687.485-.042.214-.978.339-1.355.132-.377-.206-1.026-.279-.803-.132l.312.22c.327.248 1.345.851.939.867-7.92.236-12.475.475-13.665.715-1.785.36-2.495 1.977-3.039 2.623-.543.645-2.918.717-4.57.96l-.3.047c-.488.08-.865.072-1.13-.024l.782-.872c1.022-1.123 2.433-2.622 3.044-3.147l.698-.59c.135-.112.26-.212.38-.304.662.12 1.892.1 3.687-.057l2.967-.269c2.924-.245 5.578-.403 6.3-.362.844.049 2.547-.07 3.178-.018l.144.018c.401.081.678-.147.732-.266l.009-.043c-.008-.049.15-.074.59-.102l1.887-.1c1.925-.1 8.18-.769 8.796-.937.215-.058.338-.21.41-.41Z"/>
    <path fill="#A3A79F" d="M54.218 61.74c-2.035.88-4.347 4.118-3.894 4.355.454.236 2.852.125 3.197-.312.345-.436 1.388-2.538 3.719-2.91 2.33-.372 5.75-.57 6.393-.906.643-.336-3.506-.69-5.781-.556-2.276.135-1.6-.552-3.634.328Z"/>
    <path fill="#989D98" d="M54.824 61.545c1.477-.147 3.069.532 2.834.685-.289.19-2.799.491-3.813.644-.52.078-1.257.54-2.662 1.762l-.42.294c.73-1.09 2.15-2.626 3.455-3.19l.408-.171.198-.024Z"/>
    <path fill="#778486" d="M81.166 58.923c.17.68.284 1.417.173 1.56-.202.26-7.86.846-8.971.871-1.111.026-1.694-.306-2.924-.128l-.946.15c-1.62.176-5.071.34-7.886.567l-3.461.395c-1.862.126-3.348.22-4.062.074l.343-.243c.237-.165.477-.311.768-.471.785-.431 3.686-1.55 4.976-1.92 1.29-.37 4.204-.835 6.87-1.149l1.05-.114c2.364-.24 5.23-.43 6.738-.516l6.317-.396c.121 0 .564.64 1.015 1.32Z"/>
    <path fill="#717D86" d="m71.942 58.118 2.305-.146-4.614.883c-2.986.588-6.31 1.291-7.882 1.822-1.515.51-1.93.937-1.245 1.277l-3.355.384-1.32.085c-1.237.073-2.207.098-2.742-.011l.343-.243c.237-.165.477-.311.768-.471.785-.431 3.686-1.55 4.976-1.92 1.29-.37 4.204-.835 6.87-1.149l1.05-.114 1.215-.116c1.24-.11 2.528-.207 3.631-.281Z"/>
    <path fill="#63717A" d="M58.112 61.443c-.24.294-.453.58-.637.857l-.324.038-1.32.085c-1.237.073-2.207.098-2.742-.011l.343-.243c.237-.165.477-.311.768-.471.785-.431 3.686-1.55 4.976-1.92 1.29-.37 4.204-.835 6.87-1.149l1.05-.114.948-.092-.841.183c-3.618.802-8.492 2.107-9.091 2.837Z"/>
    <path fill="#A2ADB9" d="M58.492 60.107c4.196-.676 9.116-1.024 10.553-1.148 1.437-.125 1.461.393 1.315.91-.146.519-.593 1.165-3.148 1.408-2.556.243-7.49.575-8.294.828-.805.253 9.886-.272 10.996-.444 1.11-.172.695-.594.777-1.155.082-.562.113-1.396.395-1.55.282-.152 1.097-.3 1.161-.533.065-.232.122-.204-.097-.227-.218-.024-4.272.314-6.39.54-2.12.227-6.565 1.072-7.268 1.37Z"/>
    <path fill="#C6CECD" d="M72.814 57.98c-.864.081-.88.318-.876.526.004.209 1.59.144 2.364.106.773-.037 5.395-.317 6.051-.416.656-.1.8-.474.75-.515-.051-.041-.378-.196-1.533-.09-1.155.105-5.892.31-6.756.39ZM71.016 59.238c-.275.019-.429.32-.246.532.183.212 2.602.184 5.532-.038 2.929-.222 5.07-.61 5.454-.83.384-.218-.023-.378-.66-.315s-3.635.357-5.057.448c-1.422.091-4.748.184-5.023.203ZM70.893 60.543c-.388.11-.394.61.11.655.503.045 4.317-.103 7.001-.44 2.685-.335 4.64-.729 4.64-.883 0-.155-.57-.195-2.493.065-1.924.26-5.508.472-6.703.53-1.196.058-2.168-.037-2.555.073ZM73.357 61.559c-.586.06-1.416.177-1.432.391-.016.215.225.38.577.374.352-.007 4.825-.477 6.086-.555 1.261-.078 4.47-.673 4.726-.775.256-.102.38-.526-.522-.337-.9.19-4.417.599-5.62.66-1.205.06-3.23.181-3.815.242Z"/>
    <path fill="#BCC6C5" d="M75.798 62.467c-.202.094-.285.254-.15.424.137.17.449.207 2.373.14 1.924-.067 5.784-.77 6.146-.944.363-.174.146-.283-.613-.216-.758.067-2.297.28-4.032.428-1.734.147-3.521.073-3.724.168ZM77.088 63.64c-.305.027-.353.196-.156.354.197.157.714.235 1.174.217.46-.018 3.718-.294 5.132-.57 1.414-.278 1.592-.487 1.582-.59-.01-.105-.38-.192-.915-.098s-2.87.459-3.754.504c-.885.045-2.759.156-3.063.183ZM78.579 64.702c-.444.006-.924.004-.867.2.058.197.445.423 1.282.362.838-.062 3.971-.29 5.205-.607 1.235-.318 1.313-.542 1.109-.557-.136-.01-.408-.01-.817 0-.601.121-1.104.205-1.507.251-.605.07-3.961.346-4.405.351ZM79.175 65.948c-1.045-.027-.824.144-.438.416.387.273 1.596.111 2.486.006.891-.104 3.521-.514 4.34-.855.818-.341-.193-.513-.702-.346-.477.26-4.64.806-5.686.78Z"/>
    <path fill="#90A4AB" d="M73.021 58.142c-.448.042-.869.267-.337.32.491.048 2.44-.135 3.774-.196 1.335-.062 3.156-.164 3.813-.264.656-.1.791-.24.741-.282-.05-.041-.377-.072-1.531.033-1.155.106-5.596.309-6.46.39ZM71.223 59.4c-.275.018-.422.243-.115.291.307.048 2.569.07 5.498-.151 2.93-.222 4.545-.487 4.929-.706.383-.218.09-.202-.547-.14-.637.064-3.252.439-4.674.53-1.423.091-4.816.156-5.09.175ZM71.1 60.705c-.388.11-.275.256.229.3.503.045 4.465-.118 7.15-.454 2.684-.335 3.98-.538 3.98-.693 0-.155-.177-.017-2.101.243s-5.508.473-6.703.53c-1.196.058-2.168-.037-2.556.074ZM73.564 61.72c-.586.06-1.142.025-1.159.24-.016.214.467.153.819.146.352-.007 4.498-.37 5.778-.544 1.281-.174 4.005-.553 4.261-.655.256-.102.323-.331-.578-.142-.901.19-4.103.652-5.307.713-1.204.06-3.229.181-3.814.242ZM76.005 62.628c-.07.033-.005.2.31.239.593.072 1.828 0 3.006-.097 1.805-.148 4.427-.615 4.79-.788.362-.174.094-.07-.664-.003s-1.983.334-3.718.481c-1.735.148-3.522.074-3.724.168ZM77.295 63.802c-.305.027.201.25.66.233.46-.018 3.785-.319 5.2-.596 1.413-.277 1.564-.258 1.554-.362-.01-.104-.376-.11-.911-.016-.535.093-2.372.448-3.44.557-1.07.11-2.759.156-3.063.184ZM78.786 64.864c-.444.005-.924.003-.867.2.057.197.49.09 1.327.028s3.97-.29 5.205-.607c1.235-.318 1.027-.329.823-.343-.136-.01-.408-.01-.816 0-.442.2-.864.324-1.267.37-.605.07-3.961.347-4.405.352ZM79.382 66.11c-1.045-.027-1.057-.132-.67.14.386.273 1.595.111 2.486.007.89-.105 3.52-.515 4.34-.856.818-.341.04-.237-.47-.07-.477.259-4.64.806-5.686.779Z" opacity=".5"/>
    <path fill="#343F43" d="M54.743 68.52a5.068 5.068 0 0 1 0-1.954c.19-.977.992-2.334 3.219-2.422 2.226-.088 9.393-.4 12.184-.46 2.791-.06 3.764.761 4.38 1.262.614.502 1.163 1.558 1.315 1.863.153.306.299.543.097.6-.202.056-.687.066-.998.164-.31.097-.592.245-.676.382-.084.138-.383.316-.922.333-.538.018-17.064.348-17.651.339a4.008 4.008 0 0 1-.948-.106Z"/>
    <path fill="#555E60" d="M74.224 66.287c-.208-.294-.469-.888-1.687-1.157-.407-.09-.955-.037-1.141-.211-.39-.364-.918-.647-1.327-.691-.408-.044-1.419-.036-1.712 1.04-.009.031-.3-.14-.326-.138-.115.013-.254.922-.623 1.024-.37.102-1.45-.035-1.739 0-.082.01-.1-.627-.403-1.102-.2-.314-.708-.567-1.254-.593-.545-.026-.928.06-1.175.476a2.583 2.583 0 0 0-.325.977c-.171-.481-.345-.666-.523-.553-.266.17-.132.699-.413.795-.151.051-.851.004-1.578-.028-.174.008-.145-.847-.725-1.248-.527-.363-1.529-.267-1.965.043-.436.31-.612 1.244-.63 1.628-.143.025-.3.112-.471.26-.37-.196-.599-.282-.683-.256-.128.039-.392.043-.373-.07.018-.112-.093-.678.572-1.237.664-.558.83-.952 3.036-1.019 2.204-.067 4.45-.047 6.128-.11 1.679-.064 4.366-.23 5.023-.223.657.007 2.174.057 2.728.268.553.211 1.432.636 1.897 1.19.465.553.875 1.182.765 1.131-.11-.05-.867.098-1.076-.196Z"/>
    <path fill="#465154" d="M56.365 65.889c.089.081.222.13.384.154-.043.2-.065.382-.071.506-.143.025-.3.112-.471.26l-.323-.16c-.184-.08-.304-.113-.36-.096-.128.039-.392.043-.373-.07l.006-.21c.015-.241.1-.636.566-1.027l.365-.32c.174-.147.349-.277.598-.383-.478.654-.585 1.102-.32 1.346Zm16.273-1.727c.553.211 1.432.636 1.897 1.19.465.553.875 1.182.765 1.131-.11-.05-.867.098-1.076-.196l-.18-.267c-.218-.304-.593-.688-1.507-.89a3.364 3.364 0 0 0-.441-.056l.024.092c-.164-.62-.36-.98-.991-1.227l.585.049c.378.04.717.096.924.174Zm-5.23 1.992c-.37.102-1.45-.035-1.739 0-.061.007-.086-.344-.22-.72l2.454-.06-.119.31c-.091.215-.21.424-.376.47Zm-5.832 0c-.151.051-.851.004-1.578-.028-.092.004-.128-.236-.228-.522l2.093-.073c-.1.221-.071.55-.287.623Z"/>
    <path fill="#4E5B63" d="M55.238 66.81c.321.009 1.137.098 1.367.104.23.006 2.859-.046 3.263-.052.403-.007 2.133-.035 2.5-.053.367-.018 5.534-.175 6.167-.09.632.084 2.962 0 3.562 0 .601 0 2.109-.247 2.209-.153.028.028 1.04-.006 1.075.09.033.09.472.52 0 .561-.863.076-.862.194-.942.255-.18.14-4.98.232-9.831.303-4.851.07-7.519.107-8.267.048-.748-.06-1.296-.028-1.32-.126-.022-.098-.103-.897.217-.888Z"/>
    <path fill="#FDF8F7" d="M58.243 64.774c-.434.001-.93.245-1.194.683-.263.438-.164.957-.155 1.11.009.151.074.398.604.43.53.032 1.72-.08 1.869-.116.15-.035.242-.376.278-.585.035-.21-.03-.797-.285-1.078-.254-.28-.682-.445-1.117-.444ZM62.817 66.734c-.11-.102-.089-.98 0-1.304.088-.324.418-.644.79-.77.373-.125.91-.005 1.195.232.287.238.496.532.54.847.044.315.07.895-.017.956-.086.06-.737.192-1.291.19-.554-.004-1.107-.049-1.217-.15ZM68.688 66.648c-.113-.074-.15-.464-.158-.757-.007-.293.17-.895.48-1.156.31-.26.637-.316.997-.298.36.019.781.267.999.542.217.275.303.72.29.872-.011.15-.076.636-.18.71-.104.076-.715.242-1.109.248-.393.007-1.207-.087-1.32-.161Z"/>
    <path fill="#606F76" d="M54.859 67.844c.173.016 1.632.132 3.692.125 2.06-.008 8.283-.065 10.033-.103 1.749-.037 5.297-.144 5.457-.146.16-.002-.076.222-.382.391-.305.17-4.49.329-8.708.35-4.219.02-7.385-.015-8.288.029-.903.043-1.338.045-1.545-.129a.689.689 0 0 1-.26-.517Z"/>
    <path fill="#C5BFA0" d="M60.077 66.258c.153.017 1.553.046 1.637-.05.084-.097.125-.5.168-.62.044-.12.37-.238.483.036.113.274.07.805.046.966-.016.107-.128.164-.336.172a17.362 17.362 0 0 0-.92-.029c-.234.005-.845.037-1.046.052-.201.015-.184-.543-.032-.527ZM66.12 66.251c-.26-.015-.347.004-.363.168-.017.164.053.273.285.278.233.005 1.956-.05 2.059-.05.103 0 .107-.339.099-.531-.009-.193.074-.76-.086-.909-.16-.148-.461.445-.561.76-.101.313-.277.271-.555.284-.278.013-.62.015-.879 0Z"/>
    <path fill="#808778" d="M71.305 65.998c.086-.01.457.002.684.002.226-.001.498.077.362.176-.135.1-.443.149-.67.157-.15.005-.297.006-.44.004.023-.148.044-.261.064-.339Z"/>
    <path fill="#F0423C" d="m36.41 58.022.131.382a.4.4 0 0 0 .495.253l.868-.265a.4.4 0 0 0 .264-.503l-.136-.432a.4.4 0 0 0-.519-.256l-.862.315a.4.4 0 0 0-.241.506ZM49.872 53.8l.132.383a.4.4 0 0 0 .495.253l.867-.265a.4.4 0 0 0 .265-.503l-.137-.432a.4.4 0 0 0-.518-.256l-.863.315a.4.4 0 0 0-.24.506Z"/>
    <path fill="#E99B92" fill-rule="nonzero" d="m49.727 53.506.299.954-11.709 3.67-.299-.954z"/>
    <path fill="#C4CED4" d="M77.043 41.956c.113-.002.58-.066.75-.048.17.019.219.293-.158.377-.377.085-.8.081-.809-.097-.008-.178.105-.23.217-.232Z"/>
    <path fill="#B9C1C6" d="M76.491 42.892c.14 0 1.056-.044 1.263-.116.206-.073.773-.02.622.116-.15.136-.396.329-.888.354-.492.025-.745.048-.927 0-.182-.048-.21-.353-.07-.354Z"/>
    <path fill="#B6BEC3" d="M76.197 43.714c.18.01 1.832-.057 1.888-.14.056-.081.754.042.876.066.123.024.193.21-.539.326-.731.117-1.78.157-2.02.152-.24-.005-.385-.414-.205-.404Z"/>
    <path fill="#B8C3C9" d="M75.982 44.575c.28.003 1.861-.049 2.222-.1.36-.053.185-.258.355-.29.17-.033 1.329.26.838.502-.49.242-1.153.211-1.965.262-.812.05-1.332.024-1.45-.059-.117-.082-.28-.318 0-.315Z"/>
    <path fill="#B3BBBF" d="M75.983 45.479c.223-.01 2.214-.082 2.481-.12.268-.038.729-.064.795-.318.216-.02.781.187.583.438-.199.25-.853.333-1.66.349-.808.015-1.748.044-2.016.025-.269-.019-.405-.363-.183-.374Z"/>
    <path fill="#A8B0B5" d="M76.238 46.365c.16-.003 2.43-.042 2.716-.068.286-.027.493-.074.563-.165.07-.09.715-.041.678.116-.036.158-.402.38-.98.468-.577.088-1.734.068-2.216.059-.481-.009-.677-.03-.761-.149-.085-.118-.16-.259 0-.261ZM76.803 47.155c.116-.036 1.997.048 2.126-.131.13-.179.511-.138.809-.127.298.012.885.094.473.267-.412.174-.83.329-1.622.354-.793.025-1.485.038-1.653-.002-.169-.04-.25-.326-.133-.361ZM77.507 47.944c.222-.007 1.704-.06 1.86-.097a.47.47 0 0 0 .253-.15c.569-.007.848.043.838.15-.015.161-.678.368-1.074.41-.395.042-1.503.074-1.68.067-.176-.006-.42-.373-.197-.38ZM78.107 48.771c.14-.022 1.54-.018 1.71-.095.171-.077.112-.177.257-.176.146.001.57.012.429.172-.142.16-.438.378-.823.424-.385.047-1.07.073-1.361.049-.292-.025-.353-.351-.212-.374ZM78.754 49.515c.146-.001.51.02.872-.027.242-.03.37-.098.385-.204.29 0 .431.041.424.124-.01.123-.356.349-.635.398-.28.05-.724.113-.856.044s-.335-.334-.19-.335ZM79.094 50.298c.279-.023.437-.06.476-.111.057-.076.855-.043.783.111-.072.154-.626.279-.897.268a.369.369 0 0 1-.362-.268ZM79.6 51.011c.034.001.466-.039.55-.017.085.021.026.251-.075.3a.671.671 0 0 1-.298.046c-.142-.22-.201-.33-.178-.329Z"/>
    <path fill="#262B2F" d="M53.102 43.66c.374-.236.176-.89-.105-1.27-.28-.38-1.222-1.468-1.654-1.61-.432-.14-.77-.14-1.164.107-.262.165-.48.38-.651.648-.254.049-.439.124-.555.225-.175.151-.769.612-.83.94-.063.327.19 1.247.302 1.576.113.328.483.748.663.816.18.068.507.144.635-.405.128-.55-.084-1.165-.101-1.441s-.12-1.242.047-1.335c.168-.093.483-.003.689.194.205.197.972.853 1.362 1.144.39.291.989.645 1.362.41Z"/>
    <path fill="#191818" d="M19.62 69.414c.026.045.195.316.43.425.234.108 1.244.153 1.799.082.554-.07.532-.098.504-.183-.028-.085-.803-1.217-.88-1.402-.079-.185-1.081 1.119-1.238 1.278-.157.16-.642-.245-.615-.2Z"/>
    <path fill="#383838" d="m21.434 68.319.038.017c.042.1.288.477.51.815-.214.397-.39.622-.529.676a2.495 2.495 0 0 1-.55.122c-.381-.012-.728-.052-.853-.11-.235-.109-.404-.38-.43-.425-.027-.045.458.36.615.2l.648-.768c.233-.27.46-.508.551-.527Z"/>
    <path fill="#757575" d="m21.434 68.319.038.017c.026.061.13.228.257.427l-.239.411a3.13 3.13 0 0 1-.18.264c-.196.252-.804.425-1.041.39-.137-.02-.346-.156-.629-.406l.227.14c.135.073.29.13.368.052l.648-.768c.233-.27.46-.508.551-.527Z"/>
    <path fill="#AAA" d="m21.434 68.319.038.017c.019.044.078.144.158.271l-.323.384a4.32 4.32 0 0 1-.458.47l-.076.056c-.254.164-.437.355-.965.026l-.188-.129c-.027-.045.458.36.615.2l.648-.768c.233-.27.46-.508.551-.527Z"/>
    <path fill="#DCDFE4" d="M70.551 58.423c-.41.036-4.578.395-6.608.68-1.354.19-2.692.428-4.015.713 3.507-.47 6.069-.765 7.685-.883 2.425-.178 2.996-.135 3.171-.285.176-.15.178-.26-.233-.225Z"/>
  </g>
</svg>
