<svg xmlns="http://www.w3.org/2000/svg" viewBox="0 0 96 96">
  <defs>
    <path id="a" d="M0 0h96v96H0z"/>
  </defs>
  <g fill="none" fill-rule="evenodd">
    <path fill="#EFF5F5" d="M60.852 43.477c1.072-1.138 1.736-1.924 1.992-2.358.384-.65.563-1.93-.348-3.175-.608-.83-1.34-1.195-2.194-1.097-.059-.258-.203-.386-.433-.386-.345 0-1.34-.156-2.23 0-.89.155-3.417 1.471-4.089 2.415-.672.944-.81.998-1.411 1.563-.601.564-4.944 3.47-5.5 3.784-.558.314-2.787 1.539-3.194 1.539-.406 0-1.382.206-1.92.572-.54.366-3.087 1.515-4.134 2.512-1.046.998-5.275 3.229-5.873 2.995-.599-.234-1.038-.444-1.038-.444s-.721.84-.721 1.04c0 .197 1.501.847 5.009.263 3.508-.584 10.299-1.94 16.348-4.14 4.033-1.466 7.278-3.16 9.736-5.083Z"/>
    <path fill="#C8D3DC" d="M61.78 37.22c.255.18.494.42.716.724.911 1.244.732 2.525.348 3.175-.256.434-.92 1.22-1.992 2.358-.52.407-1.075.803-1.665 1.189-.747-.009-1.43-.177-1.804-.562-.96-.988-1.498-2.563-1.117-2.776.38-.213 1.436-.846 2.194-1.348.758-.502 2.477-.308 3.157-.928.33-.3.413-.805.247-1.516l-.084-.316Z"/>
    <path fill="#ADB2BF" d="M61.78 37.22c.255.18.494.42.716.724.911 1.244.732 2.525.348 3.175-.256.434-.92 1.22-1.992 2.358-.422.33-.866.653-1.335.97a1.752 1.752 0 0 1-.27-.298l2.429-2.767c.203-.225.357-.392.463-.502.555-.576.696-1.327.634-1.977-.034-.36-.355-.884-.962-1.574l-.031-.109Z"/>
    <path fill="#8398AD" d="m59.699 36.46.025-.005.145.006c.23 0 .374.128.433.386l-.103.127a.142.142 0 0 1-.035.028l-.114.046c-.07.038-.177.118-.36.328-.32.366-.882 1.55-1.072 1.868l-.497.761c-.205.324-.418.692-.544 1.031-.251.678-5.701 1.13-6.213 1.361-.511.23-.71.368-1.108.53-.397.164-.717.468-.975.537-.259.07-.415.056-.678.152-.263.096-.775.458-1.175.754-.267.197-.686.296-1.258.295l3.062-1.958c2.58-1.626 4.275-2.623 5.087-2.989l.25-.103c1.331-.48 4.144-2.575 4.782-2.987.122-.079.238-.135.348-.168Z"/>
    <path fill="#F3F7FB" d="M57.639 36.46c.89-.155 1.885 0 2.23 0a.39.39 0 0 1 .338.161l-.15.06c-.402.207-1.073 1.573-1.66 2.279-.588.705-1.33 1.507-2.202 1.92-.872.413-4.045 1.22-5 1.396-.955.177-1.565.937-2.13 1.148-.425.157-.824.34-1.267.566l-.459.241c-.363.196-1.152.49-2.365.885l1.193-.632.471-.26.518-.324c1.317-.85 4.477-2.986 4.983-3.461l.484-.447c.268-.253.48-.487.927-1.116.672-.944 3.198-2.26 4.089-2.415Z"/>
    <path fill="#FFB179" d="m53.06 39.525.116.104c.073.077.101.14.085.188-.04.12-.968.95-1.027.979-.036.017-.039-.127-.01-.431l.399-.373.285-.29c.049-.053.1-.112.153-.177Zm4.554-2.814c-.218.15-.415.094-.67.208-.255.114-.337.326-.405.301-.069-.025-.082-.15-.296 0l-.39.26c-.117.084-.187.154-.103.168l.71.083c.377.05.742.121.658.213-.153.167-1.176-.117-1.597 0l-.937.248c-.247.071-.469.145-.588.213.987-.861 2.893-1.813 3.643-1.944l.082-.009c.01.117-.026.203-.107.26Z"/>
    <path fill="#D8DEE3" d="M83 40.249c1.207.69 1.037 3.153.889 4.373l-.027.214c-.15 1.118-.234 3.737-.226 4.002l.034.247c.121.731.533 2.744.576 3.258.16.204.275 1.747.16 3.185-.114 1.437-.795 4.55-.957 4.926-.155.357-1.942.634-4.728.092l-.448-.092c-3.04-.664-5.75-1.516-9.656-.668l-1.669.386c-5.103 1.224-15.923 4.055-22.406 5.02-7.319 1.088-14.349 1.348-20.476.904-6.127-.444-12.75-2.934-13.424-3.552-.674-.618-.33-1.905-.316-3.144.013-1.239 2.322-3.174 2.709-3.496.386-.322 5.523-1.523 8.942-1.858 3.248-.318 6-1.045 6.75-1.333l.1-.042c.525-.236 1.845-.564 3.843-1.664l.438-.248c1.946-1.127 4.467-2.338 6.042-2.97l.654-.247c1.344-.47 4.79-2.16 6.35-2.765l.304-.112c1.362-.47 3.381-1.508 4.198-2.014.817-.506 3.145-3.085 5.971-2.188l.976.318c2.099.705 3.077 1.24 5.554 3.12 2.831 2.15 4.501 4.001 7.234 4.099 2.603.093 3.633-.789 3.938-2.682l.04-.292c.247-2.094 1.07-4.45 2.388-4.376 1.319.075 3.289 1.198 3.571 1.513.188.21.31.373.367.488-.086-.623-.035-1.188.153-1.693.281-.758.87-1.443 2.153-.71Zm-1.22.138c-.557.122-.739 1.246-.73 1.766.009.52.06.977.12 1.176.06.2.493.84.71 1.278.217.438.265.983.434 1.292l.942 1.707.317-3.73c.058-.853.068-1.845-.246-2.381-.447-.767-.992-1.23-1.548-1.108Z"/>
    <path fill="#CDD5DC" d="M79.924 44.745c.879.232 1.755.543 2.288.886.026.103.06.193.102.268l.942 1.707.274.824.106.325v.083l.034.247.414 2.236c.082.45.146.835.162 1.022.16.204.275 1.747.16 3.185-.114 1.437-.795 4.55-.957 4.926-.155.357-1.942.634-4.728.092l-.448-.092c-3.04-.664-5.75-1.516-9.656-.668l-1.669.386-8.785 2.153c-4.697 1.132-9.88 2.31-13.62 2.866-7.32 1.09-14.35 1.35-20.477.905-6.127-.444-12.75-2.934-13.424-3.552-.674-.618-.33-1.905-.316-3.144.013-1.239 2.322-3.174 2.709-3.496.272-.228 2.91-.892 5.64-1.381-1.527 1.319-2.318 2.228-2.378 2.728-.114.961 3.543 1.606 9.406 1.214l.574-.04c6.198-.475 7.607-.347 5.885 2.272-1.026 1.56 2.293.675 5.761-1.666 2.355-1.59.725-3.542 4.7-5.287 7.254-3.183 10.052-7.494 13.096-7.082l1.164.174c3.272.527 8.192 1.223 6.761 1.87-2.548 1.233-2.39 2.178.474 2.834 4.635 1.062 10.43 1.248 12.619-1.793 2.188-3.04 2.047-5.302 3.187-5.002Z"/>
    <path fill="#B2BDC7" d="M79.924 44.745c.879.232 1.755.543 2.288.886.026.103.06.193.102.268l.942 1.707.274.824.106.325v.083l.034.247.414 2.236c.082.45.146.835.162 1.022.16.204.275 1.747.16 3.185-.114 1.437-.795 4.55-.957 4.926-.155.357-1.942.634-4.728.092l-.448-.092c-3.04-.664-5.75-1.516-9.656-.668l-1.669.386-8.785 2.153-3.068.728c-3.784.88-7.614 1.701-10.553 2.138-7.319 1.09-14.349 1.35-20.476.905-6.127-.444-12.75-2.934-13.424-3.552-.674-.618-.33-1.905-.316-3.144.008-.807.991-1.91 1.783-2.67 1.811-.63 4.116-.575 3.927-.375l-.13.156c-.343.444-1.002 1.512-.393 1.913.701.463 1.894.72 4.828.897 2.934.176 11.248-.588 11.576-.184.329.404-1.342 3.298-.472 3.406.87.108 9.588-.803 11.268-1.592 1.68-.79 3.264-2.913 5.114-3.525l.373-.112c1.119-.312 6.334-1.663 15.645-4.053 7.598.124 11.33-1.143 13.14-3.103.73-.79.848-1.527.915-2.326 1.026-2.015 1.14-3.32 2.024-3.087Z"/>
    <path fill="#9BA3B4" d="M80.746 48.774c.646-.19 2.005.728 3.191 1.75l.147.797c.082.45.146.835.162 1.022.16.204.275 1.747.16 3.185-.114 1.437-.795 4.55-.957 4.926-.155.357-1.942.634-4.728.092l-.448-.092c-3.04-.664-5.75-1.516-9.656-.668l-1.669.386-8.785 2.153-3.068.728-2.063.472c-3.085.694-6.086 1.308-8.49 1.666-6.451.96-12.679 1.276-18.26 1.033.016-.27.077-.538.129-.805l.065-.398c.16-1.4 2.961-3.83 2.752-2.426l-.035.172c-.433 1.669.054 2.116 1.946 2.182l.31.008c2.107.03 15.255-1.678 26.39-4.199l2.113-.494c9.99-2.412 11.829-4.024 14.849-5.954 3.16-2.019 4.898-5.228 5.945-5.536Z"/>
    <path fill="#F4F5F8" d="M41.087 52.938c3.335-.268.742 3.916-.726 6.332-1.468 2.417-4.277 5.663-4.93 6.122-.655.458-3.274 1.21-4.096.38-.785-.791 1.664-3.443 3.118-5.088l.852-.984c1.067-1.256 1.617-2.117.712-3.101-1.075-1.169-9.23.991-10.498 1.21-1.268.219-2.002-.11-1.614-.597l.186-.208c.57-.604 1.81-1.755 1.038-1.923-.874-.19-10.917 1.172-11.97 1.035-.155-.02-.216-.073-.202-.148l.078-.064c.357-.299 4.788-1.35 8.156-1.77l.786-.088a38.314 38.314 0 0 0 4.487-.716l.082.004 1.153-.001c1.177.01 1.737.093 1.416.598l-.082.115c-.607.77-.546 1.386 1.471 1.035 2.017-.352 7.247-1.875 10.583-2.143Z"/>
    <path fill="#E8EBF0" d="M40.36 59.27c-1.467 2.417-4.276 5.663-4.93 6.122-.654.458-3.273 1.21-4.095.38-.785-.791 1.664-3.443 3.118-5.088l.852-.984c1.067-1.256 1.617-2.117.712-3.101-.294-.32-1.118-.39-2.185-.32 2.479-.852 5.19-1.945 8.13-3.276 1.915.548-.291 4.111-1.601 6.267Z"/>
    <path fill="#D6DBE3" d="M35.43 65.392c-.654.458-3.273 1.21-4.095.38-.654-.66.938-2.612 2.329-4.196l.85-.066c1.22-.107 2.795-.297 4.72-.567l-.531.717c-1.35 1.778-2.823 3.416-3.273 3.732Z"/>
    <path fill="#B7C1D0" d="M35.43 65.392c-.654.458-3.273 1.21-4.095.38-.238-.24-.179-.65.06-1.152 2.12-.2 3.924-.41 5.409-.63-.629.715-1.14 1.237-1.374 1.402Z"/>
    <path fill="#F8F8F9" d="M19.16 58.44c.755-.071 3.407-1.715 3.772-2.043.366-.328-.343-.454-2.048-.245-1.704.209-3.397.608-4.28.828-.882.22-1.454.604-.827.941.628.337 2.627.59 3.383.52Z"/>
    <path fill="#424E64" d="M80.142 49.641c.6-.722 1.364-.876 1.94-.198.575.677 1.45 1.901 1.945 2.68.152.24.191.395.296.443.116.51.178 1.772.083 2.962-.114 1.437-.795 4.55-.957 4.926-.155.357-1.942.634-4.728.092l-.448-.092c-3.04-.664-5.75-1.516-9.656-.668l-1.153.268c-.476-.295-.145-.964.181-1.393.433-.57 1.338-.676 1.972-1.041l3.03-1.63c1.156-.634 2.412-1.35 3.344-1.965 2.07-1.368 3.552-3.662 4.151-4.384Z"/>
    <path fill="#6D7C97" d="M80.222 49.73c.6-.722 1.275-.867 1.85-.19.575.678 1.371 1.814 1.865 2.593.153.24.281.385.386.433.116.51.178 1.772.083 2.962-.114 1.437-.795 4.55-.957 4.926-.155.357-1.942.634-4.728.092l-.448-.092c-3.04-.664-5.75-1.516-9.656-.668l-1.153.268c-.476-.295-.065-.875.261-1.305.433-.57 1.338-.675 1.972-1.04l3.03-1.63c1.156-.635 2.412-1.35 3.344-1.966 2.07-1.368 3.552-3.662 4.151-4.384Z"/>
    <path fill="#68758E" d="m79.96 55.03.292-.15c1.438-.766 2.949-1.156 4.19-1.075.02.524.011 1.132-.036 1.723-.114 1.437-.795 4.55-.957 4.926-.155.357-1.942.634-4.728.092l-.448-.092c-3.04-.664-5.75-1.516-9.656-.668l-1.153.268a.432.432 0 0 1-.197-.235c1.924-.98 3.69-1.746 5.303-2.303l1.21-.406c3.036-.994 4.624-1.312 6.18-2.08Z"/>
    <path fill="#79879F" d="m84.397 55.63.009-.102c-.114 1.437-.795 4.55-.957 4.926-.155.357-1.942.634-4.728.092l-.448-.092-2.179-.49c-2.164-.47-4.35-.795-7.149-.246.04-.438.598-.867 1.884-1.24 4.538-1.32 8.387.304 10.883-.386 1.31-.361 1.956-.573 2.685-2.462Z"/>
    <path fill="#ADB6C7" d="M82.072 49.54c.575.678 1.371 1.814 1.865 2.593.153.24.281.385.386.433.017.078.034.173.049.282-.149-.017-.333-.124-.549-.437-.374-.545-.87-1.435-1.234-1.998-.364-.562-.737-.962-1.242-.994-.505-.032-1.034.777-1.696 1.693-.661.917-2.151 2.252-3.603 3.369-1.452 1.117-4.862 2.872-6.135 3.476-.596.282-1.12.38-1.82.467.468-.307 1.116-.434 1.604-.716l3.03-1.63 1.173-.654c.784-.446 1.55-.9 2.17-1.31 2.072-1.369 3.553-3.663 4.152-4.385.6-.721 1.275-.866 1.85-.188Z"/>
    <path fill="#505E7A" d="M83.436 51.74c.255.46.57.87.948 1.228l.036.365c.004.066.009.134.012.205l.317.245a5.487 5.487 0 0 1-1.663-1.85c-.71-1.285-1.568-2.071-2.028-1.74-.208.15-1.366 1.687-1.402 1.73-.935 1.145-2.052 2.208-3.604 3.316-2.38 1.698-5.234 3.179-8.565 4.442a.2.2 0 0 1-.233-.07c.014-.1.052-.205.105-.31 3.286-1.246 6.11-2.71 8.46-4.387 2.368-1.69 5.135-5.037 5.03-5.057l-.024.011c.77-.555 1.784.374 2.611 1.871Z"/>
    <path fill="#7288A2" d="M16.407 55.903c.131.423-.256.611-.72.973l-.409.347c-.533.475-1.177 1.147-.444 1.51l.291.132c.9.376 2.46.743 5.596.763 3.506.023 7.637-.66 9.253-.848l.576-.06c1.102-.096 1.31.031 1.561.382.267.372-.344 1.189-.902 1.818l-.15.167c-.59.644-2.22 2.652-2.558 4.03-.09.363-.47.764-1.054 1.148a76.024 76.024 0 0 1-3.381-.169c-6.127-.444-12.75-2.934-13.424-3.552-.674-.618-.33-1.905-.316-3.144.013-1.239 2.322-3.174 2.709-3.496l.035-.022c.068.069.223.092.464.068l.418-.053c.93-.137 2.328-.403 2.455.006Z"/>
    <path fill="#95A6B7" d="M11.44 62.434c1.662.112 3.555.952 8.165 1.626 3.56.521 7.568.251 9.293.058-.181.351-.322.69-.397.998-.09.364-.47.765-1.054 1.149a76.024 76.024 0 0 1-3.381-.169c-5.355-.388-11.087-2.338-12.898-3.236-.111-.283-.035-.446.272-.426Z"/>
    <path fill="#889DB4" d="M16.407 55.903c.131.423-.256.611-.72.973l-.409.347-.23.214c-.459.446-.842.985-.214 1.295l.291.133.347.132c.941.326 2.482.613 5.25.631 3.505.023 7.636-.66 9.252-.848l.576-.06c1.102-.096 1.31.031 1.561.382.267.372-.344 1.189-.902 1.818l-.15.167c-.202.22-.524.599-.875 1.057-.583-.178-1.464-.372-2.767-.387l-.45.002c-3.088.06-9.854-.439-12.295-1.104-2.44-.665-1.873-3.22-3.007-3.21a.882.882 0 0 1-.225-.025l.442-.466c.514-.516.994-.918 1.153-1.05l.035-.022c.068.069.223.092.464.068l.418-.053.941-.14c.73-.097 1.426-.137 1.514.146Z"/>
    <path fill="#41556D" d="M15.868 55.876c.115.041.137.148.081.255a.762.762 0 0 1-.111.15l-.156.155-.65.58a9.87 9.87 0 0 0-.28.262l-.118.118c-.252.26-.409.475-.462.649-.187.602.359 1.095 1.348 1.384 1.139.332 3.678.578 6.082.47l.853-.05a62.25 62.25 0 0 0 1.504-.124l1.626-.166 4.893-.563c.59-.055.937-.033 1.113.065.14.078.177.186.147.33l-.055.167-.023.06c-.021.057-1.603 1.79-2.356 2.871-.677.973-1.11 1.921-1.303 2.845l-.068.395-.198-.027c.145-1.082.614-2.19 1.405-3.327.772-1.108 2.327-2.813 2.332-2.826l.045-.114c.045-.12.04-.163-.023-.199-.13-.072-.447-.092-.997-.04l-4.89.562-1.63.166-1.036.09a40.22 40.22 0 0 1-1.33.085c-2.425.11-4.986-.139-6.147-.478-1.083-.317-1.715-.888-1.484-1.635.066-.212.239-.449.51-.729l.257-.25.861-.776.076-.079.08-.102-.072-.021c-.05-.008-.12-.003-.295.025l-.571.097a7.686 7.686 0 0 1-.95.108 16.64 16.64 0 0 1-1.283.023l.23-.2c.299.006.648-.002 1.043-.022.212-.011.41-.03.613-.058l1.104-.176c.15-.015.169.008.285.05Z"/>
    <path fill="#F1F1F2" d="M50.746 42.588c-.795.66-1.334 1.187-1.615 1.583l-.104.161c-.487.84-1.732 2.217-2.83 2.976-1.1.759-5.404.825-6.873.692-.228-.02-.507 0-.836.064l.662-.275.654-.247c1.344-.47 4.79-2.16 6.35-2.765l.304-.112c1.362-.47 3.381-1.508 4.198-2.014l.09-.063Z"/>
    <path fill="#646E84" d="M44.883 46.267c-.248.3-.248.544-.065.699.182.155.63.128.83-.17.202-.298.061-.544-.059-.616-.12-.072-.459-.214-.706.087Z"/>
    <path fill="#7F8FAD" d="M76.757 40.65c.988.056 2.343.701 3.078 1.153l.514.549c.323.353.601.674.808.919l.012.058c.06.2.494.84.711 1.278.217.438.265.983.434 1.292l.187.34.088.63-.459-.762c-.797-1.303-1.358-2.081-1.683-2.334l-.295-.196c-.65-.462-1.903-1.529-2.434-.382-.598 1.29-.606 4.245-1.92 5.265l-.567.436c-1.148.862-2.388 1.623-4.037 1.505-1.924-.137-5.843-1.994-6.473-2.219-.63-.224-1.362.035-1.564-1.313l-.158-1c-.077-.46-.153-.861-.226-1.204l-.004-1.057.388.294c2.831 2.149 4.501 4 7.234 4.098 2.603.093 3.633-.789 3.938-2.682l.04-.292c.247-2.094 1.07-4.45 2.388-4.376Z"/>
    <path fill="#EEF3F4" d="M82.234 46.182c-.383-1.16-.733-1.891-1.048-2.195-.472-.456-2.028-1.508-2.762-1.696-.734-.187-1.363-.098-1.584 1.133-.22 1.23-.493 3.796-2.357 5.337-1.864 1.542-3.804 1.34-4.706 1.178-.902-.162-3.46-1.09-4.868-1.939-1.408-.849-1.874.247.206 1.17 2.081.924 4.338 1.908 7.691 1.937 3.354.03 5.062-1.452 5.817-3.395.755-1.944 1.133-2.54 1.974-2 .841.541 1.978 2.066 2.202 2.458.224.393.681.764.315-.17a13.223 13.223 0 0 0-.88-1.818Z"/>
    <path fill="#DDE2E7" d="M77.9 42.44c1.213.21 2.636 1.092 3.334 2.254l.645 1.058c.493.827.916 1.655.92 2.418l-.074-.12c-.337-.52-1.357-1.842-2.128-2.337-.84-.54-1.22.055-1.974 1.999-.67 1.727-2.096 3.09-4.76 3.35.794-.448 1.634-1.176 2.346-2.364 1.234-2.06.477-6.467 1.69-6.258Z"/>
    <path fill="#BAC3D0" d="M65.29 45.931c.212 1.104.085 1.794-.38 2.069-.7.413-5.12 1.29-7.28 1.414-2.159.124-4.739.835-5.494.642-.754-.193.373-1.363.945-2.03.573-.668 1.789-4.952 1.67-5.562-.119-.61-2.167-.108-1.692-.77.475-.66 2.696-1.207 4.362-.605 1.11.4 3.733 2.015 7.868 4.842Z"/>
    <path fill="#8592A5" d="M57.42 41.089c1.11.4 3.734 2.015 7.87 4.842.212 1.104.085 1.794-.38 2.069a2.82 2.82 0 0 1-.522.205c-.535-.129-1.16-.329-1.875-.6-3.536-1.335-3.628-1.996-6.37-2.413a3.53 3.53 0 0 1-1.737-.802l.145-.584c.151-.647.235-1.16.2-1.342-.076-.392-.949-.325-1.437-.402.045-.31.18-.597.418-.837.907-.397 2.451-.583 3.689-.136Z"/>
    <path fill="#A3B3CA" d="m63.345 44.617 2.039 2.038c.038.688-.12 1.136-.475 1.345l-.052.025-.586-.218c-.53-.204-.888-.365-1.076-.482-.37-.23-.383-1.175-.043-2.837l.193.13Z"/>
    <path fill="#C4CCD7" d="M58.203 47.185c-.03-1.735 3.273-1.121 3.936-.756l.859.494c.545.308 1.961 1.048 1.911 1.077-.51.302-3.01.852-5.162 1.174-.831-.492-1.53-1.17-1.544-1.99Z"/>
    <path fill="#454C65" d="M80.686 42.995c-.887-.553-1.688-.933-2.401-1.14-1.071-.31-1.365-.38-1.54-.252-.173.128-.706.798-.81 1.188-.104.39-.069 1.71-.472 3.016-.403 1.306-1.122 2.569-2.784 3.184-1.663.615-3.225.464-5.039-.258-1.814-.723-4.201-2.338-4.972-2.702-.77-.363-4.473-2.38-5.258-2.645-.785-.265-2.54-1.749-3.473-1.531-.933.218-1.487.963-1.734 1.14-.247.176-1.038.363-1.302.664-.264.3-1.09.722-1.267.687-.177-.034-.156-.558.46-.964.617-.406 2.85-2.191 4.297-2.449 1.448-.258 4.071.415 6.823 2.34 2.752 1.924 5.905 4.422 6.833 4.791.927.37 3.651.958 5.204-.113 1.553-1.07 1.63-2.667 1.772-3.605.14-.937.542-2.947 1.436-3.2.894-.254 2.417.467 2.915.736.257.14.755.398 1.139.766.074.072.132.187.173.347Z"/>
    <path fill="#F2F4F5" d="m56.627 40.463.976.318c2.099.705 3.077 1.24 5.554 3.12 2.831 2.15 4.501 4.001 7.234 4.099 2.603.093 3.633-.789 3.938-2.682l.04-.292c.247-2.094 1.07-4.45 2.388-4.376 1.319.075 3.289 1.198 3.571 1.513.145.162.251.296.318.402l.096.285c.037.118.057.2.06.244-.12.005-.56-.406-1.016-.673-.456-.267-2.26-1.048-2.865-.992-.605.056-.696.485-.978.992-.282.508-.297 1.554-.365 2.244l-.038.321c-.127.884-.545 2.628-2.063 3.488-1.735.983-3.505.92-5.487.213-1.983-.706-5.048-3.284-6.616-4.313l-.774-.495c-1.5-.933-3.362-1.957-4.348-2.174-1.165-.257-2.185-.3-2.684 0-.498.3-1.7 1.204-2.136 1.485-.436.28-1.422.792-1.683.92-.261.128-.56-.325-.442-.64a.408.408 0 0 1 .09-.12l.584-.31c.269-.147.5-.28.675-.389.817-.506 3.145-3.085 5.971-2.188Z"/>
    <path fill="#C4C7D0" d="M78.518 41.244c.912.475 1.879 1.062 2.15 1.373l.074.233c.037.118.057.2.06.244-.12.005-.56-.406-1.016-.673-.456-.267-2.26-1.048-2.865-.992-.605.056-.696.485-.978.992-.282.508-.297 1.554-.365 2.244l-.038.321c-.127.884-.545 2.628-2.063 3.488-1.735.983-3.505.92-5.487.213-1.983-.706-5.048-3.284-6.616-4.313l-.774-.495-.774-.47c-1.322-.782-2.752-1.523-3.574-1.704-1.165-.257-2.185-.3-2.684 0-.498.3-1.7 1.204-2.136 1.485-.436.28-1.422.792-1.683.92-.261.128-.56-.325-.442-.64.023.218.11.387.432.266l.701-.27c.499-.203.997-.448 1.124-.697.19-.374-.146-.42 0-.668.125-.212.514-.475.96-.577l.228-.037c.537-.05 1.198-.551 2.49-.603 1.293-.05 4.293.986 6.773 2.663 2.48 1.677 4.01 3.387 5.55 4.265 1.542.877 3.73 1.4 5.152.625 1.423-.776 2.21-1.57 2.192-3.11-.018-1.542.303-3.61 1.128-4.107.826-.497 1.534-.469 2.48.024Z"/>
    <path fill="#EAEDF2" d="M53.119 62.608c-3.01.372-6.238.09-7.419-.855-1.18-.946-.893-2.133.359-4.702 1.252-2.57 2.926-5.865 5.557-6.627 2.63-.762 5.539-.397 10.77 1.625 5.23 2.022 6.858 2.943 6.654 3.986-.205 1.044-1.376 2.236-3.024 3.035-1.648.799-9.887 3.166-12.897 3.538Z"/>
    <path fill="#E1E5EC" d="m62.386 52.05 1.51.593c4.038 1.62 5.327 2.457 5.144 3.392-.14.713-.731 1.496-1.617 2.175-.282.2-.919.36-1.912.48-1.488.177-6.023.736-8.391 1.219-3.025.616-7.009 1.785-9.825 2.525-.68-.164-1.233-.392-1.595-.681-1.18-.946-.893-2.133.359-4.702.44-.905.933-1.9 1.502-2.842 4.119-.464 8.334-1.448 12.646-2.948.678.225 1.403.488 2.179.788Z"/>
    <path fill="#DBE0E7" d="m63.798 52.603 1.014.414c3.319 1.38 4.397 2.158 4.228 3.018a2.283 2.283 0 0 1-.199.568c-2.666-.146-6.424.001-10.678.752-5.723 1.01-11.199 4.026-12.463 4.398-1.173-.94-.896-2.118.335-4.653 3.38-.22 13.923-3.12 17.763-4.497Z"/>
    <path fill="#CED1D2" d="M50.027 54.353c-.311.162-1.238 1.668-1.423 2.823-.185 1.154.093 2.283 1.049 2.55.955.268 2.198.05 5.296-1.403 3.097-1.455 7.064-3.778 7.576-4.028.512-.25.248-1.048-.166-.898-.413.149-5.977 1.99-7.058 2.34-1.08.349-3.262 1.217-4.151.694-.89-.523-.571-1.727-.594-1.919-.022-.192-.219-.321-.53-.16Z"/>
    <path fill="#AAB7BE" d="M50.027 54.353c-.311.162-1.153 1.652-1.268 2.655-.115 1.004-.01 2.193.92 2.384.928.192 2.038-.014 5.135-1.468 3.097-1.455 7.264-3.578 7.776-3.828.512-.25.183-.849-.23-.7-.414.15-5.978 1.99-7.059 2.34-1.08.35-3.262 1.218-4.151.695-.89-.523-.571-1.727-.594-1.919-.022-.192-.219-.321-.53-.16Z"/>
    <path fill="#E1E6E9" d="M50.12 54.399c-.31.162-1.068 1.501-1.245 2.382-.177.881.013 2.232.942 2.424.928.191 1.88-.012 4.978-1.466 3.097-1.454 7.516-3.6 7.824-3.794.308-.192.112-.598-.223-.477-.335.12-6.041 2.05-7.122 2.4-1.08.349-3.324 1.171-4.213.648-.89-.522-.57-1.775-.555-1.91.014-.134-.075-.369-.386-.207Z"/>
    <path fill="#D3DBDE" d="M62.396 53.468c.335-.121.531.285.223.477l-.262.141c-1.048.538-4.822 2.367-7.562 3.653l-.867.4c-2.42 1.09-3.276 1.238-4.111 1.066a.99.99 0 0 1-.247-.086c.79-.103 1.672-.445 2.648-1.025 1.154-.684 2.03-1.457 2.695-2.108l6.381-2.142c.599-.203 1.018-.346 1.102-.376Z"/>
    <path fill="#7B8694" d="M62.112 47.039c-.082.311-.342.784-2.765 1.156-2.423.37-7.515.534-9.024.436-1.51-.098-1.6-.775-1.291-1.601.309-.827 2.315-3.39 3.495-4.14 1.179-.75 2.638-1.046 3.975-.53 1.337.516 3.4 1.719 4.39 2.519.99.8 1.302 1.848 1.22 2.16Z"/>
    <path fill="#F1F1F2" d="M62.127 46.662c-.082.312-.342.785-2.765 1.156-2.424.371-7.515.535-9.025.437-1.509-.098-1.6-.775-1.29-1.602.308-.826 2.3-3.012 3.48-3.763 1.179-.75 2.638-1.046 3.975-.53 1.337.516 3.4 1.719 4.39 2.519.99.8 1.317 1.471 1.235 1.783Z"/>
    <path fill="#D9DCE4" d="M56.502 42.36c1.337.516 3.4 1.719 4.39 2.519.695.561 1.063 1.06 1.192 1.414l-.622-.466c-1.566-1.026-3.05-1.903-4.145-2.37-1.521-.65-2.882-.984-3.898-1.027.984-.386 2.069-.461 3.083-.07Z"/>
    <path fill="#9AA0AD" d="M58.55 46.056c.089-.371-.631-1.898-1.722-2.433-1.09-.535-2.075-.83-2.775-.635-.7.195-1.338.962-2.275 2.115-.937 1.153-.378 1.856.094 1.935.473.08 4.692-.157 5.413-.238.72-.082 1.177-.372 1.265-.744Z"/>
    <path fill="#607194" d="M58.527 45.801c.088-.371-.608-1.643-1.699-2.178-1.09-.535-2.075-.83-2.775-.635-.7.195-1.361.707-2.298 1.86s-.378 1.856.094 1.935c.473.08 4.692-.157 5.412-.238.72-.082 1.178-.372 1.266-.744Z"/>
    <path fill="#8CA7C0" d="M58.564 45.43c.088-.37-.645-1.272-1.736-1.807-1.09-.535-2.075-.83-2.775-.635-.7.195-1.361.707-2.298 1.86s-.342 1.486.13 1.565c.473.079 4.693-.158 5.413-.239.72-.08 1.178-.372 1.266-.743Z"/>
    <path fill="#38435C" d="M54.415 44.173c-.245.224-.268.493-.118.637.15.145.517.213.807-.054.29-.268.045-.66-.075-.733-.12-.072-.37-.073-.614.15Z"/>
    <path fill="#A6B9CB" d="M57.197 43.825c.882.537 1.445 1.278 1.367 1.606-.088.371-.545.662-1.266.743l-.668.055c-1.425.1-4.355.249-4.744.184l-.18-.043c-.418-.132-.771-.513.049-1.522.28-.344.534-.631.773-.87-.401 1.149-.386 1.725.045 1.73.752.006 2.983-.261 4.35-.42.728-.083.876-.485.443-1.204l-.17-.26Z"/>
    <path fill="#4A5B7A" fill-rule="nonzero" d="M54.053 43.109c.7-.195 1.576.11 2.667.644 1.09.534 1.716 1.303 1.628 1.674-.089.372-.363.513-1.084.594l-.652.056c-1.378.103-4.174.262-4.564.197l-.177-.036c-.41-.101-.729-.36.09-1.368l.468-.56c.643-.736 1.05-1.042 1.624-1.201Zm2.579.823c-1.033-.506-1.73-.725-2.268-.677-.09.008 1.226.97.477 1.504s-1.611-.944-2.06-.54c-.225.202-.41.463-.664.777-.389.478-.508.773-.455.904.031.077.16.133.42.177.353.06 3.75-.122 4.96-.235l.2-.02c.655-.074.849-.179.911-.441.067-.284-.583-.988-1.521-1.449Z"/>
    <path fill="#7B8694" d="M41.953 50.721c1.568-.87 1.846-1.415.834-1.634-1.518-.328-3.953-.201-4.862.128-.91.33-3.794 1.798-4.674 2.732-.879.934-.373 1.445 1.271 1.137 1.097-.205 3.574-.993 7.43-2.363Z"/>
    <path fill="#F1F1F2" d="M42.027 50.395c1.47-.758 1.699-1.246.686-1.465-1.518-.328-3.88-.044-4.788.285-.91.33-3.794 1.798-4.674 2.732-.879.934-.298 1.12 1.346.811 1.096-.205 3.573-.993 7.43-2.363Z"/>
    <path fill="#646E84" d="M37.776 50.088c-.247.3-.33.594-.09.765.238.172.762.111.982-.226.22-.338.05-.529-.07-.6-.12-.073-.575-.24-.822.06Z"/>
    <path fill="#38474F" d="M37.1 71.81c.806-.009 4.547.089 5.844-.021 1.298-.11-1.704-1.797-3.088-1.73-1.384.068-3.563 1.76-2.757 1.751Z"/>
    <path fill="#646875" d="M83.864 58.763c.208.028.799.306.767.914-.031.607-.228 1.703.252 3.01C85.363 63.992 86 65.956 86 67c0 1.044-.134 2.045-1.548 3.03C83.04 71.014 79.794 72 76 72H64.06c-2.08 0-6.056-.321-7.353-.334-1.297-.012-13.304.314-13.639.334-.223.013-.39-.098-.501-.334-.423.094-.759.094-1.009 0-.375-.14-.804-.812-1.574-.757-.77.055-1.324.562-1.534.627-.14.044-.425.088-.856.13-.065.223-.133.334-.205.334h-6.298c-.693 0-3.846-.212-6.4-1.091-.07-.344.014-.403-.117-.477-.13-.074-.874-.532-1.203-.649-.328-.117-1.791-.758-2.012-.807-.222-.05-.255.142-.655 0-.4-.141-.726-.081-.88 0-.154.081-.29.084-.744-.131-.454-.216-4.8-2.453-6.821-3.568C10.238 64.163 10 61.797 10 60.843c0-.955.284-2.29.413-2.36.13-.071.51.565.45.989-.058.423-.2 1.137-.152 1.698.032.374.045.631.037.772 3.165 1.388 6.218 2.235 9.16 2.543 4.413.461 7.23.495 8.078.51.846.013 4.355.065 5.919-.123 1.564-.187 7.42-.44 17.928-2.77 10.508-2.329 14.509-3.426 15.893-3.666 1.385-.24 4.427-.421 7.576.144 3.15.565 4.85 1.347 6.562 1.088 1.71-.259 1.9-.725 2-.905Z"/>
    <path fill="#E8E8EA" d="M83.864 58.763c.208.028.799.306.767.914-.031.607-.228 1.703.252 3.01C85.363 63.992 86 65.956 86 67c0 1.044-.134 2.045-1.548 3.03C83.04 71.014 79.794 72 76 72H64.06c-2.08 0-6.056-.321-7.353-.334-1.297-.012-13.304.314-13.639.334-.223.013-.39-.098-.501-.334-.423.094-.759.094-1.009 0-.375-.14-.804-.812-1.574-.757-.77.055-1.324.562-1.534.627-.14.044-.425.088-.856.13-.065.223-.133.334-.205.334h-6.298c-.693 0-3.846-.212-6.4-1.091-.07-.344.014-.403-.117-.477-.13-.074-.874-.532-1.203-.649-.328-.117-1.791-.758-2.012-.807-.222-.05-.255.142-.655 0-.4-.141-.726-.081-.88 0-.154.081-.29.084-.744-.131-.454-.216-4.8-2.453-6.821-3.568C10.238 64.163 10 61.797 10 60.843c0-.955.284-2.29.413-2.36.13-.071.51.565.45.989-.058.423-.2 1.137-.152 1.698.032.374.083.713.153 1.017 3.164 1.388 6.217 2.236 9.16 2.543 4.412.461 7.23.495 8.077.51.847.013 4.355.065 5.92-.123 1.563-.187 7.42-.44 17.928-2.77 10.508-2.329 14.508-3.426 15.893-3.666 1.384-.24 4.427-.421 7.576.144 3.148.565 4.85 1.348 6.56 1.088 1.712-.259 1.786-.97 1.886-1.15Z"/>
    <path fill="#F0F0F0" d="M60.302 63.506c-3.617.132-5.242.874-8.595 1.608-3.353.734-6.252 1.629-13.612 2.073-7.36.444-12.914-.22-15.749-.655-2.834-.436-9.405-2.5-8.389-1.575s5.726 2.837 6.397 2.978c.671.141 1.792-.548 2.992.03 1.2.579 1.95 1.202 2.848 1.476.898.274 8.381.486 10.832.249 1.27.053 1.851-.778 3.116-.941 1.265-.164 2.117.703 3.255.488 1.139-.215 11.884-2.374 14.495-2.538 2.61-.165 23.709.62 24.907.132 1.198-.487 2.292-1.233.806-2.043-1.487-.81-3.552-1.739-5.924-2.021-2.372-.283-13.762.606-17.379.739Z"/>
    <path fill="#DEDFE3" d="m84.631 59.677-.05.67c-.038.614-.034 1.425.302 2.34C85.363 63.992 86 65.956 86 67c0 .266-.009.53-.045.79l-.423.126c-1.483.408-4.194.896-4.096.49.122-.511 2.55-.76 3.334-2.147.785-1.389-.728-2.197-1.916-2.644-.792-.299-2.334-.742-4.625-1.33-1.04-.404-2.69-.67-4.948-.796-3.387-.19-8.096 1.56-13.678 2.328-5.583.768-9.945-.557-9.845-.968.023-.093 4.734-.98 5.367-1.213l5.726-1.32c1.05-.247 1.961-.464 2.75-.653l.518.009c1.406-.008 3.247-.22 4.751-.351 1.755-.153 5.647.089 7.552.423l.977.197c.798.153.702.063 1.446.059l1.23.025c1.487.017 3.164-.074 3.53-.208.31-.114.724-.316.932-.562a.762.762 0 0 1 .094.422Z"/>
    <path fill="#D0D1D8" d="M86 67c0 .266-.009.53-.045.79l-.423.126c-1.016.28-2.61.597-3.48.638a.689.689 0 0 1 .121-.071c1.542-.727 3.102-1.235 3.63-1.82a.872.872 0 0 0 .151-.237A4.3 4.3 0 0 1 86 67Zm-9.857-7.73 3.238.87c.428.084.786.148 1.054.183l.615.07c1.366.126 2.88.064 3.565-.912l.01.039c.007.05.01.102.006.157l-.05.67c-.038.614-.034 1.425.302 2.34l.31.876.156.476c-1.216-.991-4.083-1.557-5.922-1.874l-.404-.069c-2.085-.35-6.232-1.335-8.447-1.075-2.214.261-7.343 1.413-9.373 1.746l-.284.039c-2.151.247-6.761-.197-2.339-1.467l.323-.09c2.335-.63 4.46-1.194 6.357-1.62 1.896-.425 3.414-.702 4.538-.8 1.755-.153 4.44.107 6.345.441Z"/>
    <path fill="#DEDFE3" d="M67.763 59.882c-3.43.303-6.716 1.005-8.238 1.541-1.523.537.316.745 1.8.652 1.485-.092 6.035-1.525 7.372-1.672 1.337-.146 2.495-.824-.934-.521Z"/>
    <path fill="#7A7A7A" d="M61.374 63.837c-2.145.467-6.26 1.803-5.58.976.68-.828 4.099-1.937 5.549-2.338 1.45-.402 5.659-1.719 8.14-1.981 2.48-.262 4.312-.43 6.665.75 2.353 1.182-1.106.895-3.121.852-2.015-.043-9.507 1.274-11.653 1.741Z"/>
    <path fill="#B0B8BD" d="M10.413 58.483c.13-.071.51.565.45.989l-.092.619c-.05.35-.089.742-.06 1.079l.035.343-.013.141c-.098 1.345.73 2.284 1.812 2.966l.253.153.534.297c.507.276 1.15.614 1.792.947l3.348 1.71c.734.367 1.677.826 1.935.915.354.122.582.098 1.264-.056a2.111 2.111 0 0 1 1.687.309c.42.288.683 1.029 1.093 1.21.988.36 4.797 1.08 5.465 1.08l8.228.007c.089-.002.142-.005.156-.008.181-.041.966-.711 1.697-.734.731-.022 1.057.224 1.372.46.314.238.601.295 1.127.274l2.042-.156a294.62 294.62 0 0 0 4.363-.382l.962-.143c.986-.157 2.42-.396 3.33-.527l3.677-.5.69-.076c.883-.051 8.222-.346 22.017-.886.072.068.213.11.423.128l.256.012c.388.005 1.09-.042 2.514-.297a17.12 17.12 0 0 0 2.76-.73l.458-.176c-.054.882-.327 1.737-1.536 2.579C83.04 71.014 79.794 72 76 72H64.06c-1.95 0-5.566-.282-7.08-.328l-.596-.004c-2.308.022-13 .313-13.316.332-.223.013-.39-.098-.501-.334-.423.094-.759.094-1.009 0-.375-.14-.804-.812-1.574-.757-.77.055-1.324.562-1.534.627-.14.044-.425.088-.856.13-.065.223-.133.334-.205.334h-6.298c-.693 0-3.846-.212-6.4-1.091-.07-.344.014-.403-.117-.477l-.527-.308a7.495 7.495 0 0 0-.535-.283l-1.848-.757a2.926 2.926 0 0 0-.305-.108c-.19-.042-.241.092-.504.042l-.151-.042c-.334-.118-.615-.096-.789-.038l-.09.038c-.133.07-.252.082-.569-.052l-.538-.26c-1.186-.6-4.702-2.417-6.46-3.387-2.02-1.114-2.258-3.48-2.258-4.434 0-.955.284-2.29.413-2.36Z"/>
    <path fill="#56666F" d="M84.452 70.03C83.04 71.014 79.794 72 76 72H64.06l-.926-.016c-2.014-.06-4.856-.273-6.153-.312l-.597-.004-4.238.088c-3.902.094-8.864.231-9.078.244a.47.47 0 0 1-.444-.23l1.28-.094c1.589-.122 3.478-.292 5.402-.49l2.472-.272c4.49-.522 16.317-.743 23.236-.629l1.358.028c3.836.1 5.232.288 8.08-.283Zm-59.793.58c2.351.7 4.104 1.081 5.257 1.14l.608.025c1.637.053 4.705.077 6.998.09-.043.09-.087.135-.133.135h-6.298c-.693 0-3.846-.212-6.4-1.091l-.028-.19-.004-.11Z"/>
    <path fill="#605955" d="M21.483 68.974c.248-.114.726-.252 1.216-.008.35.174.59.436.72.787l.015.058-1.77-.727-.23-.085.049-.025Z"/>
    <path fill="#EBEAEC" d="M48.815 70.67c.387-1.726 1.518-3.182 3.394-4.368 2.812-1.778 6.792-3.144 9.745-3.886 2.954-.741 6.393-1.901 8.234-1.987 1.842-.085 3.823.013 5.87.71 2.046.696 4.238 1.904 4.992 2.454.502.367 1.354 1.832 2.555 4.394.5-.032 1.299-.25 2.395-.655-.288.196-1.311.629-2.749.923-1.437.294-2.6.457-2.965.433-.243-.016-.503-.105-.78-.267-14.138.631-21.345.968-21.621 1.01-.413.061-1.316.065-2.417.213-1.101.147-5.216.828-5.833.924a8.272 8.272 0 0 1-.82.102Z"/>
    <path fill="#F7F7F7" d="m60.402 62.838.359-.1-1.542.547c-.736.269-1.591.587-2.564.955a19.59 19.59 0 0 0-6.05 3.618c-.972.835-1.507 2.536-1.511 2.66-.004.099 1.044-.075 2.145-.276l.82-.151c1.183-.221 4.05-.602 4.825-.687l.185-.018c.217-.005.49-.121.595-.252.104-.13.144-.326.28-.47.08-.084.249.159.507.728l-.524.034-.042.004c-.367.056-1.121.065-2.058.17l-.862.116-5.33.852a8.272 8.272 0 0 1-.82.102c.387-1.726 1.518-3.182 3.394-4.368 2.343-1.482 5.498-2.677 8.193-3.464Z"/>
    <path fill="#334655" d="M75.578 64.251c1.33.186 2.351.526 3.308 2.051.956 1.526.795 2.069.79 2.191-.006.123.256.347.248.41l-.036 1.331c-.019.44-.049.849-.098.97a4.188 4.188 0 0 1-.26.506c-1.087.183-2.279.29-3.53.29H64.06c-1.95 0-5.566-.282-7.08-.328l-.325-.008.422-.706c.072-.13.12-.226.145-.288.124-.32-.093-1.064.115-1.214.207-.15.421-.1.502-.501.08-.4.508-1.72 1.017-2.348l.256-.298c.511-.556 1.273-1.13 2.604-1.201l2.796-.176c1.326-.09 2.796-.196 3.945-.287l.894-.072c1.984-.168 4.898-.508 6.227-.322Z"/>
    <path fill="#5B7B95" d="m79.924 68.904-.036 1.33-.023.42c-.018.26-.042.469-.075.55a4.188 4.188 0 0 1-.26.506c-1.087.183-2.279.29-3.53.29H64.06l-.926-.016c-1.846-.055-4.388-.238-5.798-.299l-.681-.02.422-.707.113-.215.032-.073c.124-.32-.093-1.064.115-1.214.08-.058.192-.12.338-.185.489.061.908.096 1.258.103l3.144.019c.929-.002 2.013-.008 3.197-.023l11.166-.156c1.09-.025 2.732-.416 3.139-.532l.153-.053.175.229c.012.019.018.035.017.046Z"/>
    <path fill="#405A76" d="m57.208 70.704.007-.01 11.045.01c2.712 0 6.485-.166 11.317-.5l.312-.023-.024.473c-.018.26-.042.469-.075.55a4.188 4.188 0 0 1-.26.506c-1.087.183-2.279.29-3.53.29H64.06l-.926-.016c-1.846-.055-4.388-.238-5.798-.299l-.681-.02.422-.707.13-.254Z"/>
    <path fill="#27355C" d="M57.626 69.292c-.061.165-.101.351-.12.559-.034.366-.007.643-.053.932l-.05.22c-.112.376.017.284.323.204.305-.08 1.076.217 1.317.218.207 0 .336-.199.45-.516l.057-.168c.13-.412.205-.37.167-.103l-.039.266c-.03.239-.032.491.136.52.217.04 2.448.16 3.036.163l.11-.002c.314-.019.658-.056.765-.494l.074-.276c.109-.373.244-.722.252-.5.01.276-.248 1.263-.094 1.271h3.779c.185-.01.313-.007.409-.483l.034-.202c.1-.678.26-.748.277-.587l-.012.221c-.035.365-.117 1.017.012 1.05l.39.018c.929.02 3.194.01 3.443-.017.263-.029.339-.188.39-.51l.064-.449c.049-.292.107-.467.167-.313.077.2-.014.983.117 1.205.13.222 2.463.058 3.124 0 .595-.052.899-.165 1.021-.69l.086-.496c.077-.353.149-.263.145-.019-.003.2-.031.57-.085 1.11 1.28-.15 1.993-.29 2.136-.42.143-.132.288-.516.435-1.153l.008.002-.01.381-.022.42c-.018.26-.042.469-.075.55a4.188 4.188 0 0 1-.26.506c-1.087.183-2.279.29-3.53.29H64.06l-.926-.016c-1.846-.055-4.388-.238-5.798-.299l-.681-.02.422-.707.145-.288c.124-.32-.093-1.064.115-1.214l.09-.059.199-.105Z"/>
    <path fill="#1F3847" d="M58.372 68.892c-.012-.083.304-1.2.833-2.049.529-.848 1.469-1.123 2.698-1.167 1.23-.043 5.907-.335 8.867-.533 2.961-.198 4.662-.577 5.759-.1 1.097.477 1.74 1.539 2.124 2.226.384.687.43 1.097.313 1.153-.117.056-2.95.18-5.856.267-2.906.089-10.637.163-12.091.204-1.454.041-2.636.082-2.647 0Z"/>
    <path fill="#1C303C" d="M62.455 65.649c.25.245.483.69.454 1.096-.035.48.065.621.246.661.18.04 1.61 0 1.992 0 .382 0 .392-.394.385-.811-.007-.365.225-.917.434-1.108l.062-.04 2.119-.133c.612.161.898.875.85 1.281-.052.452.078.74.146.764.068.025 2.026.027 2.265.015.24-.013.309-.45.318-.883.008-.433.313-.92.602-1.29.093-.12.275-.191.496-.231l.38-.034c.393-.02.819.027 1.068.076.49.095.73.727.802.991.07.264.104 1.134.34 1.186.237.052 1.65.027 2.844.217.238.038.416.092.551.158.238.51.256.811.157.858l-.105.018c-.523.058-2.857.158-5.337.236l-1.546.042c-3.414.076-9.667.138-10.96.175l-2.057.047c-.364 0-.584-.012-.59-.048-.008-.061.162-.687.465-1.352.115.036.246.062.4-.134.183-.231.167-.568.25-.92.49-.509 1.2-.723 2.08-.79l.89-.047Z"/>
    <path fill="#3E525F" d="m73.912 67.872.684.012c1.085.04 2.363.179 2.88.499l.205.133-3.422.137-2.281.065c-3.414.076-9.667.138-10.96.175l-2.057.047c-.364 0-.584-.012-.59-.048l.012-.077c.332-.199 1.122-.338 1.577-.463.52-.144 3.355-.305 5.705-.33l2.24-.024c2.326-.04 5.102-.126 6.007-.126Z"/>
    <path fill="#E5ECEB" d="M61.016 65.355c.308-.031.227.17.293.182.065.01.399.053.63 0 .23-.053.096.228.11.284.014.055.395.52.441.655.046.134.028.677-.116.818-.143.141-.426.062-.756.196s-.964.157-1.323.133c-.358-.024-.586-.31-.576-.59.009-.279-.061-.655.208-1.084.27-.43.781-.562 1.09-.594Zm6.02-.031c.316-.01.543-.03.782.06.24.091.668.521.769 1.108.1.586-.105.702-.298.704-.192.003-.2.16-.263.21-.063.05-1.342.091-1.738.057-.396-.033-.434-.238-.432-.776.002-.539.116-.894.36-1.105.245-.211.503-.247.82-.258Zm5.559-.088c.326-.243.629-.283 1.223-.103.594.181.734.814.732.93-.002.116.28.14.296.36.016.218-.1.664-.296.787-.196.122-.517.194-1.007.205-.49.01-1.166-.017-1.418-.18-.25-.163-.171-.907-.085-1.143.087-.237.229-.613.555-.856Z"/>
    <path fill="#628C8B" d="M61.788 65.849c.285.332.456.88.513.946.042.049.086-.287.036-.568l.122.185a.4.4 0 0 1 .031.064c.046.134.028.677-.116.818-.115.113-.319.085-.564.138l-.192.058c-.33.134-.964.157-1.323.133a.62.62 0 0 1-.481-.269.948.948 0 0 1 .3-.038c.53.005 1.19.178 1.333-.128.142-.305.3-.876.112-1.168-.188-.291-.057-.503.229-.171Zm6.527.33c.09.29.184.463.296.575.006.36-.163.44-.322.442-.192.003-.2.16-.263.21-.063.05-1.342.091-1.738.057-.237-.02-.346-.101-.395-.279.583-.04 1.622-.213 1.719-.248.113-.041.219-1.168-.1-1.4-.317-.23.639.119.803.643Zm5.668-.935.208.102c.284.26.36.63.359.717-.002.116.28.14.296.36.016.218-.1.664-.296.787-.196.122-.517.194-1.007.205-.49.01-1.166-.017-1.418-.18-.063-.041-.105-.119-.132-.216l.753-.01c.456-.013.911-.046.95-.133.066-.145.101-1.138 0-1.34-.09-.18-.097-.454.287-.292Z"/>
    <path fill="#001B2D" d="M73.51 67.141a.348.348 0 0 1 .221-.127c.251-.197.386-.397.405-.601.013-.144.056-.323-.04-.549-.11-.254-.293-.474-.272-.504.039-.058.254.042.388.235.134.193.324.416.314.624-.011.207.1.565-.088.8-.188.236-1.006.223-.929.122Z"/>
    <path fill="#D8D8D8" d="M61.88 65.606c.733-.141 3.507-.248 5.765-.411 2.258-.164 7.604-.503 7.473-.382-.13.12-2.713.398-4.812.501-2.099.104-5.773.254-6.76.313-.987.059-2.399.12-1.666-.02Z"/>
    <path fill="#818A97" d="M58.77 69.075c.48-.02 3.352-.084 5.817-.148 2.465-.063 9.001-.143 10.282-.176 1.28-.032-.285.137-1.983.18-1.132.029-4.243.084-9.333.165-1.92.027-3.107.045-3.562.056-.681.016-1.702-.057-1.222-.077Z"/>
    <path fill="#E9ECF4" d="M38.553 50.522c-.285.302-.598.317-.8.213-.201-.105-.084-.658.087-1.36.172-.702.364-1.488.896-2.008.531-.52 1.962-1.386 2.212-1.464.123-.296.464-.547 1.093-.742.63-.194 2.653-.258 2.74-.278.052-.012.073.224-.094.397-.088.091-.259.14-.44.18-.056.013-.16-.004-.226-.001-.675.034-.693-.116-1.235 0-.542.116-.01.212.109.241.117.029.154.18 0 .203-.155.024-.758-.032-.854.284-.096.316-.433.417-.773.609s-1.283.606-1.823 1.174-.569 1.311-.629 1.639c-.06.327.021.611-.263.913Z"/>
    <path fill="#A8ADB8" d="M43.383 45.278c.259-.013.555-.008.889.017l.345.031.07-.046c-.088.091-.259.14-.44.18-.056.013-.16-.004-.226-.001-.675.034-.693-.116-1.235 0-.542.116-.01.212.109.241.117.029.154.18 0 .203l-.371.022c-.208.022-.428.081-.483.262-.064.21-.235.326-.443.436l-.914.479c-.407.218-.902.513-1.24.868-.36.379-.492.835-.558 1.194l-.07.445c-.06.327.021.611-.263.913-.285.302-.598.317-.8.213-.123-.064-.127-.296-.073-.626l.043.052c.195.293.563.17.703-.045.14-.214.268-1.439.965-2.21.696-.772 1.946-1.209 2.155-1.37.209-.162.411-.463.292-.632-.08-.113-.295-.156-.648-.129l.17-.091c.08-.037.183-.08.308-.13.374-.147 1.196-.25 1.715-.276Z"/>
    <path fill="#E9ECF4" d="M45.53 46.745c-.129.178-.484.311-.727.052-.244-.259-.23-1.057-.186-1.605.045-.548.148-1.78.63-1.84.482-.06.976.1 1.179.283.135.123.278.278.43.466l-.273.182-.283.12c-.247-.264-.423-.372-.53-.323-.16.073-.254.706-.224 1.033.03.328.127.98.122 1.147-.005.167-.008.307-.137.485Z"/>
    <path fill="#A8ADB8" d="M46.038 43.982c.091.039.216.105.374.197l.171.104-.283.12c-.247-.264-.423-.372-.53-.323-.16.073-.254.706-.224 1.033l.117 1.027c.004.05.006.092.005.12-.005.167-.008.307-.137.485-.13.178-.485.311-.728.052-.11-.115-.167-.338-.193-.598.195.165.363.241.505.23.281-.023.166-1.117.276-1.684.109-.566.378-.879.647-.763Z"/>
    <path fill="#E9ECF4" d="M55.042 44.567c.12-.219.095-.51-.486-1.12-.582-.61-1.48-1.541-2.11-1.924-.63-.383-1.292-.289-1.7-.25-.271.026-.548.064-.83.115a.939.939 0 0 0-.718.018c-.377.153-.495.653-.417 1.352.052.466.093.762.122.888l.718-.402v-.748c.183.142.356.173.517.092.242-.121.941-.677 1.426-.487.485.19 1.26.8 1.672 1.346.412.546 1.008 1.178 1.21 1.218.204.04.475.12.596-.098Z"/>
    <path fill="#A8ADB8" d="M49.67 41.638c-.012.202.03.357.125.463.144.16.879-.29 1.475-.357.597-.067 1.16.42 1.685.936l.805.845c.268.27.529.494.764.566.235.073.362 0 .383-.22.233.337.223.536.135.696-.121.219-.392.137-.595.098-.203-.04-.8-.672-1.211-1.218-.412-.545-1.187-1.155-1.672-1.346-.485-.19-1.184.366-1.426.487a.419.419 0 0 1-.408-.02l-.109-.072v.748l-.237.134.002-.765c.003-.391.097-.717.283-.975Z"/>
    <path fill="#E2E4E6" d="M63.542 62.14c-3.746 1.11-4.567 1.285-4.896 2.33-.19.607 5.25.222 10.081-.14 3.491-.26 6.555-.405 6.882-.567 2.58-1.274 1.638-2.029-.452-2.662s-4.091-.617-5.139-.524c-1.047.093-2.73.453-6.476 1.563Z"/>
    <path fill="#DADBE0" d="M70.018 60.577c.691-.062 1.797-.09 3.07.08 1.55.24 1.925.864 1.37 1.776-.27.444-8.338 1.37-11.4 1.467l-.29.007c-1.432.02-2.667-.02-3.702-.123.43-.398 1.217-.674 2.79-1.145l2.75-.81c2.845-.82 4.303-1.133 5.25-1.236l.162-.016Z"/>
  </g>
</svg>
