<svg xmlns="http://www.w3.org/2000/svg" viewBox="0 0 96 96">
  <defs>
    <path id="a" d="M0 0h96v96H0z"/>
  </defs>
  <g fill="none" fill-rule="evenodd">
    <path fill="#4E4E4E" d="M27.09 54.069c-.169-.1-.531-.083.11-.786.643-.703 1.552-1.412 2.056-1.412.505 0 1.562-.413 2.047-1.302.485-.89.59-1.002.925-1.002.335 0 1.298-.261 1.533-.261.235 0 .288.034.718-.26.43-.293 1.52-.696 2.236-.935.716-.238 2.172-.97 2.78-1.453.608-.482 4.888-2.077 6.362-2.701 1.474-.625 2.366-1.012 3.289-1.756.922-.743 2.758-2.379 3.071-2.71.313-.333 2.41-1.981 3.175-2.358.765-.377 1.14-.577 1.793-.289.651.289 1.495 1.635 1.356 2.144-.138.508-2.206 2.532-2.327 3.213-.121.682.277 1.469.894 1.883.617.414 3.874 2.282 4.915 2.574 1.04.293 3.065.846 5.263 0 2.197-.845 4.834-2.561 4.904-3.289.07-.727-.658-1.582-1.035-2.272-.377-.691-.616-1.509 0-2.11.616-.6 1.733-1.422 2.229-1.404.495.018 1.098.126 1.381.336.189.141.4.326.63.556.367.286.77.736 1.21 1.349.66.919.79 1.347 1.066 1.751.083.337.303.647.468 1.117.273.778 1.057 2.753 1.36 3.966.304 1.214.946 2.666 1.315 3.448.368.782.862 2.934.844 4.158-.013.816-.013 2.017 0 3.603-10.857 4.236-19.339 6.6-25.444 7.093-9.159.74-23.89-3.597-26.07-6.29-2.179-2.691-2.887-4.502-3.055-4.601Z"/>
    <path fill="#090909" d="M78.287 35.606c.06 1.948-.504 4.266-.598 5.178-.082.799.114 1.064.348 1.64l.77 2.088c.215.594.432 1.223.588 1.761l.104.385c.304 1.214.946 2.666 1.315 3.448.368.782.862 2.934.844 4.158l-.01 1.98.01 1.623c-10.858 4.236-19.339 6.6-25.444 7.093-9.159.74-23.89-3.597-26.07-6.29l-.558-.71c-1.745-2.296-2.344-3.8-2.497-3.891l-.175-.084c-.12-.074-.158-.215.287-.702.543-.594 1.276-1.193 1.794-1.364.233.053.441.092.612.11 1.288.136 4.329-1.398 7.19-2.207 2.862-.809 8.389-3.804 12.017-5.292 3.139-1.287 8.155-4.886 9.684-5.998.056.183.074.34.043.456-.138.508-2.206 2.532-2.327 3.213-.121.682.277 1.469.894 1.883l.346.217.936.55c1.228.7 2.933 1.61 3.633 1.807l.467.127.56.131c1.105.23 2.624.362 4.236-.258 2.197-.845 4.834-2.561 4.904-3.289.07-.727-.658-1.582-1.035-2.272-.377-.691-.616-1.509 0-2.11.616-.6 1.733-1.422 2.229-1.404.495.018 1.098.126 1.381.336.189.141.4.326.63.556l-.261-1.173-.178-.88a9.69 9.69 0 0 1-.095-.587l-.013-.13c-.041-.573.064-2.07 1.111-2.384 1.047-.314 2.267.338 2.328 2.285Zm-2.125-1.858c-.64.203-1.013.763-.785 2.266.152 1.003.33 1.96.536 2.874l1.19 1.784.138-1.409c.032-.288.062-.527.09-.719l.027-.175c.106-.637.545-2.173.32-3.292-.227-1.12-.876-1.531-1.516-1.329Z"/>
    <path fill="#262626" d="M78.287 35.606c.06 1.948-.504 4.266-.598 5.178-.082.799.114 1.064.348 1.64l.77 2.088c.215.594.432 1.223.588 1.761l.104.385c.304 1.214.946 2.666 1.315 3.448.368.782.862 2.934.844 4.158l-.01 1.98.01 1.623-.316.12-.203-2.112c-.224-2.151-.412-3.38-.565-3.686l-.417-.923c-.881-1.992-2.828-6.484-3.497-7.855l-.086-.174c-.697-1.364-1.773-2.865-3.182-2.155l-.593.313c-.332.18-.71.387-1.099.588l-.378-.603a6.281 6.281 0 0 1-.167-.283c-.377-.691-.616-1.509 0-2.11.616-.6 1.733-1.422 2.229-1.404.495.018 1.098.126 1.381.336.189.141.4.326.63.556l-.261-1.173-.178-.88-.073-.424a5.633 5.633 0 0 1-.022-.163l-.013-.13c-.041-.573.064-2.07 1.111-2.384 1.047-.314 2.267.338 2.328 2.285Zm-2.125-1.858c-.64.203-1.013.763-.785 2.266.152 1.003.33 1.96.536 2.874l1.19 1.784.138-1.409.09-.719.027-.175c.106-.637.545-2.173.32-3.292-.227-1.12-.876-1.531-1.516-1.329Z"/>
    <path fill="#1E1D1D" d="M50.644 41.041c-.278-.393-.549-.511-.813-.355-.396.235-.137.879.12 1.266.258.387.829 1.398.693 1.72-.135.322.262.446-.498.704-.76.258-1.049.448-1.38.424-.333-.024-.793-1.31-.89-1.566-.095-.255-.046-.294.124-.312.17-.019.136-.455-.308-.59-.445-.133-1.152-.265-1.41.051-.258.317.127 2.263 0 2.895-.126.631-1.47 1.222-1.855 1.297-.384.075-.885-1.258-.928-1.297-.029-.026-.083-.127-.165-.305.273-.079.26-.236-.04-.472-.45-.354-.71-.465-.968-.405-.259.06-.59.15-.606.765-.016.614.564 1.772 0 2.462-.564.689-1.476.957-1.768.973-.291.016-1.043-.433-1.437-.973.214-.185.462-.294.16-.553-.3-.259-.547-.305-.796-.299-.25.007-.623.262-.68.852-.055.589-.326 1.12-.603 1.403-.277.282-1.193.86-1.668.95-.475.092-1.432.28-1.443.107-.01-.173.175-.412-.262-.373-.437.04-1.055.106-1.358.267-.303.16-.382.788-.774 1.193-.391.406-.9.74-1.146.863-.245.124-.793.035-1.202.27-.41.237-1.545 1.332-1.815 1.611-.27.28.067.396.258.208.192-.187 1.542-1.017 1.87-1.186.326-.169 1.405-.551 1.681-.762.276-.21.935-.663 1.834-.705.898-.041 2.366-.068 2.613-.216.248-.148 2.409-1.28 2.497-2 .088-.72.158-1.264.198-1.16.04.105.864 1.757 1.55 2.096.685.339 2.678-.73 2.86-1.133.184-.402.53-1.579.473-2-.037-.28-.081-.613-.134-1 .469 1.132.79 1.896.966 2.294.174.399.357.7.548.903 1.547-.615 2.392-.967 2.536-1.057.215-.135.573-2.22.56-2.618-.015-.398-.142-1.399-.13-1.326.014.073.862 2.11.892 2.994.03.884.578.499 1.42.102.843-.396 2.23-1.174 2.152-3.011-.051-1.225-.36-2.223-.928-2.996Z"/>
    <path fill="#717171" d="M37.879 46.471c.25-.006.496.04.797.299a.533.533 0 0 1 .108.12l-.408-.112c-.296-.069-.482-.075-.56-.021-.185.126-.317 1.302-.574 1.723-.257.42-2.414 1.425-2.941 1.539-.46.1-1.009-.046-1.23-.066h-.074c-.137.027-.83-.057-1.027 0-.084.024-.28.188-.587.492l.184-.38c.086-.176.173-.322.298-.388.303-.161.921-.228 1.358-.267.437-.039.252.2.262.373.011.172.968-.015 1.443-.106.475-.092 1.391-.67 1.668-.951.277-.282.548-.814.604-1.403.056-.59.429-.845.679-.852Zm4.447-2.375c.258-.06.517.051.967.405.203.159.275.282.216.37-.354-.395-.603-.615-.751-.663-.218-.07-.301.318-.292.66l.01.142c.04.364-.004 1.802-.23 2.146-.227.344-1.326 1.252-1.834 1.324-.509.071-1.32-.115-1.607-.48l-.37-.47c-.122-.17-.171-.286-.025-.263.055.008.098.02.136.034l-.03.022c.393.54 1.145.99 1.436.973.292-.016 1.204-.284 1.768-.973l-.084.098c.56-.321.445-.881.473-1.156.023-.235-.327-1.125-.195-1.976.12-.122.276-.161.412-.193Zm3.956-1.713c.258-.316.965-.184 1.41-.05.273.082.39.279.402.422-.25-.147-.765-.299-1.007-.327-.298-.035-.123.454-.163.932l-.088 1.23c-.03.351-.069.69-.122.918-.124.531-1.687 1.347-2.297 1.505-.487.127-.79-.253-1.064-.713l-.202-.352a15.955 15.955 0 0 1-.603-1.165c.145-.103.281-.124.409-.066.085.04.184.096.296.17l.107.075-.026.011.102.21a.873.873 0 0 0 .037.061l.026.034.235.495c.19.385.462.847.693.802.384-.075 1.729-.666 1.855-1.297.127-.632-.258-2.578 0-2.895Zm3.55-1.697c.263-.156.534-.038.812.355l.079.111.237.764.048.13c.144.344.228.957.106 1.626-.121.67-1.174 1.366-1.694 1.626-.52.261-1.01.135-1.194-.07-.185-.206-1.041-2.012-1.139-2.306-.098-.294.075-.288.362-.248.169.024.324.149.472.26-.083.022-.112.066-.08.19l.133.368c.178.461.526 1.289.791 1.308.332.024.62-.166 1.381-.424.48-.162.498-.272.481-.411.182-.115.16-.582-.035-1.38-.15-.607-.564-.94-.937-1.293-.059-.25-.03-.484.176-.606Z"/>
    <path fill="#8A8888" d="M71.339 53.843c-.255-.538.646-2.569 2.563-4.618 1.916-2.049 3.063-2.724 3.512-2.657.448.068 1.023.815 1.066 2.76.042 1.945-.052 2.948-.614 3.454-.563.507-1.831.924-3.481 1.225-1.65.3-2.792.374-3.046-.164Z"/>
    <path fill="#9A9A9A" d="M77.414 46.568c.24.036.518.269.73.778.077.462-.083.896-.588 1.144-.602.297-1.505 1.031-2.339 1.76l-1.76 1.575c-.821.72-1.557 1.728-1.554.097.437-.796 1.108-1.744 1.999-2.697 1.916-2.049 3.063-2.724 3.512-2.657Z"/>
    <path fill="#6A6A6A" d="m78.48 49.328.009.777c-.003 1.444-.141 2.243-.623 2.677a2.3 2.3 0 0 1-.383.272l-.05.006-.136-.006c-.81-.124-3.254.393-4.38.565-.754.115-.747.373-1.01.577-.288-.055-.48-.167-.568-.353-.164-.345.15-1.308.904-2.496.034.313-.317 1.54-.014 1.759.407.293 2.73-.296 3.85-.591 1.119-.296 1.783-1.129 1.977-2.745.109-.908.07-2.022-.066-2.73.258.423.465 1.15.49 2.288Z"/>
    <path fill="#BFBFBF" d="M77.414 46.568c.333.05.735.475.938 1.487-.32-.783-.729-1.145-1.012-1.197-.358-.066-1.894 1.158-3.432 2.682-1.538 1.523-2.236 3.276-2.327 3.826-.09.549.166.808 2.393.523 1.484-.19 2.94-.67 4.366-1.441l-.317.164a1.27 1.27 0 0 1-.157.17c-.563.507-1.831.924-3.481 1.225l-.675.114c-1.283.195-2.153.183-2.371-.278-.255-.538.646-2.569 2.563-4.618 1.916-2.049 3.063-2.724 3.512-2.657Z"/>
    <path fill="#B4860E" d="M76.179 49.84c-.61.013-1.501.052-1.701.354-.2.302-.115.967.064 1.427.18.46.526.63.68.668.156.037 1.961.05 2.195-.204.234-.255.265-.672.265-1.018 0-.347-.052-1.096-.377-1.185-.325-.089-.517-.056-1.126-.043Z"/>
    <path fill="#A7A79D" d="m77.676 51.294-.02.207c-.031.22-.098.431-.239.584-.234.255-2.039.241-2.194.204-.133-.033-.406-.162-.595-.488l-.094-.203.562-.096c1.087-.173 1.947-.242 2.58-.208Z"/>
    <path stroke="#131110" stroke-width=".5" d="M76.187 50.09c-.51.01-1.325-.024-1.5.242-.17.256-.06.82.088 1.198.135.345.388.487.507.516.092.022.798.028 1.364-.024.263-.025.52-.032.587-.106.195-.213.199-.566.199-.85 0-.175-.02-.466-.292-.966-.197-.04-.397-.028-.953-.01Z"/>
    <path fill="#C8C8C8" d="M57.185 36.844c.651.289 1.495 1.635 1.356 2.144-.138.508-2.206 2.532-2.327 3.213-.121.682.277 1.469.894 1.883l.346.217c1.05.64 3.658 2.102 4.569 2.357l.467.127c1.116.288 2.89.606 4.796-.127 2.197-.845 4.834-2.561 4.904-3.289.07-.727-.658-1.582-1.035-2.272-.377-.691-.616-1.509 0-2.11.616-.6 1.733-1.422 2.229-1.404.495.018 1.098.126 1.381.336l.247.199c-.286-.057-.533-.042-.742.045l-.15.078c-.4.259-.868.336-1.485.712-.617.376-.261 1.23.565 2.648.825 1.418.242 2.811-.296 3.387-.54.575-3.446 2.16-5.35 2.836-1.904.676-3.441.663-6.522-.383-3.081-1.046-5.685-3.396-6.102-4.038-.416-.642-.342-1.447.097-2.377.439-.931 2.114-2.233 2.186-2.449.072-.216-.519-1.287-.62-1.357-.103-.07-.334-.154-.845 0-.512.153-.941.45-1.018.666-.076.217.122.332 0 .586-.121.254-.177 0-.38.105l-.452.254-.07.029c-.092.024-.368.17-.327.268.042.098.844.136.962.306.103.148-.166.264-.492.254l-.143-.013c-.385-.056-1.26-.06-1.547.045-.096.034-.418.238-.966.61l.746-.685.156-.155c.313-.332 2.41-1.98 3.175-2.357l.46-.222c.486-.22.826-.291 1.333-.067Z"/>
    <path fill="#999" d="m62.023 46.658.467.127.56.131c1.105.23 2.624.362 4.236-.258.458-.176.936-.39 1.406-.626.044.47.004.952-.115 1.385-.36.156-.705.294-1.023.407-1.904.676-3.441.663-6.522-.383-1.34-.455-2.589-1.156-3.607-1.856.216-.184.499-.354.854-.51l.292-.122.688.383c1.064.583 2.219 1.17 2.764 1.322Z"/>
    <path fill="#E2E2E2" d="M57.185 36.844c.651.289 1.495 1.635 1.356 2.144-.138.508-2.206 2.532-2.327 3.213-.121.682.277 1.469.894 1.883l.425.265-.23 1.152c-1.26-.882-2.144-1.746-2.373-2.098-.416-.642-.342-1.447.097-2.377.439-.931 2.114-2.233 2.186-2.449.072-.216-.519-1.287-.62-1.357-.103-.07-.334-.154-.845 0-.512.153-.941.45-1.018.666-.076.217.122.332 0 .586-.121.254-.177 0-.38.105l-.452.254-.07.029c-.092.024-.368.17-.327.268.042.098.844.136.962.306.103.148-.166.264-.492.254l-.143-.013c-.385-.056-1.26-.06-1.547.045-.096.034-.418.238-.966.61l.746-.685.156-.155c.313-.332 2.41-1.98 3.175-2.357l.46-.222c.486-.22.826-.291 1.333-.067Z"/>
    <path fill="#777" d="m70.78 39.952.007-.023c.082-.245.2-.341.298-.087.211.544.425.767 1.047 1.513.623.746.666 1.541.493 1.96-.174.42-1.755 1.925-3.826 3.09-2.07 1.164-4.179.971-5.636.751-.646-.097-1.863-.691-3.09-1.383l.583.298c.565.28 1.062.502 1.367.587l.467.127.56.131c1.105.23 2.624.362 4.236-.258 2.197-.845 4.834-2.561 4.904-3.289.07-.727-.658-1.582-1.035-2.272-.198-.363-.358-.761-.376-1.145Zm-12.239-.964c-.138.508-2.206 2.532-2.327 3.213-.079.44.06.924.334 1.323l-.024-.02c-.826-.692-.833-1.257-.635-1.76.198-.505 2.25-2.476 2.419-2.735.138-.213-.056-.87-.139-1.16.27.435.44.888.372 1.139Z"/>
    <path fill="#EAEAEA" d="M60.156 42.66c3.24-.782 9.143-1.838 10.795.58 1.652 2.419.37 4.868-.921 6.473-1.292 1.605-3.166 4.407-1.93 6.133 1.237 1.725 4.913.812 6.115.667 1.203-.145 6.758-2.539 7.092-2.702.223-.11.3-.25.231-.42.1-.028.23-.028.387 0 .237.042.319.486.389.927.047.294-.025.538-.214.732l.346 1.604c-3.927 2.452-7.759 4.09-11.495 4.913-3.736.824-11.754 2.36-24.055 4.61 1.662-2.341 2.146-4.544 1.452-6.607-1.04-3.096-11.033-3.192-12.44-3.84-1.407-.649-3.974-2.444-4.226-2.497-.252-.052-.761.155-1.44.158-.679.003-.9.276-1.307.314-.406.038-1.427-.15-1.427-.272 0-.12.344-.448.545-.611.201-.163.207-.299.915-.425.707-.126 1.01.088 2.226-.04 1.217-.13 3.212-1.405 7.677-2.306 4.466-.901 8.93-2.727 11.075-3.797 2.144-1.07 6.97-2.812 10.21-3.594Zm3.007 3.41c-3.162.601-4.658 1.43-4.834 2.416-.176.986.713 1.842 3.301 2.669s3.61-.6 3.938-1.162c.326-.561 1.677-2.752 1.654-3.285-.022-.534-.896-1.24-4.059-.639Z"/>
    <path fill="#D8D8D8" d="M72.713 60.3c-7.64-1.715-12.004-2.493-13.091-2.333-1.088.16-2.217 2.373-3.39 6.64l16.48-4.306Z"/>
    <path fill="#C5C5C5" d="m59.622 57.967.251-.02c1.12-.028 4.044.46 8.772 1.463l3.542.773c.026.079.048.158.064.24l-6.86 1.79-5.56-.884c-.724-.125-1.15-.207-1.275-.248-.266-.087-.525-.668-.593-1.345.565-1.1 1.117-1.69 1.659-1.769Z"/>
    <path fill="#CECECE" d="M34.044 53.318c1.216.327 2.121.393 2.591.31.47-.085 13.178-3.744 14.205-4.218 1.027-.473 3.124-.954 3.327-1.29.135-.224.062-.49-.219-.797.994-.644 1.693-.592 2.097.157.606 1.123-.103 2.676-4.47 4.282-4.367 1.607-15.51 4.271-17.008 4.183-1.497-.089-3.806-2.142-3.316-2.84.49-.696 1.576-.115 2.793.213Z"/>
    <path fill="#505050" d="M51.575 48.858c-.22.134-.365.176-.437.125-.107-.076-1.288-.914-1.262-.944.025-.03-.911.246-1.097.419-.125.115-.698.395-1.72.838.01.574-.06.918-.215 1.033-.23.171-.593-.14-.804-.31-.211-.171-.348-.427-.537-.385-.189.043-1.316.367-1.542.465-.227.098-1.593 1.339-1.707 1.53-.113.19-.271.328-.626.104-.354-.224-.655-.702-.848-.686-.13.01-.656.128-1.579.354-1.245.812-1.842 1.28-1.791 1.403.076.184-.18.283-.38.205-.198-.079-.992-.47-1.06-.643-.066-.173-1.18.158-1.93.426-.75.267-1.286.469-1.31.595-.024.127.516.397.298.358-.218-.04-1.709-.728-1.885-.736-.176-.008 5.408-1.657 6.107-1.858.7-.202 6.772-1.607 7.876-2.09 1.104-.482 5.206-2.019 5.685-2.115.32-.064.575.573.764 1.912Z"/>
    <path fill="#B0B0B0" d="M65.557 42.923c2.331.044 4.672.378 5.15 2.406.478 2.028-1.667 3.753-2.314 5.073-.647 1.32-1.265 1.865-1.738 2.925-.145.325.298.84 1.05 1.369.025.415.147.804.395 1.15 1.237 1.725 4.913.812 6.115.667 1.203-.145 6.758-2.539 7.092-2.702.223-.11.3-.25.231-.42.1-.028.23-.028.387 0 .237.042.319.486.389.927a.83.83 0 0 1-.114.61l-.1.122.346 1.604c-2.057 1.284-4.088 2.345-6.093 3.183a28.43 28.43 0 0 1-3.748.653c-3.47.369-8.252-.589-12.31-1.489-4.058-.9-5.966 1.39-6.584.335-.618-1.054 1.152-4.525-3.47-4.661-4.623-.136-13.702.727-13.438.497.265-.23.144-1.674.447-1.738l.256-.07c.657-.195 2.204-.697 2.34-.648.16.057 1.033.783 1.319.718l.358-.093c.267-.078.553-.185.63-.297.118-.169-.144-.774.21-.965.352-.191 2-.749 2.195-.672.196.077.567.657.757.672.19.015 1.783-.301 1.742-.408-.04-.108-.178-.897 0-1.002.18-.104 2.153-.902 2.3-.847.147.055.506 1.083 1.415.834.91-.249.428-1.264.48-1.381.05-.118 2.88-.863 2.994-1.024.115-.16.424-.71 0-.81-.423-.101-2.29.891-2.762.846-.314-.03-.729-.313-1.244-.846l1.718-.827c2.69-1.277 4.522-2.048 5.496-2.313l.812-.212c1.982-.498 5.271-1.204 7.291-1.166Zm-2.394 3.146c-3.162.602-4.658 1.43-4.834 2.417-.176.986.713 1.842 3.301 2.669 2.342.749 3.402-.349 3.824-.98l.636-1.067c.505-.868 1.148-2.031 1.132-2.4-.022-.534-.896-1.24-4.059-.639Z"/>
    <path fill="#787878" d="m58.313 48.607.016-.121c-.176.986.713 1.842 3.301 2.669 2.342.749 3.402-.349 3.824-.98l.034-.052c.095.104.134.212.107.322-.188.766-1.1 2.323-1.997 3.75-1.755 2.778-2.892 4.531-3.41 5.258-.778 1.091-2.788 4.574-3.236 4.615-1.947.176-1.562-4.098-2.423-4.25-.309-.379-.632-.761-.966-1.134-.073-1.408.576-3.895-3.323-4.01-4.308-.126-12.487.615-13.366.53l-.008-.127-.063.095c.158-.137.179-.708.234-1.159l3.273-.993.321.21c.216.132.42.23.534.204l.358-.093c.267-.078.553-.185.63-.297.07-.1.007-.35.016-.579l2.684-.794.202.22c.099.103.191.182.26.188.19.015 1.783-.301 1.742-.408l-.04-.174a3.156 3.156 0 0 1-.048-.453l2.719-.8c.219.275.56.556 1.084.412.536-.146.59-.559.553-.897l1.058-.306c1.16-.324 2.565-.68 3.727-.836.47-.064 1.266-.063 2.203-.01Z"/>
    <path fill="#9F9F9F" d="M80.873 54.05c.508-.026.973-.032 1.394-.016l.047.284a.83.83 0 0 1-.114.61l-.1.122.346 1.604c-2.057 1.284-4.088 2.345-6.093 3.183-.346.084-.7.164-1.062.237-1.492-.584-2.943-1.649-4.358-3.192 1.3.003 2.642-.292 3.282-.37 1.003-.12 5.031-1.804 6.537-2.455l.121-.007Z"/>
    <path fill="#858585" d="m82.267 54.034.047.284a.83.83 0 0 1-.114.61l-.1.122.346 1.604a45.084 45.084 0 0 1-3.866 2.166c-.7-.514-1.666-1.423-2.897-2.73 1.624-.573 3.992-1.567 5.069-2.033l.121-.007c.508-.026.973-.032 1.394-.016Z"/>
    <path fill="#262626" d="M61.623 45.521c1.647-.48 3.774-.58 5.02-.264 1.248.315 1.331 1.278 1.216 1.82-.105.493-.958 2.086-1.427 2.848l-.387.6c-.292.438-.594.816-1.359 1.366-.983.707-4.348.058-5.713-.945-1.365-1.004-1.96-1.921-1.481-3.032.479-1.11 2.485-1.912 4.131-2.393Zm1.54.548c-3.162.602-4.658 1.43-4.834 2.417-.176.986.713 1.842 3.301 2.669 2.342.749 3.402-.349 3.824-.98l.636-1.067.428-.754c.379-.69.716-1.378.704-1.646-.022-.534-.896-1.24-4.059-.639Z"/>
    <path fill="#CECECE" d="m60.156 42.66.707-.165c3.328-.746 8.55-1.507 10.088.745 1.58 2.314.476 4.655-.753 6.259l-.532.68c-1.243 1.64-2.607 4.05-1.483 5.618 1.236 1.726 4.914.745 6.116.6 1.203-.145 7.015-2.654 7.093-2.702.077-.049.103-.061.146-.304.1-.028.23-.028.387 0 .237.042.316.622.386 1.063a.885.885 0 0 1-.039.464c-.297.282-.766.551-1.406.808l-1.08.423c-1.861.713-4.827 1.837-6.582 2.16-2.16.396-5.244.483-6.779-2.025-1.157-1.892.609-4.95 2.124-7.086l.827-1.128c1.602-2.133 1.435-3.956-1.707-4.676-3.141-.72-10.113 1.257-12.11 1.982l-.609.232c-2.61 1.02-9.143 3.697-10.796 4.269-1.485.513-4.517 1.262-6.12 1.63l-1.327.29c-1.337.302-3.859.923-4.419 1.125l-.9.32-.616.109c-.081.011-.166.02-.254.028l-.276.012c-.679.003-.9.276-1.307.314-.406.038-1.427-.15-1.427-.272 0-.1.24-.345.435-.518l.11-.093c.201-.163.207-.299.915-.425.707-.126 1.01.088 2.226-.04 1.164-.124 3.04-1.297 7.109-2.187l.568-.12c3.996-.805 7.99-2.352 10.323-3.435l.752-.36c2.144-1.07 6.97-2.813 10.21-3.595Z"/>
    <path fill="#222" d="m60.156 42.66.707-.165c3.328-.746 8.55-1.507 10.088.745 1.58 2.314.476 4.655-.753 6.259l-.532.68c-1.243 1.64-2.69 4.098-1.566 5.667 1.237 1.725 4.913.812 6.115.667 1.203-.145 6.758-2.539 7.092-2.702.223-.11.3-.25.231-.42.1-.028.23-.028.387 0 .237.042.319.486.389.927a.89.89 0 0 1-.039.463c-.297.282-.766.552-1.406.809l-1.08.423c-1.861.713-4.848 1.785-6.603 2.107-2.16.397-5.21.26-6.569-1.992-1.14-1.893.536-4.765 2.051-6.9l.828-1.129c1.602-2.133 1.4-4.077-1.74-4.797-3.142-.72-10.234 1.228-12.23 1.954l-.609.231c-2.61 1.02-9.11 3.818-10.763 4.39-1.485.513-4.517 1.262-6.12 1.63l-1.327.29c-1.337.302-3.859.923-4.419 1.125l-.9.32-.616.109c-.081.011-.166.02-.254.028l-.276.012c-.679.003-.9.276-1.307.314-.406.038-1.427-.15-1.427-.272 0-.1.24-.345.435-.518l.11-.093c.201-.163.207-.299.915-.425.707-.126 1.01.088 2.226-.04 1.164-.124 3.04-1.297 7.109-2.187l.568-.12c3.996-.805 7.99-2.352 10.323-3.435l.752-.36c2.144-1.07 6.97-2.813 10.21-3.595Z"/>
    <path fill="#898989" d="M70.951 43.24c.127.186.237.373.33.559-.845-1.39-2.417-1.714-2.94-1.817-.69-.135-5.264.076-8.787.918-3.523.842-6.455 2.239-10.306 3.98-3.648 1.648-7.75 2.9-9.938 3.348l-.347.067c-2.078.376-5.344 1.436-6.2 1.73-.856.293-2.127.551-2.786.544l-1.597-.003c.108-.058.283-.115.588-.169.707-.126 1.01.088 2.226-.04 1.164-.124 3.04-1.297 7.109-2.187l.568-.12c3.996-.805 7.99-2.352 10.323-3.435l.752-.36c2.144-1.07 6.97-2.813 10.21-3.595l.707-.165.74-.159c3.315-.68 7.92-1.187 9.348.904Z"/>
    <path fill="#D8D8D8" d="M11.722 59.643c.38-.62.743-1.07 1.088-1.349.518-.42 2.135-1.698 2.419-1.781.283-.083 1.23-.092 1.571-.123.342-.032 5.614-1.184 6.79-1.602 1.177-.42 2.242-1.016 2.447-1.049.204-.033.596-.055.798 0 .201.055.91-.238 1.223-.174.314.064.82.125 1.24 0 .42-.125.95-.353 1.721-.332.772.022 1.868.327 2.992.74 1.124.414 3.643 1.538 6.027 1.783 2.385.244 9.63-.906 10.916 1.173.857 1.385-.35 4.468-3.623 9.248-10.127.54-17.595.54-22.406 0-7.216-.811-12.661-2.47-13.203-3.231-.36-.508-.36-1.609 0-3.303Z"/>
    <path fill="#E2E2E4" d="M31.02 53.233c.771.022 1.867.327 2.99.74l1.525.59c.25.093.515.191.793.288l-.93.377c-1.889.789-3.555 1.66-2.934 2.322.972 1.038 4.465 1.163 7.394 1.594 2.928.43-1.1.938-5.533 1.456l-4.883.55c-2.997.33-10.563.977-13.124-.821l-.273-.219c-1.028-.946-2.497-.986-3.83-1.183.203-.267.402-.476.595-.633l1.044-.823c.59-.454 1.21-.91 1.375-.958.283-.083 1.23-.092 1.571-.123l.365-.066c1.282-.254 5.402-1.172 6.425-1.536 1.177-.42 2.242-1.016 2.447-1.049.204-.033.596-.055.798 0 .201.055.91-.238 1.223-.174.314.064.82.125 1.24 0l.61-.19c.308-.085.67-.154 1.111-.142Z"/>
    <path fill="#C5C5C5" d="M40.038 55.756c2.385.244 9.63-.906 10.916 1.173.857 1.385-.35 4.468-3.623 9.248l-2.13.107c-9.05.43-15.809.395-20.276-.107a74.38 74.38 0 0 1-4.038-.565c2.51-2.432 7.904-5.663 9.473-5.852 2.266-.274 4.412.295 4.494 1.242.083.948-2.156 3.052 1.324 2.65 3.48-.4 7.834-2.426 7.818-4.093-.015-1.607-5.315-.992-7.375-1.287-2.06-.294-3.793.054-4.346-.871-.516-.866 1.841-2.424 3.565-2.726 1.209.446 2.73.93 4.198 1.08Z"/>
    <path fill="#B3B3B3" d="M50.954 56.929c.857 1.385-.35 4.468-3.623 9.248l-2.13.107-2.128.095c-7.989.327-14.038.26-18.148-.202l-1.141-.137c.961-.491 2.414-.973 3-1.434 1.33-1.044 8.162-4.178 7.144-2.568-.984 1.557-3.065 2.879-.616 2.915l.27-.001c2.863-.056 10.913-.74 13.18-3.043 2.267-2.304-1.864-4.918-2.208-5.578-.143-.274.51-.53 1.618-.675l.804.02c1.845.076 3.437.38 3.978 1.253Z"/>
    <path fill="#878787" d="M50.954 56.929c.857 1.385-.35 4.468-3.623 9.248-.188.303-1.67 1.64-.326-.958 1.344-2.599 1.724-4.217 1.63-5.242-.13-1.452-1.823-1.909-4.119-2.026l-1.018-.034c-3.023-.059-9.22.072-10.167-.18-.947-.254-1.116-.574-.725-.963.317-.315 2.988-.649 5.262-.94l1.452-.176c.24.04.48.073.718.098 2.385.244 9.63-.906 10.916 1.173Zm-18.715 2.858c1.53.007 2.05.735 2.062 1.208.01.44-.668 1.421-1.88 2.55l-1.311 1.179c-.673.621-1.282 1.246-1.54 1.78a70.35 70.35 0 0 1-3.774-.238c1.516-2.37 5.235-6.485 6.443-6.48Z"/>
    <path fill="#6E6E6E" d="M26.274 55.672c.357.156.063.715-.528 1.137l-.731.49c-.999.643-2.434 1.774-2.379 2.283.053.478.31.699 2.112.499l1.795-.235c2.099-.256 4.747-.489 5.92-.244 1.465.307 2.61 1.313 1.375 2.416-1.236 1.103-4.181 3.263-5.267 3.814-.471.24-.93.486-1.374.741-.734-.051-1.606-.104-2.244-.175l-1.292-.157c-6.566-.852-11.43-2.58-11.939-3.295-.36-.508-.36-1.609 0-3.303.38-.62.743-1.07 1.088-1.349l.34-.272c.68-.54 1.843-1.44 2.079-1.51.145-.042.466-.065.79-.082-.615.211-.817.346-.723.436.127.122.742.351 2.886.057l.394-.057c2.465-.379 7.212-1.408 7.698-1.194Zm-.386-1.262c.043.245-.453.635-1.644.719l-.312.014c-.406.009-1.051-.047-1.768.045l.843-.222c.243-.068.442-.128.583-.178.666-.237 1.296-.531 1.755-.748.33.06.524.26.543.37Z"/>
    <path fill="#ECECEC" d="M26.274 55.672c.357.156.035.494-.556.916l-.731.49c-1 .643-2.435 1.774-2.379 2.283.053.478.337.92 2.14.72l1.795-.235c2.099-.256 4.747-.489 5.92-.244 1.465.307 2.531 1.06 1.296 2.164-1.236 1.102-4.319 3.304-5.405 3.855-.47.24-.929.486-1.373.741a49.607 49.607 0 0 1-2.056-.185l-1.292-.157c-6.566-.852-11.402-2.359-11.91-3.074-.362-.508-.362-1.609 0-3.303.38-.62.742-1.07 1.087-1.349l.34-.272c.68-.54 1.843-1.44 2.079-1.51.145-.042.466-.065.79-.082-.615.211-.817.346-.723.436.127.122.742.351 2.886.057l.394-.057c2.465-.379 7.212-1.408 7.698-1.194Zm-.406-1.379c.043.245-.453.635-1.644.718l-.312.015c-.406.009-1.031.07-1.748.162l.843-.222c.243-.068.442-.128.583-.178.666-.237 1.296-.531 1.755-.748.33.06.504.144.523.253Z"/>
    <path fill="#DBDBDB" d="M15.886 59.336c3.273 1.002 4.878 1.44 10.01 1.611 2.918.098 9.34-1.57 8.17.49-.077.105-.18.215-.307.329-1.236 1.102-4.319 3.304-5.405 3.855-.47.24-.929.486-1.373.741a49.607 49.607 0 0 1-2.056-.185l-1.292-.157-1.248-.172c-5.924-.871-10.187-2.233-10.663-2.902-.36-.508-.36-1.609 0-3.303.38-.62.743-1.07 1.088-1.349l.408-.327c.369.44 1.113.85 2.231 1.229l.437.14Z"/>
    <path fill="#C5C5C5" d="m14.8 61.817 1.04.364c2.122.732 3.492 1.11 6.425 1.339l.893.057c2.047.107 4.819.1 8.317-.02l-.73.524c-.849.599-1.66 1.135-2.185 1.43l-.206.11c-.47.24-.929.486-1.373.741a49.607 49.607 0 0 1-2.056-.185l-1.292-.157c-4.448-.577-8.102-1.455-10.155-2.183l-.013-.036c-.515-1.475-.487-2.624 1.335-1.984Z"/>
    <path fill="#252525" d="M85.772 67.656c0 .315-.475 2.293-3.181 3.26-2.707.966-4.804 1.087-6.591 1.087H65.19c-.77 0-1.158.032-1.409-.742-.25-.774-4.056-1.44-5.073-1.173-1.016.267-24.56.65-25.059.684-.498.034-.75.743-.885.876-.134.132-.275.372-.794.354a76.477 76.477 0 0 0-2.407 0 1370.62 1370.62 0 0 1-5.466-1.38c-.82-.212-1.282-.439-1.605-.439-.322 0-.816.32-1.06.332-.242.012-1.887-.48-3.518-1.017-1.63-.538-3.63-1.35-4.994-2.308-1.365-.958-2.03-1.762-2.617-3.266.1-.225.125-.457-.102-.52-.042-.178-.042-.57 0-1.173.281.005.316-.096.102-.303-.008-.349.121-1.037.223-1.12.068-.055.183-.055.346 0-.06-.185-.137-.297-.234-.336-.144-.057-.082-.218.028-.433.11-.214.66-1.112.953-1.2.293-.088.681-.178.763-.125.08.054-.344.287-.335.397.008.11.815.58 2.114 1.016 1.299.435 2.62 1.156 2.971 1.801.352.646-.001 1.378-.498 1.647-.498.268-.922.474-.978.712-.055.239 1.24.42 3.275.757 2.034.336 13.841 1.82 15.787 1.932 1.945.11 32.908-.02 34.222-.8 1.315-.778 10.823-6.212 12.325-5.704 1.502.508 1.187 5.118 1.063 6.322-.124 1.203.49 1.255 1.408 1.162.918-.094 2.036-.615 2.036-.3Z"/>
    <path fill="#090909" d="m81.543 61.928.104.108c.142.16.398.471.717.869.162 1.488.033 3.218-.036 3.889-.116 1.123.41 1.243 1.228 1.178l.18-.016c.918-.094 2.036-.615 2.036-.3 0 .06-.017.179-.062.339a4.583 4.583 0 0 1-1.594.732c-.988.232-2.15.374-2.709.258l-.162-.049c-.46-.195-1.381-.157-2.239-.26l-.265-.016c-1.478-.047-7.01.162-6.696-1.07l.107-.43c.219-.911.195-1.189-.501-.784l-.16.097c-.965.61-4.007 2.747-4.66 3.098l-.986.513c-.473.264-.873.55-.816.796.098.423 1.806.46 2.663.175.857-.287 3.105-1.879 3.362-1.967.107-.036.054.036-.088.167l-.906.772c-.58.49-.99.96-.66 1.126.33.166 1.71.231 2.645-.273l.457-.264c.873-.53 1.885-1.26 2.06-1.26.095 0-.012.114-.19.265l-.716.563c-.348.273-1.279.823-1.035.969.244.145 1.934.313 3.055-.427 1.121-.74 1.592-1.53 1.603-1.37.011.159-.566.914-1.028 1.37-.462.456.529.709 1.309.329.693-.339 1.24-1.007 1.46-1.395l.066-.132c.152-.347.14.061-.08.499l-.152.259c-.264.411-.641.881-.434.867l.273-.035c.42-.07 1.122-.256 1.366-.68l.414-.756c.08-.138.137-.204.168-.154.07.114-.311 1.02-.441 1.294-.13.273.738.206.955-.096.174-.242.348-.68.446-.992l.057-.206c.054-.229.08-.087.024.3l-.058.332c-.124.625-.071.69.229.662.3-.027.692-.181.816-.666.124-.484.078-.84 0-.966-.079-.127.182-.143.21.078.03.222-.162 1.244 0 1.17l.436-.183c.172-.077.334-.161.374-.228.081-.135.215-.713.12-.837-.096-.125.086-.242.126-.102.04.14.078.51 0 .85-.034.149.008.226.096.247a5.99 5.99 0 0 1-1.44.73c-2.499.893-4.478 1.064-6.173 1.085l-11.228.003c-.65 0-1.027.023-1.28-.435a.782.782 0 0 1 .204-.415c.524-.55 4.031-2.824 5.74-3.908l.497-.313c1.39-.87 8.394-4.902 9.468-5.178 1.074-.276 1.39-.108 1.724.174Zm-55.54 4.747c.176.047-.547.421-.96.618l-.215.099c-.242.103-1.518.83-2.426 1.28l-.923.444c-.673.33-1.247.648-1.175.822.082.198.971.388 1.55.442-.166.068-.317.13-.421.135-.189.009-1.22-.285-2.435-.668a7.92 7.92 0 0 0 1.265-.492l.838-.403c1.118-.528 2.698-1.252 3.106-1.495.53-.315.642-.536.737-.618.095-.081.845-.222 1.06-.164Zm-3.631.379-1.939 1.028c-.261.136-.513.263-.73.366l-1.734.786a4.491 4.491 0 0 1-.296.121l-.065.039-.32-.11c-.125-.044-.251-.09-.378-.137a8.206 8.206 0 0 0 1.465-.406c.249-.102.597-.264.96-.44l1.702-.844c.28-.124 1.383-.745 1.646-.782.236-.034.167.11-.311.379Zm-2.605-.3c.067.078-.477.427-1.048.716l-.379.18c-.678.302-2.001 1.035-2.3 1.077a.615.615 0 0 0-.121.03c-.195-.078-.39-.161-.584-.247.67-.174 1.784-.62 2.338-.86l.388-.176c.707-.33 1.638-.8 1.706-.72Zm-3.885.193-.04.032c-.238.168-.594.587-1.11.672-.227.037-.596.056-.942.08a7.93 7.93 0 0 1-.473-.277c.724-.006 1.415-.1 1.62-.153l.234-.077c.342-.129.76-.33.711-.277Zm-2.922-3.293.144.06c.518.178-.267.09-.876-.178-.608-.268-1.684-.992-1.925-1.08a.162.162 0 0 0-.117-.004l.015-.221c.238.004.3-.067.184-.214.361.33 1.95 1.346 2.575 1.637Zm-2.15-3 2.466 1.352c.591.317.978.517 1.162.598l.572.24c.36.162.697.342.64.4-.087.086-.531-.048-.918-.186-.387-.139-3.795-1.929-3.999-1.977-.152-.036-.36.35-.422.627.03-.36.132-.832.215-.9.068-.055.183-.055.346 0a1.027 1.027 0 0 0-.062-.154Z"/>
    <path fill="#272727" d="M38.527 59.407c.123.04.046.407-.078.772-.123.364-.026 1.418 1.4 1.097 1.426-.322 6.72-1.94 6.99-1.94.272 0 .407.144-.312.433-.719.29-5.59 2.548-6.987 2.79-1.397.243-2.131.053-2.278-.963-.147-1.017 1.143-2.229 1.265-2.189Z"/>
    <path fill="#E3E3E3" d="M85.772 67.656c0-.447-.277-4.28-.895-6.23-.62-1.95-1.435-4.51-1.731-4.778-.297-.268-.666-.408-1.204-.123-.539.284-5.722 2.89-9.665 3.707-3.942.817-13.89 2.948-17.3 3.484s-13.748 1.483-15.284 1.518c-1.536.036-10.736.48-12.185.396-1.45-.086-9.358-1.391-10.81-1.502-1.453-.11-4.165.07-4.92.277-.755.207-.654.722-.327 1.109.328.387 1.263 1.218 2.632 1.125 1.37-.094 3.914-.676 6.106-.584 2.193.092 6.738.236 7.403.527.666.292.8.526.435 1.166-.366.64-1.507 1.307-1.677 1.33-.17.02-.703-.053-1.712.312-1.008.364-1.371.386-1.762.554-.26.111-.432.183-.517.214 1.766 1.23 3.655 1.844 5.668 1.844 1.94 0 3.003.02 3.31-.156.305-.176.577-.996.633-1.1.055-.105.853-.16.947-.099.095.062.473.64.703.727.23.088 22.117-.302 22.425-.325.308-.023 1.658-.252 1.914-.303.257-.05.123-.3.298-.308.175-.009 2.404-.071 2.55 0 .147.071 2.739 1.063 2.919 1.147.18.083.229.043.27-.21.042-.255.207-.618.678-.937.47-.319 7.622-4.903 9.689-6.033 2.067-1.13 4.767-2.604 5.4-2.742.632-.138 2.066-.059 1.895 1.702-.17 1.76-.565 4.444-.32 5.052.246.608 1.425.465 2.686.148 1.26-.317 1.748-.46 1.748-.909Z"/>
    <path fill="#C6C6C6" d="M23.755 70.032c.354.008.69-.006 1.005-.04.335.07.304.276 1.165.533 1.118.335 2.597.309 3.656.171l.286-.044c.848-.158 1.627-.123 1.484.025-.096.1-.304.385-.624.856.41-.47.791-.87 1.285-.89.04-.001.081.011.12.032l-.097.03-.065.04-.144.348c-.12.281-.299.643-.49.753-.235.135-.918.155-2.105.157h-1.204c-2.013 0-3.902-.615-5.668-1.845l.517-.214c.232.05.525.08.879.088Z"/>
    <path fill="#777" d="M22.53 70.273c1.854.805 3.252 1.242 4.195 1.312l.914.047c1.394.05 2.973.018 3.026-.023l.062-.076c.41-.47.791-.87 1.285-.89.04-.001.081.011.12.032l-.097.03-.065.04-.144.348c-.12.281-.299.643-.49.753-.235.135-.918.155-2.105.157h-1.204c-1.83 0-3.557-.509-5.183-1.525l-.313-.205Z"/>
    <path fill="#B2B0B0" d="M27.95 68.052c-.364.461-1.062 1.015-1.361 1.196l-.548.294c-.394.198-1.01.44-1.828.454a6.479 6.479 0 0 1-1.247-.086l.25-.083c.264-.078.59-.152 1.132-.336l.29-.101c1.009-.365 1.542-.291 1.712-.313.17-.022 1.31-.688 1.677-1.329.061-.107.109-.204.142-.29a.966.966 0 0 1-.22.594Z"/>
    <path fill="#CECCCC" d="m13.855 64.68-.114-.073c-.736-.423.435-.22 1.238-.177l.145.006c.795.021 5.296.745 8.306 1.196 3.01.451 5.682.376 6.93.43 1.134.049-1.213.639-1.846.84l-.134.049a.258.258 0 0 1-.232.001c-.094-.137-.279-.249-.556-.37a1.342 1.342 0 0 0-.246-.07l-.201-.039c-.853-.28-5.784-.472-7.86-.481l-.801.006c-1.366.027-2.84.126-3.77.2l-.816.069c-.628.06-1.135-.003-1.958-.712-.767-.662-.158-.787.327-.751l.596.063c.595.054 1.35.08.992-.187Z"/>
    <path fill="#CDCCCC" d="m65.13 61.727 6.68-1.399.684-.077c5.17-.52.129 1.492-2.796 2.168l-3.177.7a1172.36 1172.36 0 0 1-9.936 2.067l-.803.165.179-1.801 1.888-.351c2.096-.403 4.744-.945 7.282-1.472Z"/>
    <path fill="#B8B8B8" d="m63.597 63.156-3.49.733c-1.56.322-2.983.608-4.267.858l.12-1.197 1.889-.351 2.556-.504c1.51-.303 3.14-.639 4.726-.968l5.372-1.125c-.52.7-3.243 1.74-6.906 2.554Z"/>
    <path fill="#C8C8C8" d="M82.224 56.409c.39-.113.68.02.922.24.296.267 1.112 2.827 1.73 4.776.62 1.95.896 5.784.896 6.231 0 .448-.488.592-1.748.909-1.26.317-2.44.46-2.685-.148-.246-.608.148-3.292.32-5.052.17-1.76-1.264-1.84-1.897-1.702-.372.08-1.459.625-2.712 1.289l-2.687 1.453c-2.067 1.13-9.218 5.714-9.69 6.033-.403.273-.582.58-.65.821l-.026.115c-.035.212-.075.275-.192.242l-2.998-1.178c-.146-.071-2.375-.009-2.55 0-.175.009-.04.257-.298.308l-1.24.21c-.198.031-.38.058-.514.075l-.16.018.013-.372c.116-2.51.832-5.613 1.111-6.002 2.96-.158 8.75-1.057 11.515-1.733 2.764-.676 9.606-2.868 11.998-4.277 1.49-.877 2.034-1.591 1.635-2.143l-.093-.113Z"/>
    <path fill="#B8B8B8" d="M83.146 56.648c.296.268 1.112 2.828 1.73 4.777.62 1.95.896 5.784.896 6.231 0 .448-.488.592-1.748.909-1.26.317-2.44.46-2.685-.148-.246-.608.148-3.292.32-5.052a2.172 2.172 0 0 0-.059-.825c.068.158.107.352.117.583l.007.481c-.002 1.327-.102 3.92.456 4.312.415.29 1.849.016 2.301-.181 1.213-.528-.642-4.577-1.486-6.685-.431-1.078-1.625-1.729-2.775-2.135.171-.085.324-.169.462-.25 1.49-.877 2.034-1.591 1.635-2.143l-.093-.113c.39-.113.68.02.922.24Z"/>
    <path fill="#D3D3D3" d="M65.603 67.914c1.334-.1 2.555-.235 3.663-.404l-4.592 2.928c-.404.273-.583.58-.652.821l-.025.115c-.035.212-.075.275-.192.242l-2.998-1.178c-.146-.071-2.375-.009-2.55 0-.175.009-.04.257-.298.308l-1.24.21-.514.075-.16.018.013-.372c.073-1.578.383-3.392.673-4.617l.663.231c2.01.68 5.808 1.804 8.21 1.623Z"/>
    <path fill="#F2F2F2" d="m76.026 63.506-1.663.9c-2.067 1.13-9.218 5.713-9.69 6.032-.346.235-.527.494-.615.716a1.36 1.36 0 0 1 .549-.869l.457-.313c1.692-1.13 7.36-4.75 10.962-6.466Z"/>
    <path fill="#9E9E9E" d="M56.77 68.979c.702-.598 1.273.074 2.208.551.934.477 1.54.701 2.186 1.028-.312-.083-.704-.125-1.179-.126-.71 0-1.612 0-1.728.006-.175.009-.04.257-.298.308l-1.24.21-.514.075-.16.018.013-.372c.009-.19.021-.384.036-.58.147-.489.373-.86.676-1.118Z"/>
    <path fill="#8B8B8B" d="M58.18 69.51c.241-.027.556.004.944.092l-.146-.072c.934.477 1.54.701 2.186 1.028-.312-.083-.704-.125-1.179-.126l-1.728.006c-.175.009-.04.257-.298.308l-1.24.21-.19.03c.187-.54.797-1.382 1.651-1.477Z"/>
    <path fill="#767575" d="M58.604 69.896c.258-.028.905.079 1.564.2.354.159.67.297.996.462-.312-.083-.704-.125-1.179-.126l-1.728.006c-.175.009-.04.257-.298.308l-.736.125a.17.17 0 0 1 .017-.078c.157-.348.887-.846 1.364-.897Z"/>
    <path fill="#141414" d="M32.512 56.884c.072.486 2.009.669 3.308.519 1.299-.15 5.917-.806 8.659-.668 2.742.137 5.53.052 4.886 3.565-.644 3.513-2.88 6.271-6.035 8.214-3.156 1.942-6.08 2.723-7.337 2.837-.838.076-1.63.084-2.373.023-.37-.43-.58-.645-.626-.642a58.53 58.53 0 0 1-1.024.014c.179.444.36.734.542.869.274.202.635.38 1.488.38s21.208.017 21.665 0c.457-.018 1.038-.667 1.07-.91.031-.244 1.228-.273 1.27-.48.024-.093-.574-.183-1.06 0-.484.184-.825.513-1.174.367-.348-.146-.133-1.097-.021-1.89.111-.794 1.471-5.103 2.289-6.484.818-1.381 5.215-8.372 6.163-9.781.948-1.41 2.248-4.285-1.71-4.53-3.96-.246-7.507.79-14.452 2.8-6.944 2.009-11.87 3.5-12.98 4.095-1.109.596-2.62 1.216-2.548 1.702Z"/>
    <path fill="#494949" d="m45.374 51.862 5.644-1.632c5.068-1.441 8.123-2.151 11.473-1.943 3.836.238 2.736 2.943 1.801 4.393l-.44.67-.152.233.346-.676a39 39 0 0 0 .158-.32c.897-1.835.64-3.104-.146-3.62l-.205-.125c-.813-.45-2.426-.77-8.854.692l-1.652.39c-7.543 1.832-18.426 5.161-19.761 6.205-.75.586-.738 1 .038 1.24-.616-.09-1.078-.253-1.112-.485-.04-.278.435-.6 1.057-.935l1.491-.767c.962-.516 4.79-1.704 10.314-3.32Z"/>
    <path fill="#353535" d="M61.823 48.66c1.75.607.738.604-2.827 2.242-3.564 1.638-10.598 5.493-12.245 5.345-1.647-.148-8.771.305-10.947.697-2.176.392-3.359-.546.667-1.924 4.026-1.379 23.603-6.967 25.352-6.36Z"/>
    <path fill="#272626" d="m54.293 51.418 2.535-.999c3.46-1.382 4.966-1.564 5.696-1.462.568.37-.646.621-3.528 1.945-3.564 1.638-10.598 5.493-12.245 5.345-.794-.071-2.86-.003-5.03.13l.495-.232c2.157-.968 7.172-2.815 12.077-4.727Z"/>
    <path fill="#454444" d="M44.71 67.914c6.942-.742 10.618-1.14 11.028-1.191.233-.03.38-.638.451-.989.154-.763-7.498-.833-7.702-.907-.329-.119-.553-.355-1.204.557-.433.607-1.291 1.45-2.573 2.53Z"/>
    <path fill="#353535" d="M47.555 65.04c.45-.498.654-.313.932-.213l.152.016c1.105.071 7.693.182 7.55.891l-.067.299c-.083.32-.21.668-.384.69l-1.565.174-1.184-.409c-.602-.199-1.274-.398-1.883-.51l-.709-.137c-.779-.157-1.767-.374-2.965-.65l.123-.151Z"/>
    <path fill="#272727" d="m48.487 64.827.152.016 2.726.117c2.226.11 4.916.319 4.824.774l-.067.299a2.42 2.42 0 0 1-.164.47l-2.54-.55c-1.871-.395-3.185-.649-3.94-.761l-.955-.152c-.296-.05-.57-.1-.82-.15.352-.305.539-.151.784-.063Z"/>
    <path fill="#303030" d="M48.302 64.305c5.49-.776 8.39-1.175 8.7-1.199.464-.035 2.915-4.397 3.071-4.812.156-.415-10.213 3.352-10.439 3.562-.15.14-.595.956-1.332 2.449Z"/>
    <path fill="#232323" d="M49.634 61.856c.226-.21 10.595-3.977 10.44-3.562l-.08.17c-.06.12-.147.286-.255.485l-11.052 4.585.445-.856c.253-.472.42-.746.502-.822Z"/>
    <path fill="#303030" d="M44.234 68.447c-2.788 1.297-4.167 2.05-4.138 2.256.043.31 14.18.128 14.501-.077.214-.137.628-1.301 1.242-3.494l-11.605 1.315Z"/>
    <path fill="#353535" d="M39.995 52.412c.191-.149.139-.44-.395-.918-.534-.478-2.682-2.588-2.803-2.79-.12-.202.028-.393-.247-.242-.274.15-1.728 1.13-1.85 1.182-.123.051-.224.014 0 .292.223.277 1.163 1.528 1.617 2.036.453.508.815 1.124.986 1.133.17.01 2.5-.544 2.692-.693ZM42.187 51.874c-.183-.003-.855-1.212-1.062-1.466-.206-.254-1.528-2.301-1.685-2.408-.156-.107 1.96-1.056 2.146-1.054.186.002.678.567.894.928.216.361 2.012 2.814 2.183 3.012.172.198-.167.23-.337.225-.17-.005-.95.29-1.393.455-.441.165-.564.311-.746.308ZM46.927 50.411c-.144-.05-.303-.45-.521-.733-.219-.283-.893-1.292-1.155-1.678-.261-.386-.496-1.463-.735-1.525-.238-.062.025-.468.49-.636.466-.168.922-.75 1.148-.66.226.091.762.493 1.177 1.19.414.697 1.92 2.918 2.047 3.041.127.123-.056.25-.269.268-.212.018-.83.228-1.214.34-.385.114-.825.444-.968.393ZM51.472 48.858c-.151.003-.199-.231-.251-.356-.053-.124-1.796-2.524-2.067-2.823-.271-.3-.577-.907-.574-1.06.003-.152 1.83-.986 1.983-.945.152.04 1.448 1.131 1.823 1.618.375.486 1.267 1.96 1.37 2.174.103.213.059.456 0 .534-.058.078-1.41.46-1.733.632-.324.172-.4.223-.551.226Z"/>
    <path fill="#D7D7D7" d="m36.939 50.323.985.001-.047.409-.545.741h.545v.4H36.9v-.4l.46-.774-.464-.003z"/>
    <path fill="#D7D7D7" fill-rule="nonzero" d="M42.594 49.38c.124.314.072.918-.036 1.166-.108.249-.745.314-.852-.016a1.875 1.875 0 0 1 .014-1.111c.117-.35.75-.352.874-.038Zm-.222.191c-.042-.199-.353-.206-.424-.004-.07.201-.043.552-.01.772.033.22.32.227.394.055.073-.171.083-.624.04-.823ZM47.324 47.71c.124.314.071.917-.037 1.165-.107.249-.744.314-.852-.016a1.875 1.875 0 0 1 .014-1.111c.117-.35.75-.352.875-.038Zm-.222.19c-.043-.199-.353-.206-.424-.004-.071.202-.044.552-.01.772.033.22.32.227.393.056.074-.172.083-.625.04-.824ZM51.316 47.608l-.354.001-.053-1.626.397-.022.312.791.196-.816.364-.031.201 1.613-.31.018-.108-.59-.148.548h-.263l-.261-.575z"/>
    <path fill="#D6D6D6" d="M43.348 67.975c-1.758.445-3.512.963-5.712 1.014-2.2.05-8.246-.033-9.732 0-1.485.033-1.296.958-.565 1.09.73.133 5.177-.05 6.52 0 1.342.052 6.031-.243 6.487-.316.456-.072 4.76-2.233 3.002-1.788Z"/>
    <path fill="#000" fill-rule="nonzero" d="m40.1 55.743-.007-.2 2.022-.07c5.91-.182 7.684.053 8.725 1.443 1.197 1.6.581 4.613-.87 6.676-.277.394-.627.83-1.054 1.318l-.557.621-2.533 2.65c-.047.05-.086.09-.114.122-.638.697-1.725 1.438-3.26 2.226l-.528.264-.088-.18c1.617-.789 2.785-1.53 3.505-2.218l2.388-2.483.704-.76c.577-.638 1.033-1.19 1.374-1.675 1.406-2 2.005-4.928.873-6.44-.917-1.225-2.52-1.507-7.465-1.394l-3.116.1Z"/>
    <path fill="#000" fill-rule="nonzero" d="m42.636 54.774-.015-.2 1.987-.138c3.54-.225 5.876-.242 7.012-.05 2.706.457 3.6 2.413 1.543 5.985l-.77 1.32a42.343 42.343 0 0 1-1.287 2.065c-.11.16-.275.385-.42.575l-.28.368c-.218.358-1.899 2.236-2.703 3.032-.845 1.14-1.988 2.151-3.988 3.238l-.519.274-.091-.178c2.299-1.179 3.54-2.242 4.447-3.464l.362-.37c.795-.83 1.947-2.123 2.26-2.549l.082-.122.499-.655.185-.26.299-.455a72.788 72.788 0 0 0 1.75-2.918c1.988-3.453 1.165-5.256-1.402-5.689-1.183-.2-3.721-.168-7.606.095l-1.345.096Z"/>
    <path fill="#000" fill-rule="nonzero" d="m46.824 53.507-.032-.197 1.335-.209c3.202-.475 5.39-.614 6.574-.414 2.597.438 3.26 2.229 1.177 5.846l-2.017 3.474-1.146 1.917-.142.231c-.285.469-1.892 2.455-2.557 3.113l-.395.544a10.518 10.518 0 0 1-2.483 2.434c-.316.223-.654.437-1.013.642l-.556.301-.09-.178c.563-.29 1.077-.6 1.544-.929a10.318 10.318 0 0 0 1.875-1.684l.286-.344.277-.36c.088-.12.349-.484.404-.557.664-.658 2.261-2.632 2.538-3.086l.851-1.411 1.487-2.538.964-1.668c2.017-3.505 1.413-5.137-1.038-5.55-1.157-.195-3.331-.057-6.516.416l-1.327.207Z"/>
    <path fill="#000" fill-rule="nonzero" d="m51.191 52.028-.034-.197 1.257-.21c2.414-.381 4.214-.534 5.403-.459 2.617.167 3.175 1.428 1.286 4.955a73.54 73.54 0 0 1-.66 1.205 96.404 96.404 0 0 1-2.658 4.447l-1.37 2.122c-.365.6-1.679 2.377-2.372 3.141l-.173.182a42.07 42.07 0 0 1-.826 1.137 11.28 11.28 0 0 1-1.457 1.555c-.407.359-.846.69-1.323.995l-.489.295-.099-.174a10.632 10.632 0 0 0 1.78-1.266c.538-.474.999-.975 1.43-1.528l.625-.852c.13-.18.22-.31.209-.293.564-.56 1.887-2.324 2.405-3.108l1.37-2.122.12-.191a96.208 96.208 0 0 0 2.654-4.438c.226-.404.446-.805.658-1.201 1.824-3.407 1.339-4.505-1.123-4.661-1.27-.08-3.262.105-5.974.557l-.639.11Z"/>
    <path fill="#000" fill-rule="nonzero" d="m56.169 63.617-.047.07c.021-.06 1.837-3.215 3.07-5.272l.768-1.262.33-.53c.367-.583.715-1.123 1.042-1.615l.627-.919c2.098-2.986 1.609-4.315-.92-4.35-1.343-.02-2.999.194-4.965.642l-.752.18-.048-.195c2.315-.573 4.237-.85 5.769-.828 2.61.037 3.222 1.455 1.296 4.35l-.216.316a59.77 59.77 0 0 0-1.663 2.526l-.947 1.538-3.778 6.477c-.176.293-.352.583-.471.772l-.175.272-.17.255c-.32.473-.597.834-.816 1.05-.848 1.144-2.039 2.475-3.281 3.535l-.535.436-.123-.158c1.414-1.098 2.82-2.639 3.788-3.944a6.04 6.04 0 0 0 .62-.767l.35-.516.396-.631c.337-.555.79-1.326.85-1.432ZM54.537 68.396a.1.1 0 0 1 .024.139c-.312.438-.865 1.043-1.66 1.818l-.74.706-.137-.147c1.191-1.112 1.983-1.944 2.374-2.493a.1.1 0 0 1 .09-.042l.05.019Z"/>
    <path fill="#66253A" d="M77.604 50.238c.088-.157.183-.414-.033-.538-.216-.125-.403-.062-.518.063-.116.126-.096.41.036.503.132.093.428.129.515-.028Z"/>
    <path fill="#141313" d="m75.031 50.401.74.001-.349.79h.549v-.676c.562-.006.848-.006.86 0 .012.006.072.069.181.188v.57h-.138l-.043-.498-.285-.072-.004.617h-.13l-.014-.617h-.242v.687l-1.087.012v-.247l.375-.543-.413-.01v-.202ZM75.389 51.671v.182h.464v-.182zM76.341 51.661v.182h.465v-.182z"/>
  </g>
</svg>
