<svg xmlns="http://www.w3.org/2000/svg" viewBox="0 0 96 96">
  <defs>
    <path id="a" d="M0 0h96v96H0z"/>
  </defs>
  <g fill="none" fill-rule="evenodd">
    <path fill="#DCD9E6" d="M55.725 34.024c.198.24 1.144 1.874 1.408 2.455l.247.594c.329.846.771 2.212.685 3.12.056.357 3.475 2.958 8.786 5.238 4.58 2.204 5.257.45 5.594 0l.16-.197c.704-.825 3.143-3.396 4.254-3.133a6.905 6.905 0 0 1 2.29 1.006l.119-.893c.275-1.822.673-2.902 1.193-3.24.9-.586 2.902-.941 3.846.737.898 1.594-1.015 3.557-1.505 4.279l-.868 1.447c-.19.311-.41.666-.657 1.064.508 2.454.85 4.748 1.03 6.882a.994.994 0 0 1-.226.394l.226.736.2.197.52 3.996-14.489 4.84a4.887 4.887 0 0 1-.498.144l-11.27-.315-22.368 2.861-21.13-1.613-2.579-1.248 1.062-4.333.289-.591c.406-.8.687-1.207.845-1.222.269-.025 2.626-.696 3.432-.782l.157-.009c.589.013 6.707-1.051 8.56-1.925.822-.154 1.68-.848 2.125-1.26l.59-.583c.353-.339.821-.747 1.036-.75l.075.024c.21.192 1.241-.812 1.82-.837.578-.025 1.074.273 1.481 0l.528-.342c.527-.332 1.244-.755 1.587-.838l.122-.013c.312.032.874-.683 1.292-.998l.15-.097c.422-.222.825-1.144 1.032-1.127.207.016 1.396-.437 1.595-.676.198-.238.168-.75 1.172-1.308.67-.372 1.271-.62 1.805-.744.326-.338.595-.56.808-.67.213-.108.512-.175.899-.201l.234-1.381c.02-.143.032-.242.035-.298.013-.25 1.746-1.998 1.989-2.221.242-.224 2.027-.836 2.22-1.041l1.065-.97c1.336-1.192 3.518-3.087 4.136-3.425.888-.487 2.692-.974 2.89-.733Zm27.82 7.2c.644-1.62-1.24-2.324-2.138-1.876-.823.412-1.228 1.877-1.342 2.606l-.024.18c-.036.337-.136.756-.3 1.255l-.134.39 1.335 2.362.204-.683c.194-.61.357-1.008.489-1.191l.57-.722a9.796 9.796 0 0 0 1.34-2.321Z"/>
    <path fill="#EAE9EF" d="M55.725 34.024c.198.24 1.144 1.874 1.408 2.455l.247.594c.329.846.771 2.212.685 3.12.056.357 3.475 2.958 8.786 5.238 3.812 1.835 4.92.927 5.38.311l1.229.418c2.551.875 4.373 1.564 5.468 2.068 2.342 1.077 1.866 4.906.68 5.292-3.506.57-8.341 7.156-8.41 7.595-.069.439-4.173.756-5.955-.114-1.783-.87 3.541-5.386 5.955-7.732 2.29-2.226-1.867-1.078-4.878.086l-.477.188c-3.02 1.219.158-1.708 1.028-3.474.87-1.767-2.546-1.532-6.574-3.587-4.027-2.055-2.72-3.752-3.175-4.572-.454-.82-2.306-2.497-5.113-2.828-2.808-.331-7.54 5.248-6.71 5.644.83.396.617 2.483-.331 3.546-.95 1.063-2.092 1.706-7.684 4.885-4.358 2.817-7.853 4.655-10.486 5.514-2.023 1.416-9.903.145-11.199.046-.764-.059-1.527-.585-2.287-1.577l1.75-.44c.506-.121.977-.223 1.26-.253l.156-.009c.589.013 6.707-1.051 8.56-1.925.822-.154 1.68-.848 2.125-1.26l.59-.583.322-.296c.278-.243.56-.452.714-.454l.075.024c.21.192 1.241-.812 1.82-.837.578-.025 1.074.273 1.481 0l.528-.342.485-.297c.421-.249.857-.482 1.102-.54l.122-.014c.312.032.874-.683 1.292-.998l.15-.097c.422-.222.825-1.144 1.032-1.127.207.016 1.396-.437 1.595-.676.198-.238.168-.75 1.172-1.308.67-.372 1.271-.62 1.805-.744.326-.338.595-.56.808-.67.213-.108.512-.175.899-.201l.234-1.381.035-.298c.013-.25 1.746-1.998 1.989-2.221.242-.224 2.027-.836 2.22-1.041l1.065-.97 1.203-1.06c1.185-1.032 2.48-2.117 2.933-2.365.888-.487 2.692-.974 2.89-.733Z"/>
    <path fill="#E2E0EC" d="m68.102 52.718 5.617-6.468 1.39.486c1.704.607 2.976 1.104 3.819 1.492 2.342 1.077 1.866 4.906.68 5.292-3.506.57-8.341 7.156-8.41 7.595-.069.439-4.173.756-5.955-.114-1.783-.87 3.541-5.386 5.955-7.732 1.856-1.805-.524-1.392-3.096-.551Z"/>
    <path fill="#C7C7CB" fill-rule="nonzero" d="m47.8 38.998 1.058.01 1.223.027.67.026c.508.026.894.06 1.149.103.708.12.76.64.16 1.027-.41.264-1.21.608-2.613 1.045-1.82-.595-3.113-.868-3.857-.824a.3.3 0 0 1-.267-.133l.09-.086c.089-.083.387-.217.738-.365.828.07 1.952.351 3.288.84l.719-.266.6-.239c.27-.113.496-.215.677-.307l.219-.122-.416-.04-.538-.034a43.095 43.095 0 0 0-1.026-.036l-1.402-.024-1.542-.013.407-.172c.248-.11.44-.204.496-.263l.167-.154Z"/>
    <path fill="#D4D2DC" d="m75.127 42.821 2.742 1.1 3.937 5.44c.226 1.399.393 2.74.5 4.022a.994.994 0 0 1-.225.394l.226.736.2.197.52 3.996-4.316 1.443a.422.422 0 0 1 .02-.159c.378-1.29.608-3.391.197-5.721-.412-2.33-.998-3.005-1.94-4.298-.746-1.026-3.922-2.92-5.377-3.69.5-.26.696-.665.834-.85l.16-.197.33-.37c.525-.576 1.373-1.433 2.192-2.043Z"/>
    <path fill="#BEBACB" d="M84.307 39.71c.898 1.595-1.015 3.558-1.505 4.28l-.868 1.447c-.19.311-.41.666-.657 1.064.508 2.454.85 4.748 1.03 6.882a.994.994 0 0 1-.226.394l.226.736.2.197.52 3.996-6.786 2.266-.103.03c2.52-1.872 4.02-2.96 4.5-3.268l.05-.031c.628-.388-1.19-5.827-1.56-8.142-.369-2.316-4.893-3.224-5.693-3.657-.801-.434 2.532-2.932 3.634-2.76.12.018.304-.31.554-.812.535.19 1.044.45 1.526.775l.119-.893c.275-1.822.673-2.902 1.193-3.24.9-.586 2.902-.941 3.846.737Zm-2.9-.362c-.823.412-1.228 1.877-1.342 2.606l-.024.18c-.036.337-.136.756-.3 1.255l-.134.39 1.335 2.362.204-.683c.194-.61.357-1.008.489-1.191l.57-.722a9.796 9.796 0 0 0 1.34-2.321c.644-1.62-1.24-2.324-2.138-1.876Z"/>
    <path fill="#CBC9D2" d="M79.128 46.343c.651 1.045 2.045 5.808 2.123 6.47l.06.608c.112 1.292.278 3.936-.04 4.294-.256.29-1.485 1.056-3.687 2.299l-.022-.067 2.231-1.627c.229-.164.419-.297.57-.402l.324-.215c.629-.388-1.19-5.827-1.559-8.142-.369-2.316-4.893-3.224-5.693-3.657-.418-.227.29-1.015 1.219-1.693l1.112.403c1.597.601 3.073 1.264 3.362 1.729Z"/>
    <path fill="#CCCAD5" d="M52.009 46.141c.302-.174.98-.307 1.6-.198l.23.055c1.332.352 7.078 2.187 9.025 3.23 2.02 1.08.652 4.175-.217 5.653l-.427.721c-.458.795-1.152 2.063-2.08 3.803l-1.413 2.666-19.393 2.863-2.822-2.478c-2.171-1.932-3.304-3.022-3.398-3.272-.193-.512-.09-2.32 1.055-2.978l17.84-10.065Z"/>
    <path fill="#DAD7E2" d="m55.465 50.969 1.636-.385c6.1-1.379 6.24-.15 6.136.92-.11 1.125-21.748 7.94-26.37 8.314-3.082.249-3.981-.927-2.698-3.527l.395-.308 9.253-5.22.672.185c2.02.52 5.834 1.16 10.976.02Z"/>
    <path fill="#D3D1DB" d="m72.068 50.924-4.745 6.651-7.566 5.274-26.91 3.269-10.877-.832-5.677-.543-5.499-1.775.961-3.926.289-.591c.406-.8.687-1.207.845-1.222l.243-.049.13-.03c.12 1.164.592 1.763 1.418 1.795l.661.013c2.611.026 10.395-.049 10.91-.013.54.038 3.337 1.436 4.771 2.352l.504.334.266.162c1.238.704 3.322 1.142 11.707-.102l1.306-.2c2.8-.438 7.942-1.362 11.303-2.52 3.539-1.219 8.859-3.901 15.96-8.047Z"/>
    <path fill="#C9C5D7" d="M16.924 61.564c5.24.408 8.84-.443 10.78.737 1.292.786 2.253 1.79 2.882 3.013l-.945.557-16.37-1.248-2.578-1.248 1.062-4.333.157-.317c.302 1.656 1.973 2.602 5.012 2.839Z"/>
    <path fill="#ACACBB" fill-rule="nonzero" d="m51.668 40.29-.317.064-.85.5c-2.676 1.587-3.745 2.4-3.71 3.008.038.7.708.806 2.502.854l.733.01c.622.001 1.24-.014 1.603-.033.95-.05 4.369-1.869 4.2-2.844-.14-.804-1.433-1.202-4.161-1.559Z"/>
    <path fill="#DCD9E6" d="M47.29 43.834c-.02-.346 1.418-1.362 4.313-3.048 2.41.315 3.654.698 3.733 1.149.117.675-3.332 2.238-3.733 2.259-.4.02-4.285.16-4.314-.36Z"/>
    <path fill="#2A2B72" d="M48.073 43.507c-.029-.52 3.163-2.192 3.582-2.244.42-.052 2.383.008 2.5.684.118.676-2.631 1.929-3.032 1.95-.4.021-3.021.13-3.05-.39Z"/>
    <path fill="#B4B4BD" fill-rule="nonzero" d="m45.544 42.902.655.46-.644.933c-.181.268-.328.494-.442.677-.089.143-.213.457-.378.944l-.499 1.548-.148.428c-.044.117-.082.21-.118.283-.152.311-.621.65-1.435 1.122l-.78.431-1.388.722c-.215.117-.421.139-1.079.087l-1.033-.095c-.943-.09-1.5-.09-1.587-.024l-.175.115a9.06 9.06 0 0 1-.289.165l-4.02 2.12c-.817.443-1.307.733-1.46.871l-.142.148c-.42.476-1.337 1.753-2.717 3.793l-.655.974c1.266.454 3.775 2.442 7.63 6.016l.494.46-.546.584-1.398-1.29c-3.417-3.113-5.638-4.813-6.568-5.054l-.257-.052c-.73-.114-2.136-.118-4.67-.04l-4.44.141c-1.27.029-1.944.017-2.503-.038-1.427-.141-2.213-.821-2.269-1.947.084-.099.152-.15.206-.155.072-.006.293-.06.593-.135-.067.888.412 1.329 1.549 1.44l.587.039c.556.02 1.313.013 2.533-.022l4.647-.15c1.73-.043 2.835-.037 3.561.036l1.14-1.693c.43-.632.81-1.182 1.142-1.652-1.758.22-2.936.017-3.686-.494l-.04-.03c.043-.018.084-.037.122-.055.292-.054.588-.177.87-.33.712.248 1.8.284 3.389 0 .419-.566.715-.926.891-1.086.207-.188.7-.486 1.552-.95l3.42-1.795c.42-.221.717-.384.886-.484l.141-.09c.195-.146.456-.208.888-.21l7.14-4.56c.079-.197.15-.347.22-.458l.28-.437c.109-.164.232-.347.37-.55l.46-.661Zm14.44-.592.313.736-6.152 2.643 1.762.519c2.082.625 3.54 1.097 4.376 1.416 1.887.72 3.32 1.577 3.992 2.61l14.021-3.705-5.914.703-.094-.794 8.266-.982.388.685.204-.683.024-.076.425-.049.066.548-.384.62c.066.319.13.635.19.948-.746 1.296-2.031 2.785-4.035 4.185l-4.154 3.096a183.974 183.974 0 0 1-5.534 3.653l-.728.443c-1.219.713-2.985 1.9-5.322 3.975l-1.316-.947c1.966-1.721 4.2-2.913 5.36-3.634l.735-.443c1.85-1.14 5.666-3.74 9.732-6.58 1.826-1.276 3.413-2.74 4.33-3.95l-17.164 7.656c-.147.262-.308.542-.482.843l-2.761 4.629c-.581.991-.876 1.538-1.055 1.954l-.146.384-.76-.25.073-.206c.181-.486.468-1.042 1.16-2.223l2.574-4.31c1.212-2.063 1.796-3.224 1.9-3.846.222-1.319-1.356-2.544-3.876-3.506l-.73-.264c-1.037-.357-2.6-.844-4.688-1.46l-1.587-.464-1.706.733-1.13.494C46.28 49.107 35 55.613 33.828 56.853c-1.071 1.133-1.059 1.694.337 2.921l1.206 1.029c2.139 1.838 4.417 3.926 4.802 4.48l.043.071-.392.188-.406.054c-.523-.614-3.42-3.23-5.507-4.985-1.982-1.666-2.138-2.748-.665-4.307 1.268-1.342 12.619-7.89 16.589-9.626l4.425-1.918 5.723-2.45ZM16.58 61.978l3.166.159c4.176.237 6.316.326 7.956 2.767l-2.184.494c-1.096-1.698-1.87-2.27-6.351-2.49l-2.065-.095c-2.52-.127-4.483-.651-5.885-1.584l.205-.834c1.175.875 2.893 1.406 5.158 1.583ZM52.012 47.6c4.014.337 9.601 2.649 9.604 4.907.001 1.619-2.043 4.438-5.75 9.712l-1.645.407c3.605-5.13 6.131-8.523 6.13-9.913-.002-1.576-4.9-4.022-8.405-4.315-1.286-.108-11.855 5.86-15.449 8.502-.966.71-1.107 1.248-.682 1.838.319.442.875.862 1.849 1.427l1.719.947a42.941 42.941 0 0 1 3.753 2.338l.904.648-.474.644a42.377 42.377 0 0 0-3.63-2.393l-1.344-.757-.598-.325-.77-.432c-1.05-.61-1.66-1.077-2.058-1.629-.705-.978-.438-1.999.857-2.95 3.795-2.79 14.415-8.788 15.99-8.656Zm30.295 5.782a.994.994 0 0 1-.226.394l.226.736.2.197.082.63-.102.037c-3.389 1.173-4.23 1.499-5.602 2.624-.98.806-1.635 2.258-2.196 3.491l-1.644.548-1.742.031c.694-1.672 1.584-3.571 3.218-5.363 1.624-1.78 4.333-2.675 7.733-3.899.02.193.037.384.053.574Zm-1.437-7.121-16.395 4.332c.203.441.273.912.189 1.417-.087.512-.387 1.224-.973 2.31l17.179-7.663v-.396Zm-37.079-.036-5.365 3.426 1.09.096c.232.015.372.016.436.007l.033-.008.032-.016a92.04 92.04 0 0 0 1.663-.87l.454-.256.437-.264c.392-.248.644-.442.68-.516l.107-.257.433-1.342Z"/>
    <path fill="#21235A" fill-rule="nonzero" d="m82.11 53.884.197.63.112.108-.229.083c-3.32 1.195-5.486 2.37-6.485 3.496a14.778 14.778 0 0 0-2.327 3.556l-.091.201-.738.248-.206-.084a15.747 15.747 0 0 1 2.764-4.452c1.038-1.171 3.091-2.324 6.171-3.482l.833-.304Z"/>
    <path fill="#2E3975" d="M55.725 34.024c.198.24 1.144 1.874 1.408 2.455l.247.594c.329.846.771 2.212.685 3.12.006.037.048.098.125.18l-.12.413c-.73-.141-1.266-.473-1.61-.996.442-1.5-.035-3.259-.617-4.1l-.52-.737-.636-.873c.52-.124.947-.166 1.038-.056Z"/>
    <path fill="#283073" d="m57.671 39.96.394.233c.056.357 3.475 2.958 8.786 5.238 4.58 2.204 5.257.45 5.594 0l.16-.197.483-.537c.997-1.066 2.845-2.815 3.771-2.596a6.879 6.879 0 0 1 2.048.85l.221.724-.636-.235c-.778-.271-1.28-.374-1.503-.308-.42.123-2.617 2.651-3.125 3.15-.51.5-1.915 1.508-3.365 1.354-1.45-.153-9.122-3.408-10.194-3.961-1.072-.554-2.822-2.454-3.761-2.889-.94-.435-3.094-1.1-4.142-1.05-1.048.05-4.791 2.318-5.51 2.77-.478.301-.948.875-1.41 1.72v-1.094c2.835-2.406 4.778-3.711 5.832-3.916 1.487-.29 4.214-.416 6.357.744Z"/>
    <path fill="#262327" fill-rule="nonzero" d="M64.111 58.382a.3.3 0 0 1-.18.384l-1.183.418c-.073.025-.127.041-.163.051a.3.3 0 1 1-.156-.58l.594-.2c.192-.068.427-.152.704-.253a.3.3 0 0 1 .384.18Zm1.705-2.335a.3.3 0 0 1-.069.344l-.08.053-1.776.808a.3.3 0 0 1-.328-.493l.08-.053 1.776-.808a.3.3 0 0 1 .397.149Zm2.052-2.151a.3.3 0 0 1-.057.346l-.078.056-2.056 1.027a.3.3 0 0 1-.346-.48l.078-.057 2.056-1.027a.3.3 0 0 1 .403.135Zm-1.003-5.957a.3.3 0 0 1-.143.32l-.09.035-2.178.455a.3.3 0 0 1-.212-.553l.09-.034 2.178-.456a.3.3 0 0 1 .355.233Zm-3.11-1.242a.3.3 0 0 1-.115.331l-.087.042-1.852.55a.3.3 0 0 1-.258-.533l.087-.042 1.853-.55a.3.3 0 0 1 .373.202Zm-3.089-1.138a.3.3 0 0 1-.117.33l-.087.042-1.242.36a.3.3 0 0 1-.254-.534l.087-.041 1.241-.361a.3.3 0 0 1 .372.204Z"/>
    <path fill="#262327" d="M26.867 54.269a5.36 5.36 0 0 1 .532-.874c.166-.21.43-.48.796-.809l.293-.642.725-.226v1.113l-1.51 1.199-.836.239Z"/>
    <path fill="#D8D8D8" d="M30.484 54.598c.353.017.588.003.705-.042.407-.156.568-.454.665-.526.21-.155-1.487-1.124-2.641-1.2-.77-.05-1.16.245-1.173.884l2.444.884ZM32.165 51.107l1.98-.026 1.014-.73c-.253-.303-.621-.402-1.102-.295-.482.108-1.112.458-1.892 1.05Z"/>
    <path fill="#D8D8D8" d="M35.287 52.13c-.22-.314-.222-1.605-.045-2.39.176-.786 1.27-2.103 1.542-2.14.272-.039.807.367.539.64-.27.273-1.104 1.611-1.065 2.32.038.71.313.911.065 1.244-.247.332-.817.64-1.036.326Z"/>
    <path fill="#D8D8D8" d="M37.396 48.164c.852-.163 1.414-.112 1.688.155.194-.176.888-.47.811-.693-.076-.225-.423-.36-1.382-.37-.639-.006-1.011.297-1.117.908ZM40.708 48.659c-.257-.302-.19-1.103.005-1.792.193-.688.895-2.23 1.318-2.513.422-.284 1.138-.304 1.124-.261-.015.043-.485.786-.8 1.544-.316.758-.559 2.32-.57 2.494-.01.174-.82.83-1.077.528ZM45.675 45.916c-.326.085-.698-.046-.842-.208-.143-.162-.677-2.194-.524-3.398.154-1.204.666-1.936 1.07-1.962.405-.027.383.071.296.438-.087.367-.207 1.81-.09 2.564.116.754.902 1.822.697 1.996-.206.174-.281.485-.607.57Z"/>
    <path fill="#D8D8D8" d="M50.407 43.406c.012.219-.685.237-2.093.055a25.83 25.83 0 0 0-2.697-1.507c-.075-.262-.055-.651.058-1.168 1.207.199 2.05.421 2.525.667.715.37 2.188 1.625 2.207 1.953Z"/>
    <path fill="#151450" d="M53.102 42.224c.063.224-.779.444-1.03.44-.25-.004-1.029-.044-1.146-.177-.117-.133.59-.837.856-.85.267-.012 1.256.363 1.32.587Z"/>
    <path fill="#77708B" d="M83.677 58.184a2.231 2.231 0 0 0-.843-.313c-.477-.08-1.41.17-2.47.577-1.061.407-3.93 1.337-5.647 1.923-1.716.586-3 .964-4.949 1.11-1.95.148-6.674-.137-8.072-.27-1.398-.131-3.444-.32-4.61-.2-1.164.12-5.667.942-9.294 1.543-3.626.601-12.15 1.812-13.783 1.92-3.84.494-12.742-.127-16.902-.776.926.285 10.083 1.702 13.48 1.773 2.264.048 11.367-.683 27.31-2.192l16.442-.43 8.248-3.301 1.09-1.364Z"/>
    <path fill="#F4F4F5" d="M57.423 61.463c-4.92.782-8.65 1.389-11.193 1.82-3.813.645-12.245 1.964-17.43 1.776-3.456-.126-9.334-.902-17.632-2.33l-.475.541c.297 1.527.455 2.428.475 2.704.03.414 10.905 3.786 11.867 4.112.962.325 9.22-1.758 11.023-1.387 1.802.371 12.808 2.863 13.893 2.198 1.085-.665 7.368-5.16 8.758-6.259.928-.732 1.165-1.79.714-3.175Z"/>
    <path fill="#B3B1B9" d="M11.218 62.906c8.149 1.6 14.218 2.43 18.207 2.492 5.985.092 13.766-1.192 17.364-1.834 2.4-.428 5.516-.951 9.351-1.57a310.385 310.385 0 0 0-4.384 3.352c-1.62 1.269-3.433 2.56-4.853 2.71-.947.1-4.722-.787-11.325-2.658-4.13.145-6.36.234-6.691.266-.497.048-5.208 1.837-5.483 1.856-.276.02-4.609-1.539-6.524-2.122-1.278-.39-3.225-.856-5.842-1.4l.18-1.092Z"/>
    <path fill="#BEBBC6" d="m52.097 65.08-.341.266c-1.62 1.269-3.433 2.56-4.853 2.71-.947.1-4.722-.787-11.325-2.658l-.71.025-.33-.211c3.424-.264 6.9-.758 9.56-1.189l-.222-.288c1.231 1.695 2.597 2.528 4.097 2.5 1.293-.023 3.684-1.187 7.173-3.491l-3.05 2.335Z"/>
    <path fill="#CAC7D6" d="M29.425 65.398c3.93.06 8.633-.472 12.42-1.027.221 1.208 3.176 2.22 4.781 2.649.731.195 1.733.15 3.005-.137-.963.622-1.911 1.086-2.728 1.173-.947.1-4.722-.787-11.325-2.658l-6.691.266c-.497.048-5.208 1.837-5.483 1.856l-.125-.02c-.124-.03 1.614-1.264 1.417-1.474-.476-.506-8.934-2.017-10.627-2.578 6.73 1.247 11.848 1.896 15.356 1.95Z"/>
    <path fill="#DCD9E6" d="M29.425 65.398c3.4.052 7.38-.34 10.843-.806-.082.812.306 1.36 1.163 1.644.921.307 2.25.862 3.987 1.666l-.623-.12c-1.905-.387-4.979-1.183-9.217-2.384l-6.691.266c-.425.041-3.933 1.356-5.111 1.747.378-.561 2.325-1.221 2.307-1.444-.018-.228-1.527-.332-3.883-1.215l2.12.274c2.773.364 3.241.343 5.105.372Z"/>
    <path fill="#9F9DA5" d="M86 67.08c-.98 1.713-1.87 2.776-2.673 3.19-1.204.62-5.292 1.628-9.327 1.73-4.035.102-8.723-.013-11.587-.013-2.865 0-6.579-.867-9.006-2.06-1.403-.439-5.587 2.06-7.31 2.06H26.973c-.984 0-1.806-.334-2.467-1l-1.37.56-6.096-1.986-.426-.511h-.94c-3.855-.951-5.765-2.232-5.729-3.842.036-1.61.207-2.743.513-3.398.35-2.039.808-3.072 1.373-3.099-.2 1.076-.32 2.523-.358 4.34l-.18 1.092c1.756.403 3.317.814 4.683 1.234 2.05.63 6.412 2.532 7.42 2.424 1.01-.107 8.21-3.632 9.265-3.658 1.055-.025 8.242 3.415 10.676 3.92 2.434.507 4.658 1.089 9.19-2.855 3.023-2.629 4.654-3.877 4.895-3.745 2.635.126 4.67.242 6.103.347 2.152.157 6.4.205 7.492 0 1.092-.206 5.552-1.69 6.821-2.02.846-.22 2.563-.838 5.15-1.855.695.137 1.038.396 1.029.776-.01.381-.079.885-.209 1.513.855.609 1.267 1.022 1.237 1.24-.03.216-.089.512-.175.887v.303c.38.231.537.454.472.668-.097.321-.592 1.334-.472 1.505.12.172.741.746.682 1.13-.04.255-.04.465 0 .63l.447.493Z"/>
    <path fill="#B6B4BD" d="M82.006 58.315c.755.379 1.14 1.113 1.156 2.204.526.434.82.783.881 1.045.061.262-.149.89-.63 1.884l.513.54c.46.5.765.875.914 1.127.299.503-.695 2.12-2.822 2.948-2.056.801-12.392 1.498-15.843 1.436l-1.23-.033c-2.915-.049-6.384.09-7.785-1.402-.89-.949.53-3.078 4.262-6.39l2.104.136c2.152.157 6.4.205 7.492 0 1.028-.194 5.04-1.52 6.565-1.95l.256-.07c.733-.19 2.12-.68 4.161-1.47l.006-.005Z"/>
    <path fill="#C4C1CB" d="M81.522 58.504c.045.004.085.01.12.017 1.122.219 1.262 1.6 1.277 2.163.881.172.758 1.95.084 2.764.872.192 1.555 1.53 1.79 1.757.236.227-.467 1.146-1.116 1.262-.65.115-10.834 1.291-13.978 1.435-3.145.144-8.53 1.28-9.32 0-.441-.712 2.356-2.699 8.39-5.961 1.005-.014 1.844-.055 2.249-.131 1.092-.206 5.552-1.69 6.821-2.02.654-.17 1.827-.578 3.52-1.223Z"/>
    <path fill="#A8A6AE" d="M59.842 62.071c-2.413 1.874-3.914 3.291-4.503 4.252-.417.678-1.608 1.94-3.576 3.786-1.842.548-4.41 1.878-5.667 1.878h-1.528l-8.312-1.413H22.6l-3.54-1.496c2.117-.444 3.99-1.013 5.62-1.708 2.402-.966 7.141-3.206 7.981-3.227.484-.012 2.259.706 4.273 1.535 1.781 1.184 3.741 2.445 4.496 2.733 1.422.542 4.954 2.13 5.52 2.163.567.033 6.498-4.534 7.736-5.585.825-.7 2.543-1.673 5.155-2.918Z"/>
    <path fill="#B8B6BE" d="M32.662 64.143c.252-.006.851.185 1.652.486l.543.465c1.924 1.694 5.105 4.735 12.446 5.837l.67.078-6.452.976h-.247l-5.455-.477-4.62-.37c-4.096-.308-6.62-.425-7.574-.353l-.221.025c-.96.154 2.4-.99 4.98-3.487 1.295-1.255 1.908-2.065 2.448-2.58.88-.354 1.558-.593 1.83-.6Z"/>
    <path fill="#262327" d="M11.79 58.717c-.548 2.051-.688 4.877-.65 5.727.04.892 1.69 2.395 2.627 2.797l.352.136c1.7.616 7.63 2.467 8.916 2.709 1.275.24 2.798-.308 4.336-.765l.461-.133c1.692-.473 5.102-1.988 5.483-1.947.38.042 1.336.545 4.077 1.947 2.741 1.402 6.59 1.883 8.537 1.718 1.948-.165 7.592-3.891 8.746-4.785 1.153-.894 1.828.637 1.449 1.12-.38.484-.845 1.631-.674 1.947.161.297 2.439.704 4.285.87l.34.028c1.768.133 8.265-.024 14.355-.007l1.297.007c6.436.047 7.605-1.271 8.65-2.022.515-.37.899-.937 1.152-1.7a.916.916 0 0 0 .024.224l.447.492c-.98 1.713-1.87 2.776-2.673 3.19-1.204.62-5.292 1.628-9.327 1.73l-1.643.03c-3.61.043-7.462-.043-9.944-.043-2.865 0-6.579-.867-9.006-2.06-1.403-.439-5.587 2.06-7.31 2.06H26.973c-.984 0-1.806-.334-2.467-1l-1.37.56-6.096-1.986-.426-.511h-.94c-3.855-.951-5.765-2.232-5.73-3.842.037-1.61.208-2.743.514-3.398.327-1.903.747-2.93 1.261-3.08l.07-.013Z"/>
    <path fill="#262327" d="M80.141 64.522c.46.017.63-.164.509-.541-.12-.377-.468-.755-1.043-1.132h-.479c-5.424.823-9.69 1.952-12.799 3.387-.397.198.124.404.228.517.105.113.636.424 1.57.169.476-.13 3.576-.848 8.015-1.716.907-.177 2.24-.405 4-.684Z"/>
    <path fill="#262327" fill-rule="nonzero" d="m21.535 56.888.079.011.682.237a.2.2 0 0 1-.053.388l-.078-.01-.683-.237a.2.2 0 0 1 .053-.389Zm1.424-.29.079.01.682.237a.2.2 0 0 1-.053.388l-.078-.01-.683-.237a.2.2 0 0 1 .053-.389Zm1.51-.307.076.023.808.424a.2.2 0 0 1-.11.377l-.076-.023-.809-.424a.2.2 0 0 1 .11-.377Z"/>
    <path fill="#A9AAAE" d="M46.819 51.843c.875-.482-1.791 3.892.814 4.75 2.606.858 23.285-6.967 23.614-6.505.33.463-19.172 9.49-21.306 10.4-2.135.908-6.306 2.12-6.818-1.44-.512-3.56 2.82-6.724 3.696-7.205Z"/>
    <path fill="#898B95" d="M45.12 55.884c.232-.067-.602 1.587 2.747 2.118 3.348.531 23.051-8.376 23.38-7.914.33.463-18.877 8.795-21.012 9.704-2.135.91-5.978 2.075-6.255.067-.277-2.008.908-3.909 1.14-3.975Z"/>
    <path fill="#182062" fill-rule="nonzero" d="M71.247 50.088c.33.463-19.172 9.49-21.306 10.4l-.423.172c-2.22.87-5.915 1.726-6.395-1.612-.512-3.56 2.82-6.724 3.696-7.205.875-.482-1.791 3.892.814 4.75 2.606.858 23.285-6.967 23.614-6.505Zm-5.007 2.08-5.374 1.766-2.719.87c-6.08 1.914-9.526 2.746-10.701 2.359-1.291-.425-1.721-1.51-1.555-2.96a7.08 7.08 0 0 1 .098-.61l.097-.431-.08.08c-1.258 1.285-2.438 3.463-2.323 5.384l.034.336c.187 1.304.92 1.855 2.219 1.882.942.02 2.093-.253 3.266-.704l.504-.205c1.002-.426 4.772-2.161 8.534-3.929l3.02-1.427a425.458 425.458 0 0 0 4.138-1.995l.842-.416Z"/>
    <path fill="#27377A" d="m51.879 35.454.985 1.242c.15.18.23.267.241.26l-1.096.716-1.237-1.3.76-.636c.12-.1.236-.194.347-.282Zm1.73-.692-1.135.626-.2-.245.322-.235a2.8 2.8 0 0 1 .238-.151c.182-.1.403-.2.641-.294l.133.299Z"/>
    <path fill="#727289" d="M59.836 43.335c-.195-.003-3.24 1.124-6.731 2.669-3.49 1.544-13.202 6.537-18.264 10 2.609-1.5 10.357-6.161 18.06-9.595.483.117 2.461.648 5.935 1.591l-5.527-1.717c4.482-1.963 6.658-2.946 6.527-2.948Z"/>
    <path fill="#797979" fill-rule="nonzero" d="M66.822 62.85c.046.16-.233.193-.384.249-3.734 1.377-5.188 2.79-8.09 4.726-2.843 1.898-1.61.803-.388-.258l.075-.065c1.243-1.08 4.384-3.559 8.188-4.671.159-.047.552-.14.599.02Zm16.987-2.626c.083.058.16.115.235.17a9.515 9.515 0 0 1-1.727.744c-3.141.844-5.641 1.483-7.499 1.917-4.044.945-7.94 2.273-10.086 3.15-2.145.876-5.21 2.612-3.022 1.153 2.189-1.458 5.405-2.71 9.2-3.754l5.04-1.276c3.168-.804 5.055-1.304 5.66-1.5.772-.25 1.6-.516 2.272-.971-.022.114-.046.237-.073.367Zm-22.831 1.423-.05.044a.299.299 0 0 1-.066.035l-.094.019c-.339.012-4.471 2.587-5.553 3.694-.116.118-.345.29-.464.173-.118-.116.074-.318.19-.437.982-1.003 4.121-2.925 5.47-3.561l.567.033Z" opacity=".5"/>
    <path fill="gray" d="m84.87 64.827.369.434c-.71.502-1.833.734-3.37.697-2.616-.063-8.31 1.203-11.994 1.836l-.594.1c-2.424.39-5.066.923-7.925 1.596.3-.313.877-.584 1.733-.813 1.154-.31 3.11-.708 4.888-1.021l2.795-.458c3.317-.523 8.919-1.363 10.966-1.484l.28-.013c1.246-.034 2.193-.346 2.842-.935-.004.03.002.048.01.061Zm0-2.476v.303l.122.084c-.892.264-1.61.395-2.158.394.82-.112 1.525-.49 2.116-1.136l-.08.355Z"/>
    <path fill="#EAE8EF" fill-rule="nonzero" d="m72.89 64.467.32.034.397.681a.2.2 0 0 1-.292.26l-.053-.058-.262-.448-.699.762a.2.2 0 0 1-.215.053l-.068-.041a.2.2 0 0 1-.052-.215l.04-.068.885-.96ZM74.96 64.027a.2.2 0 0 1 .126.182l-.014.078-.347.87a.2.2 0 0 1-.386-.07l.015-.079.346-.87a.2.2 0 0 1 .182-.125l.078.014ZM77.069 63.762l.178.29-.217.34-.314.154.05.125a.2.2 0 0 1-.049.216l-.067.043a.2.2 0 0 1-.216-.048l-.042-.067-.114-.295.098-.251.286-.109h-.334l-.278.838a.2.2 0 0 1-.174.136l-.079-.01a.2.2 0 0 1-.136-.175l.01-.078.326-.973.19-.136h.882Z"/>
    <path fill="#85838C" fill-rule="nonzero" d="M32.423 65.496a.4.4 0 0 1 .373.7l-.094.05-7.311 2.713a.4.4 0 0 1-.373-.7l.094-.05 7.311-2.713Z"/>
  </g>
</svg>
