<svg xmlns="http://www.w3.org/2000/svg" viewBox="0 0 96 96">
  <defs>
    <path id="a" d="M0 0h96v96H0z"/>
  </defs>
  <g fill="none" fill-rule="evenodd">
    <path fill="#F2F3EE" d="M58.252 30.696c.21.075.518.55.534.84l.002 5.452c.012 1.042.08 3.85.195 4.072.132.252.183 1.398.228 2.09.045.693.557 3.339 1.089 3.966l.296.336c.793.856 2.626 2.483 5.295 2.055 3.091-.496 4.812-1.26 5.096-1.229.147-.292.317-.422.504-.488l.317-.105c.657-.23 2.084-.847 2.315-2.08l.185-1.08c.228-1.399.471-2.97.853-3.465.323-.421.596-.728.818-.92l.12-.526c.062-.312.09-.548.083-.706-.016-.357-.418-2.057-.468-2.913-.051-.856.172-2.634 1.552-2.62 1.38.015 1.768 1.203 1.156 2.83l-.284.734c-.351.879-.593 1.381-.76 1.778l-.397 1.006a.747.747 0 0 0-.04.136 1.147 1.147 0 0 0-.003.315c.32.145.548.326.683.542.136.216.244.73.325 1.541.422.12.66.364.712.735.052.371.112.718.179 1.04.14.364.258.571.351.621.14.075.345 1.036.473 1.081.128.046.202.443.216.686.014.242.15.472.157.696V48c.208.35.332.625.374.825.041.2.041.39 0 .567.252.104.373.24.361.41.338.089.942.505 1.438 1.951l.187.577c.44 1.414.868 3.21.894 3.437.03.26-22.434 6.702-28.4 7.46-5.968.759-21.098-.293-27.096-1.316l-1.182-.209c-3.474-.633-9.418-1.903-15.544-4.242-.232-.089-.445-.407-.392-.737.253-1.216.68-1.894 1.034-2.252.353-.357.86-.515 1.521-.473.847-.443 2.691-.913 5.534-1.41l2.809-.49c4.774-.858 11.141-2.129 13.225-2.59 2.128-.472 5.003-1.964 6.562-2.876l1.132-.684c1.15-.675 2.523-1.377 2.886-1.62l2.078-1.681c1.112-.91 2.369-1.963 2.896-2.507.94-.97 3.19-3.75 4.314-5.428l.222-.342c1.017-1.613 3.155-3.749 3.365-3.674Zm19.255 3.182c-.623-.046-1.099.587-1.185 1.299-.086.711.137 2.079.243 2.586.105.506.08 1.47.171 1.477.092.008.195-.725.373-1.276.178-.55.816-1.993 1.045-2.482.228-.489-.024-1.559-.647-1.604Z"/>
    <path fill="#E5E7E2" d="m79.875 46.365.002.055c.014.242.15.472.157.696V48c.208.35.332.625.374.825.041.2.041.39 0 .567.252.104.373.24.361.41.338.089.942.505 1.438 1.951l.187.577.174.581c.372 1.284.697 2.659.72 2.856.03.26-22.434 6.702-28.4 7.46-1.753.223-4.295.29-7.163.247l-.981-.046c-8.894-.469-13.154-2.503-12.78-6.1l2.01-.243c8.533-.982 16.514-.063 18.287-2.293 3.91-4.917-8.688-4.692-8.69-5.313-.004-1.989 8.609-7.668 9.767-5.425 2.463 4.772 6.602 6.295 7.46 6.896.858.601.929 1.362 2.39 3.204 1.462 1.842 5.193 3.626 5.782 1.726.59-1.899-3.966-2.454-2.667-3.837 1.189-1.265 8.445-5.823 11.572-5.678Z"/>
    <path fill="#454544" d="M77.266 33.375c1.38.015 1.768 1.203 1.156 2.83l-.284.734-.243.593c-.224.53-.391.887-.517 1.185l-.397 1.006-.04.136a1.147 1.147 0 0 0-.003.315l.05.021c-.166.107-.693.3-.816.241-.064-.03-.137-.119-.22-.267l.027-.03.12-.525c.062-.312.09-.548.083-.706-.016-.357-.418-2.057-.468-2.913-.051-.856.172-2.634 1.552-2.62Zm.241.503c-.623-.046-1.099.587-1.185 1.299-.086.711.137 2.079.243 2.586.105.506.08 1.47.171 1.477.092.008.195-.725.373-1.276.178-.55.816-1.993 1.045-2.482.228-.489-.024-1.559-.647-1.604Z"/>
    <path fill="#D7D5D4" d="M43.61 62.614c.31-2.081-1.737-3.735-6.144-4.961-6.61-1.84-13.573-1.622-17.356-1.747-3.783-.126-7.187-.094-7.639.59-.451.684 8.457 3.705 12.737 4.845 2.853.76 8.986 1.185 18.401 1.273Z"/>
    <path fill="#D45C54" d="m82.207 51.753.187.577.228.766c.259.91.488 1.836.598 2.33l-.658.088c-.725.082-1.893.187-3.501.313l-1.018.079.675-.875c.465-.614.917-1.165 1.356-1.65.659-.73 1.141-1.753 1.15-2.297.005-.273-.057-.659-.186-1.16.338.21.786.712 1.169 1.829Z"/>
    <path fill="#CC4C43" d="m82.207 51.753.187.577.228.766.212.774c.168.63.308 1.203.386 1.556l-.658.088c-.564.064-1.396.141-2.494.232l-2.025.16 1.073-1.39.55.06c.692.064 1.432.041 1.822-.783.41-.868.305-2.127-.315-3.774.313.248.698.755 1.034 1.734Z"/>
    <path fill="#B43D35" d="m82.207 51.753.187.577.228.766.212.774c.168.63.308 1.203.386 1.556l-.658.088-.862.088c-.67.064-1.533.138-2.588.221-.159-.196-.29-.46-.393-.79l.134-.177.119-.01c.383-.026.697-.012.942.042l.673.147c.204.042.374.07.47.063.19-.012 1.446-.27 1.484-.619.038-.35-.642-3.067-1.057-3.903l-.262-.512c.307.262.668.765.985 1.689Z"/>
    <path fill="#F5C0BC" d="m81.038 49.925.154.11c.192.584.267.985.228 1.206-.079.44-.621 1.724-.897 2.067-.22.274-.969 1.019-1.314 1.387l-.17.193c-.056.082-.169.14-.34.172l.02-.03c.464-.613.916-1.164 1.355-1.65.659-.729 1.141-1.752 1.15-2.296.005-.273-.057-.659-.186-1.16Z"/>
    <path fill="#DFDFDC" d="M45.154 62.614c-.103-1.038-.642-2.398-1.615-4.08-1.46-2.52-5.571-5.563-7.21-6.189-1.639-.625-4.641-1.213-4.093-1.69.365-.317 1.164-.804 2.396-1.461.866-.292 1.258-.4 1.175-.324-.124.114-1.991 1.228-2.25 1.536-.26.308 2.898.688 4.753 1.631 1.854.944 4.724 2.87 6.41 5.17 1.124 1.532 1.905 3.335 2.343 5.407h-1.909Z"/>
    <path fill="#CDCFC9" d="M50.543 40.563c-1.604 1.29-3.331 3.306-4.233 4.578-.902 1.271-1.688 3.682 1.697 3.994 1.477.136 3.31.397 4.476.23 1.234-.177 1.788.074 2.373.423 1.14.68 2.703 2.312 3.941 3.36 1.238 1.047 3.487 4.16 6.639 2.582 3.151-1.577 2.008-2.864 5.063-3.079 3.054-.215 5.146.604 6.448.96.378.104.889.315 1.397.194 1.24-.295 2.59-1.416 2.862-2.537.105-.433-.008-.717-.18-1.341-.022-.085-.156-.12-.256-.136-.09-.306-.304-.411-.464-.364-1.178.352-12.26 1.488-15.523 1.588-3.264.1-6.502-1.142-7.217-3.668-.716-2.525-.903-6.976-2.072-8.07-1.169-1.094-3.347-.003-4.951 1.286Z"/>
    <path fill="#949090" d="M54.87 42.422c.192 1.705.43 4.634.815 6.111.385 1.478 1.814 3.021 2.591 3.65.777.627 4.127 2.505 5.505 2.387 1.378-.12 3.916-1.717 4.787-2.032.871-.316 3.294-.558 4.406-.377 1.111.182 3.133 1.122 3.505 1.298.372.177 1.448.601 1.946.252.497-.348.78-.738.926-.99.145-.25.739-1.476.95-2.088.21-.613.334-1.154.225-1.22-.11-.064-7.741 1.225-10.207 1.22-2.465-.006-8.366.404-9.654-.401-1.287-.806-4.204-6.355-4.393-7.716-.19-1.361-1.596-1.799-1.403-.094Z"/>
    <path fill="#B7B7B7" d="M48.455 49.235c.697.02 1.91.138 3.03.107 1.121-.031 1.832-.616 2.792-2.124.961-1.508.84-6.875-1.827-6.4-2.667.474-7.731 6.487-6.541 7.503 1.19 1.016 1.848.896 2.546.914Z"/>
    <path fill="#959595" d="M52.233 43.147c1.083-.277 1.106.393 1.416 1.413a3.81 3.81 0 0 1 .072 2.023c-1.566.745-2.655 1.121-3.268 1.128-.918.01-.949-.474-1.812-.94-.863-.466 2.509-3.347 3.592-3.624Z"/>
    <path fill="#ACAAAA" d="M53.65 40.422c.26.164 3.168 3.811 2.868 3.822l-.349.01c-.463.012-1.224.024-1.73-.007l-.27-.023c-.593-.075-4.74-.11-6.353 0-.884.06-2.89.775-6.018 2.145l.693-.421a47.5 47.5 0 0 1 1.082-.613c1.757-.8 3.17-1.293 4.243-1.475 1.786-.303 3.904-.596 6.353-.876-1.136-1.539-1.97-2.285-2.503-2.238-.743.066-2.454.692-3.107.983l.673-.567c.2-.103.392-.196.58-.28 1.057-.477 3.577-.624 3.837-.46Z"/>
    <path fill="#414C4F" d="M27.485 56.013c-.057-.065.427-.866 1.452-2.401l19.492-7.078c.965.57 1.836.84 2.615.813 1.168-.041 3.072-1.225 2.605-.576-.467.648-2.247 1.941-3.596 2.074-1.348.133-2.004.75-4.237 1.938-2.233 1.189-4.501 2.69-4.78 2.747-.279.058-.145-.107-.547.082-.268.125-.65.33-1.147.615a44.85 44.85 0 0 1-.83.201c-.235.053-3.518 1.763-4.525 2.674-1.006.911-2.644 2.344-2.826 2.607-.181.264-.267-.51-.034-1.488.155-.652.377-1.482.664-2.49l6.145-3.565c-2.357.495-3.964.89-4.823 1.185-1.287.443-3.346 1.178-3.825 1.537-.48.358-1.717 1.223-1.803 1.125Z"/>
    <path fill="#797D7E" d="m48.457 46.55-.028-.016c.55-.372.848-.512.893-.42.29.602 1.379.992 1.788.961.98-.073 3.006-.953 2.54-.304-.468.648-2.248 1.941-3.597 2.074-.37.037-.687.11-1 .22l1.88-.987c.7-.379 1.037-.587.145-.44-.815.135-2.044-.226-2.621-1.089Z"/>
    <path fill="#D0D2CE" d="M55.56 37.33c.588-.378 1.815-.938 3.228-.776l.02 1.479c.029 1.24.089 2.861.175 3.027.132.252.183 1.398.228 2.09.045.693.557 3.339 1.089 3.966l.296.336.303.31c.908.882 2.62 2.126 4.992 1.745 3.091-.496 4.812-1.26 5.096-1.229.147-.292.317-.422.504-.488l.317-.105.351-.135c.717-.3 1.768-.902 1.964-1.945l.185-1.08.176-1.062c.182-1.055.39-2.031.677-2.403.297-.388.552-.678.764-.872.161.316.427.27.648.182l.279-.12a.39.39 0 0 0 .112-.062l-.026-.014c.32.145.548.326.683.542.136.216.244.73.325 1.541.422.12.66.364.712.735.052.371.112.718.179 1.04.14.364.258.571.351.621.14.075.345 1.036.473 1.081.128.046.202.443.216.686.014.242.15.472.157.696V48c.208.35.332.625.374.825.041.2.041.39 0 .567l.115.052c-.328 1.03-1.136 2.97-1.44 3.547-.388.73-1.245.71-1.987.475-.74-.234-2.056-1.025-3.905-1.406-1.85-.38-3.78.001-6.661.93-2.881.93-5.937.185-7.238-.444-1.3-.629-3.088-2.445-3.541-4.327-.453-1.882-.661-4.917-.878-9.323-.036-.728.193-1.25.686-1.567Z"/>
    <path fill="#E2E2E2" d="M59.433 48.908c-1.555-1.369-2.175-3.749-1.157-3.39.51.179 1.098.6 1.753 1.11.089.213.18.38.27.488l.297.336.303.31c.908.882 2.62 2.126 4.992 1.745.514-.082.99-.172 1.427-.264 1.159.203 1.967.487 2.483.634l.18.048c1.147.281-1.901.597-4.118.738-2.216.14-4.875-.385-6.43-1.755Z"/>
    <path fill="#F2F2F2" d="M72.541 47.37c.284.167.591.377.92.63-.548.74-1.982 1.327-4.303 1.76-1.9.354-3.472.283-4.72-.215.452.05.937.045 1.453-.038 3.091-.496 4.812-1.26 5.096-1.229.147-.292.317-.422.504-.488l.317-.105.351-.135.203-.09.18-.09Z"/>
    <path fill="#BDBDB8" d="m57.78 40.213 1.174 2.492c.09.193.18.391.27.591l.04.298c.15 1.015.586 2.991 1.036 3.522l.087.101c-1.124-.838-4.321-5.383-4.27-5.107l.13.675c.394 1.959 1.19 5.037 2.844 6.02 2.411 1.434 5.335 2.614 9.04 1.279l1.47-.537c1.654-.614 2.782-1.072 3.384-1.373l.65.736c2.304 2.556 3.708 3.57 4.213 3.042.516-.539 1.501-2.59 2.233-3.874l.162.306c.085.174.14.321.165.441.041.2.041.39 0 .567l.115.052c-.328 1.03-1.136 2.97-1.44 3.547-.388.73-1.245.71-1.987.475-.74-.234-2.056-1.025-3.905-1.406-1.85-.38-3.78.001-6.661.93-2.881.93-5.937.185-7.238-.444-1.3-.629-3.088-2.445-3.541-4.327-.363-1.507-.568-3.752-.747-6.848l.02-.028c1.11-1.34 2.644-1.37 2.756-1.13Z"/>
    <path fill="#716F6E" d="M55.757 45.068c.106-.12.465-.5.756-.624.29-.123 1.387-.005 1.966.116.579.122.84-.532.813-.674-.026-.142-1.834-.47-2.322-.523-.489-.053-1.315 1.201-1.407 1.538-.091.338.088.287.194.167Z"/>
    <path fill="#CBC9C1" d="M70.988 50.455c-.214-.274-4.885 1.546-7.366 1.203-2.48-.343-4.894-1.179-5.212-.685-.317.493.552 2.117 4.297 2.475 3.744.36 8.495-2.72 8.281-2.993Z"/>
    <path fill="#D7D6D2" d="m61.143 51.875.297.077c2.884.814 5.479.114 4.856.91l-.137.158c-1.135.338-2.338.535-3.452.428-1.389-.133-2.382-.44-3.066-.798-.33-.566-.096-1.155 1.502-.775Z"/>
    <path fill="#878787" fill-rule="nonzero" d="M55.454 42.01a.2.2 0 0 1 .203.196c.049 3.371.406 5.726 1.062 7.053 1.083 2.19 3.555 3.716 6.481 3.697 1.224-.007 2.124-.168 3.614-.595l.968-.286c1.424-.42 2.315-.603 3.405-.629 1.424-.034 2.813.245 4.264.757l.84.32c.476.188.947.377 1.019.398.643.187 1.143.078 1.298-.243l.128-.298c.116-.297.256-.716.42-1.257a.2.2 0 1 1 .383.116l-.19.606c-.15.457-.276.792-.38 1.007-.26.535-.962.688-1.771.453l-.376-.142c-.446-.175-1.158-.46-1.504-.583-1.409-.497-2.753-.767-4.121-.734-.917.022-1.69.16-2.803.47l-.945.276c-1.848.551-2.84.756-4.246.764-3.08.02-5.691-1.593-6.842-3.92-.69-1.394-1.054-3.798-1.104-7.224a.2.2 0 0 1 .197-.203Z"/>
    <path fill="#DBA921" d="m76.92 40.218.084-.01-.066-.034c.32.145.548.326.683.542.136.216.244.73.325 1.541.422.12.66.364.712.735.052.371.112.718.179 1.04.14.364.258.571.351.621.14.075.345 1.036.473 1.081.128.046.202.443.216.686.014.242.15.472.157.696V48c.208.35.332.625.374.825.041.2.041.39 0 .567l.115.052c-.328 1.03-1.136 2.97-1.44 3.547-.056.103-.12.192-.192.267-.355.181-.667.302-.898.344l-.07.01a2.29 2.29 0 0 1-.236-.016c-.835-.204-2.139-1.668-2.854-2.451-.548-.6-1.142-1.127-1.71-1.622l-.558-.485c-.726-.636-.872-.638-1.252-.693-.218-.031-.23-.178-.036-.44.07-.054.14-.09.214-.115l.317-.105.351-.135.362-.166.19-.101c.31-.146.607-.361.88-.671.096-.101.182-.21.258-.327.36-.526.667-1.254.889-2.252l.09-.444c.309-1.69.788-2.41 1.141-2.796l.3-.296c.027-.026.054-.05.08-.072a.696.696 0 0 0 .224-.055l.347-.152Z"/>
    <path fill="#CB9409" d="m80.033 47.714.001.286c.208.35.332.625.374.825.041.2.041.39 0 .567l.115.052c-.328 1.03-1.136 2.97-1.44 3.547-.056.103-.12.192-.192.267-.355.181-.667.302-.898.344l-.07.01a2.29 2.29 0 0 1-.236-.016c-.835-.204-2.139-1.668-2.854-2.451-.41-.45-.848-.859-1.28-1.244l-.988-.863c-.351-.307-.566-.467-.738-.555.473-.01.945.005 1.416.044 2.13.18 4.077 1.728 4.98 1.963.847.22.772-.918 1.629-2.465l.18-.311Zm-3.113-7.496.083-.01-.065-.034c.32.145.548.326.683.542.136.216.244.73.325 1.541.358.101.583.292.675.573-.909.007-1.701.025-2.48.954-.78.929-1.643 2.26-2.373 2.617l.08-.116c.36-.526.668-1.254.89-2.252l.09-.444c.309-1.69.788-2.41 1.141-2.796l.3-.296c.027-.026.054-.05.08-.072a.696.696 0 0 0 .224-.055l.347-.152Z"/>
    <path fill="#FFDD5E" d="m76.92 40.218.084-.01-.066-.034c.196.09.358.192.485.308-.676.092-1.09.369-1.248.829-.287.828-.95 2.128-1.285 3.296l-.16.551c-.277.931-.65 1.895-1.53 2.414l-.279.142c-1.28.552-.45 1.129.037 1.656l.03.036-.423-.368c-.726-.636-.872-.638-1.252-.693-.218-.031-.23-.178-.036-.44.07-.054.14-.09.214-.115l.317-.105.351-.135.362-.166.19-.101c.31-.146.607-.361.88-.671.096-.101.182-.21.258-.327.36-.526.667-1.254.889-2.252l.09-.444c.309-1.69.788-2.41 1.141-2.796l.3-.296c.027-.026.054-.05.08-.072a.696.696 0 0 0 .224-.055l.347-.152Z"/>
    <path fill="#AC810A" d="m71.72 48.083.203.105c.32.178.901.54 1.37.978l.698.712c1.034 1.04 3.031 2.971 3.432 3.193.486.27.995.21 1.345.104l.258-.087.056-.097c-.055.103-.12.192-.191.267-.355.181-.667.302-.898.344l-.07.01a2.29 2.29 0 0 1-.236-.016c-.835-.204-2.139-1.668-2.854-2.451-.41-.45-.848-.859-1.28-1.244l-.988-.863c-.726-.636-.872-.638-1.252-.693-.103-.015-.16-.055-.171-.122.168-.092.44-.202.579-.14Z"/>
    <path fill="#B67B00" d="M78.658 42.992c.052.371.112.718.179 1.04.14.364.258.571.351.621.14.075.345 1.036.473 1.081.128.046.202.443.216.686.014.242.15.472.157.696l.002.78-.05.255a2.036 2.036 0 0 1-.026.1c-.15.518-1.021 2.133-1.383 2.805-.362.672-.704.446-1.006.196-.302-.25-1.625-1.785-1.805-2.223-.155-.375-.126-.557-.003-.808l.068-.132c.177-.327.85-1.876.984-2.345.135-.47.236-1.872.293-2.362.057-.49.562-.754.852-.856.102-.036.224-.066.366-.088.189.13.299.316.332.554Z"/>
    <path fill="#885600" d="M80.034 47.116V48l.064.109-.064.41c-.2 1.352-1.537 3.346-1.876 3.304-.339-.042-.542-.093-1.417-.965s-1.068-2.067-1.095-2.12c-.024-.05.201-.156.534.417l.102.193c.387.787.935 1.231 1.326 1.567.39.336.887-.203 1.156-.607.27-.404.712-1.194.89-1.702a9.409 9.409 0 0 0 .363-1.602l.017.112Z"/>
    <path fill="#E3E3E3" d="M19.575 55.854c3.363 1.113 6.848 2.583 8.338 3.983.994.932 1.54 1.644 1.642 2.133l-2.71-.506c-4.612-.875-8.13-1.618-10.553-2.23a76.05 76.05 0 0 1-5.226-1.774c-.232-.089-.445-.407-.392-.737.253-1.216.68-1.894 1.034-2.252.353-.357.86-.515 1.521-.473l2.457.667c1.05.295 2.375.688 3.889 1.189Z"/>
    <path fill="#F2F3EE" d="m13.492 54.07 2.194.595 1.494.434c.726.218 1.53.468 2.395.755 3.363 1.113 6.848 2.583 8.338 3.983.913.856 1.449 1.526 1.608 2.01-.216-.026-.45-.06-.701-.103-1.26-1.421-2.504-2.476-3.731-3.165-1.841-1.034-5.858-2.5-8.624-3.41l-1.45-.483c-.802-.276-1.288-.466-1.523-.616Z"/>
    <path fill="#D6D6D3" d="M12.455 55.522c1.038.716 2.068.816 4.049 1.463l.515.174c2.325.808 5.433 2.022 6.078 2.734.324.358-.495.525-1.69.494l-1.475-.311a108.516 108.516 0 0 1-3.64-.842 76.05 76.05 0 0 1-5.226-1.774c-.232-.089-.445-.407-.392-.737.253-1.216.68-1.894 1.034-2.252.097-.098.206-.182.327-.25-.284.48-.145.913.42 1.301Z"/>
    <path fill="#716F6E" d="M50.708 39.934c.192-.035 3.063.058 4.026.817.964.758 3.617 2.884 3.776 3.222.105.225.076.363-.087.412l-4.451-.503-.973.925-2.899-2.575c.199-.312.31-.56.333-.745.023-.184-.004-.633-.082-1.347a.669.669 0 0 1 .357-.206Zm.34 1.854c-.09.109 1.702 1.838 2 1.981.3.144.561-.566.6-.83.04-.265-1.615-1.61-1.774-1.687-.159-.078-.737.426-.827.536Z"/>
    <path fill="#D9D7D7" d="M50.444 41.223c.12.042.217.049.289.021.144-.055.535-.168.514 0-.02.168-.241.263-.514.332a3.643 3.643 0 0 0-.358.113c.05-.147.062-.335.07-.466Z"/>
    <path fill="#B1B1B1" d="M55.77 44.012c1.236.098 2.515.335 2.506.138-.009-.198-2.505-.583-3.188-.645-.684-.061-1.035-.183-1.034-.064 0 .08-.013.168-.04.263l-.102.027c-.03-.211-.068-.322-.112-.333-.066-.016-.479.358-.632.524-.153.166-.336.418-.316.525.02.106.173.148.228.123.037-.017.33-.27.878-.76.385.07.99.138 1.813.202Z"/>
    <path fill="#387089" d="M31.724 54.347c3.386-1.7 5.727-2.84 7.023-3.42 1.943-.87 8.28-4.874 8.824-5.29.546-.415 2.988-3.344 3.24-3.524.253-.18 2.236 1.488 2.241 1.675.006.187-.191.729-.43 1.02-.239.29-1.448 1.7-2.541 2.753-1.094 1.053-6.239 3.792-9.495 5.449-3.257 1.657-9.612 5.662-9.706 5.631-.064-.02.218-1.452.844-4.294Z"/>
    <path fill="#0C343E" d="M50.311 41.818c-.282.191-4.336 3.601-5.593 4.442-1.256.84-3.239 1.845-3.864 2.07-.625.225-4.431 1.416-6.497 2.04-2.065.625-4.633 1.45-4.802 1.522-.17.073-2.42 3.545-2.228 3.606.192.06 2.165-1.048 4.568-1.858 2.403-.81 10.692-3.277 12.76-3.814 2.07-.538 3.378-.927 4.131-1.29.376-.181 1.144-.727 1.782-1.407.943-1.003 2.323-2.604 2.513-2.81.325-.353.098-.598.079-.683-.02-.085-2.001-1.994-2.186-2.091-.184-.097-.381.081-.663.273Z"/>
    <path fill="#297183" d="M50.311 41.818c-.282.191-4.336 3.601-5.593 4.442-1.256.84-3.239 1.845-3.864 2.07-.625.225-4.431 1.416-6.497 2.04-2.065.625-4.633 1.45-4.802 1.522-.17.073-2.25 3.169-2.057 3.23.192.061 2.165-1.048 4.569-1.857 2.403-.81 10.69-3.277 12.76-3.815 2.069-.538 3.494-1.647 4.04-2.106.545-.46 3.52-3.012 3.782-3.288.262-.275.53-.335.51-.42-.019-.085-2-1.994-2.185-2.091-.184-.097-.381.081-.663.273Z"/>
    <path fill="#1C5968" d="M45.131 46.145c1.738-.036 3.03.21 4.233.379l.498.066-.03-.015-.74.59-.539.432a10.513 10.513 0 0 1-3.26 1.72l-1.35.373-2.243.09c-1.967.067-4.106.113-5.867.138l4.55-1.43c.216-.07.379-.125.471-.158.577-.208 2.311-1.08 3.562-1.873l.458-.304.257-.008Z"/>
    <path fill="#0A4453" d="M50.974 41.545c.185.097 2.166 2.006 2.186 2.091.02.085-.166.158-.404.38-.239.223-2.634 2.365-3.596 3.097l-.517.414-.138.107c-1.568-.18-4.078.038-7.534.651.72-.288 2.558-1.23 3.747-2.025l.387-.274c1.546-1.135 4.949-3.994 5.206-4.168l.256-.178c.117-.076.218-.128.314-.122l.093.027Z"/>
    <path fill="#377889" d="m50.781 41.53 2.285 2.236-.19.146-.438.391-.255-.239c-.447-.431-1.181-1.188-2.203-2.269l.156.158.175-.135.256-.178a.835.835 0 0 1 .214-.11Z"/>
    <path fill="#332B17" d="M49.59 45.885c.698.034 1.316-.466 1.34-1.35.024-.883-.742-1.3-1.35-1.3-.608 0-1.182.586-1.19 1.293-.007.708.503 1.324 1.2 1.357Z"/>
    <path fill="#CE9200" d="M49.633 45.758c.593 0 1.22-.412 1.243-1.295.024-.883-.65-1.316-1.257-1.316-.608 0-1.182.587-1.19 1.294-.008.707.611 1.317 1.204 1.317Z"/>
    <path fill="#D7BE27" d="M49.619 43.147c.607 0 1.281.433 1.257 1.316-.012.472-.197.809-.457 1.021l-.042.072c.359-.574.42-1.108.182-1.602-.356-.74-1.227-.68-1.651-.272-.425.408-.348 1.099-.101 1.507.245.405.661.495.843.568-.61.001-1.229-.609-1.221-1.316.008-.707.582-1.294 1.19-1.294Z"/>
    <path fill="#D8D8D8" d="M29.97 52.224c-.028.453.134.603.486.45.53-.227 2.41-1.255 2.47-1.186.06.07-1.866 1.203-2.234 1.457-.368.255-.995.43-1.024 0a.844.844 0 0 1 .303-.721ZM34.131 51.826l.039-.892.41-.135.146.275.039-.336.368-.117-.092.96-.344.062-.217-.237-.031.345zM35.258 50.617l.415-.075.001.892-.423.054zM35.885 50.447l.284-.077.073.129.376-.278.103.205-.259.353.311.226-.35.102-.137-.184-.044.284-.357.138zM36.843 50.221l.646-.212.047.831-.635.131z"/>
    <path fill="#D5D5D5" fill-rule="nonzero" d="M38.215 49.64a.2.2 0 0 1 .283.003l.246.266c.163.194.223.326.19.454-.061.227-.284.25-.763.206a.2.2 0 1 1 .037-.398l.22.016.034.005-.25-.269a.2.2 0 0 1 .003-.283ZM39.898 49.12a.992.992 0 0 0-.566.344c-.18.228-.171.505.095.653.424.238 1.39-.002 1.433-.447.04-.431-.481-.637-.962-.55ZM40.877 48.798l.92.19.169.308a.2.2 0 0 1-.3.252l-.052-.06-.015-.205-.767-.088a.2.2 0 0 1-.034-.39l.08-.007ZM43 47.901c.311-.045.587.08.6.354a.28.28 0 0 1-.044.167l-.044.052.072.008a.2.2 0 0 1 .169.143l.006.08a.2.2 0 0 1-.143.168l-.079.007-.549-.066.032.072a.2.2 0 0 1-.028.148l-.055.057a.2.2 0 0 1-.221.003l-.057-.055-.353-.516.038-.267c.254-.208.468-.328.655-.355ZM43.845 47.542a.2.2 0 0 1 .22.004l.056.058.438.69a.2.2 0 0 1-.283.271l-.055-.057-.438-.69a.2.2 0 0 1 .062-.276ZM45.167 46.832c-.148.06-.338.184-.577.375l-.044.265.483.747.25.073.381-.182a4.14 4.14 0 0 0 .145-.077c.287-.163.39-.662.215-.962-.167-.285-.551-.362-.853-.24ZM46.685 45.66a.2.2 0 0 1 .31.24l-.05.063-.491.421.414.598.466-.301a.2.2 0 0 1 .221.002l.056.057a.2.2 0 0 1-.003.22l-.056.056-.628.408-.273-.054-.626-.906.034-.265.626-.539Z"/>
    <path fill="#D5D5D4" d="M58.252 30.696c.21.075.518.55.534.84l.002 5.452.047 2.017c.033.987.083 1.93.148 2.055.073.14.122.556.158 1.017l.07 1.073c.01.14.037.362.081.63-.596-.044-4.168-.789-6.13-1.412-1.122-.357-1.963-1.019-2.523-1.986l-.186-.352.103-.107c1.03-1.119 3.06-3.645 4.109-5.211l.222-.342c1.017-1.613 3.155-3.749 3.365-3.674Z"/>
    <path fill="#EAEAEA" d="M58.252 30.696c.21.075.518.55.534.84l.002 5.452.005.288-.019.009c-.131-.06-.39-.104-.776-.135l-.524-.03-.718.393-5.233 2.056c.69.018 1.457-.092 2.302-.33l1.8-.518c.652-.194 1.17-.358 1.278-.416.116-.063.26-.316.434-.761l.089-.239.634-.068c.099.692-.116 1.223-.644 1.591.5.273 1.062 1.853.362 1.346-.7-.507-2.002-.21-3.442.248-1.125.358-.561 1.525-.534 2.139l-.64-.193c-1.122-.357-1.963-1.019-2.523-1.986l-.186-.352.27-.294 1.088-.496 5.092-2.003c.313-.197.313-1.058 0-2.584-.222-1.086-.835-1.271-1.838-.557 1.069-1.567 2.989-3.47 3.187-3.4Z"/>
    <path fill="#B2B2AE" d="m58.785 33.968.003 3.02.047 2.017c.03.889.073 1.741.13 1.994l.018.06c-.012-.02.057.141.09.42.055.48.132 1.29.232 2.427l-.155-.122c-.302-1.683-.465-2.566-.489-2.648-.196-.672-.56-.717-.601-.962-.055-.33.162-.942-.166-.95l-.116.016c-.458.124-1.04-.394-.433-.62l.149-.043c.56-.127.874-.574.942-1.34-.01-.189-.012-.39-.01-.604l.01-.33c.012-.275.128-1.053.349-2.335Z"/>
    <path fill="#9B9B9B" d="M57.8 36.96c.22-.015.492.04.815.168l.177.076.005.18c-.386-.098-.723-.122-1.01-.072l-.203.05-2.053.715a42.45 42.45 0 0 0-1.44.536l-.575.243c-.49.198-1.341.528-2.554.99l-.506.192-.003-.008.25-.27 2.14-.946c.27-.123.498-.23.682-.319l.312-.156c.753-.394 3.55-1.348 3.963-1.378Z"/>
    <path fill="#A31624" d="M82.473 68.434c-.195.787-.36 1.238-.492 1.35-.2.17-3.282.944-5.346 1.111-2.064.168-4.72.115-4.948.076-.152-.026-.256-.27-.313-.73 3.215-.545 5.574-.923 7.078-1.133a66.959 66.959 0 0 0 4.021-.674Z"/>
    <path fill="#C83948" d="m82.077 68.513.396-.08-.14.528c-.135.464-.253.739-.352.824-.2.17-3.282.943-5.346 1.11l-.706.048c-1.918.108-4.04.063-4.242.028-.06-.01-.112-.054-.158-.132a89.867 89.867 0 0 0 4.062-.093c2.012-.097 5.577-.886 5.836-1.03.14-.079.357-.48.65-1.203Z"/>
    <path fill="#B1C6D7" d="M84.907 57.686c.729.14 1.093.37 1.093.686 0 .475-.113 3.284-.546 5.114-.289 1.22-.53 2.044-.722 2.474.27.38.27.608 0 .683-.27.074-.577.196-.92.365.423-.037.61.043.56.24-.05.197-.434.463-1.152.8.253.212.349.385.287.518-.061.134-.424.306-1.089.518l-.7.086c-.106.219-.246.327-.42.323-.259-.004-.4-.137-.554-.097-.153.039-.23.32-.425.357-.195.039-.344-.214-.607-.17-.263.044-.25.267-.428.326-.179.06-.558-.237-.876-.156-.317.081-.399.382-.681.426-.282.045-.445-.344-.713-.27-.268.074-.31.48-.615.497-.304.018-.476-.276-.783-.227-.307.05-.374.357-.674.407-.3.049-.492-.365-.775-.307-.283.057-.364.502-.794.555-.43.053-.577-.4-.845-.343-.27.057-.443.412-.784.454-.342.041-.684-.132-.993-.11-.309.02-.529.329-.905.345-.376.017-.619-.229-.898-.235-.28-.007-.334.254-.815.235-.48-.018-.496-.333-.852-.346-.356-.012-.36.517-.728.552-.367.034-.779-.78-.962-.8-.184-.02-1.108.04-1.363-.18-.255-.219-2.115-2.47-2.631-2.849-.517-.379-1.134-.69-1.966 0-.832.692-1.193 1.215-1.241 1.527-.05.312.071.499-.1.67-.17.17-.493.188-.652.425-.158.237-.002.933-.396 1.001-.393.069-.59-.219-.768-.136-.178.083-.275.776-.55.846-.276.07-.644-.409-.96-.386-.317.022-.577.472-.951.487-.375.015-.387-.468-.736-.487-.35-.02-.295.487-.665.487-.37 0-.596-.487-.894-.487-.297 0-.325.487-.68.487-.353 0-.571-.487-.87-.487-.298 0-.226.487-.668.487-.442 0-.484-.487-.863-.487s-.259.487-.734.487c-.474 0-.556-.487-.84-.487-.285 0-.265.386-.626.386-.36 0-1.802-1.432-2.417-2.237-.615-.806-1.72-1.038-2.307-.927-.586.112-1.104.625-1.217.767-.113.143-.05.288-.187.416-.139.128-.537.096-.693.27-.155.175-.429.87-.616.974-.188.103-.535-.246-.719-.208-.184.038-.467.498-.977.44-.51-.056-.452-.613-.838-.716-.387-.102-.568.572-1.026.486-.457-.087-.346-.835-.72-.876-.375-.042-.468.441-.789.39-.32-.051-.454-.38-.76-.49-.306-.11-.655.196-1 .1-.347-.097-.303-.507-.573-.626-.271-.12-.608.375-.98.256-.372-.12-.315-.448-.602-.628-.286-.18-.47.223-.905.115-.436-.109-.375-.384-.64-.551-.263-.167-.52.179-1.02 0-.498-.179-.285-.535-.56-.676-.273-.141-.582.397-1.132.077-.55-.32-.393-.606-.48-.689-.087-.082-.733-.039-.934-.397-.202-.358-.37-1.203-.802-1.32-.433-.116-1.005-.157-1.226.12-.222.277-.957.464-1.2.341s-.143-.669-.303-.719c-.16-.05-.707.341-1.046.167-.338-.173-.208-.553-.394-.713-.185-.16-.682.278-1.112.05-.429-.227-.119-.546-.345-.73-.227-.183-.784.269-1.094 0-.31-.268-.22-.758-.394-.87-.173-.112-.663.226-.99 0-.325-.226-.347-.64-.513-.725-.166-.086-.658.17-.948 0-.289-.17-.184-.57-.369-.705-.184-.135-.615.078-.877-.086-.263-.164-.283-.691-.421-.794-.139-.102-.664-.045-.864-.197-.2-.152-.21-.495-.388-.668-.179-.173-.81-.77-.901-1.454-.06-.455-.06-.783 0-.982 2.582.921 4.804 1.665 6.665 2.233 2.791.85 13.207 3.075 17.897 3.693 4.69.618 10.008 1.445 14.985 1.285 4.977-.159 15.867-1.728 19.466-2.59 3.6-.861 12.355-3.38 13.536-3.854.787-.317 1.52-.636 2.2-.956Z"/>
    <path fill="#637078" d="m10.155 57.886 6.034 2.404-3.724-.863c-1.052-.252-1.716-.422-1.991-.512a1.233 1.233 0 0 1-.33-.161l.014.103c-.06-.447-.06-.771-.003-.971Z"/>
    <path fill="#92B0C3" d="M84.907 57.686c.729.14 1.093.37 1.093.686l-.018.598a35.317 35.317 0 0 1-.263 3.033l-.464.153c-1.475.459-4.634 1.257-4.067 1.052l.223-.073c1.625-.505 3.082-1.335 3.368-1.604.286-.268.227-1.269 0-1.629-.226-.36-1.46-.386-2.69-.01l-2.27.688c-2.071.617-4.914 1.434-6.464 1.74l-.312.057c-1.845.312.069-.422 1.941-1.024l.847-.264c.843-.255 2.136-.798 3.441-1.37l2.588-.787c.397-.127.69-.227.847-.29.787-.317 1.52-.636 2.2-.956Z"/>
    <path fill="#BDCED8" d="m85.454 63.486-.186.755c-.207.812-.386 1.385-.536 1.719.27.38.27.608 0 .683-.27.074-.577.196-.92.365.423-.037.61.043.56.24-.05.197-.434.463-1.152.8.253.212.349.385.287.518-.061.134-.424.306-1.089.518l-.7.086c-.106.219-.246.327-.42.323-.259-.004-.4-.137-.554-.097-.153.039-.23.32-.425.357-.195.039-.344-.214-.607-.17-.263.044-.25.267-.428.326-.179.06-.558-.237-.876-.156-.317.081-.399.382-.681.426-.282.045-.445-.344-.713-.27-.268.074-.31.48-.615.497-.304.018-.476-.276-.783-.227-.307.05-.374.357-.674.407-.3.049-.492-.365-.775-.307-.283.057-.364.502-.794.555-.43.053-.577-.4-.845-.343-.27.057-.443.412-.784.454-.342.041-.684-.132-.993-.11-.309.02-.529.329-.905.345-.376.017-.619-.229-.898-.235-.28-.007-.334.254-.815.235-.48-.018-.496-.333-.852-.346-.214-.007-.3.18-.416.34-.96-.573-2.142-1.702-2.567-2.154l-1.41-1.621c5.848-.92 10.445-1.847 13.792-2.778l4.09-1.137c2.216-.623 3.896-1.128 4.966-1.582a17.333 17.333 0 0 1-.282 1.584Z"/>
    <path fill="#8B859E" d="m82.415 68.377.876-.262-.07-.068c.252.213.348.386.286.52-.061.133-.424.305-1.089.517l-.7.086c-.106.219-.246.327-.42.323-.259-.004-.4-.137-.554-.097-.153.039-.23.32-.425.357-.195.039-.344-.214-.607-.17-.263.044-.25.267-.428.326-.179.06-.558-.237-.876-.156-.317.081-.399.382-.681.426-.282.045-.445-.344-.713-.27-.268.074-.31.48-.615.497-.304.018-.476-.276-.783-.227-.307.05-.374.357-.674.407-.3.049-.492-.365-.775-.307-.283.057-.364.502-.794.555l-.067-.003-.153-.322a10.59 10.59 0 0 0-.232-.442 47.116 47.116 0 0 0 9.494-1.69Z"/>
    <path fill="#A0ABB9" d="M84.371 67.248c-.05.197-.433.463-1.15.8l.103.091c-1.607.517-3.244.93-4.914 1.24-1.669.309-3.498.538-5.489.688l-.58-.671c2.75-.232 4.816-.51 6.197-.834 2.07-.485 3.414-.906 5.397-1.58.278.01.47.135.436.266Z"/>
    <path fill="#BECED6" d="M58.276 68.068c-.223.04-11.79 1.156-13.296 1.207.413.58.856 1.159 1.33 1.736h9.667l.96-.64c1.042-1.562 1.488-2.33 1.34-2.303Z"/>
    <path fill="#6094B5" d="M11.171 60.474a38.2 38.2 0 0 1 3.353 1.457l.889.446c2.536 1.303 5.44 2.38 5.993 2.462.552.082 1.794-.127 2.574.207.779.333 1.192 1.42 1.469 1.6l.181.096c.541.26 2.01.83 3.766 1.388 2.024.644 8.286 1.748 8.787 1.592.5-.155 1.76-1.232 3.114-1.961 1.354-.729 2.877.076 3.333.369.456.293 1.685 1.739 2.114 1.85.429.11 8.738.28 9.277.166.54-.115 1.172-.74 1.618-1.712.446-.973 1.72-2 2.713-2.3.994-.3 2.635.315 3.066.806.431.492 1.393 2.342 2.692 2.55 1.298.21 5.776-.095 6.23-.094.258 0 .632.47 1.121 1.41l-.088.028c-.43.053-.577-.4-.845-.343-.27.057-.443.412-.784.454-.342.041-.684-.132-.993-.11-.309.02-.529.329-.905.345-.376.017-.619-.229-.898-.235-.28-.007-.334.254-.815.235-.48-.018-.496-.333-.852-.346-.356-.012-.36.517-.728.552-.367.034-.779-.78-.962-.8l-.655-.015c-.285-.015-.58-.055-.708-.165-.255-.219-2.115-2.47-2.631-2.849l-.267-.18c-.461-.275-1.006-.396-1.699.18-.832.692-1.193 1.215-1.241 1.527-.05.312.071.499-.1.67-.17.17-.493.188-.652.425-.158.237-.002.933-.396 1.001-.393.069-.59-.219-.768-.136-.178.083-.275.776-.55.846-.276.07-.644-.409-.96-.386-.317.022-.577.472-.951.487-.375.015-.387-.468-.736-.487-.35-.02-.295.487-.665.487-.37 0-.596-.487-.894-.487-.297 0-.325.487-.68.487-.353 0-.571-.487-.87-.487-.298 0-.226.487-.668.487-.442 0-.484-.487-.863-.487s-.259.487-.734.487c-.474 0-.556-.487-.84-.487-.285 0-.265.386-.626.386-.36 0-1.802-1.432-2.417-2.237-.615-.806-1.72-1.038-2.307-.927-.586.112-1.104.625-1.217.767-.113.143-.05.288-.187.416-.139.128-.537.096-.693.27-.155.175-.429.87-.616.974-.188.103-.535-.246-.719-.208-.184.038-.467.498-.977.44-.51-.056-.452-.613-.838-.716-.387-.102-.568.572-1.026.486-.457-.087-.346-.835-.72-.876-.375-.042-.468.441-.789.39-.32-.051-.454-.38-.76-.49-.306-.11-.655.196-1 .1-.347-.097-.303-.507-.573-.626-.271-.12-.608.375-.98.256-.372-.12-.315-.448-.602-.628-.286-.18-.47.223-.905.115-.436-.109-.375-.384-.64-.551-.263-.167-.52.179-1.02 0-.498-.179-.285-.535-.56-.676-.273-.141-.582.397-1.132.077-.55-.32-.393-.606-.48-.689-.087-.082-.733-.039-.934-.397-.202-.358-.37-1.203-.802-1.32-.379-.102-.864-.146-1.128.03l-.098.09c-.222.277-.957.464-1.2.341s-.143-.669-.303-.719c-.16-.05-.707.341-1.046.167-.338-.173-.208-.553-.394-.713-.185-.16-.682.278-1.112.05-.429-.227-.119-.546-.345-.73-.227-.183-.784.269-1.094 0-.31-.268-.22-.758-.394-.87-.173-.112-.663.226-.99 0-.325-.226-.347-.64-.513-.725-.166-.086-.658.17-.948 0-.289-.17-.184-.57-.369-.705-.184-.135-.615.078-.877-.086-.263-.164-.283-.691-.421-.794-.139-.102-.664-.045-.864-.197a.526.526 0 0 1-.15-.202l-.126-.303Z"/>
    <path fill="#D1E7F2" d="M62.349 67.527c.625.493 1.102 1.29 1.432 2.388l-1.079-1.222c-.458-.513-.894-.98-1.105-1.136l-.267-.18c-.226-.134-.471-.232-.744-.23.588-.209 1.176-.082 1.763.38Z"/>
    <path fill="#DBD9DE" d="M86 57.076c-.007-.364-1.773-1.556-2.293-1.85-.52-.295-.839-.163-1.14-.129-.3.034-1.249.233-1.618.209-.369-.024-1.536-.383-2.096-.386-.56-.002-1.98-.276-5.458.81-3.48 1.086-10.124 2.897-14.103 3.92-3.979 1.023-8.94 1.735-9.975 1.766-1.035.032-3.63.065-6.301.233-2.672.168-14.9-.88-18.654-1.64-3.755-.76-10.048-2.29-11.02-2.525-.97-.235-2.102-.737-2.308-.905-.206-.168-.276-.385-.587-.22-.31.167-.448.452-.448.929 0 .477-.012.826.187.926.2.101 6 2.505 13.82 4.111 7.82 1.606 17.89 3.126 20.01 3.293 2.12.166 8.469.129 15.968-.89 7.499-1.02 15.66-3.39 19.14-4.376 3.48-.985 6.249-2.393 6.46-2.505.212-.113.423-.407.416-.771Z"/>
    <path fill="#E0DEE4" d="m73.777 55.614.08-.024c3.144-.922 4.461-.672 4.996-.67.56.003 1.727.362 2.096.386.158.01.423-.02.698-.061l1.187-.189c.233-.033.501-.04.873.17l.318.193c.704.448 1.97 1.35 1.976 1.657.006.364-.205.658-.416.77l-.656.322a39.034 39.034 0 0 1-5.805 2.184l-3.221.906c-2.585.713-5.947 1.592-9.503 2.34.21-.219.551-.478 1.04-.784l.312-.189c3.786-2.232 5.794-4.57 6.025-7.01Z"/>
    <path fill="#E5E5E5" d="M73.395 55.73c3.479-1.086 4.898-.812 5.458-.81.56.003 1.727.362 2.096.386.158.01.423-.02.698-.061l1.187-.189c.233-.033.501-.04.873.17l.318.193c.704.448 1.97 1.35 1.975 1.657.007.364-.204.658-.415.77l-.47.234a39.31 39.31 0 0 1-4.971 1.966l-.457.072c-.855.118-2.682.372-2.16.1 2.535-1.316 4.031-3.025 3.339-3.033l-.806.11c-.966.081-4.326.53-10.079 1.347a4.567 4.567 0 0 1-.083-1.875l1.886-.548 1.61-.489Z"/>
    <path fill="#CFCED2" d="M10.124 56.672c2.336 2.161 9.12 3.909 17.19 5.298 9.65 1.661 17.057 1.654 19.524 1.5l.194-.012c2.183-.16 13.927-3.24 17.446-3.864l5.878-.878 1.078-.17 3.473-.58c2.82-.454 3.88-.533 4.521-.636 3.366-.54-3.725 3.664-9.426 5.232-3.137.75-6.67 1.71-10.018 2.166-7 .95-12.996 1.047-15.488.92l-.48-.03c-2.12-.167-12.19-1.687-20.01-3.293l-1.25-.267c-7.182-1.592-12.381-3.748-12.57-3.844-.199-.1-.188-.45-.188-.926 0-.204.026-.374.08-.513l.046-.103Z"/>
    <path fill="#D4D3D7" d="m70.002 62.562-3.665.895c-2.096.504-4.26.986-6.353 1.27-.65.089-1.293.17-1.924.244l1.03-.28c3.912-1.083 9.143-2.73 10.844-3.612 1.918-.995 2.414-2.233 2.107-2.637l2.866-.476 2.388-.358c1.129-.155 1.719-.211 2.133-.278 3.366-.54-3.725 3.664-9.426 5.232Z"/>
    <path fill="#D9D6DD" d="m70.002 62.562-3.872.944c-.443.106-.888.21-1.336.313l1.932-.65c2.7-.922 5.796-2.047 8.032-3.066l.626-.295c2.625-1.276 2.68-1.914.164-1.915l.017-.033 1.242-.185c1.455-.207 2.151-.27 2.621-.345 3.366-.54-3.725 3.664-9.426 5.232Z"/>
    <path fill="#D7DFE3" d="M85.957 57.37a.831.831 0 0 1-.372.477l-.656.321a39.034 39.034 0 0 1-5.805 2.184l-3.836 1.075c-3.9 1.063-9.327 2.426-14.526 3.19l-.778.11c-7 .952-12.996 1.048-15.488.921l-.48-.03c-2.12-.167-12.19-1.687-20.01-3.293l-1.25-.267c-7.182-1.592-12.381-3.748-12.57-3.844-.113-.057-.158-.194-.176-.389l.333.19c.512.275 1.158.554 1.937.836 1.564.569 8.252 2.413 10.41 2.897l1.809.363c3.238.627 9.962 1.89 12.99 2.367l1.68.24c3.81.508 12.972 1.464 23.473-.634l.79-.163c10.895-2.323 15.992-3.77 21.173-5.965l1.352-.586Z"/>
    <path fill="silver" d="M85.758 56.72c.148.148.24.273.242.356a.914.914 0 0 1-.051.32l-.143.09c-.273.157-.728.356-1.49.656l-4.28 1.62c-5.137 1.69-10.84 2.963-9.965 2.748 6.794-1.64 13.92-4.572 14.888-5.03.565-.267.834-.511.807-.733l-.008-.028Z"/>
    <path fill="#F0F0F0" d="M73.395 55.73c3.479-1.086 4.898-.812 5.458-.81.56.003 1.727.362 2.096.386.158.01.423-.02.698-.061l1.187-.189c.233-.033.501-.04.873.17l.396.243c.566.366 1.421.974 1.756 1.358-.026.23-.366.41-1.127.72l-2.722 1.082c-2.644.961-7.15 2.382-6.033 1.957l1.217-.388c2.85-1.026 8.025-2.854 8.06-3.196.036-.342-1.503-1.542-1.966-1.606-.463-.065-1.887.118-2.378.223-.49.105-.76-.066-1.101-.223-.342-.158-1.326-.171-2.862-.13-1.536.041-4.046.808-4.466.961-.42.153-1.034.506-1.061.672-.028.167.498.88.695.994.17.099 1.71-.03 2.983-.174l3.665-.414c1.072-.106 1.827-.158 1.202-.02l-.626.124c-2.153.402-7.383 1.259-7.52 1.521-.133.253-.674.608-1.333.74l-.253.04c-.77.08-6.114 1.575-10.2 2.539l-2.343.531c-3.87.852-8.699 1.812-10.017 2.034l-.152.025c-1.267.198-1.576-.11-1.918-.783-.342-.673.729-1.804.698-1.866-.031-.062-1.195-.126-2.791-.054-1.597.071-3.425-.033-5.329-.146-4.096-.242-11.763-1.005-15.061-1.752-3.298-.747-10.54-2.462-11.489-2.845-.95-.383-1.372-.577-1.435-.697-.064-.12-.007-.15.051-.191.043-.03.199-.205.361-.207.162-.003.202.053.299.154l.127.127c.185.15 1.12.573 2.014.827l4.303 1.036c2.109.496 4.636 1.076 6.599 1.482l.412.084c3.637.736 15.226 1.744 18.376 1.653l1.86-.098c2.065-.095 3.891-.122 4.72-.147l.533-.04c1.602-.159 5.558-.767 8.96-1.605l1.987-.513c3.46-.908 8.078-2.172 11.247-3.117l1.35-.41Z"/>
    <path fill="#E3BA5B" d="M71.569 58.613c.07-.407.15-.851-.711-1.4-.862-.55-4-2.253-4.768-2.334-.769-.08-1.81-.136-3.15.59-1.34.726-12.604 5.703-13.054 5.87-.45.166-1.255.27-1.648.46-.392.19-2.118 1.132-2.231 1.31-.114.179-.146.767 0 1.064a.679.679 0 0 0 .508.405c.166.037 1.446-.109 2.231-.285.786-.177 10.46-2.07 15.615-3.36 5.154-1.29 5.902-1.486 6.203-1.59.301-.105.934-.323 1.005-.73Z"/>
    <path fill="#FFEBBC" d="M62.94 55.47c1.34-.727 2.381-.67 3.15-.59.769.08 3.906 1.783 4.768 2.332.562.359.723.673.748.961l-1.367-1.017c-2.535-1.479-3.869-2.021-5.249-1.896-1.38.125-13.342 5.822-15.158 6.446-.897.308-2.29.828-3.513 1.17a27.173 27.173 0 0 1 1.92-1.077c.392-.19 1.197-.294 1.647-.46l1.08-.464c2.738-1.196 9.795-4.33 11.651-5.241l.323-.165Z"/>
    <path fill="#9D771D" d="m69.954 56.633.237.182.536.316.13.081c.862.55.782.994.712 1.401-.053.306-.422.505-.73.629l-.54.182c-.447.127-1.501.397-4.52 1.154l-2.292.57a263.31 263.31 0 0 1-6.73 1.497L48.52 64.34l-.495.087c-.68.108-1.39.178-1.51.15a.679.679 0 0 1-.51-.404c-.145-.297-.113-.885 0-1.064.114-.178 1.84-1.12 2.232-1.31.315-.152.893-.25 1.342-.367l.075-.025.016.021-.607.187a6.41 6.41 0 0 0-.804.306l-1.253.684c-.357.2-.678.399-.777.522-.222.277-.19.967.19 1.176.352.194 2.753-.218 3.59-.424l.165-.043c.568-.168 2.398-.452 3.531-.706l13.895-3.24a50.72 50.72 0 0 0 1.053-.263l1-.282c1.049-.313 1.487-.52 1.61-.692.157-.22.103-.67 0-.878-.069-.139-.505-.519-1.31-1.142Z"/>
    <path fill="#DBA83E" d="M62.269 57.05c-.072.207-.102.81.278.93s4.246-1.261 4.472-1.319c.226-.058.518.189-.15.492-.67.303-2.725 1.435-3.447 1.741-.722.306-1.54.53-1.879-.02-.34-.55.25-1.567.416-1.783.166-.217.381-.249.31-.041Z"/>
    <path fill="#FDE0A4" d="m67.278 56.767.002.043-.31.292-.102.05c-.669.304-2.724 1.436-3.446 1.742l-.4.155c-.603.207-1.201.275-1.479-.175-.166-.269-.11-.65.01-.993.006.313.028.515.17.772.192.343.767.379 1.704-.011l.338-.147c.257-.117.58-.269.968-.457l2.545-1.27Z"/>
    <path fill="#B18928" d="m67.279 56.772-.964.314c-.33.111-.639.218-.925.321l-.413.152c-.99.372-2.014.692-2.423.656-.358-.032-.499-.27-.472-.654l.022-.173c.023-.132.013-.235-.095-.115l-.062.08c-.166.233-.368.535-.413 1.06-.017.196.013.386.09.568l-.081-.107c-.34-.55.25-1.567.416-1.783.143-.186.32-.236.324-.116l-.014.075c-.072.207-.102.81.278.93s4.246-1.261 4.472-1.319c.113-.029.242.018.26.11Z"/>
    <path fill="#E7C335" d="M78.093 42.396c-.225.018-.791.117-1.042.669-.25.552-.156 1.422-.326 2.262-.17.84-.907 2.394-1.089 2.717-.182.324-.08.962.286.329.367-.633.75-1.22 1.029-2.208.278-.988.258-2.227.319-2.627.06-.4.421-.8.836-.95.415-.152.212-.21-.013-.192Z"/>
  </g>
</svg>
