<svg xmlns="http://www.w3.org/2000/svg" viewBox="0 0 322 322">
  <g fill="none" fill-rule="evenodd">
    <path fill="none" d="M1 1h320v320H1z"/>
    <path fill="#911210" d="M198.291 104.755c-2.4.09-4.895.826-6.897 4.755-2.002 3.93-6.95 9.21-9.635 18.849-2.686 9.639 12.773-14.328 15.233-19.039 2.46-4.71 3.7-4.656 1.3-4.565Z"/>
    <path fill="#DEDEDE" d="M220.018 128.588c2.663-4.761 6.315-11.14 2.222-16.773-4.093-5.631-11.706-8.916-13.706-10.515-2-1.6-1.32-4.756-3.245-5.382-1.926-.626-3.41.483-5.338 3.027-1.928 2.545-5.213 7.674-6.365 9.98-1.152 2.307-9.669 16.466-12.445 25.02-2.776 8.554 36.213-.595 38.877-5.357Z"/>
    <path fill="#CACACA" d="M209.694 102.081c2.923 1.794 9.032 4.9 12.546 9.734 4.093 5.632.441 12.012-2.222 16.773-1.166 2.083-9.283 5.006-17.814 6.919 4.86-12.25 7.45-19.453 7.768-21.61.351-2.385.273-6.176-.233-11.373Z"/>
    <path fill="#E8E8E8" d="m201.402 97.235.014-.013c1.286-1.29 2.46-1.763 3.873-1.304 1.925.626 1.246 3.783 3.245 5.382 2 1.599 9.613 4.884 13.706 10.515 4.093 5.632.441 12.012-2.222 16.773-.564 1.007-2.752 2.21-5.825 3.401l.843-1.738c2.353-4.906 5.688-12.359 5.422-14.596-.375-3.148-3.709-5.56-7.81-7.955l-1.427-.826c-3.851-2.267-5.595-3.79-6.653-5.44-1.125-1.759-.616-2.751-1.66-3.421-.387-.248-1.002-.471-1.506-.778Z"/>
    <path fill="#D9D9D9" d="M222.271 112.43c.379.43.724.845 1.04 1.244 2.241 5.14-.92 10.67-3.293 14.914-.564 1.007-2.752 2.21-5.825 3.401l.843-1.738.746-1.573c2.25-4.8 4.915-11.014 4.676-13.023-.375-3.148-3.709-5.56-7.81-7.955l-.882-.51.759.083c2.669.314 6.127 1.037 9.746 5.157Z"/>
    <path fill="#F3F2F2" d="M205.289 95.918c1.925.626 1.246 3.783 3.245 5.382 1.082.864 3.804 2.222 6.724 4.177l-1.034-.406c-3.838-1.48-7.164-2.449-7.212-1.014-1.142-.923-1.888-1.755-2.444-2.624-1.125-1.758-.616-2.75-1.66-3.42-.3-.192-.736-.369-1.152-.582.13-.307.287-.615.469-.918.988-.74 1.952-.956 3.064-.595Z"/>
    <path fill="#BC7B66" d="M204.945 98.807c-.532.553-.658 1.429-.377 2.626-1.612.11-2.616.767-3.166 1.605-.55.839-3.769 5.292-4.642 4.922-.874-.37.54-2.772 2.053-5.661 1.513-2.89 4.543-5.197 5.18-4.674.426.349.743.743.952 1.182Z"/>
    <path fill="#F1E3DC" d="M201.767 96.639c1.153-.935 2.238-1.138 3.522-.72 1.284.417 1.41 1.962 1.945 3.419-.543-.481-1.066-.728-1.57-.743-.918-.027-1.6.518-2.644 1.086-1.043.568-.89.216-1.618 1.283l-.165.256c-.85 1.384-2.792 5.28-3.087 5.772-.317.527-1.281 1.495-1.659.99-.19-.256-.584-.817-.613-1.57-.029-.733.295-1.647.903-2.775l.303-.55c1.09-1.946 2.968-4.914 4.602-6.38l.081-.068Z"/>
    <path fill="#E0C7BB" d="M204.125 98.465c1.751.013 2.774.277 3.068.79l.04.083c-.542-.481-1.065-.728-1.568-.743-.919-.027-1.602.518-2.645 1.086-1.043.568-.89.216-1.618 1.283l-.165.256-.183.308c-.918 1.58-2.628 5.004-2.904 5.464-.159.264-.48.638-.808.883.395-1.425 1.042-3.12 1.612-4.23l.774-1.466c.9-1.674 2.218-3.731 4.397-3.714Z"/>
    <path fill="#C94A1B" d="m199.861 99.797-1.64 2.86c-.891 1.57-1.756 3.16-1.73 3.453.028.306.03.931.004 1.874l-.004-.002c-.19-.256-.584-.817-.613-1.57-.029-.733.295-1.647.903-2.775l.303-.55c1.09-1.946 2.968-4.914 4.602-6.38l.081-.068c.213-.173.423-.32.633-.443l-.482.63c-.924 1.224-1.61 2.214-2.057 2.97Z"/>
    <path fill="#8E4130" d="M105.5 179.052c-.422.452-2.33 1.676-1.738 1.745.592.068 5.753-.798 8.374-2.125 2.62-1.327 8.063-2.65 10.968-4.46 2.904-1.81 8.367-4.847 12.052-5.931 3.685-1.084 9.412-3.695 12.021-5.172 1.373-.778 8.254-4.944 15.03-9.989 2.873-2.139 7.49-4.173 9.867-6.205 2.67-2.283 2.975-4.488 3.77-5.32.279-.294 5.628-8.89 5.878-11.498.25-2.607-5.544 4.782-7.958 9.31-3.068 3.175-8.009 6.52-8.924 6.966-.613.298-3.535 2.928-7.6 5.546-3.3 2.125-8.461 5.046-10.64 7.299-3.813.588-6.402 1.781-7.974 2.467-1.48.645-2.213 1.357-3.056 2.56-1.152.901-3.431 1.204-4.484 1.744-3.233 1.657-5.133 1.73-6.072 2.142-.94.412-2.09 1.017-2.595 1.623-.505.605-.592 1.53-1.617 2.208-1.979 1.308-5.675 2.625-6.637 3.1-1.084.538-3.126 1.212-4.97 2.02-1.841.805-3.484 1.744-3.695 1.97Z"/>
    <path fill="#EFEBEA" d="M43.83 206.633c1.712-10.147 5.311-15.952 10.798-17.413 8.23-2.192 25.576-3.269 32.157-4.522 6.58-1.253 12.751-2.737 18.105-4.413 1.78-.557 7.539-2.492 13.934-5.698 8.542-4.282 12.469-7.274 21.314-10.477 4.069-1.473 13.647-8.256 14.892-9.129 3.88-2.718 9.733-6.942 14.554-10.32 2.106-1.475 2.468-2.275 3.193-3.138 2.384-2.839 7.548-10.436 9.85-14.567 1.461-2.623 7.24-11.672 12.069-17.57 2.778-3.393 2.65-4.633 6.943-4.98 1.24-.101 2.932.285 4.819 1.312 4.4 2.394 9.884 7.182 13.349 9.602 4.95 3.458 18.091 8.53 29.15 9.901 11.058 1.372 16.421-2.504 17.88-2.365 1.46.139 2.338 1.319 2.485 2.365 1.755.308 2.022 2.465 2.084 8.02.063 5.555 2.655 18.024 3.961 24.031 1.306 6.008 2.19 24.316 1.76 32.667-.43 8.352-.627 17.623-1.76 21.921-1.133 4.3-41.36 7.443-65.379 8.135-24.018.692-88.864 5.25-114.659 2.218-17.196-2.022-34.363-7.215-51.499-15.58Z"/>
    <path fill="#E2CAC6" d="m186.479 120.783.435-.656-.215.77c-.775 2.726-1.77 5.752-1.731 7.766l.012.281c.4 5.492-6.72 10.002-5.847 11.824l.13.282c.936 2.12 2.844 8.018 1.938 11.498-.939 3.606-15.05 1.653-23.54 7.752l-.297.218c-8.452 6.365-43.413 20.543-45.135 20.408l-.176-.018c-.81-.1-2.859-.507-5.398-1.205l.552-.193a102.619 102.619 0 0 0 11.617-4.923c8.542-4.282 12.469-7.274 21.314-10.477 3.284-1.189 10.155-5.836 13.34-8.044l1.552-1.085c3.88-2.718 9.733-6.942 14.554-10.32 2.106-1.475 2.468-2.275 3.193-3.138 2.318-2.76 7.263-10.017 9.652-14.215l.457-.808c.715-1.23 2.007-3.309 3.593-5.717Z"/>
    <path fill="#BBB" d="M202.576 105.156c3.284 1.384 11.162 8.334 18.533 12.768 7.37 4.434 20.724 8.143 27.66 8.773 4.016.364 10.14-.377 14.622-1.537 2.132-.552 3.887-1.36 4.883-1.733.59.464.95 1.14 1.045 1.77-.039.129-.092.24-.159.333-.159.222-3.012 1.55-6.69 2.532-3.332.89-8.18 1.213-14.089.468-11.633-1.467-19.397-3.636-29.584-9.736l-1.233-.746c-9.027-5.508-11.433-8.163-12.435-8.521l-.043-.015c-1.018-.308-6.607-1.475-8.094-.364-1.488 1.11 2.3-5.376 5.584-3.992Z"/>
    <path fill="#EBE4E3" d="m271.387 131.998.02 1.243c.037 3.396 1.021 9.375 2.078 14.883-7.28 5.14-16.663 9.64-24.892 12.154-16.45 5.026-44.159-12.93-48.725-24.118-4.566-11.187-3.57-15.868-1.34-17.959 2.132-2 10.566 1.353 18.61 5.818l1.617.91c8.87 4.934 34.028 16.137 43.332 11.728 5.326-2.524 8.065-5.925 8.817-9.286l.055-.27c.278 1.078.383 2.665.428 4.897Z"/>
    <path fill="#E5DCDA" d="M208.062 110.468c1.276 1.137-6.082 9.133-4.627 10.219 9.05 6.751 21.051 11.99 34.626 17.358l1.546.605c12.773 4.951 26.613 7.149 32.139-1.118.755 6.215 2.59 14.994 3.621 19.74 1.285 5.91 2.161 23.72 1.78 32.249l-.18 3.72c-.337 7.383-.615 14.881-1.6 18.62-1.099 4.17-38.982 7.252-63.175 8.065l-3.714.116c-16.808.553-50.463 2.668-78.466 3.117-1.931-4.727-2.933-10.687-3.004-17.88 12.165 3.895 23.075 2.06 33.78-1.027 10.703-3.086 29.925-8.542 38.794-23.158 2.054-3.386.759-8.899-5.335-19.085-1.056.986-6.443 5.858-14.394 4.927-7.613-.892-14.703-1.143-18.118 2.229-8.6 8.492-14.233 9.775-16.557 10.233-10.595 2.087-13.806 4.741-16.196 7.081-2.085 1.647.86 10.204 1.11 11.284-4.065-.644-12.556-15.35-5.607-17.045 20.527-5.005 26.318-18.554 40.164-23.23 9.11-3.075 16.801-.16 17.526-.699 5.762-4.28 1.633-10.92-1.175-14.612 6.04-24.523 20.714-37.36 27.062-31.709Z"/>
    <path fill="#92837F" d="m206.558 216.016 7.228.18c6.736.184 10.78.34 12.133.47l-.992 2.685-2.419.13c-3.603.187-7.082.337-10.316.445l-3.714.116c-13.197.434-36.781 1.831-59.86 2.63l.77-2.83 6.286-.62c23.953-2.308 40.914-3.377 50.884-3.206Z"/>
    <path fill="#D3CFCF" d="m272.914 145.048.111.62c.796 4.37 1.717 8.728 2.342 11.604l.109.534c.88 4.586 1.55 14.676 1.719 23.066-7.529-1.158-20.743-6.122-26.803-10.676-8.106-6.092 5.113-12.786 7.797-13.876l.151-.06c1.408-.54 6.266-4.276 14.574-11.212Z"/>
    <path fill="#E3E3E3" d="m276.56 167.34-.428.541c-.465.576-.951 1.14-1.459 1.69a32.765 32.765 0 0 1-5.264 4.584l-.598.412-.56-.83c2.153-1.45 4.048-3.066 5.687-4.844a32.509 32.509 0 0 0 2.503-3.068c.04.494.08 1 .119 1.514Zm-1.274-10.448.081.38c.057.262.113.546.168.852a84.12 84.12 0 0 1-4.935 5.112l-.67.631c-2.069 1.926-4.703 4.146-7.902 6.662l-.883.689.009.115c.116 1.44.656 1.847 1.81 1.466l.142-.05c2.451-.903 6.57-4.153 9.99-7.9l.552-.611.611-.69a49.07 49.07 0 0 0 1.752-2.1l.104.924.05.48a63.613 63.613 0 0 1-1.747 2.025l-.584.646c-3.517 3.855-7.75 7.195-10.382 8.164-1.984.731-3.169-.197-3.308-2.471l-.01-.217-.008-.255 1.282-1 1.092-.865c3.029-2.416 5.498-4.538 7.408-6.365 2.01-1.924 3.803-3.798 5.378-5.622Zm-.666-3.121-.224.25a59.025 59.025 0 0 1-6.483 6.203l-.678.545c-3.108 2.455-6.497 4.822-10.167 7.101l-1.008.62-.52-.855c4.026-2.448 7.717-4.998 11.075-7.65 2.712-2.144 5.296-4.623 7.751-7.437l.254 1.223Z"/>
    <path fill="#D5C4C0" d="m207.799 127.45 4.404 2.64c18.162 10.927 27.368 16.864 35.27 18.74 8.379 1.989 17.474-2.638 24.078-8.41l.523-.46c.515 3.495 1.256 7.455 1.963 10.968.116.575-2.34 2.762-4.105 4.006l-.98.7c-3.658 2.569-10.448 6.829-11.252 7.82-.854 1.053 7.892 9.418 16.807 9.452l-.146.167c-1.987 2.249-5.58 4.973-15.792-.167l-.639-.327c-10.598-5.507-29.28-19.096-32.399-6.579-1.938 7.782-2.103 25.563-.493 53.344l-2.279.123a564.23 564.23 0 0 1-10.782.466l-3.247.1c-1.293.042-2.688.094-4.174.153l.343-1.07c3.686-11.656 6.679-27.286 3.257-28.165l-2.035-.541c-3.019-.772-5.28-.86-13.942 2.51l-1.417.558c-9.858 3.926-18.5 8.203-28.007 8.542-9.96.355-15.072-5.877-11.868-15.902 3.203-10.025 6.814 2.439 19.975 1.059 12.563-1.317 25.187-6.563 30.569-8.585l.718-.266c4.823-1.753 4.431-5.686.176-12.027l-.203-.299c-2.915-4.275-5.66-7.288-8.231-9.04-.058 1.104-3.621 6.788-9.005 7.745-5.385.957-11.716-.887-16.554-.303-4.715.57-7.911 3.514-12.231 7.967l-.337.354c-3.94 3.86-9.973 5.3-17.52 7.138-3.025.737-8.423 3.76-14.291 8.222-2.979-2.403-2.413-5.387 1.696-8.95l.443-.376c6.667-5.546 26.893-17.802 37.678-19.4l1.427-.204c10.472-1.464 21.013-2.15 20.228-7.942l-.031-.2c-1.103-6.245 1.279-36.182 22.405-23.562Z"/>
    <path fill="#AC9793" d="m205.839 216.006.968.015 7.632.194c5.123.142 8.605.267 10.445.376l.14 2.498-.097.26-2.168.118a564.23 564.23 0 0 1-10.782.466l-3.247.1-2.719.096-1.455.057.343-1.07c.32-1.01.635-2.052.94-3.11Z"/>
    <path fill="#E3B4A4" d="m271.401 132.83.005.41c.032 2.78.696 7.287 1.515 11.85l-.477.606-.29-1.042c-1.314-4.77-2-8.255-2.057-10.455-.054-2.085.267-4.826.806-7.301.356 1.2.46 3.102.498 5.932Z"/>
    <path fill="#B6A7A3" d="M273.998 150.735c.068.485-.44 1.214-1.525 2.186-1.627 1.458-3.33 2.615-6.333 4.67l-1.287.864c-3.396 2.265-6.661 4.201-6.066 5.883.594 1.681 3.861 6.301 13.793 8.626-1.027.94-2.864 1.982-3.524 2.847-2.393.18-5.718-.505-10.487-2.905l-.639-.327c-2.45-1.274-5.334-2.98-8.357-4.694-2.094-2.535-2.389-4.024-2.273-4.328.132-.35 9.514-5.851 15.973-9.605l5.993-3.469c.17-.096 1.499-1.297 3.985-3.603.244 1.312.497 2.61.747 3.855Z"/>
    <path fill="#E0D4D0" d="m134.735 223.068-.091.003-3.462.068c-14.318.252-27.255.085-35.853-.926-17.196-2.022-34.363-7.215-51.499-15.58 1.712-10.147 5.311-15.952 10.798-17.413l.386-.1c.188 1.031 2.022 2.102 6.539 3.142 14.666 3.377 27.943 2.346 32.509 4.374l.178.083c4.324 2.107 8.007-.65 6.677-6.913l-.064-.287c-.641-2.754-.18-5.152.686-6.491 1.167-1.804 3.5-1.924 5.075-2.226 1.73-.33 11.103 13.758 28.121 42.266Z"/>
    <path fill="#EFEFEF" d="M208.737 107.18c3.97 3.07 7.678 5.771 11.07 8.14 4.95 3.458 18.091 8.53 29.15 9.901 11.058 1.372 16.421-2.504 17.88-2.365 1.183.112 1.984.908 2.323 1.763-.849.753-2.495 1.465-4.938 2.135-5.02 1.377-13.274 2.239-21.34.36l-1.62-.38c-7.582-1.806-15.553-4.078-24.467-9.847-9.55-6.182-12.296-9.417-14.98-9.832-2.683-.416-5.346 1.607-6.35 2.8-.381.453-.541.058-.402-.648a65.526 65.526 0 0 1 2.983-3.444c.475-.422.905-1.023 2.152-1.291 1.248-.268 4.569-.36 8.54 2.709Z"/>
    <path fill="#F15B0A" d="M61.025 188.052c-3.254-.916-5.77-.659-7.546.773-3.035 1.21-5.934 2.062-9.832 16.05.145 3.017 7.163 6.96 26.093 11.598 18.93 4.636 31.995 7.266 44.608 7.453 8.408.125 21.407-.503 38.997-1.884-5.343-6.178-10.594-11.3-15.752-15.364-7.738-6.096-10.232-18.375-10.932-22.532-.7-4.156-3.95-7.566-6.32-7.458-2.37.11-11.764 4.198-14.796 4.737-3.032.538-4.645 2.454-2.837 6.627 1.807 4.174 7.53 14.35 6.044 16.978-1.486 2.628-5.844 1.86-12.665-2.836-6.82-4.696-11.736-4.948-22.833-6.35-11.098-1.402-16.2-3.986-18.04-5.496-.748-.613-1.184-1.406.414-1.84.685-.186 2.484-.338 5.397-.456Z"/>
    <path fill="#E94612" d="M124.454 179.21a11.027 11.027 0 0 1 2.207 4.936l.11.637c.835 4.658 3.447 16.084 10.822 21.895 5.158 4.065 10.409 9.186 15.752 15.364l-2.648.205c-16.252 1.238-28.368 1.798-36.35 1.68-11.97-.178-24.35-2.556-41.764-6.763l-2.843-.691c-18.93-4.637-25.948-8.58-26.093-11.598l.264-.934c2.277-7.916 4.214-11.353 6.045-13.095-1.695 3.458.997 5.324 5.762 8.067 5.722 3.295 20.985 6.59 35.018 10.299l1.235.328c14.361 3.844 23.449 1.879 28.313-.304 4.864-2.182 4.12-11.835 2.653-16.982-1.27-4.454-6.41-.742-13.936-1.452-6.981-.659-10.26-7.233-1.981-9.368l.265-.066c2.244-.537 7.043-1.167 14.397-1.892l2.772-.267Z"/>
    <path fill="#E03304" d="M50.155 201.524c5.349 3.393 24.5 9.314 40.334 11.899l1.445.229c15.047 2.309 41.348 4.198 42.877-9.663.84.981 1.766 1.889 2.782 2.69 5.158 4.064 10.409 9.185 15.752 15.363l-2.648.205c-16.252 1.238-28.368 1.798-36.35 1.68-11.97-.178-24.35-2.556-41.764-6.763l-2.843-.691c-18.93-4.637-25.948-8.58-26.093-11.598l.29-1.023c1.152-3.993 2.217-6.839 3.225-8.9-.42 2.85.578 5.04 2.993 6.572Z"/>
    <path fill="#CF3004" d="M120.34 176.688c2.371-.108 5.621 3.302 6.321 7.458.7 4.157 3.194 16.436 10.932 22.532 5.158 4.065 10.409 9.186 15.752 15.364-.95.075-1.885.147-2.807.217-2.132-2.322-5.392-5.625-9.292-8.853-5.136-4.25-11.568-10.384-14.394-17.738-1.885-4.903-2.823-7.864-2.815-8.884-2.679 1.8-5.333 2.88-7.963 3.24-2.63.358-5.84.63-9.63.813 3.136 6.472 4.698 10.654 4.684 12.546-.02 2.838-1.787 6.195-6.224 5.785-4.438-.409-9.277-4.74-13.21-6.873-3.932-2.132-7.513-2.7-21.503-5.105-12.043-2.07-18.112-4.408-17.814-7.915.368-.162.734-.303 1.102-.45 1.776-1.432 4.292-1.69 7.546-.773-2.913.118-4.712.27-5.397.456-1.598.434-1.162 1.227-.415 1.84 1.841 1.51 6.943 4.094 18.04 5.496 11.098 1.402 16.014 1.654 22.834 6.35s11.18 5.464 12.665 2.836c1.485-2.628-4.237-12.804-6.044-16.978-1.808-4.173-.195-6.089 2.837-6.627 3.032-.539 12.425-4.628 14.796-4.737Z"/>
    <path fill="#962101" d="m49.102 207.072.66.28c7.684 2.9 31.35 10.101 53.363 12.112 14.574 1.332 30.211.341 48.166.252.684.758 1.368 1.533 2.054 2.326l-2.648.205c-15.962 1.216-27.934 1.777-35.918 1.685l-.431-.006c-11.972-.177-24.35-2.555-41.765-6.762l-2.843-.691c-18.93-4.637-25.948-8.58-26.093-11.598l.29-1.023.212-.724c.58 1.576 2.283 2.78 4.953 3.944Z"/>
    <path fill="#711616" d="M122.424 176.233c-.785-.886-1.068-1.872-2.211-1.958-1.144-.087-3.738 1.56-3.94 2.652-.202 1.092-.55 1.616.745 1.596 1.295-.02 6.19-1.405 5.406-2.29Z"/>
    <path fill="#E3480E" d="M110.445 182.402c-.599-.479.31-2.738 1.171-4.46.862-1.72 2.713-3.229 4.345-4.239 1.632-1.01 2.726-.16 3.902.266 1.175.427.712.474-.729.698-1.44.224-3.626 4.05-2.237 3.753.927-.197 3.584-.775 7.97-1.734-.346-2.259-.88-3.63-1.602-4.115-1.083-.727-1.74-.312-1.19-1.772s3.71-3.233 4.933-2.566c1.222.668 3.266 3.724 3.64 4.338.376.614 15.704-5.017 16.368-6.571.664-1.554-2.75-2.437-4.656-2.045-1.907.391-3.286.945-4.83.755-1.543-.19-1.552-.947-.787-1.92.766-.975 4.199-2.205 6.05-2.498 1.85-.294 5.373-1.242 8.063 1.437 2.69 2.678 6.184-2.676 4.324-3.943-1.859-1.267-6.385-.188-7.45.497-.711.456-1.1.822-1.169 1.097.631-1.753 1.534-3.005 2.708-3.758 1.76-1.128 3.585-2.482 5.911-2.252 2.327.231 4.966-.193 6.32 0s14.035.669 13.15-.94c-.885-1.61-4.071-2.073-6.76-2.663-2.688-.59-6.518-.565-6.89-.656-.372-.09 2.046-2.821 3.462-3.555 1.415-.733 3.779-2.407 7.113-.73 3.334 1.677 9.966 3.878 10.724 6.846.757 2.969-5.14 3.938-10.724 4.308-5.585.37-11.628-.44-13.026 1.806-1.397 2.246-6.628 6.49-9.28 8.564-2.653 2.074-17.946 6.188-20.128 8.337-2.182 2.15-3.886 4.021-6.584 4.979-2.698.958-11.513 3.215-12.112 2.736Z"/>
    <path fill="#ED4E01" d="M102.115 188.454c-.913-.93-1.31-4.352-.296-5.281 1.013-.93 12.795-5.058 15.613-6.105 2.818-1.048 6.078-3.668 13.275-7.337 7.197-3.668 14.99-4.7 20.505-9.692 5.516-4.993 9.717-10.071 17.124-10.039 7.408.033 10.553 1.684 10.499-2.211-.054-3.896-1.725-8.933.6-13.556 2.326-4.622 8.547-17.048 11.566-21.235 3.02-4.186 6.507-6.814 9.194-6.887 2.688-.073 8.298 3.124 7.945 4.232-.352 1.108-4.676 6.704-7.945 12.13-3.269 5.426-8.609 15.456-8.428 23.928.18 8.472-.163 14.822-6.838 16.388-6.675 1.566-16.447-3-23.457 2.776-7.01 5.776-8.599 8.066-15.12 10.473-6.523 2.406-10.135 2.64-14.465 5.2-4.33 2.559-6.679 3.73-14.364 5.773-7.686 2.043-14.495 2.374-15.408 1.443Z"/>
    <path fill="#6B1313" d="M124.419 179.814c.472.238.27 1.2-1.215 1.342-1.485.143-1.92-.658-1.257-1.091.664-.433 2-.489 2.472-.25ZM136.1 172.604c.471.238.27 1.199-1.215 1.342-1.485.143-1.92-.659-1.257-1.092.664-.433 2-.488 2.472-.25ZM163.567 155.198c.443.237.179 1.524-1.408 1.66-1.587.135-1.88-.926-1.258-1.359.623-.433 2.223-.54 2.666-.301Z"/>
    <path fill="#641010" d="M199.405 109.495c.684-.15 1.44.596 1.313 1.956-.126 1.36-.957 1.873-1.726 1.624-.768-.25-.272-3.43.413-3.58Z"/>
    <path fill="#FF5B0B" d="M178.29 149.753c.139.25.164.454.054.602-1.028 1.393-13.887-.87-21.745 7.73l-.257.287c-7.832 8.937-12.704 8.713-23.68 13.696l-1.335.613c-10.39 4.817-19.153 9.986-25.43 11.562-2.527.635-3.768.057-4.1-1.048l.022-.022c1.013-.93 12.795-5.058 15.613-6.105 2.818-1.048 6.078-3.668 13.275-7.337 7.197-3.668 14.99-4.7 20.505-9.692l.925-.848c5.076-4.703 9.211-9.221 16.2-9.19l.826.01c4.987.102 7.882.871 9.056-.192l.07-.066Z"/>
    <path fill="#6B1313" d="M109.567 182.377c.472.238.27 1.2-1.215 1.343-1.485.143-1.92-.659-1.256-1.092.663-.433 2-.488 2.471-.25Z"/>
    <path fill="#DD3C0C" d="m208.14 110.343-.056.145c-.609 1.358-4.583 6.555-7.703 11.678l-.557.929c-3.286 5.545-8.23 15.148-8.057 23.306l.026 1.494c.091 7.719-.588 13.422-6.864 14.894-6.675 1.566-16.447-3-23.457 2.776l-.884.734c-6.273 5.242-7.999 7.436-14.237 9.739-6.522 2.406-10.134 2.64-14.464 5.2l-1.113.65c-3.676 2.124-6.249 3.261-13.251 5.123l-.792.205c-7.356 1.86-13.735 2.137-14.616 1.238-.743-.757-1.144-3.163-.722-4.534.581 1.183 1.836 2.56 2.405 2.684.914.197 10.978-.273 17.89-4.201l.317-.184c6.917-4.098 14.178-6.38 21.138-8.968 6.96-2.588 15.046-15.543 23.73-15.54l1.107-.004c6.222-.114 12.113-1.843 11.34-5.079-.283-1.19-.448-2.16-1.031-6.882-.297-3.687-.935-7.374 1.147-11.513l1.857-3.682c2.522-4.974 6.227-12.137 8.722-16.08 2.547-.003 2.911-.721 4.75-.62l.736.057c2.228.167 4.9.113 7.353-1.822 2.622-2.067-1.723-4.989-6.579-4.469 1.39-.943 2.733-1.474 3.92-1.506 2.688-.073 8.298 3.124 7.945 4.232Z"/>
    <path fill="#CA2300" d="m200.381 122.166-.557.929-.386.657c-3.273 5.624-7.838 14.805-7.67 22.649l.025 1.494.007 1.072c.008 7.172-.89 12.419-6.871 13.822-6.675 1.566-16.447-3-23.457 2.776l-.884.734-.857.72c-1.105.935-2.064 1.767-2.936 2.517.047-.099.091-.202.151-.296 4.924-7.666 9.789-8.473 18.815-9.42 9.025-.946 6.558-3.84 4.042-9.458-.677-1.51-1.226-3.61-1.632-5.953l-.091-1.046c-.237-2.91-.279-5.881 1.356-9.13l1.857-3.682c2.499-4.928 6.16-12.006 8.653-15.97a34.337 34.337 0 0 1 6.533-.067l.754.065c4.25.353 3.787-.035 7.712-.711.391-.067.764-.152 1.124-.246l-1.867 2.703c-1.235 1.8-2.594 3.826-3.82 5.84Z"/>
    <path fill="#6B1313" d="M151.605 166.832c.471.238.27 1.2-1.215 1.342-1.485.143-1.92-.658-1.257-1.091.664-.433 2-.489 2.472-.25Z"/>
    <path fill="#B91E05" d="M194.451 115.514c2.464.52 5.172 1.591 8.125 3.215a104.022 104.022 0 0 0-2.38 3.744l-.372.622c-3.286 5.545-8.23 15.148-8.057 23.306l.026 1.494c.091 7.719-.588 13.422-6.864 14.894-2.982.7-6.583.176-10.279-.104 10.023-.56 14.655-3.411 13.896-8.55-1.273-8.614-6.83-6.071-8.565-13.588-1.735-7.517 8.909-26.206 14.47-25.033Z"/>
    <path fill="#B7803E" d="m205.79 108.056.406.25c1.239.785 2.088 1.585 1.944 2.037l-.354 1.069c-.608 1.358-4.285 5.63-7.405 10.754l-.557.929c-3.286 5.545-8.23 15.148-8.057 23.306l.299 2.53c.491 7.092-.861 12.386-7.137 13.858-6.675 1.566-16.447-3-23.457 2.776l-.884.734c-6.273 5.242-7.999 7.436-14.237 9.739-6.522 2.406-10.134 2.64-14.464 5.2l-1.113.65c-3.676 2.124-4.933 3.404-11.936 5.265l-.791.205c-7.357 1.86-15.05 1.995-15.932 1.096-.82-.835-1.223-3.676-.565-4.922l.109.641c.282 1.635.505 2.677.667 3.128.327.906 1.25.852 4.115.674l.887-.054c3.569-.212 11.704-1.306 13.4-2.16 1.694-.852 4.965-1.953 7.665-3.5 2.7-1.546 5.662-4.129 10.757-5.152 4.015-.806 6.603-1.846 8.426-2.629l1.32-.567c1.793-.748 3.868-2.316 7.23-5.297l.34-.303c3.565-3.178 7.217-5.91 12.194-6.597 4.978-.687 13.693 1.041 17.87-.46 4.098-1.474 5.366-7.526 4.815-12.913l-.033-.304c-.63-5.46 2.097-16.798 4.197-20.233l.636-1.025c2.238-3.565 6.188-9.484 8.225-12.204l.204-.27c2.164-2.836 3.424-3.685 1.869-5.626a3.747 3.747 0 0 0-.653-.625Z"/>
    <path fill="#EC3E00" d="M192.69 117.183c-1.639-.813-5.248-.242-9.04 7.623-3.79 7.865-4.54 10.18-2.726 12.713 1.814 2.534 12.756 11.333 17.764 17.215 5.008 5.882 12.79 14.479 16.539 31.492 2.498 11.341 3.063 22.591 1.693 33.75 20.78-.248 35.35-1.177 43.71-2.788 12.539-2.417 16-3.075 16.607-5.083.607-2.008.51-4.214.679-6.827.17-2.612.054-16.15-.68-23.087-.732-6.937.42-10.447.443-11.072.023-.625-1.21.105-1.885.63-.676.526-8.581 3.942-19.624-6.505-11.042-10.448-25.417-20.184-35.916-28.077-10.5-7.893-25.925-19.172-27.564-19.984Z"/>
    <path fill="#CC2C00" d="m183.46 125.201.19-.395c3.792-7.865 7.401-8.436 9.04-7.623l.191.105c2.193 1.282 14.769 10.455 24.685 17.865l2.688 2.014c10.19 7.66 24.032 17.058 34.934 27.157l.982.92c11.043 10.447 18.948 7.03 19.624 6.505l.18-.134c.692-.503 1.726-1.07 1.705-.496l-.013.124c-.057.397-.29 1.322-.466 2.816-1.742.666-3.833 1.073-6.272 1.221-5.325.325-14.48-5.573-17.047-8.294l-.127-.137c-2.255-2.516-11.534-9.63-17.415-14.535l-.93-.782c-5.78-4.897-23.684-16.632-30.72-22.203l-8.473-6.734c-2.67-2.102-4.57-3.532-5.386-3.917-1.523-.718-8.919 13.151-9.395 15.225-.468 2.034 1.293 3.117 6.242 7.52l.295.264c5.174 4.624 14.114 13.273 19.25 20.875 5.138 7.601 9.681 17.132 11.388 26.889 1.52 8.682 1.698 21.172.984 30.49l-2.674.035c1.37-11.159.805-22.409-1.693-33.75-3.399-15.425-10.114-23.932-15.07-29.77l-1.469-1.722c-5.008-5.882-15.95-14.681-17.764-17.215-1.783-2.49-1.089-4.77 2.537-12.318Z"/>
    <path fill="#E93502" d="M196.992 152.858c2.387-5.144 4.306-9.743 5.756-13.797 1.45-4.055 2.31-8.372 2.583-12.95 4.131 3.019 8.693 6.392 12.76 9.434l2.163 1.622c10.19 7.66 24.032 17.058 34.934 27.157l.982.92c11.043 10.447 18.948 7.03 19.624 6.505l.18-.134c.692-.503 1.726-1.07 1.705-.496-.023.612-1.129 3.993-.485 10.652l.112 1.111c.671 7.108.774 19.868.61 22.396-.17 2.613-.072 4.82-.68 6.827-.583 1.93-3.805 2.613-15.2 4.811l-1.406.272c-8.36 1.61-22.93 2.54-43.71 2.788 1.37-11.159.805-22.409-1.693-33.75-3.748-17.013-11.531-25.61-16.539-31.492a47.004 47.004 0 0 0-1.696-1.876Z"/>
    <path fill="#BF2900" d="M197.668 151.067c3.505 3.675 7 7.714 9.555 11.495 5.137 7.601 9.68 17.132 11.387 26.889 1.52 8.682 1.698 21.172.984 30.49l-2.674.035c1.37-11.159.805-22.409-1.693-33.75-3.748-17.013-11.531-25.61-16.539-31.492a47.004 47.004 0 0 0-1.696-1.876l.602-1.594Zm7.663-24.957c4.131 3.02 8.693 6.393 12.76 9.435l2.163 1.622c10.19 7.66 24.032 17.058 34.934 27.157l.982.92c11.043 10.447 18.948 7.03 19.624 6.505l.18-.134c.692-.503 1.726-1.07 1.705-.496-.011.299-.28 1.26-.479 2.94-1.743.666-3.834 1.073-6.272 1.221-5.417.33-14.796-5.778-17.174-8.431-2.378-2.654-12.567-10.42-18.346-15.317S211.725 134.9 204.69 129.33l.247.195c.166-1.07.298-2.208.395-3.414Z"/>
    <path fill="#E13100" d="m255.188 164.324.982.92c11.043 10.447 18.948 7.03 19.624 6.505l.18-.134.196-.138c.676-.459 1.528-.88 1.509-.358-.023.612-1.129 3.993-.485 10.652l.112 1.111.064.717c.613 7.216.705 19.234.546 21.68-.17 2.612-.072 4.818-.68 6.826-.583 1.93-3.805 2.613-15.2 4.811l-1.406.272c-8.36 1.61-22.93 2.54-43.71 2.788 1.37-11.159.805-22.409-1.693-33.75-1.17-5.306-2.73-9.793-4.477-13.634 7.277-3.804 12.836-8.663 16.676-14.574a294.167 294.167 0 0 0 6.642-10.704c7.156 5.28 14.655 11.021 21.12 17.01Z"/>
    <path fill="#AC2000" d="M234.068 147.314c7.156 5.28 14.655 11.021 21.12 17.01l.982.92c11.043 10.447 18.948 7.03 19.624 6.505l.18-.134.196-.138.207-.136c.63-.398 1.32-.691 1.302-.222l-.013.124c-.057.397-.29 1.322-.466 2.815-1.743.667-3.834 1.074-6.272 1.222-5.32.324-13.406-5.095-15.945-7.803l-.133-.144c-.358-.4-.918-.926-1.63-1.548-2.681 1.702-13.942 7.673-33.54 16.289-1.039.456-2.043 1.12-2.201 1.915-.158.795.176 3.56.617 6.08 1.602 9.156 2.456 20.66 1.694 29.867l-2.87.04c1.37-11.159.805-22.409-1.693-33.75-1.17-5.306-2.73-9.793-4.477-13.634.428-.224.85-.451 1.266-.682l.452-.245c.353.838.45.849.653 1.234.686-.189 24.823-9.845 31.952-13.666-3.206-2.503-6.56-5.108-9.07-7.2l-.595-.5a64.319 64.319 0 0 0-2.617-2.077 323.7 323.7 0 0 0 1.277-2.142Z"/>
    <path fill="#D82803" d="m275.794 171.75.18-.135.196-.138.207-.136c.63-.398 1.32-.691 1.302-.222-.023.612-1.129 3.993-.485 10.652l.112 1.111.064.717.088 1.117c.515 7.022.603 17.474.473 20.286l-.015.276c-.17 2.613-.072 4.82-.68 6.827-.583 1.93-3.805 2.613-15.2 4.811l-1.406.272c-8.36 1.61-22.93 2.54-43.71 2.788.647-5.275.863-10.57.646-15.885 8.29-2.604 16.358-6.697 24.202-12.28 9.868-7.025 15.413-16.304 18.221-23.388 9.01 6.493 15.21 3.789 15.805 3.326Z"/>
    <path fill="#CD1802" d="M277.916 205.278c-.17 2.613-.072 4.82-.68 6.827-.583 1.93-3.805 2.613-15.2 4.811l-1.406.272c-8.36 1.61-22.93 2.54-43.71 2.788.198-1.61.355-3.223.472-4.837 4.936-2.569 11.388-2.173 14.812-2.636l.264-.038c5.102-.799 23.656-1.04 32.718-6.62 6.086-3.746 10.338-9.585 12.544-16.315l.064 1.623c.222 6.116.232 12.428.122 14.125Z"/>
    <path fill="#AC1E01" d="M219.904 203.313c.199 5.738.072 11.638-.31 16.628l-2.674.035c.647-5.275.863-10.57.646-15.885.572-.18 1.142-.366 1.712-.56Zm40.085-34.89c9.01 6.493 15.21 3.789 15.805 3.326l.18-.134.196-.138.207-.136c.63-.398 1.32-.691 1.302-.222-.011.299-.28 1.26-.479 2.94-1.742.666-3.833 1.073-6.272 1.221-3.305.202-8.086-1.994-11.85-4.34l-.129-.08c.382-.835.728-1.65 1.04-2.437Z"/>
    <path fill="#8A1001" d="M277.237 212.105c-.584 1.93-3.806 2.613-15.2 4.811l-1.407.272c-8.36 1.61-22.93 2.54-43.71 2.788.15-1.23.278-2.46.382-3.69l3.908.003a319.26 319.26 0 0 0 19.463-.695l2.165-.149c12.779-.914 24.877-2.418 28.336-3.678l2.118-.814c1.78-.698 3.354-1.419 4.483-2.623-.068 1.354-.182 2.599-.538 3.775Z"/>
    <path fill="#C6A66D" d="M273.074 142.579c-.027.41-.142.779-1.748 2.272-1.606 1.493-15.766 11.015-25.623 16.149-9.856 5.134-32.265 13.433-37.071 15.926-4.807 2.492-31.034 9.803-38.464 9.175-7.43-.628-8.774-1.848-9.168-6.824-.394-4.976.497-8.71.823-9.134.326-.424 1.361-.252 1.557.373.196.625-.093 2.892-.218 5.416-.125 2.523.556 5.299 3.146 6.515 2.59 1.216 6.239 1.486 16.422-.765 10.183-2.252 25.415-7.366 26.499-7.793 1.084-.428 1.215-.475 1.82-.568.43.829 1.227.592 2.479.154 2.299-.803 24.202-8.773 32.493-13.227 2.36-1.473 2.38-1.718 2.267-1.934-.112-.215-.512-.359.074-.673.587-.314 12.55-7.293 16.612-10.06 4.062-2.768 6.841-4.899 7.256-5.627.415-.727.87.214.844.625Z"/>
    <path fill="#ED3E02" d="M162.269 169.95c-.879-.255-8.805 5.892-11.53 15.437-2.725 9.546 2.205 13.868 7.986 15.09 5.78 1.221 17.777-2.809 34.602-9.555 16.825-6.747 19.554-8.248 24.63-10.4 5.076-2.152 30.77-13.376 36.118-17.171 4.032-2.253 17.555-11.096 19.206-13.405 1.65-2.31.024-6.964 0-7.506-.025-.542-.497-.309-1.726 1.28-1.228 1.588-15.863 11.059-22.486 14.434-6.623 3.376-30.632 13.503-39.415 16.54-8.782 3.038-30.864 10.084-38.933 9.731-8.07-.352-8.428-5.432-8.452-7.74-.024-2.306.879-6.481 0-6.736Z"/>
    <path fill="#DD2F00" d="M271.555 143.72c1.184-1.53 1.665-1.802 1.721-1.337l.005.057c.024.542 1.65 5.197 0 7.506s-15.174 11.152-19.206 13.405c-5.286 3.75-30.447 14.759-35.933 17.092l-1.44.618c-3.929 1.707-7.221 3.314-18.915 8.062l-4.46 1.799c-16.825 6.746-28.821 10.776-34.602 9.555-4.362-.922-8.24-3.61-8.71-8.975 2.996 6.679 7.792 9.192 17.881 6.596l.424-.111c12.295-3.289 40.682-16.39 45.362-18.743l.727-.38c3.492-1.893 20.963-11.812 33.27-20.025l.878-.428c.18-.09.351-.175.512-.257l.798-.416c6.93-3.676 20.507-12.49 21.688-14.018Z"/>
    <path fill="#D22E00" d="m273.276 142.383.005.057c.024.542 1.65 5.197 0 7.506s-15.174 11.152-19.206 13.405c-1.42 1.008-4.276 2.54-7.8 4.287 1.6-3.286 2.876-6.745 3.673-9.943l.77-.415c7.132-3.903 19.703-12.093 20.837-13.56 1.184-1.53 1.665-1.802 1.721-1.337Z"/>
    <path fill="#C22B00" d="m273.276 142.383.005.057c.024.542 1.65 5.197 0 7.506-.24.336-.732.81-1.41 1.383.15-1.965-.138-4.994-.463-7.445.062-.062.11-.117.147-.164 1.184-1.53 1.665-1.802 1.721-1.337Z"/>
    <path fill="#F74A10" d="M255.292 154.646a112.004 112.004 0 0 1-17.414 10.2l-1.037.486c-15.935 7.442-25.57 10.126-26.245 11.354-.69 1.255-33.523 15.998-47.78 16.592-10.443.436-10.336-9.169-8.374-15.749 3.286-4.902 7.223-7.755 7.827-7.58.854.248.024 4.201 0 6.54l.003.414c.05 2.393.624 7.18 8.449 7.522 7.835.343 28.882-6.29 38.137-9.457l.796-.274c8.783-3.037 32.792-13.164 39.415-16.54l.67-.348c1.156-.61 2.505-1.369 3.956-2.216l1.597-.944Z"/>
    <path fill="#FF6D3B" d="m232.215 166.67-2.571 1.13c-12.23 5.33-15.722 6.16-15.797 6.573-.079.432 1.68 6.069 1.614 7.051-.61-.813-1.742-5.715-2.894-7.015l-.119-.121a.73.73 0 0 1-.232-.518l1.29-.485c10.4-3.95 29.211-11.94 35.31-15.003l.253-.128c.53-.27 1.11-.578 1.73-.919-4.91 3.233-11.347 6.233-18.584 9.435Z"/>
    <path fill="#DF884D" d="M272.955 129.347c1.009-.263 2.16.74 2.106 3.768-.055 3.029-.452 5.629-.806 8.053-.236 1.617.033 3.959.806 7.026-.728.653-1.302.725-1.723.216-.63-.764-1.196-4.286-1.363-4.702-.167-.415-.65-2.196-1.04-5.483-.39-3.287-.365-4.852-.008-6.443.356-1.59 1.02-2.172 2.028-2.435Zm.295 2.647h-.04c-.244.01-.819.203-.762 3.212.04 2.127.308 3.53.802 4.209.3-2.338.474-3.986.523-4.945.073-1.438-.311-2.471-.523-2.476Z"/>
    <path fill="#922F14" d="M272.559 129.475c-2.718 3.105-1.024 9.677-.776 11.357l.07.438c.32 1.91 1.136 5.616 1.632 6.66.338.708.823.828 1.457.36l.097-.078-.113.098c-.664.544-1.193.577-1.588.1-.605-.734-1.15-4.009-1.341-4.637l-.108-.315c-.213-.685-.618-2.399-.954-5.233l-.086-.756c-.297-2.781-.25-4.223.078-5.687.285-1.272.767-1.899 1.464-2.233l.168-.074Z"/>
    <path fill="#C4330A" d="M279.105 228.62c.312.819.426 1.842.342 3.07-.127 1.842-.096 2.735-1.45 4.048-1.354 1.312-8.628 3.393-10.972 3.702-2.343.31-2.967.428-3.249 0-.385.346-1.71.942-6.068 1.077-4.359.134-14.234.806-21.401.806-7.168 0-18.949.42-27.524-.42-.755-.224-1.547-.407-5.276-.459-3.73-.053-15.093-.652-29.033 0-13.94.652-14.837.851-18.29.879-3.452.028-19.598-.391-23.67-.42-4.07-.03-7.718.535-8.501-1.127-.579.884-1.682.71-3.442.62-1.76-.091-3.253.128-3.54-.956-.384.78-1.866.863-3.882.766-1.345-.065-2.4-.32-3.164-.766-.75.443-1.96.555-3.634.336a173.261 173.261 0 0 0-3.617-.447c-11.354-1.237-25.081-4.276-41.182-9.115-16.101-4.84-23.11-10.865-21.025-18.075 4.341 3.307 10.993 6.13 19.956 8.47 13.445 3.509 27.565 5.284 30.987 8.011 3.422 2.727 21.565 6.76 25.56 5.12 3.996-1.64 6.483-2.178 20.724-1.793 14.24.385 21.434.173 22.45 1.257 1.016 1.083 1.523 2.06 12.39 1.924 10.867-.136 35.816.077 36.189-.323.373-.4 2.301-2.547 8.903-2.213 6.601.333 41.577-.425 48.792-1.617 4.81-.795 9.018-1.58 12.627-2.355Z"/>
    <path fill="#A12400" d="M40.527 212.14c4.341 3.306 10.993 6.13 19.956 8.469l1.574.402c12.78 3.203 25.769 4.941 29.275 7.503l.138.106c3.422 2.727 21.565 6.76 25.56 5.12l.723-.29c3.384-1.32 6.236-1.801 17.494-1.564l7.27.175c11.094.239 16.791.187 17.687 1.143l.317.337c.907.926 2.308 1.687 11.65 1.592l3.282-.031c11.843-.08 32.987.071 33.33-.297l.15-.156c.615-.614 2.685-2.288 8.384-2.073l1.053.043c8.032.26 41.114-.489 48.108-1.644l1.775-.298c4.077-.693 7.694-1.379 10.852-2.057.144.377.245.797.305 1.261-.952 1.01-2.3 1.785-4.045 2.324-6.325 1.955-16.492 3.197-29.384 3.67l-1.678.056c-13.03.374-27.612-.658-29.75-.357-2.19.307-3.348 2.155-6.773 1.986l-1.849-.077c-4.1-.15-11.593-.318-19.61-.356l-2.457-.005c-9.395.019-18.706.517-20.57.613-1.957.101-3.952-.893-4.908-2.027-.955-1.135-15.814-.434-20.08-.59l-.666-.028c-4.365-.206-11.497-.919-13.704-.675-2.323.257-5.62 2.306-6.886 2.14l-.17-.02c-1.702-.171-9.52-.485-15.083-1.417-4.694-.786-8.817-1.87-12.898-2.978l-3.261-.887c-4.504-1.285-4.388-2.414-14.335-5.424l-2.614-.774c-10.003-2.924-26.001-7.376-28.313-12.326.043-.196.094-.392.15-.59Z"/>
    <path fill="#E2420C" d="m61.499 223.106 2.369.595c18.61 4.616 21.742 4.125 26.257 7.318l.437.317c4.915 3.656 10.376 3.068 10.509 5.046.127 1.889-4.139 1.134-13.49-.695l-2.16-.424c-8.395-1.683-25.236-5.61-37.5-10.604-5.498-3.219-8.073-6.82-7.72-10.801l.176.195c2.338 2.521 7.395 5.545 21.122 9.053Z"/>
    <path fill="#8C190F" d="m225.264 232.662-.418 8.762-1.503.004.418-8.759c.483-.001.984-.003 1.503-.007Zm8.2-.108-.13 8.786-1.501.016.13-8.775 1.5-.027Zm-16.643.007-.233 8.788c-.503-.013-1.003-.03-1.5-.047l.232-8.723a23.38 23.38 0 0 1 1.5-.018Zm-63.643-.273-.005.12c-.07 1.818-.065 4.321.014 7.506l.042 1.385-1.505-.024-.024-.845c-.094-3.5-.101-6.225-.022-8.184l1.5.042Zm88.947.06v8.866l-1.501.045.001-8.87 1.5-.041Zm-79.105 2.341-.131 1.273-.05.509c-.12 1.297-.18 2.276-.17 2.97.011.757.129 1.273.328 1.587l-1.59.09c-.151-.471-.229-1.025-.238-1.654-.01-.693.04-1.602.145-2.773l.11-1.15.132-1.28c.36.16.827.305 1.464.428Zm-19.139-2.6-.023.257c-.234 2.845-.347 5.05-.34 6.612l.009.537c.015.592.052 1.062.109 1.406l.04.206c-.505-.003-1.01-.014-1.51-.024-.244-1.4-.192-3.81.088-7.495l.123-1.53 1.504.032Zm-11.22-.247-.633 9.06c-.512 0-1.016.01-1.506.022l.637-9.095c.48.003.981.007 1.503.013Zm118.13 3.51-.027 5.486-1.502.075.026-5.058v-3.745l1.491-.058c.01.81.014 1.896.012 3.3Zm-42.126-.509-.517 5.897c-.346-.07-.792-.133-1.473-.183l.489-5.613c.76-.027 1.278-.06 1.5-.1Zm-36.072.285v5.405l-1.5.073v-5.466c.476-.001.976-.005 1.5-.012Zm-47.384-3.175-.31 8.617c-.413-.18-.717-.435-.886-.794-.16.244-.36.408-.603.515l.296-8.223a41.99 41.99 0 0 1 1.503-.115Zm74.936 3.094-.302 5.298c-.47-.015-.97-.03-1.5-.044l.298-5.247 1.504-.007Zm-17.979.03.015.823.061 4.293c-.495.009-.996.02-1.502.031l-.076-5.144 1.502-.002Zm9.597-.008-.003 5.097c-.488-.006-.987-.011-1.496-.015l-.001-5.08 1.5-.002Zm-74.13 5.026v.033c-.3-.134-.512-.346-.602-.688-.146.297-.452.493-.885.617-.061-1.731-.029-4.1.07-6.093.315-.056.588-.131.815-.224.243-.1.482-.197.718-.288-.12 2.079-.164 4.864-.116 6.643Zm-6.354-6.129-.008.022c-.404 1.4-.65 3.621-.685 5.74a4.286 4.286 0 0 1-.6-.288 2.97 2.97 0 0 1-.907.333c.023-2.137.256-4.351.701-5.976a45.98 45.98 0 0 0 1.5.17Zm153.729-2.795.082 1.373c.123 2.154.19 3.811.202 4.975l.001.595a7.321 7.321 0 0 1-.193 1.569c-.823.08-1.143.03-1.324-.243a1.31 1.31 0 0 1-.198.144c.115-.433.184-.843.207-1.233l.008-.25.001-.364c-.006-1.349-.099-3.49-.279-6.416.543-.05 1.042-.099 1.493-.15Zm-160.691 1.705.118-.428a26.861 26.861 0 0 0-1.04 6.955 85.62 85.62 0 0 0-.66-.074l-.834-.093a28.11 28.11 0 0 1 .948-6.676c.488.11.978.215 1.468.316Zm166.186-2.589-.002 8.377c-.526.143-1.033.272-1.5.383l.001-8.498 1.501-.262Zm4.688-.868-.002 7.748c-.473.18-.979.36-1.5.535l.002-7.996c.51-.096 1.01-.192 1.5-.287Z"/>
    <path fill="#D6D6D6" d="M43.989 203.67c-.292-.098-1.533-.126-2.098 1.905-.377 1.354-.533 2.513-.467 3.477-.574 1.05-.874 2.078-.898 3.087-.035 1.513.896 1.98 3.304 3.247 2.408 1.268 8.24 4.502 26.035 8.556 17.795 4.053 19.527 4.804 21.487 6.261 1.96 1.458 3.668 2.72 7.538 3.331 3.871.611 14.851 2.12 17.712 1.965 2.86-.154 5.245-2.334 6.888-2.306 1.644.03 11.426.574 20.44.72 9.016.148 14.785-.077 15.32.58.536.656.976 2.302 3.584 2.204 2.608-.099 16.972-.781 26.519-.673 9.546.107 19.008.907 20.206.673 1.198-.235 3.079-2.295 4.813-2.205 1.734.09 23.446.774 36.526-.103 13.08-.878 23.071-2.666 25.457-3.613 2.385-.946 2.76-1.36 2.897-1.813.138-.453.224-8.169.137-10.106-.086-1.938-.23-3.241-.746-3.47.345-1.21.344-5.516-.925-5.238-.267.502-1.395 1.528-5.822 3.023-4.426 1.496-26.91 4.744-54.586 4.387-27.675-.356-48.094 1.971-64.619 3.27-7.247.57-38.67 2.042-56.04-.458-29.33-4.222-48.71-12.284-50.975-13.842-2.22-1.528-1.396-2.763-1.687-2.86Z"/>
    <path fill="#DCDCDC" d="M41.89 205.575c.566-2.03 1.807-2.003 2.099-1.906.291.097-.534 1.332 1.687 2.86 2.265 1.558 21.645 9.62 50.974 13.842 16.38 2.357 45.251 1.183 54.57.564l1.292 2.26c3.144 5.47 6.56 11.086 9.38 13.455-1.787-.28-2.178-1.59-2.642-2.158-.48-.59-5.185-.468-12.672-.544l-2.647-.034c-9.015-.147-18.797-.692-20.44-.72-1.644-.03-4.029 2.151-6.89 2.305-2.86.154-13.84-1.354-17.71-1.965-3.457-.545-5.188-1.61-6.914-2.87l-.86-.632c-1.751-1.253-3.839-2.073-17.746-5.286l-3.506-.804c-15.36-3.5-21.807-6.387-24.832-7.928l-1.927-1.01c-1.872-.997-2.611-1.514-2.581-2.865.025-1.009.325-2.038.9-3.087-.067-.964.089-2.123.466-3.477Z"/>
    <path fill="#D9D9D9" d="M277.718 210.149c1.269-.278 1.27 4.027.925 5.237.47.21.63 1.305.721 2.958l.025.513c.087 1.937 0 9.653-.137 10.106-.132.437-.486.838-2.658 1.717l-.24.096c-2.316.92-11.804 2.633-24.327 3.534l-1.13.079c-13.08.877-34.79.194-36.525.103-1.292-.067-2.665 1.059-3.776 1.734 1.261-.93 2.148-2.403 2.66-4.417l.145-.579c.74-2.995 1.706-7.556 2.9-13.682l2.663.028c26.913.21 48.594-2.938 52.932-4.404l.625-.215c3.91-1.379 4.943-2.33 5.197-2.808Z"/>
    <path fill="#D2D2D2" d="M278.643 215.386c.47.21.63 1.305.721 2.958l.025.513c.087 1.937 0 9.653-.137 10.106l-.033.096c-.162.403-.614.807-2.625 1.621l-.24.096c-2.316.92-11.804 2.633-24.327 3.534l-1.13.079c-.608.04-1.235.078-1.879.112 2.025-5.373 3.438-11.518 4.239-18.434l1.556-.159c8.836-.925 14.986-2.027 17.083-2.736l.625-.215.625-.226c3.398-1.257 4.332-2.131 4.572-2.582 1.269-.278 1.27 4.027.925 5.237Z"/>
    <path fill="#E5E5E5" d="M278.643 215.386c.47.21.63 1.305.721 2.958l.025.513c.087 1.937 0 9.653-.137 10.106l-.033.096-.045.097c-.199.373-.73.775-2.58 1.524l-.24.096a7.812 7.812 0 0 1-.511.18l.4-7.206c.271-4.628.48-7.509.623-8.642.188-1.482-.676-2.42-2.594-2.815 2.487-1.024 3.235-1.747 3.446-2.144 1.269-.278 1.27 4.027.925 5.237Z"/>
    <path fill="#E8E8E8" d="M41.89 205.575c.566-2.03 1.807-2.003 2.099-1.906.291.097-.534 1.332 1.687 2.86 2.025 1.392 17.72 7.98 41.972 12.378 5.226 2.218 9.092 4.163 8.886 5.035-.568 2.41-2.274 3.44 5.358 5.477 4.44 1.185 12.723 4.398 13.636 6.078-3.89-.133-13.15-1.412-16.638-1.963-3.87-.61-5.577-1.873-7.538-3.33-1.96-1.458-3.692-2.209-21.487-6.262-17.795-4.054-23.627-7.288-26.035-8.556-2.408-1.267-3.339-1.734-3.304-3.247.024-1.009.324-2.038.898-3.087-.066-.964.09-2.123.467-3.477Z"/>
    <path fill="#FFF" d="M43.06 204.37c.108-.434.287-.734.543-.781a.797.797 0 0 1 .368.001c.291.097-.516 1.411 1.705 2.939 2.265 1.558 21.645 9.62 50.974 13.842 17.37 2.5 48.794 1.028 56.041.458l4.275-.349c15.51-1.304 34.416-3.188 59.179-2.934l2.82.03c26.912.21 48.593-2.938 52.931-4.404l.663-.229c3.079-1.088 4.361-1.91 4.886-2.44-1.715 3.903-11.192 6.376-29.05 7.644l-3.501.236c-17.942 1.16-28.071.439-28.348 1.32l-.426 1.558c-.84 3.011-3.46 12.645-4.08 13.837a2.149 2.149 0 0 1-.22.342l-.589.38c-.19.125-.377.247-.556.358l-.067.02c-.424.113-.772.402-1.35.363.502-.161 1.401-.773 2.01-1.313.609-.54 4.26-12.914 4.045-14.421-.052-.368-.209-1.102-1.129-1.338-2.732-.703-9.684-.356-17.025.018l-4.685.258c-12.792.746-37.833 2.244-38.503 3.055-.67.812 3.23 7.69 5.7 11.526-3.377-4.12-6.297-10.57-7.544-11.461l-5.875.144c-9.445.173-29.644 1.021-47.719-.908-10.79-1.152-22.033-3.702-31.36-6.226-12.088-3.273-20.479-6.864-22.468-8.6-1.471-1.284-1.753-2.491-1.645-2.925Z"/>
    <path fill="#A6A1A1" d="M47.87 213.157c15.581 6.353 45.845 13.305 69.542 13.813l2.004.04 2.067.033c9.83.14 17.416-.036 25.343-.535l3.034-.208c4.565-.355 22.392-1.897 32.066-2.615l3.43-.243 2.083-.138c10.25-.661 18.208-.897 31.225-1.043l11.713-.127 3.574-.062c3.3-.07 5.888-.166 8.741-.316 2.677-.14 5.239-.324 7.765-.559l2.372-.226 2.28-.23c14.424-1.5 21.08-3.096 23.636-5.866a3.957 3.957 0 0 1-.102.511c.177.08.31.284.412.597-3.349 3.054-11.365 4.617-28.506 6.21-2.116.197-4.257.357-6.469.487l-2.308.124-2.325.104c-3.495.14-7.17.212-12.924.274l-7.747.078-5.294.069c-10.612.16-17.926.433-27.385 1.065l-2.696.186-4.959.374c-10.262.802-25.316 2.102-28.843 2.37l-1.936.132-1.546.098c-8.737.528-17.161.663-28.726.416-23.827-.51-54.21-7.49-69.899-13.887-3.035-1.238-5.22-2.594-6.523-4.062.126-.321.277-.644.455-.97l-.003-.052c1.095 1.461 3.23 2.845 6.449 4.158Z"/>
    <path fill="#641010" d="M181.996 154.03c.998-.805 1.141-2.46-.07-2.511-1.21-.052-2.478 1.387-2.295 2.324.182.936 1.367.99 2.365.186ZM189.206 123.238c.667-.837 1.763-1.21 2.53-.447.441.44.395 1.523-.379 2.442-.773.918-1.94.877-2.34.575-1.057-.794-.478-1.733.19-2.57ZM184.033 132.52c.667-.837 1.763-1.21 2.53-.447.441.44.395 1.523-.378 2.442-.774.918-1.94.877-2.341.576-1.056-.795-.478-1.734.19-2.57Z"/>
    <path fill="#FF5516" d="M113.845 175.185c-2.231 2.218-3.271 5.304-3.558 6.333-.286 1.028-.898 1.489-1.555 1.775-.656.287-1.767.067-2.74-.879-.972-.945.056-3.826 1.438-5.034 1.381-1.208 4.282-2.676 6.415-2.195Zm30.423-15.376c-.73.372-2.757 1.39-3.128 3.198-.372 1.807-.348 1.832-.882 2.577-.44.433-.89.78-1.079 1.09-.189.31-.75 1.104-1.497 2.866-.747 1.761-1.134 3.388-2.13 3.78-.997.39-1.67.365-2.803-.423-1.065-.74-.393-2.821.157-3.864-.18.168-.349.292-.507.375-2.01.805-3.199 1.585-3.569 2.342-.554 1.135-1.55 2.282-1.858 4.348-.308 2.066-1.098 2.739-1.791 3.491-.462.502-1.13.94-2.003 1.312a2.842 2.842 0 0 1-1.81-.93c-.745-.807-.704-3.958.798-6.002 1.48-2.014 9.222-5.967 11.717-6.24 1.135-1.32 2.913-3.215 3.19-4.042.377-1.119 1.17-1.943 2.733-2.687 1.563-.744 5.193-1.562 4.462-1.19Zm12.982-8.174c.499.388-.774.41-1.25 1.21-.477.8-1.541 1.512-2.074 3.293-.534 1.781-1.158 5.485-1.217 6.651-.06 1.167-.447 3.596-.965 3.853-.519.257-.595 1.338-1.776 1.078s-2.828-1.748-2.874-2.842c-.047-1.093 1.05-5.135 2.11-7.484 1.06-2.349 2.255-3.576 4.14-4.549 1.886-.973 3.407-1.598 3.906-1.21Zm14.886-9.801c.124.321-.456 1.44-.784 1.723-.328.282-1.609.145-2.618.548-1.01.403-2.196 2.089-2.616 4.077-.42 1.99-1.238 4.817-1.88 5.874-.643 1.056-1.038 2.12-2.039 2.186-1 .068-2.2.045-2.112-1.939.088-1.984 2.406-6.077 3.135-7.673.73-1.597 4.295-3.007 5.512-3.448 1.216-.442 3.277-1.67 3.402-1.348Zm6.269-7.907c.701-.312.292 2.388.585 5.372.293 2.985 1.84 8.041 2.913 9.722 1.072 1.68.223 3.498 0 3.994s-.438.745-.903.712c-1.537.453-4.451-1.04-5.375-4.706-.923-3.667-1.343-7.774-1.369-8.748-.026-.975.418-1.651 1.37-3.882.951-2.232 2.078-2.151 2.779-2.464Zm11.438-22.75c1.401-1.937 2.382-2.358 2.942-1.265-.529.117-.947.333-1.254.647-.46.472-2.397 5.493-1.688 7.24.709 1.746 2.174 4.68 1.4 6.042-.32.563-.411 1.233-1.08 1.35-.95.169-2.219-.415-2.686-.814-.844-.719-1.52-2.191-2.032-4.417-1.118 1.742-1.913 3.442-2.387 5.099-.236.754 1.727 3.645 2.546 5.35.82 1.704.544 3.124 0 4.012-.697.317-2.932.58-4.182-1.338-1.25-1.918-2.236-4.6-1.767-6.159.47-1.559 3.137-3.918 4.14-5.054 1.002-1.135 1.668-3.12 2.255-4.512.586-1.392 1.691-3.278 3.793-6.182Z"/>
    <path fill="#C02000" d="M110.287 181.518c-.286 1.028-.898 1.489-1.555 1.775-.656.287-1.767.067-2.74-.879-.316-.308-.42-.822-.37-1.417 1.229.75 3.161.903 4.034-.722.87-1.622 1.65-2.402 2.508-2.963a16.698 16.698 0 0 0-1.877 4.206Zm16.685-5.42c-.308 2.066-1.098 2.739-1.791 3.491-.462.502-1.13.94-2.003 1.312a2.842 2.842 0 0 1-1.81-.93c-.632-.684-.699-3.053.211-5.004-.178 5.249 3.02 3.051 4.784.124.656-1.09 1.315-1.861 1.98-2.463-.527.897-1.14 1.927-1.37 3.47Zm14.168-13.091c-.372 1.807-.348 1.832-.882 2.577-.44.433-.89.78-1.079 1.09-.189.31-.75 1.104-1.497 2.866-.747 1.761-1.134 3.388-2.13 3.78-.997.39-1.67.365-2.803-.423-.816-.567-.612-1.92-.225-2.992.223 1.011 1.376 1.164 2.208.939 1.365-.37 2.918-2.33 3.543-3.714.519-1.153 1.491-2.597 2.917-4.333-.02.068-.038.139-.052.21Zm12.786-6.87c-.534 1.782-1.158 5.486-1.217 6.652-.06 1.167-.447 3.596-.965 3.853-.519.257-.595 1.338-1.776 1.078s-2.828-1.748-2.874-2.842c-.013-.302.062-.83.199-1.485.915 2.17 3.783 2.62 4.538-2.393.491-3.262 1.556-5.571 3.194-6.928a5.932 5.932 0 0 0-1.1 2.066Zm12.192-7.955c-.42 1.99-1.238 4.817-1.88 5.874-.643 1.056-1.038 2.12-2.039 2.186-1 .068-2.2.045-2.112-1.939.023-.51.193-1.16.445-1.87.99.484 2.566 1.896 3.594-.9.665-1.806 1.645-3.652 2.563-5.057a7.928 7.928 0 0 0-.571 1.706Zm12.872-8.883c.293 2.985 1.84 8.041 2.913 9.722 1.072 1.68.223 3.498 0 3.994s-.438.745-.903.712c-1.48.436-4.236-.931-5.263-4.306 2.224 1.63 3.639 2 4.244 1.106 1.328-1.958-2.136-8.968-2.236-11.044-.083-1.738.501-4.165 1.027-5.17.16.835.007 2.837.218 4.986Zm6.614-8.89c.82 1.704.544 3.124 0 4.012-.697.317-2.932.58-4.182-1.338-.48-.737-.921-1.586-1.256-2.44.305.228.649.472 1.033.732 1.62 1.096 4.294.738 3.18-1.349-.703-1.314-.994-2.854-1.044-3.835.541 1.217 1.69 3.013 2.269 4.217Zm4.239-12.61c.709 1.746 2.174 4.68 1.4 6.042-.32.563-.411 1.233-1.08 1.35-.95.169-2.219-.415-2.686-.814-.683-.582-1.257-1.658-1.722-3.228.535.512 1.334.953 2.296.111 1.206-1.057-.076-3.24.562-4.885.638-1.645.944-1.373 1.402-1.903a.175.175 0 0 1 .028-.025c-.33 1.308-.498 2.619-.2 3.352Z"/>
    <path fill="#DEC8C3" d="M179.266 133.171c-1.875-.238-3.209.006-4.002.732-1.189 1.088-3.21 6.316-3.17 7.265.026.633.026 1.326 0 2.08l1.481-1.441c-.124-.421-.124-1.166 0-2.235.187-1.603 1.473-3.79 2.67-4.592a4.069 4.069 0 0 1 2.606-.704l.415-1.105Z"/>
    <path fill="#BE231D" d="M198.966 113.32c.243-.379 1.077-1.179 1.123-1.974.052-.906-.74-1.82-1.443-2.365-1.32-1.024-5.953.875-6.884 1.241-.93.366-1.947 3.637-2.212 4.455-.266.818.468.643 1.73 0 1.263-.643 2.347-.807 3.733-.809 1.386-.002 3.433.262 3.953-.548Z"/>
    <path fill="#E63F00" d="m191.762 110.222.82-.32c1.525-.58 4.42-1.57 5.735-1.097l-.677.213c-3.455 1.115-6.177 2.436-6.64 3.895-.317.997-.858 1.333-1.284 1.25l.115-.343c.434-1.279 1.21-3.314 1.931-3.598Z"/>
  </g>
</svg>
