<svg xmlns="http://www.w3.org/2000/svg" viewBox="0 0 96 96">
  <defs>
    <path id="a" d="M0 0h96v96H0z"/>
  </defs>
  <g fill="none" fill-rule="evenodd">
    <path fill="#585858" d="M63.929 31.486c-.01.73-.212 1.013-.482 1.178-.18.11-.37.223-.568.339.546.145.896.266 1.05.36.23.143.84.783.733 1.447-.108.665-.232 1.337-1.045 2.617s-2.23 3.257-2.272 5.429c-.043 2.171.127 2.287.183 2.27.056-.016 2.009-.248 2.622-.135.613.114 2.58.933 3.241 1.082.663.148 2.33.36 3.385-.096 1.055-.456 2.32-1.383 2.847-2.572.527-1.189 1.71-3.822 2.262-4.358.55-.535 1.112-.89 1.416-.77.304.119.38.387.43.41.034.015.11.082.23.2.184-.838.279-1.518.284-2.037.008-.779-.199-3.031-.084-3.982.115-.952.4-1.342 1.145-1.279.745.064 1.405 1.241 1.288 2.797a20.87 20.87 0 0 1-.654 3.712c-.167.575-.541 1.22-.595 1.748-.054.53.182 1.548.141 1.955-.026.27-.056.537-.088.8.138.297.198.508.179.63-.028.186.028.406.09.454.06.048.479.241.81.983.332.741.683 1.95.559 2.458-.125.507-.239.639-.237.874 0 .157.618 2.809 1.852 7.956-.83 1.19-1.825 2.003-2.985 2.44-1.74.655-18.533 5.199-21.524 5.635-2.992.437-14.82 1.653-18.416 1.76-3.596.108-14.422-.123-16.188-.352-1.766-.229-7.855-1.17-10.288-2.45-2.434-1.28-2.935-2.27-2.71-3.764.223-1.493 1.29-3.048 2.71-3.462 1.42-.414 4.82-.89 7.819-1.183 2.818-.275 3.012-.324 3.17-.329h.522c.043-.107.132-.16.269-.16.204 0 1.52-.13 2.264-.285a6.168 6.168 0 0 1 1.456-.133c.132-.148.266-.222.4-.222.202 0 1.206-.255 1.534-.376.218-.08.393-.114.523-.103l.387-.185c.527-.613.846-.92.957-.92.11 0 .26-.03.448-.09.297-.262.514-.393.65-.393.203 0 1.119.049 1.317 0 .199-.049 2.095-.873 2.24-1.107.146-.234.466-1.002.891-1.133.425-.13 1.29-.221 1.629-.235.34-.014.488.135.62.067s.83-.7 1.172-.914c.342-.213.765-.479.774-.678.009-.2.289-1.092.708-1.407.42-.314.774-.407 1.291-.428.517-.02 1.261-.02 1.417-.129.155-.108.792-.693 1.156-.808.363-.115.38-.078.624-.41.244-.334.303-.967.645-1.219.342-.252 1.138-.645 1.343-.711.137-.044.35-.089.637-.135-.068-.155-.098-.267-.089-.336.014-.104.115-.674.585-.832.47-.159.881.023 1.019.16.177-.082 1.154-.833 1.437-1.065.283-.233.748-1.008 1.026-1.29.278-.28 4.282-4.003 5.11-4.803.827-.8 2.56-2.904 3.266-3.118.707-.213 1.47-.097 1.462.633Zm14.524 1.885c-.008.54.056 1.572.1 2.112.046.54.095 2.567.09 3.088-.004.348.094.86.293 1.538.245-.667.43-1.293.556-1.877.19-.876.765-3.568.705-4.398-.06-.829-.016-1.632-.757-1.951-.741-.319-.978.947-.987 1.488Zm-16.188-2.015c-.1.114-1.587 1.65-2.039 2.168-.452.519-5.395 4.893-5.595 5.115-.134.148-.333.379-.6.694.593-.404.98-.693 1.16-.869.271-.263 4.892-4.35 5.548-4.83.657-.48 1.718-.931 2.148-1.083.43-.152.87-.716.622-1.053-.25-.337-1.143-.257-1.244-.142Z"/>
    <path fill="#4B4949" d="M32.644 55.218c.17.888.252 4.573-1.196 5.715-1.027.81-6.963 3.444-13.072 3.621-1.963-.418-3.963-.953-5.126-1.565-2.434-1.28-2.935-2.27-2.71-3.764.147-.987.663-2.001 1.407-2.695 2.276 1.205 4.232 1.61 5.87 1.218 2.852-.682 5.053-.644 8.161-.995l2.458-.312c2.2-.297 2.982-.51 3.237-1.554l.036-.172c.256-1.433.765-.386.935.503Z"/>
    <path fill="#443F3F" d="M32.483 52.9c.026.43.732 1.702.982 2.122.25.42.065 1.057-.058 1.22-.124.162-.914.81-.924.458l-.007-.383c-.01-.378-.041-.876-.185-1.302l-.253-.677c-.192-.531-.381-1.188-.261-1.765l-.183.214.357-.402c.317-.346.517-.518.6-.518l.044-.004c-.144.368-.13.73-.112 1.038Z"/>
    <path fill="#C1C0C8" d="M77.732 38.686c.033.016.11.083.23.202l.065-.335c.179.12.409.29.656.488.045.293.13.649.253 1.068.084-.227.16-.45.23-.668l.22.204-.041.201c-.054.53.182 1.548.141 1.955-.026.27-.056.537-.088.8.11.238.17.42.18.546l-.001.085c-.028.185.028.405.09.453l.163.111c.167.127.426.378.647.872.332.741.683 1.95.559 2.458-.125.507-.239.639-.237.874l.023.145c.122.632.732 3.236 1.829 7.81-.83 1.19-1.825 2.004-2.985 2.44l-.266.093c-.933.308-3.356.999-6.261 1.793l-4.37.8c-4.473.783-8.393 1.338-8.917.922-1.129-.896-1.973-3.242-1.814-4.21.16-.966 3.801-3.686 4.87-4.874 1.07-1.187 1.723-2.155 1.813-3.155l.036-.609c.042-.989.047-2.242.335-2.676.235-.354.394-.521.477-.502l1.022.096c.471.04.883.066 1.236.079.794.123 2.08.201 2.95-.175 1.054-.456 2.32-1.383 2.846-2.572l.563-1.248c.165-.357.343-.735.522-1.1l1.888-1.76c.443-.407.782-.71.959-.849.103.112.145.224.177.238Z"/>
    <path fill="#A5AAB4" d="M78.936 40.11c.084-.228.16-.451.23-.669l.22.204-.041.201c-.03.295.03.742.082 1.15l-.14 1.125a10.67 10.67 0 0 0-.02.193c-.087.875-1.773 2.275-2.001 3.224-.137.565.303.409.782.075.158-.526.562-.847.877-1.043.315-.197 1.165-.49 1.851.886.204.634.346 1.32.26 1.67-.03.12-.059.22-.086.304l-.035.006-.299.047c-.792-.025-2.045-.22-2.647-.826-.602-.607-.594.722-.282 1.192l.34.529c.62.988 1.781 2.923 1.856 3.583.094.826-2.755 4.688-3.982 5.09l-7.4 2.528c-2.97 1.003-6.104 2.039-7.921 2.565-.37-.011-.62-.056-.728-.141-1.129-.896-1.973-3.242-1.814-4.21.16-.966 3.801-3.686 4.87-4.874 1.07-1.187 1.723-2.155 1.813-3.155l.036-.609.037-.945c.008-.16.016-.317.028-.47.036.012.063.048.08.109.286 1.05.154 3.494.422 3.393.268-.1 1.64-2.477 2.124-3.386.483-.91 4.427-.273 5.261-.739.834-.466 1.287-1.928 2.032-2.94.778-1.06 1.951-2.264 2.338-2.78.757-1.008 1.036-1.533 1.648-2.119.047.242.117.52.21.831Z"/>
    <path fill="#9599A0" d="M62.098 55.278c-.263 1.608 2.488 1.945 1.88 3.262l-.167.38c-.254.602-.635 1.561-1.088 2.567l-1.37.427c-.278.085-.537.162-.773.23-.37-.011-.62-.056-.728-.141-1.129-.896-1.973-3.242-1.814-4.21.132-.8 2.652-2.803 4.122-4.142.022.658 0 1.243-.062 1.627Z"/>
    <path fill="#8D95A3" d="M76.97 45.977c.043-1.251.683-2.068.892-1.493-.287.38-.521.742-.596 1.054-.138.572.314.405.8.063.288.779 1.007 1.206 1.836 1.318.508.069.888-.04 1.141-.33.025.215.026.401-.007.537-.03.12-.059.22-.086.304l-.334.053c-.704-.022-1.772-.178-2.424-.639l-.223-.187c-.455-.459-.562.188-.452.734-.339-.306-.57-.752-.547-1.414Z"/>
    <path fill="#888D94" d="m70.534 47.699.846.012c1.198.042 3.298.23 4.98 1.242 2.043 1.229 1.745 2.535 1.357 3.415-.389.879-2.357 3.652-4.404 4.541l-3.13 1.358c-3.85 1.65-9.499 3.978-9.282 3.241.295-1.007 1.063-1.743 1.77-2.509.705-.765-1.338-.612-1.561-1.482-.106-.413.06-1.753.425-3.309l.544-.484c.34-.308.63-.583.83-.805.363-.404.68-.782.94-1.145-.088 1.594 1.41.383 1.914-.027.507-.414 1.524-3.04 1.716-3.459.178-.39 2.057-.575 3.055-.59Z"/>
    <path fill="#464649" d="M33.674 55.79c.276-.931.517-1.924 1.52-2.633 1.004-.71 5.429-2.76 8.332-4.443 2.903-1.684 5.216-4.619 7.653-4.414 2.437.205 6.046-2.971 7.06-4.776 1.012-1.804 3.926-5.492 5.342-5.74 1.415-.25.446 1.46 0 2.187-.447.727-1.117 1.588-1.771 2.805-.655 1.217-.704 3.829-.63 4.72.05.593.095 1.195.138 1.803-.57.647-1.114 1.023-1.631 1.129-.777.16-9.925 1.482-10.71 1.993-.787.51-14.062 6.738-14.503 7.163-.441.425-1.076 1.137-.8.206Z"/>
    <path fill="#37373A" d="m61.166 43.269.152 2.03c-.57.647-1.114 1.023-1.631 1.129l-5.883.954c-2.295.39-4.463.802-4.828 1.039l-.235.132c-1.916 1.017-13.343 6.39-14.224 6.998.228-.525.468-.914.72-1.171.68-.691 5.194-2.548 6.871-3.9l.23-.198c1.446-1.361 6.189-3.287 9.204-4.463 3.014-1.176 5.455-.65 6.947-1.319 1.492-.669 2.463-2.814 2.772-4.39.02-.108.075-.169.158-.187-.253 1.158-.289 2.587-.253 3.346Z"/>
    <path fill="#282424" d="m64.662 34.81-.064.367c-.112.562-.316 1.203-.981 2.25l-.586.914c-.77 1.222-1.653 2.808-1.686 4.515l-.007.632c0 1.132.073 1.492.133 1.598-.068.788-.177 1.495-.44 2.258-.332.956-6.165 1.754-8.375 2.03-2.21.276-15.312 5.537-15.92 5.583-.608.047-1.463-.138-1-.538.43-.37 2.37-1.22 3.684-1.741l.291-.114c1.297-.502 6.51-2.966 7.519-3.731 1.008-.765 4.672-1.84 5.872-1.993l3.194-.345c1.965-.225 4.564-.96 4.823-1.387.26-.428-.127-1.58-.482-2.625-.354-1.045-.299-2.945.3-4.426.598-1.48 1.688-2.423 2.414-2.818.484-.264.693-.72.626-1.369l.375-.087c.2.277.371.648.31 1.027Z"/>
    <path fill="#240E0E" d="M61.03 47.344c-.292.846-4.891 1.568-7.479 1.914l-.895.116c-.086.01-.187.029-.304.054-.027-.432.176-.879.138-.961-.087-.188.218-.514.77-.625l.624-.116c.344-.06.734-.118 1.15-.17l.424-.05c.863-.094 4.384-.315 5.035-.471.48-.116.784-.88.915-1.35a8.137 8.137 0 0 1-.378 1.659Z"/>
    <path fill="#F33C55" d="m79.218 41.98.257-.081.011-.098c-.026.27-.056.537-.088.8.11.238.17.42.18.546l-.001.085c-.028.183.027.402.088.452-.909.198-1.836.998-2.09 1.934-.27.986.514 1.851 1.781 2.085.553.102 1.048.124 1.485.066a.623.623 0 0 0-.042.231l.023.145c.122.632.732 3.236 1.829 7.81-.83 1.19-1.825 2.004-2.985 2.44l-.652.216-.5.153c-1.35-.297-4.487-1.932-3.554-2.485 1.061-.63 2.886-1.903 3.577-3.126.691-1.223.307-2.774-.074-3.356-.382-.581-1.624-1.478-2.529-2.098-.904-.62-1.335-1.28-1.248-2.27.087-.992 1.526-2.162 2.5-2.65.541-.271 1.218-.538 2.032-.8Z"/>
    <path fill="#DE3650" d="m79.218 41.98.257-.081.011-.098c-.026.27-.056.537-.088.8.11.238.17.42.18.546l-.001.085c-.028.183.027.402.088.452-.909.198-1.836.998-2.09 1.934-.27.986.514 1.851 1.781 2.085.553.102 1.048.124 1.485.066a.623.623 0 0 0-.042.231l.023.145.368 1.647c.306 1.324.793 3.379 1.46 6.164-.829 1.19-1.824 2.003-2.984 2.44l-.652.215-.5.153c-.378-.083-.895-.27-1.424-.51 1.422-.489 2.487-1.127 3.198-1.914 1.485-1.643.88-3.26.624-4.417-.192-.872-1.405-1.752-2.563-2.276l.114.15c-.382-.581-1.624-1.478-2.529-2.098a4.136 4.136 0 0 1-.631-.52c.571.117 1.295-.077 1.966-.337.903-.35-.66-.65-.052-2.077l.14-.281c.546-.96-.088-1.257-.892-1.271.25-.174.497-.322.721-.434.541-.271 1.218-.538 2.032-.8Z"/>
    <path fill="#FC445C" d="m78.582 42.943.828-.313-.012-.03c.11.239.17.421.18.547l-.001.085a.753.753 0 0 0-.003.186c-.776.175-1.605.86-1.938 1.333-.351.498-.522 1.242-.28 1.898.242.655 1.103 1.162 1.714 1.302.442.102 1.162.16 1.752.164v.03l.368 1.647c.306 1.324.793 3.379 1.46 6.164-.829 1.19-1.824 2.003-2.984 2.44l-.652.215-.5.153c-.865-.19-2.465-.93-3.256-1.583l2.985-2.224c.4-.314 1.063-1.231 1.336-2.288.273-1.056-.291-2.704-.691-3.304-.356-.533-1.347-1.338-2.076-1.888l-.766-.564c-.455-.353-.73-.695-.585-1.399.195-.938 1.887-1.93 2.353-2.21.2-.121.483-.247.768-.361Z"/>
    <path fill="#FF93A1" d="M78.152 55.209c-.766.647-1.705 1.324-2.816 2.03a.79.79 0 0 1-.078-.058l2.985-2.224c.4-.314 1.063-1.231 1.336-2.288.051-.198.073-.418.072-.648.066.805-.263 2.143-1.499 3.188Zm-2.498-9.696c-.114.473.003.884.228 1.266-.354-.311-.548-.65-.42-1.265.194-.938 1.886-1.93 2.352-2.21.087-.054.191-.108.304-.161-.892.556-2.303 1.697-2.464 2.37Z"/>
    <path fill="#ED3A51" d="M79.07 47.951c.442.102 1.162.16 1.752.164v.03l.522 2.31c.306 1.31.742 3.144 1.307 5.5-.553.793-1.178 1.419-1.878 1.877.385-.916.41-2.48.365-3.977l-.077-1.894c-.078-1.972-.358-2.908-1.026-3.208l-.149-.055c-.422-.123-1.034-.511-1.564-1.05.255.146.519.25.748.303Zm-.533-4.992.871-.33-.01-.028c.11.238.17.42.18.546l-.001.085a.753.753 0 0 0-.003.186c-.776.175-1.605.86-1.938 1.333a2.205 2.205 0 0 0-.362.886c0-.842.62-1.9 1.263-2.678Z"/>
    <path fill="#131313" d="M79.306 31.59c.745.063 1.405 1.24 1.288 2.796a20.87 20.87 0 0 1-.654 3.712c-.167.575-.541 1.22-.595 1.748-.054.53.182 1.548.141 1.955-.026.27-.056.537-.088.8l.017.036-.259.1c-.135.044-.262.07-.307.023-.106-.107-.367-1.55-.396-1.864-.03-.315-.352-1.202-.472-1.452s-.007-.424 0-.667l.065-.296c.128-.654.195-1.198.2-1.63.007-.78-.2-3.032-.085-3.983.115-.952.4-1.342 1.145-1.279Zm-.853 1.78c-.007.433.033 1.18.072 1.738l.029.375c.045.54.094 2.567.088 3.088-.003.348.095.86.294 1.538.245-.667.43-1.293.556-1.877l.28-1.345c.222-1.12.465-2.5.425-3.053l-.044-.663c-.05-.568-.174-1.056-.713-1.288-.741-.319-.978.947-.987 1.488Z"/>
    <path fill="#212121" d="m47.512 44.324.07-.291-.094.168c.174-.237.254-.627.409-.922.24-.204.808-.593 1.26-.682.48-.095.788-.214.914-.284l.303-.233.148-.116c.2-.198.347-.376.439-.535l.073-.152a1.32 1.32 0 0 1 .225-.333c.173.043.302.12.369.185.177-.082 1.154-.833 1.437-1.065.283-.233.748-1.008 1.026-1.29l5.11-4.803.471-.485c.529-.562 1.2-1.314 1.783-1.873.604-.368 1.244-.67 1.675-.466.58.275.511.626.4.798.068-.159.073-.32-.021-.447-.25-.337-1.143-.257-1.244-.142L60.5 33.22l-.274.303c-.452.519-5.395 4.893-5.595 5.115l-.6.694.458-.318c.271-.194.475-.35.612-.469l1.043-.937c1.46-1.295 4.11-3.62 4.595-3.975.657-.48 1.718-.931 2.148-1.083.13-.046.262-.13.375-.235-.114.195-.208.433-.12.532l-.263.155.48.137c.278.086.467.16.57.224.23.142.84.782.733 1.446l-.064.367c-.112.562-.316 1.203-.981 2.25l-.586.914c-.77 1.222-1.653 2.808-1.686 4.515l-.007.65c0 1.546.14 1.635.19 1.62l.385-.048-.018.62c-.04.99-.127 1.753-.23 1.873-.22.26-2.355.825-2.859.864l-3.887.262c-.947.058-1.707.097-1.762.077-.145-.052-.599-2.76-.434-2.374.166.387.884 1.554 1.1 1.6.216.046 3.117.09 3.992 0 .7-.072 1.643-.233 2.152-.33l.29-.058c.312-.07.264-.431.339-.79.074-.359.51-.685.542-1.018.032-.333.093-1.736-.044-2.567L61 42.692c-.106-.634-.167-1.277.139-2.148.32-.91 1.542-3.067 2.144-4.071l.299-.482c.288-.425.713-1.374.462-1.818-.252-.444-1.124-.82-1.538-.826-.414-.007-1.441.445-2.977 1.797l-.665.59c-1.223 1.094-2.438 2.216-3.038 2.712l-.414.333-1.38 1.165c-.265.212-.402.369-.577.503l-.14.097c-.255.157-1.618 1.159-1.857 1.42-.24.26-.143.57.146 1.111.289.542.768 2.586.735 3.176l-.028.385c-.041.432-.12.775-.305.74-.238-.046-.488-1.941-.78-2.465l-.423-.787c-.184-.35-.412-.787-.683-1.312l-.619.692c-.418.456-.687.723-.807.799l-.196.087a65.237 65.237 0 0 0-3.26 1.726l-.489.284c-.27.162-.57.348-.88.545l-2.793 1.829c-.486.319-1.316.94-1.575 1.103-.23.145-1.328.548-1.982.745l-.222.063c-.588.155-2.242.9-2.674 1.254-.431.354.102 1.026.35 1.284.249.259.858.654 1.25.427.39-.227 1.426-1.51 1.459-2.072.032-.563.26-.995.615-1.119.355-.123.713-.214.931-.068.218.146.903 1.009 1.546.8.642-.209 1.63-.629 1.724-1.446.093-.817.71-2.163.72-2.24.012-.077.359-.347.506-.364.148-.016 2.06 1.83 2.33 1.946.269.115 1.708-1.566 1.73-1.946l.03-.278c.08-.588.309-1.697.605-1.71l.25-.007c.172.005.26.062.37.323l.157.382c.196.468.509 1.135.924 1.436.323.233.705.756 1.145 1.569l.193.366-1.84.781c-.245-.659-.406-1.19-.48-1.595l-.035-.228c-.059-.509-.393-1.403-.535-1.832l-.062-.222c-.018-.166-.097.824-.09 1.541l.003.173c.013.419-.108 1.05-.364 1.893l-.118.374-2.511 1.084a11.768 11.768 0 0 0-.173-.732 2.551 2.551 0 0 0-.152-.383l-.518-1.049c-.182-.391-.551-.94-1.108-1.647a1.107 1.107 0 0 0-.156.436l-.072.804c-.065.668-.186 1.647-.343 2.097l-.07.159c-.15.253-.17.655-.064 1.204l.065.288-2.487 1.062-.074-.466a3.964 3.964 0 0 0-.091-.423c-.066-.214-.238-.124-.523-.435l-.283-.322c-.334-.394-.778-.956-.9-1.242-.142-.333-.568 1.596-.74 2.209l-.055.171c-.045.083-.016.35.086.802l.209.816-2.435 1.15c-.1-.72-.224-1.103-.373-1.15-.224-.07-.834-.482-.976-.727-.141-.244-.612-1.612-.725-1.614-.114-.002-.537.06-.735.072-.197.01-.02-.071.107-.332a.537.537 0 0 1 .125-.152l.035-.01.196-.162c.123-.079.268-.157.414-.225l.04-.006.78.02c.236.004.452 0 .537-.02.199-.049 2.095-.873 2.24-1.107l.266-.481c.153-.262.35-.54.58-.635.21-.073.438-.11.678-.074l.739.113c.337.042.566.032.763-.117l.116-.109c.113-.058.663-.55 1.027-.814l.444-.29c.249-.167.466-.344.473-.486.009-.191.265-1.017.655-1.363.377-.105.979-.236 1.528-.217l.533.017c.2.001.269-.017.359-.082l.058-.046c.17-.14 1.276-.842 1.604-1.02l.078-.037c.1-.035.234-.139.405-.312Z"/>
    <path fill="#0E0E0F" d="m61.51 45.126.74-.082c.638-.061 1.523-.122 1.9-.053.613.114 2.58.933 3.241 1.082.51.114 1.616.266 2.579.122l.331-.063c-1.388.487-2.682.328-3.45.21l-.195-.03c-.729-.114-1.026-.246-1.25-.041-.225.205-.338 1.37-.363 2.56-.024 1.189-.428 2.327-1.47 3.785-.967 1.355-2.697 2.575-3.312 3.079l-.121.103c-.465.42-1.608 1.46-1.771 2.091-.164.632.25 1.946.688 2.655.437.71 1.025.812.874 1.162-.101.236-1.286 1.425-2.27 2.393l-1.35.17c-3.634.434-10.366 1.116-14.376 1.4.399-1.131-.346-1.793-1.03-2.18l-.7-.363c-1.264-.676-4.443-2.5-5.01-2.864-.643-.411-1.456-1.055-2.01-1.857-.553-.803-.461-1.03-.176-1.959.285-.929 2.069-1.79 2.727-2.027.658-.236 1.752-.21 2.259-.355.506-.144 2.45-1.318 4.51-2.208 2.06-.89 5.564-2.106 7.043-2.793 1.372-.638 4.024-.986 5.187-1.053l5.405-.233c.301-.023.509-.244.622-.328.113-.085.084-.62.187-.806.104-.185.27-.339.31-.511l.025-.17c.022-.202.049-.552.08-1.05l.05-.025c.032.182.07.231.096.24Zm15.791-6.85c.23.09.33.266.386.356-.16.027-1.636 2.229-3.04 4.185l-.222.307c-1.244 1.718-2.255 2.303-3.458 2.765l-.19.088c1.054-.456 2.32-1.383 2.846-2.572l.583-1.29c.569-1.232 1.285-2.685 1.679-3.068.55-.535 1.112-.89 1.416-.77Z"/>
    <path fill="#3D3D3E" d="M63.134 45.719c.726.01 1.908.293 2.615.448-.148-.007-.252.02-.344.104-.224.205-.337 1.37-.362 2.56a5.195 5.195 0 0 1-.28 1.59c.06-.964-.004-2.128-.25-2.613-.32-.631-1.24-1.195-2.229-1.412a6.69 6.69 0 0 1-1.023-.298l.023-.136.012-.125c.727-.086 1.34-.125 1.838-.118Z"/>
    <path fill="#B8BEC6" d="M27.49 54.42c.307-.007 1.928.636 1.6.735l-2.522.602c-1.685.414-3.803.976-5.03 1.484-2.191.906-2.89 1.452-2.686 2.04.192.552 1.22.69 3.207.258l1.144-.272c2.35-.577 5.918-1.497 6.689-1.731.856-.26 2.18-1.04 2.587-1.199.272-.105.48-.133.623-.084-.124.856-.1 1.464.072 1.822.172.358 1.248 1.337 3.228 2.936.17 2.544-2.068 4.111-6.712 4.701l-3.269-.102c-1.376-.053-2.429-.112-2.883-.171l-.998-.14c-2.433-.365-7.204-1.213-9.29-2.31-2.434-1.28-2.935-2.27-2.71-3.764.223-1.493 1.29-3.048 2.71-3.462a16.72 16.72 0 0 1 1.524-.342c-.003.213.06.42.259.558.569.394 2.042.7 4.315.358 2.272-.342 7.836-1.911 8.143-1.918Z"/>
    <path fill="#AAB0B7" d="M18.852 59.282c.19.545 1.197.686 3.142.272l1.336.073c1.379.084 2.802.198 3.518.335l.38.082c1.55.366 4.09 1.228 3.855-.257-.124-.784-.057-1.735.202-2.854l1.068-.541c.049-.023.091-.041.126-.055.272-.105.48-.133.623-.084-.124.856-.1 1.464.072 1.822.172.358 1.248 1.337 3.228 2.936.17 2.544-2.068 4.111-6.712 4.701l-3.269-.102-1.787-.083a17.893 17.893 0 0 1-1.096-.088l-.998-.14-1.086-.172c-2.571-.423-6.396-1.187-8.204-2.138-2.434-1.28-2.935-2.27-2.71-3.764.223-1.493 1.29-3.048 2.71-3.462l.455-.119.264-.06c-.251.376-.383.713-.327.96.159.7 2.278 1.89 3.536 1.8l.265-.031c.32-.045.806-.136 1.457-.272l1.614-.352c-1.386.652-1.83 1.108-1.662 1.593Z"/>
    <path fill="#A1A6AC" d="M12.836 58.036c1.017.975 3.478 2.037 6.122 2.365 2.53.314 6.096-.292 6.957.736l.1.15c.602 1.174 4.842 1.14 5.987.979l.67-.126c.527-.113.739-.285-.028-1.291-.986-1.293-.918-3.13-.683-3.625.122-.256.526-.665.897-.99a.563.563 0 0 1 .244.019c-.124.856-.1 1.464.072 1.822.172.358 1.248 1.337 3.228 2.936.17 2.544-2.068 4.111-6.712 4.701l-3.269-.102-1.787-.083a17.893 17.893 0 0 1-1.096-.088l-.998-.14-1.086-.172c-2.571-.423-6.396-1.187-8.204-2.138-2.434-1.28-2.935-2.27-2.71-3.764.223-1.493 1.29-3.048 2.71-3.462l.126-.034c-.764.805-1.16 1.713-.54 2.307Z"/>
    <path fill="#878E96" d="m10.883 58.052.117.38c.675 1.874 2.446 2.94 5.316 3.199 4.782.43 7.658.024 8.432.709.774.685 2.216.997 3.313.605.66-.236 1.922-.5 2.752-.603l.506-.017.223-.014c.079.015.1.046.05.095l-.146.166c-.483.572-1.843 2.25-3.968 3.074l-1.057-.036-1.787-.083-.754-.053a8.26 8.26 0 0 1-.342-.035l-.998-.14-1.086-.172c-2.571-.423-6.396-1.187-8.204-2.138-2.434-1.28-2.935-2.27-2.71-3.764.058-.394.176-.792.343-1.173Z"/>
    <path fill="#DFE0E3" d="M33.174 58.075c.172.358 1.248 1.337 3.228 2.936.008.122-.163.082-.515-.12a63.35 63.35 0 0 1-1.906-1.641c-1-.906-1.085-1.25-1.124-1.696-.038-.438.017-1.043.185-1.312l.06.011c-.124.856-.1 1.464.072 1.822Z"/>
    <path fill="#F6898B" d="M31.652 52.72c-.07.351-.335.765-.775 1.339-.507.662-1.299.976-2.304 1.128-.837.127-2.27-.175-3.025-.375l-.361-.103c-.298-.095-.942-.25-1.549-.394l.586-.063.537-.001c.032-.08.09-.13.175-.15l.532-.043c.504-.048 1.305-.144 1.826-.252a6.168 6.168 0 0 1 1.456-.133c.099-.111.199-.18.3-.209l.1-.013c.177 0 .967-.195 1.382-.325l.152-.05c.218-.081.393-.115.523-.104l.387-.185.058-.066Z"/>
    <path fill="#AE4547" d="M31.652 52.72c-.07.351-.335.765-.775 1.339l-.1.112a1.155 1.155 0 0 0-.658.068l-.123.085c-.161.168-.947.337-1.419.38-.413.037-1.543-.094-2.086-.228l-.194-.057c-.399-.15-1.287-.142-1.39-.135a.37.37 0 0 1-.141-.03.22.22 0 0 1 .17-.154l.193-.015.823.146.788.151c.6.107 1.288.217 1.698.265 1.097-.028 1.48-.266 1.718-.513l.253-.287c.3-.31.63-.818.742-.956l-.063.082a.67.67 0 0 1 .12 0l.386-.186.058-.066Z"/>
    <path fill="#302D2D" d="M33.928 51.515c-.333.034-.557.47-.517.641.04.172.568 1.199.739 1.365.17.166.598.563 1.043.523.445-.04 2.329-.53 2.47-.523.14.007.545-.475.6-1.29a6.409 6.409 0 0 1 .302-1.568c.975.991 1.664 1.491 2.07 1.501.608.015 2.505-1.167 2.637-2.183.132-1.017.132-2.645.202-2.601.07.043 1.032 1.884 1.842 1.972.81.088 2.506-.706 2.845-1.435.227-.487.351-1.178.375-2.074.659 1.51 1.206 2.249 1.64 2.216.653-.048 2.102-.188 2.417-.504.316-.316.627-1.134.465-1.633-.162-.499-1.081-3.078-1.257-3.467-.176-.388-.445-1.114-.47-1.312-.018-.132.065-.159.25-.081-.137-.168-.354-.236-.653-.203-.448.049-.74.391-.798.664-.057.273-.092.34.112.734.204.394 1.791 3.73 1.827 3.938.035.208.084.618-.268.676-.352.058-1.523.412-1.67.325-.148-.088-.275-.263-.316-.601-.041-.338-.657-1.74-.635-1.903.014-.109.014-.443 0-1.002l.307-.521c-.397-.146-.673-.198-.828-.157-.232.062-.758.306-1.006.74a3.706 3.706 0 0 0-.466 1.82c.01.723.204 1.43.16 1.707-.044.277.008.33-.27.468-.278.137-1.607.47-1.761.541-.154.07-.248-.184-.265-.371-.016-.188-.454-1.178-.516-1.398a11.43 11.43 0 0 0-.094-.324c-.42-.037-.69.04-.808.228a1.157 1.157 0 0 0-.175.638l-.075-.638c-.28-.027-.516.122-.709.448-.193.326-.31.647-.35.964a87.33 87.33 0 0 0-.267 2.097c-.003.1-1.596 1.001-1.743 1.004-.146.004-.271.085-.249-.135.023-.219-.367-.812-.44-.924a1.062 1.062 0 0 0-.128-.17c-.35-.03-.572.031-.664.186a2.004 2.004 0 0 0-.218.564c.067-.447.099-.697.096-.75-.005-.081-.528-.133-.77 0-.24.132-.537.56-.597 1.05-.06.49-.278 1.714-.32 1.843-.044.13-1.276.871-1.425.92-.15.05-.171-.096-.17-.208.001-.112-.253-.66-.444-.945-.19-.285-.506-.825-.58-.825-.073 0-.144-.06-.477-.027Z"/>
    <path fill="#393535" d="M36.95 52.714a.328.328 0 0 1 .15.06l.064.062c.23.283.643.236.936.13-.148.362-.348.56-.438.555-.14-.007-2.024.484-2.469.523-.445.04-.872-.357-1.043-.523a1.71 1.71 0 0 1-.199-.287c.26.285.643.518 1.082.54.263.013.471-.128.626-.279.224-.112.965-.557 1.251-.782l.04.001Zm1.84-2.739c.002.4.068.675.198.823.242.275.747.504 1.057.586.186.049.204-.202.192-.441l.077-.007c.12-.002 1.22-.612 1.608-.885l.086.032.079.045c.403.278.844.233 1.131.075-.343.958-2.019 1.975-2.583 1.961-.406-.01-1.095-.51-2.07-1.5l.02-.136.06-.278-.03.207c.036-.148.08-.281.133-.399l.043-.083Zm4.949-3.662c-.039.23-.1.63.015.95.173.484.827 1.164 1.128 1.189.148.012.277-.065.392-.156l.042-.008c.154-.07 1.483-.404 1.761-.541.155-.076.207-.127.23-.204l.065.011c.337.126.669.04.996-.257-.054.234-.123.44-.207.62-.339.73-2.035 1.523-2.845 1.435-.81-.088-1.773-1.929-1.842-1.972-.006-.004-.01.003-.015.019l-.002-.341.011-.17a1.14 1.14 0 0 1 .087-.32l.078-.145a.396.396 0 0 1 .071-.085l.035-.025Zm5.506-2.735-.065.112.005.253c-.221.2-.357.365-.41.496-.108.267-.152.674-.142.92.01.248.224.825.43 1.258.175.37.634.504.939.525h.059l.07.054c.13.077 1.07-.194 1.525-.296l.145-.03c.27-.044.304-.296.29-.505.197.054.417.063.656.028.162-.023.276-.128.343-.313.07.494-.211 1.19-.497 1.475-.315.316-1.764.456-2.416.504-.435.033-.982-.706-1.641-2.216l-.004.134c-.03-.593.005-1.042.1-1.352.118-.381.314-.721.59-1.022l.023-.025Z"/>
    <path fill="#F24865" d="M35.44 55.368c-.897.372-2.498 1.199-1.901 2.244.596 1.046 3.704 2.704 5.021 3.35 1.317.645 4.134 2.244 5.698 2.403 1.565.16 2.603.031 4.965-1.217 2.361-1.247 12.073-8.27 12.935-9.052.863-.782 2.203-2.622 2.105-3.823-.097-1.2-.925-2.045-1.643-2.34-.555-.227-.927-.374-1.212-.437-.082-.018-.17.345-.282.438-.112.093-.53.299-.209.32.321.02.318.307.149.389-.17.083-.973.205-1.613.253-.64.05-2.547.213-3.34.226-.794.013-2.526.209-2.984.294-.457.085-2.607.63-2.853.7-.246.069-.43.138-.916.297-.323.106-.557.166-.7.178l-.096-.087c-2.07.825-3.166 1.263-3.285 1.312-.18.073-.236.215-.364.283-.128.068-1.079.47-1.193.506-.115.036-.252-.07-.403 0-.151.07-3.139 1.476-3.294 1.57-.155.095-.058.173-.249.269-.19.096-1.052.578-1.169.603-.116.025-.269-.001-.403.053-.133.055-1.866.896-2.764 1.268Z"/>
    <path fill="#BB213E" d="m61.408 46.496.075.018.022.347c.027.52.02.847-.02.98-.083.27-.653.977-1.17.976l-.43.02c-.749.05-2.077.173-2.677.172l-.188-.007c-.545-.048-1.023.105-1.477.142-.455.038.258-.129.144-.24-.11-.11-1.261-.275-1.814-.59l.777-.087a25.18 25.18 0 0 1 1.158-.094l.305-.011c.793-.013 2.7-.177 3.34-.226l.498-.048c.504-.059.988-.143 1.115-.205.145-.07.168-.292-.03-.366l-.119-.024c-.321-.02.097-.226.21-.32.112-.092.199-.455.281-.437Z"/>
    <path fill="#7D0B18" d="M60.443 48.412c-.704.288-2.737.463-3.615.442l-.937-.06c-.274-.024-.538-.076-.973-.258a1.715 1.715 0 0 1-.47-.286l.202-.023.8-.071c.126-.01.246-.017.358-.023l.305-.011c.793-.013 2.7-.177 3.34-.226l.498-.048.42-.056c.331-.05.604-.105.695-.149-.105.386-.317.644-.623.77Z"/>
    <path fill="#4D0916" d="M61.24 46.758a.73.73 0 0 1-.119.402c.394.03.183.313.082.47-.088.137-.46.26-.978.326l-1.028.106c-.924.1-2.174.256-2.067.329.145.1 2.489-.113 3.019 0 .53.113-3.447.258-4.052.278-.473.017-.746-.173-1.024-.48l.505-.042.535-.025c.793-.013 2.7-.177 3.34-.226l.498-.048.42-.056c.331-.05.604-.105.695-.149.145-.07.168-.292-.03-.366l-.119-.024c-.321-.02.097-.226.21-.32l.064-.082.05-.093Z"/>
    <path fill="#FFBFCA" d="M61.408 46.496c.285.063.657.21 1.212.438.566.231 1.19.97 1.353 1.457.164.487.158.594.162.71.01.293-.263-.671-.379-.9-.116-.227-.518-.707-.752-.892-.234-.185-.897-.48-1.327-.626a2.26 2.26 0 0 0-.359-.095l.04-.063.05-.03Z"/>
    <path fill="#FFAFAC" d="M61.924 47.162c.04.011.604.22 1.003.727.4.506.431 1.325.335 1.369-.097.044-.234-.82-.621-1.142-.387-.323-.58-.272-.325.205.255.477.525.917.399.895-.126-.022-1.95-.134-1.82-.313.129-.178.694-.598.797-.903.102-.305-.196-.69-.084-.79.112-.1.275-.06.316-.048Z"/>
    <path fill="#EFE8E8" d="M61.921 47.34c-.204-.122-.131-.164.086-.145.178.075.601.29.92.694.043.054.082.112.116.173.052.175.087.335.09.399.01.164-.197-.336-.465-.602-.268-.267-.49-.367-.747-.52Z"/>
    <path fill="#FFC8C6" d="M53.898 48.402c-.354.173-.149.671-.348.642-.199-.028-1.234.171-1.074.172.16 0 1.104-.067 1.18 0 .075.067-1.337.326-1.684.452a48.453 48.453 0 0 1 2.52-.294c.503-.042 1.286-.441 1.187-.455-.099-.014-.702-.165-.975-.325s-.451-.365-.806-.192Z"/>
    <path fill="#FFC7D0" d="m35.696 55.732-.092.082c-.246.144-.257.55-.422.704l-.193.192c-.189.202-.41.487-.38.684.042.277.33.663.837.95l1.476.824c.32.175.662.358 1 .532l.661.333c1.178.572.77.864 1.091 1.113.322.249 1.386.702 1.242.702-.042 0-.369-.147-.82-.362l-3.217-1.574c-.46-.225-1.685-.892-2.196-1.238-.512-.345-1.1-1.105-1.128-1.45-.028-.344.272-.852.428-1.003.07-.068.279-.222.486-.368.221-.136.453-.254.667-.352l.623-.269a.522.522 0 0 1-.063.5Z"/>
    <path fill="#FF3C51" d="M45.453 62.578c.554-.038 2.166-.49 3.523-1.363 1.358-.874 5.77-3.818 7.16-4.763 1.39-.946 5.068-3.676 5.83-4.49.763-.816 1.246-1.677 1.157-2.294-.089-.617-1.76-.793-3.279-.761-1.518.031-5.488.428-7.314.682-1.827.254-4.14.973-5.592 1.492-1.45.519-5.315 2.292-6.391 2.798-1.077.505-3.419 1.742-4.224 2.106-.805.365-1.838 1.117-1.588 1.693.249.575 1.614 1.273 2.749 1.831 1.134.558 4.657 2.246 5.537 2.597.88.351 1.878.51 2.432.472Z"/>
    <path fill="#D8D8D8" d="M62.981 49.579c-.088-.142-.156-.392-.545-.488-.39-.095-1.057-.162-1.295-.188-.238-.026.223.042.407.1.184.056-.215.102-.83.088-.615-.014.164.105.766.125.601.02.796-.04 1.102.094.306.135.484.41.395.269Z"/>
    <path fill="#F5818C" d="M41.768 53.312c-2.349 1.371-1.764 2.267-1.98 3.232-.23 1.021-3.482.9-5.054.752.154-.432.769-.89 1.346-1.192l.761-.366c.826-.407 2.128-1.084 3.075-1.553l1.236-.588.616-.285Zm17.715-4.393.056.038c.468.342.644.695.334.987-.928.873-3.557 1.275-5.058 1.413l-.325.027c-1.413.106-.777-.378.213-1.27.904-.817-4.805-.01-9.487 1.664l.965-.404c.195-.08.374-.15.534-.21l.223-.083c1.451-.519 3.765-1.238 5.592-1.492l.9-.117c1.843-.223 4.603-.49 6.053-.553Z"/>
    <path fill="#E72342" d="m62.541 50.367-.098.17c-.716 1.112-1.176 2.49-1.49 3.5l-1.956 1.44c-3.309 2.405-8.192 5.835-9.774 6.671-2.362 1.248-3.4 1.376-4.965 1.217-.758-.077-1.812-.493-2.846-.974.387.105.532.04.291-.303-.747-1.065-3.556-2.655-4.967-3.57-1.355-.878.324-1.334 2.29-1.134l.247.028c1.964.252 4.758-.427 9.01-1.935l1.651-.601c4.212-1.579 8.621-3.562 9.557-4.264l.093-.075c.711-.643 3.63-1.496 2.957-.17Z"/>
    <path fill="#F23045" d="M37.346 52.853c.13.301.274.597.316.668.042.071.334.664.387.898.053.235.307.226.204.295-.102.07-2.136 1.031-2.33 1.122-.195.091-.445.076-.346-.014a.427.427 0 0 0 .114-.134c-.196-.62-.31-1.005-.341-1.154-.047-.223-.217-.82-.132-.909.084-.089.464-.234.638-.339.174-.104.908-.718 1.032-.721.125-.004.33-.012.458.288Zm4.712-2.978c.096.078.377 1.093.438 1.184.06.092.161-.27.228-.215.066.054.29.96.312 1.117.022.158.287.215.173.323-.114.11-.341.206-.625.348-.285.143-1.577.745-1.76.841-.185.096-.296.039-.175-.036.061-.044-.122-.463-.164-.615-.042-.152-.408-1.141-.44-1.438-.032-.297-.014-.506.107-.54.122-.035.549-.172.983-.484.434-.313.827-.564.923-.485Zm5.274-2.093c-.064.257.165.817.183.97.018.153.293-.228.352-.464.101.436.134 1.1.133 1.336-.001.237-.04.427 0 .427s.342-.074.335.049c-.007.123-.188.189-.468.282-.28.092-1.847.813-2.006.85-.16.036-.203-.024-.214-.15-.01-.128-.457-1.633-.536-2.11-.078-.476-.103-.624 0-.684.103-.06 1.123-.536 1.363-.564.24-.029.427-.076.602-.176.174-.1.32-.023.256.234Zm4.694-1.354c.03.005.112.281.144.445.032.163.187.566.29.633.102.066.384-.221.42-.19.035.03.337.842.391 1.037.054.196.073.406.112.43.038.024.094.055.155.112.06.058-.11.159-.267.166a9.01 9.01 0 0 0-.811.081c-.33.049-.899.097-1.208.232-.31.135-.452.225-.504.2-.052-.024-.335-.822-.516-1.286-.18-.463-.325-1.109-.246-1.178.078-.069.88-.294 1.194-.433.314-.14.817-.254.846-.249Z"/>
    <path fill="#FF8C98" d="m37.322 52.802-.757.518c-.487.34-.986.697-1.293.898l-.059-.3c-.022-.14-.029-.257.005-.293.084-.089.464-.234.638-.339l.697-.519c.157-.114.289-.2.335-.202.117-.004.305-.011.434.237Zm4.736-2.927c.031.025.082.15.138.31-.59.408-1.63.966-2.05 1.125l-.106.032-.008-.125c-.008-.207.023-.346.12-.373l.173-.057c.155-.056.382-.153.625-.304l.5-.342c.297-.198.536-.325.608-.266Zm5.29-2.192-.016.099a.627.627 0 0 0-.003.22l-.988.351c-.482.165-.97.325-1.266.405-.047-.31-.049-.42.036-.47.103-.06 1.123-.536 1.363-.564.16-.02.296-.046.421-.092l.18-.084c.15-.086.28-.042.272.135Zm4.678-1.255c.028.005.102.247.137.412l-.415.132c-.402.119-.947.263-1.634.43l-.126.029c-.03-.169-.034-.293-.002-.32.068-.061.69-.241 1.055-.379l.139-.055c.314-.14.817-.254.846-.249Z"/>
    <path fill="#D72639" d="m37.688 53.685.043-.03c.102.207.278.587.318.764.053.235.307.226.204.295l-2.33 1.122c-.195.091-.445.076-.346-.014l.094-.1a.14.14 0 0 0 .02-.034l-.228-.74 2.225-1.263Zm5.036-2.841c.066.054.29.96.312 1.117.022.158.287.215.173.323a1.122 1.122 0 0 1-.249.162l-2.137 1.027c-.184.096-.295.039-.174-.036.02-.015.013-.071-.006-.145l-.365-1.084 1.57-.871c.246-.14.452-.263.612-.37.014.048.027.08.036.092.06.092.161-.27.228-.215Zm5.143-2.556c.101.436.134 1.1.133 1.336l-.018.345c-.002.052.002.082.018.082l.138-.018c.094-.01.201-.007.197.067-.007.123-.188.189-.468.282l-.527.217c-.566.246-1.368.607-1.48.633-.127.03-.18-.004-.202-.083l-.01-.068c-.008-.083-.202-.756-.357-1.345.802-.266 1.608-.56 2.196-.964l.027-.029c.02.162.294-.219.353-.455Zm5.012-.972c.036.03.338.842.392 1.037l.09.395c.007.018.014.03.022.035l.096.063.059.05c.06.057-.11.158-.267.165l-.428.034-.187.02-.675.09c-.264.038-.543.088-.729.169l-.393.18c-.055.022-.09.03-.111.02-.017-.008-.06-.102-.117-.241l-.448-1.17c.704-.168 1.49-.477 2.2-.614l.078-.044.078.003c.126-.038.312-.217.34-.192Z"/>
    <path fill="#A82121" d="m38.253 54.714-2.33 1.122c-.195.091-.445.076-.346-.014l.094-.1a.14.14 0 0 0 .02-.034c.052-.009.119-.026.2-.054l.135-.05c.45-.185 1.149-.528 2.094-1.027.09.098.209.106.133.157Zm2.71-1.495.137-.072c.357-.225 1.862-.817 1.952-1.043l.022-.059c.075.099.227.153.135.24a1.122 1.122 0 0 1-.249.16l-2.137 1.028c-.184.096-.295.039-.174-.036.02-.015.013-.071-.006-.145l-.108-.135c.11.114.254.135.428.062Zm7.372-3.12c-.007.124-.188.19-.468.283l-.527.217c-.566.246-1.368.607-1.48.633-.127.03-.18-.004-.202-.083l-.026-.144c.11.04.238.034.386-.019l.296-.128c.329-.152.886-.426 1.672-.822l.006.012.146-.015c.094-.01.201-.007.197.067Zm5.1-1.283.103.08c.06.057-.11.158-.267.165l-.428.034-.187.02-.675.09c-.264.038-.543.088-.729.169l-.393.18c-.055.022-.09.03-.111.02l-.042-.068a3.144 3.144 0 0 1-.07-.162l.893-.24c.17-.043.327-.081.443-.102.395-.069.924-.13 1.463-.186Z"/>
    <path fill="#696D73" d="M70.534 47.699c1.921.236 4.938 1.247 5.986 2.245s.008 2.962-.514 3.837c-.523.874-2.342 2.435-3.046 2.858-.705.422-6.329 2.472-7.886 3.238-1.558.767-.456-.541.984-1.834 1.44-1.293-4.814 1.478-5.493.908-.679-.57-.182-1.34 1.255-2.656 1.437-1.317 3.54-2.892 4.375-4.878.835-1.986.974-2.723 1.284-3.129.31-.405 1.133-.826 3.055-.59Z"/>
    <path fill="#535A69" d="M66.617 52.269c-.866 1.03-4.266 3.64-4.868 4.099-.603.458-1.926 1.9-1.256 2.35.67.452 9.822-3.193 10.399-3.236.577-.044-1.31 1.276-2.605 2.098-1.295.822-3.902 1.959-4.908 2.349-1.005.39-2.873 1.042-3.506 1.465-.634.423.438.568 1.876.365 1.438-.202 8.338-2.944 9.821-4.086 1.483-1.143 3.253-2.385 4.097-3.365.844-.98 1.23-1.59.884-2.56s-9.068-.509-9.934.521Z"/>
    <path fill="#CCCDD0" d="M67.246 47.96c-.101.356.073 1.53-.117 2.176-.19.645-.424 1.935-1.586 3.158-1.162 1.224-4.204 3.693-4.787 4.204-.582.51-.638 1.36-.115 1.73.522.37 2.585-.12 4.39-.81 1.806-.692 7.994-3.602 8.913-4.055.92-.452 2.973-1.767 3.021-2.98.048-1.211-2.303-2.642-4.379-3.386-2.076-.744-3.951-.618-4.425-.565-.474.053-.813.172-.915.528Z"/>
    <path fill="#BA1F2F" d="M53.763 49.716c3.355-.34 6.389-.707 7.965-.361 1.577.346.905 1.109.426 1.709-.48.6-4.995 4.134-6.809 5.316-1.813 1.182-7.321 4.96-8.915 5.465-1.595.505-3.167-.181-5-1.009-1.834-.828-5.001-2.452-5.493-2.753-.493-.301-.77-.434-.683-.87.087-.437.52-.646 1.48-1.14.958-.494 6.308-3.023 7.576-3.51 1.268-.485 6.097-2.507 9.453-2.847Zm1.472.373c-3.828.333-5.828.988-8.664 2.02-2.837 1.034-6.776 2.87-8.045 3.415-1.27.544-2.707 1.257-2.814 1.661-.106.404 1.08.966 1.786 1.312.705.346 3.818 1.795 4.295 2.056.477.26 2.712 1.255 3.705 1.119.993-.137 2.562-.94 4.466-2.136 1.903-1.194 6.377-4.28 7.208-4.931.83-.651 3.664-3.291 3.11-3.941-.555-.65-1.22-.907-5.047-.575Z"/>
    <path fill="#5E0A13" d="M43.412 53.986c-.206-.016-.644.518-1.106 1.157-.463.64-.904 1.399-.988 2.327-.084.927.41 1.773 1.345 1.939.936.166 2.104-.01 3.737-.8 1.634-.792 11.146-6.014 11.32-6.172.175-.158.09-.345-.094-.294-.186.052-8.698 3.333-9.865 3.81-1.167.478-2.852 1.082-3.89.363-1.036-.718-.253-2.314-.459-2.33Z"/>
    <path fill="#D9D4D7" d="M43.344 54.12c-.206-.016-.644.518-1.106 1.158-.463.64-.904 1.398-.988 2.326-.084.928.41 1.773 1.345 1.94.936.165 2.104-.01 3.737-.801 1.634-.791 11.146-6.013 11.32-6.171.175-.158.09-.346-.094-.294-.185.051-8.698 3.332-9.865 3.81-1.167.478-2.852 1.081-3.889.363s-.254-2.314-.46-2.33Z"/>
    <path fill="#FFF" d="M57.716 52.497a.342.342 0 0 1-.063.075l-.118.074c-1.047.623-8.625 4.782-10.836 5.913l-.367.184c-1.633.79-2.801.966-3.737.8-.935-.166-1.43-1.011-1.345-1.939.064-.708.337-1.318.668-1.852-.338.7-.604 1.526-.538 2.325.1 1.21 1.485 1.828 3.508 1.12l.297-.113c1.5-.613 5.262-2.603 11.29-5.908l1.241-.68Z"/>
    <path fill="#6C1D24" d="M39.058 71.018c1.019-.732 1.883-1.218 2.592-1.459 1.065-.361 2.102-.779 3.749-1.003 1.646-.224 2.456-.26 3.128-.118.672.141 3.045.963 3.667 1.247.622.283.128-.831-.313-1.247-.44-.415-3.126-1.11-4.743-1.027-1.618.083-5.916 1.534-6.593 1.8-.452.177-.947.78-1.487 1.807Z"/>
    <path fill="#A2A3AD" d="M42.678 63.858c.533.102 1.643.291 2.622.259.653-.022 1.832-.108 3.538-.259-1.902.25-3.142.376-3.72.378-.579.001-1.469-.098-2.67-.3-.202-.12-.126-.145.23-.078Z"/>
    <path fill="#1A1A1A" d="M42.157 63.981c1.663.17 2.869.248 3.618.236 1.125-.018 11.016-1.547 12.094-1.933a152.07 152.07 0 0 0 2.413-.89c1.125-.018.798.657-.981 2.026-2.67 2.052-1.116 5.73-.773 5.997.344.268.77.42 2.06.472 1.289.052 4.416.036 6.035-.643 1.619-.68 3.32-1.38 3.678-1.353.359.027.593.986.68 1.353.088.366.274.63.724.643.45.012 2.516.251 5.982 0s5.218-.364 6.72-1.128c.075-.008.597.417.53.656-.065.24-.487 1.035-1.499 1.482-1.012.447-3.527 1.1-7.438 1.1-.613 0-1.044-.279-1.162-.279h-1.41c-.223 0-.418.278-.908.278h-2.648c-.522 0-.67-.278-.905-.278h-1.351c-.156 0-.178.278-.466.278h-7.055c-1.812 0-4.72.015-6.106-.577-1.385-.592-1.797-1.412-1.935-1.73a3.102 3.102 0 0 1-.205-.814c-.352.044-.72.005-1.103-.116-.575-.182-1.586-.72-2.571-.77-.985-.051-2.757.08-4.623.406-1.244.217-2.065.448-2.461.694-2.571 1.913-4.26 2.874-5.067 2.884-1.34.017-3.793.039-4.778-.016-.984-.054-1.05-.15-1.297-.32-1.487.128-4.439-.386-4.359-.824.08-.437 2.21-3.686 7.788-5.452 1.313-.415 4.24-.876 8.779-1.382Z"/>
    <path fill="#363638" d="M57.748 68.82c-.04.994.326 1.582 1.099 1.764 1.159.274 2.264.244 3.625 0 1.36-.244 3.4-.82 5.248-1.867 1.231-.698-2.092-.664-9.972.104Z"/>
    <path fill="#3B3B3B" d="M52.626 63.721c-1.887.286-5.102.626-6.23.747-1.127.12-1.918.07-2.648 0-.487-.046-1.322-.046-2.507 0-2.932 3.656-3.66 5.172-2.183 4.545 2.214-.94 4.58-2.33 6.472-2.498 1.892-.167 3.702.09 4.61.479.907.39 2.097.807 2.42.726.323-.082 1.094-1.701 2.096-2.549.668-.565 1.789-1.44 3.363-2.624-2.338.592-4.136.983-5.393 1.174Z"/>
    <path fill="#2C2C2C" d="M50.89 66.696c.764.35 1.463.54 2.098.573-.184.252-.327.425-.428.45-.323.082-1.513-.336-2.42-.725-.908-.39-2.718-.646-4.61-.48-1.893.168-4.258 1.56-6.472 2.5-.306.129-.517.167-.634.113l-.023-.018.783-.46c1.585-.916 3.874-2.152 5.117-2.44 2.011-.464 4.657-.396 6.589.487Z"/>
    <path fill="#C4C5C8" d="M42.745 65.464c.087-.368.036-1.25 0-1.48-.035-.229-.928-1.13-2.762-1.966-1.834-.838-3.23-1.327-3.82-1.343-.589-.016-1.622.137-4.215.988-2.593.85-3.08 1.087-3.754 1.406-.674.32-2.269 1.07-2.61 1.149-.34.078-.418.093-.514 0a2.502 2.502 0 0 1-.275-.36c.275-.392.43-.654.466-.789.053-.201.022-.346-.466-.74-.488-.394-1-.413-2.113-.311-1.112.101-3.437.446-5.884.153-2.448-.294-3.649-.998-4.28-1.403-.631-.404-1.219-1.206-1.304-1.918-.085-.712-.228-1.1-.141-1.211.058-.075.105-.21.141-.408-.259-.04-.5.096-.723.408-.335.468-.47 1.567-.491 2.356-.02.79.051 2.822.8 3.99.75 1.167 1.57 1.928 2.004 1.946.098.291.295.72 1.326 1.258.336.49 1.802 1.36 2.446 1.677.644.317 1.89.754 2.193.541.303-.212 1.046-1.259 1.103-1.254.057.005.193-.052.239.447.045.499-.019 1.028.364 1.274s.711.81 1.03.927c.318.117 4.207.812 4.548.797.341-.014.304-.253.575-.275.27-.022.305-.1.378-.221.072-.12.582-.7 1.045-.546.464.153.768.445.953.73.186.287.82.287.887.312.068.025.11.4 1.106.4.179.027.237-.227.39-.214.155.013.217.214.413.214h1.14c.136 0 .102-.214.244-.214.142 0 .193.214.306.214h1.499c.124 0 .142-.258.277-.258.136 0 .252.258.377.258s2.233-.185 3.13-.493c.897-.308.918-.788 1.176-.934.26-.146 1.1-.929 1.418-1.365.319-.437.55-1.117.67-1.515.12-.398.62-1.858.708-2.227Z"/>
    <path fill="#A3A5AC" d="M42.793 64.883a2.908 2.908 0 0 1-.048.581l-.11.384c-.155.498-.415 1.269-.545 1.674l-.053.169c-.12.398-.351 1.078-.67 1.515-.318.436-1.159 1.219-1.418 1.365-.258.146-.279.626-1.176.934-.897.308-3.005.493-3.13.493s-.241-.258-.377-.258c-.101 0-.137.145-.2.218l-.077.04H33.49c-.113 0-.164-.214-.306-.214-.107 0-.114.12-.168.18l-.076.034H31.8c-.196 0-.258-.2-.412-.214-.154-.013-.212.241-.391.214-.996 0-1.038-.375-1.106-.4l-.319-.043c-.21-.035-.462-.105-.568-.268a1.787 1.787 0 0 0-.953-.731c-.463-.153-.973.425-1.045.546-.073.12-.107.199-.378.22-.27.023-.234.262-.575.276-.341.015-4.23-.68-4.548-.797-.266-.097-.538-.505-.843-.781l-.187-.146a.602.602 0 0 1-.129-.11l.118.013c.78.051 3.685.862 4.816 1.001 1.13.14 2.083-.417 2.365-.733.283-.316 1.262.877 2.17.973.908.096 8.253.091 8.966 0 .713-.091 1.935-1.809 2.404-2.565l.162-.286c.21-.396.492-1.01.845-1.84l.601-1.444Zm-29.66 1.602c1.105.643 2.816 1.782 3.463 2.097.508.248 1.378.565 2.191.81l-.018.015c-.303.213-1.55-.224-2.193-.54l-.47-.25c-.715-.4-1.707-1.035-1.976-1.428a4.242 4.242 0 0 1-.83-.542l-.167-.162Z"/>
    <path fill="#A4A6A8" d="m25.011 63.498.04-.02-.256.38.158.223c.046.06.085.105.117.137.017.016.034.03.051.04-.08.078-.464.261-.707.329l-.124.025c-.202.016-.684.264-1.4.78-.717.518-1.669 1.358-2.037 1.835-.368.477-.638 1.64-.601 1.964.023.212.256.58.401.824l-.178-.141c-.383-.246-.319-.775-.364-1.274-.046-.499-.182-.442-.239-.447-.047-.004-.565.714-.914 1.081l.506-1.454c.115-.33.434-1.045.61-1.16.176-.115.105.278.003.568-.103.29.23.376.3.226l.096-.162c.223-.352.78-1.137 1.352-1.632.697-.606 1.364-.963 1.672-1.094l.603-.246c.099-.042.199-.088.3-.14.182-.093.312-.243.419-.386l.192-.256Z"/>
    <path fill="#CCC" d="M41.698 67.096c-.12.61-1.773 3.861-2.985 4.016l-.585.061c-1.643.148-5.053.33-6.419.366l-1.867.052-.245-.031c-.212-.034-.482-.102-.593-.273a1.787 1.787 0 0 0-.953-.731c-.463-.153-.973.425-1.045.546-.055.09-.087.157-.214.194l-.806-.143-3.532-.781c-.908-.191-1.644-.327-1.7-.271l-.138-.123-.148-.109c-.037-.362.158-.708.526-.658l.365.07c1.159.247 4.257 1.028 4.832 1.092.592.065 1.084-.594 1.672-1.23l.2-.21c.678-.691 1.92-1.8 1.871-1.402-.048.398-.565 1.087-.945 1.597s-.048 1.28.945 1.3l3.086.072c1.509.025 3.1.026 3.716-.073l.745-.123c.83-.144 1.503-.307 1.825-.615l.171-.186c.64-.738 2.329-2.956 2.221-2.407Zm-16.537-4.183c-.038.166-.434.81-.472.888-.039.077-.357.366-.553.45l-.617.25a6.597 6.597 0 0 0-.248.111c-.332.159-1.628.873-2.078 1.403-.45.53-.792 1.248-.947 1.516-.14.241-.306.041-.17-.343l.058-.135c.232-.468-.114-.403-.331 0l-.423.783c-.15.288-.287.57-.34.749-.108.359-.22.66-.54.76-.063.02-.024.06.08.113-.46.038-1.453-.32-2.004-.592l-.47-.249c-.715-.4-1.707-1.035-1.976-1.428-1.03-.538-1.228-.967-1.326-1.258-.435-.018-1.255-.78-2.004-1.947a3.637 3.637 0 0 1-.332-.677l.302.4c.533.695 1.176 1.472 1.344 1.544.301.13.172-.832.268-.744.096.088.335.91.417 1.161.071.218 1.81 1.114 2.891 1.647l1.388.676c.61.282 1.148.464 1.422.23.411-.348.56-1.378.825-1.525l.606-.42c.679-.487 1.727-1.255 2.236-1.575l.148-.089c.586-.329 2.158-1.159 2.374-1.351l.33-.308c.097-.084.161-.123.142-.04Z"/>
    <path fill="#D6DBDB" d="M36.163 60.675c.59.016 1.986.505 3.82 1.343 1.834.837 2.727 1.737 2.762 1.966l.018.155c-.198-.263-.422-.19-.566-.067-.152.13-.353 1.125-.675 1.584-.322.458-2.783 1.46-4.786 1.748l-1.756.232c-1.353.167-2.474.284-2.607.317-.187.048-.903.424-1.642.776-.739.352 1.114-1.651 1.642-1.915.528-.263-.656-.685-1.046-.676-.39.009-2.372 1.685-2.723 1.815-.352.13-1.524.064-3.043-.145-1.52-.21-2.997-.538-3.573-.503-.576.035-1.452.798-1.318.302.133-.497.594-.847 1.068-1.254.475-.407 1.84-1.35 2.26-1.527.326-.136.77-.37 1.125-.571.08.049.182.027.461-.037.248-.057 1.16-.47 1.897-.814l1.318-.613c.403-.175.943-.385 1.96-.732l1.19-.396c2.592-.85 3.625-1.004 4.214-.988Zm-25.077-3.45.128.006c-.036.198-.083.333-.141.408-.087.112.056.5.141 1.211.085.712.673 1.514 1.304 1.918l.284.177c.69.408 1.875.971 3.996 1.226 2.447.293 4.772-.052 5.884-.153l.6-.045c.716-.035 1.122.04 1.513.356.488.394.52.539.466.74a1.068 1.068 0 0 1-.1.223l-.219.35c.11-.48.128-.754.053-.821-.124-.11-.436.12-.852.425-.417.306-1.895.917-2.782 1.705l-.399.343c-.824.694-1.76 1.385-1.85 1.402-.103.02-4.24-1.586-5.21-2.084-.97-.498-2.414-1.713-2.35-2.49.062-.778-.2-1.649-.73-2.19-.422-.433-.545-1.364-.563-1.789.064-.201.14-.376.232-.504.186-.26.385-.398.595-.413Z"/>
    <path fill="#F0F0F0" d="M36.163 60.675c.59.016 1.986.505 3.82 1.343 1.834.837 2.727 1.737 2.762 1.966l.018.155a.47.47 0 0 0-.172-.149c-.116-.28-.79-.802-2.057-1.462-1.323-.689-3.8-1.596-4.448-1.62-.54-.018-2.041.354-3.268.694l-.694.196c-1.281.372-4.574 1.587-5.275 1.896l1.95-.903.333-.14c.37-.148.865-.331 1.628-.592l1.188-.396c2.593-.85 3.626-1.004 4.215-.988Zm-25.077-3.45.128.006c-.036.198-.083.333-.141.408-.087.112.056.5.141 1.211.085.712.673 1.514 1.304 1.918l.284.177.355.198c.721.376 1.846.813 3.64 1.028 2.448.293 4.773-.052 5.885-.153l.6-.045c.716-.035 1.122.04 1.513.356.488.394.52.539.466.74a1.068 1.068 0 0 1-.1.223l-.097.163a.817.817 0 0 0-.044-.195c.035-.247.027-.393-.025-.44-.05-.044-.132-.032-.24.018-.42-.455-1.162-.709-2.476-.605l-.372.038c-1.556.186-8.734.423-10.545-1.71-.774-.91-1.034-1.829-1.023-2.634.044-.112.095-.209.152-.288.186-.26.385-.398.595-.413Z"/>
    <path fill="#C9CFD1" d="M52.27 68.85c.151-.13.248-.236.293-.316.067-.12.573-1.34 1.55-2.435.977-1.096 3.91-3.273 4.314-3.527.404-.254.791-.524 1.058-.783.268-.258.37-.454.565-.51.195-.056 1.135-.192 3.009-.95 1.874-.757 6.878-2.989 8.625-3.592 1.746-.603 2.776-.957 3.527-.883.75.074.767.153 1.48.553s2.382 1.424 2.46 1.46c.155-.019 1.704-.853 2.343-1.395.426-.36.783-.683 1.071-.965.057-.123.137-.17.24-.142.156.043.322.115.515.489s.842 1.958.895 2.185c.053.226.139 1.454.246 1.74.106.284.241.236.334.337.093.1 1.205 1.86 1.205 2.029 0 .169-.032 1.532-.191 2.195-.16.662-.256 1.255-.337 1.328-.082.074-.547.262-.677.344.11.206.303 1.092.149 1.608-.155.515-.404.993-.537 1.141-.134.148-1.316.643-3.187.86-1.872.215-4.58.397-5.354.42-.773.024-4.192-.052-4.51-.183-.318-.131-.352-.461-.475-.91-.122-.447-.227-.863-.49-.997-.211-.09-.63.083-1.088.24-.46.157-1.85.777-3.3 1.284-1.452.507-4.72.53-6.003.407-1.283-.121-1.59-.517-1.646-.628-.056-.11-.26-.268-1.048-.242-.788.026-2.692-.108-3.484-.162a11.211 11.211 0 0 0-1.551 0Z"/>
    <path fill="#D0D7D9" d="M82.806 55.365c.155.043.32.115.514.489.193.374.842 1.958.895 2.185.053.226.139 1.454.246 1.74.106.284.241.236.334.337.093.1 1.205 1.86 1.205 2.029l-.014.49c-.013.311-.037.719-.078 1.09-2.94.993-12.366 2.192-14.224 2.203l-2.02-.083c-2.94-.147-7.992-.548-9.007-1.974-.588-.826.36-2.048 1.904-3.35l.242-.09 1.037-.425c2.077-.874 5.767-2.5 7.503-3.146l.34-.123c1.747-.603 2.777-.957 3.528-.883.469.046.651.095.896.222l.584.331c.713.4 2.382 1.424 2.46 1.46.155-.019 1.704-.853 2.343-1.395.426-.36.783-.683 1.071-.965.057-.123.137-.17.24-.142Z"/>
    <path fill="#D8DDDF" d="M75.21 55.854c.47.046.652.095.897.222l.584.331c.713.4 2.382 1.424 2.46 1.46.111-.013.935-.444 1.628-.886 1.016.62 2.123 1.412 3.32 2.374 1.157 2.276 1.463 3.579.918 3.908-.818.494-11.14 2.173-15.386 1.563-4.247-.61-6.9-2.75-4.135-4.525 1.883-1.208 4.243-2.612 6.504-3.674l1.208-.403c.878-.279 1.502-.42 2.003-.37Z"/>
    <path fill="#C8CCCF" d="M83.32 55.854c.193.374.842 1.958.895 2.185.053.226.139 1.454.246 1.74.091.245.204.243.293.302l-.048.002a7.797 7.797 0 0 1-2.835-.719c-1.099-.501-1.962-1.181-1.987-1.328-.026-.147 1.83-1.147 2.316-1.593l.304-.29c.28-.284.472-.543.432-.739.118.057.244.169.384.44Z"/>
    <path fill="#BBC1C6" d="M84.215 58.039c.053.226.139 1.454.246 1.74.091.245.204.243.293.302l-.048.002a7.797 7.797 0 0 1-2.835-.719 9.097 9.097 0 0 1-1.03-.554l.737.171c1.02.223 1.657.296 1.912.219.384-.116.152-1.732-.071-3.136l.377.88c.202.49.392.977.419 1.095Z"/>
    <path fill="#DCE3E4" d="M79.435 58.043c-.007.1-.098.191-.273.273-.262.123-4.034 1.15-5.809 1.626-1.775.476-6.82 2.069-8.477 2.577-1.656.509-2.464.805-3.855 1.608-1.392.802-2.532 1.565-2.777 1.8-.246.236-1.195 1.514-1.314 1.885-.118.37-.378.317 0-.603.379-.919.93-1.377 1.424-1.847.495-.471 4.122-2.424 5.23-2.815 1.109-.39 5.738-1.773 6.751-2.062a258.4 258.4 0 0 1 4.72-1.27c.403-.097 1.863-.488 4.38-1.172Z"/>
    <path fill="#BFC1C5" d="M79.435 58.043c.001.092-3.441 1.056-4.888 1.407l-.201.048c-.797.185-2.33.624-3.67 1.018l-2.927.88c-1.687.52-4.639 1.452-5.2 1.72l-.347.181c-1.103.603-3.82 2.229-4.136 2.498-.36.306-1.143 1.385-1.29 2.258.263-.551 1.216-1.669 1.578-2.026.214-.211 1.997-.282 3.757-.314l3.097-.045c1.574-.044-.77.854 1.923 1.013l6.893.229c2.223.08 3.967.16 3.663.202-.606.085-15.098.16-16.577 1.016-.915.53-1.505 1.163-2.118 1.553-.392-.137-.554-.3-.615-.389l-.023-.038c-.05-.098-.216-.234-.806-.244l-.242.002c-.788.026-2.692-.108-3.484-.162a11.211 11.211 0 0 0-1.551 0c.15-.13.247-.236.292-.316l.274-.557a9.368 9.368 0 0 1 1.276-1.878c.977-1.096 3.91-3.273 4.314-3.527.404-.254.791-.524 1.058-.783.268-.258.37-.454.565-.51l.604-.14c.438-.11 1.109-.305 2.042-.666l.363-.143c.568-.23 1.423-.595 2.388-1.009l-1.183.604c-1.47.772-2.49 1.39-2.787 1.628l-.06.052c-.397.396-1.62 1.019-2.086 1.14-.465.123-2.777 1.493-3.698 2.528-.922 1.035-1.097 1.895-1.117 2.346-.02.45.725-.788 1.07-1.145.345-.356 4.403-2.716 5.315-3.182.835-.428 3.032-1.235 4.058-1.538l.249-.07c.648-.166 4.313-1.097 6.92-1.774l5.868-1.557c.838-.213 1.44-.351 1.44-.31Z"/>
    <path fill="#5D5E66" d="m69.125 57.92-.633.253c-.222.092-.451.19-.682.29L64.74 59.85c-.655.307-1.752.84-2.384 1.093-.79.316-1.384.468-1.765.566-.243.063-.805.377-1.445.754l-1.662.99.782-.573.16-.107c.404-.254.791-.524 1.058-.783.268-.258.37-.454.565-.51l.604-.14c.438-.11 1.109-.305 2.042-.666l1.144-.467c2.077-.874 5.767-2.5 7.503-3.146l1.256-.437a18.54 18.54 0 0 1 1.442-.439l-4.599 1.813-.317.122Z"/>
    <path fill="#BFC2C4" d="m85.983 62.088.017.057-.021.655c-.025.492-.074 1.142-.17 1.54l-.237 1.05c-.037.15-.07.25-.1.278-.082.074-.547.262-.677.344.047.087.108.296.152.546-.946.192-2.69.25-5.425.54l-1.233.14c-4.767.574-12.863-.214-12.017-.228l7.223-.314-1.18.024c-2.164.03-5.702.021-8.468-.104l-1.132-.06c-3.396-.217-1.262-.55.259-.737l1.278-.126c2.794-.249 8.813-.719 12.672-1.26l1.505-.228c4.032-.645 6.802-1.344 7.084-1.504.155-.087.351-.319.47-.613Z"/>
    <path fill="#6E7071" d="M84.8 66.027c.105.191.298 1.077.144 1.593-.155.515-.404.993-.537 1.141-.134.148-1.316.643-3.187.86l-1.201.124a94.716 94.716 0 0 1-3.973.29l-.18.006c-.773.024-4.192-.052-4.51-.183-.228-.094-.31-.289-.383-.556l-.092-.353c-.122-.448-.227-.864-.49-.998-.14-.06-.374-.003-.65.088l-.438.152c-.46.157-1.85.777-3.3 1.284-1.452.507-4.72.53-6.003.407-1.283-.121-1.59-.517-1.646-.628l.151-.166c.395-.417 1.067-1.008 1.762-1.32.794-.358 2.399-.759 3.531-.831l.498-.017c1.23-.014 3.415.098 5.827.123l.56.004c2.363.01 4.12-.071 5.43-.158l.975-.071c1.371-.108 4.202-.24 5.515-.369a12.107 12.107 0 0 0 1.885-.332l.312-.09Z"/>
    <path fill="#595C63" d="m80.6 67.536-3.792.284c-1.308.086-2.617.155-3.32.148l-1.122-.03a262.809 262.809 0 0 0-5.608-.013l-2.83.097c-.406.012-.78.02-1.062.018l-2.993-.06c.126-.081.26-.152.394-.212.794-.358 2.399-.759 3.531-.831l.498-.017c1.23-.014 3.415.098 5.827.123l.56.004a76.81 76.81 0 0 0 5.023-.132l2.356-.165c1.469-.093 3.49-.198 4.541-.3l.573-.071c-.642.553-2.117 1.117-2.576 1.157Z"/>
    <path fill="#414F56" d="m62.121 67.195.143-.03.417.014c.721.04.876.484 1.027.538.151.054 1.52.158 1.648 0 .127-.16.451-.27.819-.39.368-.12 1.384-.023 1.723.085.291.093.48.25.89.263l.226-.007c.575-.049.728.135.867.118l.14-.007c.097-.009.199-.046.314-.233.173-.281.937-.22 2.012-.22 1.075.002.765.443.855.46l1.5-.003c.043 0 .074.002.09.003.14.014-.012-.288.108-.374.12-.085 1.438-.21 2.2-.212.76-.002.38.327.725.346l.292-.007c.75-.04 2.523-.2 2.712-.127.224.087.239.472-.13.636-.202.09-.435.118-.824.132l-3.802.096-1.022.046c-.957.06-2.4-.001-3 0-.48.001-.711-.056-1.076-.09l-.342-.022a.612.612 0 0 0-.243-.26c-.14-.059-.373-.002-.648.09l-.44.151a6.688 6.688 0 0 0-.263.1l-.41.026-.981.033-1.703.088c-.679.043-3.036.058-4.768.146-1.048.054-1.474-.186-1.593-.422.219-.153.45-.29.683-.394.441-.199 1.133-.41 1.854-.573Z"/>
    <path fill="#999D99" d="M80.736 68.584c-.549.071-2.52.351-1.93.184.591-.166 1.48-.431 1.707-.563.227-.132.747-.81.223-.826-.524-.016-2.11.157-2.62.16-.51.003-.284-.195.547-.29.83-.094 2.513-.469 2.824-.553.31-.084 1.565-.208 1.164-.096-.402.112-1.732.313-1.663.65.07.337.221.765.133.955-.089.189.164.308-.385.38Z"/>
    <path fill="#C6CAC0" d="M84.8 66.027c.105.191.298 1.077.144 1.593-.155.515-.404.993-.537 1.141-.125.138-1.164.58-2.826.813l.106.058c-.375-.149-.898-.867-1.003-1.137-.084-.215-.092-.361-.079-.454l.013-.06c.027-.084.063-.584.134-.695.071-.112.334-.323.577-.407.242-.085 1.15-.113.935-.183-.155-.05-.836-.072-1.165-.131l1.254-.093a12.107 12.107 0 0 0 2.136-.355l.311-.09Z"/>
    <path fill="#8A9194" d="M84.685 66.066c.093.415.123.686.09.813-.047.185-.52.304-.515.292l.034-.014c.184-.059.3-.278.357-.461.048-.152-.043-.205-.165-.194l-1.237.268c-.355.075-.707.147-.926.187-.364.067-.89.13-1.58.189l.155-.012c.041-.035.087-.07.137-.103.192-.077.391-.147.596-.212l.505-.058c.134-.02.206-.04.128-.065a.763.763 0 0 0-.119-.023l1.01-.291-.552.067a12.107 12.107 0 0 0 1.885-.332l.197-.051Z"/>
    <path fill="#A5A8A3" d="m83.063 68.276.294.015c.38.027.83.093.727.286-.107.197-.38.418-.623.553l-.216.1a12.14 12.14 0 0 1-1.292.287l-.373.056-.04-.022c-.3-.205-.645-.657-.796-.932.466.024.758.011.882-.035.24-.09 1.065-.323 1.437-.308Z"/>
    <path fill="#929591" d="M81.788 68.69c-.156.063-.267.251.066.39l.296.13.407.188c-.184.043-.388.083-.604.119l-.373.056-.04-.022c-.3-.205-.645-.657-.796-.932.466.024.758.011.882-.035.218-.081.919-.281 1.324-.306l-1.162.413Z"/>
    <path fill="#35393C" d="m70.973 69.302-.033-.127-.058-.052c.148.169.394.225.847.26l1.676.083c1.71.074 5.13.195 6.508.076l.643-.077c.873-.094 1.126.01.127.21l-.664.07-1.27.11c-1.118.09-2.16.156-2.703.18l-.18.006c-.773.024-4.192-.052-4.51-.183-.228-.094-.31-.289-.383-.556Zm-1.092-1.31-.578.2c-.46.156-1.85.776-3.3 1.283-1.452.507-4.72.53-6.003.407-1.283-.121-1.59-.517-1.646-.628l.151-.166.295-.292c.023.12.112.24.372.296l.57.11c.547.093 1.247.187 1.894.226.907.055 3.612-.058 4.545-.232.933-.174 2.885-1.056 3.482-1.2a.478.478 0 0 1 .218-.004Z"/>
    <path fill="#B8B9B2" d="M62.292 68.962c.118-.024.716-.3.807-.543.09-.242.084-.267 0-.21-.085.058-.113.287-.258.314-.145.027-.96.05-1.188 0-.227-.05-.366.005-.32.055.047.05.199.178.276.213.077.034-.171.032-.385-.212-.213-.243-.053-.188 0-.265.054-.077-.03-.214-.062-.278-.033-.063-.012-.08-.044-.157-.033-.078.044-.315.147-.376.102-.061.512-.2.784-.218.272-.017.715.026 1.003.14.288.116.365.36.305.454-.061.093-.138.114-.137.243.001.129.122.298 0 .401-.122.103-.365.294-.536.375-.17.08-.509.089-.392.064Z"/>
    <path fill="#B2B5AB" d="M67.448 68.818c.257-.197.392-.334.407-.41.08-.044.152-.203.056-.199-.095.004-.146-.032-.056-.173.09-.14.224-.264.171-.31a1.131 1.131 0 0 0-.462-.195 5.8 5.8 0 0 0-.974-.067c-.405.007-.945.22-.74.19.206-.03.92-.168 1.226-.123.305.044.852.167.81.235-.043.067-.16.104-.177.196-.018.093.058.156 0 .247a2.31 2.31 0 0 1-.344.375.756.756 0 0 1-.4.126c-.17.003.265-.207.4-.302s.264-.244 0-.199c-.263.046-1.326.102-1.29.274.035.173.468.218.58.198.112-.02-.114.1-.485 0-.215-.05-.37-.059-.291.003.08.062.081.134.196.195-.151-.056-.391-.18-.393-.295-.002-.114.058-.3 0-.375-.059-.075-.018-.19-.05-.231-.03-.042-.055-.23 0-.323.057-.094.44-.235.612-.262.171-.027.502-.064.832-.04.33.022.702.149.89.233.188.084.247.196.178.24-.07.043-.074.093-.118.21-.044.117-.043.142 0 .27.043.129-.159.338-.306.41a1.26 1.26 0 0 1-.272.102Z"/>
    <path fill="#A5A7A0" d="M70.345 67.8a.968.968 0 0 1 .154-.23c.069-.068.902-.218 1.025-.212.124.005-.102.049-.495.127-.394.079-.295.11-.072.1.223-.008 1.046-.158 1.23-.1.183.058.498.118.467.203-.031.085-.137.004-.24.126-.102.123-.004.098-.055.298-.05.2-.203.345-.33.358-.128.014-.314-.124-.351-.26-.037-.137-.145-.267-.363-.346-.219-.079-.77-.043-.816-.05-.046-.007.134.202.167.298.034.096.086.44.291.472.205.033.808-.097.802-.04-.006.057-.071.12-.322.132-.25.012-.49-.017-.555 0-.066.018.252.315.433.337.18.022.508.054.665 0 .157-.053.548-.304.622-.47.074-.165.101.161-.11.278-.211.116-.329.267-.684.29-.356.025-.584-.003-.85-.149-.178-.097-.382-.484-.613-1.163Z"/>
    <path fill="#B2B2AD" d="M76.686 67.356c-.24-.015-1.009-.032-1.289.023-.28.056-.383.297-.328.45.055.154.137.313.079.41-.057.096-.12.224 0 .345.12.122.741.034.871 0 .13-.033.249-.2.252-.375.004-.174-.02-.27.132-.38.15-.11.271-.26.168-.297-.104-.037.235-.094.381-.03.146.064.16-.044.074-.06-.086-.016-.099-.07-.34-.086Z"/>
    <path fill="#EBF0F1" d="M68.337 63.075c.16.223.298 1.271.299 1.295 0 .025-.004.063-.108.102-.103.039-.26.059-.296-.026a9.281 9.281 0 0 1-.16-.437c-.008-.032-1.092.13-1.136.145-.045.015.037.446.033.499-.004.053-.427.145-.45.05-.025-.096-.262-1.067-.179-1.362.084-.296.667-.373 1.023-.417.356-.044.814-.073.974.15Zm-.358.234c-.008-.03-1.03.147-1.144.163-.042.022-.027.316.046.317.072 0 1.118-.145 1.14-.152.023-.007-.034-.298-.042-.328ZM69.829 64.201a606.814 606.814 0 0 1-.218-1.577c-.004-.037.404-.139.437-.077.033.062.205 1.536.207 1.58.002.029-.14.054-.426.074ZM72.917 61.93c.21.016.52.094.563.382.044.287-.156.67-.146.71.006.026.143.198.41.515-.29.07-.452.105-.483.103-.046-.004-.401-.41-.464-.428-.064-.018-.86.144-.895.165-.037.021.042.437.045.478.002.04-.368.089-.372.08-.004-.008-.313-1.415-.293-1.58.02-.166 1.426-.442 1.635-.425Zm.04.434c-.11-.06-1.084.242-1.149.263-.065.022.017.364.06.372.041.009 1.057-.21 1.103-.251.046-.04.096-.322-.014-.384Z"/>
    <path fill="#B6BBC0" d="M68.288 62.905c.16.224.298 1.271.299 1.296 0 .024-.004.062-.108.1-.103.04-.26.06-.296-.025a9.281 9.281 0 0 1-.16-.437c-.008-.032-1.092.13-1.136.145-.045.015.037.446.033.499-.004.053-.427.146-.45.05-.025-.096-.262-1.066-.179-1.362.084-.295.667-.373 1.023-.417.356-.044.814-.073.974.151Zm-.358.234c-.008-.03-1.03.147-1.144.163-.042.023-.027.316.046.317.072 0 1.118-.145 1.14-.152.023-.007-.034-.297-.042-.328ZM69.78 64.031a606.83 606.83 0 0 1-.218-1.576c-.004-.038.404-.14.437-.078.033.062.205 1.537.207 1.58.002.03-.14.054-.426.074ZM72.868 61.76c.21.016.52.095.563.382.044.287-.156.67-.146.71.006.027.143.198.41.515-.29.07-.452.105-.483.103-.046-.003-.401-.41-.464-.428-.063-.018-.86.144-.895.165-.037.022.042.438.045.478.002.04-.368.089-.372.08-.004-.008-.313-1.414-.293-1.58.02-.166 1.426-.442 1.635-.425Zm.04.435c-.11-.062-1.084.24-1.149.262-.065.022.017.364.06.373.041.008 1.057-.211 1.103-.252.046-.04.096-.322-.014-.383Z"/>
    <path fill="#C9CFD1" d="M68.287 63.002c.16.223.298 1.271.298 1.296.001.024-.004.062-.107.1-.104.04-.26.06-.296-.025a9.281 9.281 0 0 1-.16-.437c-.008-.032-1.092.13-1.136.145-.045.015.037.446.033.499-.004.053-.427.145-.451.05-.024-.096-.262-1.066-.178-1.362.084-.295.667-.373 1.023-.417.356-.044.814-.073.974.15Zm-.358.234c-.008-.03-1.03.147-1.144.163-.042.023-.027.316.045.317.073 0 1.12-.145 1.141-.152.023-.007-.034-.297-.042-.328ZM69.778 64.128a606.865 606.865 0 0 1-.217-1.576c-.004-.038.403-.14.436-.078.033.062.206 1.536.208 1.58.001.03-.14.054-.427.074ZM72.867 61.857c.21.016.519.095.563.382.044.287-.156.67-.147.71.007.027.143.198.41.515-.29.07-.451.105-.482.103-.046-.003-.401-.41-.465-.428-.063-.018-.858.144-.895.165-.036.021.042.437.045.478.003.04-.367.089-.372.08-.004-.008-.312-1.414-.292-1.58.02-.166 1.425-.442 1.635-.425Zm.04.435c-.11-.062-1.084.24-1.15.262-.065.022.018.364.06.373.042.008 1.057-.211 1.104-.252.046-.04.096-.322-.015-.383Z"/>
    <path fill="#B1B4BF" d="M67.922 48.63c-.38.6-.163 1.657-.673 2.986-.511 1.33-2.669 3.26-4.114 4.586-1.446 1.326-2.865 2.133-2.333 2.734.531.601 3.985-.541 6.45-1.607 2.467-1.065 6.797-3.231 7.444-3.622.647-.39 1.931-1.645 1.941-2.35.01-.703-1.088-1.562-3.677-2.648-2.59-1.085-4.659-.678-5.038-.079Z"/>
    <path fill="#9497A3" d="m69.186 51.178.189-.486c.465-1.152.928-1.81 2.57-1.613 1.268.153 2.687.59 3.543 1.051.856.462.972.907.968 1.23-.01.705-1.111 1.765-2.116 2.352-1.005.587-6.793 3.527-8.934 4.262-2.141.736-3.626 1.007-3.865.583l-.042-.096-.015-.089c.275-.314.639-.656 1.117-.998l.38-.256c2.01-1.275 5.653-4.492 6.205-5.94Z" opacity=".6"/>
    <path fill="#343434" d="M71.974 70.258c-1.656-.015-2.027.436-1.516.52.51.085 3.65.279 4.845.24 1.194-.039-1.674-.745-3.33-.76Z"/>
  </g>
</svg>
