<svg xmlns="http://www.w3.org/2000/svg" viewBox="0 0 96 96">
  <defs>
    <path id="a" d="M0 0h96v96H0z"/>
  </defs>
  <g fill="none" fill-rule="evenodd">
    <path fill="#CFCFCF" d="M59.712 44.118c-.765-.928-2.128-4.467-2.128-5.217s-.354-2.198 0-2.866c.354-.668 2.304-3.609 2.304-4 0-.39.61-1.263-.544-1.263s-4.263 1.896-5.552 3.085c-1.288 1.19-3.977 4.143-4.48 4.593-.336.3-1.12.862-2.356 1.685l-.393.385c-.337-.1-.826.068-1.468.505-.642.436-.928.891-.859 1.363l-.227.395a3.67 3.67 0 0 0-1.159.711c-.315.293-.498.586-.55.878-.779.513-1.328.865-1.647 1.055-.48.286-.659.06-.946.481-.287.422-.693.634-1.027 1.073-.333.439-3.005 1.933-3.638 2.186-.632.253-1.421.948-2.245 1.478-.824.53-3.281 1.988-3.599 2.353-.212.244-.365.244-.46 0l-1.083.899v.349c-1.123.301-2.1.538-2.932.71-1.248.26-5.469.598-5.957.598-.488 0-1.374.003-1.835.296-.307.196-.525.435-.652.717 2.47.082 4.689.022 6.657-.178 2.952-.302 9.957-1.742 19.365-7.222 9.407-5.48 18.175-4.122 17.41-5.05Z"/>
    <path fill="#B9B9B9" d="M54.74 37.232c.414-.013 1.342.282 2.782.883.022.2.042.386.053.553l.01.233c0 .6.871 2.985 1.612 4.39-.612.429-1.312.893-2.078 1.378l-1.152.12c-3.167.365-7.965 1.226-13.007 4.005l-.66.373c-5.023 2.927-9.362 4.701-12.764 5.765-.209-.208-.2-.48.025-.815 1.19-1.233 2.11-2.069 2.757-2.505l1.659-1.118c1.64-1.09 3.962-2.582 5.195-3.09l.264-.099c1.622-.536 4.104-3.062 5.82-4.33l.427-.306c2.23-1.557 8.377-5.417 9.057-5.437Z"/>
    <path fill="#A1A1A1" d="M59.742 30.823c.592.191.146.878.146 1.212 0 .391-1.95 3.332-2.304 4-.314.594-.07 1.804-.011 2.592l.011.274c0 .437.463 1.822 1.001 3.085l-.526.075c-.571-2.03-.855-3.463-.853-4.297.004-1.25.358-2.654.97-3.456.614-.801 1.568-1.777 1.628-2.495.02-.24.009-.51-.034-.813l-.028-.177Z"/>
    <path fill="#959595" d="m59.235 31.388-.427.766c-.302.532-.693 1.196-.973 1.585l-.13.17c-.435.523-.586 1.43-.616 1.937-.02.339-.117 1.042-.248 1.82-1.033.158-1.804.355-2.314.591-.71.329-3.092 1.97-4.166 2.471-1.428.603-2.372 1.035-2.83 1.297l-.443.252c-.344.186-1.348.84-1.715 1.02l-.605.296a5.755 5.755 0 0 0-1.037.679l-.444.382c-.206.171-.286.192-.567.156-.115-.014-.393-.244-.5-.381l.08-.057c.052-.292.235-.585.55-.878.237-.22.513-.408.83-.564l.329-.147.227-.395c-.069-.472.217-.927.86-1.363.56-.382 1.006-.559 1.334-.53l.133.025.393-.385.99-.67c.676-.466 1.13-.805 1.366-1.015l.417-.414c.943-.971 2.99-3.187 4.063-4.179 1.14-1.052 3.703-2.656 5.08-3.013.274.178.453.377.363.544Z"/>
    <path fill="#E2E2E2" d="m59.235 31.388-.427.766c-.302.532-.693 1.196-.973 1.585l-.13.17c-.435.523-.737 1.288-.767 1.796-.02.338-.095.896-.227 1.674-1.033.158-1.804.355-2.314.591-.71.329-3.092 1.97-4.166 2.471l-.223.094c-.709.258-1.941.956-2.629 1.349l-.443.251c-.344.187-1.347.84-1.714 1.02l-.605.296a5.755 5.755 0 0 0-1.038.68l-.444.381c-.206.172-.286.192-.566.157-.116-.015-.242-.103-.35-.24l.082-.057c.05-.292.234-.585.55-.878.236-.22.512-.408.828-.564l.33-.147.227-.395c-.069-.472.217-.927.86-1.363.56-.382 1.006-.559 1.334-.53l.133.025.393-.385.99-.67c.676-.466 1.13-.805 1.366-1.015l.417-.414c.943-.971 2.99-3.187 4.063-4.179 1.14-1.052 3.703-2.656 5.08-3.013.274.178.453.377.363.544Z"/>
    <path fill="#C9C9C9" d="m59.235 31.388-.427.766-.392.676c-.205.343-.413.676-.581.909l-.13.17a3.702 3.702 0 0 0-.733 1.539c-.05-.631.198-1.783.494-2.21.198-.285.778-.96 1.738-2.025l.031-.015c.03.066.032.13 0 .19Z"/>
    <path fill="#979797" d="m45.835 40.765 3.791 2.844-1.889 2.033c-.615.652-.98 1.02-1.093 1.103l-17.315 7.87h-.644l-1.03-.623v-.095l.858-.713 1.314.655 2.769-1.11-1.366-1.1 1.092-.677 1.056 1.214 2.885-1.559-1.726-1.16.175-.095.44-.198c.22-.106.512-.259.834-.435l1.742.95 3.325-1.132c-.115-.225-.301-.454-.56-.684-.172-.154-.892-.35-2.158-.587l.14-.124.044-.052c.25-.329.542-.53.793-.789l.15-.184.26.002 2.069 1.373 2.629-.524-3.488-1.703 1.208-.784.003-.018.172.077.889-.113 2.732 1.505 1.903-1.505-3.42-2.238.201-.53 1.215-.894Z"/>
    <path fill="#E9E9E9" d="m45.995 40.656 3.792 2.843-1.889 2.034c-.615.651-.98 1.019-1.093 1.103l-17.476 7.98h-.644l-1.03-.624v-.095l.858-.713 1.314.655 2.93-1.218-1.366-1.102 1.092-.676 1.056 1.214 2.967-1.611-1.809-1.109.176-.094.44-.198c.22-.106.512-.259.834-.435l1.742.95 3.325-1.132c-.115-.225-.301-.454-.56-.684-.172-.154-.892-.35-2.158-.587l.14-.125.044-.05c.25-.33.541-.532.793-.79l.15-.184.26.001 2.068 1.374 2.63-.524-3.488-1.704 1.208-.783.003-.018.172.077.889-.114 2.732 1.506L48 44.317l-3.42-2.237.2-.53 1.215-.894Z"/>
    <path fill="#D4D4D4" d="m53.008 34.62.188.205-1.032 1.308c-.675.84-1.127 1.365-1.357 1.573l-1.435 1.18c-.579.471-1.158.92-1.372.998-.285.102-.712.36-1.282.772l-.109-.183.347-.338.99-.67.525-.368c.393-.281.673-.497.84-.647l.418-.414 2.227-2.337c.362-.378.722-.749 1.052-1.08Z"/>
    <path fill="#C39796" d="m54.294 34.686-.71.54-.7-.483.503-.5c.078-.076.154-.15.227-.218l.68.66Z"/>
    <path fill="#7D7E86" d="m46.43 40.495.068.015-.048.13c-.065.273-1.039.792-1.464 1.004-.426.213-.822 1.031-.924 1.35-.184.023-1.148.79-1.383 1.05-.125.139-.247.351-.32.526a.816.816 0 0 1-.14-.141l.082-.057c.05-.292.234-.585.55-.878.236-.22.512-.408.828-.564l.33-.147.227-.395c-.069-.472.217-.927.86-1.363.56-.382 1.006-.559 1.334-.53Zm10.543-5.045-.023.131-.054.562-.019-.01c-.145-.221-.901-.023-1.358 0-.457.024-2.478.998-3.172 1.703a14.04 14.04 0 0 1-1.82 1.544l-2.68 1.707-.632.387c-.776.49-2.638 1.71-2.936 1.934a1.225 1.225 0 0 0-.393.487c-.102.071-.205.15-.307.235l-.214.187.227-.368c.12-.187.241-.362.345-.46.291-.277 2.88-2.033 3.064-2.191.183-.158.833-.362 1.326-.658l.381-.252c.717-.495 1.977-1.44 2.343-1.774.447-.408.81-.784 1.36-1.397.48-.536.991-.688 1.703-.959l.318-.125c.786-.32 1.79-.598 2.285-.663l.256-.02Z"/>
    <path fill="#D5D5D5" d="M85.46 62.07c0-.092.364-1.158.364-1.452 0-.294-.445-4.543-.658-5.468-.214-.925-.462-2.716-.231-3.053.23-.338.563-1.225-.159-3.533-.722-2.307-1.709-4.332-2.037-4.45-.219-.078-.365-.114-.438-.11-.41-.675-.677-1.13-.801-1.366-.187-.353-.521-1.275-1.639-1.751-1.117-.477-1.837-.432-2.459-.168-.622.264-2.234 2.433-3.364 3.958-1.13 1.526-1.928 2.125-3 2.125-1.074 0-4.966-.667-8.39-3.115-3.423-2.447-5.75-4.656-6.799-4.853-1.049-.197-5.412 1.505-6.013 2.053-.4.365-.515.695-.344.992-5.252 3.127-8.505 5.08-9.759 5.857-1.88 1.167-8.009 4.126-8.59 4.36-.58.235-3.154 1.987-3.488 2.15-.334.163-3.38 1.057-4.528 1.283-1.148.227-4.381.579-4.9.579-.344 0-.86-.056-1.545-.168-.269.37-.403.59-.403.663 0 .072-.506.556-1.518 1.453 7.412.06 12.028-.25 13.848-.929 2.731-1.019 23.15-9.876 25.499-9.876s8.923 1.525 12.797 3.443c3.874 1.918 15.69 6.17 16.503 7.362.813 1.19 2.051 4.107 2.051 4.015Z"/>
    <path fill="#D5D5D5" d="M85.46 62.07c0-.092.364-1.158.364-1.452 0-.294-.445-4.543-.658-5.468-.214-.925-.462-2.716-.231-3.053.23-.338.563-1.225-.159-3.533-.722-2.307-1.709-4.332-2.037-4.45-.219-.078-.365-.114-.438-.11-.41-.675-.677-1.13-.801-1.366-.187-.353-.521-1.275-1.639-1.751-1.117-.477-1.837-.432-2.459-.168-.622.264-2.234 2.433-3.364 3.958-1.13 1.526-1.928 2.125-3 2.125-1.074 0-4.966-.667-8.39-3.115-3.423-2.447-5.75-4.656-6.799-4.853-1.049-.197-5.412 1.505-6.013 2.053-.4.365-.515.695-.344.992-5.252 3.127-8.505 5.08-9.759 5.857-1.88 1.167-8.009 4.126-8.59 4.36-.58.235-3.154 1.987-3.488 2.15-.334.163-3.38 1.057-4.528 1.283-1.148.227-4.381.579-4.9.579-.344 0-.86-.056-1.545-.168-.269.37-.403.59-.403.663 0 .072-.506.556-1.518 1.453 7.412.06 12.028-.25 13.848-.929 2.731-1.019 23.15-9.876 25.499-9.876s8.923 1.525 12.797 3.443c3.874 1.918 15.69 6.17 16.503 7.362.813 1.19 2.051 4.107 2.051 4.015Z"/>
    <path fill="#BCBCBD" d="M55.915 38.849c1.078.272 3.38 2.44 6.733 4.838 3.424 2.448 7.316 3.115 8.39 3.115.99 0 1.745-.51 2.744-1.789l1.412-1.877c.885-1.154 1.78-2.236 2.208-2.417.622-.264 1.342-.31 2.46.168 1.117.476 1.45 1.398 1.638 1.751l.353.619c.123.208.272.457.448.747.073-.004.22.032.438.11.328.118 1.315 2.143 2.037 4.45.722 2.308.39 3.195.159 3.533-.211.309-.021 1.84.177 2.805l.054.248c.195.845.583 4.466.648 5.309-.308.09-.637.183-.986.272l-.39-.812c-.344-.696-.719-1.407-1.03-1.863-.813-1.192-12.629-5.444-16.503-7.362-3.874-1.918-10.448-3.443-12.797-3.443-1.767 0-13.746 5.007-20.744 7.925a8.29 8.29 0 0 1 1.316-.793l1.932-.912c15.567-7.482 14.6-12.378 17.183-13.595l1.517-.748.603-.28Z"/>
    <path fill="#AEAEAE" d="M54.216 39.755c.607-.159 1.2.178 1.594.465l.349.272c.3.236.622.532.095 1.28-.526.747.124 2.18 1.523 3.207 1.399 1.027 6.81 3.294 9.865 4.491l.546.205c3.649 1.313 13.655 4.104 14.145 3.678.516-.448-2.224-5.43-3.103-6.533-.878-1.104-3.086.797-3.79.173-.705-.625 2.115-5.096 2.594-5.346.48-.25.666-.316 1.48-.02.813.297 1.204.733 1.61 1.51l.088.216c.388.92.813 2.096 1.276 3.526.694 2.145 1.29 3.681 1.912 4.49l.455 1.69c.035.541.13 1.201.233 1.726l.078.365c.213.925.658 5.174.658 5.468 0 .294-.365 1.36-.365 1.453 0 .092-1.238-2.824-2.051-4.015-.813-1.192-12.629-5.444-16.503-7.362-3.874-1.918-10.448-3.443-12.797-3.443-2.303 0-21.958 8.506-25.314 9.806l-.185.07c-1.82.68-6.436.99-13.848.929.433-.37.683-.586.749-.647 3.691-.217 5.983-.358 6.877-.424 1.34-.098 2.57-.231 3.284-.382 2.354-.498 14.765-4.287 16.28-5.397 1.516-1.11 6.695-3.71 8.421-5.23 1.727-1.518 2.02-3.636 2.448-4.46.428-.825.561-1.542 1.396-1.76Z"/>
    <path fill="#988686" d="M82.335 44.004c.08.006.215.043.404.11.328.118 1.315 2.143 2.037 4.45.722 2.308.39 3.195.159 3.533a.457.457 0 0 0-.06.16l-2.5-7.73a1.606 1.606 0 0 1-.042-.392l.002-.13Z"/>
    <path fill="#7C7C7C" d="M80.87 42.478c.007-.13.282-.067.577.052l.053.108.353.619c.123.208.272.457.448.747l.064.004 1.495 4.127c.113.321.186.537.219.648l.453 1.65c.158.592.32 1.208.426 1.632l-.023.032c-.211.309-.021 1.84.177 2.805l.054.248c.213.925.658 5.174.658 5.468 0 .294-.365 1.36-.365 1.453 0 .017-.042-.068-.116-.226l.013-.048c.1-.25-.086-2.13-.096-2.374-.004-.123-.105-.43-.3-.923l-.229-.554.436.577a13.532 13.532 0 0 0-.593-1.337c-.41-.83-2.146-1.977-4.16-2.855l-.519-.211c-2.776-1.08-11.165-3.788-12.442-4.208l-.484-.143c-1.812-.5-6.116-1.432-8.805-2.762-2.971-1.47-5.486-.51-9.272.298 3.09-1.457 5.656-1.993 6.612-1.936.955.057 2.098.613 2.328.732.23.12 1.197.237 1.793.41.55.161 2.718 1.184 3.41 1.486l.14.06c.43.174 5.752 2.105 9.712 3.422l2.235.74c3.647 1.23 7.493 2.681 8.216 3.267.818.662 1.511 1.525 1.788 2.17l-.05-.39c-.188-1.229-.837-4.491-1.04-5.8l-.058-.43c-.075-.861-.733-2.05-1.668-4.935-.935-2.885-1.28-3.158-1.44-3.623Z"/>
    <path fill="#E4E4E4" d="m49.47 41.89.317.17-2.046 1.405c-1.72 1.17-3.013 2.015-3.876 2.536l-.724.424c-2.714 1.554-9.89 5.453-10.823 5.795a32.1 32.1 0 0 0-3.352 1.493l-1.211.67c-.397.218-.789.42-1.178.577-.777.313-4.897 1.138-6.865 1.36l-2.575.279-.913.093.049-.07c.006-.08.099-.243.285-.51l.065-.085.74.015.484.05c.144.01.271.016.38.016l.313-.016c.982-.07 3.582-.364 4.587-.563l.549-.122c.314-.076.68-.171 1.06-.274l.909-.187c.547-.121.963-.236 1.154-.33.11-.056.229-.12.356-.19l.321-.11a2.05 2.05 0 0 0 .179-.07l.18-.104c.37-.226 1.156-.745 1.882-1.207l.464-.245 2.617-1.29c2.12-1.056 4.895-2.465 5.923-3.044l2.525-1.448c1.779-1.035 3.905-2.298 4.967-3.021l.494-.348 2.763-1.648Z"/>
    <path fill="#737272" d="M79.171 40.997c-.14-.004-1.47.302-1.73.811-.26.51-1.587 2.723-2.177 3.47-.59.746-2.498 2.582-2.958 2.728-.46.146-1.388.579-3.597.035-2.21-.544-5.104-1.58-6.848-2.736-1.745-1.156-5.633-5.125-6.139-5.59-.505-.466-1.936-.293-2.363.023-.284.21-.61.462-.978.754 2.489 1.396 3.7 2.175 3.635 2.335-.098.24-1.125.338-2.04-.29-.61-.42-1.398-.906-2.364-1.458-1.02.596-1.558.923-1.615.982a.4.4 0 0 1-.582 0c-.171-.156-.171-.338 0-.545 2.678-1.459 4.198-2.221 4.561-2.287.545-.098 1.787-.111 2.183.234.396.345 5.29 4.16 6.553 5.107 1.263.947 6.995 3.495 8.863 2.655 1.869-.84 3.063-2.114 3.69-3.22.626-1.108 1.995-3.077 2.588-3.138.593-.062 1.458.134 1.318.13Z"/>
    <path fill="#C9C8C8" d="m55.668 38.818.181.016c1.05.197 3.376 2.406 6.8 4.853 3.423 2.448 7.315 3.115 8.388 3.115.99 0 1.746-.51 2.745-1.789l1.412-1.877c.885-1.154 1.78-2.236 2.208-2.417.622-.264 1.342-.31 2.46.168 1.014.432 1.383 1.232 1.582 1.64-.374-.067-.825-.578-1.276-.963-.518-.443-1.048-.548-1.93-.51-.881.037-1.845 1.918-2.251 2.717-.406.8-2.09 2.941-2.906 3.534l-.267.193c-.765.534-1.842.989-5.94-.262-3.716-1.133-5.761-2.716-7.377-4.206l-2.077-1.975c-1.196-1.127-1.933-1.71-2.83-1.754-1.123-.056-3.202 1.68-4.025 2.215-.48.312-.814.444-1.002.395l-.071-.032-.056-.13c-.076-.262.057-.55.4-.862.57-.52 4.537-2.082 5.832-2.069Z"/>
    <path fill="#E8E8E8" d="m55.668 38.818.181.016c1.05.197 3.376 2.406 6.8 4.853 3.423 2.448 7.315 3.115 8.388 3.115.99 0 1.746-.51 2.745-1.789l1.412-1.877.44-.567c.73-.922 1.412-1.699 1.768-1.85.622-.264 1.342-.31 2.46.168.773.33 1.171.873 1.405 1.293-.948-.871-1.684-1.322-2.21-1.356l-.662-.047c-.43-.018-.707.05-1.183.481-.68.616-2.703 3.732-3.81 4.801-1.016.98-1.92 1.347-3.165 1.171l-1.824-.332c-1.395-.284-3.318-.866-6.08-2.777-3.9-2.698-5.656-4.801-6.683-4.981-1.027-.18-2.657.347-3.06.574l-1.93 1.048c-.189.105-.355.2-.475.273-.355.215-.489.504-.403.867a.443.443 0 0 1-.219.009l-.071-.032-.056-.13c-.076-.262.057-.55.4-.862.57-.52 4.537-2.082 5.832-2.069Z"/>
    <path fill="#B5B5B5" d="M15.077 57.714c2.038-.017 4.214-.175 6.528-.474 3.471-.448 5.779-.568 10.89-2.77 5.11-2.203 13.055-6.112 17.208-7.483 4.154-1.37 5.966-1.498 6.594-1.275.418.15.804.3 1.157.454 1.617.5 2.796.885 3.537 1.154.742.269 1.428.59 2.057.966 7.559 2.744 12.123 4.367 13.692 4.868 2.354.752 5.905 2.068 6.903 3.132.998 1.065 1.637 2.477 1.702 2.898.065.42.265 1.915.235 2.186-.02.181-.066.49-.137.928-5.153 1.353-8.055 2.032-8.706 2.039-.977.01-6.768-.916-9.827-.772-3.058.144-4.257.502-6.462.993-2.204.491-8.982 3.104-10.118 3.619-1.136.514-4.035 1.456-5.885 1.45-1.85-.007-8.032.624-11.682.24-3.65-.383-10.784-2.145-11.795-2.313-1.01-.168-5.271-.48-6.207-.927-.936-.446-2.497-2.709-2.554-4.329-.057-1.62.346-2.9.856-3.424.34-.35 1.012-.737 2.014-1.16Z"/>
    <path fill="#D7D7D7" d="M56.297 45.712c.418.15.804.3 1.157.454l1.47.462c.884.282 1.573.513 2.067.692.742.269 1.428.59 2.057.966l6.56 2.37c3.152 1.131 5.343 1.903 6.571 2.314l.561.184c.595.19 1.267.417 1.955.666-1.284-.235-2.5-.216-3.766-.415-1.655-.26-6.085-1.697-10.693-3.347-4.607-1.65-8.216-1.542-13.055-.495-4.84 1.046-16.567 6.897-23.783 9.42-4.397 1.536-9.402 1.997-15.016 1.382.152-.684.4-1.202.681-1.491.34-.35 1.012-.737 2.014-1.16a52.944 52.944 0 0 0 5.382-.336l3.286-.409c2.467-.328 4.75-.776 8.75-2.5 5.11-2.202 13.055-6.11 17.208-7.482l.99-.317c3.458-1.072 5.028-1.163 5.604-.958Z"/>
    <path fill="#BBB" d="M57.497 48.26c2.932.029 10.46 1.567 14.177 3.352l.69.336c3.301 1.629 6.004 3.281 4.914 3.095l-.126-.026c-1.495-.348-2.002.64-1.443 1.036l.42.27c1.114.68 3.883 2.235 5.825 3.01l.334.128c1.873.691 3.045 1.727 2.914 2.901l-4.015 1.028c-2.524.627-4.007.943-4.45.947l-.323-.015c-1.563-.116-6.69-.89-9.504-.757-3.058.144-4.257.502-6.462.993-2.028.452-7.927 2.7-9.743 3.457l-.375.162c-1.136.514-4.035 1.456-5.885 1.45l-.478.008c-.544.017-1.275.06-2.12.11 1.32-.623 4.51-1.744 5.736-2.782 1.681-1.421-2.623-2.631-4.004-5.028-1.38-2.398 3.187-2.437 5.142-4.059 1.955-1.62-4.798-2.654-7.384-3.163-1.459-.287-3.148-.012-5.068.827l-.507.232 1.375-.67a244.84 244.84 0 0 1 2.466-1.165l.699-.325.743-.33c3.913-1.665 13.715-5.048 16.452-5.022Z"/>
    <path fill="#AAA" d="m47.96 52.96-1.462 5.314c-2.464.816-4.073 1.689-4.828 2.618-1.133 1.393-1.038 2.635.67 3.865 1.71 1.23 6.109 1.392 5.161 2.249-.947.857-1.17 2.192.952.61 2.121-1.583 2.245-2.074 4.052-2.713 1.807-.639 4.51.093 5.08-1.514.571-1.606 2.853-2.05 4.001-1.56 1.149.492 7.038-.144 8.737.436 1.698.58 3.863.846 4.444-.192.582-1.04-.376-6.144-.985-6.428-.61-.283-2.302-.81-1.742.958s-.858 1.432-1.444.84c-.39-.394-1.006-1.71-1.847-3.948-2.062-.881-3.168-1.3-3.32-1.256-.151.044-.302.21-.453.496.091 1.122.15 1.857.176 2.205.04.521-1.297.332-1.436.026-.092-.205-.304-1.312-.636-3.324-1.526-.522-2.455-.759-2.786-.711-.331.047-.542.235-.634.564-.043 1.366-.043 2.242-.001 2.628.063.58-1.737 2.157-1.685.221.036-1.29.028-2.386-.022-3.286.007-.329-.406-.503-1.24-.522-1.25-.03-2.472.312-2.461.992.01.68.05 4.004-.553 3.909-.603-.095-1.717.312-1.462-.917.254-1.23.765-3.156.269-3.337-.496-.182-1.148-.148-2.213.198-.498.161-1.04.264-1.606.718-.16.128-.401.415-.725.86Z"/>
    <path fill="#AEAEAE" d="M51.222 54.79c-.054 1.262-1.28 6.119-.655 5.444l.515-.569c.971-1.09 2.763-3.178 3.23-4.12l.083-.197c.327-.986 2.438-1.576 2.974-1.095.536.481-.405 5.424.125 4.72.18-.239 2.67.52 2.587-.043-.185-1.242.072-3.998.332-4.187.393-.287 2.44-.917 2.667.679.226 1.595.244 2.687.405 4.11.161 1.424 2.119-1.153 2.138-1.758l.01-.64a116 116 0 0 0-.01-1.737c-.006-.547 3.274.697 3.843 1.295s1.312 2.928 1.48 3.47c.167.544 1.773 1.467 2.03.569.21-.734.013-3.975-.114-5.373.344.053.701.186.92.287.61.284 1.567 5.389.985 6.428-.581 1.038-2.746.772-4.444.192-1.618-.553-7.037-.002-8.541-.373l-.196-.063c-1.08-.462-3.165-.095-3.883 1.289l-.118.271c-.57 1.607-3.273.875-5.08 1.514-1.807.64-1.93 1.13-4.052 2.713-2.121 1.582-1.899.247-.952-.61.948-.857-3.452-1.02-5.16-2.25-1.709-1.229-1.804-2.471-.671-3.864.701-.863 2.139-1.677 4.313-2.442l.515-.176.42-1.514c1.36-1.484 1.414-2.26 1.702-2.425.36-.206 2.655-.807 2.602.455Z"/>
    <path fill="#B4B4B4" d="M73.048 55.397c.282.06.554.165.734.248.61.284 1.567 5.389.985 6.428-.581 1.038-2.746.772-4.444.192-1.618-.553-7.037-.002-8.541-.373l-.196-.063c-1.08-.462-3.165-.095-3.883 1.289l-.118.271c-.57 1.607-3.273.875-5.08 1.514-1.807.64-1.93 1.13-4.052 2.713-1.958 1.46-1.92.435-1.157-.405l.205-.205c.618-.559-1.036-.822-2.736-1.279 1.624-.186 3.596-.671 4.916-1.781l.316-.29c2.257-2.28 4.869-.07 6.503-1.416l.64-.525c1.357-1.104 2.548-1.942 3.932-1.712 1.475.246 2.331.675 4.234.644l.498-.018c2.263-.122 7.5 1.594 7.68.403.18-1.19.212-3.666-.172-4.882l-.114-.337-.15-.416Z"/>
    <path fill="#D6D5D2" d="M35.715 57.101c2.597-.852 4.492-2.262 7.185-2.064 2.693.197 9.062 2.73 7.392 4.16-1.67 1.43-5.305 1.062-8.073 2.876-2.767 1.813-4.019.81-8.33 1.328-4.31.518-9.125.512-12.056-.279-2.932-.79-.312-2.623 3.909-3.223 4.22-.6 7.375-1.945 9.973-2.798Z"/>
    <path fill="silver" d="M42.9 55.037c2.693.197 9.062 2.73 7.392 4.16-1.67 1.43-5.305 1.062-8.073 2.876-2.767 1.813 6.724 2.816 6.502 4.444-.214 1.565-2.87 2.117-6.926 2.221l-4.837.098c-3.67.056-16.083-1.18-17.573-1.887-.368-.175-.24-.872.86-.713 10.261 1.486 18.422.47 20.458-.117 2.035-.587-.246-2.425.104-3.528.397-1.25 4.163-3.034 5.147-4.317.603-.787-.945-1.856-4.645-3.205a9.541 9.541 0 0 1 1.591-.032Z"/>
    <path fill="#B0B0B0" d="M50.292 59.197c-1.173 1.004-3.318 1.122-5.45 1.732l.334-.62a.536.536 0 0 1 .024-.038c.07-.094 1.125-.295 1.673-.46.547-.165 1.834-.87 2.02-1.537.184-.667-1.101-1.101-1.544-1.582l-.205-.24c-.131-.17-.162-.269-.093-.295l.032-.007c2.284.911 4.22 2.182 3.21 3.047Z"/>
    <path fill="#524E4E" d="M28.646 54.478c-.02.11.113.372.36.292.249-.081.574-.383.597-.511.024-.128-.065-.376-.269-.332-.203.044-.667.443-.688.551ZM32.627 52.593c-.103.216.024.417.308.393.284-.024.568-.237.64-.387a.265.265 0 0 0-.304-.36c-.261.042-.542.138-.644.354ZM36.585 50.771c-.102.216.091.418.375.394.284-.024.498-.193.569-.342.07-.15-.039-.446-.3-.405-.26.04-.542.137-.644.353ZM40.833 48.658c-.102.216.091.418.375.394.284-.024.498-.193.57-.343.07-.15-.04-.445-.3-.404-.262.04-.542.137-.645.353ZM44.472 46.323c-.102.216.094.39.377.366.284-.024.528-.212.599-.362.071-.15-.019-.437-.3-.405-.28.031-.574.185-.676.401ZM48.511 44.295c-.102.216.094.39.378.366.284-.024.527-.213.598-.362.072-.15-.018-.437-.299-.405-.281.031-.574.185-.677.4ZM56.105 43.435c.279.028.544-.139.578-.408.033-.27-.087-.612-.441-.62a.59.59 0 0 0-.612.554c-.007.282.197.445.475.474Z"/>
    <path fill="#E7E7E7" d="M28.642 52.938c.26-.252.165-.117.35 0 .184.117.492.781.518.91.018.086-.022.253-.12.5-.13.125-.226.2-.287.227-.188.085-.343.05-.418.04-.167-.022-.84-.266-.935-.266-.096 0-.21-.276-.095-.501.114-.225.727-.658.987-.91Zm5.543-3.377c.106-.05.16.05 0 .336-.16.287-.915 1.485-.842 1.807.073.322.205.806.099.889-.107.082-.256.147-.349.204-.092.058-.2-.025-.323-.089-.122-.064-.425-.64-.42-.976.005-.336.056-.773.359-1.13.303-.358 1.37-.99 1.476-1.04Zm3.445-1.938c.145-.05.268.012.165.377-.035.128-.342.683-.42 1.008-.183.775.066 1.304.065 1.464 0 .245-.103.343-.236.42a.569.569 0 0 1-.447.035c-.128-.047-.283-.4-.394-.657-.112-.257-.025-.888.06-1.309.086-.42.218-.644.306-.811.088-.168.756-.477.901-.527Zm4.13-2.94c.244-.116.397-.154.46-.113-.226.524-.368.953-.427 1.288-.09.502-.006 2.246-.045 2.467-.038.22-.158.493-.394.517-.236.025-.294.055-.527-.113-.232-.167-.396-.762-.37-1.424.027-.661-.052-1.464.196-1.878.247-.414.743-.568 1.108-.743Zm4.194-3.604c-.06.073-.671.83-.724.992-.155.475-.06 1.89-.068 2.246-.01.51.091.901.159 1.191.068.29.01.808-.084.85-.095.04-.207.015-.205 0 .003-.017-.131.22-.337.136-.206-.083-.6-.63-.737-1.084-.137-.455-.086-1.102-.072-1.515.014-.414.196-.866.26-1.162.065-.295.325-.739.58-.985.255-.246.848-.536 1.228-.67Zm2.254-2.303c.264-.212.494-.194.557-.126.063.068-.035.586.009.813.043.227.33 2.766.421 3.157.09.392.27.537.347.912.052.25-.032.532-.252.847a2.797 2.797 0 0 1-.198 0c-.115-.004-.074.096-.415.02-.341-.076-.737-.75-.795-.956-.058-.206-.241-.6-.416-1.794-.175-1.195-.118-1.92-.06-2.11.057-.191.538-.55.802-.763Z"/>
    <path fill="#DBDBDB" d="M56.483 42.95c.063-.52-.045-.889-.324-1.108-.419-.33-1.245-1.232-3.46-2.305-2.214-1.074-2.912-1.474-3.103-1.495-.127-.013-.412.181-.855.584.044-.004.044.06 0 .192-.043.132-.018.34.077.626 1.4.522 2.388.958 2.963 1.307.863.524 3.02 2.111 3.281 2.171.26.06.88.311 1.028.28.148-.03.019-.23.135-.252a.74.74 0 0 1 .258 0Z"/>
    <path fill="#BEBEBE" d="M29.51 53.848c.018.086-.022.253-.12.5-.13.125-.226.2-.287.227-.188.085-.343.05-.418.04-.167-.022-.84-.266-.935-.266-.074 0-.158-.162-.141-.339.236-.09.391.2.628.285.237.085.557.097.832 0 .14-.05.27-.248.388-.591l.053.144Zm2.868-2.48.037-.181.003.328c.004.09.011.16.021.21.05.255.168.574.21.656.042.08.315.1.444.028.097-.054.163-.188.199-.327l.026-.139a.98.98 0 0 1 .038-.18l.057.243c.059.264.104.528.029.587-.107.082-.256.147-.349.204-.092.058-.2-.025-.323-.089-.122-.064-.425-.64-.42-.976.002-.112.008-.235.028-.363Zm9.37-3.043c-.038.22-.158.493-.394.517-.236.025-.294.055-.527-.113-.208-.15-.361-.644-.372-1.221l.093.334c.043.14.08.241.113.303.117.222.401.326.553.283l.154-.045c.1-.039.186-.113.212-.32l.17-1.158.008 1.23c-.001.091-.004.157-.01.19Zm2.118-3.85.015-.44.05.582c.055.516.116.836.186.962.15.271.45.513.738.488.289-.026.241-.576.28-.79l.038-.29.016-.16c.032.27.089.496.132.681.068.29.01.808-.084.85-.095.04-.207.015-.205 0l-.058.064c-.058.057-.156.122-.28.072-.205-.083-.6-.63-.736-1.084-.082-.273-.097-.615-.092-.934Zm4.855-5.306.189.069c.143.013.603.172 1.382.476 1.168.457 4.318 2.764 4.65 2.817l.354.067c.246.043.499.063.697-.067.131-.087.234-.266.308-.538l.08.118c.11.213.144.492.102.839a.74.74 0 0 0-.258 0c-.116.022.013.222-.135.253-.148.03-.767-.22-1.028-.28-.26-.06-2.418-1.648-3.281-2.172-.575-.35-1.563-.785-2.963-1.307l-.055-.188v.073l.01.134.368 2.84c.022.146.04.257.054.317.09.392.27.537.347.912.052.25-.032.532-.252.847h-.198c-.115-.004-.074.096-.415.02-.299-.066-.639-.59-.758-.859l-.132-.389a6.221 6.221 0 0 1-.095-.332l.228.458c.378.767.486.649.524.643l.073.037c.087.03.256.042.511-.14.358-.256.112-.868-.03-1.286-.144-.418-.277-2.36-.277-2.647v-.715Z"/>
    <path fill="#E4E2E2" d="M57.497 46.402a2.6 2.6 0 0 0-1.585-.657c-.883-.05-2.383-.04-4.929.767-2.545.806-7.551 2.975-9.646 3.934-2.094.958-8.603 3.986-10.823 4.822-2.22.836-4.926 1.53-6.336 1.83-1.41.301-5.347.71-6.75.75-.935.026-1.79.071-2.565.135l-.871.769a87.98 87.98 0 0 0 6.925-.663c3.526-.476 6.662-1.092 10.589-2.736 3.926-1.643 9.042-4.058 11.983-5.367 2.94-1.31 7.075-2.91 9.141-3.38 1.378-.313 3-.381 4.867-.204Z"/>
    <path fill="#AAA" d="M24.76 59.81c1.163-.094 2.845-.498 5.047-1.21 3.303-1.07 8.562-3.284 11.162-4.535 2.6-1.252 8.282-3.713 10.851-4.388 2.57-.675 7.033-.882 11.158.254 2.75.758 5.137 1.569 7.163 2.433-2.221-1.257-4.288-2.153-6.2-2.687-2.87-.8-6.068-1.624-8.974-1.37-2.906.255-6.834 1.553-11.916 3.895-5.083 2.343-6.818 3.08-8.307 3.706-1.49.626-6.252 2.317-7.346 2.691-.73.25-1.994.572-3.793.966l1.154.246Z"/>
    <path fill="#B3B3B3" d="M21.661 59.208c2.276-.288 4.111-.633 5.506-1.035 2.093-.603 6.418-2.17 9.547-3.558 3.129-1.388 10.378-4.812 12.007-5.332 1.628-.52 3.703-1.185 5.338-1.396 1.635-.21 5.837-.102 8.274.612-.273-.266-1.034-.88-2.696-1.194-1.661-.313-4.455-.77-7.026 0-2.572.771-5.983 2.105-8.252 3.14-2.27 1.036-9.567 4.396-10.818 4.942-1.252.546-5.986 2.176-8.302 2.709-2.316.533-5.288.84-6.21.902-.615.042.262.112 2.632.21Z"/>
    <path fill="#C2C2C2" d="M14.453 58.876c.358-.338.65-.545.88-.622.342-.116 5.763-.292 7.996-.701 2.233-.41 4.63-.956 9.184-2.84 4.555-1.884 11.246-5.233 15.07-6.675 3.825-1.44 6.274-2.125 7.576-2.095.868.02 1.677.18 2.426.48-1.306-.031-2.165-.031-2.577 0-.619.046-3.959.546-8.766 2.66-4.808 2.116-12.346 5.743-16.116 7.071-3.77 1.329-8.85 2.244-10.52 2.445-1.113.134-2.831.227-5.153.277Z"/>
    <path fill="#E2E2E2" d="M56.394 48.136c-.108.155 3.336.039 7.318 1.19 3.982 1.15 7.735 2.71 10.694 3.858 2.958 1.147-5.539-2.528-6.303-2.868-.765-.34-5.327-1.735-6.676-1.902-1.349-.166-4.926-.432-5.033-.278Z"/>
    <path fill="#D8D6D6" d="M83.408 58.056c.134.688.057 1.126-.23 1.314-.431.28-2.331-.748-3.793-1.562-1.461-.814-5.42-2.91-6.028-3.032-.608-.122-.691-.403-1.173 0-.481.404-.57.687-.478 1.015.06.22.22.587.478 1.104-.086-.884.05-1.37.41-1.458.54-.133.859.035 1.496.354.638.32 2.74 1.313 3.2 1.752.46.439 1.571 1.35.535 2.7-1.036 1.351-2.121 2.704-1.073 2.675 1.049-.028 1.111-.652 3.575-.845 2.463-.193 4.036.197 4.29-.341.253-.538.579-2.286 0-2.98-.58-.695-1.126-1.246-2.345-1.838.426.29.804.67 1.136 1.142Z"/>
    <path fill="#CACACA" d="m79.052 57.624 1.19.654c1.266.684 2.586 1.32 2.936 1.092.287-.188.364-.626.23-1.314a4.485 4.485 0 0 0-1.136-1.142c1.219.592 1.765 1.143 2.344 1.838.58.694.254 2.442 0 2.98-.253.538-1.826.148-4.29.34-2.463.194-2.525.818-3.574.846-1.048.029.037-1.324 1.073-2.674.484-.63.5-1.166.331-1.602.823-.71-2.429-2.852-4.045-3.674a566.316 566.316 0 0 1 4.941 2.656Z"/>
    <path fill="#BFBFBF" d="M84.616 58.752c.58.694.254 2.442 0 2.98-.253.538-1.826.148-4.29.34-1.678.132-2.242.464-2.762.67.76-.535 1.468-.907 2.123-1.117 1.323-.425 2.58-.315 3.74-1.119.629-.435.944-1.114.947-2.039l.242.285Z"/>
    <path fill="#DDD" d="M69.754 55.645c.09-.042-.715-2.171-.856-2.337-.14-.166-2.539-1.243-2.912-1.372-.373-.129-.69-.323-.875 0-.185.323-.125.642-.127.83-.002.187.335-.289.446-.288.11.002 2.661.85 3.05 1.15.388.298 1.184 2.058 1.274 2.017Z"/>
    <path fill="#848484" d="M59.66 51.422c-.013-.586.07-.911.252-.976.271-.098 1.317-.149 2.257.302.941.45 1.062.653 1.055.722-.007.069-.552-.18-1.055-.303-.502-.122-1.652-.536-1.95-.44-.198.063-.385.295-.559.695Z"/>
    <path fill="#DDD" d="M63.265 52.444c.068-.011.005-.993-.04-1.072-.046-.078-.783-.436-1.454-.592-.671-.157-1.69-.202-1.87-.09-.178.114-.282.823-.225.751.056-.071.38-.293.548-.313.168-.021 2.185.369 2.45.468.266.1.524.86.591.848Z"/>
    <path fill="#7A7A7A" d="M54.07 51.449c-.091-.423-.012-.8.237-1.134.374-.499 1.222-.492 2.033-.474.812.018 1.437.184 1.533.53.064.23.089.502.075.817-.172-.429-.35-.698-.53-.807-.272-.164-1.65-.23-2.106-.113-.456.117-.823.235-.954.448-.087.143-.183.387-.288.733Z"/>
    <path fill="#DDD" d="M57.996 51.536c.044-.581-.082-.972-.378-1.171-.444-.3-2.27-.362-2.806-.115-.536.246-.732.53-.796 1.018-.042.326-.042 1.348 0 3.067.14-1.991.285-3.081.434-3.27.222-.283.885-.408 1.6-.43.716-.022 1.316.05 1.499.233.122.122.27.345.447.668Z"/>
    <path fill="#8E8E8E" d="M48.137 52.322c.078-.526.274-.862.59-1.01.473-.22 2.803-.947 3.278-.866.474.08.64.644.582.752-.059.108-.355-.216-.493-.24-.138-.025-3.119.844-3.367.985-.166.094-.363.22-.59.379Z"/>
    <path fill="#DDD" d="M52.519 51.642c.11-.408.085-.681-.076-.82-.243-.207-.761-.251-1.93.111-1.17.363-1.418.299-1.792.603-.375.304-.509.302-.721 1.192-.212.89.048.382.212 0 .164-.383.462-.526 1.075-.767.612-.242 2.494-.769 2.83-.75.223.013.357.157.402.431Z"/>
    <path fill="#989898" d="M40.668 55.348c.045-.364.202-.629.47-.794.404-.247 3.839-1.89 4.395-1.786.37.069.51.388.42.957.066-.245-.155-.32-.66-.224-.507.095-2.049.71-4.625 1.847Z"/>
    <path fill="#CDCDCD" d="M39.625 57.071c-2.846 4.648-3.964 6.545-3.356 5.69.913-1.282 5.322-2.58 5.62-1.949.296.632-.78 2.97-.703 2.945.076-.025 4.574-8.828 4.649-9.422.074-.595.18-.918-.297-.93-.476-.013-4.454 1.332-4.87 2.017a66.552 66.552 0 0 1-1.043 1.649Z"/>
    <path fill="#BCBCBC" d="M45.538 53.405c.477.012.37.335.297.93-.05.404-2.146 4.602-3.507 7.257l.487-1.453c.83-2.544 1.152-3.955.97-4.233-.348-.528-1.848-.007-2.483.297-.336.16-1.063.726-2.182 1.697l.505-.829.676-1.057c.134-.212.256-.41.367-.592.416-.685 4.394-2.03 4.87-2.017Z"/>
    <path fill="#DDD" d="M45.954 54.036c.014-.562-.115-.892-.387-.991-.409-.149-4.165 1.496-4.58 1.832-.275.225-.9 1.202-1.875 2.93.82-1.124 1.328-1.784 1.52-1.977.29-.29 4.515-2.196 4.876-2.044.24.102.283.489.128 1.16l.318-.91Z"/>
    <path fill="#C6C6C6" d="M26.753 62.824c3.144-2.303 4.807-3.512 4.99-3.627.272-.173 4.319-1.402 4.551-1.41.155-.006.22.043.196.147-1.941 2.446-2.999 3.743-3.172 3.89-.174.147-2.362.48-6.565 1Z"/>
    <path fill="#D0CFCB" d="M33.318 61.824c-.174.147-2.362.48-6.565 1l2.665-1.949 5.133-.516-.962 1.168c-.14.163-.23.262-.271.297Z"/>
    <path fill="#BDBDBD" d="M36.441 57.583c.293-.002.309.173.05.524-.26.351-.985 1.192-2.173 2.522l2.123-3.046Z"/>
    <path fill="#DDD" d="M36.7 57.808c.063-.407-.165-.555-.68-.442-.775.169-3.972 1.15-4.357 1.51-.385.36-3.669 2.964-4.659 3.659-.99.695 1.498-.854 2.122-1.323.624-.47 2.34-1.89 2.588-1.935.247-.046 3.67-1.22 4.072-1.354.401-.133.708.02.73.16.07-.086.132-.178.185-.275Z"/>
    <path fill="#DEDEDE" fill-rule="nonzero" d="M32.718 60.738c.09.084-.462.807-1.656 2.17l-.485.607-.146.197-.47.659c-.493.672-1.023 1.318-1.354 1.334-.501.023-.918-.653-.842-1.398l.083-.834c.035-.272.078-.436.16-.446.147-.018.15.972.302 1.1.195.166.499.02.903-.32l.335-.286.544-.54.851-.8c1.11-1.03 1.702-1.511 1.775-1.443Zm9.98-3.178c.206-.245.17-.15.237-.098l.051.04c.024.032-.001.098-.163.388l-1.74 3.028c-.49.859-.783 1.396-.917 1.687l-.134.277c-.57 1.128-1.525 2.436-2.012 2.608-.798.28-1.562-.177-1.656-1.355-.11-1.382-.1-2.012.1-2.046.06-.01.147.18.221.377l.147.434c.143.354.312.585.51.66.245.094.558-.048.956-.504.28-.32.62-.73 1.028-1.235Zm-10.674 3.904-1.542 1.424-.249.235-.555.55-.336.287c-.508.426-.871.567-1.161.32-.079-.067-.119-.148-.155-.323l-.018-.095-.044.465c-.065.634.276 1.195.634 1.178.14-.006.425-.265.8-.727l.31-.402.713-.986.49-.614.585-.682.528-.63Zm10.358-3.19-2.901 3.674c-.246.304-.467.574-.666.81l-.367.43c-.446.511-.837.689-1.177.56-.265-.101-.462-.372-.624-.773a4.01 4.01 0 0 1-.143-.409l-.014-.056.01.444c.004.153.01.33.021.526l.042.64c.083 1.043.713 1.42 1.39 1.181.458-.161 1.512-1.65 2.031-2.78l.133-.27c.11-.211.26-.488.458-.842l1.807-3.135Zm8.625-3.717c.098.007-.442 1.835-1.621 5.484-.98 3.204-1.813 4.884-2.5 5.04-.787.178-1.612-.361-1.867-1.538l-.24-1.06c-.138-.616-.208-1.029-.064-1.096.217-.101.796 1.356 1.047 1.559.325.263.738.116 1.188-.604l.37-.605.565-1.096 1.669-3.385c.903-1.804 1.387-2.704 1.453-2.7Zm-.497 1.228-2.447 4.947-.572 1.11-.371.606c-.485.775-1.022 1.027-1.484.653a1.034 1.034 0 0 1-.212-.272l-.537-.971-.043-.08.094.493.276 1.23c.22 1.017.91 1.548 1.629 1.385.513-.117 1.22-1.44 2.04-3.922l1.003-3.145c.199-.63.366-1.171.502-1.622l.122-.412Zm6.454-1.885c.064.041-.114 1.93-.534 5.666-.34 2.66-.79 4.128-1.362 4.38-.74.326-1.619.051-2.094-1.056l-.197-.564c-.193-.58-.26-.892-.202-.935.193-.14.73.62 1.015.771.37.196.86-.01 1.164-.804l.205-.62c.256-.845.668-2.362 1.236-4.552l.497-1.74c.167-.54.214-.583.272-.546Zm-.252 1.18-.323 1.157-.838 3.154c-.29 1.057-.493 1.736-.61 2.04-.32.83-.91 1.192-1.445.908-.098-.052-.173-.115-.337-.276l-.276-.275-.115-.11.014.03c.068.183.168.507.296.877l.08.226c.401.935 1.13 1.261 1.83.952.47-.207.913-1.634 1.243-4.22l.481-4.463Zm5.687-2.274c.197-.023.424 2.745.6 4.81l.057.835c.082 1.566-.048 2.518-.418 2.806-.639.495-1.169.457-1.897-.502-.729-.959-.734-1.31-.655-1.361.08-.05.605.525.986.605.407.084.75-.188.854-1.032l.094-1.95c.144-2.795.27-4.2.38-4.211Zm.013.864-.243 4.384-.044.938c-.11.886-.511 1.324-1.093 1.203a.964.964 0 0 1-.235-.086l-.167-.097-.18-.154-.156-.144.2.335c.1.16.233.358.406.585.629.828 1.031.917 1.615.465.32-.248.44-1.277.317-3.045l-.251-2.896a45.742 45.742 0 0 0-.126-1.17l-.043-.318Zm5.24.464c.12-.028.458.852 1.015 2.639.739 1.802.977 2.878.714 3.226-.302.4-.894.566-1.485.195-.59-.37-.883-.728-.815-.86.068-.133.789.214.989.2.2-.013.425-.12.28-1.145l-.067-.415c-.229-1.28-.791-3.803-.631-3.84Zm.327 1.187.535 2.812.035.228c.134.958-.022 1.344-.466 1.373a.696.696 0 0 1-.216-.029l-.475-.148.067.06c.097.086.225.192.38.3l.163.108c.465.291.953.206 1.22-.147.197-.261-.035-1.309-.746-3.046l-.297-.92-.2-.59Z"/>
    <path fill="#E1DFDF" d="m74.957 57.787.072 2.551c-.176.037-.291.037-.347 0-.056-.037-.105-.88-.147-2.53l.422-.021Zm2.46-.131.071 2.55c-.156.038-.263.037-.319 0-.055-.036-.104-.88-.147-2.53l.395-.02Zm-.947.167a.2.2 0 0 1 .19.112l.02.077.107 1.928c.017.087-.025.14-.129.159-.103.018-.185.002-.245-.048l-.657-1.145.06 1.046a.2.2 0 0 1-.112.19l-.077.02a.2.2 0 0 1-.191-.111l-.02-.077-.105-1.889c-.01-.108.04-.173.149-.195.108-.023.183.006.225.085l.655 1.143-.058-1.084a.2.2 0 0 1 .111-.19l.077-.02Z"/>
    <path fill="#D5D5D5" d="M20.391 67.645c.601-1.366 1.284-2.39 2.048-3.075 1.146-1.026 3.894-2.718 4.621-3.422.727-.704.269-1.913-1.263-1.854-1.531.06-5.821-.079-7.729-.218a60.584 60.584 0 0 1-4.245-.477c-1.08.429-1.62.989-1.621 1.68-.002 1.039.527 4.82 1.62 5.73.73.606 2.92 1.151 6.57 1.636Z"/>
    <path fill="#C6C6C6" d="M12.81 59.156c.08.256.156.588.225 1.007.665 4.044 4.46 3.21 5.77 3.103.874-.072 2.826-.417 5.858-1.037l2.482-1.542-2.84 2.47c-.723.507-1.417 1.011-1.866 1.413-.541.485-1.203 1.363-1.662 2.19-.152.068-5.269-.457-7.136-1.538-.51-1.484-1.44-4.227-1.44-4.942.001-.346.137-.66.407-.94l.201-.184Z"/>
    <path fill="#B1B1B1" fill-rule="nonzero" d="M13.07 58.998c1.034.088 2.158.165 3.37.232l2.757.125 5.785.224.465.033c1.202.105 1.542.572 1.152 1.223-.077.127-.309.326-.763.67l-2.312 1.69-.645.487c-.393.304-.714.565-.972.795-.79.704-1.491 1.57-2.103 2.597l-.298.527-.352-.189c.7-1.302 1.529-2.38 2.487-3.234.265-.236.592-.503.991-.81l.998-.748 1.759-1.281.546-.418c.186-.15.294-.248.32-.292.201-.334.112-.507-.625-.596L25.283 60l-1.492-.079-6.444-.243c-1.26-.062-2.433-.135-3.516-.218l-.796-.064.034-.398Z"/>
    <path fill="#534343" d="M53.727 69.991c7.692.118 13.492.176 17.4.176 3.908 0 5.824-.026 5.747-.078 4.194-.463 6.552-.737 7.076-.823.207-.034.075-.563.071-.574-.003-.008-.075-.61-.248-.592-1.33.142-7.041 1.569-7.065 1.53a1.823 1.823 0 0 0-.428-.471c-.524-.42-1.135-.657-2.15-.654-.91.002-1.824.02-2.691.543-.1.06-.444-.007-.665-.132-.148-.083-.434-.286-.858-.608h-6.093c-.37.51-.666.793-.888.85-.222.058-1.184.058-2.886 0h-5.352l-.97.833Z"/>
    <path fill="#3F2B2B" d="m71.876 68.826.24-.092.402.138c.266.083.621.159 1.157.144 1.108-.03 1.511-.127 2.019-.22.216.096.406.219.586.363l.17.151.169.189c-.21.045-.746.11-1.157.109l-.548-.025c-1.022-.03-3.773-.031-3.92-.163-.099-.09-.044-.229.125-.376.142.032.266.036.32.004.144-.087.29-.16.437-.222Z"/>
    <path fill="#827878" d="M71.057 69.03c.1.026.196.041.27.04a.63.63 0 0 0-.116.08l-.107.103c-.086.092-.091.152.157.164l5.116.003v.26h-4.703l-.81-.26c-.04-.01-.023-.076.054-.196l.14-.195Z"/>
    <path fill="#921829" d="M60.05 64.711c-.164.662-.398 1.142-.7 1.44-.454.445-.948.754-.59 1.212.36.457 1.297.987 1.618 1.284.214.198.448.566.7 1.102h-7.27c-.266.001-.547.15-.418.431-.58.028-4.727.053-5.494-.05-.511-.068-1.391-.306-2.64-.713 1.825-.167 2.926-.317 3.303-.45.566-.2 6.693-2.685 7.752-3.141.706-.304 1.952-.676 3.738-1.115Z"/>
    <path fill="#730D1B" d="m59.35 66.15-.395.372c-.279.273-.446.52-.195.84.36.458 1.297.988 1.618 1.285.214.198.448.566.7 1.102h-7.05l.255-.17c.228-.158 1.936-.324 1.669-.353l-.587-.01c-.558-.002-1.214.02-1.47.148-.343.171-.488.377-.886.57-.346.167-2.648.115-3.72.075l-.397-.018c-.714-.037-1.715-.12-1.93-.29-.215-.17.274-.3.754-.222.48.078.391.234.657.266l.468.032c.383.018.973.035 1.837.055l.605.004c1.064-.012 1.854-.125 1.946-.257.078-.114-.43-.116-.955-.108l-.566.008c-.627.002-2.896.123-3.335.009-.439-.114 1.52-.19 2.305-.302.785-.113 2.315-.689 4.222-1.588 1.27-.599 2.677-1.302 4.217-2.109.313-.163.578-.269.795-.318-.15.434-.336.757-.562.98Z"/>
    <path fill="#590410" d="M60.378 68.647c.214.198.448.566.7 1.102h-7.27c-.233.001-.477.116-.448.332-.058.002-.087-.014-.083-.032a.377.377 0 0 1 .312-.304l1.096-.124c2.254-.27 3.731-.53 4.432-.783.434-.157.648-.374.643-.65l.356.251c.106.078.197.148.262.208Z"/>
    <path fill="#BE8A91" d="m59.35 66.15-.395.372c-.279.273-.446.52-.195.84.36.458 1.297.988 1.618 1.285l.02.022-.349-.169c-.334-.152-1.307-.868-1.46-1.058-.155-.189-.237-.605-.56-.566-.286.035-.267-.129.131-.318l1.304-.538a.987.987 0 0 1-.114.13Z"/>
    <path fill="#6E1C1F" d="M63.274 64.795c.229.501.308.864.238 1.09-.106.34-.85.422-.859 1.234-.008.812.822.96.859 1.186.036.226-.128.858-.238 1.015-.11.158-.464.385.687.385h6.987c.12-.052.092-.147-.084-.285-.265-.208-.726-.716-.424-1.115.303-.398.61-.449.61-1.055 0-.606-.662-.903-.78-1.066-.119-.163.13-.876.296-1.117.165-.24-.028-.37.909-.555.936-.184 4.446-.06 4.703.2.257.259.378.406.386.717.008.311-.012.695-.274.962-.261.266-.382.415-.393.86-.012.444.452.893.667 1.054.215.162.113.686 0 .867-.113.181-.046.368-.058.59-.011.224.122.238.47.23.347-.01 2.515-.313 3.496-.407.98-.094 2.862-.402 3.213-.479.35-.076.083-.492 0-.53-.083-.037.244-.482.408-.714.164-.232.242-.525.232-.743-.01-.218-.494-.588-.64-.808-.146-.22-.158-.88 0-1.244.105-.242.241-.46.408-.655-3.107-.262-6.729-.393-10.865-.393-4.137 0-7.455.259-9.954.776Z"/>
    <path fill="#5D1316" d="M83.696 68.469c-.026.057-.034.097-.011.107.083.038.35.454 0 .53l-.512.094c-.563.096-1.44.233-2.147.322l-1.386.155c-.947.114-2.132.272-2.554.307l-.11.007c-.298.008-.439-.002-.466-.145l-.013-.394a.491.491 0 0 1 .067-.28.896.896 0 0 0 .096-.261c.207.32.39.467.552.444l6.484-.886Zm-19.611.57.36.038c1.387.121 5.304.309 5.55.278.135-.018.283-.158.445-.42a1.6 1.6 0 0 0 .317.393l.107.092c.141.11.187.193.138.249l-.054.036H63.96l-.406-.013c-.649-.05-.375-.236-.281-.372.053-.076.12-.264.17-.463.126.08.34.14.64.182Z"/>
    <path fill="#390709" d="M83.695 68.478c-.025.048-.033.088-.01.098.083.038.35.454 0 .53l-.512.094-1.248.198c-.306.045-.616.089-.899.124l-1.386.155-2.386.291-.168.016-.11.007c-.288.007-.43-.001-.463-.131.48.012.878-.026 1.196-.115l1.077-.266c1.383-.326 3.68-.837 4.91-1Z"/>
    <path fill="#A92832" d="M69.655 66.27c.364.05.961.526.958.927-.003.4-.248.808-.472.902-.224.094-1.448.172-2.24.16-.792-.011-3.474-.027-3.816-.124-.342-.096-1.059-.4-1.005-.938.053-.538.43-.86 1.427-.9.998-.04 4.784-.076 5.148-.026Z"/>
    <path fill="#A92832" d="M83.254 66.589c1.177-.014.909.409.906.81-.003.4-.349.71-.573.804-.224.094-1.719.145-2.51.134-.793-.011-3.475-.028-3.817-.124-.342-.097-1.117-.344-1.063-.882.054-.537.402-.813 1.4-.853.366-.014.713-.02 1.56.023 1.325.068 3.378.097 4.097.088Z" opacity=".6"/>
    <path fill="#961A24" d="M63.932 64.72c-.369.838-.267 1.27.304 1.3.858.044 3.933.02 4.97.013.691-.004.784-.474.279-1.41 4.915-.22 7.491-.303 7.727-.247.193.046.547.56.094.858-.497.327-.21.892.047.913 1.32.107 1.808.091 3.479.145 1.67.054 3.003.528 2.597-.694-.27-.815-.27-1.462 0-1.943-10.807-.038-16.807-.038-18 0-1.192.038-1.691.393-1.497 1.066Z"/>
    <path fill="#BB5E65" d="M66.796 67.341c-.588-.09-.306-.3.234-.335.54-.036.736-.283.175-.311-.562-.028-1.508-.16-1.538 0-.031.16.17.291.46.284.292-.007.245.292.057.295-.188.003-1.255.105-1.686 0-.43-.104-.618.165-.1.29.52.125.39.207 1.406.238 1.017.03 1.682.03 1.426.264-.255.233-.432.3-.895.289-.462-.012-1.624-.205-1.652-.099-.028.106.173.288 1.13.313.957.026 3.182.086 3.393 0 .211-.086-.231-.19-.83-.214-.6-.024-1.501.06-1.346 0 .155-.061.396-.417.512-.432.115-.015 1.131-.053 1.56-.121.428-.068.573-.356-.091-.36-.665-.003-1.627-.01-2.215-.1Z"/>
    <path fill="#C89799" d="m65.75 64.398.93-.014 1.855-.008c1.165 0 2.362.022 2.993.128l-.053.008c-.851.168-.77.29-.872.492l-.037.063c-.165.241-.415.954-.296 1.117.118.163.78.46.78 1.066l-.012.192a1.525 1.525 0 0 0-.328-.705l-.407-.44a.84.84 0 0 1-.162-.234c-.033-.1-.003-.39.088-.871l-1.085.066c-.682.04-1.28.067-1.796.083l-.37.01c-1.245.03-3.306-.102-3.415-.16-.055-.029-.133-.163-.234-.402a28.113 28.113 0 0 1 2.422-.39Z"/>
    <path fill="#AD5D62" d="m83.854 64.752-.054.081-.115.234c-.158.363-.146 1.024 0 1.244.146.22.63.59.64.808.01.218-.068.511-.232.743l-.256.367c-.113.172-.2.326-.152.347.069.031.263.32.131.463l-.118-.369a11.155 11.155 0 0 0-1.014-.016l-2.251.054c-1.33.022-2.618.002-2.58-.156.048-.208 5.184-.067 5.489-.197.305-.13.38-.334-.09-.35h-.314c-.93.02-3.337.125-4.334 0-1.083-.137-1.617-.495-.755-.483l1.302.046c1.672.041 4.298.055 4.604-.04.337-.104.418-.301.379-.452l-.029-.07c-.088-.152-.073-.345-.35-.351h-1.837c-.482-.007.816-.22 1.19-.248.322-.023.4-.138.378-.336l-.058-.307c-.032-.146-.081-.234-.305-.241l-3.258-.107c-1.372-.04-2.684-.069-2.815-.036-.234.059-.325-.035-.313.071l.015.072c.054.214.047.632-.182.884-.229.253-.447.317-.52.599-.05.198.05.668.171.975-.175-.208-.331-.47-.324-.73.011-.445.132-.594.393-.86.262-.267.282-.65.274-.962-.006-.237-.078-.38-.226-.548l.16-.015 3.568-.194c1.502-.066 3.02-.085 3.788.08Z"/>
    <path fill="#955E60" d="m84.093 67.862-.256.367-.116.19c-.045.084-.065.145-.036.157.069.031.263.32.131.463l-.118-.369a11.155 11.155 0 0 0-1.014-.016l-2.251.054c-1.33.022-2.618.002-2.58-.156.048-.208 5.184-.067 5.489-.197.181-.078.281-.181.234-.256l.133-.043.152-.064c.192-.093.343-.384.44-.626-.03.167-.1.345-.208.496Z"/>
    <path fill="#D0D0D0" d="M85.824 60.003c.1.322.156.557.165.706.009.15.012.58.011 1.291a5.516 5.516 0 0 0 0 .71c.022.247-.115 1.313-.793 1.768-.678.455-1.021.757-1.535.788-.513.03-6.919-.03-7.209 0-.193.02-.378-.137-.554-.469h-4.875c-.25.31-.52.464-.808.464-.434 0-6.188-.022-6.554-.103-.366-.08-.67-.374-1.818-.202-1.148.172-4.373.912-5.87 1.447-1.498.534-5.155 2.135-5.75 2.358-.593.223-1.855.662-2.813.659-.639-.003-1.92-.03-3.842-.082 2.7-.214 4.174-.355 4.421-.424.37-.103 3.993-1.626 5.92-2.511 1.927-.886 6.194-2.312 9.196-3.37 3.002-1.056 6.061-.831 7.418-.599 1.356.233 4.328 1.584 5.342 1.536 1.015-.05 2.13-.609 3.55-.953s3.697-.92 4.788-.944c1.091-.025 1.31-.224 1.369-.435.04-.14.12-.686.24-1.635Z"/>
    <path fill="#B4B4B4" d="M61.015 63.77c-1.359.673-2.507 1.297-3.86 1.85-1.352.552-4.411 1.753-5.145 2.066-.49.208-1.728.76-3.715 1.656-.17.02-.716.078-.874.078l-2.412-.045c-.429-.01-.905-.023-1.43-.037l2.172-.18c1.33-.115 2.08-.197 2.249-.244l.343-.125c.628-.244 1.955-.798 3.268-1.365l2.309-1.021c1.445-.664 4.206-1.633 6.763-2.521l.332-.112Z"/>
    <path fill="#BDBDBD" d="M85.997 62.095 86 62a5.516 5.516 0 0 0 0 .71l-.006.204a2.833 2.833 0 0 1-.095.494c-.316.416-.248.561-.722.95-.473.388-1.336.758-2.328.768l-5.872-.081c-1.683.018.288-.79 1.318-1.11l.14-.042c.656-.198 1.649-.389 2.584-.56l4.065-.738c.396-.078.682-.15.74-.206a.84.84 0 0 0 .173-.294ZM63.08 63.422c-.737.135-.939.537 0 .653.938.116 6.864-.053 7.634-.13.77-.078 2.36-.282-.03-1.026-2.388-.745-6.868.368-7.604.503Z"/>
    <path fill="#817E7E" d="M70.534 62.434c.394.068.926.23 1.506.426l-1.232-.196c-.851-.128-1.45-.198-1.797-.21-.935-.032-4.015.263-5.409.644-1.161.318-3.59 1.17-5.17 1.736l-.83.298c-1.31.474-5.796 2.25-7.144 2.913l-.205.105c-1.013.554-2.111.987-2.67 1l-2.074.129c-.046.003-.35.063-.073.18.329.139 1.275.347 1.618.483.272.108.613.093.525.189-.058.064-1.022-.17-2.89-.7a10.69 10.69 0 0 1-.874-.043c-.103-.012-6.356.481-12.336-.092-1.571-.15-5.228-.814-10.97-1.99.557-1.142 1.103-1.953 1.637-2.433.801-.72 1.504-1.233 2.157-1.744.502-.394.89-.76 1.195-1.038.809-.736 1.68-1.332 1.757-1.575.18-.571-.169-.981-1.048-1.23.712.143 1.09.422 1.134.84.062.593-.281.843-.916 1.425-1.147 1.053-2.302 1.85-2.676 2.158-.375.308-1.09.767-1.766 1.456-.45.46-.887 1.12-1.311 1.98.517.048 1.01.102 1.477.16.215.028 2.802.465 5.29.974.957.195 3.367.813 6.137.96 1.93.104 5.66.075 11.19-.085l2.153-.18c.545-.055.894-.057 1.424-.185.531-.128 3.61-1.494 5.29-2.256l.287-.13c1.927-.886 6.194-2.312 9.196-3.37 3.002-1.056 6.061-.831 7.418-.599Z" opacity=".5"/>
    <path fill="#E8E8E8" d="M85.824 60.003c.1.322.156.557.165.706l.011.814c-.036.281-.096.461-.176.55-.335.368-.924.251-1.498.32l-.768.112c-.413.068-.903.157-1.391.257l-1.367.295c-1.021.21-2.595.497-3.464.598l.99-.323a15.62 15.62 0 0 1 1.1-.315l1.312-.317c1.104-.263 2.33-.532 3.15-.607l.326-.02c1.091-.025 1.31-.224 1.369-.435l.032-.154c.045-.249.115-.743.209-1.48Z"/>
    <path fill="#D8D8D8" d="M17.974 55.61c-.092-.172-.281-.244-.568-.218-.43.04-1.316.24-1.783.58-.467.339-.845.748-1.072.929l-.405.323H13.9l-1.23.995v.251c-.324.219-.64.486-.948.801-.463.474-.97 2.443-.94 3.61.03 1.166.233 2.05.94 2.613.47.374 1.736.864 3.796 1.47l.115-.35c-.8-.585-1.328-1.06-1.586-1.427-.71-1.01-.888-2.742-.941-3.278-.053-.537-.098-1.576.14-1.972.238-.395 2.081-2.179 2.412-2.438.332-.26.713-.448.977-1.017.177-.38.623-.67 1.339-.873Z"/>
    <path fill="#C5C5C5" d="m11.332 60.305.094.152c.198.297.72.954 1.669 1.33l.01.122c.054.536.231 2.269.942 3.278.128.182.324.392.587.628a8.587 8.587 0 0 1-1.407-.476c-1.257-.53-2.127-1.699-2.445-2.465-.013-.538.088-1.247.246-1.9l.18-.43c.07-.153.12-.247.124-.239Z"/>
    <path fill="#585858" d="M17.817 55.451c.068.037.12.09.157.158-.716.202-1.162.493-1.339.873-.264.57-.645.757-.977 1.017l-.248.217c-.612.558-1.962 1.887-2.164 2.221-.238.396-.193 1.435-.14 1.972l.069.596c.106.761.339 1.925.872 2.682.258.366.787.842 1.586 1.426l-.14-.101c-.346-.06-.59-.137-.732-.23-.45-.297-1.556-1.795-1.726-2.797l-.169-1.076c-.148-1.018-.287-2.19-.19-2.389.135-.279 1.103-1.387 1.316-1.753.212-.366 1.128-.892 1.55-1.192.423-.3.525-.47.682-.768.158-.299.375-.453.802-.642.172-.075.391-.139.66-.19l.13-.024Z"/>
    <path fill="#606060" d="m14.233 57.154.003.307-1.389 1.138-.178-.151.001-.229.047-.039.13.044 1.176-.893-.002-.109.125.002z"/>
    <path fill="#CFCFCF" d="M83.848 68.15c.308.068.57.203.79.405.327.302.535.462.53.865-.008.402-.144 1.316-.842 1.638-.698.323-5.611.94-6.326.94h-1.062c-.173 0-.96 0-1.357-.423-.582.014-1.792.014-3.63 0-.52.282-1.17.424-1.951.424h-5.714c-.404 0-.948-.142-1.633-.424-4.952-.108-7.644-.187-8.078-.237-.433-.05-.783-.226-1.048-.527h-3.235c-.136.17-.218.346-.245.527-.042.273-.904.3-1.744.425s-3.552.236-4.303.236H33.957c-2.611 0-5.209-.19-7.426-.66-.61-.122-.977-.215-1.1-.28v-.595l-.829-.104a.478.478 0 0 1-.54.275c-.367-.056-1.815-.37-2.282-.56a1.37 1.37 0 0 1-.711-.655h-.543c-.417.32-.73.457-.94.414-.314-.065-1.536-.459-1.89-.682-.235-.148-.362-.3-.38-.455l-1.068-.411a.47.47 0 0 1-.469.114c-.274-.07-1.689-.741-1.755-.889a.394.394 0 0 1 0-.314h-.11c-.199.028-.356.015-.47-.04-.17-.085-3.444-1.714-3.444-4.022 0-2.308 1.042-3.879 1.246-3.924.136-.03.295-.01.476.06-.54 1.226-.761 2.338-.665 3.338.145 1.5 1.043 2.71 2.388 3.222s1.248.307 1.426.288c.178-.019 1.508.45 1.98.507.472.057 2.922.556 4.517.657 1.594.101 8.032 1.779 10.81 2.087 2.779.308 11.294-.021 12.056 0 .762.021 2.63.591 3.017.67.389.077 5.89.118 6.056.118.105 0-.012-.147.113-.29s.342-.114.43-.127c.157-.025 3.204.059 9.142.25-.298-.091-.417-.222-.358-.392.06-.17.267-.318.622-.447-.167.312-.179.496-.036.554.215.086 7.362 0 7.624 0 .262 0 .249-.117.143-.286.445.013.685.18.683.386-.002.206-.462.258-.303.274.16.016 4.628-.014 5.164-.014.55-.104 2.221-.22 3.22-.36 1-.14 3.843-.517 4.037-.605.137-.186-.02-.403-.064-.546-.028-.095.013-.23.124-.405Z"/>
    <path fill="#BCBCBE" d="m10.597 60.206.065-.133.454.206c.07.034.136.068.2.101-.24.797-.325 1.54-.259 2.23.145 1.499 1.043 2.708 2.388 3.22 1.345.513 1.248.308 1.426.29.16-.018 1.253.36 1.814.478l2.54.427c.486.076.993.147 1.466.199l.677.06c1.594.1 8.032 1.778 10.81 2.086 2.779.308 11.294-.021 12.056 0 .762.021 2.63.591 3.017.67l.225.02c1.12.064 5.68.098 5.831.098.105 0-.012-.147.113-.29.075-.086.183-.11.277-.118l.23-.013c.53-.008 3.551.077 9.065.254-.298-.091-.417-.222-.358-.392.06-.17.267-.318.622-.447-.167.312-.179.496-.036.554.215.086 7.362 0 7.624 0 .262 0 .249-.117.143-.286.445.013.685.18.683.386-.002.206-.462.258-.303.274l5.164-.014.45-.064c.557-.066 1.387-.136 2.105-.215l3.302-.449c.723-.105 1.315-.198 1.4-.237.137-.186-.02-.403-.064-.546-.028-.095.013-.23.124-.405.308.068.57.203.79.405.327.302.535.462.53.865-.008.402-.144 1.316-.842 1.638-.698.323-5.611.94-6.326.94h-1.062c-.173 0-.96 0-1.357-.423l-1.874.01a381.11 381.11 0 0 1-1.757-.01c-.519.282-1.169.424-1.95.424h-5.714c-.404 0-.948-.142-1.633-.424l-6.637-.168a27.949 27.949 0 0 1-1.44-.069c-.434-.05-.784-.226-1.05-.527h-3.234c-.136.17-.218.346-.245.527-.038.245-.74.292-1.492.39l-.252.035c-.203.03-.514.06-.881.086-1.338-.32-.823-1.311-1.442-1.494l-.633-.177c-.89-.235-2.332-.558-3.626-.582l-1.635-.005c-1.558.012-3.69.058-7.03.088-4.676.043-7.044-1.453-7.37-.45-.137.425-.18.86-.254 1.266v-.03l-.83-.105a.478.478 0 0 1-.54.275l-.382-.071c-.58-.118-1.537-.342-1.9-.49a1.37 1.37 0 0 1-.711-.654h-.543c-.417.32-.73.457-.94.414-.314-.065-1.536-.459-1.89-.682-.235-.148-.362-.3-.38-.455l-1.068-.411a.47.47 0 0 1-.469.114c-.274-.07-1.689-.741-1.755-.889a.394.394 0 0 1 0-.314h-.11c-.199.028-.356.015-.47-.04l-.264-.14c-.815-.449-3.18-1.92-3.18-3.882 0-1.222.292-2.237.597-2.929Z"/>
    <path fill="#9B9BA0" d="M11.057 62.61c.145 1.499 1.043 2.708 2.388 3.22l.438.16c.442.152.65.189.767.185l-.072.053c-2.273-.602-3.372-1.795-3.654-2.497-.146-.362-.09-1.145.17-2.348a5.011 5.011 0 0 0-.037 1.226Z"/>
    <path fill="#DFDFDF" d="M63.22 69.706c.215.086 7.362 0 7.624 0 .26 0 .249-.115.146-.282.032.014.052.029.062.045.205.33-.3.536-.728.574l-.14.006-3.462-.003c-1.534-.014-3.332-.08-3.586-.214-.167-.088-.167-.235-.001-.442l.026-.03c-.068.187-.049.302.06.346Z"/>
    <path fill="#E1E1E1" d="M83.848 68.15c.308.068.57.203.79.405.327.302.535.462.53.865-.008.402-.144 1.316-.842 1.638-.698.323-5.611.94-6.326.94h-1.062c-.102 0-.418 0-.741-.087-.04-.225-.004-.369.01-.354l.04.024c.174.083.95.326 3.086.096l.847-.099c2.092-.265 3.936-.648 4.276-.972.385-.368.475-1.103.379-1.338-.015-.036-.503-.78-.58-.688-.122.145.058.62-.368.77-.56.197-2.302.483-2.87.585-1.029.183-3.826.378-4.063.549-.158.114-.304.209-.632.689a1.41 1.41 0 0 1 .191-.67c.091-.148.219-.333.518-.506l-.05.005c.557-.066 1.387-.136 2.105-.215l3.302-.449.94-.143c.249-.041.418-.074.46-.094.137-.186-.02-.403-.064-.546-.028-.095.013-.23.124-.405Z"/>
    <path fill="#A5A5A8" d="m76.531 70.066.45-.064-.052.047c-.177.122-.48.723-.717 1.26l-.224.532a1.14 1.14 0 0 1-.407-.266l-1.874.01-1.757-.01a3.018 3.018 0 0 1-.431.192l-.573-.852c.11-.375.271-.638.485-.789l.081-.047 5.02-.013Zm-32.297-.696c.762.021 2.63.591 3.017.67l.225.02 1.279.04c1.762.038 4.437.058 4.552.058.105 0-.012-.147.113-.29.075-.086.183-.11.277-.118l.23-.013 1.424.024c1.45.036 3.944.111 7.485.225l.27.216c.12.1.208.19.223.267.034.173-.229.742-.538 1.161l-.138-.055-6.637-.168a27.949 27.949 0 0 1-1.44-.069c-.434-.05-.784-.226-1.05-.527h-3.234c-.136.17-.218.346-.245.527-.038.245-.74.292-1.492.39l-.252.035c-.148.022-.353.043-.596.064a20.16 20.16 0 0 1-.744-.145c-.757-.414-.45-1.17-.983-1.327l-.633-.177-.76-.187c-.842-.19-1.896-.377-2.866-.395l-.476.003-.307-.157 3.296-.072Z"/>
    <path fill="#CDCDCD" d="m53.697 69.75.23-.013 2.419.05c1.494.042 3.657.108 6.49.2l.155.123a.315.315 0 0 1-.112.025l-8.087-.15c-.624-.006-1.03-.005-1.065.008-.11.042-.172.138-.187.288a1.912 1.912 0 0 1-.186-.26.28.28 0 0 1 .066-.153c.075-.086.183-.11.277-.118Z"/>
    <path fill="#454545" d="m13.995 67.306.03-.11.12.258c.04.079.876.564 1.16.67.285.105.52-.008.548-.073.01-.026.056-.085.136-.178l.205-.228.08.214 1.17.538c-.004.077.05.183.158.318.163.202 1.251.593 1.452.705.2.11.69.076.923 0 .13-.043.15-.17.065-.38l-.065-.135.37-.7.097.34h.82l.263-.148c-.163.306-.22.528-.169.666.076.206 2.27.727 2.466.792.195.065.124-.248.159-.352.014-.042.063-.13.146-.266l.213-.332.123.368 1.046.147c.058.566.14.86.244.884l1.923.509a.978.978 0 0 0 .17.032c.039-.007.137-.194.294-.562l.178-.428.135.35.82.099.225-.313-.023.823c0 .193.007.304.023.333.047.09 2.493.276 2.59.279.098.003.227-.718.295-.77.046-.036.597.027 1.654.19l-.038.342c-.019.238-.006.358.038.36l2.316.092h.072c.126-.015.187-.634.203-.795.015-.16 1.727-.061 1.729 0l.027.172c.044.215.133.55.24.53l.207-.01c.606-.012 2.291-.002 2.386-.111.112-.13.104-.577.104-.77 0-.121.17-.166.396-.182l.445-.01c.356 0 .576-.068.623.103l.01.088c-.004.281.237.706.334.77.098.065 2.358.023 2.474 0 .058-.01.116-.193.173-.548l.058-.413h1.274l.035.47c.04.405.1.609.176.613l.419-.006c.583-.017 1.594-.06 1.953-.115a.97.97 0 0 0 .367-.124c-.01.01-.012.023-.013.036-.03.19-.46.261-1.005.33l-.739.095c-.77.115-3.113.217-4.077.233L33.956 72c-2.284 0-4.558-.146-6.576-.497l-.849-.164c-.61-.12-.977-.214-1.1-.28v-.594l-.829-.104a.478.478 0 0 1-.54.275l-.382-.071c-.58-.118-1.537-.342-1.9-.49a1.37 1.37 0 0 1-.711-.654h-.543c-.417.32-.73.457-.94.414-.314-.065-1.536-.459-1.89-.682-.235-.148-.362-.3-.38-.455l-1.068-.411a.47.47 0 0 1-.469.114c-.274-.07-1.689-.741-1.755-.889-.029-.065-.038-.134-.029-.205Zm62.987 2.696 1.682-.17.361.018a.114.114 0 0 1 .026.005c.046.021-.595.103-1.925.245l-.316.238c-.13.101-.216.176-.26.225-.108.123-.293.832-.303.985-.009.153.371.302.88.336.355.024 1.994-.06 2.983-.096l-.931.11c-.567.063-1.002.1-1.179.1h-1.062c-.173 0-.96 0-1.357-.423l-1.874.01a381.11 381.11 0 0 1-1.757-.01c-.519.282-1.169.424-1.95.424h-5.714c-.404 0-.948-.142-1.633-.424l-.66-.014c.337-.081.711-.216.823-.329.116-.116.306-.364.57-.744-.122.425-.177.73-.167.914.016.277.602.478.808.482l6.107.028c.807.01 1.11-.387 1.094-.486-.014-.085-.231-.114-.344-.41l-.036-.137.033.099c.102.205.348.333.6.37l.152.01 4.377.004a.446.446 0 0 0 .054-.003c.085-.022.237-.586.315-.796a2.32 2.32 0 0 1 .226-.433l.06-.087.317-.041Z"/>
    <path fill="#7D7D7D" d="m33.97 70.835-.177.67-.03-.056c-.026.043-1.186.016-1.294-.027-.06-.024-.07-.281-.031-.77l.183.005c.25.019.7.079 1.35.178Zm4.338-.01.006-.227-.02.427c-.018.234-.046.366-.082.397-.08.07-1.307.01-1.363 0-.028-.005-.082-.188-.162-.55l-.057-.027c.014-.143 1.394-.079 1.678-.02Zm4.407-.35.03.864-1.194.03-.175-.81c.066-.05.192-.074.343-.085l.445-.01c.263 0 .451-.037.55.012Zm4.393-.011-.117.85-.97.025-.195-.815.01-.06h1.272Zm-18.788-.61.135.35.82.1.134-.185c-.07.145-.117.3-.143.467-.04.25-.017.456-.075.462a33.182 33.182 0 0 1-.935-.11c-.049-.01-.028-.421-.005-.913l.069-.17Zm-3.978-.95.123.369.98.135-.023.09c-.055.23-.08.414-.074.551-.03.075-.685-.019-.776-.058-.087-.036-.208-.5-.254-1.049l.024-.037Zm-3.993-.69.095.332h.82l.148-.086-.05.06a1.26 1.26 0 0 0-.26.451c-.154.106-.552.08-.698 0-.122-.067-.132-.47-.055-.757Z"/>
    <path fill="#5B5B5B" d="m13.539 60.136-.203.266.203.204.281-.279zM15.423 60.159l-.202.266.202.204.282-.279zM17.493 60.298l-.203.266.203.204.281-.279zM19.526 60.373l-.202.266.202.204.282-.279zM21.663 60.467l-.202.266.202.204.282-.279zM14.075 61.352l-.202.266.202.204.282-.279zM15.96 61.375l-.203.266.203.205.282-.28zM18.029 61.514l-.202.266.202.204.282-.279zM20.063 61.589l-.202.266.202.204.282-.279zM14.583 62.709l-.202.266.202.204.282-.279zM16.468 62.732l-.203.266.203.204.281-.279zM18.537 62.871l-.202.266.202.204.282-.279zM15.382 64.271l-.202.267.202.204.282-.279zM17.267 64.295l-.203.266.203.204.281-.279z"/>
    <path fill="#593535" d="m79.376 44.306-.203.266.203.204.281-.279zM70.955 49.633l-.202.266.202.205.282-.28zM69.132 49.302l-.202.266.202.204.282-.279zM70.114 48.494l-.202.266.202.204.282-.279zM77.455 43.37l-.258.366.338.235.235-.323zM75.9 44.82l-.258.366.338.235.235-.323zM72.428 48.62c-.174.026-.318.23-.293.404a.37.37 0 0 0 .396.294c.175-.026.328-.223.302-.398-.026-.175-.232-.325-.405-.3ZM77.821 45.547l-.258.366.338.235.235-.323zM76.2 46.86c-.173.012-.334.226-.327.402.007.176.185.339.356.327.17-.011.329-.189.321-.373-.007-.183-.179-.367-.35-.355ZM78.123 47.705c-.172.012-.333.225-.326.401.007.176.185.34.356.328.17-.012.329-.19.322-.373-.008-.184-.18-.367-.352-.356ZM79.23 52.13c-.172.012-.333.226-.326.402.007.176.184.339.355.327.171-.011.33-.19.322-.373-.007-.183-.179-.367-.351-.355ZM77.281 51.37c-.172.012-.333.226-.326.402.007.176.185.339.356.327.17-.011.329-.189.322-.372-.008-.184-.18-.368-.352-.356ZM75.222 50.693c-.172.012-.333.226-.326.402.007.176.184.339.355.327.171-.011.33-.19.322-.373-.008-.183-.18-.367-.351-.356ZM74.755 48.303c-.173.012-.334.225-.327.401.008.177.185.34.356.328.17-.012.33-.19.322-.373-.008-.183-.18-.367-.351-.356ZM73.3 50.198c-.172.012-.333.226-.326.402.007.176.184.338.355.327.171-.012.33-.19.322-.373-.007-.183-.179-.367-.351-.356ZM78.688 49.894c-.212.012-.414.244-.401.459.013.214.243.413.454.401.211-.012.409-.233.396-.45-.013-.216-.236-.422-.449-.41ZM76.685 49.067c-.213.012-.414.244-.401.458.013.215.242.414.454.402.21-.012.409-.234.396-.45-.014-.217-.236-.423-.449-.41ZM79.487 46.278l-.202.266.202.204.282-.279zM80.112 48.609l-.203.266.203.204.281-.279zM80.596 50.706l-.202.266.202.204.282-.279zM81.063 52.882l-.203.266.203.204.281-.279z"/>
    <path fill="#C6A0A2" d="M66.95 66.628c-.9-.015-2.01-.015-1.994.111.015.126 1.793.123 2.445.134.652.01.447-.23-.452-.245Z"/>
    <path fill="#DCB9B9" d="M78.792 66.616c-.924-.023-1.511-.046-1.655.104-.143.15 2.736.213 2.745.111.008-.102-.166-.193-1.09-.215Z"/>
  </g>
</svg>
