<svg xmlns="http://www.w3.org/2000/svg" viewBox="0 0 96 96">
  <defs>
    <path id="a" d="M0 0h96v96H0z"/>
  </defs>
  <g fill="none" fill-rule="evenodd">
    <path fill="#1E1C1E" d="M67.605 35.168c.163.048 2.534 1.438 7.113 4.17-2.03 4.221-3.49 6.2-4.377 5.932-1.331-.4-2.502-3.952-2.64-5.127-.138-1.175-.339-5.047-.096-4.975Z"/>
    <path fill="#383738" d="m67.605 35.168.218.11c.696.38 2.994 1.733 6.895 4.06a57.427 57.427 0 0 1-.868 1.734c-1.84-.363-3.882-.61-6.122-.746l-.027-.183-.062-.65c-.124-1.55-.242-4.387-.034-4.325Z"/>
    <path fill="#494949" d="m67.605 35.168.218.11 1.15.658c1.17.681 3.085 1.815 5.745 3.401l-.405.828c-.066.133-.132.263-.197.39l-6.521-1.681-.035-.579c-.082-1.485-.116-3.175.045-3.127Z"/>
    <path fill="#18181A" d="M29.261 53.248c-.469-.62-.586-1.069-.351-1.349.351-.42 1.867-.42 2.289-.42.28 0 .435.14.462.42l1.082-.42c.19-.344.377-.598.56-.761.274-.244.748-.27 1.034-.144.286.125 2.661-.936 2.803-1.066.14-.13.444-.75.75-.828.305-.079.888.152 1.147 0 .26-.152 1.263-.437 1.302-.68.04-.243.694-1.543 1.531-1.966.837-.422 1.266-.325 1.611-.368.345-.043 1.064-.464 1.538-.473.475-.008.19-.408.424-.664.233-.256 1.353-.75 1.563-.972.21-.223.414-.806.409-1.103-.006-.297.133-.984.585-1.145.452-.162 1.08-.101 1.298-.274.219-.174.646-1.205.74-1.806.095-.602 1.037-2.33 1.409-2.858.37-.527 1.967-2.558 2.323-2.899.356-.34 2.265-1.686 2.566-2.023.301-.338 1.009-.932 1.44-1.399.43-.466.76-.501 1.178-.503.42-.002.868-.127 1.344.342.477.47.846.994 1.547 1.253.7.259 1.681.833 2.027 1.022.346.19 2.405.16 3.098.205.692.046 1.785.327 1.854 1.585.012.38-.076 1.616-.132 2.648-.057 1.033-.106 3.144.01 4.045.115.901.665 1.668.77 2.249.106.581.69 1.05.84.875.151-.176 2.773-4.558 3.059-5.187.285-.63.835-1.22 1.254-1.046.418.174 2.394 1.533 2.746 2.018.235.324.482.757.743 1.299.49 1.188.49 2.634 0 4.338-.735 2.557-8.033 10.603-12.953 12.197-4.92 1.594-24.305 3.49-27.064 3.437-2.758-.052-4.929 1.017-6.436-1.488-1.005-1.67-1.805-3.701-2.4-6.091Z"/>
    <path fill="#626263" d="m68.775 41.022-.073-.375c.096.75.494 1.408.685 1.943l.085.306c.09.494.524.907.746.912-.15.115-.351.542-.406.465l-.143-.244c-.22-.4-.626-1.215-.809-1.994a4.106 4.106 0 0 1-.085-1.013Zm3.919-1.217a7.215 7.215 0 0 1-.131.977c-.09.476-.582 1.348-1.373 2.653-.745 1.227-.744.519-.856.359l-.022-.023.263-.407c.284-.46.756-1.242 1.234-2.047l.885-1.512Z"/>
    <path fill="#353434" d="M35.2 59.112c-.557-1.288-2.025-6.82-2.065-7.185-.04-.364 1.121-.54 1.403-.599.282-.058 1.24 3.227 1.739 5.03.332 1.2.633 2.202.9 3.002.1-.065.1-.324 0-.778-.149-.68-1.623-5.774-1.725-6.372-.103-.597-.564-.984-.26-1.242.306-.258 1.461-.685 1.708-.337.247.348 1.636 5.816 1.845 6.646.139.554.332 1.31.58 2.27.12.007.12-.315 0-.965-.18-.975-.968-3.933-1.082-4.387-.114-.453-1.021-3.437-1.066-3.564-.044-.127-.218-.38.03-.507.249-.128.823.379 1.227 1.012.404.633.342 1.637.555 1.635.214-.002.712-.112.787.154.075.266 1.499 5.838 1.538 6.187.04.35.15-.582 0-1.308-.15-.726-1.289-4.56-1.133-4.461.156.1 1.873 4.917 1.936 5.485.062.568 3.589-.118 3.833-.406.245-.289-1.69-3.17-1.888-3.596-.199-.427-2.049-4.424-1.314-3.69.735.733 4.171 6.91 4.414 7.286.244.376.501-.108.916-.22.415-.114-.802-2.247-1.93-3.467-1.13-1.22-2.944-4.116-3.4-5.125-.455-1.009-.784-1.5 0-1.947.784-.448 1.182-.596 1.72-.464.537.132 1.236.629 2.135 1.815.899 1.187 2.412 3.394 2.43 3.757.02.364.092.757.573 1.773.482 1.016 1.771 3.642 2.003 3.657.232.015 1.485-.331 1.474-.644-.01-.312-1.44-2.1-2.01-2.822-.57-.722-2.813-3.903-3.298-4.859-.486-.955-.117-1.415.225-1.177s1.678 2.163 2.159 2.78c.48.618.955 1.328 1.117 2.09.162.761 2.015 3.922 2.66 4.406.644.484-2.175.665-2.775.318-.6-.347-1.502-2.914-2.495-4.098-.994-1.183-2.663-2.98-3.183-3.851-.52-.872-1.217-3.11-1.421-2.681-.204.429-1.106.426-.884.618.223.193.472.704 1.29 1.843.818 1.139 3.573 5.165 3.99 6.491.28.884.47 1.716.576 2.497-6.957.775-10.758 1.164-11.401 1.166-.965.003-1.874.123-2.432-1.166Z"/>
    <path fill="#737373" d="M45.535 55.823c-.951-1.282-2.061-3.622-2.536-4.368-.474-.745-.922-2.86-.857-3.01.064-.148.41-.088.927 1.13.516 1.219 2.801 4.278 2.872 3.93.071-.347-2.746-4.662-2.942-5.06-.196-.396.447-.821.85-.936.403-.116 1.364.905 1.67 2.116.305 1.21 3.075 4.4 3.191 3.432.117-.967-3.074-4.915-3.892-5.46-.818-.547-.934-.3-1.565-.064-.63.236-1.66.536-1.668.689-.01.153 1.236 4.65 1.997 5.67.762 1.019 2.905 3.213 1.953 1.931Z"/>
    <path fill="#646464" d="M37.96 51.259c.239-.006.806 1.994 1.09 1.893l.191-.072c.122-.043.166-.031.252.123.595 1.07 1.597 4.999 1.408 5.754-.09.362-.6.757-1.528 1.187l-1.343.115a6.83 6.83 0 0 1-.397.02l-.664.001c-.323-.009-.631-.047-.911-.181l-.184-.52a23.31 23.31 0 0 1-.198-.622l-.208-.705c-.761-2.658-1.485-5.997-1.203-6.223.308-.247 2.35 6.63 2.513 7.038.075.19.23.265.386.253l.013.04a.126.126 0 0 0 .043-.052.469.469 0 0 0 .354-.35c.1-.401-.933-4.627-1.121-5.608l-.065-.386c-.14-.93-.173-1.986.131-1.472.348.587 2.237 7.046 2.413 7.465.058.14.169.2.296.215l.097.375c.076.005.104-.123.084-.383.207-.031.416-.14.495-.207.153-.128-.885-3.666-1.234-4.758l-.392-1.246c-.264-.87-.479-1.69-.319-1.694Z"/>
    <path fill="#242326" d="M54.78 58.438c-1.872-2.385-3.019-3.959-3.442-4.72-.634-1.143-1.262-2.644-2.105-3.852-.842-1.208 3.613 3.693 4.09 4.286.318.395 1.304 1.685 2.957 3.869 2.657-.788 3.846-1.308 3.566-1.562-.42-.38-1.776-1.799-2.278-2.402-.502-.604-2.715-3.195-2.584-3.077.132.119 2.355 1.272 3.464 2.393 1.11 1.12 1.52 1.53 1.398 1.2-.123-.328-1.926-2.337-3.566-3.593-1.64-1.255-.818-.943-1.773-1.8-.955-.858-.032-1.703 1.083-.89 1.116.812 3.76 3.135 4.745 4.136a16.485 16.485 0 0 1 1.934 2.41c.226.348.829 1.243.82.883-.008-.36-.395-1.538-1.386-2.52-.992-.981-3.082-2.998-4.135-3.804a66.699 66.699 0 0 0-2.584-1.862c.947-.4 1.565-.516 1.855-.348.434.25 3.697 2.392 4.385 3.19.688.797 2.214 2.503 2.443 2.998.23.495.725 1.37.904 1.2.178-.17.64-.69-.698-2.147-1.339-1.457-2.592-2.98-4.364-4.136-1.771-1.157-2.967-1.42-2.548-1.76.419-.34 1.096-.54 1.326-.336.23.203.765 1.034 1.222.958.458-.075.528-.491 1.215.033.688.524 3.01 2.517 3.518 3.19.51.673-.173.899.329 1.57.501.67 1.047 1.876 1.342 1.772.294-.103 1.282-.437 1.256-.946-.025-.51-.464-.84-1.256-1.291-.792-.452-1.22-1.384-1.993-2.09-.774-.706-2.984-2.454-3.585-2.86-.6-.405-.104-1.607.725-1.052.828.554 2.967 2.318 3.94 3.273.973.955 1.166 1.437 1.534 1.937.367.499 1.802 1.796 2.013 1.738.212-.058.401-.836.249-.946-.152-.11-1.58-1.153-1.875-1.614-.294-.461-1.169-1.436-1.212-1.576-.044-.141-1.231-1.383-2.62-2.622-1.389-1.239-5.522-4.337-5.472-4.566.05-.229.263-1.06.478-1.547.215-.487 3.63.695 6.905 2.836 3.275 2.14 4.248 3.119 5.631 3.803 1.384.683 3.217 1.84 3.712 1.806.495-.034.105-.76-.194-.815-.298-.056-4.565-2.251-5.353-2.697-.788-.445-2.728-2.084-3.796-2.726-1.068-.642-4.94-2.364-5.759-2.54-.818-.177-.12-.696.605-.358.725.338 4.024 1.782 5.154 2.238 1.129.456 1.553-.172 2.17.389.616.56 1.414 1.02 1.549 1.367.134.347.433.903.723 1.365.29.462.925 1.308 1.403.592.478-.716.716-.749 1.23-.327s3.11 1.93 3.388 1.884c.278-.045-.303-.38-.745-.704-.441-.323-2.71-1.52-2.985-1.681-.276-.161.434-.966.54-1.13.108-.163 3.401 1.78 3.721 1.958.32.177.58-.19.211-.327-.368-.137-3.327-1.776-3.685-1.877-.358-.101.422-1.343.539-1.51.116-.165 1.6.58 2.141.989.36.273.954.686 1.782 1.24l.273-.719c-.449.048-.799-.025-1.05-.22-.376-.293-1.864-1.039-2.589-1.32-.725-.28-.198-.613 0-1.03.199-.417.684-1.709.727-2.18.043-.47.916-.529 1.862 0 .947.529 2.472 1.768 2.276 2.529-.196.76-.752 3.2-1.5 5.443-.747 2.243-6.182 7.071-8.185 8.496-2.003 1.425-9.685 4.674-11.585 4.628-1.267-.03-2.077-.204-2.431-.519Z"/>
    <path fill="#464646" d="M66.645 41.072c-.884-.568-4.993-3.04-5.797-3.21-.805-.172-3.282-.952-3.577-.99-.295-.036-.938.11-1.155 0-.217-.107.112-1.284.333-1.332.222-.047.615.47 1.78.855 1.164.386 2.196.38 3.328 1.091 1.132.71 2.617 1.281 3.794 2.031 1.176.75 2.51 1.621 1.294.252-1.216-1.369-.47-1.374-1.733-2.112-1.262-.737-2.249-.515-3.022-.784-.773-.27-1.902.13-2.563-.478-.66-.609-1.802-.513-2.371-.855-.57-.34-.954-.244-1.123 0-.17.245.03 1.24-.273 1.626-.302.388.743.982 1.672 1.039.929.056 1.822-.136 2.378.193.555.328 2.082 1.072 3.348 1.581 1.266.51 4.571 1.661 3.687 1.093Z"/>
    <path fill="#626262" d="M68.304 34.178c.003-.365-.111-.993-.556-1.288-.445-.296-.954-.347-1.534-.423-.58-.076-1.548-.055-2.11-.235-.56-.18-.997-.528-1.583-.677-.586-.15-1.205-.491-1.58-.906-.377-.414-.617-1.024-.956-.882-.34.142-1.039.214-1.304.346-.266.132-1.788 1.864-1.993 2.574-.205.71.594-.369 3.534-.112 2.94.256 8.08 1.967 8.082 1.603Z"/>
    <path fill="#5D5D5D" d="M33.134 51.3c.164-.314.629-.553.777-.544.148.008 3.223-1.155 3.445-1.276.222-.121 3.028-1.492 3.371-1.663.344-.171 2.557-1.166 3.239-1.518.681-.35 1.408-1.62 2.93-2.428 1.522-.809 5.47-3.565 6.026-4.142.556-.577 2.749-2.517 2.877-2.873.128-.356-.044-1.872.521-2.895.566-1.023 1.135-1.998 1.504-2.69.368-.693-.623 1.52-.752 2.049-.13.529-.77 1.59-.843 2.422-.074.832-.17 1.428-.26 1.62-.092.192-2.42 2.464-3.242 3.149-.823.685-2.418 1.809-3.01 2.134-.591.326-2.094 1.237-2.678 1.495-.584.258-1.202.775-1.52 1.13-.317.356-1.506 1.502-2.077 1.796-.571.294-2.478 1.07-3.03 1.25-.551.183-2.577 1.3-3.523 1.662-.946.363-1.66.76-2.575 1.093-.914.334-1.344.545-1.18.23Z"/>
    <path fill="#3C3C3C" d="M39.406 50.637c-.375.086-.73.129-1.23-.311s-.802-.635-.783-1.016c.02-.382.606-.842 1.006-.695.4.146.785.81 1.204.695.419-.117 1.5-.687 1.51-.92.008-.233-.404-.738-.226-1.238.178-.5.783-1.26 1.512-1.425.728-.165 1.235.042 1.385-.022.15-.064.565-.451 1.235-.512.67-.06 1.63.151 1.97.077.341-.074 1.8-.906 1.716-1.13-.085-.224-.968-1.44-1.175-1.947-.208-.505.23-.966.743-1.005.512-.038 1.048-.104 1.27-.316.222-.213 1.527-.171 2.28-.151.753.02 2.07.264 2.312.15.24-.112 1.561-1.813 1.547-1.945-.013-.132-1.081-.869-1.651-1.23-.57-.363-1.634-.981-1.605-1.19.028-.209.975-1.36 1.21-1.187.237.174 2.412 2.095 2.904 2.5.491.404 1.166 1.213.654 2.043-.511.831-2.072 2.34-2.454 2.331-.38-.008-1.682-.203-2.66-.339-.977-.136-1.87-.129-2.356 0-.485.129-.667.493-.224 1.393.443.9.762 1.355.583 1.824-.18.47-2.024 1.538-2.553 1.642-.53.104-1.47.14-2.146 0-.677-.14-1.344-.189-1.6-.247-.255-.058-.667-.018-.928.24-.26.257-.399.969-.349 1.664.05.695-.04.971-.812 1.36-.773.388-1.914.82-2.289.907Z"/>
    <path fill="#111" d="M42.772 50.563c.094-.376.094-.667 0-.872-.141-.309-.284-.443-.588-.636-.304-.192-.875-.57-1.109-.607-.234-.038-1.078.477-1.38.607-.3.13-.488.417-.463.681.026.265-.227.673-.293 1.057-.065.385.308.79.531 1.17.15.252 1.25-.214 3.302-1.4Z"/>
    <path fill="#767676" d="M41.075 48.448c.234.038.805.415 1.11.607.186.119.312.215.414.344l.028-.022c-.173.172-2.75 1.319-3.14 1.467-.258.098-.356.048-.293-.151l2.586-1.124c.267-.134.13-.453 0-.566-.13-.113-.429-.324-.608-.317-.178.007-1.085.54-1.375.691a3.67 3.67 0 0 1-.557.22c.036-.22.207-.434.456-.542.301-.13 1.145-.645 1.38-.607Z"/>
    <path fill="#111" d="M50.029 47.29c-.705.623-1.216.933-1.532.932-.474-.002-.963-.279-1.154-.731-.19-.453-.018-1.07-.225-1.488-.207-.418-.374-.672 0-1.193.375-.52 1.162-.763 1.522-.637.36.126.702.355 1.11.365.41.01.72.036 1.103.413.383.376.654.705.522.954-.088.166-.537.628-1.346 1.386Z"/>
    <path fill="#767676" d="m49.612 44.52.139.018c.175.004.332.011.485.048l.07.021c.074.092-.032.19-.176.254-.216.098-2.004 1.788-2.147 1.902-.095.075-.17.205-.228.39-.118.032-.146-.07-.085-.309.093-.357 1.027-1.04 1.525-1.486.444-.396.487-.705.417-.838Zm-1.212-.38a.635.635 0 0 0-.179.483c.02.402-.751.695-.836.943a2.115 2.115 0 0 1-.145.327l-.1.159-.149-.308c-.128-.285-.164-.529.127-.934.28-.39.794-.625 1.185-.664l.097-.006Z"/>
    <path fill="#111" d="M56.536 42.795c-.18.132-.165.324-.526.272-.36-.052-.39-.422-.686-.436-.297-.013-.415.312-.851-.217-.436-.53.133-.349.358-.395.226-.047.314-.231 0-.653-.313-.423-.903-.314-1.02-.384a.66.66 0 0 1-.174-.844c.218-.435.793-.979 1.194-1.138.402-.159.772-.028 1.105.08.333.107.84-.146 1.504.233.664.38.666.94.535 1.27-.13.33-1.258 2.08-1.439 2.212Z"/>
    <path fill="#767676" d="m57.417 39.3-.012.027-.843 1.303c-.822 1.304-1.168 1.21-.996.975l.042-.049c.235-.243 1.278-1.946 1.522-2.38.091.028.187.07.287.125Zm-1.826-.324-.088.038c-.217.136-.234.413-.387.778a1.273 1.273 0 0 1-1.225.763c-.158-.008-.267-.075-.326-.2a.748.748 0 0 1 .072-.217c.218-.435.793-.979 1.194-1.138.268-.106.522-.083.76-.024Z"/>
    <path fill="#333" d="M61.869 32.372c-.092-.62-.414-1.322-1.327-1.234-.914.088-2.296-.082-3.462.237-1.165.32-3.18 1.315-4.329 2.316-1.148 1-3.708 4.444-3.623 5.235.085.791.256 1.218.177 1.506-.079.289.05.932.774-.201.724-1.134 2.046-2.976 2.414-3.46.368-.485 1.594-1.881 1.99-2.297.397-.416 2.154-1.615 3.151-1.843.998-.228 2.842-.313 3.131 0 .29.313.479 1.098-.965 1.36-1.444.26-1.14-.317-2.423 0-1.284.318-1.499.248-2.27.64-.514.261-.873.585-1.076.97l.786.886c1.002-.764 1.941-1.153 2.817-1.168 1.315-.021 2.272-.072 2.908-.424.635-.351 1.419-1.903 1.327-2.523Z"/>
    <path fill="#111" d="M62.02 35.076c-.356.3-.591.471-.703.515-.169.065-.83-.205-1.308-.258-.319-.034-.551-.09-.696-.166.451-.16.7-.323.75-.488.072-.246.07-.686-.44-.74-.51-.052-.05-.422.224-.927.274-.505.423-1.128.82-1.196.396-.07 1.317-.017 1.6 0 .282.016.916.541.971.662.037.08-.37.946-1.217 2.598Z"/>
    <path fill="#6A6A6A" d="m62.266 31.816.1.024c-.324.57-.605.943-.843 1.114-.415.3.596-.97.353-.97s-1.03.078-1.34.337c-.137.114-.364.39-.681.828l-.46.656c-.015-.16.263-.444.452-.793.274-.505.423-1.128.82-1.196.396-.07 1.317-.017 1.6 0Z"/>
    <path fill="#363636" d="M42.35 59.7c-.959-3.542-1.538-5.55-1.736-6.023a52.93 52.93 0 0 0-1.011-2.197l2.976-1.264c.803 1.654 1.321 2.82 1.556 3.501l1.806 5.24-3.591.742Z"/>
    <path fill="#8C8C8C" d="M44.096 53.917c-.323-1.186-1.173-3.11-1.324-3.354-.15-.243-.12-.398-.3-.326-.181.073-2.451.955-2.555 1.066-.103.11.433.718.532.93.1.212.284.287.181 0-.103-.287-.396-.625-.272-.753.123-.128 1.887-.97 1.96-.917.074.053 1.497 3.207 1.84 4.22.343 1.013.26.32-.062-.866Z"/>
    <path fill="#707070" d="M40.887 52.746c-.157-.016-.332.036-.237.228.062.128.146.264.251.407l.079.19c-.078.075-.114.143-.108.204.01.09 1.182 3.897 1.175 3.736-.007-.16-.327-1.85-.281-2.381.045-.532.653-.539.746-1.014.093-.475-.022-.942-.096-.944-.05 0-.491.132-1.325.399-.117-.18-.154-.312-.111-.399.064-.13.65-.492.416-.505-.234-.014-.352.095-.509.079Z"/>
    <path fill="#363636" d="M56.28 57.92c-2.667-3.866-4.45-6.318-5.351-7.358-1.351-1.56-2.95-2.696-2.929-2.91.014-.143.875-.792 2.582-1.947 1.686 1.678 3.116 3.203 4.292 4.575 1.175 1.371 2.758 3.589 4.749 6.651l-3.343.988Z"/>
    <path fill="#8C8C8C" d="M52.231 47.492a89.321 89.321 0 0 0-1.537-1.653c-.142-.149-.46-.22-.364-.134.097.085.224.363.128.39-.096.03-1.325.857-1.69 1.057-.363.201-.252.432.36 1.07.611.637 1.458 1.765 1.202 1.098-.256-.666-.016-1.367-.315-1.724s-.559-.442-.41-.697c.149-.255.796-.782.953-.64.158.143 1.31 1.162 1.559 1.337.25.176.36.184.114-.104Z"/>
    <path fill="#363636" d="M70.802 51.893c-3.553-2.694-5.882-4.402-6.989-5.124-1.66-1.083-7.466-3.932-7.584-4.051-.118-.119-.095-.516 0-.778s1.554-1.917 1.65-2.015c.098-.098 1.782.721 2.223.847.441.126 5.409 2.923 7.025 4.144 1.077.815 3.085 2.367 6.023 4.656l-2.348 2.321Z"/>
    <path fill="#8C8C8C" d="M62.018 41.747c-.79-.498-2.64-1.267-2.991-1.41-.352-.144-.988-.583-1.147-.42-.16.162-1.123 1.965-.869 1.737.255-.227.769-1.481.894-1.423.125.057 3.6 1.493 3.827 1.617.227.124 1.076.396.286-.101Z"/>
    <path fill="#3C3C3F" d="M60.53 40.873c-.325-.043-1.458.924-2.062 1.378-.603.453-2.588 2.078-3.559 2.652-.971.573-2.073 1.902-2.706 2.416-.632.514-2.338 1.346-2.66 1.635-.322.289-.008.539 0 .838.008.299 1.69 2.254 1.842 2.267.15.014.243-.07.348-.247.104-.177 1.768-.894 1.904-1.08.135-.186 2.165-1.916 3.118-2.732.953-.816 3.254-2.775 4.085-3.258.83-.482 2.306-1.44 2.532-1.829.226-.387.019-.489-.252-.662-.27-.174-2.264-1.335-2.59-1.378Z"/>
    <path fill="#979797" d="M60.53 40.873c.326.043 2.32 1.204 2.59 1.378.27.173.478.275.252.662-.226.388-1.701 1.347-2.532 1.83-.83.482-3.132 2.44-4.085 3.257-.953.816-2.983 2.546-3.118 2.732-.126.173-1.564.8-1.857 1.033-.277-.153-.594-.358-.688-.667-.145-.478-.017-.838-.627-1.184s-.99-.34-.782-1.032l.016-.044c.383-.254 1.216-.69 1.864-1.086a13.698 13.698 0 0 1-1.454 1.13c-.201.128-.495.305-.274.475.221.17 1.457.05 1.574.38.116.33-.005 1.191.154 1.23.158.038.483-.064 1.038-.5.555-.438 3.372-2.389 4.038-3.107a47.984 47.984 0 0 1 2.153-2.135c.402-.368.387-.996 0-1.25-.387-.253-.67-.408-.887-.633-.144-.15-.236-.15-.274 0-1.606.96-2.624 1.611-3.053 1.952-.272.216-.216.09.054-.21l.05-.036.227-.145c.8-.473 2.29-1.66 3.126-2.317.407-.12.502.016.304.188-.341.297-.19.423.884.302s1.628-.029 1.105.643c-.523.672.084.572.445.43.362-.14 1.457-.517 1.776-.985.319-.47.487-.466.145-.796-.341-.33-1.893-1.28-2.104-1.296-.212-.017-.964.381-1.367.675-.076.055-.103.044-.091-.012.558-.435 1.173-.892 1.399-.862Z"/>
    <path fill="#262424" d="m63.468 42.64-.002.03a.657.657 0 0 1-.094.243c-.226.388-1.701 1.347-2.532 1.83-.575.333-1.855 1.375-2.905 2.255l-3.281 2.81c-.536.466-.958.842-1.017.924-.136.186-1.8.903-1.904 1.08-.105.177-.197.26-.348.247-.151-.013-1.834-1.968-1.842-2.267-.008-.3-.322-.55 0-.838.036-.032.09-.072.157-.117-.08.124-.105.302.052.616.305.613 1.566 2.067 1.657 2.027l.182-.118c.219-.151.556-.397.645-.441l.38-.189c.303-.154.693-.365.836-.5l1.245-1.205c1.081-1.029 2.612-2.432 3.578-3.07l3.601-2.367c.54-.349.958-.706.954-.885-.004-.171.399-.282.638-.064Z"/>
    <path fill="#363636" d="M77.634 42.913c-4.828-2.847-7.831-4.531-9.012-5.052-1.77-.78-4.458-1.724-5.544-2.095-.723-.248-1.31-.306-1.761-.175-.232-.111-.232-.343 0-.696.348-.529 1.365-2.11 1.536-2.337.17-.226 1.713.022 3.513.756 1.8.733 6.555 3.37 7.425 3.88.871.509 2.18 1.11 2.796 1.632.41.348 1.042.924 1.894 1.73l-.847 2.357Z"/>
    <path fill="#8C8C8C" d="M66.366 33.314c.86.35 2.392 1.134 3.853 1.913l-1.484-.623c-1.791-.732-3.646-1.424-4.086-1.515L64.181 33c-.566-.096-1.154-.163-1.23-.1-.096.08-.322.481-.295.886.026.405 1.06.447.812.693-.248.245-.814-.234-1.023-.137-.209.096-.46.489-.275.552.183.063 1.409.867 1.643.92.234.053.947-.634 1.012-.513.064.12-.23.652 0 .789l.153.075c.398.18 1.255.505.793.436-.323-.049-.751-.185-1.165-.329L63.832 36c-.57-.195-2.13-.911-2.296-.977-.16-.063 1.158-2.207 1.391-2.515.349-.133 1.786.131 3.44.806Z"/>
    <path fill="#DFE5E7" d="M29.79 52.749c-.257.032-1.97.206-2.504.599-.68.013-1.775.183-1.939.568-.422.002-1.745.23-2.02.64-.513.026-1.564-.072-2.115.57-.597-.074-1.605.169-1.884.339-.38-.004-1.56.088-2.088.48-.536-.045-1.316-.02-2.117.344-.757-.036-1.98.255-2.35.752-.371.497-1.765 3.544.2 3.502 1.965-.042 18.224.01 18.795-.63.57-.641-.042-6.345-.75-6.83-.708-.486-.97-.367-1.228-.334Z"/>
    <path fill="#E4E8EA" d="m29.79 52.749.177-.027c.22-.03.5-.017 1.051.36.123.085.243.325.354.669-.5.867-1.348 1.374-2.543 1.521l-.66.07c-2.019.186-5.281.255-9.787.21a5.8 5.8 0 0 1 .946-.087c.279-.17 1.287-.413 1.884-.34.55-.641 1.602-.543 2.116-.57.274-.41 1.597-.637 2.02-.64.163-.384 1.257-.554 1.938-.567.535-.393 2.247-.567 2.504-.6Z"/>
    <path fill="#D7DDDF" d="M28.106 55.98c.222 1.528.886 2.889.686 2.977L28.69 59c-.238.081-.65.098-.917-.92-.311-1.188-.56-3.85-.757-4.362a.652.652 0 0 0-.298-.33c.2-.023.398-.036.57-.04.13-.096.333-.179.567-.25-.108.431.053 1.518.252 2.883Zm-6.597.424.07.356c.184.815.58 2.15.457 2.197a.326.326 0 0 1-.39-.198c-.324-.79-.634-2.731-.696-3.016-.08-.364-.65-.41-1.223-.435.426-.127 1.06-.235 1.485-.183a1.28 1.28 0 0 1 .262-.23c-.107.44-.037 1.05.035 1.509Zm1.998-.635c.05.64.76 2.59.697 2.923-.063.334-.316.467-.51-.208-.193-.676-.743-3.47-.814-3.722a.476.476 0 0 0-.12-.192l.568-.014c.066-.1.193-.188.354-.265-.165.291-.215.987-.175 1.478Zm2.165-.457c.138 1.106.804 3.302.655 3.335-.148.033-.366.47-.5-.003l-.061-.294c-.19-1.026-.615-4.022-.855-4.202-.186-.14-.456-.087-.708-.041.44-.125.92-.19 1.144-.191.046-.108.164-.198.325-.273-.075.345-.091.934 0 1.669Zm-6.214.873.035.168c.042.344.806 2.322.628 2.406l-.102.05c-.102.044-.163.008-.343-.406-.232-.533-.645-2.425-.956-2.66a1.357 1.357 0 0 0-.36-.191c.4-.068.781-.089.968-.087l.039-.022c-.083.177.028.496.091.742Zm-1.85 1.16c.11.58.487.997.18 1.142-.282.134-.637-1.199-.731-1.741l-.018-.118c-.032-.266-.091-.535-.2-.699l.157.002.244.014a1.51 1.51 0 0 1 .31-.171c-.098.371-.03 1.105.058 1.57Zm-2.319-1.127c-.246.18.489 1.732.34 1.861-.148.129-.405.012-.52-.157-.1-.147-.287-1.047-.371-1.626l.145-.008h.24l.166-.07Z"/>
    <path fill="#EBEBEB" d="M34.337 50.574c-.108-.124-.356-.155-.742-.093-.58.093-.925.4-1.126.489-.2.088-1.144.542-1.516.643-.372.1-.917.41-1.332.416-.415.006-.582.525-.555.795.027.27.648 3.095.28 3.804-.368.708-1.24 1.377-5.23 1.461-3.989.085-8.531-.498-9.445-.653-.913-.155-2.02-.699-2.234-.629-.216.07-.218.543-.307.629-.09.086-.733.646-1.005 1.542-.273.895-.389 4.18-.392 4.577-.003.395 15.768 1.376 23.039 1.2 7.27-.175 36.07-.746 39.378-.85 3.308-.104 10.15-1.447 10.83-1.975.678-.527-.12-6.925-.247-8.213-.128-1.287-1.67-5.93-2.325-7.874-.655-1.944-1.775-4.298-1.811-4.971-.036-.674.055-2.227.749-3.01.693-.784 1.17-1.593.951-1.814-.219-.22-1.267.33-2 .93-.49.4-1.221 1.176-2.195 2.328.37.272.577.475.62.61.065.204-.344 2.323-.62 2.823s-3.868 5.287-4.332 5.707c-.465.42-2.684 2.428-3.153 2.545-.469.117-3.796 2.4-5.804 3.357-2.008.957-4.5 2.132-6.889 2.46-2.39.326-11.089 1.35-13.299 1.554-2.21.203-8.91.588-9.535.919-.151-.685-.915-4.216-1.06-5.541-.146-1.326-.35-2.184-.174-2.477.085-.141.252-.454.731-.632.122-.045.372-.064.75-.057Z"/>
    <path fill="#C3C4CC" d="M79.297 36.978c.733-.6 1.781-1.15 2-.93.219.22-.258 1.03-.951 1.813-.694.784-.785 2.337-.75 3.01.034.632 1.021 2.74 1.685 4.603l.83 2.483c.7 2.15 1.53 4.83 1.622 5.76l.258 2.447c.229 2.335.45 5.408-.012 5.766-.679.528-7.52 1.871-10.829 1.975l-39.378.85c-7.27.176-23.042-.805-23.039-1.2l.024-.756c.047-1.134.163-3.15.368-3.821.272-.896.915-1.456 1.005-1.542.09-.086.091-.56.307-.629.195-.063 1.127.38 1.981.578l.253.05c.666.114 3.259.454 6.16.598l2.017.583c2.618.77 4.852 1.495 5.486 1.928l.772.508c1.504.953 3.195 1.776 3.883 1.095l.11-.136c.464-.706 7.14-2.54 13.177-3.93l5.09-.587a404.06 404.06 0 0 0 5.558-.687c2.39-.327 4.881-1.502 6.889-2.459 1.912-.911 5.021-3.026 5.718-3.326l.086-.031c.469-.117 2.688-2.125 3.153-2.545.464-.42 4.056-5.206 4.332-5.707.276-.5.685-2.62.62-2.822-.043-.136-.25-.34-.62-.611l.613-.712c.674-.766 1.201-1.305 1.582-1.616Z"/>
    <path fill="#CDCED6" d="m14.418 57.385.253.05c.666.114 3.259.454 6.16.598l2.017.583 1.873.565c1.762.55 3.137 1.038 3.613 1.363l.772.508.57.349c1.34.786 2.71 1.342 3.313.746l.11-.136c.274-.416 2.822-1.232 6-2.108.397-.107 1.246-.328 2.548-.663l1.65 4.22-9.525 1.296c-7.27.175-23.042-.806-23.039-1.201l.024-.756c.047-1.134.163-3.15.368-3.821.272-.896.915-1.456 1.005-1.542.09-.086.091-.56.307-.629.195-.063 1.127.38 1.981.578Z"/>
    <path fill="#DCDCE2" d="m14.418 57.385.253.05c.666.114 3.259.454 6.16.598l2.017.583 1.873.565 1.241.4c1.153.384 2.015.72 2.372.963l.772.508.57.349c1.34.786 2.71 1.342 3.313.746l.11-.136c.256-.39 2.398-1.121 5.28-1.932.01.052-.011.099-.06.142l-.554.458c-1.488 1.19-4.21 3.11-5.34 3.337-1.293.258-3.702-2.395-5.539-3.227-1.837-.833-6.382-1.227-8.518-1.3-1.85-.062-3.688-1.072-5.094-2.46.345.123.753.265 1.144.356Z"/>
    <path fill="#B8B9C2" d="M76.88 43.08c-.82 4.07-2.252 7.354-4.296 9.852-3.546 4.332-8.436 6.734-15.46 6.547-4.742-.126-9.903-.518-12.932-.906.697-.168 1.395-.333 2.084-.491l6.674-.777c1.706-.206 3.185-.39 3.974-.498 2.39-.327 4.881-1.502 6.889-2.459 1.912-.911 5.021-3.026 5.718-3.326l.086-.031c.469-.117 2.688-2.125 3.153-2.545.34-.308 2.367-2.97 3.53-4.561l.58-.806Z"/>
    <path fill="#B5BBC4" d="m81.326 45.604.784 2.353.572 1.79c.519 1.665.983 3.288 1.05 3.97l.259 2.447.105 1.147c.177 2.09.272 4.317-.117 4.62-.679.527-7.52 1.87-10.829 1.974l-5.118.11c.819-1.061 4.708-3.409 5.386-4.316.905-1.207.548-4.727 1.081-5.32l1.31-1.449c1.106-1.242 2.644-3.028 3.731-4.562l.226-.324c.69-1.012 1.209-1.822 1.56-2.44Z"/>
    <path fill="#9FA5B0" d="m83.733 53.717.258 2.447.105 1.147.058.74c.135 1.848.169 3.613-.175 3.88-.245.19-1.299.488-2.7.795.679-1.469 1.171-2.726 1.477-3.772.3-1.023.38-3.747.241-8.174l.24.821c.263.922.454 1.697.496 2.116Z"/>
    <path fill="#FAFAFA" d="M79.297 36.978c.733-.6 1.781-1.15 2-.93.05.05.063.13.047.232-.186-.003-.34.02-.463.073-.304.131-1.409 1.32-1.854 1.92-.446.599-.816 1.953-.928 2.728l-.092.64c-.08.474-.389.896-.837 1.684-.64 1.125-3.178 4.586-5.177 6.344l-.637.55c-1.833 1.538-4.738 3.186-8.682 5.104-4.134 2.01-7.128 2.095-11 2.42l-.775.063c-3.157.246-8.309.756-10.95.838l3.06-.23 1.296-.12c2.936-.302 10.429-1.187 12.62-1.487 2.389-.327 4.88-1.502 6.888-2.459 1.912-.911 5.284-3.096 5.804-3.357.52-.26 2.688-2.125 3.153-2.545.464-.42 4.056-5.206 4.332-5.707.126-.229.28-.796.404-1.364.259-.69.487-1.839.612-2.303.108-.4-.334.039-.755.44a3.868 3.868 0 0 0-.261-.206l.613-.712c.674-.766 1.201-1.305 1.582-1.616Z"/>
    <path fill="#9898A0" d="m56.234 57.965.065.06.13.15c.344.423 1.105 1.465 2.36 3.231L60.69 64.1h3.904l-4.57.097-2.992-4.213-.916-1.251a2.583 2.583 0 0 0-.22-.274l-4.44.317-5.086.404.112.331.267.733.383 1 .89 2.246.383.95-5.188.109-.544-1.738-1.195-3.635h-.13l-1.118.08c-1.822.142-5.085.43-5.957.524a3.869 3.869 0 0 1-.747.001.3.3 0 0 1 .052-.598c.157.014.303.019.438.014l.054-.006.02.09c.088-.047.3-.095.603-.144l5.17-.454c1.15-.09 1.71-.113 1.828-.068.233.088.59.989 1.347 3.353l.764 2.436h3.94l-1.17-2.945-.385-1.005c-.146-.39-.26-.704-.34-.94l-.117-.386-.02-.083c-.053-.267-.056-.407.224-.437l8.112-.629 1.133-.066c.67-.029.964-.01 1.055.052Zm14.407-6.392.256.168.527.31c.435.248 1.04.583 1.81 1.001l1.626.877.141.363c-.159.453-.582.95-1.267 1.51-1.012.828-2.235.325-2.519-.653l-.034-.126c-.026-.107-.13-.585-.157-.7-.144-.605-.288-.85-.373-.824-.559.166-.97 3.722-.164 5.324.821 1.63 2.035 1.685 3.673.422.892-.688 1.768-1.77 2.623-3.245l.32-.572.426-.11.21.115.356.163c.492.21 1.248.494 2.258.845 1.218.423 2.488 1.007 3.81 1.751l.046.722c-1.417-.826-2.768-1.46-4.052-1.906l-.816-.289-.69-.255c-.419-.159-.754-.296-1.01-.413l-.159-.077-.15.275c-.8 1.391-1.627 2.46-2.483 3.206l-.322.265c-1.905 1.467-3.558 1.394-4.576-.628-.95-1.887-.49-5.865.529-6.168.564-.168.849.223 1.069 1.03l.242 1.028c.171.59.907.892 1.563.356.434-.355.741-.672.923-.942l.045-.076-2.601-1.413-.759-.43c-.138-.08-.255-.15-.352-.208l-.289-.191-.308.171-.39.24-1.853 1.19a25.924 25.924 0 0 1-3.006 1.686c-.953.462-1.968.905-3.015 1.33l-1.239.487.11.169.411.58.606.804 1.213 1.554c.235.297.487.614.756.95l2.292 2.834-.763.016-2.17-2.69c-.247-.31-.48-.603-.697-.879L61.16 59.1c-.396-.517-.702-.93-.92-1.24l-.119-.174a3.993 3.993 0 0 1-.243-.396c-.117-.23-.16-.38.014-.496l.105-.055c-.02.008.955-.37 1.526-.6a49.824 49.824 0 0 0 2.979-1.314 25.346 25.346 0 0 0 2.216-1.196l1.073-.673 1.578-1.018c.688-.434.941-.541 1.271-.365Zm10.694-15.244c-.063.275-.308.686-.649 1.123-.358.252-.583.446-.671.577l-.235.372-.327.568c-.168.307-.299.569-.303.627l.091.223.348.752.008.3c.033.632 1.02 2.74 1.684 4.603l.057.163-3.288-1.905-.193.347c-.36.615-.765 1.228-1.215 1.839l-.465.61-.317.389-1.047 1.221c-.452.516-.816.924-.823.943.026-.072 3.604 2.083 3.597 2.085.156-.043 2.45-2.415 2.773-3.076.25-.514.535-.857.831-.944.455-.135.706.243.735.84.034.712-1.016 3.067-1.65 4.065l-.126.185.132.082c.194.114.46.252.807.422l1.877.894.188.1c.161.092.37.248.629.47l.099.897c-.397-.373-.704-.633-.917-.778l-.109-.068-.438-.221-1.312-.62-.762-.377-.365-.2a2.27 2.27 0 0 1-.365-.251c-.191-.174-.285-.408-.023-.597.302-.218 1.768-3.31 1.735-3.974l-.005-.26.009-.019-.02.015c-.08.062-.198.211-.32.428l-.091.174c-.391.801-2.803 3.296-3.153 3.392-.389.106-4.495-2.368-4.322-2.862.06-.173 1.667-1.948 2.281-2.727a20.947 20.947 0 0 0 1.634-2.38l.335-.597.415-.118 2.829 1.639-1.022-2.09c-.905-1.87-1.311-2.782-1.343-3.024l-.001-.036c.02-.273.577-1.282.966-1.857.215-.318.791-.75 1.76-1.338l.057-.026Z"/>
    <path fill="#B3B3BC" d="m32.667 51.541.308 2.503.446 2.79c.078.49.142.91.196 1.29l.173 1.236c.112.771.266 1.767.462 2.986l.376 2.31-.557.092h-.036l-.671-4.185-.398-2.746-.625-3.983-.166-1.398-.059-.448-.45.13-.466.152-1.077.395c-.054.018-.083.023-.078.013l.008.055.074 1.818.005.243c.02 1.12-.033 1.854-.218 2.226-.517 1.042-1.569 1.56-3.8 1.693-3.69.222-7.087.184-10.05-.297l-.976-.168c-1.355-.249-2.35-.505-2.997-.775l.039-.037c.068-.066.086-.357.186-.522.717.305 2.006.612 3.844.91 2.91.472 6.269.51 9.917.29 2.038-.122 2.894-.543 3.3-1.36.123-.248.173-.944.155-1.95l-.082-2.266c.001-.099.014-.056.036-.085.092-.203.497-.39 1.23-.65l.29-.1c.254-.088.499-.166.706-.226l.194-.053c.135-.035.244-.058.327-.068.24-.03.39-.019.434.185Z"/>
    <path fill="#CBCBCC" d="m32.667 51.541.308 2.503.555 3.489.047.315-.582.18-.029-.211-.625-3.983-.166-1.398-.059-.448-.45.13-.466.152-1.077.395c-.054.018-.083.023-.078.013l.008.055.074 1.818.005.243c.02 1.12-.033 1.854-.218 2.226-.517 1.042-1.569 1.56-3.8 1.693l-.687.037a64.701 64.701 0 0 1-3.628-.507c1.372.006 2.801-.04 4.278-.129 2.038-.122 2.894-.543 3.3-1.36.123-.248.173-.944.155-1.95l-.082-2.266c.001-.099.014-.056.036-.085.092-.203.497-.39 1.23-.65l.29-.1c.254-.088.499-.166.706-.226l.194-.053c.135-.035.244-.058.327-.068.24-.03.39-.019.434.185Z"/>
    <path fill="#141416" d="M10.913 60.364c-.186.024-.913.154-.913 1.636s-.041 2.137.457 2.148c.498.011 62.143.274 63.87.423 1.729.15 8.294 1.685 9.014 2.014.719.329 2.268 1.625 2.399 1.569.13-.057-.19-2.04-.527-2.855-.336-.815-.705-1.621-.75-2.092-.044-.47.32-1.739.286-1.961-.033-.223-.273-.512-.41-.502-.137.009-.205.653-2.437 1.098-2.233.445-9.749 1.205-10.205 1.226-.456.021-.349.426-.198.676.15.25-38.316.075-38.708 0-.392-.075-3.454-1.632-4.546-2.125-1.092-.494-1.61-.849-1.99-.875-.38-.027-5.077-.067-6.487-.08-1.41-.014-4.44-.073-5.786-.12-1.346-.048-2.882-.204-3.069-.18Z"/>
    <path fill="#646266" d="M10.723 62.46c.35-.213 4.606-.14 7.161.068l3.467.343c.702.075 1.332.15 1.683.214.842.154 5.752.09 7.302.38.903.17.977.566.772.786l-20.651-.103c-.327-.007-.422-.292-.448-.906.322-.43.559-.687.714-.782Zm14.71-1.673-.522-.07 1.344.027c.303.02.696.252 1.4.597l1.206.567c.84.402 2.036.994 2.896 1.397l-.553-.054a3.104 3.104 0 0 1-.178-.023c-.363-.066-3.965-1.785-4.682-2.163l-.1-.055c-.147-.088-.416-.16-.811-.223Zm59.251.273a.605.605 0 0 1 .065.186c.028.187-.271 1.237-.326 1.806l-9.084.217c1.203-.068 5.374-.234 6.247-.326 1.308-.138 2.401-.488 2.665-.873.105-.153.34-.371.394-.686l.04-.324Z"/>
    <path fill="#D3D1D6" d="M11.33 62.607c-.789.139-1.331.403-1.331 1.163s.05 1.224.133 1.472c.083.247 2.35 1.984 4.22 2.913 1.87.93 2.713 1.387 2.887 1.38.173-.01.84-.182 1.431.331.592.514 4.641 1.226 5.122 1.29.48.062 1.787.454 2.51.59.724.136 2.786.254 3.698.254h17.727c.697 0 3.091-1.043 4.217-1.018C53.07 71.007 55.392 72 56 72h23.457c1.34 0 3.721-.453 4.519-.845.797-.392 2.024-1.33 2.024-2.06s-.32-1.48-1.319-2.116c-.665-.425-1.085-.53-1.259-.316.024-.193-.167-.37-.572-.527-.607-.237-2.566-.808-5.065-1.326-2.5-.518-5.559-.81-5.81-.865-.25-.054-.315-.733-.55-.764-.233-.032-12.789-.03-16.492 0-3.702.03-20.548.288-21.575.325-1.027.038-10.191.095-11.278-.119-1.087-.213-3.958-.413-5.586-.508-1.63-.095-4.376-.41-5.164-.272Z"/>
    <path fill="#CBC9CE" d="M11.33 62.607c.736-.13 3.177.137 4.824.25l2.108.137c1.296.093 2.71.215 3.537.344l.28.05c1.018.199 8.823.183 10.7.146l-1.681 1.375c-.706.55-1.127 1.02-1.647 1.405-.467.346-.86.625-1.176.836l-.801.53c-1.335.905-2.676 1.98-2.844 2.61l-.017.138c.009.24-.257.509-.683.752l-.979-.166c-1.354-.246-3.828-.755-4.28-1.148-.593-.513-1.259-.34-1.432-.332-.174.008-1.016-.45-2.887-1.379-1.87-.929-4.137-2.666-4.22-2.913-.083-.248-.133-.711-.133-1.472 0-.76.542-1.024 1.33-1.163Z"/>
    <path fill="#F3F3F3" d="M11.424 62.594c.825-.095 3.11.15 4.69.26l2.148.14c1.296.093 2.71.215 3.537.344l.28.05c1.049.205 9.607.16 11.138.122l22.303-.333c4.284-.026 15.683-.027 15.906.004.234.031.298.71.55.764l2.06.259c1.11.145 2.5.347 3.749.606 2.067.428 3.764.893 4.632 1.175l.453.202c.2.093.358.175.467.242a.292.292 0 0 1 .085.234.271.271 0 0 1 .085-.07c.024.48-.165.115-.285-.082-.114-.186-1.765-.594-3.884-1.051l-1.05-.219c-2.407-.477-6.158-1.07-6.468-1.173-.34-.111-.515-.572-.562-.769-.02-.085-.381-.113-1.265-.11l-7.874.135c-2.804.06-5.126.166-6.853.26l-3.035.17c-.488.022-3.471.025-6.99.022l-14.885-.03c-2.76-.02-7.583-.08-8.274-.197l-.399-.058c-.306-.04-.691-.082-1.146-.127l-8.114-.737c-.35-.026-.593-.036-.8-.035l-.199.002Z"/>
    <path fill="#CCCDD4" d="m29.927 66.037 2.864-2.293c12.699-.01 19.334-.027 19.905-.054.856-.04 2.995-.307 5.833-.247 2.839.06 12.549-.185 12.641 0 .092.185.415.609.91.684.494.076 6.647 1.113 7.854 1.405.805.195 1.434.363 1.89.505H29.926Z"/>
    <path fill="#C7C6CB" d="M71.17 63.443c.092.185.415.609.91.684l4.098.699c1.464.256 2.913.52 3.58.666l.176.04c.805.195 1.434.363 1.89.505H29.926l2.864-2.293 2.304-.002c.906.645 2.332 1.378 4.08 1.484 3.009.181 10.008-.237 12.017-.028l.892.116c2.938.333 12.175.99 10.7-.27-1.424-1.219-6.642-.606-10.071-1.356l1.797-.134c.93-.067 2.12-.13 3.495-.119l1.425.017c3.576.011 11.656-.178 11.74-.009Z"/>
    <path fill="#C8C6CC" d="m27.655 67.602 1.78-1.14c.31-.159.685-.235 1.124-.23.657.007 13.958.04 18.597.027 4.639-.012 16.545-.06 18.863-.027 2.319.033 13.47-.303 13.804-.195.335.109 1.515.257 1.518.548.002.29-.13.842-.275.822-.145-.019-1.299.076-3.876.11-2.576.033-15.446.285-16.422.292-.976.006-8.183.212-10.409.164-2.225-.048-9.491-.387-13.427-.37-2.624.01-6.383.01-11.277 0Z"/>
    <path fill="#B5B2B9" d="M81.823 66.037c.335.109 1.515.257 1.518.548.002.29-.13.842-.275.822l-.4.009c-.501.02-1.476.068-3.035.094l-4.603.077-1.789-.257c-1.554-.214-3.208-.42-4.537-.572-3.026-.347-5.769.137-6.531.59l-.104.07c-.127.103-.406.249-.787.418l-4.54.101c1.184-.602 2.361-1.3 3.25-1.712l8.808.008c3.372-.022 12.719-.295 13.025-.196Zm-51.264.195 10.735.026 1.168.07c1.486.105 2.627.244 3.112.43l1.635.627c.398.151.813.306 1.235.457l-3.569-.125a209.897 209.897 0 0 0-5.219-.114H27.655l1.78-1.141c.31-.159.685-.235 1.124-.23Z"/>
    <path fill="#A7A4AC" d="m30.24 67.536-.111.065-2.474.001 1.78-1.14c.31-.159.685-.235 1.124-.23l7.849.02-1.166.087c-4.089.33-6.165.752-7.002 1.197Z"/>
    <path fill="#9B97A5" d="M81.823 66.037c-7.665.347-12.553.513-14.665.497l-1.125-.019c-2.215-.058-4.48-.02-6.1-.285l8.865.003c3.372-.022 12.719-.295 13.025-.196Z"/>
    <path fill="#B1B1B9" d="m19.763 63.552.477.064c2.497.273 9.632.708 9.97.804.365.104-2.791 2.174-4.338 3.187l-.9.58c-1.324.835-2.672 1.605-3.002 1.5l-2.089-.677c-1.54-.513-3.634-1.243-5.274-1.94l-.845-.373c-2.158-.988-3.515-1.89-3.734-2.061l-.02-.338a11.339 11.339 0 0 1-.006-.196c-.008-.689.077-.95.588-1.185 1.243-.57 7.269.312 9.173.635Z"/>
    <path fill="#ABABB2" d="m19.932 63.895.477.063.574.054c.316.026.67.05 1.053.072-1.779 1.032-3.472 2.334-5.082 3.904a50.166 50.166 0 0 1-2.347-.918l-.845-.373c-2.158-.988-3.515-1.89-3.734-2.061l-.02-.338a11.339 11.339 0 0 1-.006-.196c.096-.365.404-.798 1.243-.859 1.43-.103 6.782.329 8.687.652Z"/>
    <path fill="#A1A1A9" d="m17.464 63.59-.023.01a18.033 18.033 0 0 0-4.297 2.801l-.729-.362c-1.37-.704-2.218-1.27-2.387-1.403l-.02-.338a11.339 11.339 0 0 1-.006-.196c.096-.365.404-.798 1.243-.859l.495-.015c1.267-.006 3.718.162 5.724.362Z"/>
    <path fill="#8C8C93" d="m16.86 69.02.85.188c.359.087.752.2 1.016.335l.17.105c.423.328 3.81.95 4.638 1.05l.266.004c2.462-.045 19.803-1.3 29.325-1.068l16.939.482c6.22.196 11.236.417 11.072.678-.309.49-.209.662.78.488.712-.125 2.397-.618 3.497-1.152a5.833 5.833 0 0 1-1.437 1.025c-.736.362-2.822.776-4.192.837l-.327.008H56c-.608 0-2.93-.993-4.056-1.018-1.04-.023-3.16.864-4.028 1l-.19.018H30l-.665-.013c-1.018-.035-2.454-.132-3.033-.241-.632-.12-1.712-.434-2.294-.553l-1.388-.24c-1.392-.263-3.532-.724-3.95-1.087-.592-.513-1.258-.34-1.431-.332-.174.008-1.016-.45-2.887-1.379a17.23 17.23 0 0 1-1.389-.782l3.334 1.425c.287.118.474.192.563.222Z"/>
    <path fill="#390A0F" d="M26.965 67.825c-.224.065-1.682 1.07-1.8 1.215-.079.096-.079.207 0 .334-.18-.056-.326-.056-.436 0-.165.083-1.179.566-1.22.899-.043.333.79.703 1.993.95 1.202.247 4.495.625 4.767.608.272-.016.434-.35.445-.3.01.05.513.361.859.432.346.071 5.554.037 5.812.037s.638-.47.818-.47c.18 0 .529.478.8.478h5.925c.187 0 .5-.396.586-.353.087.043.182.353.427.353h1.706c.343 0 2.622-.896 3.81-.966 1.187-.07 2.026-.055 2.707.181.682.236 2.07.75 2.507.777.436.026 4.49 0 4.704 0 .215 0 .602-.497.64-.402.037.094.118.402.254.402h6.357c.264 0 .605-.33.654-.345.05-.016.186.363.329.363h5.512c.224 0 .382-.36.44-.363.057-.003.166.345.338.345h2.258c.587 0 1.736-.079 2.492-.445.755-.367 1.027-.81 1.055-1.071.029-.26.494-.259.683-.322.188-.063.72-.77.765-1.514.046-.743.143-1.082 0-1.11-.143-.027-3.517.203-7.153.287-3.636.083-11.102.131-11.847.148-.744.016-4.608.025-6.188.025s-4.59.222-5.948.222c-1.358 0-4.204-.177-5.987-.247-1.783-.071-7.171-.132-9.07-.132-1.898 0-9.668-.057-9.994-.016Z"/>
    <path fill="#850610" d="M27.08 67.998c-.351.112-1.683 1.02-1.6 1.243.084.223 2.448.366 6.958.455 4.51.09 8.565.362 10.52.476 1.953.113 4.31.293 7.566.249 3.256-.045 13.248-.011 16.263 0 3.015.01 14.136.035 15.002-.168.865-.203 1.042-.8 1.112-1.209.07-.408.202-1.222.12-1.232-.08-.01-16.437.064-18.776.104-2.34.04-5.95.263-8.053.365-2.102.102-7.643-.063-9.296-.126-1.653-.062-7.6-.105-9.529-.096-1.93.01-9.934-.173-10.286-.061Z"/>
    <path fill="#943539" d="M26.04 68.673c-.167.281-.598.49 1.138.51 1.737.02 2.925.03 3.34-.053.414-.082-.423-1.016-.038-.975.385.042.488-.078.53 0 .043.08.654 1.21.728 1.224.075.015.918-1.277 1.03-1.308.11-.031.767-.092.714 0-.052.091-.424.773-.443.912-.02.138 3.647.057 4.152.063.504.006.678.059.568-.144-.109-.202-.422-.685-.28-.747.142-.061.559-.165.639-.084.08.08.666 1.048.768 1.187.1.138.337.271.476-.073.139-.345.508-.996.602-1.03.095-.033.942-.06.814.052-.127.113-.35.602-.343.776.006.173.136.2.583.202.447.002 3.92.006 4.052.002.134-.005-.179-.802-.245-.91-.067-.109.531-.114.584-.07.052.044.689 1.238.816 1.39.127.154.46-.364.725-.787.265-.423.62-.344.816-.311.196.032-.43.89-.274.88a49.68 49.68 0 0 1 3.705 0c1.794.073 10.106.028 10.392-.007.287-.034-.209-.867-.27-.973-.06-.106.52-.124.646 0s.824.981.962 1.199c.138.217.468-.044.704-.411.236-.368.323-.747.588-.788.265-.042.586.026.444.411-.142.385-.167.536.676.503.843-.034 3.311.04 3.429-.055.117-.096-.716-1.08-.51-1.103.205-.022.69-.11.88.121.19.231.435.96.511.982.077.02.773.086.993.055.22-.031.634-.975.75-1.037.117-.061.79-.118.728 0-.063.119-.413 1.008-.269 1.037.145.028 3.416.062 3.398-.055-.018-.118-.881-1.037-.671-1.05.21-.015.574-.23.67 0 .097.228.728.912.884 1.105.155.192.576.842.842.173.266-.67.413-1.419.671-1.415.258.004.586.008.385.534-.202.526-.26.747 0 .708.26-.04 2.274-.07 2.274-.126 0-.057-.694-.947-.468-1.032.225-.084.757.754.905.89.15.138.132.442.713 0 .58-.44.865-.86.99-1.047.126-.187.373-.068.095.4-.278.469-.557.596-.716.789-.158.192-.312.299-.235.299.077 0 .785-.286.95-.584.166-.297.325-.183.246.144-.08.326-.286.838-.528.955-.242.116-.197.348-.433.348-.235 0-2.453.079-4.849.079-2.396 0-13.68-.064-16-.08-2.319-.014-11.937.045-15.281 0-3.344-.044-5.022-.536-9.465-.57-4.444-.035-9.045-.226-10.155-.346-.357-.038-.617-.072-.627-.234-.02-.341.708-.715.595-.525Z"/>
    <path fill="#641F25" d="M81.449 70.517c.053.096-.096.44-.62.66-.525.22-4.323.28-4.464.276-.14-.004-.412-.584-.562-.468-.15.117-.525.555-.666.573-.14.017-.363-.006-.3-.105.062-.1-3.816.008-4.023 0-.207-.008-.248.313-.585.256-.337-.058-.612-.645-.746-.592-.134.052-.68.485-.903.673-.224.187-.376-.043-.2-.232.174-.19-4.688-.049-4.97 0-.281.048-.32.264-.563.15-.243-.113-.537-.81-.668-.723-.132.088-.609.682-.842.805-.234.122-.127-.158-.164-.337-.037-.179-4.644.105-5.475-.064-.83-.17-2.269-.566-3.203-.565-.934 0-2.384.2-3.381.501-.998.302-2.134.503-2.373.555-.24.052-.685-.44-.8-.555-.115-.116-.921.529-1.078.555-.158.026-.75.053-.66-.143.09-.196-4.016-.186-4.397-.18-.38.007-.33.336-.62.152-.291-.184-.606-.996-.81-.885-.204.11-.825.9-1.12.913a.342.342 0 0 1-.37-.412c.04-.174-4.075.03-4.407 0-.33-.03-.254.392-.65.128s-.684-1.1-.926-.936c-.242.165-.338.881-.663.872-.325-.01.067-.355-.973-.272-1.04.082-3.036.023-3.82-.132-.786-.154-1.741-.272-1.554-.557.188-.285 1.195-.903 1.28-.923.086-.02 1.299.226 2.247.272.95.047 3.722.13 4.004.16.282.029.214.161.405.17.191.008 6.077-.007 6.308 0 .232.007.653-.004.783.107.13.11 4.171.294 4.922.303.751.01 2.445.096 3.65.085 1.204-.012 9.565-.165 11.736-.174 2.17-.01 13.396.16 14.432.174 1.035.014 7.736-.18 7.789-.085Z"/>
    <path fill="#A7A5AC" d="M83.68 66.688c-.308.42-.434.694-.378.823.05.815-.08 1.517-.265 1.946-.347.807-.739.766-1.163.924-.16.403-.427.75-.8 1.042-.334.191-.464.29-.39.294.11.006 2.199-.212 2.937-.46.739-.249 1.933-1.307 2.105-1.666.172-.359.26-.563-.013-1.235-.13-.32-.534-.821-1.174-1.254-.168-.114-.455-.252-.859-.414Z"/>
    <path fill="#C3C1C6" d="M84.613 67.153c.597.42.975.895 1.1 1.203.273.672.185.876.013 1.235-.157.326-1.158 1.23-1.893 1.579l-.142.057c.409-.324.73-.635.965-.93.612-.77.62-1.772.023-3.008l-.066-.136Z"/>
    <path fill="#1E151A" d="M70.889 53.374c-.305 0-.66.574-.837 1.388-.178.815-.169 2.869.408 4.195.576 1.327 1.69 1.425 2.234 1.254.545-.172 2.906-1.991 3.512-2.985.606-.995 3.255-4.532 3.547-5.153.292-.621 1.808-3.763 1.782-4.073-.027-.31-.046-.547-.213-.48-.168.066-2.991 3.463-3.438 4.135-.448.672-2.142 2.23-2.434 2.278-.293.05-.378.209-.541.463-.163.255-1.337 1.885-2.579 1.648-1.242-.236-1.137-2.67-1.441-2.67Z"/>
    <path fill="#D8D8D8" d="M71.258 54.81c.525 1.409 1.37 1.753 2.537 1.03 1.75-1.082 4.63-4.628 5.232-5.402.601-.774 1.545-1.789-.179.45-1.723 2.24-3.737 4.514-4.907 5.195-1.17.682-1.768.442-2.137.03-.247-.274-.428-.709-.546-1.303Z"/>
    <path fill="#48363B" d="M70.46 58.327c.14.287.83 1.6 1.898 1.438 1.066-.16 3.163-2.226 4.51-3.989 1.346-1.763.484-.244-.552 1.05-1.035 1.294-2.674 2.815-3.577 3.134-.903.32-1.283-.009-1.827-.629-.545-.62-.592-1.292-.452-1.004Z"/>
  </g>
</svg>
