<svg xmlns="http://www.w3.org/2000/svg" viewBox="0 0 96 96">
  <defs>
    <path id="a" d="M0 0h96v96H0z"/>
  </defs>
  <g fill="none" fill-rule="evenodd">
    <path fill="#E4E2DE" d="M55.783 35.393c1.091.508 3.445 2.475 3.7 2.892.17.278.17.544 0 .796 1.461 1.048 2.305 1.743 2.53 2.088.339.517.265 2.218.094 2.673-.171.456-.253.647-.115.8.139.152 2.499 1.56 4.611 1.576 2.113.014 3.187-.212 4.031-2.376.845-2.164 1.554-4.148 2.439-4.476.59-.219.95-.203 1.078.048.439-.245.91-.157 1.412.263.503.42.868.774 1.097 1.06.357-1.36.772-2.317 1.243-2.872.708-.833 2.162-1.565 3.259-.572 1.096.994.91 2.465.196 3.523-.713 1.058-2.306 1.937-2.484 2.41-.179.473-.301.714-.292.94.01.227.113.663.292.747.178.084.268.13.457.562.19.431.804 1.878 1.03 2.889.225 1.01.501 2.156.515 2.51.009.237.009.58 0 1.03v4.065c-8.3 1.225-13.741 2.15-16.325 2.773-3.875.935-13.507 2.945-17.435 4.106-3.928 1.162-16.093 3.025-25.058 2.41-8.965-.615-10.225-1.037-10.723-1.18-.332-.096-.539-.506-.619-1.23-.128-1.394.662-2.65 2.37-3.765 2.561-1.673 3.468-2.093 4.228-2.27.761-.175 10.19-3.75 11.231-4.15 1.042-.397 1.68-1.258 2.123-1.45.442-.192 1.45-.758 1.657-.946.209-.188.078-.574.5-.755.282-.12.566-.102.852.055.896-.49 1.464-.816 1.705-.976.36-.24.399-1.187.915-1.367.517-.18.881.149 1.12 0 .24-.15 2.322-1.453 2.8-1.864.319-.275.586-.498.803-.67.576-.926 1.048-1.415 1.417-1.464.553-.073.98-.068 1.179-.199.197-.131.745-.236.844-.342.099-.105 1.072-.935 1.154-1.24.082-.304.188-1.128.625-1.254.437-.126.462-.31.877-.267.415.042.786.265 1.014 0 .227-.265 2.027-1.564 2.113-1.639.086-.074-.23-.898.162-1.232.261-.224.555-.329.882-.316 1.362-.981 2.205-1.51 2.528-1.59.485-.116.876-.261 1.968.246Zm22.312 2.987c-.49.8-.895 1.536-.916 2.328-.025.268-.165.34 0 .698.166.358.4.54.525.93.084.261.195.638.334 1.13.34-.427.636-.75.888-.968.378-.327 1.82-1.57 2.007-2.268.188-.698.313-2.688-.77-2.861-1.082-.173-1.578.211-2.068 1.01Z"/>
    <path fill="#DBD9D6" d="M59.177 43.721c-1.307-.321-2.19-.354-2.652-.098-.692.383-2.714 1.481.405 3.117 3.12 1.636 12.439 1.286 14.275-.03 1.836-1.315 1.547-1.509 1.814-3.37.178-1.242.682-2.222 1.511-2.943 3.698 6.217 3.89 9.723.575 10.519-4.971 1.192-21.504 2.932-22.88-1.269-1.378-4.2-2.344-6.69 0-7.828 2.342-1.139 3.264-1.074 3.891-.685.419.26 1.439 1.122 3.06 2.587Z"/>
    <path fill="#DCDAD6" d="m32.603 51.973 1.826-.216c1.41-.154 2.612-.199 2.99.326.536.743.094 6.067-1.862 6.79l-1.1.414c-1.875.69-4.424 1.426-8.19.514l-1.175-.276c-3.693-.843-5.25-.928-7.1-1.146a17.908 17.908 0 0 1-2.848-.586c.969-.565 1.529-.806 1.998-.936l.172-.043c.338-.078 2.385-.827 4.648-1.67l-.894.598c-.523.367-.712.553-.569.556l3.72.024c1.475.017 3.038.055 3.996.136l1.28.138c1.768.186 3.854.273 4.987-1.084 1.36-1.63.515-1.165 0-1.08-.515.085-2.7-.213-2.452-1.032.165-.546.366-.858.604-.936-1.665.294-2.97.335-3.916.124l-.173.076c.733-.28 1.266-.79 1.672-1.133.647.402 1.443.547 2.386.442Z"/>
    <path fill="#B1B1B1" d="M78.874 44.913c.152.072.24.116.382.399l.233.532c.262.624.691 1.711.872 2.52l.393 1.765c.069.335.116.604.122.746l.006.39c0 .154 0 .328-.004.526-.136.008-.207-.007-.217-.043l-.497-2.487c-.084-.4-.166-.772-.236-1.045-.206-.81-.793-2.498-1.066-3.314l.012.01Zm1.793-7.944.069.03c.146.073.289.17.426.294 1.096.994.91 2.465.196 3.523-.713 1.058-2.306 1.937-2.484 2.41l-.217.563a1.02 1.02 0 0 0-.075.378l.008.04-.23-.323c-.116-.17-.22-.351-.24-.527l-.082.11a8.67 8.67 0 0 1 .732-.825l.655-.586c.572-.523 1.372-1.318 1.508-1.826.188-.698.313-2.688-.77-2.861-.385-.062-.697-.053-.96.02a2.01 2.01 0 0 1 1.464-.42Z"/>
    <path fill="#CBCAC6" d="M75.775 39.859c.438.395.732.687.885.878.214.217.354.312.52.67.165.357.399.54.524.93l.254.847.08.282c.248.273.657 1.363.836 1.447.152.072.24.116.382.399l.233.532c.262.624.691 1.711.872 2.52l.393 1.765c.069.335.116.604.122.746l.006.335c.001.192-.001.424-.006.693v4.066l-3.382.506c-6.414.977-10.729 1.732-12.943 2.267l-1.785.416c-4.28.978-11.47 2.517-15.106 3.534l-.544.156c-.375.111-.826.229-1.342.35l.042.121c-.879-2.465-3.724-7.365-3.23-9.875.33-1.674 1.54-3.68 3.628-6.02 4.03-3.113 5.488-2.107 8.887-.407 3.4 1.7 8.895 1.427 11.896.978 3.001-.449 5.908-1.328 6.127-2.538.25-1.383-.275-5.274 1.757-5.603.232-.037.536-.035.894.005Z"/>
    <path fill="#B3B2B2" d="M79.098 37.425c.486-.4.994-.51 1.47-.497.205.074.405.194.594.365 1.096.994.91 2.465.196 3.523-.713 1.058-2.306 1.937-2.484 2.41l-.217.563a1.02 1.02 0 0 0-.075.378c.01.226.113.662.292.746.152.072.24.116.382.399l.233.532c.262.624.691 1.711.872 2.52l.393 1.765c.069.335.116.604.122.746l.006.335c.001.192-.001.424-.006.693v1.907c-3.193.434-5.71-3.84-5.523-5.709.195-1.948-.118-5.215-.23-6.342-.113-1.128.342-1.925.785-1.79a6.9 6.9 0 0 1 .752.768l.017-.068.424.463a.74.74 0 0 0 .078.274c.166.358.4.54.525.93l.254.848.08.282a8.67 8.67 0 0 1 .732-.824l.655-.586c.572-.523 1.372-1.318 1.508-1.826.188-.698.313-2.688-.77-2.861-.393-.063-.709-.052-.975.025l-.09.03Z"/>
    <path fill="#E4E0DC" d="M55.783 35.393c1.091.508 3.445 2.475 3.7 2.892.17.278.17.544 0 .796l.68.495c1.046.775 1.663 1.306 1.85 1.593.339.517.265 2.218.094 2.673l-.128.351a.985.985 0 0 0-.056.24c-.218.433-.35.75-.395.948-.144.625-2.065-.387-4.61-1.428-2.412-.987-5.483-.399-8.024 1.16l-.419.268c-2.617 1.758-13.77 6.813-15.295 6.818l-3.8.011c.573-.401.978-.863 1.288-.997.442-.192 1.45-.758 1.657-.946.209-.188.078-.574.5-.755.282-.12.566-.102.852.055l1.296-.726c.182-.107.318-.19.409-.25.36-.24.399-1.187.915-1.367.517-.18.881.149 1.12 0l1.452-.926c.565-.368 1.127-.748 1.348-.938l.631-.53.172-.14c.576-.926 1.048-1.415 1.417-1.464l.722-.078c.134-.016.248-.035.339-.066l.118-.055c.197-.131.745-.236.844-.342l.495-.46c.293-.28.614-.61.66-.78l.118-.497c.09-.327.233-.678.506-.757.437-.126.462-.31.877-.267.415.042.786.265 1.014 0 .227-.265 2.027-1.564 2.113-1.639.086-.074-.23-.898.162-1.232.261-.224.555-.329.882-.316l.924-.651c.827-.567 1.362-.88 1.604-.938l.26-.063c.39-.086.815-.107 1.708.308Z"/>
    <path fill="#C8C8C8" d="M59.483 38.285c.17.278.17.544 0 .796l.68.495.633.48c.666.519 1.071.89 1.218 1.113.338.517.264 2.218.093 2.673l-.128.351a.985.985 0 0 0-.056.24l-.23.486c-.061.141-4.987-3.698-5.575-3.768-1.466.999-2.416 1.353-2.85 1.062l-2.671-1.786c.357-.801-.316-1.814-.148-2.51.142-.584 1.377-1.014 1.939-1.266.677-.303 6.014 1.392 6.884 1.4.11.1.178.18.21.234Z"/>
    <path fill="#C1C1C0" d="M59.272 38.05c.11.102.178.181.21.235.17.278.17.544 0 .796l.316.229c-.395.017-.7.38-.914 1.087-.367 1.213 1.525 2.23 1.59 3.578l-.006.13-2.133-1.543c-1.042-.744-1.98-1.383-2.217-1.41l-.197.13-.018-.034c-.7-1.351-.56-2.808 1.197-3.67l1.222.304c.442.102.78.167.95.169Z"/>
    <path fill="#EBEBEB" d="M55.783 35.393c1.091.508 3.445 2.475 3.7 2.892.158.26.169.51.03.747l.051.11c-.187-.41-.407-.61-.663-.596-.382.02-1.397 1.357-2.437 2.898-1.04 1.54-6.3-2.079-5.85-3.42.129-.387.332-.815.607-1.284l.066-.003.924-.651.565-.377c.51-.33.857-.517 1.039-.561l.26-.063c.39-.086.815-.107 1.708.308Z"/>
    <path fill="#1D1D1D" d="M55.006 35.557c.137.046-.62.323-.298.632.32.31 3.107 1.225 3.368 1.36.26.133-.01.183-.677-.09-.667-.274-2.408-.52-2.913-.576-.505-.056-1.048-.245-.785-.694.263-.448 1.17-.678 1.305-.632ZM51.953 37.992c.45-.587.903-.854 1.36-.802.686.078.878.35.945.657.066.307-.123.774-.265.949-.095.116-.18.21-.256.28l.148.15.93-1.06.528.431-.783.907.186.1.447-.454.867-.053.374.237-.725.977-.154.14-2.41-1.58c.224-.339.345-.555.363-.65.026-.141-.195-.387-.415-.374-.22.013-.557.372-.581.416a.26.26 0 0 1-.09.087l-.469-.358Z"/>
    <path fill="#E5E5E5" d="m45.564 46.652.246-.2c1.337-1.132 4.776-4.517 5.686-2.138.972 2.543 4.402 5.338 7.965 6.322 3.563.984 8.583 1.2 13.226 1.257 4.172.051 5.231 1.888 5.61 4.462l-3.842.592c-4.758.751-8.06 1.35-9.904 1.795l-1.785.416c-4.28.978-11.47 2.517-15.106 3.534l-.544.156c-3.928 1.162-16.093 3.025-25.058 2.41l-3.322-.246c-5.98-.481-6.973-.811-7.401-.934-.332-.096-.539-.506-.619-1.23-.128-1.394.662-2.65 2.37-3.765l.796-.513c1.6-1.018 2.422-1.44 3.037-1.645.275.119.573.176.89.175l2.64-.058c1.24-.019 2.647-.018 3.628.058 1.963.15 7.676 1.536 9.753.211 1.384-.883 1.93-2.725 1.639-5.524l4.005-1.932c3.512-1.716 5.542-2.784 6.09-3.203Z"/>
    <path fill="#DEDEDE" d="m51.405 44.111.09.203c.973 2.543 4.403 5.338 7.966 6.322 2.155.595 4.844.91 7.66 1.078.743.605 1.077 1.325.727 2.207-.551 1.392-3.367 3.555-6.905 5.65l-6.64 1.492c-2.547.583-4.97 1.161-6.643 1.629l-.544.156c-2.312.684-7.48 1.611-13.17 2.133a94.77 94.77 0 0 1-3.115-.546l1.32-.472c5.538-2.03 8.66-3.868 9.367-5.516 1.141-2.662-.063-9.084 1.304-10.246l.053-.042 1.066-.557c.837-.446 1.378-.763 1.623-.95l.246-.2 1.06-.921c.103-.09.21-.18.32-.271l.899-.535c.887-.516 1.719-.963 2.35-1.24.4.008.738.19.966.626Z"/>
    <path fill="#D5D5D5" d="M59.46 50.636c3.564.984 8.584 1.2 13.227 1.257 4.172.051 5.231 1.888 5.61 4.462l-3.842.592-2.258.363c-3.086.506-5.411.932-6.977 1.278l-2.454.57-7.302 1.64c-2.958.67-5.879 1.355-7.804 1.894l-.544.156c-1.824.54-5.425 1.23-9.657 1.754l-.907-.075c4.947-1.623 7.857-3.588 8.73-5.894 1.267-3.348.294-7.339 4.747-9.645l.464-.225c.648-.295 1.642-.905 2.892-1.71 1.562 1.577 3.792 2.952 6.076 3.583Z"/>
    <path fill="#BDBDBD" d="M41.118 57.44c.449 1.579 1.719 2.335 3.224 2.607 1.505.271 3.6.071 2.73 1.465-.58.93-.925 1.525-1.032 1.785l19.012-11.324c-2.102-.617-3.564-.937-4.387-.961-1.234-.037-5.992.806-8.86 1.783-2.869.978-4.319 1.185-5.505 1.093-.791-.062-1.653-.521-2.585-1.379-2.03 2.236-2.897 3.88-2.597 4.932Z"/>
    <path fill="#CCC" d="m36.783 51.152-.327.172.042.27a10.042 10.042 0 0 1-.468 4.46l-.202.553c-.545 1.387-1.902 2.064-3.8 2.226-.687.059-1.387.049-2.149-.012l-.584-.056a96.043 96.043 0 0 1-.714-.082l-.615-.095c-.676-.11-1.662-.28-1.926-.322-2.188-.343-4.21-.656-6.14-.557-1.326.069-3.16-.087-4.15-.257l.456-.231c.069-.034.135-.064.199-.093l.563.019c.734.011 1.734-.014 2.982-.078 1.708-.088 3.41.016 5.27.268l1.33.203 1.79.298.437.062.604.07c.949.102 1.78.134 2.58.066 1.626-.14 2.714-.681 3.123-1.721.596-1.518.804-3.038.627-4.567l-.012-.074 1.084-.522Z"/>
    <path fill="#C1C1C1" d="M50.973 43.63c.572 1.18 1.193 2.193 1.862 3.039 1.514 1.91 4.877 3.839 7.788 4.418 2.03.405 4.172.791 6.428 1.161a.4.4 0 0 1-.13.79c-2.264-.371-4.416-.76-6.455-1.166-3.09-.615-6.621-2.64-8.258-4.707-.794-1.002-1.385-1.918-1.774-2.752l-.158-.365-4.308 2.27.869-.76c1.312-1.127 3.13-2.529 4.136-1.929Z"/>
    <path fill="#D4D4D4" d="M20.923 59.801c4.263.25 7.566 1.854 9.908 4.81-.814.263-1.608.504-2.384.723-2.203.075-4.377.062-6.39-.076l-3.32-.246-2.945-.262c-3.4-.34-4.112-.573-4.457-.672-.332-.096-.539-.506-.619-1.23-.128-1.394.662-2.65 2.37-3.765l.71-.459c1.22.578 3.595.97 7.127 1.177Z"/>
    <path fill="#C8C8C8" d="M14.165 61.616c2.722.295 6.203.496 7.968.94 1.176.297 2.594.923 4.253 1.879a92.449 92.449 0 0 1-5.205.76l-2.445-.183-2.944-.262-1.246-.133c-2.34-.267-2.913-.453-3.211-.54-.332-.095-.539-.505-.619-1.229-.081-.887.209-1.718.87-2.492.44.702 1.299 1.122 2.579 1.26Z"/>
    <path fill="#929292" d="M43.986 49.948c.272.078-.941 3.653 2.222 4.346 3.162.693 16.212-3.727 18.475-4.505 2.264-.778 4.556-1.43 5.231-.616.676.813-2.991 2.488-5.888 3.78-2.897 1.292-12.373 4.6-14.68 5.615-2.308 1.015-6.28 1.567-7.93.18-1.651-1.386-1.112-3.98-.154-5.57.958-1.59 2.452-3.31 2.724-3.23Z"/>
    <path fill="#E9E9E9" d="M43.813 49.961c.272.08-.78 3.898 2.382 4.59 3.163.693 16.213-3.726 18.476-4.504 2.264-.779 4.582-1.487 5.243-.874.662.613-2.928 2.297-5.825 3.588-2.897 1.292-12.373 4.6-14.68 5.616-2.308 1.015-6.28 1.567-7.93.18-1.65-1.387-1.112-3.981-.154-5.571.959-1.59 2.217-3.103 2.488-3.025Z"/>
    <path fill="#DCDCDC" d="M69.914 49.173c.662.613-2.928 2.297-5.825 3.588-2.69 1.2-11.053 4.138-14.081 5.365l-.6.25c-2.232.983-6.023 1.531-7.762.31.163-.376.667-.75 1.658-1.083l.348-.11c1.994-.587 3.81-1.61 5.446-3.067 4.701-.745 12.648-3.383 15.139-4.23l1.233-.42c1.988-.656 3.861-1.144 4.444-.603Z"/>
    <path fill="#D1D1D1" d="M69.914 49.173c.662.613-2.928 2.297-5.825 3.588-2.69 1.2-11.053 4.138-14.081 5.365l-.6.25c-.39.173-.83.331-1.296.47 1.013-1.317 1.995-2.32 2.945-3.018l1.655-1.246a289.47 289.47 0 0 0 1.788-1.378c2.91-.788 5.913-1.74 7.958-2.414l3.012-1.013c1.988-.657 3.861-1.145 4.444-.604Z"/>
    <path fill="#CDCDCD" fill-rule="nonzero" d="m69.16 49.597-.064-.179c-.674.011-1.961.33-3.79.942l-.472.16a177.728 177.728 0 0 1-7.757 2.475l-1.17.337-1.292.358c-4.373 1.183-7.197 1.641-8.527 1.35-1.423-.312-2.287-1.212-2.602-2.622a5.37 5.37 0 0 1-.108-.68l-.026-.467-.178.105-.019.007-.234.149c-.299.389-.606.826-.89 1.267l-.277.444c-1.112 1.845-1.134 3.94.046 4.931 1.194 1.003 4.413.922 7.017-.093l1.659-.685 10.112-3.772 1.672-.646c.356-.14.668-.267.944-.381l.68-.292 1.475-.667c1.181-.546 2.039-.973 2.733-1.362l.535-.314c.16-.099.3-.192.421-.278l.112-.087Zm-.689.09.277-.041-.228.148c-.078.048-.161.098-.25.15l-.276.158c-.948.53-2.206 1.136-4.19 2.02l-.415.18c-.668.284-1.585.646-2.872 1.135L50.403 57.21l-1.66.685c-2.542.991-5.69 1.07-6.814.126-1.091-.917-1.07-2.905-.004-4.674l.275-.441.287-.433.295-.42.382-.509-.009-.161c.015.389.056.723.136 1.079.331 1.484 1.254 2.444 2.755 2.773 1.501.33 4.766-.253 9.915-1.711l1.171-.337c1.9-.556 3.869-1.174 5.822-1.822l2.415-.816.95-.306c.893-.276 1.616-.462 2.152-.556Z"/>
    <path fill="#F5F5F5" d="M47.781 61.85c.337-.947.702-1.567 1.095-1.86.59-.44.66-1.25 1.414-2.194.755-.945 2.019-1.566 4.4-2.696 2.382-1.13 8.667-3.832 10.238-4.465 1.572-.633 8.385-3.697 9.24-3.894.857-.197 2.24-.604 3.612.316 1.372.92 3.034 4.243 3.278 5.369.163.75.237 1.733.221 2.947-7.54 1.217-12.86 2.157-15.958 2.821-3.098.664-8.944 1.883-17.54 3.656Z"/>
    <path fill="#D1D1D1" d="M47.793 62.271c.362-1.074.74-1.758 1.133-2.051.59-.44.743-1.081 1.498-2.026.755-.944 1.93-1.691 4.311-2.821 2.382-1.13 8.667-3.832 10.238-4.465 1.572-.633 8.385-3.697 9.24-3.894.857-.197 2.24-.604 3.612.316 1.372.92 3.016 4.57 3.233 5.096.145.35.219 1.333.221 2.947-7.54 1.217-12.86 2.157-15.958 2.821-3.098.664-8.94 2.023-17.528 4.077Z"/>
    <path fill="#C6C6C7" d="M77.825 47.33c1.372.92 3.016 4.57 3.233 5.096.145.35.219 1.333.221 2.947l-4.414.723c-1.376.229-2.656.446-3.839.651 3.013-1.846 2.462-6.525 1.56-7.01-.902-.486-.781-.458-7.704 2.495l-2.346 1.007c-8.5 3.67-2.497 4.316 3.722 3.91l.612-.044c.798-.06 1.323-.024 1.628.088l-1.36.249c-1.301.241-2.421.46-3.362.656l-3.782.836c-3.333.758-8.067 1.87-14.2 3.337.316-.94.645-1.581.985-1.923l.147-.128c.59-.44.743-1.081 1.498-2.026.704-.882 1.775-1.59 3.85-2.6l.461-.221c2.175-1.032 7.603-3.374 9.727-4.255l.962-.397c2.133-.9 8-3.525 8.79-3.707l.617-.14c.831-.17 1.916-.267 2.994.456Z"/>
    <path fill="#BFBFC1" d="M77.825 47.33c1.372.92 3.016 4.57 3.233 5.096.145.35.219 1.333.221 2.947l-2.417.394c-.027-3.447-.576-5.896-1.646-7.348-.795-1.078-1.95-1.496-3.466-1.253l.383-.13a1.4 1.4 0 0 1 .08-.022l.618-.14c.831-.17 1.916-.267 2.994.456Z"/>
    <path fill="#B3B2B2" fill-rule="nonzero" d="m66.569 51.488 4.957-2.18c3.3-1.427 4.722-1.828 5.56-1.385 1.05.555 2.464 2.656 3.346 4.524.387.818.66 1.89.824 3.216a.4.4 0 0 1-.794.098c-.154-1.248-.407-2.24-.753-2.972-.807-1.71-2.157-3.715-2.996-4.159-.518-.273-1.976.17-4.902 1.428l-13.74 6.018c-3.262 1.443-5.27 2.365-5.595 2.584-.524.352-1.182 1.27-1.936 2.739a.4.4 0 0 1-.712-.365c.812-1.583 1.534-2.59 2.202-3.038l.151-.09c.613-.341 2.505-1.207 5.508-2.536l8.88-3.882Z"/>
    <path fill="#737373" d="M48.134 61.42c.153-.029 1.762-.988 2.38-1.272.618-.284 2.37-.646 4.095-1.096 1.725-.45 11.07-2.311 14.721-2.845 2.435-.357 4.603-.553 6.504-.59l3.028.835C65.365 58.91 56.931 60.406 53.56 60.94c-5.057.801-5.578.509-5.426.48Z"/>
    <path fill="#F4F2F2" d="M53.98 39.025c.834.336 2.56 1.375 3.488 2.13l.253.217c.826.756 3.863 2.808 4.202 3.062a.266.266 0 0 0 .07.207c.138.153 2.498 1.562 4.61 1.577l.634-.006c1.702-.049 2.642-.434 3.397-2.37l.463-1.188c.654-1.661 1.257-3.021 1.976-3.288.59-.219.933-.246 1.06.005.17-.095-.253.253-.525.643-.739 1.063-1.056 2.77-1.521 3.928-.466 1.158-1.44 2.632-3.298 3.114-1.857.482-4.699.446-7.211-1.084-2.512-1.53-4.902-4.037-6.48-5.013l-.959-.602c-.938-.581-1.523-.862-2.464-.714-1.223.192-1.84 1.181-1.956 1.316-.077.09-.141.09-.193 0 .402-.866.878-1.415 1.427-1.646.825-.346 2.11-.659 3.027-.288Z"/>
    <path fill="#D6D3D3" d="m54.973 39.913.125.098c.409.34 1.11.637 1.683 1.297l.237.307c.603.882 3.603 3.36 5.399 4.252 1.796.892 4.797 1.35 6.707.628 1.91-.722 2.744-3.307 3.156-4.536.411-1.229 1.296-2.453 1.73-2.505l.082-.002-.224.24c-.087.097-.18.208-.26.322-.739 1.063-1.056 2.77-1.521 3.928-.466 1.158-1.44 2.632-3.298 3.114-1.857.482-4.699.446-7.211-1.084-2.512-1.53-4.902-4.037-6.48-5.013l-.959-.602c-.938-.581-1.523-.862-2.464-.714-.708.111-1.213.49-1.535.814l-.214-.13c.21-.422.568-.767 1.074-1.036l-.047.022a6.162 6.162 0 0 1 1.4-.401c1.035.012 2.138.645 2.62 1.001Z"/>
    <path fill="#B9B9B9" fill-rule="nonzero" d="M78.21 43.257c.061 1.721-.103 3.32-.492 4.794-.728 2.757-3.95 5.992-6.4 6.184a8.06 8.06 0 0 1-1.052.01c-1.055-.056-2.175-.29-3.336-.65l-.523-.171-1.132-.42a3.257 3.257 0 0 1-.76-.22c-.235-.096-.549-.31-.807-.452-.26-.142-.557-.513-.613-.573-.162-.014-.34-.043-.619-.083-.278-.04-1.058-.303-1.118-.401-.733-.065-6.415-2.615-7.685-3.799-.971-.904-1.742-2.092-2.314-3.56l-.121-.332-12.073 7.315c-.135 2.898-.365 5.245-.69 7.043l-.09.477c-.5 2.488-3.063 3.102-5.561 2.23l-1.334-.523-.407-.151c-1.882-.674-3.544-.828-6.03-.33-2.78.558-5.008 2.062-6.696 4.52a.2.2 0 0 1-.33-.226c1.746-2.543 4.065-4.108 6.948-4.686 2.561-.513 4.294-.352 6.24.344l1.74.674c2.303.803 4.598.254 5.038-1.931.311-1.549.544-3.567.754-6.153l.113-1.467 12.378-7.603.294.106c.568 1.672 1.372 2.99 2.413 3.96 1.206 1.124 6.805 3.637 7.572 3.75.113.113.733.387 1.21.546.172.057.325.1.43.114l.341.211.47.272c.246.135.478.248.697.337.166.068.321.12.475.158l.233.047c-.043-.016.457.175.654.247.34.125.674.24 1.021.347 1.133.353 2.222.58 3.24.634.347.018.68.015.999-.01 2.265-.177 5.356-3.282 6.044-5.887.433-1.639.58-3.439.44-5.401l.267.918.172-.21Z"/>
    <path fill="#6E6F6B" d="M33.193 51.557c-1.036.625-1.66 1.546-.763 2.201.898.655 4.122.144 4.885-.255.763-.399 2.649-2.192 3.896-2.994 1.247-.801 2.74-.978 3.645-1.128.906-.149 2.596-1.306 4.133-2.565 1.538-1.259 2.514-1.704 3.572-1.9 1.058-.195 2.562-.638 3.107-1.128.545-.49.553-1.228.735-1.498.182-.27.132-.819-.53-1.28-.664-.462-2.348-1.283-2.643-1.35-.294-.065-1.732-.06-2.332.223-.6.284-1.025.502-1.589.87-.563.37-2.213 2.22-3.02 3.035-.805.815-2.435 2.107-3.857 2.682-1.423.575-4.443 2.193-5.633 2.911l-3.606 2.176Z"/>
    <path fill="#EFEFEF" d="M33.224 51.255c-1.036.625-1.66 1.546-.763 2.2.898.656 4.122.145 4.885-.254.763-.399 2.649-2.193 3.896-2.994 1.247-.801 2.74-.979 3.645-1.128.906-.15 2.596-1.306 4.133-2.565 1.538-1.259 2.514-1.705 3.572-1.9 1.058-.196 2.562-.638 3.107-1.129.545-.49.553-1.227.735-1.498.182-.27.132-.818-.53-1.28-.664-.461-2.348-1.283-2.643-1.349-.294-.065-1.732-.06-2.332.223-.6.284-1.025.501-1.589.87-.563.369-2.213 2.22-3.02 3.034-.805.815-2.435 2.107-3.857 2.682-1.423.576-4.443 2.193-5.633 2.912l-3.606 2.176Z"/>
    <path fill="#E2E3E2" d="m54.195 39.853-.045-.113.638.32c.432.226.853.465 1.115.647.597.416.697.901.578 1.191l-.047.09c-.182.27-.19 1.007-.735 1.497-.49.442-1.758.844-2.777 1.063l-.33.066c-.97.179-1.871.568-3.199 1.602l-.373.298c-1.537 1.26-3.227 2.416-4.133 2.565l-.607.098c-.886.147-2.04.389-3.038 1.03-1.247.801-3.133 2.595-3.896 2.994-.763.399-3.987.91-4.885.255-.68-.496-.487-1.145.098-1.702l.044.039c.597.615 1.62.775 3.918-.14 2.298-.913 2.576-1.566 4.597-2.712 2.02-1.147 2.128-.551 2.968-1.489.746-.833 2.1-1.623 3.267-2.149l.64-.277c.96-.444.459-.66 2.09-1.985 1.74-1.412 3.494-1.456 4.11-1.793.33-.18.216-.817.002-1.395Z"/>
    <path fill="#D9DAD9" d="M56.343 41.134c.194.281.216.555.145.748l-.054.105c-.182.27-.19 1.008-.735 1.498-.49.442-1.758.844-2.777 1.063l-.33.066c-.97.179-1.871.568-3.199 1.602l-.373.298c-1.537 1.26-3.227 2.416-4.133 2.565l-.607.098c-.886.147-2.04.389-3.038 1.03-1.151.74-2.847 2.325-3.7 2.878l-.142.084-.91.276c-.143.043-.281.083-.414.121-.958.181-2.195.286-3.004.124-.79-.479-1.167-1.294-.572-1.098l.132.054c1.039.482 2.154.35 3.52.067 1.364-.284 3.524-1.796 4.564-2.681s2.796-.991 3.561-1.091c.765-.1 1.648-1.822 2.377-2.412.73-.59 1.485-.385 2.313-.351.828.034 1.343-1.113 2.119-2.317.775-1.204 2.045-1.598 3.481-1.743.639-.065 1.164-.313 1.577-.747l.2-.237Z"/>
    <path fill="#F2F2F2" d="M51.781 39.377c.614-.074 1.289-.061 1.48-.019.295.066 1.98.888 2.642 1.35.597.415.697.9.578 1.19l-.047.09c-.182.27-.19 1.007-.735 1.497-.49.442-1.758.844-2.777 1.063l-.33.066c-.97.179-1.871.568-3.199 1.602l-.373.298c-1.537 1.26-3.227 2.416-4.133 2.565l-.607.098c-.886.147-2.04.389-3.038 1.03-1.247.801-3.133 2.595-3.896 2.994-.763.399-3.987.91-4.885.255-.744-.543-.443-1.268.272-1.856-.368.442-.543.791-.525 1.05.035.496.47.729 1.148.854.678.125 3.185-.25 3.777-.551.59-.3 1.454-1.163 3.327-2.497 1.873-1.335 3.442-1.374 4.249-1.515.807-.142 1.908-.795 2.797-1.489l1.086-.872c.978-.774 2.245-1.698 3.262-1.955l.687-.179c1.268-.342 2.53-.747 2.92-1.014.46-.317.778-1.267.792-1.667.013-.4-1.264-1.296-2.398-1.937-.638-.361-1.343-.455-1.85-.457l-.224.006Z"/>
    <path fill="#585858" d="M33.875 51.9c-.047.113-.254.13-.525-.215l-.105-.147a1.657 1.657 0 0 0-.16-.195l.553-.338.2.665c.033.12.049.201.037.23Zm6.157-2.703-.174.004c-.19-.008-.458-.06-.553-.26-.119-.25-.002-.483-.364-.562l-.16-.023a3.257 3.257 0 0 1-.512-.094l1.141-.614.386.83c.19.423.3.712.236.719Zm6.535-5.222c.46.904.828.89.206 1.59l-.528.584c-.38.406-.685.67-.849.587-.234-.117-1.34-.984-1.744-1.17a15.38 15.38 0 0 0 2.429-1.847l.311-.306c.02.187.08.376.175.562Zm5.984-2.52c-.14.346-1.316 1.277-1.526 1.453-.21.176-.847.18-1.076 0-.23-.18-.76-.458-1.213-.482l-.285-.029c-.231-.03-.546-.081-.945-.155l.719-.755c.466-.48.883-.884 1.115-1.036.564-.369.99-.586 1.59-.87a1.95 1.95 0 0 1 .391-.127c.845.811 1.305 1.814 1.23 2Z"/>
    <path fill="#959595" d="M50.701 39.703c.994-.44 1.787-.567 2.38-.38.889.282 2.575 1.298 3.078 1.761.503.464.37.793.642 1.101.273.308 3.666 3.1 4.678 3.7 1.012.6 3.856 1.83 6.709 1.238 2.853-.591 3.634-2.597 3.94-3.5.305-.904 1.18-3.648 2.004-4.21-.245.314-.97 1.451-1.314 2.711-.345 1.26-.623 2.387-1.508 3.434-.885 1.047-2.138 1.568-3.228 1.747-1.09.18-4.248.463-6.835-1.31a40.287 40.287 0 0 1-4.768-3.815c-.09-.396-.205-.669-.35-.82-.373-.391-1.326-1.065-1.89-1.33-1.332-.626-1.416-.636-2.272-.595-.165.008-.476.08-.932.219l-.334.05Z"/>
    <path fill="#ECEAE6" d="m52.108 37.797.296.437c.277.434.482.888.454 1.592l-.014.513c-.025.533-.145.783-1.125 1.408-1.247.796-2.568.562-3.058.379-.328-.122-.92-.547-1.776-1.275.173.258.357.489.554.692.294.305.448 1.654.295 2.217-.153.563-.97 1.25-1.918 1.753-.948.502-2.182.1-2.692-.183-.51-.283-.888-.785-.877-.684.011.1-.205 1.45-.332 1.9-.127.452-1.173 1.109-2.006 1.454-.832.345-2.879.143-3.13 0-.1.309-.689 1.612-.803 1.908-.064.164-.26.35-.592.558l-.215.127a3.928 3.928 0 0 1-1.352.54c-.684.127-.772.104-.958-.078a3.371 3.371 0 0 1-.546-.78l.012-.008c.209-.188.078-.574.5-.755a.897.897 0 0 1 .65-.033c.35.239.873.499 1.19.429.332-.073.482-.343.649-.862l.163-.546-.095.091c.36-.24.399-1.187.915-1.367.517-.18.881.149 1.12 0l.223-.14c.227.025.466.038.706.028.853-.039 1.648-.309 2.072-.565.425-.257.642-1.303.518-1.567l-.072-.163.156-.126c.576-.927 1.048-1.416 1.417-1.465l.438-.048.103.12c.134.192.164.414.146.462-.025.067.395.325.813.515.419.191 1.166.29 1.59 0l.335-.229c.342-.244.666-.54.644-.952-.024-.47-.571-1.293-.859-1.802l.075-.309c.09-.335.234-.71.517-.792.437-.126.462-.31.877-.267.243.025.47.111.663.126l.014.012.364.207c.6.326 1.568.801 1.797.793.286-.01 1.375-.59 1.661-1 .286-.41-.152-1.041-.405-1.245l-.219-.177c-.229-.19-.55-.474-.774-.773-.03-.276-.035-.624.188-.814.237-.203.502-.308.793-.316.304.265.646.677.91 1.06Z"/>
    <path fill="#B3AFA8" d="M32.434 50.082c.055.2.226.34.485.389l.167.018c.543.022.623.254.943.427.128.069.272.07.452.025-.218.087-.44.151-.664.192-.684.127-.772.104-.958-.078a3.371 3.371 0 0 1-.546-.78l.012-.008.072-.091.037-.094Zm7.472-2.63c.084-.027.216-.004.371.04l.409.127a7.284 7.284 0 0 1-.777.381c-.828.344-2.858.145-3.126.002v-.25c.363.113.821.195 1.376.248.833.079 1.433-.446 1.747-.548Zm1.114-2.761.205-.313-.004.345c-.013.677-.374 1.805-.866 2.028-.091.041-.203.034-.335-.004.153-.066.288-.134.398-.2.425-.257.642-1.303.518-1.567l-.072-.163.156-.126Zm1.312-.586c.405.472.932.81 1.58 1.014.97.306 1.879.037 2.302 0l.31-.038a6.507 6.507 0 0 1-.708.432c-.948.502-2.182.1-2.692-.183-.362-.201-.658-.512-.795-.64l.003-.585Zm3.342-2.94c.209.512.885 1.21 1.03 1.74.15.554-.299.998-.63 1.063l-.113.006.182-.151c.218-.2.379-.435.363-.73-.024-.469-.571-1.292-.859-1.8l.027-.128Zm6.045.582c-1.247.796-2.568.562-3.058.379-.274-.102-.734-.417-1.379-.944l-.18-.34.53.327c.237.14.435.242.593.307.393.164 1.377.42 1.807.343.43-.077.983-.302 1.62-.719.195-.127.602-.228 1.099-.29-.114.276-.386.525-1.032.937Zm-1.512-4.232c.21.274.578.546 1.096.912.724.51.672.96.65 1.4-.018.359-.27.505-.7.58.156-.117.287-.237.362-.345.286-.41-.152-1.041-.405-1.245l-.219-.177c-.229-.19-.55-.474-.774-.773a2.192 2.192 0 0 1-.014-.292l.004-.06Z"/>
    <path fill="#D8D9D8" d="M35.823 49.931c.08.209.255.636.526 1.282l-2.533.997c-.287-.881-.44-1.384-.459-1.508-.028-.187.426-.683 1.158-.94.733-.256 1.188-.143 1.308.17Zm4.999-3.753c.474.6.753.984.838 1.152.085.167.184.39.298.67l-2.115 1.197-1.062-1.867 2.04-1.152Zm5.657-2.693L48 45.36l-2.386 1.393c-.767-1.063-1.138-1.662-1.114-1.796.035-.201-.315-.394.266-.661.388-.178.96-.448 1.713-.81Zm4.74-3.782c.32-.008.816.16 1.087.515.18.237.439.63.774 1.18l-2.204 1.651c-.51-.992-.82-1.57-.928-1.735a.923.923 0 0 0-.422-.355c.914-.832 1.478-1.25 1.692-1.256Z"/>
    <path fill="#BCBCBD" d="M81.28 54.94c.255.06.75.413.835.82.056.27.137.707.241 1.31 1.162 1.05 1.77 1.623 1.825 1.72.082.145.988 3.58 1.289 5.111.2 1.022.321 1.88.363 2.576.19.25.277.448.262.591-.015.143-.102.373-.262.69.009.264-.112.516-.363.756-.376.36-1.953 1.182-2.588 1.337-.424.103-.68.146-.767.128-.618.388-1.004.603-1.159.646-.232.065-1.724.32-1.952.116-.152-.137-.202-.335-.151-.593h-.324c-.199.433-.371.69-.519.768-.22.117-5.535 1.084-8.016 1.084h-8.777c-1.158 0-3.985-.333-4.423-.507-.438-.174-1.575-1.262-1.941-1.514-.244-.168-1.159-.276-2.744-.323-.465.58-.813 1-1.043 1.26C50.721 71.304 49.721 72 48 72H32.803c-.598 0-1.624-.891-2.393-1.083-.77-.192-2.034-.362-2.276-.292s-.777.857-.903.868c-.127.011-2.637.109-3.394 0-.758-.109-4.132-.695-7.163-2.189-3.03-1.494-5.35-3.285-5.7-3.524-.35-.238-.967-1.803-.974-2.62-.007-.816 1.116-2.517 1.365-2.584.143-.038-.176.328-.139.848.029.392.038.824.042 1.113.01.204.13.24.481.274.351.035 6.476.754 10.345.864 3.87.111 9.464-.15 13.367-.582 3.902-.432 10.655-1.43 11.363-1.558.708-.128 1.98-.37 2.5-.608.521-.237 1.945-.86 4.832-1.426 2.887-.565 10.85-2.401 14.12-2.989 3.269-.587 8.74-1.305 10.177-1.417 1.437-.112 2.57-.213 2.826-.154Z"/>
    <path fill="#D7D7D7" d="M85.833 66.477c.19.25.277.448.262.591-.015.143-.102.373-.262.69.009.264-.112.516-.363.756-.376.36-1.953 1.182-2.588 1.337l-.368.083c-.208.042-.34.057-.399.045l-.473.29c-.347.207-.575.325-.686.356l-.248.053c-.348.064-.946.15-1.34.14-.138-.534-.244-1.19-.315-1.972l-.038-.483-.718-1.47 7.4-1.682c.068.47.113.891.136 1.266Z"/>
    <path fill="#B0ADAD" d="M81.28 54.94c.255.06.75.413.835.82l.241 1.31 1.328 1.217c.304.287.47.455.497.503l.052.149c.214.698.968 3.592 1.237 4.962.2 1.022.321 1.88.363 2.576.126.167-.498.348-1.873.544-1.202.254-2.093.393-2.675.415-.726.028-1.692.068-2.9.12-1.041-3.376-2.55-5.31-4.213-5.58l-.79-.137c-2.389-.444-5.488-1.232-4.629-1.342l.117-.01c1.352-.064 9.694-1.964 9.086-2.108l-.202-.037c-1.237-.204-6.764-.813-10.12.037l-1.284.34c-3.882 1.063-10.102 2.983-11.563 2.897-1.102-.064-2.291-.857-3.225-1.5.575-.164 1.265-.339 2.085-.512l1.948-.399c3.346-.707 9.2-2.036 12.207-2.605l.474-.088c2.985-.536 7.805-1.18 9.715-1.374l2.318-.184c.495-.032.842-.043.97-.013Z"/>
    <path fill="#C1C1C6" d="M85.47 63.901c.2 1.022.321 1.88.363 2.576.19.25-4.573 1.258-4.808.973-.222-.269-.362-1.302-.393-1.992l-.006-.241c-.004-.66-.516-3.348-.677-4.277-.139-.805.41-.961 1.467-1.083l.523-.056c.676-.07 1.357-.166 1.98-.486l.307-.18a.372.372 0 0 0 .05-.04l.261.944c.278 1.045.65 2.521.861 3.514l.072.348Z"/>
    <path fill="#E8E5E5" d="m82.393 57.105 1.291 1.182c.304.287.47.455.497.503-.458.295-1.492.551-2.875.742l-2.339.29c-3.17.418-9.141 1.303-12.454 1.675l-1.971.204c-3.746.37-8.72.783-10.31.797-1.819.015.369-1.472 2.814-1.835l5.772-.79 9.79-1.297 9.507-1.413a1.51 1.51 0 0 0 .278-.058ZM50.73 60.678l-.115.046c-.294.105-.657.27-1.09.492l-.609.223c-.27.092-.487.154-.651.188l-.195.03c-.643.08-2.528.249-4.159.32l2.913-.442.965-.186c.591-.123 1.21-.273 1.535-.422l.402-.175c.51-.212 1.35-.523 2.631-.849l-1.074.525c-.229.108-.418.195-.553.25Zm30.55-5.737c.225.052.637.333.79.677-.384-.207-.746-.305-1.09-.294l-.463.03c-1.45.113-5.509.515-7.741.847-2.384.353-5.3 1.009-6.907 1.335l-.346.07c-.976.19-3.014.448-6.112.773l3.95-.861c1.944-.419 3.735-.794 4.915-1.006l1.378-.235c3.087-.503 7.122-1.029 8.59-1.164l2.065-.16c.495-.031.842-.042.97-.012Z"/>
    <path fill="#DCDCDC" d="m70.74 60.227-3.15.705c-1.184.26-2.501.546-3.951.856l-2.784.254c-2.808.245-5.524.446-6.624.456-1.818.015.37-1.472 2.815-1.835l5.772-.79 9.79-1.297 5.135-.762c-1.783.946-4.117 1.75-7.003 2.413Z"/>
    <path fill="#C8C8C8" d="m56.636 62.375-1.3.082a26.72 26.72 0 0 1-1.105.04c-1.818.016.37-1.47 2.815-1.834l5.772-.79 1.39-.183-2.122.803c-2.233.83-4.05 1.458-5.45 1.882Z"/>
    <path fill="#C5CAC9" d="M75.42 63.032c.915.62 2.12 1.995 2.353 2.863.155.58.216 1.163.18 1.751h1.412c-.494.44-.707.763-.64.968l.04.173c.06.315.143.967.25 1.955l-.011-.001c-.152-.137-.202-.335-.151-.593h-.324c-.199.433-.371.69-.519.768-.22.117-5.535 1.084-8.016 1.084h-8.777l-.543-.017c-1.327-.069-3.5-.34-3.88-.49-.438-.174-1.575-1.262-1.941-1.514l-.066-.036c.136-.243.214-.576.236-1.013l.025-.637c.048-.916.213-2.257 1.11-3.101 1.048-.985 2.015-1.262 3.508-1.45l10.328-1.172c1.982-.236 4.51-.158 5.426.462Z"/>
    <path fill="#B9C1BE" d="m78.725 68.614.04.173.077.497c.048.354.106.84.173 1.458l-.011-.001c-.152-.137-.202-.335-.151-.593h-.324c-.199.433-.371.69-.519.768-.22.117-5.535 1.084-8.016 1.084h-8.777l-.543-.017-.612-.04c-1.299-.104-2.942-.32-3.268-.45-.438-.174-1.575-1.262-1.941-1.514l-.066-.036c.083-.149.145-.332.185-.551.383.479 1.201.775 2.452.888l.46.027c3.334.126 16.7-.334 18.086-.635 1.456-.317 2.245-1.175 2.747-1.113l.008.055Z"/>
    <path fill="#8D8E85" d="M78.297 68.614c-.003-.09.144-.068.441.065l.027.108.077.497c.048.354.106.84.173 1.458l-.011-.001c-.152-.137-.202-.335-.151-.593h-.324c-.199.433-.371.69-.519.768-.22.117-5.535 1.084-8.016 1.084h-8.777l-.543-.017-.612-.04c-1.299-.104-2.942-.32-3.268-.45-.13-.052-.324-.185-.54-.353l.949.213.08.022c.22.061.939.007 1.57 0l4.742-.024a376.25 376.25 0 0 0 3.274-.049l2.377-.064c3.252-.115 7.889-.379 8.216-.465.245-.063.52-.225.826-.484l.009-1.675Z"/>
    <path fill="#828282" d="M75.42 63.032c.915.62 2.12 1.995 2.353 2.863.154.573.214 1.15.181 1.731-.856.294-3.471.767-5.622.955l-1.076.077c-3.267.212-11.881.684-13.69.705-1.949.022-2.197-.497-2.36-.546a.704.704 0 0 0-.172-.024l.014-.5c.048-.916.213-2.257 1.11-3.101 1.048-.985 2.015-1.262 3.508-1.45l10.328-1.172c1.982-.236 4.51-.158 5.426.462Z"/>
    <path fill="#717376" d="M74.143 64.155c1.515.669 1.932 1.137 2.184 1.855.146.42.667.574 1.561.464.069.379.088.765.066 1.152-.856.294-3.471.767-5.622.955l-1.076.077-7.392.424c-2.788.147-5.394.27-6.298.281-1.439.016-1.95-.262-2.185-.43l.186-.42c.412-.915.796-1.552 1.152-1.914.644-.654 2.662-1.04 5.05-1.192l.482-.028c2.595-.129 4.902-.418 7.743-.805 2.841-.387 2.634-1.088 4.149-.42Z"/>
    <path fill="#D0CCCC" d="M11.33 60.606c.126-.034-.158.205-.117.65.04.432.05.95.055 1.28.008.171.093.224.324.257l.889.099.068.729c.11 1.077.262 2.048.65 2.413 1.062 1 6.534 3.04 8.39 3.409 1.713.34 3.742.243 4.78.373l.238.038c.935.188 4.573.45 5.547.983.975.533 17.15-.364 17.859-.52.412-.092.915-.457 1.507-1.096l.26-.291.098.349.397.382-.166-.005-.61.75c-.173.21-.318.38-.433.51C50.721 71.304 49.721 72 48 72H32.803c-.598 0-1.624-.891-2.393-1.083-.77-.192-2.034-.362-2.276-.292s-.777.857-.903.868l-.768.03c-.754.02-1.869.039-2.453-.01l-.173-.02c-.758-.109-4.132-.695-7.163-2.189-3.03-1.494-5.35-3.285-5.7-3.524-.35-.238-.967-1.803-.975-2.62-.006-.816 1.08-2.488 1.33-2.554Zm74.765 6.462c-.015.143-.102.373-.262.69.009.264-.112.516-.363.756-.376.36-1.953 1.182-2.588 1.337l-.368.083c-.208.042-.34.057-.399.045l-.473.29c-.347.207-.575.325-.686.356-.232.065-1.724.32-1.952.116-.152-.137-.202-.335-.151-.593l-.122-.003c-.037-1.23.089-1.993.378-2.29.62-.639.785-.324 1.577-.34.793-.017 1.024 1.025 1.44 1.23.417.205.582-.03 1.206-.299.625-.268 1.66-1.278 1.97-1.634.128-.148.303-.282.525-.402l.006.067c.19.25.277.448.262.591Zm-33.687 2.597-.184-.52.688-.128c1.384-.243 2.087-.272 2.109-.087.02.176-.136.607-.302.986-.335-.123-1.106-.206-2.311-.25Z"/>
    <path fill="#EAEAEA" d="M11.33 60.606c.126-.034-.158.205-.117.65.04.432.05.95.055 1.28.008.171.093.224.324.257l.889.099.068.729c.11 1.077.262 2.048.65 2.413l.107.088.025.18c-.709-.265-1.248-.565-1.618-.901l-.17-.171c-.547-.61-.742-3-.658-3.794.021-.205.074-.384.142-.537.133-.168.242-.277.303-.293Z"/>
    <path fill="#DBDBDB" d="M80.907 68.363c.02.387-.08 1.41-.374 1.915-.294.505-1.33.642-1.53.463-.151-.137-.201-.335-.15-.593l-.122-.003c-.013-.44-.006-.819.023-1.14.65.272 1.369.056 2.153-.642Zm4.563.151c-.376.36-1.953 1.182-2.588 1.337l-.368.083-.087.016c.555-.368 1.04-.663 1.451-.887.66-.358 1.642-1.125 2.049-1.501l-.094.196c.009.264-.112.516-.363.756Z"/>
    <path fill="#6E6E6E" d="m31.957 70.746.197.09c.03.017.073.032.129.045.36.405.7.797 1.238.793l15.516-.177c.549 0 1.222-.19 2.02-.571C50.72 71.304 49.72 72 48 72H32.803c-.598 0-1.624-.891-2.393-1.083-.77-.192-2.034-.362-2.276-.292s-.777.857-.903.868l-.768.03-.714.015c-.634.01-1.322.01-1.739-.026l-.173-.019a17.054 17.054 0 0 1-.616-.102c1.302.01 2.546-.428 3.785-1.014a4.636 4.636 0 0 1 1.012-.333l1.566.201c.939.133 1.853.295 2.373.5Z"/>
    <path fill="#D4D2D5" d="m30.999 71.157-.046-.026a2.743 2.743 0 0 0-.543-.214c-.77-.192-2.034-.362-2.276-.292l-.02.01c-.44-.056-.94-.093-1.457-.092l-.522.015c-1.732.096-1.985-.402-2.44-.616-.456-.214-1.605-.005-2.363 0-.76.005-1.92-.149-3.024-.575-1.103-.425-4.198-1.947-4.995-2.558-.797-.612-1.77-1.691-1.964-2.574a4.457 4.457 0 0 1-.093-1.13l.036-.455c.04.085.134.12.31.144l3.377.36c2.16.214 4.98.46 7.115.521 3.547.102 8.544-.108 12.358-.477l1.009-.105c3.902-.432 10.655-1.43 11.363-1.558l.899-.172c.22-.046.447-.095.662-.147.074.035.106.083.099.152-.023.208 1.45.164 2.288.33.839.166 1.293 1.114 1.293 2.358v5.04c-.172-.097-.347.102-.983 1.028-.637.925-2.881 1.028-4.907 1.06l-5.02.014L31 71.157Z"/>
    <path fill="#CCCBD0" d="M48.385 61.216c.074.035.106.083.099.152-.023.208 1.45.164 2.288.33.839.166 1.293 1.114 1.293 2.358v5.04c-.172-.097-.347.102-.983 1.028-.637.925-2.881 1.028-4.907 1.06l-5.02.014L31 71.157l-.046-.026a2.743 2.743 0 0 0-.543-.214c-.77-.192-2.034-.362-2.276-.292l-.02.01c-.44-.056-.94-.093-1.457-.092l-.522.015c-1.732.096-1.985-.402-2.44-.616-.456-.214-1.605-.005-2.363 0-.76.005-1.92-.149-3.024-.575-1.103-.425-4.198-1.947-4.995-2.558-.797-.612-1.77-1.691-1.964-2.574a4.457 4.457 0 0 1-.093-1.13l.036-.455c.04.085.134.12.31.144l3.377.36 1.981.186c1.734.154 3.61.292 5.134.335 3.437.099 8.234-.096 11.998-.443l.25.23-1.088.274c-2.42.603-4.02.935-4.798.996l-2.383.059c-2.762.048-7.134.092-8.649-.028l-.225-.022c-1.709-.2-.715.695.38 1.503 1.041.767 3.787 1.967 7.744 2.58l1.594.234c3.42.551 4.089 1.19 9.432 1.305 5.808.126 10.748-1.032 11.651-2 .903-.968 1.848-4.533.095-5.533a9.29 9.29 0 0 0-2.842-1.054l1.571-.241.899-.172.662-.147Z"/>
    <path fill="#C2C1C8" d="M11.292 62.65c.04.085.134.12.31.144l3.377.36.793.076c-1.66.782-2.193 1.379-1.597 1.789l.988.752c1.548 1.14 4.77 3.087 12.735 4.59.104.081.204.166.297.255l-.061.01-.02.01c-.44-.057-.94-.094-1.457-.093l-.522.015c-1.732.096-1.985-.402-2.44-.616-.456-.214-1.605-.005-2.363 0-.76.005-1.92-.149-3.024-.575-1.103-.425-4.198-1.947-4.995-2.558-.797-.612-1.77-1.691-1.964-2.574a4.457 4.457 0 0 1-.093-1.13l.036-.455Z"/>
    <path fill="#9896A0" d="m12.392 65.958-.313-.369.246.26c.549.587 2.56 1.76 4.875 2.824 2.18 1.001 2.84.952 3.29 1.03l.082.017c.244.056.894.105 1.95.146l-.816.061a6.845 6.845 0 0 1-.374.015c-.76.005-1.92-.149-3.024-.575-1.103-.425-4.198-1.947-4.995-2.558a7.315 7.315 0 0 1-.92-.85Z"/>
    <path fill="#E3E3E3" d="M26.452 70.38c.827-.085 2.887.102 3.502.261.345.09.84.23 1.388.516h-.343l-.046-.026a2.743 2.743 0 0 0-.543-.214c-.77-.192-2.034-.362-2.276-.292l-.02.01c-.44-.056-.94-.093-1.457-.092l-.522.015a6.02 6.02 0 0 1-.914-.01c.27-.056.68-.112 1.231-.168Z"/>
    <path fill="#FFF" d="M48.484 61.368c-.023.208 1.45.164 2.288.33.839.166 1.293 1.114 1.293 2.358l-.002 5.007-.145-4.392a8.184 8.184 0 0 0-.26-1.446c-.159-.564-.737-.943-1.47-1.217-.61-.229-2.355-.1-4.759.223l-2.288.323c-3.953.522-14.137 1.535-17.749 1.59-3.723.055-9.79-.53-11.794-.825l-1.163-.175c-.524-.069-.864-.088-1.082-.057l-.097.017.036-.454c.04.085.134.12.31.144l3.377.36 1.981.186c1.734.154 3.61.292 5.134.335 3.547.102 8.544-.108 12.358-.477l1.009-.105c3.902-.432 10.655-1.43 11.363-1.558l.899-.172.662-.147c.074.035.106.083.099.152Z"/>
    <path fill="#8D9393" d="M56.116 68.978c.107-.873.49-1.384 1.152-1.532.992-.222 4.754-.082 6.893-.222 2.14-.14 3.447-.1 5.833-.342 2.386-.244 3.675-.525 4.468-.472.792.052 1.434.197 1.78.472.23.183.367.488.41.916-3.753.494-7.479.828-11.178 1.001-3.7.174-6.819.234-9.358.18Z"/>
    <path fill="#B5B6B0" d="m77.956 67.624-.002.002c-.856.294-3.471.767-5.622.955l-1.076.077-7.392.424c-2.788.147-5.394.27-6.298.281-1.949.022-2.197-.497-2.36-.546a.704.704 0 0 0-.172-.024l.003-.096c.246-.132.466-.16.66-.083.449.177.618.35 1.145.384l.367-.001c1.617-.034 7.735-.318 10.352-.468l1.212-.083c2.825-.219 6.337-.644 6.965-.746l.584-.086c.614-.081 1.281-.128 1.634.01Z"/>
    <path fill="#D9D6DB" d="M26.771 65.039c-3.4-.038-9.01.294-7.281 1.317 1.728 1.024 8.086 1.615 10.642 1.764 2.556.148 5.734 1.757 10.237 1.243 4.504-.514 8.376-5.418 3.194-5.309-5.183.11-13.39 1.023-16.792.985Z"/>
    <path fill="#CECCC7" d="M59.56 67.7c-.494.01-1.253.07-1.248-.25.004-.32-.152-.95-.29-1.047-.139-.096.122-.885.514-1.263.393-.379 1.418-.43 1.833 0 .415.428.72.711.742 1.067.022.357.118 1.132-.199 1.243-.317.111-.86.241-1.353.25ZM64.046 65.555c.1-.109.439-.444.485-.574.047-.13.21-.313.52-.3.31.012.823.07.912.3.09.228.662.3.691.544.03.242.146 1.226-.068 1.4-.214.174-.408.467-.923.46-.515-.008-1.23.053-1.455-.161-.224-.214-.284-.664-.293-.95-.01-.286.032-.61.131-.719ZM69.869 65.14c-.141.153-.25.252-.24.593.012.34.16.931.367 1.037.206.106.309.204.744.235.436.032 1.36-.212 1.52-.235.16-.023.618-.172.636-.563.017-.39.11-.734-.153-1.067-.263-.334-.552-.57-.606-.648-.055-.078.196-.195.351-.24.156-.045-.138-.118-.712-.085-.574.034-1.257.04-1.65.194s-1.043.066-.67.13c.373.066.52.152.54.346.02.193.014.149-.127.303Z"/>
    <path fill="#828282" d="M72.171 64.824c.125 1.126-.057 1.776-.544 1.951.693-.214 1.016-.51.966-1.045a1.428 1.428 0 0 0-.422-.906Z"/>
  </g>
</svg>
