<svg xmlns="http://www.w3.org/2000/svg" viewBox="0 0 96 96">
  <defs>
    <path id="a" d="M0 0h96v96H0z"/>
  </defs>
  <g fill="none" fill-rule="evenodd">
    <path fill="#D8DFDF" d="M57.45 31.301c.363.08 1.222 1.953 1.29 4.88l.017 1.185c.01 2.243-.078 3.74.25 5.057l.192.732c.322 1.154.64 1.966.833 2.209l.26.285c.764.8 2.971 2.913 4.717 3.508 2.054.7 3.546.706 4.725.531 1.18-.174 4-1.581 4.521-2.611.523-1.03.343-3.632.54-4.386.198-.754.578-1.587 1.61-2.04 1.033-.453 1.357-.293 1.535-.256.12.024.206.11.26.256.32.13.478.102.474-.08l-.089-3.13c-.019-.887 1.035-2.288 2.309-2.098 1.274.19 1.822 1.274 1.363 3.068l-.947 3.623c-.28 1.11-.499 2.078-.501 2.449.043.408.464 2.31.577 3.004l.028.234c-.01.252.717 1.95 1.139 3.201.421 1.25.746 2.924.889 3.624.142.7.493 4.27.42 4.863-.075.594-13.722 3.75-15.41 4.3-1.687.55-8.638-2.824-10.215-2.576-1.576.247-14.726 5.908-25.29 6.379-10.562.47-18.348-2.614-20.544-3.544-2.197-.93-1.772-1.55-1.772-1.856 0-.305.836-2.988 1.492-3.63.655-.643 7.464-1.593 9.684-1.935l.67-.115c2.43-.451 6.666-1.536 7.4-1.886l.767-.354c.204-.103.277-.175.277-.314 0-.25 1.5-1.049 1.66-1.049h.367c.023-.5.15-.749.38-.749.345 0 .936-.08 1.125-.2l.275-.142c.465-.23 1.323-.641 1.427-.816l.198-.349c.118-.2.265-.417.446-.555.2-.153.486-.254.856-.304.272-.133.486-.193.644-.182l.255.008a.654.654 0 0 0 .082-.008l.896-.49.153-.078c.347-.176.548.089 1.12-.505l.43-.432c.426-.414.83-.755 1.112-.87.377-.156.908-.155 1.179-.315l.823-.471c.036-.464.108-.74.218-.827l.263-.212c.16-.119.358-.237.563-.263l.35-.05c.144-.024.233-.046.252-.068l.35-.443c.169-.22.343-.452.378-.522.07-.14.09-.602.124-.664l.117-.16c.195-.247.574-.696.715-.739a.465.465 0 0 1 .321 0l.632-1.027c-.066-.246-.066-.41 0-.494l.259-.302c.15-.166.315-.335.369-.343a.983.983 0 0 1 .235 0l.247-.496a9.79 9.79 0 0 1 .244-.46c.14-.24.284-.48.347-.68.059-.19 1.606-2.357 2.77-3.931l1.329-1.805c.495-.662.853-1.075 1.22-1.241.596-.271 1.434-.423 1.798-.343Zm23.527 4.715c-.677-.27-1.544.613-1.731 1.47-.188.859-.06 2.91 0 3.158.031.132.108.334.229.606l.1.217-.124.328c.282.19.504.4.664.633.24.349.351.992.452.968.1-.023.08-.92.308-1.765.227-.846.611-1.777.8-2.741.19-.965-.021-2.604-.698-2.874Z"/>
    <path fill="#D1D9D9" d="M40.712 56.558c-2.261 4.927-4.452 8.554-6.57 10.879-.402.032-.8.057-1.194.075-8.244.367-14.796-1.43-18.32-2.68l.554-.318c1.118-.622 2.808-1.454 5.068-2.494 4.483-.577 8.13-1.36 10.94-2.349l.588-.215a98.815 98.815 0 0 1 8.934-2.898Z"/>
    <path fill="#CCD5D6" d="m16.668 59.576.623.13c2.645.53 6.966 1.18 7.072 1.862.114.738-4.545 2.672-5.58 3.697-.23.228-.44.446-.627.655l-.14-.037a42.667 42.667 0 0 1-5.613-1.915c-2.197-.93-1.772-1.55-1.772-1.856 0-.305.836-2.988 1.492-3.63.226-.222 1.189-.481 2.442-.74.17.694.625 1.51 2.103 1.834Z"/>
    <path fill="#C2CBCC" d="M12.723 61.25c.575 1.393 4.443 2.02 6.74 3.503-.292.187-.527.36-.68.512-.23.228-.44.446-.627.655l-.14-.037a42.667 42.667 0 0 1-5.613-1.915c-2.197-.93-1.772-1.55-1.772-1.856 0-.305.836-2.988 1.492-3.63.115-.113.42-.235.856-.362-.462 1.382-.547 2.425-.256 3.13Z"/>
    <path fill="#CBD4D4" d="M57.45 31.301c.363.08 1.222 1.953 1.29 4.88l.017 1.185-.003 2.178c.004 1.13.044 2.04.253 2.88l.192.73c.322 1.155.64 1.967.833 2.21l.26.285.378.383c.966.953 2.826 2.61 4.339 3.125 2.054.7 3.546.706 4.725.531 1.18-.174 4-1.581 4.521-2.611.523-1.03.343-3.632.54-4.386.198-.754.578-1.587 1.61-2.04 1.033-.453 1.357-.293 1.535-.256.12.024.206.11.26.256.32.13.478.102.474-.08l-.089-3.13c-.019-.887 1.035-2.288 2.309-2.098 1.274.19 1.822 1.274 1.363 3.068l-.947 3.623-.254 1.046c-.148.643-.246 1.156-.247 1.403.043.408.464 2.31.577 3.004l.028.234c-.01.247.692 1.89 1.116 3.134l-13.404 3.886-25.04.394-13.861 12.547-2.9-.135c1.383-2.066 2.802-3.89 4.258-5.474 1.455-1.583 3.755-3.787 6.9-6.612-2.331.162-4.277.155-4.696.1-.548-.075-1.579-.54-3.092-1.397l-.05.028c.203-.103.276-.175.276-.314 0-.25 1.5-1.049 1.66-1.049h.367c.023-.5.15-.749.38-.749.345 0 .936-.08 1.125-.2l.275-.142.628-.313c.374-.192.734-.394.799-.503l.198-.349c.118-.2.265-.417.446-.555.2-.153.486-.254.856-.304.272-.133.486-.193.644-.182l.255.008a.654.654 0 0 0 .082-.008l1.049-.568c.347-.176.548.089 1.12-.505l.43-.432c.426-.414.83-.755 1.112-.87.377-.156.908-.155 1.179-.315l.823-.471c.036-.464.108-.74.218-.827l.263-.212c.16-.119.358-.237.563-.263l.35-.05.173-.035c.043-.011.07-.022.08-.033l.545-.702c.09-.12.16-.221.182-.263.07-.14.09-.602.124-.664l.117-.16.24-.292c.181-.21.381-.418.475-.447a.465.465 0 0 1 .321 0l.632-1.027c-.066-.246-.066-.41 0-.494l.259-.302.179-.19c.085-.085.157-.148.19-.153a.983.983 0 0 1 .235 0l.247-.496.244-.46c.093-.16.188-.32.26-.469l.087-.212c.046-.146.992-1.49 1.958-2.821l2.14-2.914c.496-.662.854-1.075 1.22-1.241.597-.271 1.435-.423 1.799-.343Zm21.796 6.186c-.188.858-.06 2.91 0 3.157.031.132.108.334.229.606l.1.217-.124.328c.282.19.504.4.664.633.24.349.351.992.452.968.1-.023.08-.92.308-1.765.227-.846.611-1.777.8-2.741.19-.965-.021-2.604-.698-2.874-.677-.27-1.544.613-1.731 1.47Z"/>
    <path fill="#BAC3C3" d="M58.754 38.125v1.42c.004 1.129.044 2.04.253 2.878l.192.732.233.777c.038.119.075.231.112.338l-.05.314c-1.2-1.053-2.056-1.618-2.568-1.697-.628-.096-3.961.307-6.18 1.256l-.184.084 2.095-1.427c2.158-1.49 4.617-3.237 5.04-3.654l.048-.055c.17-.229.575-.639 1.01-.966Z"/>
    <path fill="#C6CFD1" d="M57.45 31.301c.363.08 1.222 1.953 1.29 4.88l.004.222c-.115.52-.268.915-.427 1.078-.618.634-4.227 3.468-6.729 5.18l-.334.226c-2.2 1.475-7.077 4.524-9.03 5.796l-.62.413c-1.117.77-8.762 4.466-10 5.181l-.16.103c-.158.149-.38-.042-.611-.306a.239.239 0 0 0 .088-.196c0-.25 1.5-1.049 1.66-1.049h.367c.023-.5.15-.749.38-.749.345 0 .936-.08 1.125-.2l.275-.142.628-.313.359-.192c.222-.124.396-.238.44-.31l.198-.35c.118-.2.265-.417.446-.555.2-.153.486-.254.856-.304.272-.133.486-.193.644-.182l.255.008a.654.654 0 0 0 .082-.008l1.049-.568c.347-.176.548.089 1.12-.505l.43-.432c.426-.414.83-.755 1.112-.87.377-.156.908-.155 1.179-.315l.823-.471c.036-.464.108-.74.218-.827l.263-.212c.16-.119.358-.237.563-.263l.35-.05.173-.035c.043-.011.07-.022.08-.033l.545-.702.145-.203a.643.643 0 0 0 .037-.06c.07-.14.09-.602.124-.664l.117-.16.24-.292c.181-.21.381-.418.475-.447a.465.465 0 0 1 .321 0l.632-1.027c-.066-.246-.066-.41 0-.494l.259-.302.179-.19c.085-.085.157-.148.19-.153a.983.983 0 0 1 .235 0l.247-.496.244-.46c.093-.16.188-.32.26-.469l.087-.212c.046-.146.992-1.49 1.958-2.821l2.14-2.914c.496-.662.854-1.075 1.22-1.241.597-.271 1.435-.423 1.799-.343Z"/>
    <path fill="#BAC6C8" d="M57.188 32.104c.467.252.88.72 1.241 1.404.165.74.287 1.64.311 2.672l.017 1.186-.003 1.544-.914.789a34.821 34.821 0 0 1-1.896 1.513l-.313.224c-1.232.86-10.621 6.84-12.047 7.3-1.426.46-1.918.17-1.18-.142.696-.295 3.149-3.134 4.26-4.096l1.718-1.693c1.28-1.074 2.724-1.624 3.71-2.822 1.326-1.608 2.876-3.786 3.204-5.212l.066-.346c.146-.972.755-1.746 1.826-2.321Z"/>
    <path fill="#97A2A3" d="M50.51 38.756c.224-.031.25.929.498.799s2.82-1.953 3.8-2.358c.981-.405 1.44-.394 1.302-.243-.138.15-2.567 1.85-3.211 2.383-.644.532-1.525 1.392-1.89 1.73-.367.34-.82.415-.819-.222.002-.638.098-2.058.32-2.089Z"/>
    <path fill="#7E8888" d="M52.899 39.337c-.644.532-1.525 1.392-1.89 1.73-.367.34-.82.415-.819-.222.001-.526.067-1.583.215-1.956-.218.957-.088 1.378.391 1.268.518-.119 1.982-.957 4.393-2.513l-1.696 1.236c-.25.186-.46.347-.594.457Z"/>
    <path fill="#9DA9AC" d="M57.764 36.292c-1.666 1.702-3.134 3.117-4.405 4.248-1.906 1.695-3.252 1.512-4.67 2.802-1.416 1.29-1.394 1.811-2.171 2.707-.777.895-1.122 1.233-2.19 1.837-.713.402-1.468.765-2.264 1.09.537.16 1.088.16 1.652 0 .847-.241 9.685-5.492 10.72-6.44.691-.63 1.995-1.912 3.912-3.843l-.584-2.4Z"/>
    <path fill="#8E9A9D" d="M57.472 42.967c.018-.314-.83-1.736-2.173-2.164-.751-.24-4.56 1.554-6.244 2.997-.536.46-.917 1.207-1.432 1.83-.758.916-1.59 1.69-1.848 1.945-.988.968 4.55-2.296 5.765-2.997.755-.435 1.913-.925 4.1-1.708.364-.13 1.813.41 1.832.097Z"/>
    <path fill="#768184" d="M53.963 41.93c.471-.08 1.459.239 2.963.957l-.08.13-.597-.115c-.26-.046-.491-.074-.609-.032l-1.357.498c-1.209.457-1.993.8-2.561 1.109l-1.274.716c-.704.387-3.486 2.012-4.012 2.243 1.373-1.395 2.232-2.33 2.578-2.809.518-.716 1.723-1.325 2.737-1.795 1.039-.482 1.855-.84 2.212-.902Z"/>
    <path fill="#81908F" d="M53.79 46.717c.473.007 3.04-1.096 3.256-1.33.214-.236.15-.778-.096-1.28s-.639-.848-.81-1.034c-.172-.187-1.473-.254-1.637-.266-.164-.012-1.693.942-2.131 1.165-.439.223-1.415.84-1.152 1.332.264.492 2.095 1.406 2.57 1.413Z"/>
    <path fill="#D8DFDF" d="M53.802 46.539c.474.007 3.041-1.096 3.256-1.33.215-.235.15-.778-.095-1.28-.247-.501-.64-.848-.81-1.034-.172-.186-1.473-.254-1.637-.266-.165-.011-1.694.942-2.132 1.165-.438.223-1.414.84-1.151 1.332.263.492 2.095 1.406 2.569 1.413Z"/>
    <path fill="#474D4F" d="M55.346 43.402c.18 0 .606.934.622 1.072.017.139-.406.352-.475.259-.07-.093-.543-.862-.562-1.02-.019-.158.234-.312.415-.311ZM53.502 44.132c.18 0 .441 1.092.458 1.23.016.139-.407.352-.476.259-.07-.093-.379-1.019-.397-1.177-.019-.158.234-.312.415-.312Z"/>
    <path fill="#8B9395" d="M32.45 54.507c-.083-.026-.822-.244-.306-.688.516-.443 9.092-4.882 9.346-4.92.19-.03 1.612.568 2.085 1.003.158.145.015.37-.055.416-.28.185-3.522 1.797-3.731 1.866-.21.069-1.706-.163-1.813-.094-.106.07-.314.614-.438.731-.124.117-3.205 1.62-3.306 1.686-.1.066-1.7.025-1.783 0Z"/>
    <path fill="#DADFE0" d="M32.387 54.345c-.082-.026-.821-.244-.305-.688.516-.443 9.091-4.882 9.346-4.92.19-.03 1.612.568 2.084 1.003.159.145.016.37-.054.416-.281.185-3.522 1.796-3.731 1.866-.21.069-1.707-.163-1.813-.094-.106.07-.314.614-.438.731-.124.117-3.206 1.62-3.306 1.686-.1.066-1.7.025-1.783 0Z"/>
    <path fill="#474D4F" d="M33.719 53.46c-.002.035.142.358.413.315.272-.042.557-.123.607-.223.05-.1.143-.285-.06-.291-.203-.006-.96.164-.96.199ZM35.913 52.42c-.048.092.066.324.338.282.27-.043.5-.16.55-.26.046-.092.043-.255-.16-.26-.203-.007-.68.146-.728.238ZM39.229 51.045c-.048.093.065.325.337.282.271-.042.5-.16.55-.26.046-.092.044-.254-.16-.26-.202-.006-.68.146-.727.238ZM41.422 50.225c-.048.092.066.325.337.282.271-.042.501-.16.55-.26.046-.092.044-.254-.16-.26-.202-.006-.68.146-.727.238Z"/>
    <path fill="#E0E6E8" d="m34.26 51.958.159.334c.114.261.254.604.29.715.055.165-.199.605-.21.673-.013.07-.362-.05-.464-.113-.103-.064-.352.03-.551-.082-.147-.083-.4-.375-.557-.656h.02c.024-.5.15-.749.38-.749.265 0 .672-.047.934-.122Zm4.039-2.426.173.008.346.197.522.317c.088.049.179.092.273.123.283.095.311.398.385.674.05.183-.035.306-.253.367a2.592 2.592 0 0 0-.714-.09c-.433-.004-.7-.242-1.121-.436l-.619-.29-.594 1.804-.071.29c-.03.1-.082.153-.257.128-.305-.043-.454-.275-.516-.418-.061-.144-.112-.575 0-.988l.024-.076c.144-.092.246-.167.278-.22l.198-.349c.118-.2.265-.417.446-.555.2-.153.486-.254.856-.304.272-.133.486-.193.644-.182Zm5.325-2.748.084.39c.045.26 1.033.646 1.396.826.363.18 1.047 1.054 1.056 1.42.004.203-.13.464-.406.784l-.182.199-.157-.414c-.348-.51-.647-.86-.897-1.05l-.317-.229c-.43-.3-1.018-.677-1.139-.71a1.04 1.04 0 0 0-.423 0l-.256.949c-.069.236-.12.394-.155.471-.104.232-.07.638 0 .757.07.12-.18.234-.488.226-.31-.01-.417-.276-.46-.414-.023-.08.013-.297.061-.534l.11-.516c.068-.35.203-.901.55-1.295.288-.329.452-.4.902-.629l.347-.07c.106-.027.2-.06.276-.103l.098-.058Zm2.24-1.788.159.052c.65.228 2.084.946 2.387 1.402.303.457-.275 1.16-.41 1.194-.135.033-1.015-.776-1.747-1.309-.586-.425-1.297-.523-1.673-.511l-.155.012c.037-.149.084-.246.142-.292l.263-.212c.16-.119.358-.237.563-.263l.35-.05.122-.023Zm2.118-2.58.018.007c.237.014.086.16.497.206l.62.064c.149.021.35.058.754.143.911.19 3.103 1.154 3.465 1.295.31.12.298.413.376.687l.048.135c.138.307.048.49-.064.563-.113.072-.555-.364-.776-.4l-.404-.075a8.7 8.7 0 0 1-1.246-.358l-.295-.117c-.897-.378-2.378-.896-3.212-.97-.567-.05-.792.106-.995.221l.065-.444a.211.211 0 0 1 .014-.051l.117-.16.24-.292c.16-.185.334-.37.438-.43l.259-.024a.935.935 0 0 1 .081 0Zm1.513-2.159.174.1c.476.241 1.415.557 2.029.99.702.497 3.125 1.587 3.409 1.87.227.225.22.284.308.44l.089.14c.193.276.281.625.215.787-.067.162-.219.007-.336-.193-.117-.2-.54-.341-1.195-.678-.544-.281-1.275-.5-1.966-.854l-.409-.23c-.48-.298-1.144-.57-1.676-.766l-1.106-.377a5.761 5.761 0 0 0-.403-.116l.004.026c-.066-.246-.066-.41 0-.494l.259-.302.179-.19c.085-.085.157-.148.19-.153a.983.983 0 0 1 .235 0Z"/>
    <path fill="#A2B0B6" d="m33.12 52.176.002.226c.012.255.069.442.17.561.226.27.605.403.827.336.124-.037.308-.167.553-.39l.037.098c.055.165-.199.605-.21.673-.013.07-.362-.05-.464-.113-.103-.064-.352.03-.551-.082-.147-.083-.4-.375-.557-.656h.02c.015-.32.073-.539.173-.653Zm4.408-2.316c-.112.29-.144.443-.096.462l.35.154c.372.163.933.396 1.138.411.307.022.655-.139.694-.292l.093-.365-.094-.053c.283.095.311.398.385.674.05.183-.035.306-.253.367a2.592 2.592 0 0 0-.714-.09c-.433-.004-.7-.242-1.121-.436l-.619-.29-.594 1.804-.071.29c-.03.1-.082.153-.257.128-.305-.043-.454-.275-.516-.418-.061-.144-.112-.575 0-.988l.024-.076c.144-.092.246-.167.278-.22l.05-.09-.077.326-.028.141c-.08.454-.014 1.12.205.845.174-.22.372-.535.535-.897l.114-.279a6.15 6.15 0 0 1 .574-1.108Zm5.763-2.74c-.281.355-.378.566-.292.633.129.1 1.293.655 1.624.983l.432.422c.256.242.507.46.602.473.074.009.237-.026.488-.105l.015-.106c.004.203-.13.464-.406.784l-.182.199-.157-.414c-.348-.51-.647-.86-.897-1.05l-.317-.229c-.43-.3-1.018-.677-1.139-.71a1.04 1.04 0 0 0-.423 0l-.256.949-.09.295a1.967 1.967 0 0 1-.065.176c-.104.232-.07.638 0 .757.07.12-.18.234-.488.226-.31-.01-.417-.276-.46-.414-.023-.08.013-.297.061-.534l.11-.516c.034-.178.087-.41.175-.645l-.069.617a6.45 6.45 0 0 0-.045.72c.01.382.286.144.403.005.117-.14.575-1.638.805-1.883l.57-.633Zm2.484-1.212 1.832 1.11c.173.107.29.181.305.196l.299.234c-.085.112-.17.186-.211.196-.135.033-1.015-.776-1.747-1.309a2.597 2.597 0 0 0-.674-.347c-.085-.154-.158-.33-.126-.464.06-.253.248.336.322.384ZM47.836 42.887l.32.566c.045.076.188.123.427.14.358.024 1.713.529 2.18.755.467.226 1.986.54 2.34.567.354.027.216-.254.076-.664-.027-.08-.208-.217-.484-.386l.641.266c.31.12.298.413.376.687l.048.135c.138.307.048.49-.064.563-.113.072-.555-.364-.776-.4l-.404-.075-.434-.102a8.451 8.451 0 0 1-.812-.256l-.295-.117c-.777-.328-1.992-.76-2.845-.917l-.121-.283-.173-.479Zm7.58.77.088.14c.193.276.281.625.215.787-.067.162-.219.007-.336-.193-.059-.1-.194-.185-.396-.288l-.799-.39a6.472 6.472 0 0 0-.47-.216l.492.178c.561.192 1.043.32 1.119.294.106-.035-.086-.445-.273-.794l.051.041c.227.226.22.285.308.44Zm-6.826-2.474c.199.007.51.182 1.05.391l.824.312c.569.22 1.243.5 1.643.765l.204.156c.137.127.415.277.75.426-.274-.11-.56-.231-.84-.374l-.408-.23c-.48-.298-1.144-.57-1.676-.766l-1.106-.377a5.761 5.761 0 0 0-.403-.116l.004.026-.042-.213Z"/>
    <path fill="#C1C7C7" d="M30.977 53.775c1.142.728 2.15 1.128 3.02 1.2 1.461.119 6.625-.411 7.438-.488.062-.006.36-.339.384-.327.291.147.601.4.714.494.113.095-1.097 1.649-1.339 1.692-.062.011-.662-.258-.844-.328-2 .135-5.343.349-7.396.041-1.685-.252-2.622-1.024-3.086-1.512h.009l.767-.355c.204-.103.277-.175.277-.314l.03-.074.026-.029Z"/>
    <path fill="#BFC6C7" d="M79.072 40.996c.16.123.313.245.458.367l.045.104-.124.328c.282.19.504.4.664.633.24.349.351.992.452.968.063-.014.079-.372.138-.845.142.17.26.341.359.51l-.121.535c-.083.398-.133.71-.134.887.043.408.464 2.31.577 3.004l.028.234c-.005.123.168.596.395 1.194l-.025.06c-.44.858-9.226 5.058-13.103 5.056-2.584-.002-8.432-1.832-17.544-5.491 2.569-1.841 4.806-2.594 6.714-2.257 2.862.505 6.528 4.358 9.184 4.416 2.656.058 8.834-2.19 9.91-3.012 1.025-.784 1.809-2.07.427-2.585l-.224-.071c-1.683-.457-.85-2.081-.015-2.908a4.34 4.34 0 0 1 1.939-1.127Z"/>
    <path fill="#8E8E8E" d="M53.16 46.946c2.315.2 4.518.797 6.607 1.79 3.134 1.49 5.17 2.902 6.426 3.058.837.104 2.043-.015 3.618-.358l.329.902c-3.008.687-5.08.956-6.219.806-1.707-.223-10.22-4.427-11.617-5.144-.932-.478-.646-.83.855-1.054Z"/>
    <path fill="#B3B8B8" d="m81.282 46.923.104.564.033.285.015.073c.028.113.085.283.16.49l.392 1.042L70.14 52.63l-.084-.201-.74-2.026 11.966-3.48Z"/>
    <path fill="#E1E7E2" d="m57.113 48.167 2.482 1.114c3.188 1.475 5.886 2.885 7.398 2.905 1.537.02 2.233-.196 3.127-.526l.872-.312c2.202-.761 8.901-2.986 10.182-3.348l.288-.055c.167.56.736 1.926 1.09 2.977.422 1.25.747 2.924.89 3.624.142.7.493 4.27.42 4.863-.075.594-13.722 3.75-15.41 4.3-1.687.55-8.638-2.824-10.215-2.576-1.576.247-14.726 5.908-25.29 6.379a49.06 49.06 0 0 1-4.038.013l3.04-3.414c3.027-3.372 5.372-5.895 7.037-7.568l.286-.287c3.203-3.18 5.014-5.348 5.872-6.277l.116-.124c.806-.85 2.835-3.44 4.125-3.972 1.136-.469 4.441.842 7.728 2.284Z"/>
    <path fill="#DCE1DD" d="m57.113 48.167 2.482 1.114 3.162 1.48c1.783.817 3.257 1.412 4.236 1.425 1.537.02 2.233-.196 3.127-.526l.872-.312 4.907-1.649c2.298-.76 4.581-1.503 5.275-1.699l.288-.055c.167.56.736 1.926 1.09 2.977.422 1.25.747 2.924.89 3.624.142.7.493 4.27.42 4.863-.075.594-13.722 3.75-15.41 4.3-1.687.55-8.638-2.824-10.215-2.576-1.576.247-14.726 5.908-25.29 6.379l-.849.03-.312-.077c-1.014-.288-4.219.234 1.047-1.978l2.448-1.016c4.258-1.748 7.964-3.175 10.262-4.1 2.73-1.1 8.465-4.898 13.626-4.118 5.162.78 5.58 1.955 9.512 2.66 3.932.706 14.404-1.427 14.084-3.157-.148-.804-.209-2.947-.905-3.657-.75-.765-2.741-.444-4.113-.042l-1.404.438c-2.09.632-4.141 1.123-8.193 1.888-4.766.901-13.705-4.954-14.744-5.79-1.04-.835-3.688-1.427-4.592-1.08-.41.158-1.514.88-3.308 2.165l-.246.177 1.429-1.612c.882-.98 1.922-2.041 2.696-2.36 1.136-.469 4.441.842 7.728 2.284Z"/>
    <path fill="#D5DAD6" d="m81.174 48 .288-.055.195.564.329.868L70.14 52.63l-.084-.201-.241-.659 1.177-.422 5.765-1.932c1.986-.655 3.81-1.245 4.417-1.416Z"/>
    <path fill="#DEE3DF" d="m41.747 53.72.352.138c.946.395 1.329.786 1.149 1.171-.32.684-6.014 5.524-11.348 11.981-1.236.268-2.233.438-2.99.513l3.04-3.412c2.824-3.148 5.055-5.555 6.694-7.223l1.7-1.711c.509-.518.975-1.004 1.403-1.457Z"/>
    <path fill="#D2D9D9" d="M41.819 54.16c.291.147.601.4.714.494.113.095-1.097 1.649-1.339 1.692-.062.011-.662-.258-.844-.328-.276.018-.577.039-.897.059l.892-.9c.217-.221.426-.437.628-.646l.462-.044c.062-.006.36-.339.384-.327Z"/>
    <path fill="#A4B1AA" d="M45.262 51.521c-.547.538.106 1.001.391 1.161.286.16 1.24.662 1.845.495.606-.166 1.506-.963 3.067-2.14 1.561-1.176 2.496-1.666 2.587-2.143.092-.476.077-.588-.487-.907-.564-.318-2.307-1.348-2.79-1.176-.482.172-4.067 4.173-4.613 4.71Z"/>
    <path fill="#E8ECEC" d="M45.264 51.382c-.547.537.034.893.32 1.053.285.16 1.239.661 1.845.495.605-.166 1.505-.963 3.066-2.14 1.561-1.176 2.496-1.666 2.587-2.143.092-.477.077-.588-.486-.907-.564-.319-2.236-1.24-2.719-1.068-.482.172-4.067 4.172-4.613 4.71Z"/>
    <path fill="#E0E6E8" d="M45.653 45.029a1.688 1.688 0 0 0-.14.244c-.171.356.053.665.273 1.08l.093.186c.24.514 1.632 2.761 1.8 3.268.168.507.445 1.056.474 1.51.029.455-.163.472-.35.52-.187.05-.6-.136-.747-.52-.13-.335-.677-1.252-.94-1.863l-.093-.24c-.137-.413-.456-.979-.813-1.538l-.66-.992a2.009 2.009 0 0 1-.195-.367l-.006.054c.036-.464.108-.74.218-.827l.263-.212c.16-.119.358-.237.563-.263l.26-.04Zm2.345-2.607-.068.196c-.09.396.104.726.223.958l.368.65c.48.83 1.281 2.192 1.592 2.705l.077.126c.307.494.57 1.085.573 1.348.002.263-.247.432-.464.43-.217-.003-.481-.121-.67-.43-.166-.274-.706-.952-1.147-1.803l-.399-.818c-.48-.942-1.137-2.043-1.173-2.208l-.048-.278.102-.135c.195-.248.574-.697.715-.74a.466.466 0 0 1 .32 0Z"/>
    <path fill="#A5B1B6" d="M44.538 46.157c.094.535 1.477 2.24 2.014 3.424l.346.75c.294.616.454.838.645.757.252-.107.242-.523.16-1.218l-.024-.063c.168.507.445 1.056.474 1.51.029.455-.163.472-.35.52-.187.05-.6-.136-.747-.52-.13-.335-.677-1.252-.94-1.863l-.093-.24c-.137-.413-.456-.979-.813-1.538l-.66-.992a2.603 2.603 0 0 1-.146-.255l-.051-.111.017-.163c.04-.335.106-.538.197-.611l.096-.079c-.116.27-.158.5-.125.692Zm3.615-2.58.368.65 1.32 2.25.35.58c.306.494.57 1.085.572 1.348.002.263-.247.432-.464.43-.217-.003-.481-.121-.67-.43-.166-.274-.706-.952-1.147-1.803l-.399-.818-.25-.479c-.432-.804-.893-1.591-.923-1.729l-.048-.278.197-.254.01.123c.045.35.18.743.406 1.18l.328.602c.645 1.153 1.821 3.13 2.011 3.222.23.113.704.032.498-.537-.205-.568-2.41-3.963-2.4-4.4l.012-.231c.042.228.151.421.229.573Z"/>
    <path fill="#5D6566" d="M66.497 63.146c2.318-4.986 3.574-7.607 3.77-7.861.293-.382 1.265-.852 2.126-.483.574.246 1.501 2.573 2.781 6.982l.903-.202c-1.468-4.51-2.207-6.892-2.217-7.144-.014-.378.316-.89.894-.569.579.322 2.576 6.986 2.751 7.713.324-.12.62-.243.888-.372-.532-1.668-.796-2.837-.792-3.507.005-1.005.957-1.91 1.916-1.86.959.05 1.275-.177 1.24-.99-.033-.815-.617-1.303-1.57-1.19-.952.113-2.315.748-2.66.601-.346-.146-.725-.97-.031-1.262.694-.292 2.173-.804 3.026-.74.853.064 1.857.713 2.124 1.842.268 1.128.024 2.137-.132 2.31-.156.175-.104.23.274.452.378.22 1.189 2.062 1.29 2.882-.19.06-.495.19-.91.39-.443-1.167-.824-1.97-1.144-2.412-.48-.662-1.116-.778-1.502-.64-.386.139-.834.66-.649 1.53.124.578.396 1.532.816 2.861l-5.694 1.459c-.746-2.192-1.206-3.632-1.382-4.32-.263-1.034-.585-2.213-1.121-2.073-.537.141-1.042 1.815-1.504 2.947-.308.755-.786 1.904-1.435 3.446l-2.056.21Z"/>
    <path fill="#F4F4F4" d="M66.832 62.713c2.317-4.986 3.574-7.606 3.77-7.86.292-.382 1.179-.822 2.04-.453.575.246 1.502 2.574 2.781 6.983l.903-.203c-1.468-4.51-2.207-6.891-2.216-7.144-.014-.378.315-.89.894-.568.578.321 2.575 6.985 2.75 7.712.325-.119.62-.243.888-.371-.532-1.669-.796-2.838-.792-3.507.005-1.005.957-1.91 1.916-1.86.96.05 1.275-.178 1.24-.991-.033-.814-.617-1.303-1.57-1.19-.952.114-2.314.748-2.66.602-.346-.147-.725-.97-.03-1.262.693-.292 2.173-.804 3.025-.74.853.063 1.857.713 2.125 1.841.267 1.129.023 2.137-.133 2.311-.156.174-.104.23.274.451.379.22 1.189 2.062 1.291 2.882-.191.06-.495.19-.911.39-.442-1.166-.823-1.97-1.144-2.411-.48-.662-1.115-.779-1.502-.64-.386.138-.834.66-.648 1.529.123.579.395 1.533.816 2.862l-5.695 1.459c-.745-2.192-1.206-3.632-1.382-4.321-.263-1.034-.585-2.213-1.121-2.072-.537.14-1.042 1.814-1.504 2.947-.307.755-.786 1.903-1.435 3.446l-1.97.178Z"/>
    <path fill="#B9BFBF" d="M66.78 62.922c2.318-4.986 3.574-7.606 3.77-7.86.292-.382 1.18-.822 2.04-.453.575.246 1.502 2.574 2.782 6.983l.902-.203c-1.468-4.51-2.207-6.891-2.216-7.144-.014-.378.315-.89.894-.568.579.321 2.575 6.985 2.751 7.712.324-.12.62-.243.887-.371-.531-1.669-.795-2.838-.792-3.508.005-1.004.957-1.91 1.916-1.86.96.05 1.275-.177 1.241-.99-.034-.814-.618-1.303-1.57-1.19-.953.114-2.315.748-2.66.602-.346-.147-.725-.97-.032-1.262.694-.292 2.174-.804 3.027-.74.853.063 1.856.713 2.124 1.841.268 1.129.023 2.137-.133 2.311-.156.174-.104.23.275.451.378.22 1.188 2.062 1.29 2.882-.191.06-.495.19-.911.39-.442-1.166-.823-1.97-1.143-2.411-.48-.662-1.116-.779-1.502-.64-.387.138-.834.66-.65 1.529.124.579.396 1.533.817 2.862l-5.694 1.459c-.746-2.192-1.207-3.632-1.382-4.321-.264-1.034-.585-2.213-1.122-2.072-.536.14-1.042 1.814-1.503 2.947-.308.755-.787 1.903-1.436 3.446l-1.97.178Z"/>
    <path fill="#D2DAD7" d="m83.326 53.977.116.57c.142.7.493 4.268.42 4.862-.075.594-13.722 3.75-15.41 4.3-1.05.343-4.134-.833-6.696-1.711l-.562-.566 22.082-7.445.05-.01Z"/>
    <path fill="#DEE2E6" d="M80.894 35.343c1.274.19 1.822 1.274 1.363 3.068l-.947 3.623-.254 1.046c-.148.643-.246 1.156-.247 1.403.043.408.464 2.31.577 3.004l.028.234c-.01.252.717 1.95 1.139 3.201.421 1.25.746 2.924.889 3.624.142.7.493 4.27.42 4.863-.01.068-.194.169-.517.296l.053-1.172c.017-.457.026-.829.024-1.116l-.003-.2c-.02-.803-.19-2.703-.222-2.823-.027-.105-.173-.252-.293-.709l-.05-.215c-.125-.629-.88-2.996-1.112-3.594l-.21-.563a19.811 19.811 0 0 1-.838-3.098l-.073-.438c-.297-1.928-.858-2.976-1.013-3.348-.154-.372-.64-.884-.88-1.212l-.288-.376a4.71 4.71 0 0 0-.12-.141c-.34.055-.765.263-1.274.624-.7.498-1.224 1.21-1.243 2.33l.007.315c.082 1.305-.553 2.51-1.303 3.485-.49.638-1.457 1.06-2.356 1.297.953-.51 1.835-1.142 2.104-1.674.523-1.03.343-3.632.54-4.386.198-.754.578-1.587 1.61-2.04 1.033-.453 1.357-.293 1.535-.256.12.024.206.11.26.256.32.13.478.102.474-.08l-.089-3.13c-.019-.887 1.035-2.288 2.309-2.098ZM57.45 31.301c.363.08 1.222 1.953 1.29 4.88l.017 1.185-.003 2.178c.004 1.13.044 2.04.253 2.88l.192.73c.2.72.4 1.306.568 1.704-.63-.696-1.182-1.442-1.437-2.082-.684-1.723-.62-4.347-.634-6.484-.013-2.138-.423-3.666-.76-4.256a2.825 2.825 0 0 0-.528-.646c.413-.1.818-.138 1.042-.089Zm21.796 6.186c-.188.858-.06 2.91 0 3.157.031.132.108.334.229.606l.1.217-.124.328c.282.19.504.4.664.633.24.349.351.992.452.968.1-.023.08-.92.308-1.765.227-.846.611-1.777.8-2.741.19-.965-.021-2.604-.698-2.874-.677-.27-1.544.613-1.731 1.47Z"/>
    <path fill="#C1C9CB" d="M80.894 35.343c1.274.19 1.822 1.274 1.363 3.068l-.947 3.623-.254 1.046-.113.516c-.083.398-.133.71-.134.887.043.408.464 2.31.577 3.004l.028.234c-.01.252.717 1.95 1.139 3.201.421 1.25.746 2.924.889 3.624.142.7.493 4.27.42 4.863-.01.068-.194.169-.517.296l.053-1.172.023-.885.001-.231-.003-.2c-.02-.803-.19-2.703-.222-2.823-.027-.105-.173-.252-.293-.709l-.05-.215c-.125-.629-.88-2.996-1.112-3.594l-.21-.563-.204-.598a19.453 19.453 0 0 1-.634-2.5l-.073-.438c-.297-1.928-.858-2.976-1.013-3.348-.154-.372-.64-.884-.88-1.212l-.288-.376-.12-.141c-.34.055-.765.263-1.274.624-.7.498-1.224 1.21-1.243 2.33l.007.315c.082 1.305-.553 2.51-1.303 3.485-.467.607-1.364 1.019-2.224 1.261l.611-.298c.551-.28.92-.508 1.108-.685.856-.803 1.137-1.752 1.137-2.002 0-1.08-.335-2.01-.157-2.685.405-1.534 1.198-2.04 2.043-2.21.539-.108.897-.192 1.104-.318a.512.512 0 0 1 .07.134c.32.13.48.102.475-.08l-.089-3.13c-.019-.887 1.035-2.288 2.309-2.098Zm-1.648 2.144c-.188.858-.06 2.91 0 3.157.031.132.108.334.229.606l.1.217-.124.328c.282.19.504.4.664.633.24.349.351.992.452.968.1-.023.08-.92.308-1.765.227-.846.611-1.777.8-2.741.19-.965-.021-2.604-.698-2.874-.677-.27-1.544.613-1.731 1.47Z"/>
    <path fill="#C5CDCB" d="m70.583 58.267-.267.702-.974 2.364c-.178.426-.375.896-.592 1.41l-1.97.18 1.873-4.006 1.93-.65Zm7.108 3.075-.136.03-2.36.603-1.165.294-.794-2.412c-.135-.426-.243-.78-.324-1.063l-.101-.371c-.07-.276-.145-.562-.226-.83l1.359-.46c.413 1.118.89 2.604 1.428 4.459l.902-.203-1.337-4.153-.124-.394 1.331-.45.386 1.146c.55 1.678 1.047 3.362 1.161 3.804Zm4.02-5.12c-.156.174-.104.23.275.451.378.22 1.188 2.062 1.29 2.882-.191.06-.495.19-.911.39l-.32-.807c-.309-.739-.583-1.273-.823-1.604-.48-.662-1.116-.779-1.502-.64-.387.138-.834.66-.65 1.529l.103.432c.123.486.31 1.132.56 1.939l-1.595.425c.16-.066.31-.133.452-.201-.531-1.669-.795-2.838-.792-3.508.005-1.004.957-1.91 1.916-1.86.913.048 1.243-.155 1.244-.876l.978-.332c.1.9-.094 1.634-.225 1.78Z"/>
    <path fill="#8B9494" d="M85.269 67.571c.21 1.086.17 1.922-.12 2.507-.436.453-19.095-.088-18.955-.423.139-.335 1.512-1.338 3.885-2.147 1.583-.54 6.646-.519 15.19.063Z"/>
    <path fill="#7C8989" d="m81.048 67.314-.071 2.937-1.552-.013c-.81-.01-1.662-.024-2.53-.042v-3.05l1.55.05c.812.03 1.68.07 2.603.118Z"/>
    <path fill="#636B6B" d="m76.83 67.145-.006-.027c.554 1.626.554 2.614 0 2.965-.06.038-.13.074-.21.109a356.82 356.82 0 0 1-4.113-.119l-.115-.905c-.094-.845-.127-1.508-.096-1.989l.932-.04c1-.03 2.202-.028 3.608.006Z"/>
    <path fill="#474C51" d="m73.496 67.133.068-.267c-.364 1.28-.4 2.361-.107 3.24l-3.001-.112c-2.506-.109-4.306-.234-4.262-.339.139-.335 1.512-1.338 3.885-2.147.615-.21 1.753-.335 3.417-.375Z"/>
    <path fill="#BDC1C1" d="M85.269 67.571c.104.543.147 1.024.127 1.442l-.02.214-1.357.005c-.517 0-1.018-.002-1.262-.003-.587-.004-.425-.61-.416-1.193.007-.389-.684-.547-2.072-.476.075.528.075.903 0 1.125-.112.333-.402.538-.618.53-.217-.006-.726-.267-.661-.726.043-.306.187-.575.432-.807l-3.625-.323v.936l.007.203c-.002.155-.042.276-.27.359-.213.076-.403.076-.57 0 .392.002.582-.055.57-.172l-.009-.314c0-.212.002-.522.009-.928l-.694.117c.036.15.036.27 0 .36-.053.133-.167.05-.298.375-.088.217-.061.404.08.562-.287-.022-.428-.182-.425-.479.003-.297.144-.57.424-.818a5.719 5.719 0 0 0-1.057-.201c-.498-.044-3.158.213-3.424.323-.16.066-.228.2-.273.34l-.08.27c-.078.202-.075.571-.164.393-.09-.178-.113-.444-.087-.649.01-.081.023-.213.077-.362l.466-.166c1.583-.54 6.646-.519 15.19.063Z"/>
    <path fill="#D7D7D7" d="m80.393 67.28-.033.007c-.058.02-.104.069-.13.156l-.02.1c-.061.517-.424 1.281-.867 1.572-.202-.121-.395-.333-.353-.626.043-.306.187-.575.432-.807l-.853-.075.017-.402 1.186.047.62.029Zm.15.01 1.89.101c.898.053 1.843.113 2.836.18.094.487.137.923.131 1.309a2.5 2.5 0 0 0-.565-.142l-.623-.083c-.292-.04-.924-.035-1.894.015-.005-.193.02-.415.023-.634.005-.305-.418-.468-1.268-.49l-.36-.193a1.015 1.015 0 0 0-.17-.063Z"/>
    <path fill="#DBE0E3" d="M10.795 62.388c1.061.589 2.322 1.124 3.784 1.605 2.192.722 3.904 1.348 4.57 1.445.665.096 7.576 1.205 11.13.974 3.555-.23 11.742-1.743 16.583-2.992 4.841-1.25 10.56-3.673 10.99-3.873.429-.201.737-.299 1.986.262 1.248.56 5.423 2.104 9.478 2.46.545.025 2.086-.213 4.38-.755 2.293-.543 9.107-2.24 9.58-2.384.473-.144.775-.292.999-.257.225.036.343.554.325 1.07-.012.346-.049.817-.11 1.417a.433.433 0 0 1 .212.376c.004.163.004.559 0 1.186.217.09.327.256.33.498.003.241.003.645 0 1.213.271.106.405.265.403.476-.003.212-.003.646 0 1.303.196.143.299.295.308.458.014.244-.02.909-.126 1.04-.108.132-3.637-.01-5.077-.025-1.44-.015-7.404-.363-8.719-.203-1.314.16-4.388 1.066-4.821 1.378-.115.109-.381.414-.95.414-.57 0-5.754-.066-7.738.021-1.983.088-7.987.289-13.378.879-5.39.59-13.245-.002-16.982-.049-3.738-.046-11.091-1.975-13.1-3.036-.844-.446-1.913-.995-2.77-2.18-.333-.46-.762-1.368-1.287-2.72Z"/>
    <path fill="#F2F4F6" d="M85.617 67.91c-.04.048-.544.06-1.237.054l-3.84-.079c-1.44-.015-7.404-.363-8.719-.203-1.314.16-4.388 1.066-4.821 1.378l-.13.121c-.084.072-.2.155-.356.214l-.065-.008-.304.03c.175-.256.736-.583 1.025-.745.435-.244 3.383-1.244 4.713-1.326 1.33-.081 6 .133 8.14.203 3.216.105 5.306.162 5.383.154.146-.014.203-.1.329-.407-.015.257-.053.534-.118.614Z"/>
    <path fill="#E3E6E9" d="m31.686 68.97 3.848.044c5.731.087 12.649.276 20.754.566l-3.258.159c-1.96.108-4.209.257-6.435.466l-1.66.169c-4.688.513-11.239.132-15.325-.006l-1.658-.043c-3.738-.046-11.091-1.975-13.1-3.036l-.617-.333c-.107-.06-.216-.124-.326-.192 5.55 1.422 11.476 2.157 17.777 2.205Z"/>
    <path fill="#EEF0F2" d="M84.275 58.873c.127.02.22.196.274.438a1.533 1.533 0 0 0-.678.02l-.18.049c-1.049.306-5.425 1.743-9.352 2.52l-1.868.357c-2.892.535-4.709.792-5.877 1.113l-.734.226c-1.317.43-2.898 1.027-2.748.839.17-.213 2-1.194 5.23-1.828-.934-.081-4.191-.722-6.11-1.367-1.917-.645-3.064-1.391-3.687-1.26l-.181.053c-1.05.342-5.195 2.102-10.4 3.646-5.591 1.66-13.253 3.023-16.6 3.156-3.348.134-9.174-.148-13.078-1.242a43.025 43.025 0 0 1-7.34-2.814l-.151-.39c1.061.588 2.322 1.123 3.784 1.604l3.182 1.063c.52.168.939.292 1.23.353l1.933.29c2.448.345 6.782.88 9.356.713 3.406-.22 11.067-1.619 15.96-2.835l.622-.157c4.216-1.089 9.099-3.067 10.572-3.692l.61-.265c.322-.12.668-.128 1.522.228l.662.285c1.584.653 5.385 1.968 9.088 2.293.472.021 1.692-.154 3.503-.554l2.476-.587c2.925-.714 7.593-1.88 7.981-1.998l.593-.195c.162-.05.294-.08.406-.062Z"/>
    <path fill="#E9E9E9" d="m71.021 66.022 3.653-.02c.656 0 1.277.006 1.743.02l8.503.397.358-.004c.054-.003.105-.005.152-.01l-.001.097c.077.057.14.114.188.174-1.2.165-6.307-.25-8.76-.332l-1.531-.035c-2.19-.028-4.315.017-4.476.003-.198-.018-.263-.29.171-.29Zm3.56-1.841 3.424.157c1.322.052 6.18.232 6.579.218.158-.006.313-.022.445-.046l-.003.213c.105.04.189.09.253.146l-.828-.004a486.63 486.63 0 0 1-5.486-.17L75 64.472a11.334 11.334 0 0 1-.42-.032c-.29-.037-.37-.267 0-.26Zm10.327-1.02h-1.966l-1.902-.024a96.812 96.812 0 0 1-2.19-.07c-.218-.01-.311-.256-.016-.249l2.552.052 3.312.015-.002.127a.55.55 0 0 1 .212.148Zm-2.65-1.852c.23-.05 1.662-.04 2.247-.017l-.02.158a.448.448 0 0 1 .163.175l-2.39.002c-.201.006-.284-.255 0-.318Z"/>
    <path fill="#C4C9CB" d="m71.027 65.932 3.654-.02c.655 0 1.276.006 1.743.02l8.503.396.358-.004c.053-.002.104-.005.152-.009l-.002.097c.077.056.14.114.188.174-1.2.165-6.307-.25-8.759-.332l-1.532-.035c-2.19-.028-4.314.017-4.475.002-.2-.017-.264-.29.17-.29Zm3.56-1.842 3.424.158c1.323.051 6.181.232 6.579.218.158-.006.313-.022.445-.047l-.003.214c.105.04.19.09.253.146l-.828-.004c-.712-.016-4.41-.123-5.486-.17l-3.964-.223a11.334 11.334 0 0 1-.42-.033c-.29-.036-.37-.266 0-.259Zm10.115-1.168a.55.55 0 0 1 .212.148h-1.966l-1.902-.023a96.812 96.812 0 0 1-2.19-.07c-.218-.01-.31-.256-.016-.25l2.552.052 3.312.016-.002.127Zm-2.438-1.703c.23-.05 1.662-.04 2.247-.017l-.02.158a.448.448 0 0 1 .163.174l-2.39.003c-.2.006-.284-.255 0-.318Z"/>
    <path fill="#C5C7CA" d="M85.336 69.466c.443.128.664.307.664.539 0 .347-.29 1.372-1.948 1.597-1.66.224-10.127.194-12.048.194-1.92 0-11.27-.342-12.639-.433-1.37-.091-5.953-.134-9.724 0-3.77.134-7.7.349-9.647.48-1.298.088-2.629.14-3.994.157h-4.1c-1.379 0-6.33-.763-9.628-1.462s-7.192-1.914-9.351-3.263c-2.16-1.35-2.919-2.835-2.919-4.312 0-1.477.334-2.794.596-3.21.262-.414.738-.693.684.015-.054.707-.012 2.538.09 3.542s.345 2.162 2.457 3.332c2.111 1.17 6.897 2.608 11.211 3.203 4.314.596 11.994.785 16.847.496 4.853-.288 14.276-1.025 18.262-.93 3.986.095 6.273-.132 6.792-.164.519-.033 3.715-.026 5.58.112 1.864.139 5.46.317 7.46.384 2.001.067 5.143.106 5.225.082.054-.016.098-.136.13-.359Z"/>
    <path fill="#B4B7B9" d="m67.805 70.744 1.484.25c1.29.225 2.716.493 4.275.802h-1.56c-1.578 0-8.167-.23-11.23-.364l-1.86-.093c-1.658-.07-5.44-.096-8.754.007l-3.18.123c-2.85.125-5.498.274-6.986.375-.865.058-1.745.1-2.64.127L35.966 72l3.189-.328c3.095-.328 5.214-.59 6.357-.785l.203-.035a67.06 67.06 0 0 1 11.073-1.045c4.388-.045 7.309.337 11.017.937Z"/>
    <path fill="#818181" d="m63.611 70.596 1.72.16c1.767.178 5.051.525 9.853 1.04h-3.18c-1.578 0-8.167-.23-11.23-.364l-1.86-.093c-1.658-.07-5.44-.096-8.754.007l-3.148.122c-1.734.075-3.394.16-4.766.238l3.158-.42c3.193-.41 5.646-.672 7.36-.786 4.149-.276 8.9-.049 10.847.096Z"/>
    <path fill="#5E5858" d="m61.622 71.196 4.795.3c1.809.075 6.796.155 14.963.239l-2.613.042c-.92.01-1.862.014-2.748.017l-4.015.002c-1.578 0-8.167-.23-11.23-.364l-1.86-.093c-1.658-.07-5.44-.096-8.754.007l-.519.017c-1.063.038-2.138.082-3.178.13 2.538-.306 4.812-.474 6.826-.504 2.911-.044 5.9.073 8.333.207Z"/>
    <path fill="#3F4441" d="m53.575 50.807-.005-.005a.222.222 0 0 0-.326 0l-.008.007a.244.244 0 0 0 .006.338.23.23 0 0 0 .326 0l.001-.001a.246.246 0 0 0 .006-.34ZM55.352 51.635l-.005-.005a.222.222 0 0 0-.326 0l-.008.007a.244.244 0 0 0 .005.338.23.23 0 0 0 .327 0 .246.246 0 0 0 .007-.34ZM57.096 52.275l-.005-.005a.222.222 0 0 0-.326-.001l-.008.008a.244.244 0 0 0 .005.337.23.23 0 0 0 .327 0 .246.246 0 0 0 .007-.34Z"/>
    <path fill="#646C67" d="m58.92 53.176-.004-.005a.222.222 0 0 0-.327 0l-.007.008a.244.244 0 0 0 .005.337.23.23 0 0 0 .327 0 .246.246 0 0 0 .006-.34ZM60.597 54.134l-.005-.005a.222.222 0 0 0-.326 0l-.008.008a.244.244 0 0 0 .005.337.23.23 0 0 0 .327 0 .246.246 0 0 0 .007-.34Z"/>
    <path fill="#3F4441" d="m62.369 54.87-.005-.006a.222.222 0 0 0-.326 0l-.008.008a.244.244 0 0 0 .005.337.23.23 0 0 0 .327 0 .246.246 0 0 0 .007-.34ZM52.76 52.138l-.004-.005a.222.222 0 0 0-.326 0l-.008.007a.244.244 0 0 0 .005.338.23.23 0 0 0 .327 0 .246.246 0 0 0 .007-.34ZM54.25 52.983l-.005-.005a.222.222 0 0 0-.326 0l-.008.007a.244.244 0 0 0 .005.338.23.23 0 0 0 .327 0 .246.246 0 0 0 .007-.34Z"/>
    <path fill="#646C67" d="m56.268 53.757-.004-.005a.222.222 0 0 0-.327 0l-.007.008a.244.244 0 0 0 .005.337.23.23 0 0 0 .327 0 .246.246 0 0 0 .006-.34ZM57.987 54.623l-.005-.005a.222.222 0 0 0-.326-.001l-.008.008a.244.244 0 0 0 .005.338.23.23 0 0 0 .327 0v-.001a.246.246 0 0 0 .007-.34ZM59.663 55.581l-.005-.005a.222.222 0 0 0-.326 0l-.008.008a.244.244 0 0 0 .005.337.23.23 0 0 0 .327 0 .246.246 0 0 0 .007-.34Z"/>
    <path fill="#7E807F" d="m61.364 56.396-.005-.005a.222.222 0 0 0-.326 0l-.008.008a.244.244 0 0 0 .005.337.23.23 0 0 0 .327 0 .246.246 0 0 0 .007-.34Z"/>
    <path fill="#3F4441" d="m49.984 52.633-.005-.006a.222.222 0 0 0-.327 0l-.007.008a.244.244 0 0 0 .005.337.23.23 0 0 0 .327 0 .246.246 0 0 0 .007-.34ZM51.715 53.607l-.004-.005a.222.222 0 0 0-.327-.001l-.008.008a.244.244 0 0 0 .006.337.23.23 0 0 0 .326 0h.001a.246.246 0 0 0 .006-.34Z"/>
    <path fill="#646C67" d="m53.348 54.436-.005-.005a.222.222 0 0 0-.326 0l-.008.008a.244.244 0 0 0 .005.337.23.23 0 0 0 .327 0 .246.246 0 0 0 .007-.34ZM55.133 55.277l-.005-.005a.222.222 0 0 0-.327 0l-.007.007a.244.244 0 0 0 .005.338.23.23 0 0 0 .327 0 .246.246 0 0 0 .007-.34Z"/>
    <path fill="#7E807F" d="m56.915 56.206-.005-.005a.222.222 0 0 0-.326 0l-.008.008a.244.244 0 0 0 .005.337.23.23 0 0 0 .327 0 .246.246 0 0 0 .007-.34Z"/>
    <path fill="#3F4441" d="m49.121 54.04-.004-.006a.222.222 0 0 0-.327 0l-.008.008a.244.244 0 0 0 .006.337.23.23 0 0 0 .326 0h.001a.246.246 0 0 0 .006-.34Z"/>
    <path fill="#646C67" d="m50.754 54.87-.005-.006a.222.222 0 0 0-.326 0l-.008.008a.244.244 0 0 0 .005.337.23.23 0 0 0 .327 0 .246.246 0 0 0 .007-.34ZM52.473 55.75l-.005-.005a.222.222 0 0 0-.326 0l-.008.008a.244.244 0 0 0 .005.337.23.23 0 0 0 .327 0 .246.246 0 0 0 .007-.34Z"/>
    <path fill="#7E807F" d="m54.255 56.68-.005-.006a.222.222 0 0 0-.326 0l-.008.008a.244.244 0 0 0 .006.337.23.23 0 0 0 .326 0h.001a.246.246 0 0 0 .006-.34Z"/>
    <path fill="#646C67" d="m48.082 55.409-.005-.005a.222.222 0 0 0-.326-.001l-.008.008a.244.244 0 0 0 .005.338.23.23 0 0 0 .327 0v-.001a.246.246 0 0 0 .007-.34ZM49.733 56.091l-.005-.005a.222.222 0 0 0-.327 0l-.007.008a.244.244 0 0 0 .005.337.23.23 0 0 0 .327 0 .246.246 0 0 0 .007-.34Z"/>
    <path fill="#7E807F" d="m51.325 56.854-.005-.005a.222.222 0 0 0-.326 0l-.008.007a.244.244 0 0 0 .005.338.23.23 0 0 0 .327 0 .246.246 0 0 0 .007-.34Z"/>
    <path fill="#646C67" d="m47.14 56.937-.004-.005a.222.222 0 0 0-.327 0l-.007.008a.244.244 0 0 0 .005.337.23.23 0 0 0 .327 0 .246.246 0 0 0 .007-.34Z"/>
    <path fill="#7E807F" d="m48.645 57.694-.005-.005a.222.222 0 0 0-.326 0l-.008.008a.244.244 0 0 0 .005.337.23.23 0 0 0 .327 0 .246.246 0 0 0 .007-.34ZM50.237 58.457l-.005-.005a.222.222 0 0 0-.326-.001l-.008.008a.244.244 0 0 0 .005.337.23.23 0 0 0 .327 0 .246.246 0 0 0 .007-.34ZM45.944 58.344l-.005-.005a.222.222 0 0 0-.326-.001l-.008.008a.244.244 0 0 0 .005.337.23.23 0 0 0 .327 0 .246.246 0 0 0 .007-.34ZM47.49 59.17l-.005-.006a.222.222 0 0 0-.326 0l-.008.008a.244.244 0 0 0 .005.337.23.23 0 0 0 .327 0 .246.246 0 0 0 .007-.34ZM44.792 59.752l-.005-.005a.222.222 0 0 0-.326 0l-.008.007a.244.244 0 0 0 .005.338.23.23 0 0 0 .327 0 .246.246 0 0 0 .007-.34Z"/>
    <path fill="#474D4F" d="M48.15 51.287a1.51 1.51 0 0 1-.365.033c-.138-.01-.207.262-.332.288-.124.026-.133.09-.077.112.056.023.244.114.359.125.115.012.385-.064.392-.187.004-.082.012-.206.023-.37ZM50.003 48.762c.059-.14.178-.236.357-.288.18-.052.314-.075.403-.069a.43.43 0 0 1-.279.386.516.516 0 0 1-.481-.03Z"/>
  </g>
</svg>
